<svg width="97" height="96" viewBox="0 0 97 96" fill="none" xmlns="http://www.w3.org/2000/svg">
<rect x="0.888939" y="1.52588e-05" width="96" height="96" rx="15" fill="#131C73"/>
<path d="M50.2796 22H46.473C41.4674 22 37.4096 27.9409 37.4096 32.1615C37.4096 32.1615 33.0405 46.7977 34.4648 50.5194H62.2879C63.7121 46.7977 59.343 32.1615 59.343 32.1615C59.343 27.9408 55.2852 22 50.2796 22Z" fill="#414042"/>
<path d="M58.801 49.9574C50.5317 49.9574 52.3766 46.3402 51.8155 42.7183H44.9624C44.4014 46.3402 46.2463 49.9574 37.9769 49.9574C32.6922 49.9574 30.889 52.023 30.889 56.5672V59.6289C35.7146 62.9939 41.7889 65 48.389 65C54.9891 65 61.0634 62.994 65.889 59.6289V56.5672C65.889 52.0229 64.0858 49.9574 58.801 49.9574Z" fill="#FFD0AE"/>
<path opacity="0.1" d="M51.9365 44.8189C51.9185 44.1982 51.8946 43.5576 51.7953 42.9165H44.9421C44.8432 43.5545 44.8191 44.1924 44.8011 44.8104C45.7926 45.3772 46.9716 45.7179 48.3764 45.7179C49.7739 45.7179 50.948 45.3806 51.9365 44.8189Z" fill="black"/>
<path d="M58.801 49.9574L52.7002 50.7649L48.3686 50.5252L44.0523 50.7649L37.9769 49.9574C32.6922 49.9574 30.889 52.023 30.889 56.5672V59.6289C35.7146 62.9939 41.7889 65 48.389 65C54.9891 65 61.0634 62.994 65.889 59.6289V56.5672C65.889 52.0229 64.0858 49.9574 58.801 49.9574Z" fill="#FCB99F"/>
<path d="M51.8808 50.5704H44.8567L47.289 53.4222L46.6381 64.9551C47.1923 64.9837 47.7503 65 48.3126 65C48.9127 65 49.508 64.9813 50.0989 64.9486L49.4485 53.4222L51.8808 50.5704Z" fill="#998379"/>
<path opacity="0.2" d="M47.2889 53.4222H49.4484C49.4484 53.4222 48.9002 53.5984 48.3687 53.5984C47.8371 53.5984 47.2889 53.4222 47.2889 53.4222Z" fill="black"/>
<path d="M58.801 49.9574L52.7002 50.7649L48.3763 63.3816L44.0524 50.7649L37.977 49.9574C32.6923 49.9574 30.8891 52.023 30.8891 56.5672V59.6289C35.7146 62.9939 41.7889 65 48.389 65C54.9891 65 61.0634 62.994 65.8889 59.6289V56.5672C65.8889 52.0229 64.0858 49.9574 58.801 49.9574Z" fill="#E59285"/>
<path d="M44.534 47.1828H44.0073L40.6765 49.7467L44.2513 54.2608L48.3686 50.5252L44.534 47.1828Z" fill="#FCB99F"/>
<path d="M52.2148 47.1828H52.73L56.0608 49.7467L52.486 54.2608L48.3687 50.5252L52.2148 47.1828Z" fill="#FCB99F"/>
<path d="M40.0582 38.0203C40.9047 38.0203 41.591 37.2986 41.591 36.4083C41.591 35.518 40.9047 34.7963 40.0582 34.7963C39.2116 34.7963 38.5253 35.518 38.5253 36.4083C38.5253 37.2986 39.2116 38.0203 40.0582 38.0203Z" fill="#FFD0AE"/>
<path d="M56.6945 38.0203C57.5411 38.0203 58.2274 37.2986 58.2274 36.4083C58.2274 35.518 57.5411 34.7963 56.6945 34.7963C55.848 34.7963 55.1617 35.518 55.1617 36.4083C55.1617 37.2986 55.848 38.0203 56.6945 38.0203Z" fill="#FFD0AE"/>
<path opacity="0.1" d="M44.2513 54.6564L48.3686 50.821L52.4859 54.6564L56.3926 49.8288L56.3899 49.8281C56.2684 49.8132 56.1491 49.7974 56.0342 49.7801L52.486 54.2607L48.3687 50.5252L44.2514 54.2607L40.7033 49.7801C40.5883 49.7975 40.4691 49.8132 40.3476 49.8281L40.3448 49.8288L44.2513 54.6564Z" fill="black"/>
<path d="M43.0859 47.8921L37.9566 49.9574L42.3128 53.4222L40.1652 54.6564L48.3763 63.3816L43.0859 47.8921Z" fill="#E59285"/>
<path d="M53.6668 47.8921L58.7961 49.9574L54.4399 53.4222L56.5876 54.6564L48.3763 63.3816L53.6668 47.8921Z" fill="#E59285"/>
<path opacity="0.1" d="M58.7993 49.9574L54.4305 53.4223L54.7198 53.5886L59.207 49.9626C59.0731 49.9596 58.938 49.9574 58.7993 49.9574Z" fill="black"/>
<path opacity="0.1" d="M37.916 49.9574L42.2849 53.4223L41.9956 53.5886L37.5083 49.9626C37.6422 49.9596 37.7773 49.9574 37.916 49.9574Z" fill="black"/>
<path opacity="0.1" d="M56.3454 54.9136L48.3763 63.3816L40.4072 54.9136L40.1651 55.0527L48.3763 63.8038L56.5875 55.0527L56.3454 54.9136Z" fill="black"/>
<path d="M49.9006 24.8238H46.8518C42.8429 24.8238 39.5929 29.0176 39.5929 32.5935C39.5929 32.5935 39.8276 45.1545 48.3762 45.1545C56.9247 45.1545 57.1594 32.5935 57.1594 32.5935C57.1595 29.0176 53.9096 24.8238 49.9006 24.8238Z" fill="#FFD0AE"/>
<path d="M48.3764 23.9651C40.6428 23.9651 38.2758 30.3765 39.7997 34.8193C39.7997 34.8193 40.9743 33.9604 43.3484 33.3752C43.3484 33.3752 43.1989 31.6438 43.6957 29.3299C43.6263 31.5283 44.1433 33.1983 44.1433 33.1983C45.3171 32.9645 46.7282 32.8002 48.3764 32.8002C54.1022 32.8002 56.953 34.8194 56.953 34.8194C58.477 30.3767 56.11 23.9651 48.3764 23.9651Z" fill="#414042"/>
<path opacity="0.1" d="M48.3763 32.8003C46.75 32.8003 45.3558 32.9605 44.1913 33.1896C44.2517 33.4429 44.2952 33.5835 44.2952 33.5835C45.5077 33.3418 46.9651 33.1722 48.6674 33.1722C53.0594 33.1722 55.826 34.2281 56.9528 34.8203C56.9575 34.7887 56.9484 34.8514 56.9528 34.8203C56.9501 34.8183 54.0993 32.8003 48.3763 32.8003Z" fill="black"/>
<path opacity="0.1" d="M43.7003 30.2745C43.6882 29.9738 43.6853 29.658 43.6956 29.33C43.1987 31.6439 43.3483 33.3753 43.3483 33.3753C40.9771 33.9597 39.8027 34.8172 39.7998 34.8193C39.8185 34.9495 39.7776 34.6814 39.7998 34.8193C40.0542 34.6481 41.3501 34.1602 43.4743 33.766C43.4741 33.7659 43.3488 32.3121 43.7003 30.2745Z" fill="black"/>
<path opacity="0.1" d="M54.2887 60.2884H59.5962V60.5147H54.2887V60.2884Z" fill="black"/>
<path opacity="0.1" d="M37.1816 60.2884H42.4891V60.5147H37.1816V60.2884Z" fill="black"/>
</svg>
