<svg width="96" height="96" viewBox="0 0 96 96" fill="none" xmlns="http://www.w3.org/2000/svg">
<rect width="96" height="96" rx="15" fill="#131C73"/>
<path d="M49.3907 22H45.5841C40.5785 22 36.5207 27.9409 36.5207 32.1616C36.5207 32.1616 32.1516 46.7978 33.5759 50.5195H61.399C62.8232 46.7978 58.4541 32.1616 58.4541 32.1616C58.4541 27.9408 54.3963 22 49.3907 22Z" fill="#414042"/>
<path d="M57.912 49.9575C49.6428 49.9575 51.4877 46.3402 50.9266 42.7184H44.0734C43.5125 46.3402 45.3573 49.9575 37.088 49.9575C31.8032 49.9575 30 52.0231 30 56.5673V59.629C34.8256 62.9939 40.9 65 47.5001 65C54.1002 65 60.1745 62.994 65 59.629V56.5673C65 52.023 63.1969 49.9575 57.912 49.9575Z" fill="#FFD0AE"/>
<path opacity="0.1" d="M51.0476 44.819C51.0296 44.1983 51.0057 43.5576 50.9064 42.9165H44.0531C43.9542 43.5545 43.9301 44.1925 43.9121 44.8104C44.9037 45.3773 46.0826 45.7179 47.4874 45.7179C48.885 45.7179 50.059 45.3807 51.0476 44.819Z" fill="black"/>
<path d="M57.912 49.9575L51.8113 50.7649L47.4796 50.5252L43.1633 50.7649L37.088 49.9575C31.8032 49.9575 30 52.0231 30 56.5673V59.629C34.8256 62.9939 40.9 65 47.5001 65C54.1002 65 60.1745 62.994 65 59.629V56.5673C65 52.023 63.1969 49.9575 57.912 49.9575Z" fill="#FCB99F"/>
<path d="M50.9919 50.5705H43.9678L46.4001 53.4222L45.7493 64.9551C46.3035 64.9837 46.8614 65 47.4237 65C48.0238 65 48.6191 64.9814 49.21 64.9487L48.5596 53.4222L50.9919 50.5705Z" fill="#998379"/>
<path opacity="0.2" d="M46.4 53.4222H48.5595C48.5595 53.4222 48.0113 53.5975 47.4797 53.5975C46.9482 53.5975 46.4 53.4222 46.4 53.4222Z" fill="black"/>
<path d="M57.912 49.9575L51.8113 50.7649L47.4874 63.3817L43.1634 50.7649L37.0881 49.9575C31.8034 49.9575 30.0001 52.0231 30.0001 56.5673V59.629C34.8256 62.9939 40.9 65 47.5001 65C54.1002 65 60.1745 62.994 65 59.629V56.5673C65 52.023 63.1969 49.9575 57.912 49.9575Z" fill="#E59285"/>
<path d="M43.6451 47.1828H43.1184L39.7876 49.7467L43.3624 54.2608L47.4797 50.5252L43.6451 47.1828Z" fill="#FCB99F"/>
<path d="M51.3258 47.1828H51.841L55.1719 49.7467L51.5971 54.2608L47.4797 50.5252L51.3258 47.1828Z" fill="#FCB99F"/>
<path d="M39.1692 38.0203C40.0157 38.0203 40.702 37.2986 40.702 36.4083C40.702 35.518 40.0157 34.7963 39.1692 34.7963C38.3226 34.7963 37.6363 35.518 37.6363 36.4083C37.6363 37.2986 38.3226 38.0203 39.1692 38.0203Z" fill="#FFD0AE"/>
<path d="M55.8056 38.0203C56.6522 38.0203 57.3385 37.2986 57.3385 36.4083C57.3385 35.518 56.6522 34.7963 55.8056 34.7963C54.9591 34.7963 54.2728 35.518 54.2728 36.4083C54.2728 37.2986 54.9591 38.0203 55.8056 38.0203Z" fill="#FFD0AE"/>
<path opacity="0.1" d="M43.3624 54.6564L47.4796 50.8211L51.597 54.6564L55.5036 49.8288L55.5009 49.8282C55.3794 49.8133 55.2601 49.7974 55.1452 49.7802L51.5971 54.2608L47.4797 50.5252L43.3625 54.2608L39.8143 49.7802C39.6994 49.7975 39.5802 49.8133 39.4586 49.8282L39.4559 49.8288L43.3624 54.6564Z" fill="black"/>
<path d="M42.197 47.8921L37.0676 49.9575L41.4238 53.4222L39.2762 54.6564L47.4874 63.3817L42.197 47.8921Z" fill="#E59285"/>
<path d="M52.7779 47.8921L57.9071 49.9575L53.5509 53.4222L55.6986 54.6564L47.4874 63.3817L52.7779 47.8921Z" fill="#E59285"/>
<path opacity="0.1" d="M57.9104 49.9575L53.5416 53.4223L53.8309 53.5886L58.3182 49.9626C58.1842 49.9596 58.0491 49.9575 57.9104 49.9575Z" fill="black"/>
<path opacity="0.1" d="M37.0271 49.9575L41.396 53.4223L41.1067 53.5886L36.6194 49.9626C36.7533 49.9596 36.8884 49.9575 37.0271 49.9575Z" fill="black"/>
<path opacity="0.1" d="M55.4565 54.9136L47.4874 63.3817L39.5183 54.9136L39.2762 55.0528L47.4874 63.8039L55.6987 55.0528L55.4565 54.9136Z" fill="black"/>
<path d="M49.0117 24.8239H45.963C41.954 24.8239 38.704 29.0176 38.704 32.5936C38.704 32.5936 38.9387 45.1546 47.4873 45.1546C56.0358 45.1546 56.2705 32.5936 56.2705 32.5936C56.2706 29.0176 53.0207 24.8239 49.0117 24.8239Z" fill="#FFD0AE"/>
<path d="M47.4874 23.9651C39.7538 23.9651 37.3868 30.3766 38.9107 34.8193C38.9107 34.8193 40.0853 33.9604 42.4594 33.3752C42.4594 33.3752 42.3099 31.6439 42.8067 29.3299C42.7373 31.5283 43.2543 33.1984 43.2543 33.1984C44.4281 32.9645 45.8392 32.8003 47.4874 32.8003C53.2132 32.8003 56.064 34.8194 56.064 34.8194C57.588 30.3768 55.221 23.9651 47.4874 23.9651Z" fill="#414042"/>
<path opacity="0.1" d="M47.4874 32.8004C45.8611 32.8004 44.4669 32.9605 43.3024 33.1895C43.3628 33.4426 43.4062 33.5832 43.4062 33.5832C44.6187 33.3417 46.0762 33.1721 47.7784 33.1721C52.1705 33.1721 54.9371 34.2275 56.0639 34.8194C56.0686 34.7879 56.0595 34.8505 56.0639 34.8194C56.0611 34.8174 53.2104 32.8004 47.4874 32.8004Z" fill="black"/>
<path opacity="0.1" d="M42.8114 30.2745C42.7993 29.9738 42.7964 29.658 42.8067 29.33C42.3097 31.644 42.4594 33.3753 42.4594 33.3753C40.0881 33.9597 38.9138 34.8172 38.9109 34.8193C38.9295 34.9495 38.8886 34.6815 38.9109 34.8193C39.1652 34.6481 40.4612 34.1602 42.5853 33.766C42.5852 33.7659 42.4599 32.3121 42.8114 30.2745Z" fill="black"/>
<path opacity="0.1" d="M53.3998 60.2885H58.7073V60.5131H53.3998V60.2885Z" fill="black"/>
<path opacity="0.1" d="M36.2927 60.2885H41.6002V60.5131H36.2927V60.2885Z" fill="black"/>
</svg>
