<svg width="96" height="96" viewBox="0 0 96 96" fill="none" xmlns="http://www.w3.org/2000/svg">
<rect width="96" height="96" rx="15" fill="#131C73"/>
<path fill-rule="evenodd" clip-rule="evenodd" d="M41.7237 34.1838C42.2777 33.9954 42.9829 34.6439 43.2984 35.6325C43.614 36.6207 43.4206 37.5746 42.8663 37.7629C42.3123 37.951 41.6071 37.3025 41.2916 36.314C40.9757 35.3257 41.1694 34.3718 41.7237 34.1838Z" fill="#DBC0B2"/>
<path fill-rule="evenodd" clip-rule="evenodd" d="M57.9261 34.1838C57.3718 33.9954 56.6666 34.6442 56.3511 35.6325C56.0355 36.6208 56.2289 37.5746 56.7831 37.7627C57.3374 37.9511 58.0426 37.3025 58.3581 36.314C58.6737 35.3257 58.4803 34.3718 57.9261 34.1838Z" fill="#DBC0B2"/>
<path fill-rule="evenodd" clip-rule="evenodd" d="M46.9077 44.6807C40.4273 47.6103 38.4834 49.1722 37.715 49.8735C36.5309 50.9541 35.8759 54.9819 35.1775 58.4019H49.8388H64.5001C63.8017 54.9819 63.1465 50.9541 61.9626 49.8735C61.1942 49.1721 59.3215 47.6506 52.8411 44.7206L46.9077 44.6807Z" fill="#FFDDCC"/>
<path fill-rule="evenodd" clip-rule="evenodd" d="M46.9074 44.6807C40.4273 47.6103 38.4834 49.1722 37.715 49.8735C36.5309 50.9541 35.8759 54.9819 35.1775 58.4019H49.8388H64.4997C63.8014 54.9819 63.1464 50.9541 61.9623 49.8735C61.1941 49.1721 59.3214 47.6506 52.841 44.7206L46.9074 44.6807Z" fill="#212121"/>
<path fill-rule="evenodd" clip-rule="evenodd" d="M52.9852 38.8407V46.2482C51.2546 48.434 48.4227 48.3583 46.6924 46.2482V38.8407C46.6924 34.8408 52.9852 34.8408 52.9852 38.8407Z" fill="#ECCEBE"/>
<path fill-rule="evenodd" clip-rule="evenodd" d="M52.9852 38.8407V43.8002C51.7945 44.6952 50.6469 45.1966 49.8388 45.1966C49.0307 45.1966 47.8829 44.6952 46.6924 43.8002V38.8407C46.6924 34.8408 52.9852 34.8408 52.9852 38.8407Z" fill="#DFC4B6"/>
<path fill-rule="evenodd" clip-rule="evenodd" d="M49.8387 25.5415C39.2784 25.5415 43.076 38.7005 43.7659 39.7478C44.5265 40.903 48.1326 43.9647 49.8387 43.9647C51.545 43.9647 55.1508 40.903 55.9113 39.7478C56.6014 38.7004 60.3992 25.5415 49.8387 25.5415Z" fill="#ECCEBE"/>
<path fill-rule="evenodd" clip-rule="evenodd" d="M49.8551 47.8592C49.8551 47.8592 45.4641 48.9403 45.4641 49.2144C45.4641 49.4884 47.135 58.4019 47.135 58.4019H53.0963L53.7796 49.2536L49.8551 47.8592Z" fill="#C7B7B7"/>
<path fill-rule="evenodd" clip-rule="evenodd" d="M46.6924 44.7783V46.2483L48.0592 58.4019H45.7089L43.1234 52.9887L45.5913 51.2921L42.5752 49.8378L45.3487 45.3996L46.6924 44.7783Z" fill="#424242"/>
<path fill-rule="evenodd" clip-rule="evenodd" d="M52.9852 44.786L52.9854 46.2483L51.605 58.4019H53.9552L56.5405 52.9887L54.0727 51.292L57.0889 49.8378L54.6239 45.5363L52.9852 44.786Z" fill="#424242"/>
<path fill-rule="evenodd" clip-rule="evenodd" d="M46.6924 43.8002L46.4173 44.9034L47.1871 50.6495L49.8551 47.8594L46.6924 43.8002Z" fill="white"/>
<path fill-rule="evenodd" clip-rule="evenodd" d="M48.4857 49.3622L49.2477 50.5796H50.4297L51.192 49.3622L49.8552 47.8592L48.4857 49.3622Z" fill="#224F10"/>
<path fill-rule="evenodd" clip-rule="evenodd" d="M49.2476 50.5796L48.1627 58.4019H51.5147L50.4298 50.5796H49.2476Z" fill="#33691E"/>
<path fill-rule="evenodd" clip-rule="evenodd" d="M52.9852 43.8002L53.2021 44.8855L52.4789 50.7068L49.8551 47.8594L52.9852 43.8002Z" fill="white"/>
<path fill-rule="evenodd" clip-rule="evenodd" d="M41.1523 58.4019H41.6544C41.6319 56.0995 41.6319 54.44 41.6319 54.44C41.6319 54.44 41.4095 56.1645 41.1523 58.4019Z" fill="#757575"/>
<path fill-rule="evenodd" clip-rule="evenodd" d="M58.5252 58.4019H58.0228C58.0453 56.0995 58.0453 54.44 58.0453 54.44C58.0453 54.44 58.2676 56.1645 58.5252 58.4019Z" fill="#757575"/>
<path fill-rule="evenodd" clip-rule="evenodd" d="M46.6403 39.3163C48.7643 40.1002 51.2296 39.9731 53.037 39.3163C52.4473 42.1186 47.7682 42.1867 46.6403 39.3163Z" fill="#E4B7A0"/>
<path d="M43.733 31.2894C43.685 31.2566 43.614 31.2108 43.5408 31.1636C42.6458 30.5866 41.4877 29.84 41.4561 25.2296C41.4544 24.7906 41.7982 24.4333 42.2239 24.4316C42.4525 24.4307 42.6581 24.5324 42.7999 24.6947C43.1874 25.1378 43.5789 25.3581 43.9494 25.4143C44.3647 25.4772 44.7887 25.338 45.1756 25.0742C46.5133 24.1621 48.355 23.3399 50.3151 23.1329C51.8921 22.9664 53.546 23.1943 55.0861 24.0809C55.1036 24.091 55.1206 24.1016 55.137 24.1128C56.5408 25.0733 57.508 25.9617 57.951 27.0188C58.4273 28.1555 58.2883 29.3688 57.4245 30.8837C57.3031 31.0971 57.1001 31.2306 56.8803 31.2667C56.6519 31.3047 56.4345 31.3328 56.2291 31.3497C56.0077 31.368 55.7883 31.3773 55.5718 31.3773C53.997 31.3773 52.5413 30.9184 51.3796 30.1484C50.6839 29.6873 50.0924 29.1135 49.6406 28.4576C49.2487 29.0581 48.7415 29.5932 48.1448 30.0407C47.0917 30.8306 45.7553 31.3498 44.2867 31.4703C44.0781 31.4871 43.8824 31.4169 43.733 31.2894Z" fill="#424242"/>
<path d="M49.9509 28.6234C51.5828 28.7589 54.302 27.9739 55.9744 31.0972C56.6384 32.338 56.8045 34.3485 56.9287 34.6063C57.5336 34.0652 58.001 34.2241 58.4126 34.6641C58.0283 29.3649 57.9301 25.1735 49.8574 24.8901C43.889 24.6805 41.7794 28.0776 41.4813 32.182L41.2648 34.7191C41.9189 34.1559 42.4221 34.3141 42.7749 34.8341C43.7277 31.9716 42.2308 27.9831 49.9509 28.6234Z" fill="#424242"/>
<path fill-rule="evenodd" clip-rule="evenodd" d="M29.8309 42.1032H41.7446H42.0756V42.4445V58.1433V58.4845H41.7446H29.8309H29.5V58.1433V42.4445V42.1032H29.8309Z" fill="#E1F5FE"/>
<path fill-rule="evenodd" clip-rule="evenodd" d="M31.8166 54.7304H39.759V55.4129H31.8166V54.7304Z" fill="#616161"/>
<path fill-rule="evenodd" clip-rule="evenodd" d="M31.8166 52.6827H39.759V53.3652H31.8166V52.6827Z" fill="#616161"/>
<path fill-rule="evenodd" clip-rule="evenodd" d="M31.8166 50.6349H39.759V51.3176H31.8166V50.6349Z" fill="#616161"/>
<path fill-rule="evenodd" clip-rule="evenodd" d="M31.8166 48.5872H39.759V49.2698H31.8166V48.5872Z" fill="#616161"/>
<path fill-rule="evenodd" clip-rule="evenodd" d="M31.8166 46.5395H39.759V47.2221H31.8166V46.5395Z" fill="#616161"/>
<path fill-rule="evenodd" clip-rule="evenodd" d="M31.8166 44.4918H39.759V45.1743H31.8166V44.4918Z" fill="#616161"/>
</svg>
