<svg width="97" height="96" viewBox="0 0 97 96" fill="none" xmlns="http://www.w3.org/2000/svg">
<rect x="0.944473" y="1.52588e-05" width="95.9445" height="96" rx="15" fill="#131C73"/>
<path fill-rule="evenodd" clip-rule="evenodd" d="M42.644 34.1838C43.1977 33.9954 43.9025 34.6439 44.2179 35.6325C44.5333 36.6208 44.34 37.5746 43.786 37.763C43.2323 37.9511 42.5276 37.3025 42.2122 36.314C41.8965 35.3257 42.0901 34.3718 42.644 34.1838Z" fill="#DBC0B2"/>
<path fill-rule="evenodd" clip-rule="evenodd" d="M58.8371 34.1838C58.2831 33.9954 57.5783 34.6442 57.263 35.6325C56.9476 36.6208 57.1409 37.5746 57.6947 37.7627C58.2487 37.9511 58.9535 37.3025 59.2689 36.314C59.5842 35.3257 59.391 34.3718 58.8371 34.1838Z" fill="#DBC0B2"/>
<path fill-rule="evenodd" clip-rule="evenodd" d="M47.8251 44.6807C41.3485 47.6103 39.4056 49.1722 38.6377 49.8736C37.4542 50.9542 36.7997 54.982 36.1017 58.4019H50.7545H65.4073C64.7093 54.982 64.0545 50.9542 62.8712 49.8736C62.1033 49.1722 60.2317 47.6506 53.7551 44.7206L47.8251 44.6807Z" fill="#FFDDCC"/>
<path fill-rule="evenodd" clip-rule="evenodd" d="M47.8248 44.6807C41.3484 47.6103 39.4056 49.1722 38.6377 49.8736C37.4542 50.9542 36.7997 54.982 36.1017 58.4019H50.7545H65.4069C64.709 54.982 64.0544 50.9542 62.8709 49.8736C62.1033 49.1722 60.2316 47.6506 53.755 44.7206L47.8248 44.6807Z" fill="#212121"/>
<path fill-rule="evenodd" clip-rule="evenodd" d="M53.899 38.8407V46.2482C52.1694 48.4341 49.3392 48.3583 47.6099 46.2482V38.8407C47.6099 34.8408 53.899 34.8408 53.899 38.8407Z" fill="#ECCEBE"/>
<path fill-rule="evenodd" clip-rule="evenodd" d="M53.899 38.8407V43.8002C52.709 44.6952 51.5621 45.1966 50.7544 45.1966C49.9468 45.1966 48.7997 44.6952 47.6099 43.8002V38.8407C47.6099 34.8408 53.899 34.8408 53.899 38.8407Z" fill="#DFC4B6"/>
<path fill-rule="evenodd" clip-rule="evenodd" d="M50.7544 25.5415C40.2001 25.5415 43.9956 38.7005 44.6851 39.7478C45.4453 40.903 49.0492 43.9647 50.7544 43.9647C52.4597 43.9647 56.0634 40.903 56.8235 39.7478C57.5132 38.7004 61.3088 25.5415 50.7544 25.5415Z" fill="#ECCEBE"/>
<path fill-rule="evenodd" clip-rule="evenodd" d="M50.7708 47.8593C50.7708 47.8593 46.3823 48.9403 46.3823 49.2144C46.3823 49.4885 48.0522 58.4019 48.0522 58.4019H54.0101L54.693 49.2537L50.7708 47.8593Z" fill="#C7B7B7"/>
<path fill-rule="evenodd" clip-rule="evenodd" d="M47.6099 44.7783V46.2483L48.9759 58.4019H46.627L44.0429 52.9887L46.5095 51.2921L43.4951 49.8378L46.267 45.3996L47.6099 44.7783Z" fill="#424242"/>
<path fill-rule="evenodd" clip-rule="evenodd" d="M53.8991 44.786L53.8993 46.2483L52.5197 58.4019H54.8685L57.4523 52.9887L54.9859 51.2921L58.0004 49.8378L55.5368 45.5363L53.8991 44.786Z" fill="#424242"/>
<path fill-rule="evenodd" clip-rule="evenodd" d="M47.6099 43.8002L47.335 44.9035L48.1043 50.6495L50.7707 47.8594L47.6099 43.8002Z" fill="white"/>
<path fill-rule="evenodd" clip-rule="evenodd" d="M49.4022 49.3623L50.1638 50.5797H51.3451L52.1069 49.3623L50.7709 47.8593L49.4022 49.3623Z" fill="#224F10"/>
<path fill-rule="evenodd" clip-rule="evenodd" d="M50.1636 50.5796L49.0794 58.4019H52.4294L51.3451 50.5796H50.1636Z" fill="#33691E"/>
<path fill-rule="evenodd" clip-rule="evenodd" d="M53.8991 43.8002L54.1159 44.8856L53.3931 50.7069L50.7707 47.8594L53.8991 43.8002Z" fill="white"/>
<path fill-rule="evenodd" clip-rule="evenodd" d="M42.073 58.4019H42.5748C42.5523 56.0995 42.5523 54.44 42.5523 54.44C42.5523 54.44 42.3301 56.1646 42.073 58.4019Z" fill="#757575"/>
<path fill-rule="evenodd" clip-rule="evenodd" d="M59.4358 58.4019H58.9338C58.9562 56.0995 58.9562 54.44 58.9562 54.44C58.9562 54.44 59.1785 56.1646 59.4358 58.4019Z" fill="#757575"/>
<path fill-rule="evenodd" clip-rule="evenodd" d="M47.5578 39.3164C49.6806 40.1006 52.1445 39.9735 53.9509 39.3164C53.3614 42.1199 48.685 42.188 47.5578 39.3164Z" fill="#E4B7A0"/>
<path d="M44.6522 31.2894C44.6043 31.2567 44.5333 31.2108 44.4602 31.1637C43.5656 30.5866 42.4082 29.8401 42.3766 25.2297C42.375 24.7907 42.7185 24.4334 43.144 24.4316C43.3724 24.4307 43.578 24.5325 43.7196 24.6948C44.1069 25.1378 44.4982 25.3582 44.8685 25.4144C45.2836 25.4773 45.7073 25.338 46.094 25.0743C47.431 24.1622 49.2716 23.34 51.2305 23.133C52.8066 22.9664 54.4595 23.1943 55.9987 24.081C56.0162 24.091 56.0332 24.1016 56.0496 24.1128C57.4526 25.0734 58.4192 25.9618 58.862 27.0189C59.338 28.1555 59.1991 29.3689 58.3358 30.8837C58.2145 31.0971 58.0116 31.2307 57.7919 31.2667C57.5636 31.3047 57.3464 31.3329 57.1411 31.3498C56.9198 31.368 56.7005 31.3774 56.4841 31.3774C54.9103 31.3774 53.4555 30.9184 52.2944 30.1485C51.5991 29.6873 51.0079 29.1136 50.5564 28.4577C50.1648 29.0582 49.6578 29.5932 49.0614 30.0408C48.009 30.8306 46.6733 31.3498 45.2056 31.4703C44.9971 31.4872 44.8015 31.417 44.6522 31.2894Z" fill="#424242"/>
<path d="M50.8665 28.6235C52.4975 28.7589 55.2151 27.9739 56.8865 31.0973C57.5501 32.338 57.7161 34.3485 57.8402 34.6064C58.4448 34.0653 58.9119 34.2241 59.3233 34.6641C58.9392 29.3649 58.8411 25.1735 50.773 24.8901C44.8081 24.6806 42.6997 28.0776 42.4018 32.182L42.1855 34.7191C42.8391 34.1559 43.3421 34.3141 43.6947 34.8341C44.6469 31.9717 43.1508 27.9832 50.8665 28.6235Z" fill="#424242"/>
<path fill-rule="evenodd" clip-rule="evenodd" d="M30.7581 42.1033H42.665H42.9957V42.4445V58.1433V58.4846H42.665H30.7581H30.4275V58.1433V42.4445V42.1033H30.7581Z" fill="#E1F5FE"/>
<path fill-rule="evenodd" clip-rule="evenodd" d="M32.7427 54.7304H40.6805V55.4133H32.7427V54.7304Z" fill="#616161"/>
<path fill-rule="evenodd" clip-rule="evenodd" d="M32.7427 52.6827H40.6805V53.3656H32.7427V52.6827Z" fill="#616161"/>
<path fill-rule="evenodd" clip-rule="evenodd" d="M32.7427 50.6349H40.6805V51.3179H32.7427V50.6349Z" fill="#616161"/>
<path fill-rule="evenodd" clip-rule="evenodd" d="M32.7427 48.5873H40.6805V49.2701H32.7427V48.5873Z" fill="#616161"/>
<path fill-rule="evenodd" clip-rule="evenodd" d="M32.7427 46.5395H40.6805V47.2225H32.7427V46.5395Z" fill="#616161"/>
<path fill-rule="evenodd" clip-rule="evenodd" d="M32.7427 44.4918H40.6805V45.1747H32.7427V44.4918Z" fill="#616161"/>
</svg>
