<svg width="96" height="96" viewBox="0 0 96 96" fill="none" xmlns="http://www.w3.org/2000/svg">
<rect y="0.00012207" width="96" height="96" rx="15" fill="#131C73"/>
<path d="M31.1394 59.6267C31.0492 59.6267 30.9627 59.5929 30.8989 59.5327C30.8351 59.4725 30.7993 59.3908 30.7993 59.3057V50.2453C30.7994 50.2028 30.8086 50.1608 30.8261 50.1216C30.8436 50.0825 30.8692 50.047 30.9013 50.0173L34.3673 46.8067C34.4318 46.7471 34.5187 46.7141 34.609 46.715C34.6992 46.7159 34.7854 46.7506 34.8486 46.8115C34.9117 46.8724 34.9467 46.9544 34.9457 47.0396C34.9448 47.1248 34.908 47.2062 34.8435 47.2658L31.4795 50.3769V59.3025C31.48 59.3449 31.4715 59.387 31.4546 59.4263C31.4377 59.4657 31.4127 59.5014 31.3811 59.5316C31.3495 59.5617 31.3118 59.5857 31.2703 59.602C31.2289 59.6183 31.1843 59.6268 31.1394 59.6267Z" fill="#093F68"/>
<path d="M34.9585 45.0695L33.4656 46.3599C32.9917 46.7695 32.9594 47.4642 33.3933 47.9116L33.4944 48.0158C33.9284 48.4632 34.6644 48.4938 35.1383 48.0841L36.6312 46.7938C37.1051 46.3842 37.1375 45.6894 36.7035 45.2421L36.6024 45.1379C36.1684 44.6905 35.4324 44.6599 34.9585 45.0695Z" fill="#FFBC0E"/>
<path d="M34.3537 48.6977H34.2857C34.0886 48.6904 33.895 48.646 33.7163 48.5672C33.5375 48.4884 33.3773 48.3767 33.2449 48.2386L33.1428 48.1359C32.8741 47.8576 32.7332 47.4901 32.751 47.114C32.7689 46.7378 32.944 46.3837 33.2381 46.1292L34.7279 44.845C35.0226 44.5913 35.412 44.4583 35.8105 44.4752C36.209 44.492 36.5841 44.6573 36.8537 44.9349L36.9523 45.0376C37.086 45.175 37.1897 45.3359 37.2575 45.5112C37.3252 45.6864 37.3557 45.8725 37.3472 46.0589C37.3387 46.2453 37.2913 46.4283 37.2078 46.5973C37.1243 46.7664 37.0063 46.9183 36.8605 47.0443L35.3707 48.3285C35.0931 48.5681 34.7299 48.7 34.3537 48.6977ZM35.7551 45.1083C35.5485 45.1085 35.3494 45.1818 35.1972 45.3137L33.7142 46.6108C33.6339 46.6793 33.569 46.7624 33.5235 46.855C33.4779 46.9477 33.4525 47.0481 33.4489 47.1502C33.4433 47.2526 33.4593 47.3551 33.4961 47.4515C33.5329 47.548 33.5897 47.6366 33.6632 47.7121L33.7619 47.8148C33.9098 47.9661 34.1151 48.0561 34.333 48.0651C34.5509 48.0741 34.7637 48.0015 34.9251 47.863L36.4183 46.5787C36.4991 46.5106 36.5643 46.4276 36.6099 46.3349C36.6555 46.2421 36.6806 46.1416 36.6836 46.0393C36.6891 45.9375 36.6729 45.8356 36.6361 45.7396C36.5993 45.6437 36.5426 45.5557 36.4694 45.4807L36.3707 45.3779C36.2982 45.3021 36.2102 45.2409 36.112 45.1979C36.0138 45.1548 35.9075 45.1309 35.7993 45.1275L35.7551 45.1083Z" fill="#093F68"/>
<path d="M64.704 59.6267C64.6138 59.6267 64.5273 59.5928 64.4635 59.5326C64.3997 59.4724 64.3639 59.3907 64.3639 59.3056V54.13L61 51.0157C60.9366 50.9556 60.901 50.8742 60.901 50.7894C60.901 50.7045 60.9366 50.6232 61 50.563C61.0316 50.5329 61.0692 50.509 61.1106 50.4927C61.1521 50.4764 61.1965 50.468 61.2414 50.468C61.2863 50.468 61.3308 50.4764 61.3723 50.4927C61.4137 50.509 61.4513 50.5329 61.4829 50.563L64.9489 53.7737C64.9811 53.8034 65.0066 53.8389 65.0242 53.878C65.0417 53.9171 65.0508 53.9591 65.051 54.0016V59.312C65.0501 59.3542 65.0404 59.3958 65.0225 59.4344C65.0046 59.473 64.9788 59.508 64.9466 59.5372C64.9143 59.5664 64.8763 59.5893 64.8347 59.6047C64.7931 59.62 64.7487 59.6275 64.704 59.6267Z" fill="#093F68"/>
<path d="M60.301 51.9706L61.7939 53.261C62.2678 53.6706 63.0038 53.64 63.4377 53.1926L63.5388 53.0884C63.9728 52.6411 63.9404 51.9464 63.4665 51.5367L61.9736 50.2464C61.4997 49.8368 60.7637 49.8673 60.3298 50.3147L60.2287 50.4189C59.7947 50.8663 59.8271 51.561 60.301 51.9706Z" fill="#F56132"/>
<path d="M62.5748 53.8733C62.1972 53.8742 61.8331 53.7413 61.5544 53.5009L60.0646 52.2166C59.7706 51.9621 59.5954 51.608 59.5776 51.2319C59.5597 50.8557 59.7006 50.4882 59.9694 50.21L60.0714 50.1072C60.2038 49.9692 60.3641 49.8575 60.5428 49.7786C60.7215 49.6998 60.9151 49.6554 61.1122 49.6481C61.3102 49.6394 61.508 49.6679 61.6942 49.7318C61.8805 49.7957 62.0514 49.8939 62.1973 50.0205L63.687 51.3048C63.8328 51.4308 63.9508 51.5826 64.0343 51.7517C64.1178 51.9208 64.1652 52.1038 64.1737 52.2901C64.1823 52.4765 64.1518 52.6626 64.084 52.8379C64.0163 53.0131 63.9126 53.174 63.7789 53.3114L63.6802 53.4142C63.5472 53.5523 63.3863 53.664 63.207 53.7429C63.0278 53.8217 62.8337 53.866 62.636 53.8733H62.5748ZM60.534 51.7382L62.0238 53.0225C62.1037 53.0919 62.1976 53.1455 62.2998 53.1802C62.402 53.215 62.5105 53.2301 62.619 53.2247C62.7272 53.2214 62.8335 53.1974 62.9317 53.1544C63.0299 53.1114 63.1179 53.0501 63.1904 52.9743L63.2891 52.8716C63.3624 52.7966 63.419 52.7085 63.4558 52.6126C63.4926 52.5167 63.5088 52.4148 63.5034 52.3129C63.5004 52.2107 63.4753 52.1101 63.4297 52.0174C63.384 51.9246 63.3188 51.8417 63.2381 51.7735L61.7449 50.4893C61.6655 50.42 61.5723 50.3664 61.4706 50.3316C61.369 50.2969 61.261 50.2817 61.153 50.287C60.9351 50.2963 60.7298 50.3863 60.5816 50.5374L60.483 50.6402C60.3352 50.7927 60.2576 50.9943 60.2672 51.2008C60.2767 51.4072 60.3727 51.6017 60.534 51.7414V51.7382Z" fill="#093F68"/>
<path d="M58.5748 63.7235V53.9952C58.5748 52.4463 57.9229 50.9608 56.7626 49.8656C55.6023 48.7704 54.0286 48.1551 52.3877 48.1551H42.6292C41.8161 48.1542 41.0109 48.3047 40.2594 48.5978C39.508 48.8909 38.8251 49.3209 38.2499 49.8633C37.6746 50.4057 37.2183 51.0498 36.9069 51.7588C36.5956 52.4678 36.4353 53.2277 36.4353 53.9952V63.7235H58.5748Z" fill="#40596B"/>
<path d="M58.5748 64.0444H36.4353C36.3451 64.0444 36.2586 64.0106 36.1948 63.9504C36.131 63.8902 36.0952 63.8085 36.0952 63.7234V53.9951C36.097 52.3616 36.7852 50.7954 38.0089 49.6403C39.2326 48.4853 40.8918 47.8356 42.6224 47.8339H52.3877C54.1183 47.8356 55.7774 48.4853 57.0011 49.6403C58.2248 50.7954 58.9131 52.3616 58.9149 53.9951V63.7234C58.9149 63.8085 58.8791 63.8902 58.8153 63.9504C58.7515 64.0106 58.665 64.0444 58.5748 64.0444ZM36.7823 63.4023H58.2346V53.9951C58.2328 52.5319 57.6162 51.1291 56.5201 50.0944C55.424 49.0597 53.9379 48.4777 52.3877 48.476H42.6292C41.0779 48.476 39.59 49.0573 38.4924 50.0921C37.3948 51.127 36.7773 52.5308 36.7755 53.9951L36.7823 63.4023Z" fill="#093F68"/>
<path d="M51.5408 48.1486L47.5816 62.3043L43.534 48.1486H51.5408Z" fill="white"/>
<path d="M47.5816 62.6253C47.5048 62.6278 47.4294 62.6057 47.3676 62.5625C47.3058 62.5194 47.2614 62.4578 47.2414 62.3877L43.1938 48.232C43.1801 48.1844 43.1781 48.1344 43.1881 48.086C43.1982 48.0375 43.2199 47.9919 43.2516 47.9527C43.2837 47.9134 43.3249 47.8816 43.3721 47.8599C43.4193 47.8382 43.4712 47.8271 43.5237 47.8275H51.5306C51.5831 47.8271 51.635 47.8382 51.6822 47.8599C51.7294 47.8816 51.7706 47.9134 51.8027 47.9527C51.8344 47.9919 51.8561 48.0375 51.8662 48.086C51.8762 48.1344 51.8742 48.1844 51.8605 48.232L47.8979 62.3877C47.878 62.4578 47.8335 62.5194 47.7717 62.5625C47.71 62.6057 47.6346 62.6278 47.5578 62.6253H47.5816ZM43.9761 48.4696L47.5782 61.0585L51.102 48.4664L43.9761 48.4696Z" fill="#093F68"/>
<path d="M46.187 47.0379H49.2823V48.7203C49.2823 48.8835 49.2482 49.045 49.1821 49.1958C49.1159 49.3465 49.019 49.4835 48.8967 49.5989C48.7745 49.7143 48.6294 49.8058 48.4697 49.8682C48.31 49.9307 48.1388 49.9628 47.9659 49.9628H47.5C47.1509 49.9628 46.816 49.8319 46.5692 49.5989C46.3223 49.3659 46.1836 49.0498 46.1836 48.7203V47.0379H46.187Z" fill="#FFC9B0"/>
<path d="M47.9694 50.2836H47.5C47.0612 50.2828 46.6408 50.1177 46.3309 49.8245C46.021 49.5314 45.8469 49.1342 45.8469 48.7201V47.0377C45.8469 46.9525 45.8827 46.8709 45.9465 46.8107C46.0103 46.7504 46.0968 46.7166 46.187 46.7166H49.2823C49.3725 46.7166 49.459 46.7504 49.5228 46.8107C49.5866 46.8709 49.6224 46.9525 49.6224 47.0377V48.7201C49.6224 49.1342 49.4484 49.5314 49.1385 49.8245C48.8285 50.1177 48.4081 50.2828 47.9694 50.2836ZM46.5272 47.3587V48.7201C46.5272 48.9639 46.6296 49.1978 46.8119 49.3705C46.9942 49.5432 47.2417 49.6407 47.5 49.6415H47.9694C48.2277 49.6407 48.4751 49.5432 48.6574 49.3705C48.8398 49.1978 48.9421 48.9639 48.9421 48.7201V47.3587H46.5272Z" fill="#093F68"/>
<path d="M37.0442 38.9281C35.6054 38.4144 35.6836 37.3774 35.4761 36.0386C35.261 34.7231 35.127 33.3971 35.0748 32.067C35.0203 30.5548 35.0748 28.9976 35.687 27.5946C36.4693 25.7902 38.0135 24.6215 40.0782 24.782C40.017 22.1204 41.7074 20.483 44.7074 20.3321C49.5067 20.0913 52.2687 24.0982 54.9557 23.7386C57.6428 23.379 58.3571 22.2488 58.3571 22.2488C58.8102 23.0628 58.9974 23.9853 58.8951 24.8997C58.7928 25.814 58.4055 26.6792 57.7823 27.3859C57.7823 27.3859 59.8979 26.8015 60.1632 29.4599C60.4285 32.1184 58.7346 39.1818 58.7346 39.1818L56.8163 38.8607C56.0101 38.7259 55.0033 38.9121 54.1904 38.9378L48.187 39.1143C45.1768 39.201 40.3095 40.0968 37.0442 38.9281Z" fill="#725858"/>
<path d="M41.3707 39.8427C39.8608 39.8856 38.3548 39.6769 36.9217 39.2262C35.4999 38.7157 35.3605 37.7044 35.221 36.6352C35.1972 36.4587 35.1734 36.2789 35.1428 36.0926C34.9241 34.7635 34.7878 33.4235 34.7346 32.0793C34.6836 30.6506 34.7346 28.9843 35.3707 27.4721C36.2006 25.5457 37.8061 24.4476 39.7176 24.4476H39.7414C39.8265 21.8117 41.653 20.1647 44.687 20.0105C47.4693 19.8725 49.6156 21.1182 51.3435 22.1167C52.6802 22.8937 53.8367 23.5647 54.9081 23.4202C57.3673 23.0992 58.0612 22.091 58.068 22.0814C58.1004 22.035 58.1443 21.9968 58.1958 21.97C58.2474 21.9431 58.305 21.9285 58.3639 21.9273C58.4227 21.9282 58.4802 21.9434 58.5309 21.9716C58.5815 21.9997 58.6236 22.0398 58.653 22.0878C59.0752 22.8558 59.281 23.7134 59.2507 24.5782C59.2203 25.443 58.9547 26.2859 58.4795 27.0258C58.8208 27.0545 59.1486 27.165 59.4319 27.3469C60.0408 27.7386 60.3979 28.4449 60.4965 29.4434C60.7551 32.1211 59.136 38.9726 59.0612 39.2648C59.0416 39.345 58.9901 39.4151 58.9172 39.4605C58.8444 39.506 58.7559 39.5232 58.67 39.5088L56.7516 39.1877C56.1859 39.1296 55.6148 39.1371 55.051 39.2102C54.7482 39.2391 54.4659 39.2615 54.1904 39.2712L48.1904 39.4478C47.4421 39.4702 46.5646 39.5441 45.636 39.6211C44.3129 39.7175 42.8299 39.8427 41.3707 39.8427ZM37.1632 38.629C39.5442 39.4734 42.8843 39.1941 45.5782 38.9501C46.517 38.8698 47.4047 38.796 48.17 38.7735L54.1734 38.5969C54.4251 38.5969 54.7006 38.5648 54.9931 38.5392C55.6153 38.4639 56.2451 38.4639 56.8673 38.5392L58.4659 38.8024C58.7789 37.4347 60.0374 31.739 59.8265 29.4916C59.7482 28.6953 59.4863 28.1495 59.0612 27.8702C58.8876 27.7691 58.6944 27.7017 58.4929 27.6719C58.2914 27.6422 58.0857 27.6506 57.8877 27.6968C57.8178 27.7153 57.7434 27.7122 57.6754 27.688C57.6075 27.6637 57.5496 27.6196 57.5102 27.562C57.4708 27.5056 57.4513 27.439 57.4543 27.3715C57.4574 27.3041 57.4828 27.2393 57.5272 27.1863C58.0556 26.5915 58.4038 25.8728 58.535 25.1064C58.6661 24.34 58.5753 23.5544 58.2721 22.8327C57.7959 23.234 56.8197 23.8216 55.0136 24.0624C53.7006 24.2422 52.4455 23.5166 50.9965 22.6754C49.2652 21.6704 47.2993 20.5307 44.7346 20.6623C41.9421 20.8036 40.3707 22.3061 40.4285 24.7848C40.4297 24.8296 40.421 24.8742 40.4028 24.9157C40.3847 24.9572 40.3575 24.9946 40.3231 25.0256C40.2883 25.0566 40.247 25.0803 40.2019 25.0953C40.1568 25.1102 40.1088 25.116 40.0612 25.1123C38.2652 24.971 36.7925 25.9245 36.0135 27.7257C35.4047 29.1256 35.3775 30.7052 35.4251 32.0665C35.4733 33.3859 35.605 34.7014 35.8197 36.006C35.8503 36.1986 35.8741 36.3848 35.8979 36.5646C36.0408 37.6241 36.1292 38.2662 37.17 38.6387L37.1632 38.629Z" fill="#093F68"/>
<path d="M38.8843 41.8909C40.5468 41.8909 41.8945 40.7955 41.8945 39.4444C41.8945 38.0932 40.5468 36.9979 38.8843 36.9979C37.2218 36.9979 35.8741 38.0932 35.8741 39.4444C35.8741 40.7955 37.2218 41.8909 38.8843 41.8909Z" fill="#FFC9B0"/>
<path d="M38.8843 42.2154C37.0374 42.2154 35.534 40.9729 35.534 39.4446C35.534 37.9164 37.0374 36.6771 38.8843 36.6771C40.7312 36.6771 42.2312 37.9196 42.2312 39.4446C42.2312 40.9697 40.7312 42.2154 38.8843 42.2154ZM38.8843 37.3192C37.4115 37.3192 36.2142 38.2824 36.2142 39.4446C36.2142 40.6069 37.4115 41.5733 38.8843 41.5733C40.3571 41.5733 41.551 40.6101 41.551 39.4446C41.551 38.2792 40.3571 37.3192 38.8843 37.3192Z" fill="#093F68"/>
<path d="M56.4251 41.8909C58.0876 41.8909 59.4353 40.7955 59.4353 39.4444C59.4353 38.0932 58.0876 36.9979 56.4251 36.9979C54.7626 36.9979 53.4149 38.0932 53.4149 39.4444C53.4149 40.7955 54.7626 41.8909 56.4251 41.8909Z" fill="#FFC9B0"/>
<path d="M56.4251 42.2154C54.5782 42.2154 53.0748 40.9729 53.0748 39.4446C53.0748 37.9164 54.5782 36.6771 56.4251 36.6771C58.2721 36.6771 59.7721 37.9196 59.7721 39.4446C59.7721 40.9697 58.2721 42.2154 56.4251 42.2154ZM56.4251 37.3192C54.9523 37.3192 53.755 38.2824 53.755 39.4446C53.755 40.6069 54.9523 41.5733 56.4251 41.5733C57.8979 41.5733 59.0918 40.6101 59.0918 39.4446C59.0918 38.2792 57.8945 37.3192 56.4251 37.3192Z" fill="#093F68"/>
<path d="M47.7346 47.4232C45.3278 47.4232 43.0196 46.5207 41.3178 44.9143C39.6159 43.3079 38.6598 41.1291 38.6598 38.8572V32.6382C39.1904 33.4473 40.9523 33.1263 43.534 28.9524C53.2006 33.5757 56.7993 30.927 56.7993 30.927V38.8572C56.7984 41.1272 55.8434 43.304 54.1439 44.91C52.4445 46.5159 50.1394 47.4198 47.7346 47.4232Z" fill="#FFC9B0"/>
<path d="M47.7347 47.7442C45.2385 47.7417 42.8453 46.8045 41.0803 45.1384C39.3152 43.4723 38.3224 41.2134 38.3197 38.8572V32.6382C38.3169 32.5661 38.3398 32.4952 38.3849 32.437C38.4299 32.3787 38.4944 32.3365 38.568 32.3171C38.6396 32.2976 38.716 32.3009 38.7854 32.3265C38.8549 32.352 38.9135 32.3983 38.9523 32.4584C38.9914 32.5267 39.051 32.5826 39.1236 32.6192C39.1962 32.6557 39.2786 32.6713 39.3605 32.6638C39.7006 32.6638 41.0204 32.3717 43.2381 28.779C43.2817 28.7078 43.3526 28.6551 43.4361 28.6318C43.5196 28.6085 43.6095 28.6164 43.687 28.6537C48.5612 30.9847 51.8231 31.3988 53.6972 31.3411C55.7108 31.2768 56.5918 30.6636 56.602 30.6572C56.6524 30.621 56.7126 30.5987 56.7757 30.5931C56.8388 30.5874 56.9024 30.5985 56.9591 30.6251C57.0164 30.6516 57.0646 30.6927 57.0983 30.7438C57.132 30.7949 57.1497 30.8539 57.1496 30.914V38.8443C57.1505 41.2028 56.1593 43.465 54.3939 45.1339C52.6284 46.8028 50.2332 47.7417 47.7347 47.7442ZM39 33.2739V38.8572C39.0027 41.0431 39.9238 43.1387 41.5613 44.6844C43.1988 46.2301 45.4189 47.0995 47.7347 47.1021C50.0504 47.0995 52.2706 46.2301 53.908 44.6844C55.5455 43.1387 56.4666 41.0431 56.4694 38.8572V31.4727C55.1292 32.0442 51.2585 32.9432 43.6632 29.3761C42.0578 31.9158 40.5374 33.3124 39.3673 33.322C39.2429 33.3257 39.1186 33.3094 39 33.2739Z" fill="#093F68"/>
<path d="M43.8197 38.406C44.2837 38.406 44.6598 38.0506 44.6598 37.6122C44.6598 37.1737 44.2837 36.8183 43.8197 36.8183C43.3557 36.8183 42.9796 37.1737 42.9796 37.6122C42.9796 38.0506 43.3557 38.406 43.8197 38.406Z" fill="#093F68"/>
<path d="M51.6462 38.406C52.1102 38.406 52.4863 38.0506 52.4863 37.6122C52.4863 37.1737 52.1102 36.8183 51.6462 36.8183C51.1822 36.8183 50.8061 37.1737 50.8061 37.6122C50.8061 38.0506 51.1822 38.406 51.6462 38.406Z" fill="#093F68"/>
<path d="M47.7108 41.2104C47.4317 41.2091 47.1531 41.1877 46.8775 41.1462C46.8335 41.1389 46.7914 41.1234 46.7538 41.1007C46.7161 41.078 46.6836 41.0485 46.658 41.0139C46.6324 40.9793 46.6143 40.9403 46.6047 40.8991C46.5951 40.8579 46.5941 40.8153 46.602 40.7738C46.6098 40.7323 46.6262 40.6926 46.6502 40.657C46.6743 40.6215 46.7055 40.5907 46.7422 40.5666C46.7788 40.5424 46.8201 40.5253 46.8638 40.5163C46.9074 40.5072 46.9525 40.5063 46.9965 40.5137C47.379 40.5727 47.7683 40.5803 48.153 40.5362C48.0255 39.9107 47.7887 39.3096 47.4523 38.7575C47.4129 38.6824 47.4061 38.5957 47.4335 38.5159C47.4609 38.4362 47.5202 38.3697 47.5988 38.3307C47.6775 38.2917 47.7692 38.2833 47.8543 38.3072C47.9394 38.3312 48.0112 38.3856 48.0544 38.4589C48.3537 39.0015 49.0237 40.3211 48.7686 40.8573C48.7374 40.925 48.6907 40.9855 48.6319 41.0343C48.5731 41.0831 48.5037 41.1191 48.4285 41.1398C48.1934 41.1921 47.9523 41.2158 47.7108 41.2104Z" fill="#093F68"/>
<path d="M48.0612 50.2452H47.0986C46.7304 50.2452 46.4319 50.5272 46.4319 50.8751V51.3219C46.4319 51.6698 46.7304 51.9518 47.0986 51.9518H48.0612C48.4294 51.9518 48.7278 51.6698 48.7278 51.3219V50.8751C48.7278 50.5272 48.4294 50.2452 48.0612 50.2452Z" fill="#F56132"/>
<path d="M48.0612 52.2711H47.0986C46.828 52.2711 46.5684 52.1696 46.3771 51.989C46.1857 51.8084 46.0782 51.5634 46.0782 51.3079V50.8616C46.0782 50.6062 46.1857 50.3612 46.3771 50.1805C46.5684 49.9999 46.828 49.8984 47.0986 49.8984H48.0612C48.3318 49.8984 48.5914 49.9999 48.7827 50.1805C48.9741 50.3612 49.0816 50.6062 49.0816 50.8616V51.3079C49.0816 51.5634 48.9741 51.8084 48.7827 51.989C48.5914 52.1696 48.3318 52.2711 48.0612 52.2711ZM47.0986 50.5663C47.0084 50.5663 46.9219 50.6001 46.8581 50.6603C46.7943 50.7205 46.7585 50.8022 46.7585 50.8873V51.3336C46.7585 51.4187 46.7943 51.5004 46.8581 51.5606C46.9219 51.6208 47.0084 51.6547 47.0986 51.6547H48.0612C48.1514 51.6547 48.2379 51.6208 48.3017 51.5606C48.3655 51.5004 48.4013 51.4187 48.4013 51.3336V50.8873C48.4013 50.8022 48.3655 50.7205 48.3017 50.6603C48.2379 50.6001 48.1514 50.5663 48.0612 50.5663H47.0986Z" fill="#093F68"/>
<path d="M48.9149 57.5337L47.5816 62.3047L46.0986 57.1291L46.9217 51.9503H48.2347L48.9149 57.5337Z" fill="#F56132"/>
<path d="M47.5816 62.6255C47.5048 62.628 47.4294 62.6059 47.3676 62.5627C47.3058 62.5196 47.2614 62.458 47.2414 62.3879L45.772 57.2059C45.7624 57.1625 45.7624 57.1177 45.772 57.0743L46.5918 51.8955C46.6041 51.819 46.6453 51.7492 46.7078 51.6991C46.7703 51.6489 46.8499 51.6218 46.9319 51.6226H48.2448C48.3289 51.6222 48.4102 51.6511 48.473 51.7039C48.5358 51.7566 48.5757 51.8295 48.585 51.9084L49.2652 57.4885C49.2721 57.5278 49.2721 57.5679 49.2652 57.6073L47.9285 62.3815C47.9086 62.4515 47.8641 62.5132 47.8023 62.5563C47.7406 62.5994 47.6652 62.6216 47.5884 62.6191L47.5816 62.6255ZM46.4489 57.1096L47.5782 61.0587L48.5714 57.5045L47.9319 52.268H47.2142L46.4489 57.1096Z" fill="#093F68"/>
<path d="M41.4864 64.0445C41.3962 64.0445 41.3096 64.0106 41.2458 63.9504C41.1821 63.8902 41.1462 63.8086 41.1462 63.7234V53.1732C41.1462 53.0881 41.1821 53.0064 41.2458 52.9462C41.3096 52.886 41.3962 52.8522 41.4864 52.8522C41.5766 52.8522 41.6631 52.886 41.7269 52.9462C41.7907 53.0064 41.8265 53.0881 41.8265 53.1732V63.7234C41.8265 63.8086 41.7907 63.8902 41.7269 63.9504C41.6631 64.0106 41.5766 64.0445 41.4864 64.0445Z" fill="#093F68"/>
<path d="M53.5306 64.0445C53.4403 64.0445 53.3538 64.0106 53.29 63.9504C53.2263 63.8902 53.1904 63.8086 53.1904 63.7234V53.1732C53.1904 53.0881 53.2263 53.0064 53.29 52.9462C53.3538 52.886 53.4403 52.8522 53.5306 52.8522C53.6208 52.8522 53.7073 52.886 53.7711 52.9462C53.8349 53.0064 53.8707 53.0881 53.8707 53.1732V63.7234C53.8707 63.8086 53.8349 63.8902 53.7711 63.9504C53.7073 64.0106 53.6208 64.0445 53.5306 64.0445Z" fill="#093F68"/>
<path d="M45.3809 35.7828H41.0068C40.8263 35.7828 40.6533 35.7151 40.5257 35.5945C40.3982 35.474 40.3265 35.3105 40.3265 35.14C40.3265 34.9695 40.3982 34.806 40.5257 34.6855C40.6533 34.5649 40.8263 34.4972 41.0068 34.4972H45.3809C45.5613 34.4972 45.7344 34.5649 45.8619 34.6855C45.9895 34.806 46.0612 34.9695 46.0612 35.14C46.0612 35.3105 45.9895 35.474 45.8619 35.5945C45.7344 35.7151 45.5613 35.7828 45.3809 35.7828Z" fill="#093F68"/>
<path d="M54.4625 35.7828H50.085C49.9046 35.7828 49.7315 35.7151 49.604 35.5945C49.4764 35.474 49.4047 35.3105 49.4047 35.14C49.4047 34.9695 49.4764 34.806 49.604 34.6855C49.7315 34.5649 49.9046 34.4972 50.085 34.4972H54.4625C54.643 34.4972 54.816 34.5649 54.9436 34.6855C55.0711 34.806 55.1428 34.9695 55.1428 35.14C55.1428 35.3105 55.0711 35.474 54.9436 35.5945C54.816 35.7151 54.643 35.7828 54.4625 35.7828Z" fill="#093F68"/>
<path d="M49.5476 42.4754H46.102C46.102 42.4754 45.7347 44.9444 47.9217 44.9444C48.9149 44.9444 49.5476 43.9298 49.5476 42.4754Z" fill="white"/>
<path d="M47.9217 45.2656C47.6235 45.2801 47.3256 45.2318 47.0497 45.124C46.7737 45.0163 46.5267 44.8519 46.3265 44.6427C45.568 43.8208 45.7551 42.4884 45.7619 42.4306C45.7734 42.3534 45.8143 42.2829 45.8769 42.2321C45.9394 42.1813 46.0195 42.1537 46.102 42.1545H49.5476C49.6378 42.1545 49.7243 42.1883 49.7881 42.2485C49.8519 42.3087 49.8877 42.3904 49.8877 42.4755C49.8877 44.1451 49.0952 45.2656 47.9217 45.2656ZM46.4183 42.7966C46.3802 43.3035 46.5292 43.8072 46.8401 44.2221C46.9778 44.3603 47.1462 44.4679 47.3332 44.5373C47.5202 44.6067 47.7212 44.6361 47.9217 44.6234C48.6224 44.6234 49.1156 43.9011 49.1938 42.7966H46.4183Z" fill="#093F68"/>
<path d="M67.2347 58.9491H28.7619C27.9767 58.9491 27.3401 59.55 27.3401 60.2911V60.9622C27.3401 61.7034 27.9767 62.3042 28.7619 62.3042H67.2347C68.0199 62.3042 68.6564 61.7034 68.6564 60.9622V60.2911C68.6564 59.55 68.0199 58.9491 67.2347 58.9491Z" fill="#725858"/>
<path d="M67.2381 62.6255H28.7619C28.2955 62.6247 27.8483 62.4496 27.5182 62.1386C27.1881 61.8276 27.0018 61.4059 27 60.9656V60.2882C27.0018 59.8479 27.1881 59.4262 27.5182 59.1152C27.8483 58.8042 28.2955 58.6291 28.7619 58.6283H67.2381C67.7045 58.6291 68.1516 58.8042 68.4817 59.1152C68.8119 59.4262 68.9982 59.8479 69 60.2882V60.9656C68.9982 61.4059 68.8119 61.8276 68.4817 62.1386C68.1516 62.4496 67.7045 62.6247 67.2381 62.6255ZM28.7619 59.2704C28.4756 59.2704 28.201 59.3776 27.9982 59.5683C27.7955 59.7591 27.6811 60.018 27.6802 60.2882V60.9656C27.6811 61.2359 27.7955 61.4947 27.9982 61.6855C28.201 61.8763 28.4756 61.9834 28.7619 61.9834H67.2381C67.5244 61.9834 67.799 61.8763 68.0017 61.6855C68.2045 61.4947 68.3188 61.2359 68.3197 60.9656V60.2882C68.3188 60.018 68.2045 59.7591 68.0017 59.5683C67.799 59.3776 67.5244 59.2704 67.2381 59.2704H28.7619Z" fill="#093F68"/>
<path d="M31.7312 78.6788H64.2687L66.3843 62.3045H29.6156L31.7312 78.6788Z" fill="#725858"/>
<path d="M64.2687 78.9997H31.7312C31.6477 79.0003 31.5668 78.9718 31.5041 78.9197C31.4414 78.8676 31.4011 78.7955 31.3911 78.7172L29.2925 62.3429C29.2867 62.2981 29.2909 62.2526 29.305 62.2095C29.3191 62.1663 29.3426 62.1264 29.3741 62.0925C29.406 62.0582 29.4452 62.0308 29.4892 62.012C29.5332 61.9931 29.5809 61.9834 29.6292 61.9833H66.3979C66.4462 61.9834 66.4939 61.9931 66.5379 62.012C66.5819 62.0308 66.6211 62.0582 66.653 62.0925C66.6845 62.1264 66.7081 62.1663 66.7221 62.2095C66.7362 62.2526 66.7405 62.2981 66.7346 62.3429L64.6224 78.7172C64.6122 78.7977 64.57 78.8717 64.5044 78.9241C64.4388 78.9765 64.3545 79.0035 64.2687 78.9997ZM32.0306 78.3576H63.9863L66.0272 62.6254H30L32.0306 78.3576Z" fill="#093F68"/>
</svg>
