<svg width="96" height="96" viewBox="0 0 96 96" fill="none" xmlns="http://www.w3.org/2000/svg">
<rect y="0.000152588" width="96" height="96" rx="15" fill="#131C73"/>
<path d="M59.953 44.0853H60.4174V54.4639H59.953V44.0853Z" fill="#505457"/>
<path opacity="0.18" d="M49.5107 25.7153H71.2018V44.0852H49.5107V25.7153Z" fill="#505457"/>
<path d="M50.1319 26.4699H70.6997V43.5071H50.1319V26.4699Z" fill="white"/>
<path d="M49.0658 43.1276H72.062V44.0876H49.0658V43.1276Z" fill="#505457"/>
<path d="M49.0658 25.512H72.062V26.472H49.0658V25.512Z" fill="#505457"/>
<path d="M40.8448 46.0584H48.0185V62.8713H40.8448V46.0584Z" fill="white"/>
<path d="M40.8448 46.0584H48.0185V62.8713H40.8448V46.0584Z" fill="#505457"/>
<path d="M40.8448 46.0584H48.0185V62.8713H40.8448V46.0584Z" fill="url(#paint0_linear_10_714)"/>
<path d="M42.2319 46.0584H46.6651V65.2847H42.2319V46.0584Z" fill="#505457"/>
<path d="M39.9974 42.6741H48.8643V46.5259H39.9974V42.6741Z" fill="#505457"/>
<path d="M43.114 34.6879C43.1228 34.5397 43.114 34.3858 43.1283 34.2376C43.1488 34.0236 43.2085 33.8169 43.3034 33.6314C43.3983 33.4458 43.5263 33.2854 43.679 33.1608C43.9891 32.9139 44.3672 32.8064 44.7417 32.8586C45.3474 32.9391 45.8584 33.4192 46.1502 34.0216C46.4806 34.7076 46.1722 35.2707 45.9035 35.8934C45.7025 36.3596 45.8204 36.941 46.0819 37.3661C46.2868 37.6992 46.5885 38.0179 46.5626 38.4251C46.5472 38.6722 46.4096 38.8837 46.2768 39.0788C46.1887 39.2093 46.0891 39.3487 45.9465 39.386C45.8759 39.4012 45.8034 39.4012 45.7328 39.386C45.5746 39.3611 45.4179 39.3248 45.2637 39.2771C45.1134 39.2309 44.9597 39.1738 44.805 39.1967C44.5451 39.2353 44.3524 39.4874 44.1993 39.7351C44.0462 39.9827 43.9003 40.2557 43.6608 40.3786C43.4791 40.4724 43.2715 40.4635 43.0733 40.442C42.494 40.3869 41.88 40.2317 41.4819 39.7452C41.3939 39.6333 41.3131 39.5141 41.2402 39.3886C41.1943 39.3234 41.1571 39.2505 41.1301 39.1726C41.0612 38.9401 41.1719 38.6899 41.2953 38.491C41.4186 38.2921 41.5706 38.092 41.5909 37.8475C41.6069 37.6574 41.5408 37.4674 41.5188 37.2774C41.477 36.9163 41.5992 36.5483 41.7941 36.2601C41.9891 35.9719 42.2495 35.7534 42.5171 35.5576C42.7225 35.4075 42.9466 35.2523 43.0441 34.9958C43.0826 34.8986 43.1062 34.7944 43.114 34.6879Z" fill="#FC682D"/>
<path d="M42.6851 40.0302C42.5248 40.238 42.173 40.8296 42.1658 40.9424C42.1587 41.0367 42.2209 41.2464 42.2462 41.337C42.3071 41.5652 42.3921 41.7839 42.4995 41.9882C42.5887 42.1566 42.7049 42.3948 42.8409 42.5158C42.9331 42.59 43.0366 42.6438 43.146 42.6741H42.1851C41.7104 42.054 41.0288 41.1539 40.9996 41.0387C40.9738 40.92 40.9865 40.7945 41.0354 40.6858C41.0838 40.5777 41.1437 40.4768 41.2138 40.3856C41.4781 40.01 42.0761 39.1612 42.1245 39.1346C42.1693 39.1134 42.2171 39.1022 42.2655 39.1016C42.6781 39.0687 43.0907 39.0592 43.5033 39.0731C43.353 39.2119 42.8172 39.8599 42.6851 40.0302Z" fill="#F4DBBD"/>
<path d="M43.8662 37.0845C43.8662 37.0845 42.6675 37.7059 42.5997 37.8686C42.532 38.0314 42.5997 42.6744 42.5997 42.6744H46.8242L46.5814 37.7819L45.3458 37.1998L43.8662 37.0845Z" fill="#505457"/>
<path d="M46.822 42.6751H42.5964C42.5964 42.6751 42.5259 38.0327 42.5964 37.868C42.6669 37.7033 43.8662 37.0845 43.8662 37.0845L45.3424 37.1991L46.5758 37.7812L46.6931 40.13L46.822 42.6751Z" fill="url(#paint1_linear_10_714)"/>
<path d="M42.597 37.8689L41.5904 39.3435C41.7925 40.0321 42.597 40.9056 42.597 40.9056V37.8689Z" fill="#505457"/>
<path d="M42.597 39.2053L41.9681 40.0962L42.597 40.9072V39.2053Z" fill="url(#paint2_linear_10_714)"/>
<path d="M43.8965 36.4248C43.9378 36.6743 43.8739 36.8682 43.8657 37.0949C43.853 37.4357 44.1663 37.9684 44.2907 38.2788C44.3309 38.3801 44.3788 38.4891 44.4669 38.5322C44.5294 38.5575 44.5962 38.5653 44.6619 38.555C44.7598 38.5578 44.8567 38.5323 44.9438 38.4808C45.0572 38.3985 45.1062 38.2401 45.1464 38.0926C45.2109 37.8557 45.3744 37.475 45.3347 37.2286C45.3221 37.1488 45.2599 37.0696 45.2428 36.9828C45.2262 36.8711 45.2208 36.7576 45.2268 36.6446C45.2318 36.0479 43.8965 36.4248 43.8965 36.4248Z" fill="#F4DBBD"/>
<path d="M43.8965 36.4245C43.8965 36.4245 44.0666 37.4722 44.6046 37.4099C44.7516 37.3994 44.8918 37.3344 45.0042 37.2245C45.1166 37.1147 45.1953 36.9659 45.2284 36.8004L43.8965 36.4245Z" fill="#E0BE99"/>
<path d="M43.8491 36.2442C43.8809 36.4108 43.9368 36.5701 44.0143 36.7155C44.2345 37.0867 44.7356 37.2001 45.0671 36.9543C45.2521 36.8175 45.3749 36.5964 45.4647 36.3696C45.6592 35.8779 45.7241 35.3313 45.6513 34.7975C45.6232 34.5923 45.5715 34.3839 45.452 34.2274C45.2554 33.9664 44.9206 33.8993 44.6172 33.9177C44.3452 33.9341 44.0666 34.012 43.8579 34.2122C43.7476 34.3245 43.6657 34.469 43.6209 34.6305C43.5761 34.792 43.5701 34.9643 43.6035 35.1294C43.6856 35.4987 43.7615 35.8749 43.8491 36.2442Z" fill="#F4DBBD"/>
<path d="M50.035 37.2772C50.0548 37.2411 50.0944 37.2018 50.1225 37.229C50.133 37.2418 50.1393 37.2584 50.1401 37.2759C50.1637 37.4379 50.1545 37.6039 50.1131 37.7611C50.2587 37.427 50.4307 37.1089 50.6269 36.811C50.6616 36.759 50.7161 36.7014 50.7673 36.7305C50.7498 36.9771 50.6754 37.2139 50.552 37.4165C50.6382 37.1746 50.7775 36.9624 50.9562 36.8008C50.9925 37.0605 50.8769 37.3127 50.7657 37.5419C50.8525 37.3648 50.9623 37.2037 51.0911 37.0643C51.139 37.1442 51.0999 37.2544 51.0602 37.3386L50.8466 37.7985C50.9207 37.6477 51.0157 37.5118 51.128 37.3963C51.1594 37.4716 51.1208 37.5597 51.0834 37.6319L50.6952 38.3806C50.6396 38.4997 50.5707 38.61 50.4903 38.7087C50.4193 38.7892 50.3295 38.8417 50.2574 38.919C50.1853 38.9963 48.5582 40.8725 48.4144 40.932C48.3124 40.9678 48.2026 40.9601 48.105 40.9105C48.0085 40.8599 47.9178 40.7961 47.8346 40.7205C47.4938 40.438 46.7245 39.7995 46.6976 39.7456C46.6762 39.6953 46.6637 39.6406 46.6607 39.5847C46.6084 39.1137 46.577 38.6399 46.5665 38.1652C46.6921 38.3306 47.2878 38.9076 47.4437 39.052C47.6325 39.2256 48.165 39.5961 48.2641 39.598C48.3467 39.598 48.5251 39.5157 48.6022 39.4828C48.7967 39.3994 48.9817 39.289 49.1528 39.154C49.2938 39.0432 49.4931 38.8956 49.5934 38.7334C49.7073 38.5434 49.7327 38.2216 49.7872 38.0037C49.8432 37.7506 49.9264 37.5065 50.035 37.2772Z" fill="#F4DBBD"/>
<path d="M43.6127 35.2592C43.5948 35.244 43.5739 35.2342 43.5518 35.231C43.5297 35.2277 43.5072 35.231 43.4866 35.2406C43.4659 35.2501 43.4478 35.2656 43.4338 35.2855C43.4199 35.3054 43.4107 35.3291 43.407 35.3543C43.3849 35.4974 43.4112 35.6448 43.4806 35.7664C43.4961 35.8019 43.5175 35.8336 43.5436 35.8597C43.5969 35.8982 43.6592 35.917 43.7222 35.9136C43.7363 35.9158 43.7506 35.9145 43.7642 35.9097C43.7755 35.9037 43.7855 35.8948 43.7935 35.8838C43.8133 35.8548 43.8279 35.8216 43.8364 35.7861C43.8448 35.7506 43.847 35.7135 43.8427 35.677C43.8295 35.5166 43.7471 35.3264 43.6127 35.2592Z" fill="#F4DBBD"/>
<path d="M45.7012 35.8826C45.673 35.9003 45.6407 35.9073 45.6089 35.9028C45.577 35.8982 45.5473 35.8823 45.5237 35.8573C45.51 35.8366 45.5004 35.8128 45.4955 35.7875C45.4734 35.6444 45.4997 35.497 45.5691 35.3754C45.5846 35.3399 45.606 35.3083 45.6321 35.2822C45.6855 35.2439 45.7477 35.2249 45.8107 35.2276C45.825 35.2259 45.8395 35.2274 45.8533 35.2321C45.8645 35.2381 45.8743 35.247 45.882 35.2581C45.9021 35.2869 45.9168 35.32 45.9254 35.3556C45.934 35.3911 45.9361 35.4283 45.9318 35.4648C45.9168 35.6252 45.8356 35.8154 45.7012 35.8826Z" fill="#F4DBBD"/>
<path d="M43.501 35.6232C43.519 35.6733 43.5477 35.7173 43.5845 35.751C43.6008 35.7665 43.6208 35.7755 43.6418 35.7769C43.6628 35.7783 43.6836 35.7719 43.7013 35.7587C43.7077 35.7535 43.7125 35.7461 43.7151 35.7376C43.7174 35.7237 43.7157 35.7093 43.7101 35.6967L43.7018 35.6712C43.6998 35.6637 43.6968 35.6566 43.693 35.6501C43.6775 35.6264 43.6459 35.6303 43.6238 35.6156C43.6017 35.6009 43.5917 35.5644 43.579 35.5382C43.5746 35.5264 43.5673 35.5162 43.5581 35.5089C43.5489 35.5015 43.5382 35.4973 43.527 35.4967C43.5163 35.499 43.5066 35.5053 43.4994 35.5147C43.4921 35.524 43.4878 35.5359 43.4872 35.5485C43.4855 35.5744 43.4903 35.6003 43.501 35.6232Z" fill="#E0BE99"/>
<path d="M45.839 35.5727C45.8214 35.6228 45.7928 35.6669 45.756 35.7005C45.7398 35.7158 45.7198 35.7249 45.6988 35.7264C45.6779 35.7279 45.657 35.7217 45.6393 35.7088C45.6329 35.7034 45.6281 35.6958 45.6255 35.6871C45.6231 35.6732 45.6249 35.6588 45.6304 35.6462L45.6387 35.6206C45.6408 35.6131 45.6438 35.606 45.6476 35.5995C45.6631 35.5765 45.6946 35.5797 45.7168 35.5657C45.7389 35.5516 45.7488 35.5139 45.7616 35.4877C45.766 35.4758 45.7732 35.4656 45.7824 35.4582C45.7916 35.4509 45.8024 35.4467 45.8136 35.4462C45.8243 35.4484 45.834 35.4547 45.8412 35.4641C45.8484 35.4735 45.8527 35.4854 45.8534 35.4979C45.8549 35.5239 45.8499 35.5499 45.839 35.5727Z" fill="#E0BE99"/>
<path d="M43.8662 37.0845L43.5848 37.2347L43.7252 38.7334L44.4691 39.0674C44.4691 39.0674 44.1563 37.9654 43.8662 37.0845Z" fill="url(#paint3_linear_10_714)"/>
<path d="M43.962 38.8391L43.8661 39.4139L44.7708 40.5768L44.4691 39.0666L43.962 38.8391Z" fill="url(#paint4_linear_10_714)"/>
<path d="M45.3529 37.2083L45.6349 37.3578L45.7951 38.7336L45.0517 39.0676C45.0517 39.0676 45.343 37.6791 45.3529 37.2083Z" fill="url(#paint5_linear_10_714)"/>
<path d="M45.5589 38.8391L45.6547 39.4139L44.75 40.5768L45.0517 39.0666L45.5589 38.8391Z" fill="url(#paint6_linear_10_714)"/>
<path d="M45.9244 42.6575L43.1344 42.0849L42.597 39.2053V42.4104V42.6746L45.9244 42.6575Z" fill="url(#paint7_linear_10_714)"/>
<path d="M42.2402 42.6828C42.2402 42.6442 41.9847 38.7784 44.4157 38.2305L44.4471 38.4117C42.157 38.9279 42.3976 42.6302 42.4004 42.6676L42.2402 42.6828Z" fill="#505457"/>
<path d="M44.5212 38.5246C44.6364 38.5246 44.7297 38.4171 44.7297 38.2845C44.7297 38.1519 44.6364 38.0444 44.5212 38.0444C44.4061 38.0444 44.3128 38.1519 44.3128 38.2845C44.3128 38.4171 44.4061 38.5246 44.5212 38.5246Z" fill="#505457"/>
<path d="M44.5212 38.5246C44.6364 38.5246 44.7297 38.4171 44.7297 38.2845C44.7297 38.1519 44.6364 38.0444 44.5212 38.0444C44.4061 38.0444 44.3128 38.1519 44.3128 38.2845C44.3128 38.4171 44.4061 38.5246 44.5212 38.5246Z" fill="url(#paint8_linear_10_714)"/>
<mask id="mask0_10_714" style="mask-type:luminance" maskUnits="userSpaceOnUse" x="15" y="13" width="68" height="62">
<path d="M75.4363 35.2343C75.8415 35.601 79.4691 35.7195 79.7923 36.1889C81.1689 38.1898 82.0532 45.6902 82.7905 49.5287C83.6347 53.9234 81.8269 65.2015 79.1767 68.5124C77.6399 70.4329 75.0227 73.0097 72.6346 73.8997C64.5095 76.9344 56.0176 72.8228 47.7537 71.9481C41.7853 71.3159 38.9716 72.9654 34.7923 73.6007C30.657 74.229 26.7574 74.7459 22.7516 72.8577C19.7093 71.4236 17.227 68.1349 15.8141 64.1051C13.8164 58.4138 16.0988 52.9923 16.2992 48.8687C16.6786 41.0909 16.7948 30.7313 20.8695 24.1652C22.9619 20.7954 26.1402 18.5278 29.4236 16.834C33.7626 14.5955 38.3989 13.6555 43.1124 13.2571C45.3959 13.067 47.6645 12.7415 49.8676 13.361C52.5436 14.1147 55.2027 15.5526 57.7967 16.6193C60.7007 17.8126 63.7281 19.0979 65.8013 21.7234C68.3056 24.8949 69.0753 29.6171 71.8968 32.4156C72.9821 33.4905 74.3212 34.2246 75.4363 35.2343Z" fill="white"/>
</mask>
<g mask="url(#mask0_10_714)">
<path d="M83.421 56.8784C83.421 56.8784 84.5774 56.9171 84.7976 57.4568C85.0179 57.9964 85.0179 61.7089 85.0179 61.7089H80.0544C80.0544 61.7089 79.9405 57.7969 80.1728 57.4378C80.4052 57.0786 83.421 56.8784 83.421 56.8784Z" fill="#505457"/>
<path d="M81.9619 51.5148C82.1981 51.4325 82.4529 51.4593 82.6722 51.5895C82.7895 51.6617 82.8374 51.8011 82.9348 51.8771C83.0163 51.9404 83.1551 51.867 83.2223 51.9803C83.301 52.1134 83.3544 52.3319 83.4166 52.4814C83.4965 52.6714 83.5686 52.869 83.6336 53.0679C83.7627 53.4672 83.8647 53.8774 83.9386 54.2949C84.0814 55.125 84.1379 55.9717 84.1071 56.8172C84.0917 57.3239 84.0521 57.8401 83.8825 58.3095C83.6997 58.8232 82.8539 58.675 82.4811 58.6686C81.8303 58.6568 81.1805 58.6184 80.5319 58.5534C80.3895 56.9067 80.4182 55.2464 80.6172 53.6076C80.6613 53.2428 80.7163 52.8722 80.8705 52.5498C81.0792 52.1127 81.5048 51.6573 81.9619 51.5148Z" fill="#473F47"/>
<path d="M78.7615 53.0133C78.7615 53.0133 79.9179 53.052 80.1381 53.5917C80.3584 54.1313 80.3584 57.6988 80.3584 57.6988H75.3972C75.3972 57.6988 75.2832 53.9324 75.5155 53.5726C75.7479 53.2129 78.7615 53.0133 78.7615 53.0133Z" fill="white"/>
<path d="M78.1079 65.9698C78.1079 65.9698 77.8915 57.6143 77.7225 57.3299C77.5535 57.0455 76.146 56.459 74.4 56.6009C72.6539 56.7428 72.1253 57.3274 72.1253 57.3274L71.6771 65.9673L78.1079 65.9698Z" fill="#505457"/>
<path d="M76.7804 61.5588C76.7804 61.5588 75.8994 62.0174 75.8008 62.3645C75.7022 62.7116 75.4544 65.97 75.4544 65.97H82.312C82.312 65.97 81.9349 62.2201 81.6584 61.9021C81.382 61.5841 78.2373 61.1579 76.7804 61.5588Z" fill="white"/>
<path d="M79.9185 56.1358C79.9735 56.1453 80.0286 56.1358 80.0875 56.1453C80.1537 56.1556 80.2161 56.1867 80.2679 56.2352C80.3197 56.2837 80.3588 56.3477 80.381 56.4202C80.3913 56.4719 80.4062 56.5222 80.4256 56.5703C80.456 56.6171 80.4901 56.6606 80.5275 56.7001C80.5637 56.7511 80.5862 56.8132 80.5922 56.8787C80.5981 56.9442 80.5873 57.0103 80.5611 57.0688C80.6255 57.1104 80.6798 57.17 80.7189 57.242C80.7581 57.3141 80.7809 57.3963 80.7852 57.4812C80.7852 57.5445 80.7786 57.6129 80.7852 57.6788C80.8011 57.884 80.9471 58.0405 81.0225 58.2273C81.0876 58.4053 81.0914 58.6051 81.0331 58.7861C80.9748 58.9672 80.8588 59.1159 80.7086 59.2022C80.809 59.3174 80.8668 59.4727 80.8701 59.6358C80.8734 59.7989 80.8219 59.9571 80.7262 60.0776C80.8793 60.2207 81.0379 60.3727 81.1117 60.5843C81.1855 60.7959 81.1447 61.0777 80.9696 61.181C81.0288 61.2543 81.0678 61.3461 81.0817 61.4448C81.0956 61.5435 81.0838 61.6448 81.0478 61.7358C81.0117 61.8269 80.9531 61.9036 80.8792 61.9563C80.8053 62.0091 80.7195 62.0355 80.6326 62.0323C80.6586 62.1364 80.6611 62.2464 80.6399 62.3519C80.6188 62.4574 80.5747 62.555 80.5118 62.6355C80.4489 62.7161 80.3692 62.7769 80.2803 62.8123C80.1913 62.8477 80.096 62.8566 80.0033 62.838C80.0211 63.1185 80.0025 63.4005 79.9482 63.6748C79.5953 63.7677 79.2263 63.7377 78.8882 63.5886C78.7478 63.7026 78.6025 63.8198 78.4345 63.8616C78.2666 63.9034 78.0683 63.8509 77.9747 63.6849C77.9197 63.5918 77.8998 63.4645 77.8095 63.4195C77.7717 63.4035 77.7314 63.3968 77.6912 63.3999H77.0761C77.0309 63.4055 76.9854 63.3937 76.9467 63.3663C76.9179 63.3348 76.8986 63.2935 76.8916 63.2485C76.8463 63.0572 76.8401 62.8564 76.8735 62.6619C76.824 62.6389 76.779 62.6047 76.7411 62.5615C76.7032 62.5183 76.6731 62.4669 76.6526 62.4102C76.6321 62.3535 76.6216 62.2927 76.6217 62.2313C76.6218 62.1699 76.6325 62.1092 76.6532 62.0526C76.6835 61.9954 76.7088 61.935 76.7286 61.872C76.7501 61.7669 76.7077 61.6605 76.6907 61.5553C76.6679 61.4066 76.6963 61.2535 76.7699 61.1284C76.8029 61.0858 76.827 61.0351 76.8404 60.9802C76.8492 60.908 76.8101 60.8402 76.7782 60.7769C76.7224 60.6621 76.688 60.5353 76.677 60.4045C76.666 60.2737 76.6787 60.1416 76.7143 60.0168C76.7397 59.9281 76.7776 59.8394 76.7694 59.7463C76.7601 59.6909 76.7447 59.637 76.7237 59.586C76.6819 59.4609 76.6638 59.327 76.6706 59.1932C76.6773 59.0594 76.7087 58.9288 76.7628 58.8101C76.7979 58.7499 76.8232 58.683 76.8377 58.6125C76.8409 58.5519 76.8347 58.4912 76.8195 58.4332C76.7561 58.1103 76.749 57.7762 76.7986 57.4501C76.8267 57.2664 76.8867 57.0701 77.0309 56.9827C77.0625 56.9696 77.0909 56.9478 77.1135 56.9193C77.1297 56.8828 77.1364 56.8417 77.1328 56.8009C77.1374 56.7278 77.1547 56.6566 77.1838 56.5914C77.2128 56.5262 77.253 56.4685 77.3018 56.4215C77.3507 56.3746 77.4073 56.3395 77.4682 56.3182C77.5291 56.297 77.5932 56.2901 77.6565 56.2979C77.7402 55.9141 78.1812 55.7012 78.478 55.902C78.5001 55.8012 78.5487 55.7107 78.617 55.6427C78.6854 55.5748 78.7703 55.5326 78.8602 55.522C79.0804 55.5011 79.1982 55.712 79.3596 55.8115C79.5209 55.9109 79.7384 56.1066 79.9185 56.1358Z" fill="#473F47"/>
<path d="M75.8536 56.3007C75.8303 56.2762 75.8004 56.2616 75.7688 56.2595C75.5904 56.2291 75.4115 56.2925 75.2347 56.3324C74.8212 56.4263 74.3944 56.3901 73.9738 56.3648C73.963 56.3631 73.9521 56.3644 73.9418 56.3686C73.9302 56.3757 73.9212 56.3874 73.9165 56.4015C73.903 56.4409 73.8994 56.4838 73.9061 56.5254C73.9128 56.5671 73.9296 56.6056 73.9545 56.6368C74.0049 56.6983 74.0671 56.7452 74.1362 56.7737C74.2395 56.8234 74.3471 56.8603 74.4572 56.8841C74.5946 56.9108 74.7336 56.9246 74.8729 56.9253C75.1301 56.931 75.3966 56.9183 75.6389 56.8099C75.7086 56.7864 75.7678 56.7328 75.8041 56.6602C75.8465 56.574 75.9247 56.3888 75.8536 56.3007Z" fill="white"/>
<path d="M76.4753 52.4038C76.5296 52.4792 76.576 52.5617 76.6135 52.6495C76.739 52.9466 76.7688 53.283 76.7726 53.6149C76.7838 53.9006 76.7441 54.186 76.6559 54.4535C76.5579 54.7278 76.396 54.9343 76.26 55.1858C76.1433 55.3999 76.0585 55.6355 75.9329 55.8432C75.8204 56.0321 75.6747 56.1917 75.5052 56.3118C75.3357 56.4318 75.1462 56.5095 74.9489 56.54C74.7513 56.5663 74.5511 56.5367 74.3656 56.454C74.1802 56.3712 74.0151 56.2377 73.8846 56.0649C73.7585 55.8901 73.6748 55.6811 73.5723 55.4866C73.4726 55.318 73.3807 55.1433 73.297 54.9634C73.1814 54.679 73.1489 54.3604 73.128 54.0475C73.0998 53.7428 73.1055 53.4352 73.1451 53.1322C73.1852 52.8271 73.3066 52.5439 73.4925 52.3214C73.6135 52.1976 73.7472 52.0912 73.8906 52.0047C74.1301 51.8438 74.3735 51.681 74.6422 51.6012C74.9109 51.5214 75.2127 51.5341 75.4456 51.707C75.5458 51.7811 75.6334 51.8761 75.7352 51.9471C75.8371 52.018 75.9593 52.0446 76.0766 52.0915C76.2316 52.1522 76.3694 52.2601 76.4753 52.4038Z" fill="#473F47"/>
<path d="M39.0123 56.9138C39.0123 56.9138 40.1687 56.9525 40.3889 57.4921C40.6092 58.0318 40.6092 64.8398 40.6092 64.8398H35.648C35.648 64.8398 35.5296 57.8342 35.7619 57.4731C35.9943 57.1121 39.0123 56.9138 39.0123 56.9138Z" fill="#505457"/>
<path d="M35.762 54.975C35.7592 54.301 35.8413 53.6125 36.1078 53.0113C36.6479 51.7964 38.0515 51.004 39.0184 52.0935C39.4496 52.5793 39.639 53.3141 39.5608 54.0027C39.4964 54.5727 39.2629 55.12 39.2932 55.6939C39.3207 56.2171 39.563 56.6877 39.764 57.1584C39.965 57.629 40.1318 58.1674 39.9997 58.6691C39.8857 59.103 39.5591 59.4292 39.1985 59.6091C38.8378 59.789 38.4375 59.839 38.0449 59.8764C37.6429 59.9144 37.2189 59.9397 36.855 59.7402C36.2201 59.3994 36.2867 58.4803 36.1392 57.8076C35.9343 56.8847 35.7664 55.9346 35.762 54.975Z" fill="#473F47"/>
<path d="M70.9689 65.9698C70.9689 65.9698 70.7525 57.6143 70.5835 57.3299C70.4145 57.0455 69.007 56.459 67.261 56.6009C65.5149 56.7428 64.9885 57.3274 64.9885 57.3274L64.5403 65.9673L70.9689 65.9698Z" fill="#665966"/>
<path d="M69.6414 61.5588C69.6414 61.5588 68.7604 62.0174 68.6624 62.3645C68.5643 62.7116 68.316 70.4305 68.316 70.4305H75.1742C75.1742 70.4305 74.797 62.2201 74.5206 61.9021C74.2441 61.5841 71.0984 61.1579 69.6414 61.5588Z" fill="white"/>
<path d="M72.7795 56.1358C72.8346 56.1453 72.8929 56.1358 72.9491 56.1453C73.0153 56.1556 73.0777 56.1867 73.1295 56.2352C73.1812 56.2837 73.2204 56.3477 73.2426 56.4202C73.2527 56.4718 73.2674 56.5222 73.2866 56.5703C73.3173 56.6168 73.3514 56.6603 73.3885 56.7001C73.4248 56.7511 73.4474 56.8131 73.4535 56.8786C73.4596 56.9441 73.4488 57.0102 73.4226 57.0688C73.4869 57.1105 73.5411 57.1701 73.5802 57.2421C73.6192 57.3142 73.6419 57.3964 73.6462 57.4812C73.6489 57.5445 73.6401 57.6129 73.6462 57.6788C73.6627 57.884 73.8114 58.0405 73.8841 58.2273C73.9491 58.4054 73.9528 58.6052 73.8944 58.7863C73.836 58.9673 73.7199 59.116 73.5697 59.2022C73.6701 59.3173 73.728 59.4726 73.7314 59.6357C73.7348 59.7987 73.6834 59.957 73.5878 60.0776C73.7404 60.2207 73.8995 60.3727 73.9733 60.5843C74.0471 60.7959 74.0069 61.0777 73.8312 61.181C73.8904 61.2543 73.9294 61.3461 73.9433 61.4448C73.9572 61.5435 73.9454 61.6448 73.9093 61.7358C73.8733 61.8269 73.8147 61.9036 73.7408 61.9563C73.6669 62.0091 73.5811 62.0355 73.4942 62.0323C73.5203 62.1364 73.5229 62.2464 73.5019 62.352C73.4808 62.4576 73.4367 62.5553 73.3737 62.6359C73.3108 62.7165 73.231 62.7773 73.142 62.8127C73.053 62.8481 72.9576 62.8568 72.8648 62.838C72.8824 63.1185 72.8638 63.4005 72.8098 63.6748C72.4567 63.7677 72.0875 63.7377 71.7493 63.5886C71.6094 63.7026 71.464 63.8198 71.2961 63.8616C71.1281 63.9034 70.9299 63.8509 70.8363 63.6849C70.7812 63.5918 70.7609 63.4645 70.6711 63.4195C70.6335 63.4034 70.5933 63.3967 70.5533 63.3999H69.9382C69.893 63.4056 69.8475 63.3938 69.8088 63.3663C69.78 63.3348 69.7607 63.2935 69.7538 63.2485C69.7082 63.0572 69.7019 62.8564 69.7356 62.6619C69.6861 62.6389 69.641 62.6049 69.6031 62.5617C69.5651 62.5185 69.535 62.467 69.5145 62.4103C69.494 62.3536 69.4836 62.2928 69.4837 62.2313C69.4838 62.1699 69.4946 62.1092 69.5153 62.0526C69.5457 61.9956 69.5708 61.9351 69.5902 61.872C69.6122 61.7669 69.5693 61.6605 69.5528 61.5553C69.53 61.4066 69.5584 61.2535 69.6321 61.1284C69.6649 61.0858 69.6888 61.0351 69.702 60.9802C69.7114 60.908 69.6717 60.8402 69.6403 60.7769C69.5845 60.6622 69.5499 60.5354 69.5388 60.4046C69.5277 60.2737 69.5403 60.1417 69.5759 60.0168C69.6018 59.9281 69.6398 59.8394 69.631 59.7463C69.6219 59.6908 69.6066 59.6369 69.5853 59.586C69.5436 59.4609 69.5256 59.3269 69.5324 59.1931C69.5393 59.0593 69.5708 58.9288 69.6249 58.8101C69.6598 58.7498 69.6851 58.6829 69.6998 58.6125C69.703 58.5519 69.6969 58.4912 69.6816 58.4332C69.6183 58.1103 69.6112 57.7762 69.6607 57.4501C69.6888 57.2664 69.7482 57.0701 69.8931 56.9827C69.9246 56.9694 69.9529 56.9477 69.9757 56.9193C69.9916 56.8827 69.9981 56.8416 69.9944 56.8009C69.999 56.7278 70.0164 56.6565 70.0455 56.5914C70.0746 56.5262 70.1148 56.4684 70.1637 56.4215C70.2127 56.3746 70.2693 56.3394 70.3302 56.3182C70.3912 56.297 70.4553 56.2901 70.5186 56.2979C70.6023 55.9141 71.0433 55.7012 71.3401 55.902C71.3622 55.8013 71.4107 55.7109 71.4789 55.6429C71.5472 55.5749 71.6319 55.5327 71.7217 55.522C71.942 55.5011 72.0604 55.712 72.2211 55.8115C72.3819 55.9109 72.6 56.1066 72.7795 56.1358Z" fill="#CD8809"/>
<path d="M68.7147 56.3007C68.6916 56.2762 68.6618 56.2616 68.6304 56.2595C68.452 56.2291 68.2731 56.2925 68.0963 56.3324C67.6823 56.4263 67.2561 56.3901 66.8354 56.3648C66.8244 56.3631 66.8133 56.3644 66.8029 56.3686C66.7916 56.3761 66.7827 56.3877 66.7776 56.4015C66.7643 56.4409 66.7608 56.4838 66.7676 56.5254C66.7743 56.5669 66.7909 56.6055 66.8156 56.6368C66.8662 56.6981 66.9286 56.745 66.9978 56.7737C67.1011 56.8235 67.2087 56.8605 67.3188 56.8841C67.456 56.9108 67.5949 56.9246 67.734 56.9253C67.9912 56.931 68.2577 56.9183 68.5005 56.8099C68.5704 56.7867 68.6297 56.733 68.6657 56.6602C68.7081 56.574 68.7841 56.3888 68.7147 56.3007Z" fill="white"/>
<path d="M69.3347 52.4038C69.3894 52.4788 69.4358 52.5614 69.4729 52.6495C69.5984 52.9466 69.6282 53.283 69.632 53.6149C69.6434 53.9007 69.6037 54.1861 69.5153 54.4535C69.4178 54.7278 69.2554 54.9343 69.1194 55.1858C69.0032 55.3999 68.9179 55.6355 68.7923 55.8432C68.6799 56.0322 68.5342 56.1919 68.3647 56.312C68.1952 56.432 68.0056 56.5097 67.8083 56.54C67.6108 56.5663 67.4107 56.5367 67.2253 56.454C67.0399 56.3712 66.8749 56.2377 66.7445 56.0649C66.6179 55.8901 66.5342 55.6811 66.4317 55.4866C66.3324 55.3177 66.2405 55.1431 66.1564 54.9634C66.0408 54.679 66.0089 54.3604 65.9879 54.0475C65.9595 53.7428 65.9651 53.4352 66.0045 53.1322C66.0448 52.8272 66.1662 52.544 66.3519 52.3214C66.4731 52.1976 66.607 52.0912 66.7506 52.0047C66.9901 51.8438 67.2335 51.681 67.5022 51.6012C67.7709 51.5214 68.0721 51.5341 68.3056 51.707C68.4052 51.7811 68.4928 51.8761 68.5946 51.9471C68.6965 52.018 68.8193 52.0446 68.9366 52.0915C69.0913 52.1524 69.2289 52.2603 69.3347 52.4038Z" fill="#CD8809"/>
<path d="M65.891 61.1394C65.891 61.1394 67.0473 61.178 67.2676 61.7177C67.4878 62.2574 67.4878 65.9699 67.4878 65.9699H62.5266C62.5266 65.9699 62.4126 62.0579 62.6456 61.6987C62.8785 61.3396 65.891 61.1394 65.891 61.1394Z" fill="#505457"/>
<path d="M64.4319 55.7756C64.6679 55.6933 64.9225 55.7201 65.1416 55.8504C65.2589 55.9226 65.3068 56.0619 65.4048 56.1379C65.4858 56.2013 65.6251 56.1278 65.6923 56.2412C65.771 56.3742 65.8239 56.5927 65.8861 56.7422C65.9659 56.9323 66.0381 57.1299 66.103 57.3288C66.2327 57.7279 66.3347 58.1381 66.4081 58.5557C66.551 59.3858 66.6077 60.2325 66.5771 61.078C66.5617 61.5847 66.5221 62.101 66.3519 62.5704C66.1691 63.0841 65.3233 62.9358 64.9506 62.9295C64.2997 62.9173 63.65 62.8788 63.0013 62.8142C62.8592 61.1676 62.8879 59.5073 63.0867 57.8685C63.1313 57.5036 63.1863 57.1331 63.3405 56.8106C63.5492 56.3736 63.9759 55.9182 64.4319 55.7756Z" fill="#473F47"/>
<path d="M65.722 60.9101C65.722 60.9101 66.8783 60.9487 67.0986 61.4884C67.3188 62.0281 67.3188 65.7406 67.3188 65.7406H62.3576C62.3576 65.7406 62.2436 61.8292 62.4765 61.4694C62.7095 61.1096 65.722 60.9101 65.722 60.9101Z" fill="#505457"/>
<path d="M64.2628 55.5464C64.4991 55.4642 64.7539 55.4913 64.9731 55.6217C65.0904 55.6933 65.1383 55.8327 65.2358 55.9093C65.3173 55.9727 65.456 55.8992 65.5238 56.0126C65.602 56.145 65.6554 56.3641 65.7176 56.513C65.7976 56.7047 65.8699 56.9004 65.9345 57.1002C66.0639 57.4991 66.1659 57.9092 66.2396 58.3265C66.3825 59.1568 66.4392 60.0037 66.4086 60.8494C66.3932 61.3561 66.3536 61.8717 66.1834 62.3417C66.0006 62.8548 65.1548 62.7072 64.7821 62.7002C64.1312 62.688 63.4815 62.6496 62.8328 62.585C62.6907 60.9383 62.7194 59.2781 62.9182 57.6392C62.9628 57.275 63.0178 56.9038 63.1715 56.5814C63.3807 56.145 63.8058 55.6895 64.2628 55.5464Z" fill="#473F47"/>
<path d="M61.0625 57.0453C61.0625 57.0453 62.2189 57.0833 62.4391 57.6236C62.6594 58.1639 62.6594 61.7301 62.6594 61.7301H57.6981C57.6981 61.7301 57.5842 57.9638 57.8171 57.604C58.05 57.2442 61.0625 57.0453 61.0625 57.0453Z" fill="white"/>
<path d="M60.1815 51.8318C60.4744 51.9724 60.6644 52.2999 60.8142 52.6229C61.4589 54.0165 61.666 55.6368 61.6181 57.2159C61.6027 57.7226 61.563 58.2389 61.3929 58.7082C61.3697 58.7919 61.3257 58.866 61.2662 58.9211C61.1954 58.9649 61.1152 58.9849 61.035 58.9787C60.1582 59.0002 59.2811 58.9679 58.4073 58.8818C58.1138 57.6441 57.8181 56.3893 57.8126 55.1059C57.8099 54.4326 57.8914 53.7441 58.1584 53.1423C58.4255 52.5406 58.8968 52.0402 59.469 51.8964C59.8428 51.8027 60.3054 51.9179 60.4645 52.3183" fill="#CD8809"/>
<path d="M60.4089 70.0017C60.4089 70.0017 60.1925 61.6469 60.0235 61.3625C59.8544 61.0781 58.447 60.4909 56.7004 60.6334C54.9538 60.7759 54.4279 61.3625 54.4279 61.3625L53.9797 70.0017H60.4089Z" fill="#665966"/>
<path d="M59.0813 65.5911C59.0813 65.5911 58.2003 66.0497 58.1023 66.3968C58.0043 66.7439 57.7537 70.0016 57.7537 70.0016H64.6135C64.6135 70.0016 64.2369 66.2518 63.9599 65.9338C63.683 65.6158 60.5383 65.1901 59.0813 65.5911Z" fill="#473F47"/>
<path d="M62.2194 60.1682C62.2745 60.1771 62.3295 60.1682 62.3884 60.1771C62.4547 60.1874 62.5172 60.2186 62.569 60.2672C62.6208 60.3159 62.6599 60.38 62.6819 60.4526C62.6926 60.5042 62.7075 60.5545 62.7265 60.6028C62.7573 60.6482 62.7914 60.6906 62.8284 60.7295C62.8647 60.7803 62.8872 60.8423 62.8931 60.9077C62.8991 60.9731 62.8883 61.0391 62.862 61.0975C62.9264 61.1391 62.9807 61.1986 63.0199 61.2707C63.059 61.3428 63.0818 61.425 63.0861 61.5098C63.0861 61.5732 63.08 61.6416 63.0861 61.7075C63.1026 61.9127 63.248 62.0691 63.324 62.256C63.3892 62.4341 63.393 62.6341 63.3346 62.8153C63.2762 62.9965 63.1599 63.1453 63.0096 63.2315C63.1097 63.3467 63.1675 63.5019 63.1708 63.6648C63.174 63.8277 63.1226 63.9858 63.0272 64.1062C63.1803 64.2494 63.3388 64.4014 63.4126 64.613C63.4864 64.8245 63.4462 65.1064 63.2706 65.2103C63.3295 65.2836 63.3684 65.3753 63.3822 65.474C63.396 65.5726 63.3841 65.6737 63.3481 65.7646C63.3121 65.8555 63.2535 65.9321 63.1798 65.9849C63.106 66.0376 63.0204 66.0641 62.9336 66.061C62.9603 66.1654 62.9634 66.2759 62.9426 66.382C62.9218 66.4882 62.8779 66.5865 62.8149 66.6677C62.7519 66.7489 62.6719 66.8102 62.5825 66.8459C62.4932 66.8816 62.3974 66.8905 62.3042 66.8717C62.3217 67.1521 62.3032 67.4338 62.2491 67.7079C61.8962 67.8013 61.5271 67.7713 61.1892 67.6217C61.0487 67.7364 60.9034 67.8529 60.7354 67.8947C60.5675 67.9365 60.3693 67.884 60.2762 67.718C60.2239 67.6255 60.2008 67.4982 60.111 67.4526C60.0733 67.4367 60.0332 67.4303 59.9932 67.4336H59.3776C59.3325 67.4391 59.287 67.4276 59.2482 67.4007C59.2193 67.3689 59.2001 67.3274 59.1931 67.2822C59.1473 67.091 59.1409 66.8902 59.1744 66.6957C59.125 66.6725 59.08 66.6384 59.0422 66.5952C59.0043 66.5519 58.9743 66.5005 58.9538 66.4438C58.9333 66.3872 58.9228 66.3264 58.9228 66.265C58.9229 66.2037 58.9335 66.1429 58.9541 66.0863C58.9844 66.0294 59.0097 65.9691 59.0296 65.9064C59.0516 65.8013 59.0086 65.6942 58.9921 65.5897C58.9694 65.4407 58.9978 65.2875 59.0714 65.1621C59.1039 65.1195 59.1278 65.0691 59.1413 65.0146C59.1507 64.9417 59.1111 64.8746 59.0797 64.8106C59.0238 64.6959 58.9892 64.5692 58.9782 64.4383C58.9671 64.3075 58.9797 64.1754 59.0153 64.0505C59.0411 63.9618 59.0786 63.8731 59.0703 63.7806C59.0611 63.725 59.0457 63.6709 59.0246 63.6198C58.9828 63.4948 58.9647 63.3609 58.9715 63.2273C58.9782 63.0936 59.0097 62.9631 59.0637 62.8444C59.0987 62.7842 59.1241 62.7173 59.1386 62.6468C59.1422 62.5863 59.136 62.5255 59.1204 62.4676C59.057 62.1445 59.0501 61.8101 59.1001 61.4839C59.1281 61.3008 59.1876 61.1038 59.3319 61.017C59.3635 61.0041 59.3919 60.9823 59.4145 60.9537C59.4307 60.9169 59.4373 60.8756 59.4337 60.8346C59.4383 60.7616 59.4557 60.6904 59.4847 60.6252C59.5137 60.5601 59.5539 60.5023 59.6028 60.4555C59.6517 60.4086 59.7083 60.3735 59.7692 60.3523C59.8301 60.3312 59.8941 60.3244 59.9574 60.3323C60.0416 59.9478 60.4821 59.735 60.7795 59.9358C60.8022 59.8358 60.8509 59.7462 60.9191 59.6789C60.9873 59.6117 61.0717 59.57 61.1611 59.5595C61.3813 59.5386 61.4992 59.7495 61.6605 59.8484C61.8218 59.9472 62.0399 60.1391 62.2194 60.1682Z" fill="#A36A0F"/>
<path d="M58.1546 60.3325C58.1313 60.3079 58.1014 60.2933 58.0698 60.2913C57.8914 60.2608 57.713 60.3249 57.5357 60.3648C57.1222 60.458 56.696 60.4219 56.2747 60.3965C56.2639 60.3951 56.253 60.3966 56.2428 60.401C56.2312 60.4081 56.2222 60.4198 56.2175 60.4339C56.204 60.4733 56.2004 60.5162 56.2071 60.5579C56.2138 60.5995 56.2306 60.638 56.2555 60.6692C56.306 60.7306 56.3684 60.7774 56.4377 60.8055C56.5408 60.8554 56.6482 60.8924 56.7582 60.9158C56.8955 60.9429 57.0346 60.9567 57.1739 60.9571C57.4311 60.9634 57.6976 60.9501 57.9399 60.8416C58.0096 60.8182 58.0688 60.7645 58.105 60.692C58.148 60.6058 58.224 60.4206 58.1546 60.3325Z" fill="white"/>
<path d="M58.7746 56.4356C58.8292 56.5108 58.8756 56.5933 58.9128 56.6814C59.0384 56.9785 59.0681 57.3148 59.072 57.6467C59.0831 57.9323 59.0434 58.2175 58.9552 58.4848C58.8572 58.759 58.6953 58.9662 58.5593 59.217C58.4431 59.4317 58.3578 59.6674 58.2322 59.8745C58.1195 60.0629 57.9737 60.2219 57.8042 60.3414C57.6347 60.4609 57.4453 60.5381 57.2483 60.5681C57.0507 60.5944 56.8505 60.565 56.665 60.4823C56.4796 60.3997 56.3144 60.2663 56.1839 60.0937C56.0578 59.9188 55.9741 59.7092 55.8717 59.5147C55.7716 59.3462 55.6797 59.1716 55.5963 58.9915C55.4807 58.7071 55.4482 58.3885 55.4273 58.0756C55.3994 57.7709 55.4051 57.4633 55.4444 57.1603C55.4848 56.8555 55.6061 56.5725 55.7918 56.3501C55.9126 56.2252 56.0464 56.1177 56.1899 56.0303C56.4295 55.8694 56.6734 55.7072 56.9415 55.6274C57.2097 55.5476 57.512 55.5596 57.7449 55.7325C57.8451 55.8067 57.9327 55.9023 58.0346 55.9726C58.1364 56.0429 58.2587 56.0708 58.376 56.117C58.5315 56.1796 58.6694 56.2897 58.7746 56.4356Z" fill="#684712"/>
<path d="M53.9241 57.0453C53.9241 57.0453 55.0804 57.0833 55.3007 57.6236C55.5209 58.1639 55.5209 61.7301 55.5209 61.7301H50.5597C50.5597 61.7301 50.4457 57.9638 50.6781 57.604C50.9104 57.2442 53.9241 57.0453 53.9241 57.0453Z" fill="#505457"/>
<path d="M53.0425 51.8318C53.336 51.9724 53.526 52.2999 53.6752 52.6229C54.3205 54.0165 54.527 55.6368 54.4791 57.2159C54.4637 57.7226 54.4241 58.2389 54.2545 58.7082C54.2313 58.7919 54.1873 58.866 54.1278 58.9211C54.057 58.9648 53.9768 58.9848 53.8966 58.9787C53.0198 59.0003 52.1427 58.9679 51.2689 58.8818C50.9754 57.6441 50.6792 56.3893 50.6737 55.1059C50.6737 54.4326 50.753 53.7441 51.0195 53.1423C51.286 52.5406 51.7579 52.0402 52.3306 51.8964C52.7044 51.8027 53.167 51.9179 53.3261 52.3183" fill="#473F47"/>
<path d="M25.0824 57.0453C25.0824 57.0453 26.2387 57.0833 26.459 57.6236C26.6792 58.1639 26.6792 66.5061 26.6792 66.5061H21.718C21.718 66.5061 21.604 57.9638 21.837 57.604C22.0699 57.2442 25.0824 57.0453 25.0824 57.0453Z" fill="#505457"/>
<path d="M24.2014 51.8318C24.4943 51.9724 24.6843 52.2999 24.8341 52.6229C25.4789 54.0165 25.6859 55.6368 25.6374 57.2159C25.6226 57.7226 25.5824 58.2389 25.4128 58.7082C25.3897 58.7919 25.3456 58.866 25.2861 58.9211C25.2153 58.9649 25.1351 58.9849 25.0549 58.9787C24.1781 59.0002 23.301 58.9679 22.4272 58.8818C22.1338 57.6441 21.8381 56.3893 21.8326 55.1059C21.8292 54.4326 21.9113 53.7441 22.1778 53.1423C22.4443 52.5406 22.9168 52.0402 23.4889 51.8964C23.8627 51.8027 24.3253 51.9179 24.4844 52.3183" fill="#473F47"/>
<path d="M33.9052 66.3671C33.9052 66.3671 33.6888 58.0122 33.5197 57.7278C33.3507 57.4434 31.9438 56.8562 30.1972 56.9988C28.4506 57.1413 27.9253 57.7278 27.9253 57.7278L27.4771 66.3671H33.9052Z" fill="#665966"/>
<path d="M32.5776 61.9566C32.5776 61.9566 31.6966 62.4151 31.5986 62.7623C31.5006 63.1094 31.2522 66.3671 31.2522 66.3671H38.1098C38.1098 66.3671 37.7327 62.6172 37.4562 62.2992C37.1798 61.9813 34.034 61.5556 32.5776 61.9566Z" fill="#473F47"/>
<path d="M35.7157 56.5339C35.7707 56.5428 35.8285 56.5339 35.8847 56.5428C35.951 56.5531 36.0134 56.5843 36.0652 56.6329C36.117 56.6815 36.1561 56.7457 36.1782 56.8183C36.1887 56.8697 36.2037 56.9198 36.2228 56.9678C36.2533 57.0147 36.2874 57.0583 36.3247 57.0983C36.3609 57.1491 36.3834 57.2111 36.3894 57.2765C36.3954 57.3419 36.3845 57.4079 36.3583 57.4663C36.4227 57.5079 36.477 57.5675 36.5161 57.6395C36.5553 57.7116 36.5781 57.7938 36.5824 57.8786C36.5851 57.942 36.5758 58.0104 36.5824 58.0763C36.5989 58.2815 36.7442 58.438 36.8202 58.6248C36.8854 58.8029 36.8892 59.0029 36.8308 59.1841C36.7724 59.3653 36.6562 59.5141 36.5058 59.6003C36.606 59.7155 36.6637 59.8707 36.667 60.0336C36.6703 60.1965 36.6189 60.3546 36.5234 60.475C36.6765 60.6182 36.8351 60.7702 36.9089 60.9818C36.9827 61.1933 36.9425 61.4752 36.7668 61.5791C36.8258 61.6524 36.8646 61.7441 36.8784 61.8428C36.8922 61.9414 36.8804 62.0425 36.8444 62.1334C36.8084 62.2243 36.7498 62.301 36.676 62.3537C36.6023 62.4064 36.5166 62.4329 36.4298 62.4298C36.4566 62.5342 36.4597 62.6448 36.4389 62.751C36.4181 62.8573 36.3741 62.9556 36.311 63.0368C36.2479 63.118 36.1679 63.1793 36.0784 63.215C35.989 63.2506 35.8931 63.2594 35.7999 63.2406C35.8177 63.5209 35.7992 63.8027 35.7448 64.0767C35.3909 64.17 35.0208 64.1393 34.6821 63.9886C34.5417 64.1033 34.3963 64.2198 34.2284 64.2616C34.0605 64.3034 33.8622 64.2509 33.7686 64.0849C33.7169 63.9924 33.6937 63.8651 33.6062 63.8195C33.5685 63.8037 33.5283 63.7972 33.4883 63.8005H32.8727C32.8276 63.806 32.7822 63.7945 32.7433 63.7676C32.7147 63.7356 32.6955 63.6942 32.6883 63.6491C32.6429 63.4578 32.6367 63.2571 32.6701 63.0626C32.6207 63.0394 32.5757 63.0053 32.5379 62.9621C32.5 62.9188 32.47 62.8674 32.4495 62.8107C32.429 62.7541 32.4185 62.6933 32.4185 62.6319C32.4186 62.5706 32.4292 62.5098 32.4498 62.4532C32.4802 62.3963 32.5054 62.336 32.5253 62.2733C32.5473 62.1682 32.5044 62.0611 32.4873 61.9566C32.4651 61.8076 32.4937 61.6544 32.5671 61.5291C32.5996 61.4864 32.6235 61.436 32.6371 61.3815C32.6464 61.3086 32.6068 61.2415 32.5748 61.1775C32.5191 61.0628 32.4846 60.936 32.4736 60.8052C32.4626 60.6743 32.4753 60.5423 32.511 60.4174C32.5363 60.3287 32.5743 60.24 32.566 60.1476C32.5568 60.0919 32.5415 60.0378 32.5203 59.9867C32.4786 59.8617 32.4604 59.7279 32.4672 59.5942C32.4739 59.4605 32.5054 59.33 32.5594 59.2114C32.5944 59.1511 32.6198 59.0842 32.6343 59.0137C32.6376 58.9532 32.6315 58.8925 32.6161 58.8345C32.5528 58.5114 32.5457 58.177 32.5952 57.8508C32.6233 57.6677 32.6833 57.4707 32.8276 57.3839C32.8591 57.3706 32.8874 57.3489 32.9102 57.3206C32.9264 57.2838 32.9331 57.2425 32.9295 57.2015C32.934 57.1285 32.9514 57.0573 32.9804 56.9921C33.0095 56.927 33.0496 56.8693 33.0985 56.8224C33.1474 56.7755 33.204 56.7404 33.2649 56.7192C33.3258 56.6981 33.3898 56.6913 33.4531 56.6992C33.5368 56.3147 33.9779 56.1019 34.2752 56.3027C34.2979 56.2027 34.3466 56.1131 34.4148 56.0458C34.483 55.9786 34.5674 55.9369 34.6568 55.9264C34.8798 55.9055 34.9949 56.1165 35.1562 56.2153C35.3176 56.3141 35.5362 56.5041 35.7157 56.5339Z" fill="#CD8809"/>
<path d="M31.6537 56.6981C31.6303 56.6736 31.6004 56.659 31.5689 56.6569C31.3905 56.6265 31.2115 56.6905 31.0347 56.7305C30.6212 56.8237 30.195 56.7875 29.7738 56.7622C29.763 56.7607 29.7521 56.7623 29.7419 56.7666C29.7303 56.7738 29.7213 56.7854 29.7165 56.7996C29.703 56.8389 29.6994 56.8819 29.7061 56.9235C29.7129 56.9651 29.7296 57.0037 29.7545 57.0348C29.805 57.0963 29.8675 57.143 29.9368 57.1711C30.0398 57.2211 30.1473 57.2581 30.2572 57.2815C30.3946 57.3085 30.5336 57.3223 30.673 57.3227C30.9301 57.329 31.1966 57.3157 31.4389 57.2073C31.5087 57.1838 31.5678 57.1302 31.6041 57.0576C31.6437 56.9714 31.7203 56.7863 31.6537 56.6981Z" fill="white"/>
<path d="M32.271 52.8012C32.3257 52.8763 32.3721 52.9588 32.4092 53.047C32.5347 53.3441 32.5645 53.6804 32.5683 54.0123C32.5794 54.2979 32.5397 54.5831 32.4516 54.8504C32.3536 55.1246 32.1917 55.3318 32.0557 55.5826C31.9395 55.7967 31.8541 56.033 31.7286 56.2401C31.6159 56.4285 31.4701 56.5875 31.3006 56.707C31.1311 56.8265 30.9417 56.9037 30.7446 56.9337C30.547 56.96 30.3469 56.9306 30.1614 56.8479C29.9759 56.7653 29.8108 56.6319 29.6802 56.4593C29.5541 56.2844 29.4704 56.0748 29.368 55.8803C29.268 55.7118 29.1761 55.5372 29.0927 55.3571C28.9771 55.0727 28.9446 54.7541 28.9237 54.4412C28.8957 54.1365 28.9015 53.8289 28.9407 53.5259C28.9811 53.2211 29.1025 52.9381 29.2882 52.7157C29.4089 52.5906 29.5426 52.4832 29.6863 52.3959C29.9258 52.235 30.1697 52.0728 30.4379 51.993C30.7061 51.9132 31.0084 51.9252 31.2413 52.0981C31.3415 52.1723 31.429 52.2679 31.5309 52.3382C31.6328 52.4085 31.755 52.4364 31.8723 52.4826C32.0279 52.5452 32.1657 52.6553 32.271 52.8012Z" fill="#CD8809"/>
<path d="M17.9428 57.0453C17.9428 57.0453 19.0992 57.0833 19.3194 57.6236C19.5397 58.1639 19.5397 66.5549 19.5397 66.5549L14.5785 61.7326C14.5785 61.7326 14.4612 57.9638 14.6941 57.604C14.927 57.2442 17.9428 57.0453 17.9428 57.0453Z" fill="#505457"/>
<path d="M17.0618 51.8318C17.3553 51.9724 17.5453 52.2999 17.6945 52.6229C18.3398 54.0165 18.5463 55.6368 18.4984 57.2159C18.483 57.7226 18.4434 58.2389 18.2738 58.7082C18.2506 58.7919 18.2066 58.866 18.1471 58.9211C18.0762 58.9648 17.9961 58.9847 17.9159 58.9787C17.0391 59.0003 16.162 58.9679 15.2882 58.8818C14.9953 57.6447 14.6991 56.3893 14.6941 55.1059C14.6913 54.4326 14.7734 53.7441 15.0399 53.1423C15.3064 52.5406 15.7783 52.0402 16.351 51.8964C16.7248 51.8027 17.1874 51.9179 17.3465 52.3183" fill="#473F47"/>
<path d="M53.2705 70.0017C53.2705 70.0017 53.0541 61.6469 52.8851 61.3625C52.716 61.0781 51.3086 60.4909 49.5625 60.6334C47.8165 60.7759 47.2917 61.3625 47.2917 61.3625L46.8435 70.0017H53.2705Z" fill="#665966"/>
<path d="M51.9429 65.5911C51.9429 65.5911 51.0619 66.0497 50.9633 66.3968C50.8647 66.7439 50.617 70.0016 50.617 70.0016H57.4751C57.4751 70.0016 57.0979 66.2518 56.8215 65.9338C56.5451 65.6158 53.3993 65.1901 51.9429 65.5911Z" fill="#473F47"/>
<path d="M55.081 60.1686C55.136 60.1775 55.1911 60.1686 55.25 60.1775C55.3163 60.1878 55.3787 60.219 55.4305 60.2676C55.4823 60.3162 55.5214 60.3804 55.5435 60.453C55.5539 60.5047 55.5688 60.555 55.5881 60.6031C55.6189 60.6486 55.653 60.6909 55.69 60.7298C55.7262 60.7807 55.7487 60.8426 55.7547 60.908C55.7607 60.9734 55.7498 61.0394 55.7235 61.0978C55.788 61.1394 55.8422 61.199 55.8814 61.2711C55.9206 61.3431 55.9434 61.4253 55.9477 61.5102C55.9477 61.5735 55.941 61.6419 55.9477 61.7078C55.9636 61.913 56.1095 62.0695 56.185 62.2564C56.2502 62.4344 56.2541 62.6343 56.1958 62.8155C56.1375 62.9967 56.0214 63.1456 55.8711 63.2318C55.9713 63.347 56.029 63.5022 56.0323 63.6651C56.0356 63.8281 55.9842 63.9862 55.8887 64.1066C56.0418 64.2497 56.2004 64.4018 56.2742 64.6133C56.348 64.8249 56.3078 65.1068 56.1327 65.2106C56.1916 65.2839 56.2305 65.3757 56.2443 65.4743C56.2581 65.5729 56.2462 65.6741 56.2102 65.765C56.1742 65.8559 56.1156 65.9325 56.0419 65.9852C55.9681 66.0379 55.8825 66.0644 55.7957 66.0613C55.8226 66.1659 55.8259 66.2766 55.8053 66.383C55.7846 66.4894 55.7406 66.588 55.6775 66.6693C55.6144 66.7507 55.5342 66.8121 55.4447 66.8478C55.3551 66.8836 55.2591 66.8923 55.1657 66.8734C55.1836 67.1537 55.165 67.4355 55.1107 67.7095C54.7578 67.8029 54.3887 67.7729 54.0507 67.6233C53.9103 67.738 53.7649 67.8545 53.597 67.8963C53.429 67.9381 53.2308 67.8856 53.1372 67.7196C53.0849 67.6271 53.0623 67.4998 52.9748 67.4542C52.9369 67.4384 52.8966 67.4319 52.8564 67.4352H52.2413C52.1962 67.4407 52.1508 67.4292 52.1119 67.4023C52.0831 67.3705 52.0638 67.329 52.0569 67.2838C52.0115 67.0925 52.0053 66.8918 52.0387 66.6973C51.9892 66.6742 51.9442 66.6401 51.9063 66.5969C51.8684 66.5537 51.8384 66.5022 51.8179 66.4456C51.7974 66.3889 51.7869 66.3281 51.787 66.2667C51.7871 66.2053 51.7978 66.1445 51.8184 66.0879C51.8487 66.031 51.874 65.9707 51.8939 65.908C51.9154 65.8029 51.873 65.6958 51.8559 65.5913C51.8331 65.4424 51.8616 65.2891 51.9352 65.1638C51.968 65.1212 51.9921 65.0708 52.0057 65.0162C52.0145 64.9433 51.9748 64.8762 51.9434 64.8122C51.8877 64.6975 51.8532 64.5707 51.8422 64.4399C51.8312 64.309 51.8439 64.177 51.8796 64.0521C51.9049 63.9634 51.9429 63.8747 51.9346 63.7823C51.9254 63.7266 51.9101 63.6725 51.8889 63.6214C51.8472 63.4964 51.829 63.3626 51.8358 63.2289C51.8425 63.0952 51.874 62.9647 51.928 62.8461C51.963 62.7858 51.9884 62.7189 52.0029 62.6484C52.0062 62.5879 52.0001 62.5272 51.9847 62.4692C51.9214 62.1461 51.9143 61.8118 51.9638 61.4855C51.9919 61.3024 52.0519 61.1054 52.1962 61.0186C52.2278 61.0056 52.2561 60.9838 52.2788 60.9553C52.2951 60.9186 52.3016 60.8772 52.2975 60.8362C52.3021 60.7632 52.3195 60.6919 52.3486 60.6268C52.3778 60.5617 52.418 60.5039 52.4669 60.457C52.5158 60.4102 52.5724 60.3751 52.6334 60.3539C52.6944 60.3328 52.7584 60.326 52.8217 60.3339C52.9054 59.9494 53.3465 59.7366 53.6432 59.9374C53.6659 59.8373 53.7147 59.7476 53.783 59.6804C53.8514 59.6131 53.9359 59.5715 54.0254 59.5611C54.2456 59.5402 54.3635 59.7512 54.5248 59.85C54.6861 59.9488 54.9009 60.1395 55.081 60.1686Z" fill="#CD8809"/>
<path d="M51.0162 60.3325C50.9929 60.308 50.9629 60.2934 50.9314 60.2913C50.753 60.2608 50.574 60.3249 50.3973 60.3648C49.9838 60.458 49.557 60.4219 49.1363 60.3965C49.1255 60.3951 49.1146 60.3966 49.1044 60.401C49.0928 60.4081 49.0838 60.4198 49.0791 60.4339C49.0655 60.4733 49.0619 60.5162 49.0687 60.5579C49.0754 60.5995 49.0922 60.638 49.1171 60.6692C49.1674 60.7305 49.2297 60.7772 49.2988 60.8055C49.402 60.8554 49.5096 60.8924 49.6198 60.9158C49.7571 60.9429 49.8962 60.9567 50.0355 60.9571C50.2927 60.9634 50.5586 60.9501 50.8014 60.8416C50.8713 60.8185 50.9306 60.7648 50.9666 60.692C51.009 60.6058 51.0856 60.4206 51.0162 60.3325Z" fill="white"/>
<path d="M51.6356 56.4356C51.6904 56.5108 51.737 56.5933 51.7744 56.6814C51.8999 56.9785 51.9297 57.3148 51.9335 57.6467C51.9447 57.9323 51.905 58.2175 51.8168 58.4848C51.7188 58.759 51.5569 58.9662 51.4209 59.217C51.3042 59.4317 51.2194 59.6674 51.0938 59.8745C50.9811 60.0629 50.8353 60.2219 50.6658 60.3414C50.4963 60.4609 50.3069 60.5381 50.1098 60.5681C49.9122 60.5945 49.712 60.5652 49.5266 60.4825C49.3411 60.3998 49.1759 60.2663 49.0454 60.0937C48.9194 59.9188 48.8357 59.7092 48.7332 59.5147C48.6332 59.3462 48.5413 59.1716 48.4579 58.9915C48.3423 58.7071 48.3098 58.3885 48.2889 58.0756C48.2607 57.7709 48.2664 57.4633 48.3059 57.1603C48.3461 56.8555 48.4673 56.5725 48.6528 56.3501C48.7739 56.2252 48.9078 56.1177 49.0515 56.0303C49.291 55.8694 49.5344 55.7072 49.8031 55.6274C50.0718 55.5476 50.3736 55.5596 50.6065 55.7325C50.7067 55.8067 50.7943 55.9023 50.8961 55.9726C50.998 56.0429 51.1202 56.0708 51.2375 56.117C51.393 56.1794 51.5307 56.2896 51.6356 56.4356Z" fill="#CD8809"/>
<path d="M48.192 65.1711C48.192 65.1711 49.3483 65.2097 49.5685 65.7494C49.7888 66.2891 49.7888 70.0016 49.7888 70.0016H44.8276C44.8276 70.0016 44.713 66.0902 44.946 65.7304C45.1789 65.3706 48.192 65.1711 48.192 65.1711Z" fill="#505457"/>
<path d="M46.7328 59.8073C46.9689 59.7249 47.2236 59.7519 47.4426 59.8827C47.5604 59.9542 47.6077 60.0936 47.7058 60.1702C47.7867 60.2336 47.926 60.1601 47.9932 60.2735C48.0719 60.4059 48.1248 60.625 48.187 60.7739C48.267 60.966 48.3405 61.1618 48.4073 61.3611C48.5354 61.7593 48.6363 62.1685 48.709 62.5849C48.8522 63.4151 48.9089 64.2621 48.8781 65.1078C48.8626 65.6145 48.823 66.1301 48.6528 66.6001C48.4706 67.1132 47.6248 66.9656 47.2515 66.9586C46.6014 66.9464 45.9516 66.908 45.3022 66.8433C45.1602 65.1967 45.1888 63.5365 45.3876 61.8976C45.4322 61.5334 45.4872 61.1622 45.6414 60.8398C45.8501 60.4059 46.2758 59.9504 46.7328 59.8073Z" fill="#473F47"/>
<path d="M64.2628 69.75C64.4991 69.6679 64.7539 69.695 64.9731 69.8254C65.0904 69.8976 65.1383 70.037 65.2358 70.113C65.3173 70.1763 65.456 70.1029 65.5238 70.2162C65.6019 70.3486 65.6554 70.5678 65.7176 70.7166C65.7974 70.9067 65.8696 71.1049 65.9345 71.3038C66.0639 71.7028 66.1659 72.1128 66.2396 72.5301C66.3825 73.3605 66.4392 74.2074 66.4086 75.0531C66.3932 75.5598 66.3536 76.0754 66.1834 76.5454C66.0006 77.0591 65.1548 76.9109 64.7821 76.9039C64.1312 76.8925 63.4815 76.8541 62.8328 76.7886C62.6907 75.142 62.7194 73.4817 62.9182 71.8429C62.9628 71.4787 63.0178 71.1075 63.1714 70.7851C63.3807 70.3486 63.8058 69.8932 64.2628 69.75Z" fill="#473F47"/>
<path d="M61.0625 71.2495C61.0625 71.2495 62.2189 71.2881 62.4391 71.8278C62.6594 72.3674 62.6594 75.9349 62.6594 75.9349H57.6981C57.6981 75.9349 57.5842 72.1679 57.8171 71.8088C58.05 71.4496 61.0625 71.2495 61.0625 71.2495Z" fill="#505457"/>
<path d="M58.4073 73.085C58.2609 72.4668 58.0026 71.7459 57.996 71.1024C57.9905 70.5386 57.6777 70.1713 57.5087 69.6576C57.3765 69.2547 57.3815 68.8119 57.3881 68.3812C57.3947 67.9505 57.4057 67.4849 57.5902 67.1017C57.7036 66.8654 57.8749 66.6748 58.0456 66.4904C58.2526 66.2675 58.4663 66.047 58.724 65.9077C58.9816 65.7683 59.2933 65.7322 59.5449 65.883C59.631 65.9405 59.7139 66.004 59.7933 66.073C60.1099 66.322 60.5945 66.4398 60.8131 66.8173C61.0592 67.2417 61.2046 67.8137 61.3235 68.3008C61.5707 69.3142 61.6495 70.3714 61.6181 71.4185C61.6027 71.9252 61.563 72.4414 61.3929 72.9114C61.3696 72.9949 61.3256 73.0687 61.2662 73.1236C61.1955 73.1678 61.1153 73.1878 61.035 73.1813C60.1582 73.203 59.2811 73.1709 58.4073 73.085Z" fill="#473F47"/>
<path d="M60.4089 84.2054C60.4089 84.2054 60.1925 75.8506 60.0234 75.5662C59.8544 75.2818 58.447 74.6952 56.7004 74.8371C54.9537 74.979 54.4284 75.5662 54.4284 75.5662L53.9802 84.2054H60.4089Z" fill="#665966"/>
<path d="M62.2194 74.3723C62.2745 74.3811 62.3295 74.3723 62.3885 74.3818C62.4546 74.3921 62.517 74.4232 62.5688 74.4717C62.6206 74.5202 62.6597 74.5842 62.6819 74.6567C62.6925 74.7083 62.7074 74.7586 62.7265 74.8068C62.7572 74.8524 62.7913 74.8948 62.8284 74.9335C62.8647 74.9843 62.8872 75.0463 62.8932 75.1117C62.8991 75.1771 62.8883 75.2431 62.862 75.3015C62.9264 75.3431 62.9807 75.4027 63.0199 75.4747C63.059 75.5468 63.0818 75.629 63.0861 75.7139C63.0861 75.7772 63.0801 75.8463 63.0861 75.9115C63.1026 76.1174 63.248 76.2738 63.324 76.4607C63.389 76.6387 63.3927 76.8385 63.3343 77.0196C63.2759 77.2007 63.1598 77.3494 63.0096 77.4355C63.1099 77.5507 63.1678 77.7061 63.171 77.8691C63.1743 78.0322 63.1228 78.1904 63.0272 78.3109C63.1803 78.4541 63.3389 78.6061 63.4126 78.8176C63.4864 79.0292 63.4462 79.3111 63.2706 79.4143C63.3297 79.4876 63.3687 79.5794 63.3826 79.6781C63.3965 79.7769 63.3847 79.8781 63.3487 79.9692C63.3127 80.0602 63.254 80.1369 63.1801 80.1897C63.1063 80.2424 63.0205 80.2689 62.9336 80.2656C62.9602 80.37 62.9632 80.4804 62.9424 80.5865C62.9215 80.6926 62.8776 80.7908 62.8146 80.8719C62.7516 80.953 62.6717 81.0142 62.5824 81.0499C62.4931 81.0856 62.3973 81.0945 62.3042 81.0758C62.3217 81.3563 62.3032 81.6383 62.2491 81.9125C61.8962 82.0055 61.5272 81.9755 61.1892 81.8264C61.0488 81.9404 60.9034 82.057 60.7355 82.0988C60.5675 82.1406 60.3693 82.088 60.2762 81.9227C60.2239 81.8296 60.2008 81.7022 60.111 81.6566C60.0734 81.6408 60.0332 81.6343 59.9932 81.6376H59.3776C59.3325 81.6435 59.2869 81.6319 59.2482 81.6047C59.2192 81.5731 59.1999 81.5315 59.1931 81.4862C59.1473 81.2953 59.1409 81.0947 59.1744 80.9003C59.1249 80.8772 59.0799 80.843 59.042 80.7998C59.0041 80.7565 58.974 80.705 58.9535 80.6483C58.933 80.5915 58.9225 80.5307 58.9227 80.4692C58.9228 80.4078 58.9335 80.347 58.9541 80.2903C58.9846 80.2335 59.0098 80.1732 59.0296 80.1105C59.0516 80.0053 59.0087 79.8989 58.9921 79.7937C58.9694 79.645 58.9978 79.4919 59.0714 79.3668C59.1041 79.3241 59.128 79.2734 59.1414 79.2186C59.1507 79.1458 59.1111 79.0786 59.0797 79.0146C59.0238 78.9 58.9893 78.7732 58.9782 78.6424C58.9671 78.5115 58.9797 78.3795 59.0153 78.2545C59.0411 78.1665 59.0786 78.0772 59.0703 77.9847C59.0611 77.9292 59.0458 77.8754 59.0246 77.8244C58.9828 77.6993 58.9647 77.5654 58.9715 77.4316C58.9782 77.2978 59.0097 77.1672 59.0637 77.0485C59.0987 76.9883 59.1241 76.9213 59.1386 76.8509C59.1422 76.7903 59.136 76.7296 59.1204 76.6716C59.057 76.3485 59.0501 76.0141 59.1001 75.6879C59.1281 75.5048 59.1876 75.3078 59.3319 75.2211C59.3636 75.2082 59.3919 75.1864 59.4145 75.1577C59.4306 75.1212 59.4373 75.0801 59.4338 75.0393C59.4383 74.9662 59.4557 74.895 59.4847 74.8298C59.5137 74.7646 59.5539 74.7069 59.6028 74.6599C59.6516 74.613 59.7082 74.5779 59.7692 74.5566C59.8301 74.5354 59.8941 74.5285 59.9574 74.5363C60.0417 74.1519 60.4822 73.9397 60.7795 74.1398C60.8022 74.0398 60.8509 73.9502 60.9191 73.8829C60.9873 73.8157 61.0717 73.774 61.1611 73.7636C61.3813 73.7427 61.4992 73.9536 61.6605 74.0524C61.8219 74.1512 62.0399 74.3431 62.2194 74.3723Z" fill="#CD8809"/>
<path d="M58.1546 74.537C58.1314 74.5122 58.1014 74.4974 58.0698 74.4952C57.8914 74.4654 57.713 74.5288 57.5357 74.5687C57.1222 74.6619 56.696 74.6264 56.2747 74.6011C56.264 74.5995 56.253 74.6008 56.2428 74.6049C56.2312 74.612 56.2222 74.6237 56.2175 74.6378C56.204 74.6772 56.2004 74.7201 56.2071 74.7618C56.2138 74.8034 56.2306 74.8419 56.2555 74.8731C56.3058 74.9347 56.3683 74.9815 56.4377 75.0094C56.5409 75.0593 56.6483 75.0965 56.7582 75.1204C56.8956 75.1471 57.0346 75.1609 57.1739 75.1616C57.4311 75.1673 57.6976 75.1546 57.9399 75.0455C58.0095 75.0221 58.0686 74.9687 58.105 74.8965C58.148 74.8103 58.224 74.6245 58.1546 74.537Z" fill="white"/>
<path d="M58.7746 70.6395C58.8292 70.7146 58.8756 70.7972 58.9128 70.8853C59.0384 71.1823 59.0681 71.5187 59.072 71.8506C59.0831 72.1364 59.0434 72.4218 58.9552 72.6892C58.8572 72.9629 58.6953 73.17 58.5593 73.4208C58.4431 73.6356 58.3578 73.8712 58.2322 74.079C58.1197 74.2678 57.9739 74.4273 57.8044 74.5473C57.635 74.6673 57.4455 74.7451 57.2483 74.7757C57.0506 74.802 56.8505 74.7724 56.665 74.6896C56.4795 74.6068 56.3144 74.4733 56.1839 74.3007C56.0578 74.1258 55.9741 73.9162 55.8717 73.7217C55.7718 73.5534 55.6799 73.3789 55.5964 73.1991C55.4807 72.9147 55.4482 72.5961 55.4273 72.2832C55.3994 71.9783 55.4051 71.6706 55.4444 71.3673C55.4848 71.0625 55.6061 70.7795 55.7918 70.5571C55.9129 70.4335 56.0466 70.3272 56.1899 70.2404C56.4295 70.0802 56.6734 69.9174 56.9416 69.8376C57.2097 69.7578 57.512 69.7704 57.7449 69.9434C57.8451 70.0175 57.9327 70.1125 58.0346 70.1834C58.1364 70.2544 58.2587 70.281 58.376 70.3278C58.5309 70.3884 58.6686 70.4961 58.7746 70.6395Z" fill="#CD8809"/>
<path d="M53.9241 71.2495C53.9241 71.2495 55.0804 71.2881 55.3007 71.8278C55.5209 72.3674 55.5209 75.9349 55.5209 75.9349H50.5597C50.5597 75.9349 50.4457 72.1679 50.6781 71.8088C50.9104 71.4496 53.9241 71.2495 53.9241 71.2495Z" fill="#505457"/>
<path d="M53.0425 66.035C53.336 66.1762 53.526 66.5031 53.6752 66.8261C54.3205 68.2197 54.527 69.8406 54.4791 71.4191C54.4637 71.9258 54.4241 72.442 54.2545 72.912C54.2312 72.9955 54.1872 73.0693 54.1278 73.1242C54.0571 73.1683 53.9768 73.1883 53.8966 73.1819C53.0198 73.2034 52.1427 73.1711 51.2689 73.085C50.9754 71.8473 50.6792 70.5924 50.6737 69.3098C50.6737 68.6358 50.753 67.9473 51.0195 67.3462C51.286 66.745 51.7579 66.244 52.3306 66.1009C52.7044 66.0071 53.167 66.1218 53.3261 66.5221" fill="#473F47"/>
<path d="M51.9313 83.3187C51.9313 83.3187 51.7155 74.9632 51.5459 74.6788C51.3763 74.3944 49.9694 73.8078 48.2228 73.9497C46.4762 74.0916 45.9514 74.6788 45.9514 74.6788L45.5032 83.3187H51.9313Z" fill="#665966"/>
<path d="M53.7418 73.4849C53.7969 73.4944 53.8553 73.4849 53.9109 73.4944C53.9771 73.5046 54.0397 73.5357 54.0916 73.5842C54.1434 73.6327 54.1827 73.6968 54.2049 73.7693C54.2149 73.821 54.2297 73.8714 54.249 73.9195C54.2798 73.9649 54.3139 74.0073 54.3508 74.0461C54.3872 74.0971 54.4098 74.1591 54.4158 74.2247C54.4217 74.2902 54.4108 74.3563 54.3844 74.4148C54.4488 74.4564 54.5031 74.516 54.5423 74.588C54.5814 74.6601 54.6042 74.7423 54.6085 74.8272C54.6085 74.8905 54.6025 74.9589 54.6085 75.0248C54.625 75.23 54.771 75.3865 54.8464 75.5733C54.9115 75.7514 54.9152 75.9512 54.8568 76.1323C54.7984 76.3133 54.6822 76.462 54.532 76.5482C54.6324 76.6633 54.6904 76.8186 54.6937 76.9817C54.6971 77.1447 54.6457 77.303 54.5502 77.4236C54.7027 77.5667 54.8613 77.7187 54.9356 77.9303C55.0099 78.1419 54.9692 78.4237 54.7935 78.527C54.8527 78.6003 54.8917 78.6921 54.9056 78.7908C54.9195 78.8895 54.9077 78.9908 54.8717 79.0818C54.8356 79.1729 54.777 79.2496 54.7031 79.3023C54.6292 79.3551 54.5435 79.3815 54.4566 79.3783C54.4835 79.4827 54.4867 79.5932 54.466 79.6995C54.4453 79.8057 54.4013 79.9041 54.3383 79.9853C54.2752 80.0665 54.1951 80.1278 54.1057 80.1633C54.0162 80.1989 53.9204 80.2075 53.8272 80.1884C53.8447 80.469 53.8262 80.7509 53.7721 81.0252C53.419 81.1181 53.0498 81.0881 52.7116 80.9391C52.5712 81.0531 52.4258 81.1702 52.2579 81.2121C52.0899 81.2539 51.8922 81.2013 51.7986 81.0353C51.7436 80.9429 51.7232 80.8149 51.6334 80.7699C51.5958 80.7538 51.5557 80.7471 51.5156 80.7503H50.9006C50.8554 80.756 50.8098 80.7442 50.7712 80.7167C50.7424 80.6852 50.7231 80.6439 50.7161 80.5989C50.6705 80.4077 50.6642 80.2068 50.6979 80.0124C50.6485 79.9893 50.6035 79.9552 50.5656 79.912C50.5276 79.8688 50.4976 79.8173 50.4771 79.7606C50.4566 79.7039 50.4461 79.6431 50.4462 79.5817C50.4463 79.5204 50.457 79.4596 50.4777 79.403C50.508 79.3459 50.5332 79.2854 50.5531 79.2225C50.5751 79.1173 50.5322 79.0109 50.5157 78.9058C50.4943 78.7586 50.5229 78.6076 50.5955 78.4839C50.6283 78.4413 50.6522 78.3906 50.6654 78.3357C50.6748 78.2635 50.6351 78.1957 50.6038 78.1324C50.5479 78.0177 50.5133 77.8909 50.5022 77.7601C50.4911 77.6292 50.5038 77.4972 50.5393 77.3722C50.5652 77.2836 50.6032 77.1949 50.5944 77.1018C50.5854 77.0463 50.57 76.9924 50.5487 76.9415C50.5069 76.8164 50.4888 76.6824 50.4956 76.5486C50.5025 76.4148 50.5341 76.2842 50.5883 76.1656C50.6229 76.1051 50.6483 76.0383 50.6632 75.968C50.6662 75.9074 50.66 75.8468 50.6451 75.7887C50.5812 75.4659 50.5741 75.1316 50.6241 74.8056C50.6522 74.6219 50.7117 74.4224 50.856 74.3382C50.8877 74.3251 50.9163 74.3034 50.9391 74.2748C50.9551 74.2382 50.9616 74.1971 50.9578 74.1564C50.9625 74.0834 50.9799 74.0122 51.0089 73.947C51.038 73.8819 51.0781 73.8242 51.127 73.7772C51.1758 73.7303 51.2324 73.6952 51.2933 73.6739C51.3542 73.6526 51.4182 73.6457 51.4815 73.6534C51.5657 73.2696 52.0068 73.0567 52.3036 73.2575C52.3257 73.1568 52.3741 73.0664 52.4424 72.9984C52.5106 72.9304 52.5954 72.8882 52.6852 72.8775C52.9082 72.8566 53.0238 73.0675 53.1846 73.167C53.3454 73.2664 53.5623 73.4558 53.7418 73.4849Z" fill="#CD8809"/>
<path d="M49.677 73.6496C49.6539 73.625 49.6241 73.6105 49.5928 73.6083C49.4144 73.5779 49.2354 73.6413 49.0581 73.6813C48.6446 73.7751 48.2184 73.739 47.7971 73.7136C47.7864 73.712 47.7755 73.7133 47.7652 73.7174C47.7538 73.7248 47.7449 73.7364 47.7399 73.7504C47.7265 73.7898 47.723 73.8327 47.7297 73.8742C47.7364 73.9158 47.7531 73.9544 47.7779 73.9856C47.8284 74.0471 47.8909 74.094 47.9601 74.1226C48.0633 74.1722 48.1707 74.2092 48.2806 74.2329C48.418 74.2596 48.557 74.2734 48.6963 74.2741C48.9535 74.2798 49.22 74.2671 49.4628 74.1587C49.5326 74.1353 49.5918 74.0817 49.628 74.0091C49.6704 73.9235 49.7464 73.7377 49.677 73.6496Z" fill="white"/>
<path d="M50.2971 69.752C50.3517 69.8271 50.3981 69.9096 50.4353 69.9978C50.5608 70.2948 50.5905 70.6312 50.5944 70.9631C50.6058 71.2489 50.5661 71.5343 50.4777 71.8018C50.3796 72.076 50.2178 72.2832 50.0818 72.534C49.9656 72.7481 49.8802 72.9844 49.7547 73.1915C49.6423 73.3805 49.4966 73.5402 49.3271 73.6602C49.1576 73.7802 48.968 73.8579 48.7707 73.8882C48.5732 73.9145 48.373 73.885 48.1877 73.8022C48.0023 73.7194 47.8373 73.5859 47.7069 73.4132C47.5802 73.2384 47.4965 73.0293 47.3941 72.8349C47.2945 72.6661 47.2026 72.4914 47.1188 72.3117C47.0032 72.0273 46.9707 71.7086 46.9503 71.3957C46.9219 71.0911 46.9274 70.7835 46.9668 70.4804C47.0072 70.1754 47.1285 69.8922 47.3143 69.6697C47.4355 69.5458 47.5693 69.4395 47.7129 69.3529C47.9525 69.1921 48.1958 69.0293 48.4645 68.9495C48.7332 68.8696 49.0344 68.8823 49.2679 69.0552C49.3676 69.1294 49.4551 69.2244 49.557 69.2953C49.6589 69.3662 49.7811 69.3929 49.8984 69.4397C50.0534 69.5005 50.1911 69.6084 50.2971 69.752Z" fill="#CD8809"/>
<path d="M46.7328 74.0112C46.9689 73.9291 47.2236 73.9561 47.4426 74.0866C47.5604 74.1588 47.6078 74.2981 47.7058 74.3742C47.7867 74.4375 47.926 74.364 47.9932 74.4774C48.072 74.6098 48.1248 74.829 48.187 74.9778C48.2671 75.1699 48.3405 75.3657 48.4073 75.565C48.5365 75.964 48.6383 76.374 48.7118 76.7913C48.855 77.6216 48.9117 78.4685 48.8808 79.3142C48.8654 79.821 48.8258 80.3366 48.6556 80.8066C48.4734 81.3203 47.6276 81.172 47.2543 81.1651C46.6042 81.1537 45.9544 81.1153 45.305 81.0498C45.163 79.4031 45.1916 77.7429 45.3904 76.104C45.435 75.7398 45.49 75.3686 45.6442 75.0462C45.8501 74.6098 46.2758 74.1544 46.7328 74.0112Z" fill="#473F47"/>
<path d="M47.8974 65.1744C47.8974 65.1744 49.0537 65.213 49.274 65.7527C49.4942 66.2924 49.4942 70.0049 49.4942 70.0049H44.533C44.533 70.0049 44.419 66.0935 44.652 65.7337C44.8849 65.3739 47.8974 65.1744 47.8974 65.1744Z" fill="#505457"/>
<path d="M46.4388 59.8104C46.675 59.728 46.93 59.755 47.1491 59.8858C47.2664 59.9574 47.3143 60.0967 47.4118 60.1734C47.4933 60.2367 47.632 60.1632 47.6997 60.2766C47.7779 60.409 47.8313 60.6282 47.8936 60.777C47.9736 60.9688 48.0459 61.1643 48.1105 61.3636C48.2398 61.7628 48.3418 62.173 48.4156 62.5905C48.5584 63.4206 48.6152 64.2673 48.5846 65.1128C48.5692 65.6195 48.5268 66.1358 48.3594 66.6058C48.1766 67.1189 47.3308 66.9713 46.958 66.9643C46.3072 66.9525 45.6574 66.9141 45.0088 66.849C44.8664 65.2024 44.8951 63.5421 45.0941 61.9033C45.1382 61.539 45.1933 61.1679 45.3474 60.8454C45.5567 60.409 45.9818 59.9536 46.4388 59.8104Z" fill="#473F47"/>
<path d="M43.2384 61.3098C43.2384 61.3098 44.3948 61.3478 44.615 61.8881C44.8353 62.4284 44.8353 65.9945 44.8353 65.9945H39.8741C39.8741 65.9945 39.7601 62.2282 39.993 61.8684C40.2259 61.5086 43.2384 61.3098 43.2384 61.3098Z" fill="#505457"/>
<path d="M39.9886 59.3699C39.9853 58.6966 40.0673 58.008 40.3339 57.4063C40.8669 56.2079 42.4455 55.3369 43.087 56.9331C43.3425 57.5704 43.2985 58.307 43.2401 59.0057C43.1817 59.7044 43.1184 60.4341 43.3409 61.0877C43.4763 61.4855 43.7136 61.8403 43.7814 62.2602C43.9102 63.0558 43.3959 63.7988 42.8453 64.2973C42.5045 64.6045 42.0997 64.8794 41.668 64.8401C41.1934 64.7977 40.7925 64.367 40.6147 63.859C40.3999 63.2439 40.4853 62.5668 40.3135 61.9334C40.0974 61.1016 39.988 60.238 39.9886 59.3699Z" fill="#684712"/>
<path d="M28.9082 62.2466C28.9082 62.2466 30.0646 62.2853 30.2848 62.825C30.5051 63.3646 30.5023 66.9321 30.5023 66.9321H25.5416C25.5416 66.9321 25.4277 63.1657 25.6606 62.806C25.8935 62.4462 28.9082 62.2466 28.9082 62.2466Z" fill="#505457"/>
<path d="M28.0266 57.0329C28.3201 57.1735 28.5101 57.501 28.6593 57.8234C29.3046 59.2169 29.5111 60.8378 29.4632 62.417C29.4478 62.9237 29.4054 63.4393 29.238 63.9093C29.2149 63.9927 29.1711 64.0665 29.1119 64.1215C29.0412 64.1658 28.961 64.1858 28.8807 64.1791C28.0039 64.2012 27.1268 64.1691 26.253 64.0829C25.959 62.8452 25.6633 61.5903 25.6578 60.307C25.655 59.6337 25.7371 58.9452 26.0036 58.3434C26.2701 57.7417 26.742 57.2406 27.3147 57.0975C27.6885 57.0037 28.1511 57.1184 28.3102 57.5187" fill="#473F47"/>
<path d="M42.5849 74.2658C42.5849 74.2658 42.3685 65.911 42.1995 65.6259C42.0304 65.3409 40.6235 64.755 38.8769 64.8975C37.1303 65.04 36.6039 65.6253 36.6039 65.6253L36.1557 74.2652L42.5849 74.2658Z" fill="#665966"/>
<path d="M41.2573 69.8548C41.2573 69.8548 40.3763 70.314 40.2783 70.6611C40.1803 71.0082 39.9319 74.2659 39.9319 74.2659H46.7895C46.7895 74.2659 46.4107 70.5161 46.1354 70.1981C45.8601 69.8801 42.7143 69.4544 41.2573 69.8548Z" fill="#473F47"/>
<path d="M44.3954 64.4328C44.4504 64.4416 44.5082 64.4328 44.5644 64.4416C44.6307 64.452 44.6931 64.4831 44.7449 64.5318C44.7967 64.5804 44.8358 64.6446 44.8579 64.7172C44.8684 64.7686 44.8834 64.8187 44.9025 64.8667C44.9329 64.9135 44.967 64.957 45.0044 64.9965C45.0406 65.0475 45.0631 65.1096 45.0691 65.1751C45.075 65.2406 45.0642 65.3067 45.0379 65.3652C45.1024 65.4068 45.1566 65.4664 45.1958 65.5384C45.235 65.6105 45.2578 65.6927 45.2621 65.7775C45.2648 65.8409 45.2554 65.9093 45.2621 65.9752C45.2786 66.1804 45.4239 66.3368 45.4999 66.5237C45.5651 66.7018 45.5689 66.9018 45.5105 67.083C45.4521 67.2642 45.3359 67.413 45.1855 67.4992C45.2857 67.6144 45.3434 67.7696 45.3467 67.9325C45.35 68.0954 45.2986 68.2535 45.2031 68.3739C45.3562 68.5171 45.5148 68.6691 45.5886 68.8807C45.6624 69.0922 45.6222 69.3741 45.4465 69.478C45.5055 69.5513 45.5443 69.643 45.5581 69.7417C45.5719 69.8403 45.5601 69.9414 45.5241 70.0323C45.4881 70.1232 45.4295 70.1998 45.3557 70.2526C45.282 70.3053 45.1963 70.3318 45.1095 70.3287C45.1354 70.4325 45.1381 70.5422 45.1172 70.6476C45.0963 70.7529 45.0526 70.8504 44.9901 70.9311C44.9276 71.0117 44.8483 71.0728 44.7597 71.1087C44.6711 71.1446 44.5761 71.1541 44.4835 71.1363C44.501 71.4166 44.4824 71.6983 44.4284 71.9724C44.0755 72.0653 43.7065 72.0353 43.3684 71.8863C43.228 72.0009 43.0826 72.1175 42.9147 72.1593C42.7468 72.2011 42.5485 72.1485 42.4549 71.9825C42.4032 71.8901 42.38 71.7627 42.2897 71.7171C42.2521 71.7013 42.2119 71.6948 42.1719 71.6981H41.5563C41.5112 71.7037 41.4657 71.6921 41.4269 71.6652C41.3983 71.6333 41.379 71.5919 41.3718 71.5467C41.3265 71.3555 41.3202 71.1547 41.3536 70.9602C41.3042 70.9371 41.2593 70.9029 41.2214 70.8597C41.1836 70.8165 41.1535 70.765 41.133 70.7084C41.1125 70.6517 41.102 70.5909 41.1021 70.5296C41.1022 70.4682 41.1128 70.4075 41.1334 70.3508C41.1637 70.2939 41.189 70.2337 41.2088 70.171C41.2309 70.0658 41.1879 69.9588 41.1714 69.8542C41.1487 69.7055 41.1772 69.5524 41.2507 69.4273C41.2832 69.3847 41.3071 69.3343 41.3206 69.2797C41.33 69.2069 41.2903 69.1397 41.2584 69.0758C41.2026 68.961 41.1681 68.8343 41.1571 68.7034C41.1462 68.5726 41.1589 68.4405 41.1945 68.3157C41.2204 68.227 41.2578 68.1383 41.2496 68.0458C41.2404 67.9902 41.225 67.9361 41.2039 67.8849C41.1621 67.7599 41.144 67.6261 41.1507 67.4924C41.1575 67.3587 41.1889 67.2282 41.243 67.1096C41.278 67.0494 41.3033 66.9825 41.3179 66.912C41.3212 66.8515 41.315 66.7908 41.2997 66.7327C41.2363 66.4096 41.2292 66.0753 41.2788 65.749C41.3068 65.566 41.3669 65.369 41.5111 65.2822C41.5427 65.2691 41.5711 65.2473 41.5937 65.2189C41.61 65.1823 41.6167 65.1412 41.613 65.1004C41.6176 65.0274 41.6349 64.9562 41.664 64.891C41.693 64.8259 41.7332 64.7681 41.782 64.7213C41.8309 64.6744 41.8875 64.6393 41.9484 64.6181C42.0094 64.597 42.0734 64.5902 42.1367 64.5981C42.2203 64.2136 42.6614 64.0008 42.9587 64.2016C42.9814 64.1016 43.0301 64.012 43.0983 63.9447C43.1665 63.8775 43.251 63.8358 43.3403 63.8253C43.5633 63.8044 43.6784 64.0154 43.8398 64.1142C44.0011 64.213 44.2158 64.4036 44.3954 64.4328Z" fill="#CD8809"/>
<path d="M40.3305 64.5967C40.3072 64.5721 40.2773 64.5576 40.2457 64.5555C40.0673 64.525 39.8884 64.5891 39.7116 64.629C39.2981 64.7222 38.8719 64.6861 38.4507 64.6607C38.4399 64.6593 38.4289 64.6608 38.4187 64.6652C38.4072 64.6723 38.3982 64.684 38.3934 64.6981C38.3799 64.7374 38.3763 64.7802 38.383 64.8217C38.3897 64.8633 38.4065 64.9017 38.4314 64.9327C38.4817 64.9946 38.5442 65.0416 38.6137 65.0697C38.7168 65.1193 38.8242 65.1563 38.9341 65.18C39.0715 65.2071 39.2105 65.2209 39.3499 65.2212C39.607 65.2276 39.8735 65.2143 40.1158 65.1058C40.1856 65.0823 40.2447 65.0287 40.281 64.9562C40.3234 64.87 40.3999 64.6848 40.3305 64.5967Z" fill="white"/>
<path d="M40.9506 60.6998C41.0053 60.7748 41.0517 60.8573 41.0888 60.9455C41.2143 61.242 41.2441 61.5789 41.2479 61.9109C41.2591 62.1964 41.2193 62.4816 41.1312 62.7489C41.0332 63.0232 40.8713 63.2303 40.7353 63.4811C40.6191 63.6952 40.5338 63.9315 40.4082 64.1386C40.2958 64.3276 40.1501 64.4872 39.9806 64.6073C39.8111 64.7273 39.6215 64.805 39.4242 64.8354C39.2265 64.8614 39.0262 64.8316 38.8407 64.7485C38.6552 64.6654 38.4902 64.5315 38.3598 64.3584C38.2338 64.1836 38.1501 63.9739 38.0476 63.7795C37.9476 63.611 37.8557 63.4363 37.7723 63.2562C37.6567 62.9718 37.6242 62.6532 37.6033 62.3403C37.5753 62.0356 37.5811 61.7281 37.6203 61.425C37.6607 61.1202 37.7821 60.8372 37.9678 60.6149C38.0887 60.4909 38.2224 60.3845 38.3659 60.2982C38.6054 60.1373 38.8494 59.9751 39.1175 59.8953C39.3857 59.8155 39.688 59.8275 39.9209 60.0005C40.0211 60.0746 40.1087 60.1702 40.2105 60.2405C40.3124 60.3108 40.4346 60.3387 40.5519 60.3849C40.7071 60.4464 40.8449 60.5552 40.9506 60.6998Z" fill="#473F47"/>
<path d="M35.4464 74.2658C35.4464 74.2658 35.23 65.911 35.061 65.6259C34.8919 65.3409 33.4845 64.755 31.7385 64.8975C29.9924 65.04 29.4654 65.6253 29.4654 65.6253L29.0172 74.2652L35.4464 74.2658Z" fill="#665966"/>
<path d="M34.1188 69.8548C34.1188 69.8548 33.24 70.3127 33.1404 70.6611C33.0407 71.0095 32.794 74.2659 32.794 74.2659H39.6511C39.6511 74.2659 39.2739 70.5161 38.9975 70.1981C38.721 69.8801 35.5753 69.4544 34.1188 69.8548Z" fill="#473F47"/>
<path d="M37.2569 64.4328C37.312 64.4416 37.3698 64.4328 37.426 64.4416C37.4922 64.452 37.5547 64.4831 37.6065 64.5318C37.6583 64.5804 37.6974 64.6446 37.7195 64.7172C37.7306 64.7682 37.7461 64.8179 37.7657 64.8654C37.7964 64.9121 37.8307 64.9555 37.8681 64.9953C37.9044 65.0462 37.9269 65.1083 37.9328 65.1738C37.9388 65.2393 37.928 65.3054 37.9017 65.3639C37.9661 65.4055 38.0204 65.4651 38.0596 65.5371C38.0987 65.6092 38.1215 65.6914 38.1258 65.7763C38.1258 65.8396 38.1192 65.908 38.1258 65.9739C38.1418 66.1791 38.2877 66.3356 38.3631 66.5224C38.4284 66.7005 38.4323 66.9004 38.374 67.0816C38.3157 67.2628 38.1996 67.4117 38.0493 67.4979C38.1495 67.6131 38.2072 67.7683 38.2105 67.9312C38.2138 68.0941 38.1624 68.2522 38.0669 68.3727C38.22 68.5158 38.3786 68.6678 38.4524 68.8794C38.5261 69.091 38.4859 69.3728 38.3108 69.4767C38.3698 69.55 38.4087 69.6418 38.4225 69.7404C38.4362 69.839 38.4244 69.9401 38.3884 70.031C38.3524 70.1219 38.2938 70.1986 38.2201 70.2513C38.1463 70.304 38.0606 70.3305 37.9739 70.3274C38.0004 70.432 38.0032 70.5426 37.9822 70.6488C37.9611 70.755 37.9169 70.8533 37.8536 70.9343C37.7902 71.0153 37.71 71.0764 37.6204 71.1117C37.5309 71.1471 37.4349 71.1555 37.3417 71.1363C37.3595 71.4166 37.341 71.6984 37.2867 71.9724C36.9337 72.0653 36.5648 72.0353 36.2267 71.8863C36.0863 72.0009 35.9409 72.1175 35.773 72.1593C35.605 72.2011 35.4068 72.1485 35.3132 71.9825C35.2609 71.8901 35.2383 71.7627 35.1507 71.7171C35.1129 71.7013 35.0725 71.6948 35.0324 71.6981H34.4173C34.3722 71.7038 34.3267 71.6922 34.2879 71.6652C34.2591 71.6334 34.2398 71.5919 34.2328 71.5467C34.1872 71.3555 34.181 71.1547 34.2147 70.9602C34.1652 70.9372 34.1201 70.9031 34.0822 70.8599C34.0442 70.8167 34.0141 70.7653 33.9936 70.7086C33.9731 70.6519 33.9626 70.591 33.9628 70.5296C33.9629 70.4682 33.9737 70.4074 33.9944 70.3508C34.0248 70.294 34.0499 70.2338 34.0693 70.171C34.0913 70.0658 34.0489 69.9588 34.0319 69.8542C34.0092 69.7055 34.0376 69.5524 34.1111 69.4273C34.1439 69.3848 34.168 69.3344 34.1816 69.2797C34.1904 69.2069 34.1508 69.1397 34.1194 69.0758C34.0636 68.961 34.0292 68.8343 34.0182 68.7034C34.0072 68.5726 34.0199 68.4405 34.0555 68.3157C34.0809 68.227 34.1189 68.1383 34.1106 68.0458C34.1018 67.9901 34.0866 67.936 34.0654 67.8849C34.0237 67.7599 34.0056 67.6261 34.0123 67.4924C34.019 67.3587 34.0505 67.2282 34.1045 67.1096C34.1395 67.0494 34.1649 66.9825 34.1794 66.912C34.1827 66.8515 34.1766 66.7908 34.1613 66.7327C34.0979 66.4096 34.0908 66.0753 34.1403 65.749C34.1684 65.566 34.2279 65.369 34.3727 65.2822C34.4043 65.2691 34.4326 65.2473 34.4553 65.2189C34.4716 65.1824 34.4781 65.1412 34.474 65.1004C34.4787 65.0274 34.4961 64.9561 34.5252 64.891C34.5543 64.8258 34.5945 64.7681 34.6434 64.7212C34.6923 64.6743 34.749 64.6393 34.8099 64.6181C34.8709 64.597 34.9349 64.5902 34.9982 64.5981C35.0819 64.2136 35.523 64.0008 35.8198 64.2016C35.8424 64.1016 35.8911 64.012 35.9593 63.9447C36.0275 63.8775 36.112 63.8358 36.2014 63.8253C36.4249 63.8044 36.54 64.0154 36.7008 64.1142C36.8616 64.213 37.0769 64.4036 37.2569 64.4328Z" fill="#684712"/>
<path d="M33.1921 64.5967C33.1688 64.5721 33.1389 64.5576 33.1073 64.5555C32.9289 64.525 32.75 64.5891 32.5732 64.629C32.1591 64.7222 31.733 64.6861 31.3123 64.6607C31.3015 64.6593 31.2905 64.6608 31.2803 64.6652C31.2687 64.6723 31.2598 64.684 31.255 64.6981C31.2415 64.7373 31.2379 64.7801 31.2445 64.8216C31.2511 64.8631 31.2677 64.9016 31.2924 64.9327C31.343 64.9943 31.4054 65.0413 31.4747 65.0697C31.5781 65.1193 31.6857 65.1563 31.7957 65.18C31.9329 65.2071 32.0718 65.2209 32.2109 65.2212C32.4686 65.2276 32.7346 65.2143 32.9774 65.1058C33.0473 65.0826 33.1065 65.029 33.1426 64.9562C33.185 64.87 33.261 64.6848 33.1921 64.5967Z" fill="white"/>
<path d="M33.8116 60.6997C33.8665 60.7746 33.913 60.8571 33.9498 60.9455C34.0759 61.2419 34.1056 61.5789 34.1095 61.9108C34.1207 62.1964 34.0808 62.4817 33.9922 62.7488C33.8947 63.0231 33.7329 63.2302 33.5963 63.481C33.4801 63.6951 33.3953 63.9314 33.2698 64.1385C33.1574 64.3275 33.0117 64.4872 32.8421 64.6072C32.6726 64.7272 32.4831 64.8049 32.2858 64.8353C32.088 64.8615 31.8877 64.8317 31.7022 64.7486C31.5167 64.6654 31.3517 64.5315 31.2214 64.3583C31.0948 64.1835 31.0116 63.9738 30.9092 63.7794C30.8092 63.6109 30.7173 63.4362 30.6339 63.2562C30.5183 62.9718 30.4858 62.6532 30.4648 62.3403C30.4364 62.0356 30.442 61.728 30.4814 61.425C30.5216 61.1201 30.6425 60.837 30.8277 60.6142C30.9489 60.4903 31.0828 60.384 31.2264 60.2975C31.4659 60.1366 31.7093 59.9744 31.978 59.8946C32.2467 59.8148 32.5479 59.8268 32.7814 59.9998C32.881 60.0739 32.9691 60.1695 33.071 60.2398C33.1729 60.3101 33.2951 60.338 33.4124 60.3842C33.5679 60.4457 33.7059 60.5548 33.8116 60.6997Z" fill="#AF7210"/>
<path d="M30.3679 69.4352C30.3679 69.4352 31.5243 69.4738 31.7445 70.0135C31.9648 70.5532 31.962 74.2657 31.962 74.2657H27.0008C27.0008 74.2657 26.8868 70.3543 27.1198 69.9945C27.3527 69.6347 30.3679 69.4352 30.3679 69.4352Z" fill="#505457"/>
<path d="M28.9088 64.0715C29.1442 63.9898 29.398 64.0168 29.6163 64.1469C29.7342 64.2184 29.7815 64.3578 29.8795 64.4344C29.9605 64.4978 30.0998 64.4243 30.167 64.5377C30.2457 64.6701 30.2986 64.8892 30.3608 65.0381C30.4408 65.2298 30.5133 65.4253 30.5783 65.6246C30.7074 66.0239 30.8092 66.4341 30.8828 66.8516C31.0257 67.6817 31.0824 68.5284 31.0518 69.3739C31.0364 69.8806 30.994 70.3968 30.8266 70.8668C30.6444 71.3799 29.798 71.2323 29.4253 71.2254C28.7744 71.2135 28.1247 71.1751 27.476 71.1101C27.3339 69.4634 27.3626 67.8032 27.5614 66.1643C27.606 65.8001 27.661 65.4289 27.8152 65.1065C28.0261 64.6701 28.4517 64.2146 28.9088 64.0715Z" fill="#473F47"/>
<path d="M46.4388 74.0143C46.6751 73.9322 46.9299 73.9592 47.1491 74.0897C47.2664 74.1619 47.3143 74.3012 47.4118 74.3773C47.4933 74.4406 47.632 74.3671 47.6997 74.4805C47.7779 74.6129 47.8313 74.832 47.8936 74.9809C47.9736 75.1726 48.0459 75.3683 48.1105 75.5681C48.2399 75.9671 48.3419 76.3771 48.4156 76.7944C48.5585 77.6247 48.6152 78.4716 48.5846 79.3173C48.5692 79.8241 48.5268 80.3397 48.3594 80.8097C48.1766 81.3234 47.3308 81.1751 46.958 81.1682C46.3072 81.1568 45.6574 81.1183 45.0088 81.0529C44.8664 79.4063 44.8951 77.746 45.0941 76.1071C45.1382 75.7429 45.1933 75.3717 45.3474 75.0493C45.5567 74.6129 45.9818 74.1575 46.4388 74.0143Z" fill="#473F47"/>
<path d="M42.3574 70.2994C42.6504 70.4407 42.8403 70.7675 42.9901 71.0906C43.6349 72.4841 43.8419 74.105 43.7935 75.6835C43.7786 76.1903 43.7384 76.7065 43.5688 77.1765C43.5455 77.26 43.5015 77.3337 43.4422 77.3887C43.3714 77.4328 43.2912 77.4528 43.2109 77.4463C42.3342 77.4679 41.457 77.4355 40.5833 77.3494C40.2898 76.1117 39.9941 74.8569 39.9886 73.5742C39.9853 72.9003 40.0673 72.2117 40.3339 71.6106C40.6004 71.0095 41.0728 70.5085 41.6449 70.3653C42.0188 70.2716 42.4813 70.3862 42.6405 70.7865" fill="#473F47"/>
<path d="M40.9506 74.9036C41.0052 74.9788 41.0516 75.0613 41.0888 75.1494C41.2143 75.4465 41.2441 75.7828 41.2479 76.1147C41.2591 76.4003 41.2194 76.6855 41.1312 76.9527C41.0332 77.227 40.8713 77.4341 40.7353 77.685C40.6191 77.8997 40.5337 78.1353 40.4082 78.3425C40.2958 78.5314 40.1501 78.6911 39.9806 78.8111C39.8111 78.9312 39.6215 79.0089 39.4242 79.0392C39.2266 79.0657 39.0264 79.0364 38.8409 78.9537C38.6555 78.871 38.4903 78.7375 38.3598 78.5648C38.2337 78.39 38.1501 78.1803 38.0476 77.9858C37.9476 77.8174 37.8557 77.6427 37.7723 77.4626C37.6567 77.1789 37.6242 76.8603 37.6033 76.5473C37.5753 76.2424 37.5811 75.9347 37.6203 75.6314C37.6607 75.3266 37.7821 75.0436 37.9678 74.8213C38.0887 74.6964 38.2224 74.5889 38.3659 74.5014C38.6054 74.3411 38.8494 74.1783 39.1175 74.0985C39.3857 74.0187 39.688 74.0314 39.9209 74.2043C40.0211 74.2784 40.1087 74.3734 40.2105 74.4444C40.3124 74.5153 40.4346 74.5419 40.5519 74.5888C40.7073 74.65 40.8451 74.7589 40.9506 74.9036Z" fill="#CD8809"/>
<path d="M35.2185 70.2994C35.512 70.4407 35.7019 70.7675 35.8512 71.0906C36.4965 72.4841 36.703 74.105 36.6551 75.6835C36.6397 76.1903 36.5973 76.7065 36.4304 77.1765C36.4072 77.26 36.3631 77.3337 36.3038 77.3887C36.233 77.4327 36.1528 77.4527 36.0725 77.4463C35.1958 77.4679 34.3186 77.4356 33.4449 77.3494C33.1514 76.1117 32.8552 74.8569 32.8497 73.5742C32.8469 72.9003 32.929 72.2117 33.1955 71.6106C33.462 71.0095 33.9339 70.5085 34.5065 70.3653C34.8804 70.2716 35.3429 70.3862 35.5021 70.7865" fill="#473F47"/>
<path d="M32.473 74.0163C32.5277 74.0913 32.5741 74.1739 32.6112 74.262C32.7368 74.5591 32.7665 74.8954 32.7704 75.2274C32.7817 75.5131 32.742 75.7986 32.6536 76.066C32.5556 76.3403 32.3937 76.5468 32.2577 76.7982C32.1415 77.0123 32.0562 77.248 31.9306 77.4557C31.8182 77.6447 31.6726 77.8044 31.503 77.9244C31.3335 78.0445 31.144 78.1222 30.9467 78.1525C30.7491 78.1788 30.549 78.1492 30.3636 78.0665C30.1782 77.9837 30.0132 77.8501 29.8828 77.6774C29.7562 77.5026 29.6725 77.2936 29.5701 77.0991C29.4705 76.9303 29.3786 76.7557 29.2948 76.5759C29.1791 76.2915 29.1466 75.9729 29.1263 75.66C29.0979 75.3553 29.1034 75.0477 29.1428 74.7447C29.1832 74.4397 29.3045 74.1565 29.4902 73.9339C29.6113 73.8102 29.745 73.7039 29.8883 73.6172C30.1284 73.4563 30.3718 73.2935 30.6405 73.2137C30.9092 73.1339 31.2104 73.1466 31.4433 73.3195C31.5435 73.3936 31.6311 73.4886 31.733 73.5596C31.8348 73.6305 31.9571 73.6571 32.0744 73.704C32.2293 73.7647 32.3671 73.8726 32.473 74.0163Z" fill="#CD8809"/>
<path d="M23.0786 71.4921C23.0786 71.4921 22.8622 63.1373 22.6932 62.8529C22.5241 62.5685 21.1167 61.9813 19.3706 62.1238C17.6246 62.2663 17.0987 62.8529 17.0987 62.8529L16.6505 71.4921H23.0786Z" fill="#665966"/>
<path d="M21.8524 65.5194C21.8524 65.5194 20.9714 65.978 20.8722 66.3251C20.7731 66.6722 20.5259 69.9325 20.5259 69.9325H27.384C27.384 69.9325 27.0069 66.1832 26.7304 65.8646C26.454 65.546 23.3083 65.1185 21.8524 65.5194Z" fill="#473F47"/>
<path d="M24.991 60.0967C25.0461 60.1056 25.1044 60.0967 25.1606 60.1062C25.2268 60.1165 25.2892 60.1476 25.341 60.1961C25.3927 60.2446 25.4319 60.3086 25.4541 60.3811C25.4642 60.4328 25.4789 60.4831 25.4981 60.5312C25.529 60.5766 25.563 60.619 25.6 60.6579C25.6363 60.7087 25.6588 60.7706 25.6649 60.836C25.671 60.9014 25.6603 60.9674 25.6341 61.0259C25.6984 61.0676 25.7526 61.1272 25.7917 61.1993C25.8308 61.2713 25.8534 61.3535 25.8577 61.4383C25.8604 61.5016 25.8516 61.5707 25.8577 61.6365C25.8742 61.8418 26.0201 61.9982 26.0956 62.1851C26.1606 62.3631 26.1643 62.563 26.1059 62.744C26.0475 62.9251 25.9314 63.0738 25.7812 63.1599C25.8816 63.2751 25.9395 63.4303 25.9429 63.5934C25.9463 63.7565 25.8949 63.9148 25.7993 64.0353C25.9519 64.1785 26.111 64.3305 26.1848 64.542C26.2586 64.7536 26.2184 65.0355 26.0427 65.1387C26.1022 65.2119 26.1415 65.3037 26.1556 65.4025C26.1698 65.5013 26.1581 65.6028 26.1222 65.694C26.0862 65.7852 26.0276 65.8622 25.9537 65.9151C25.8797 65.968 25.7938 65.9945 25.7068 65.9913C25.7337 66.0957 25.737 66.2063 25.7163 66.3125C25.6956 66.4187 25.6516 66.5171 25.5885 66.5983C25.5255 66.6795 25.4454 66.7408 25.356 66.7763C25.2665 66.8119 25.1706 66.8205 25.0774 66.8015C25.095 67.082 25.0764 67.3639 25.0224 67.6382C24.6693 67.7311 24.3001 67.7011 23.9619 67.5521C23.822 67.6661 23.6766 67.7826 23.5087 67.8244C23.3407 67.8662 23.1425 67.8137 23.0489 67.6483C22.9966 67.5552 22.9735 67.4279 22.8837 67.3823C22.8461 67.3664 22.8059 67.3599 22.7659 67.3633H22.1508C22.1057 67.3696 22.06 67.358 22.0214 67.3304C21.9925 67.2987 21.9732 67.2572 21.9664 67.2119C21.9207 67.0209 21.9145 66.8203 21.9482 66.626C21.8987 66.603 21.8536 66.5689 21.8157 66.5257C21.7777 66.4825 21.7476 66.4311 21.7271 66.3744C21.7066 66.3177 21.6962 66.2568 21.6963 66.1954C21.6964 66.134 21.7072 66.0732 21.7279 66.0167C21.7583 65.9596 21.7834 65.8991 21.8028 65.8361C21.8248 65.731 21.7819 65.6246 21.7654 65.5194C21.7426 65.3707 21.771 65.2176 21.8447 65.0925C21.8775 65.0499 21.9014 64.9992 21.9146 64.9443C21.924 64.8714 21.8843 64.8043 21.8529 64.7403C21.7971 64.6256 21.7625 64.4989 21.7514 64.368C21.7403 64.2372 21.7529 64.1051 21.7885 63.9802C21.8144 63.8922 21.8524 63.8028 21.8436 63.7104C21.8346 63.6548 21.8192 63.6009 21.7979 63.5501C21.7562 63.4249 21.7382 63.291 21.745 63.1572C21.7519 63.0234 21.7834 62.8928 21.8375 62.7742C21.8704 62.714 21.894 62.6478 21.9074 62.5784C21.9108 62.5179 21.9046 62.4572 21.8893 62.3992C21.8259 62.0763 21.8188 61.7422 21.8683 61.4161C21.8964 61.2324 21.9559 61.036 22.1007 60.9486C22.1322 60.9354 22.1606 60.9137 22.1833 60.8853C22.1993 60.8487 22.2058 60.8076 22.202 60.7668C22.2067 60.6938 22.2241 60.6225 22.2532 60.5573C22.2823 60.4922 22.3225 60.4344 22.3714 60.3875C22.4203 60.3405 22.4769 60.3054 22.5379 60.2842C22.5989 60.263 22.6629 60.2561 22.7262 60.2639C22.8099 59.8794 23.251 59.6672 23.5478 59.8674C23.5704 59.7674 23.6191 59.6778 23.6874 59.6105C23.7556 59.5433 23.84 59.5016 23.9294 59.4911C24.1524 59.4702 24.268 59.6812 24.4288 59.7806C24.5896 59.8801 24.8098 60.0675 24.991 60.0967Z" fill="#CD8809"/>
<path d="M20.8243 61.8248C20.801 61.8002 20.7711 61.7857 20.7395 61.7835C20.5611 61.7531 20.3822 61.8172 20.2054 61.8571C19.7919 61.9503 19.3657 61.9142 18.9445 61.8888C18.9337 61.8874 18.9227 61.8889 18.9125 61.8932C18.9009 61.9004 18.8919 61.9121 18.8872 61.9262C18.8737 61.9655 18.87 62.0083 18.8768 62.0498C18.8835 62.0914 18.9003 62.1298 18.9252 62.1608C18.9755 62.2227 19.038 62.2697 19.1074 62.2978C19.2106 62.3475 19.318 62.3845 19.4279 62.4081C19.5652 62.4352 19.7043 62.449 19.8436 62.4493C20.1008 62.4557 20.3673 62.4424 20.6096 62.3339C20.6793 62.3104 20.7385 62.2568 20.7748 62.1843C20.8172 62.0961 20.8937 61.911 20.8243 61.8248Z" fill="white"/>
<path d="M21.4444 57.926C21.4989 58.0012 21.5453 58.0837 21.5826 58.1718C21.7081 58.4688 21.7378 58.8052 21.7417 59.1371C21.7528 59.4227 21.7131 59.7079 21.625 59.9751C21.5269 60.2494 21.3651 60.4565 21.2291 60.7074C21.1129 60.9215 21.0275 61.1577 20.902 61.3649C20.7895 61.5538 20.6439 61.7135 20.4743 61.8335C20.3048 61.9535 20.1153 62.0313 19.918 62.0616C19.7204 62.088 19.5202 62.0586 19.3348 61.9759C19.1493 61.8933 18.9841 61.7598 18.8536 61.5872C18.7275 61.4124 18.6438 61.2027 18.5414 61.0082C18.4414 60.8398 18.3495 60.6651 18.2661 60.485C18.1505 60.2006 18.118 59.882 18.097 59.5691C18.0688 59.2644 18.0746 58.9568 18.1141 58.6538C18.1543 58.3489 18.2757 58.0659 18.4616 57.8437C18.5823 57.7186 18.716 57.6111 18.8597 57.5238C19.0992 57.3629 19.3426 57.2007 19.6113 57.1209C19.88 57.0411 20.1817 57.0532 20.4147 57.2261C20.5149 57.3002 20.6024 57.3958 20.7043 57.4661C20.8062 57.5365 20.9284 57.5643 21.0457 57.6106C21.201 57.6722 21.3388 57.7813 21.4444 57.926Z" fill="#CD8809"/>
<path d="M83.421 71.0824C83.421 71.0824 84.5774 71.121 84.7976 71.6607C85.0179 72.2004 85.0179 75.9129 85.0179 75.9129H80.0544C80.0544 75.9129 79.9405 72.0015 80.1728 71.6417C80.4052 71.2819 83.421 71.0824 83.421 71.0824Z" fill="#505457"/>
<path d="M81.9619 65.7184C82.1981 65.6359 82.453 65.6629 82.6722 65.7937C82.7895 65.8653 82.8374 66.0047 82.9348 66.0813C83.0163 66.1447 83.1551 66.0712 83.2223 66.1846C83.301 66.3169 83.3544 66.5361 83.4166 66.685C83.4967 66.8767 83.569 67.0722 83.6336 67.2715C83.7626 67.6708 83.8646 68.081 83.9386 68.4985C84.0813 69.3286 84.1379 70.1753 84.1071 71.0207C84.0917 71.5275 84.0521 72.0437 83.8825 72.5137C83.6997 73.0268 82.8539 72.8792 82.4811 72.8722C81.8303 72.8604 81.1805 72.822 80.5319 72.757C80.3895 71.1103 80.4182 69.45 80.6172 67.8112C80.6613 67.447 80.7163 67.0758 80.8705 66.7534C81.0792 66.3169 81.5048 65.8615 81.9619 65.7184Z" fill="#473F47"/>
<path d="M78.7615 67.217C78.7615 67.217 79.9179 67.2557 80.1381 67.796C80.3584 68.3363 80.3584 71.9025 80.3584 71.9025H75.3972C75.3972 71.9025 75.2832 68.1361 75.5155 67.7764C75.7479 67.4166 78.7615 67.217 78.7615 67.217Z" fill="#505457"/>
<path d="M76.1064 69.0534C75.9352 69.0362 75.6218 66.723 75.5916 66.4639C75.5525 66.1307 75.5916 65.8242 75.5106 65.5018C75.4077 65.1002 75.2904 64.7207 75.2755 64.2982C75.2793 64.129 75.2723 63.9596 75.2546 63.7915C75.2287 63.6268 75.1681 63.471 75.1384 63.3063C75.0134 62.6057 75.5139 61.9083 76.1103 61.7038C76.7066 61.4992 77.3514 61.679 77.9274 61.9502C78.0885 62.017 78.2386 62.1149 78.3712 62.2396C78.5914 62.4651 78.6938 62.8097 78.734 63.1435C78.7742 63.4773 78.761 63.8213 78.793 64.157C78.9031 65.2725 79.5038 66.3227 79.3662 67.4337C79.3111 67.9043 79.2494 68.4408 79.0908 68.8811C79.0677 68.9648 79.0237 69.0388 78.9642 69.0939C78.8933 69.1377 78.8132 69.1576 78.7329 69.1515C77.8565 69.1726 76.9798 69.1398 76.1064 69.0534Z" fill="#5A3B27"/>
<path d="M78.1079 80.1737C78.1079 80.1737 77.8915 71.8189 77.7225 71.5338C77.5535 71.2488 76.146 70.6629 74.4 70.8054C72.6539 70.9479 72.1281 71.5338 72.1281 71.5338L71.6798 80.1737H78.1079Z" fill="#665966"/>
<path d="M79.9185 70.3406C79.9735 70.3495 80.0286 70.3406 80.0875 70.3495C80.1538 70.3598 80.2162 70.391 80.268 70.4396C80.3198 70.4883 80.3589 70.5524 80.381 70.625C80.3913 70.6765 80.4062 70.7266 80.4256 70.7745C80.456 70.8213 80.4901 70.8648 80.5275 70.9044C80.5637 70.9554 80.5862 71.0174 80.5922 71.0829C80.5981 71.1484 80.5873 71.2145 80.561 71.273C80.6255 71.3146 80.6798 71.3742 80.7189 71.4463C80.7581 71.5183 80.7809 71.6005 80.7852 71.6854C80.7852 71.7487 80.7785 71.8171 80.7852 71.883C80.8011 72.0882 80.947 72.2447 81.0225 72.4316C81.0877 72.6096 81.0916 72.8095 81.0333 72.9907C80.975 73.1719 80.8589 73.3208 80.7086 73.407C80.8088 73.5222 80.8665 73.6774 80.8698 73.8403C80.8731 74.0033 80.8217 74.1614 80.7262 74.2818C80.8793 74.4249 81.0379 74.577 81.1117 74.7885C81.1855 75.0001 81.1447 75.2819 80.9696 75.3858C81.0286 75.4591 81.0674 75.5509 81.0812 75.6495C81.095 75.7481 81.0832 75.8492 81.0472 75.9402C81.0112 76.0311 80.9526 76.1077 80.8788 76.1604C80.8051 76.2131 80.7194 76.2396 80.6326 76.2365C80.6594 76.341 80.6625 76.4515 80.6417 76.5578C80.6209 76.664 80.5769 76.7624 80.5138 76.8436C80.4507 76.9247 80.3707 76.9861 80.2812 77.0217C80.1918 77.0574 80.0959 77.0662 80.0027 77.0473C80.0205 77.3276 80.002 77.6094 79.9476 77.8834C79.5947 77.9763 79.2257 77.9463 78.8877 77.7973C78.7473 77.9119 78.6019 78.0285 78.4339 78.0703C78.266 78.1121 78.0678 78.0595 77.9742 77.8936C77.9191 77.8011 77.8993 77.6738 77.809 77.6281C77.7711 77.6123 77.7308 77.6058 77.6906 77.6091H77.0755C77.0304 77.6147 76.985 77.6031 76.9461 77.5762C76.9173 77.5444 76.8981 77.503 76.8911 77.4578C76.8457 77.2665 76.8395 77.0657 76.8729 76.8712C76.8234 76.8482 76.7784 76.814 76.7405 76.7708C76.7026 76.7276 76.6726 76.6762 76.6521 76.6195C76.6316 76.5628 76.6211 76.502 76.6212 76.4406C76.6213 76.3792 76.632 76.3185 76.6526 76.2619C76.6829 76.2049 76.7082 76.1447 76.7281 76.082C76.7496 75.9768 76.7072 75.8698 76.6901 75.7652C76.6674 75.6165 76.6959 75.4634 76.7694 75.3383C76.8022 75.2958 76.8263 75.2454 76.8399 75.1907C76.8487 75.1179 76.8096 75.0508 76.7776 74.9868C76.7219 74.8721 76.6874 74.7453 76.6764 74.6144C76.6654 74.4836 76.6781 74.3516 76.7138 74.2267C76.7391 74.138 76.7771 74.0493 76.7688 73.9568C76.7596 73.9012 76.7443 73.8471 76.7231 73.7959C76.6814 73.6709 76.6632 73.5371 76.67 73.4034C76.6767 73.2697 76.7082 73.1392 76.7622 73.0206C76.7972 72.9604 76.8226 72.8935 76.8371 72.823C76.8404 72.7625 76.8343 72.7018 76.8189 72.6437C76.7556 72.3206 76.7485 71.9863 76.798 71.66C76.8261 71.477 76.8861 71.28 77.0304 71.1932C77.062 71.1801 77.0903 71.1584 77.113 71.1299C77.1292 71.0934 77.1359 71.0522 77.1322 71.0114C77.1368 70.9384 77.1542 70.8672 77.1832 70.802C77.2123 70.7369 77.2524 70.6792 77.3013 70.6323C77.3502 70.5854 77.4068 70.5503 77.4677 70.5292C77.5286 70.508 77.5926 70.5012 77.6559 70.5091C77.7396 70.1246 78.1807 69.9118 78.4774 70.1126C78.5001 70.0125 78.5489 69.9228 78.6172 69.8556C78.6856 69.7883 78.7701 69.7467 78.8596 69.7363C79.0798 69.7154 79.1977 69.9264 79.359 70.0252C79.5203 70.124 79.7384 70.3128 79.9185 70.3406Z" fill="#CD8809"/>
<path d="M75.8536 70.5026C75.8303 70.4781 75.8004 70.4635 75.7689 70.4614C75.5904 70.431 75.4115 70.495 75.2347 70.535C74.8212 70.6282 74.3945 70.592 73.9738 70.5667C73.963 70.5649 73.952 70.5665 73.9418 70.5711C73.9303 70.5783 73.9213 70.59 73.9165 70.6041C73.903 70.6433 73.8994 70.6862 73.9061 70.7277C73.9128 70.7692 73.9296 70.8077 73.9545 70.8387C74.0047 70.9004 74.067 70.9473 74.1362 70.9756C74.2396 71.0253 74.3472 71.0623 74.4572 71.086C74.5946 71.113 74.7336 71.1268 74.873 71.1272C75.1301 71.1335 75.3966 71.1202 75.6389 71.0118C75.7087 70.9883 75.7678 70.9347 75.8041 70.8621C75.8465 70.7778 75.9247 70.5927 75.8536 70.5026Z" fill="white"/>
<path d="M76.4753 66.6078C76.5298 66.683 76.5762 66.7656 76.6135 66.8536C76.739 67.15 76.7688 67.487 76.7726 67.8189C76.7838 68.1045 76.744 68.3897 76.6559 68.657C76.5579 68.9312 76.396 69.1384 76.26 69.3892C76.1433 69.6033 76.0585 69.8396 75.9329 70.0467C75.8205 70.2356 75.6748 70.3953 75.5053 70.5153C75.3358 70.6354 75.1462 70.7131 74.9489 70.7435C74.7514 70.7699 74.5512 70.7404 74.3657 70.6578C74.1802 70.5751 74.0151 70.4417 73.8845 70.269C73.7585 70.0942 73.6748 69.8845 73.5723 69.6901C73.4723 69.5216 73.3804 69.3469 73.297 69.1669C73.1814 68.8825 73.1489 68.5638 73.128 68.2509C73.0998 67.9462 73.1055 67.6387 73.145 67.3356C73.1852 67.0307 73.3066 66.7477 73.4925 66.5255C73.6134 66.4015 73.7471 66.2951 73.8906 66.2088C74.1301 66.0479 74.3735 65.8857 74.6422 65.8059C74.9109 65.7261 75.2127 65.7381 75.4456 65.9111C75.5458 65.9852 75.6334 66.0808 75.7352 66.1511C75.8371 66.2214 75.9593 66.2493 76.0766 66.2956C76.2316 66.3564 76.3693 66.4643 76.4753 66.6078Z" fill="#CD8809"/>
<path d="M71.6231 67.217C71.6231 67.217 72.7794 67.2557 72.9997 67.796C73.2199 68.3363 73.2199 71.9025 73.2199 71.9025H68.2587C68.2587 71.9025 68.1447 68.1361 68.3777 67.7764C68.6106 67.4166 71.6231 67.217 71.6231 67.217Z" fill="#505457"/>
<path d="M70.7416 62.0035C71.035 62.1441 71.225 62.4716 71.3742 62.7947C72.0196 64.1882 72.2261 65.8085 72.1782 67.3876C72.1627 67.8943 72.1231 68.4106 71.953 68.8799C71.9302 68.9637 71.8863 69.0377 71.8269 69.0928C71.756 69.1365 71.6759 69.1565 71.5956 69.1504C70.7188 69.172 69.8417 69.1396 68.968 69.0535C68.6739 67.8158 68.3782 66.561 68.3727 65.2777C68.3727 64.6043 68.452 63.9158 68.7185 63.3141C68.985 62.7123 69.4569 62.2113 70.029 62.0681C70.4035 61.9744 70.866 62.0897 71.0251 62.49" fill="#473F47"/>
<path d="M69.6304 79.2863C69.6304 79.2863 69.414 70.9315 69.2449 70.6471C69.0759 70.3627 67.6685 69.7755 65.9218 69.918C64.1752 70.0605 63.6499 70.6471 63.6499 70.6471L63.2017 79.2863H69.6304Z" fill="#665966"/>
<path d="M68.3028 74.8732C68.3028 74.8732 67.4218 75.3318 67.3238 75.6789C67.2258 76.026 66.9774 79.2837 66.9774 79.2837H73.835C73.835 79.2837 73.4584 75.5345 73.1814 75.2159C72.9045 74.8973 69.7576 74.4748 68.3028 74.8732Z" fill="#473F47"/>
<path d="M71.4408 69.4533C71.4959 69.4621 71.551 69.4533 71.6099 69.4628C71.676 69.4731 71.7385 69.5042 71.7902 69.5527C71.842 69.6012 71.8812 69.6652 71.9034 69.7377C71.9139 69.7893 71.9289 69.8395 71.948 69.8878C71.9786 69.9343 72.0127 69.9778 72.0498 70.0176C72.0861 70.0685 72.1086 70.1304 72.1146 70.1958C72.1205 70.2613 72.1097 70.3272 72.0834 70.3857C72.1478 70.4273 72.2021 70.4868 72.2413 70.5589C72.2804 70.6309 72.3032 70.7132 72.3075 70.798C72.3075 70.8613 72.3015 70.9304 72.3075 70.9956C72.3241 71.2009 72.4694 71.3573 72.5454 71.5442C72.6106 71.7223 72.6144 71.9223 72.556 72.1035C72.4976 72.2847 72.3814 72.4335 72.231 72.5197C72.3313 72.6349 72.3892 72.7902 72.3925 72.9533C72.3958 73.1163 72.3442 73.2746 72.2486 73.395C72.4017 73.5382 72.5603 73.6902 72.6341 73.9018C72.7078 74.1133 72.6676 74.3952 72.492 74.4985C72.551 74.5718 72.5898 74.6635 72.6036 74.7621C72.6174 74.8608 72.6056 74.9619 72.5695 75.0528C72.5335 75.1437 72.475 75.2203 72.4012 75.273C72.3275 75.3258 72.2418 75.3523 72.155 75.3491C72.1817 75.4535 72.1848 75.564 72.1641 75.6702C72.1433 75.7764 72.0993 75.8747 72.0363 75.9559C71.9733 76.037 71.8933 76.0984 71.804 76.1341C71.7146 76.1698 71.6188 76.1787 71.5256 76.1599C71.5432 76.4404 71.5246 76.7224 71.4706 76.9967C71.1176 77.0896 70.7487 77.0596 70.4106 76.9105C70.2702 77.0246 70.1248 77.1411 69.9569 77.1829C69.7889 77.2247 69.5907 77.1721 69.4976 77.0062C69.4426 76.9137 69.4222 76.7864 69.3325 76.7408C69.2948 76.7249 69.2546 76.7185 69.2146 76.7218H68.599C68.5539 76.7273 68.5085 76.7157 68.4696 76.6888C68.4409 76.657 68.4216 76.6155 68.4145 76.5704C68.3692 76.3793 68.363 76.1788 68.3964 75.9845C68.3469 75.9614 68.3019 75.9272 68.264 75.8839C68.2261 75.8406 68.196 75.7891 68.1755 75.7324C68.155 75.6757 68.1445 75.6148 68.1446 75.5534C68.1447 75.4919 68.1554 75.4311 68.1761 75.3745C68.2064 75.3176 68.2317 75.2573 68.2516 75.1946C68.2736 75.0894 68.2306 74.983 68.2141 74.8779C68.1913 74.7291 68.2198 74.576 68.2934 74.451C68.3261 74.4082 68.35 74.3575 68.3633 74.3027C68.3727 74.2299 68.3331 74.1627 68.3017 74.0988C68.2458 73.9841 68.2112 73.8573 68.2001 73.7265C68.189 73.5957 68.2017 73.4636 68.2372 73.3387C68.2631 73.25 68.3006 73.1613 68.2923 73.0688C68.2831 73.0134 68.2677 72.9595 68.2466 72.9086C68.2048 72.7835 68.1867 72.6495 68.1934 72.5157C68.2002 72.382 68.2316 72.2513 68.2857 72.1326C68.3207 72.0724 68.3461 72.0055 68.3606 71.935C68.3639 71.8745 68.3577 71.8138 68.3424 71.7557C68.279 71.4326 68.272 71.0982 68.322 70.772C68.3501 70.589 68.4096 70.392 68.5539 70.3052C68.5855 70.2923 68.6139 70.2705 68.6365 70.2419C68.6528 70.2052 68.6597 70.1638 68.6563 70.1228C68.6609 70.0498 68.6783 69.9786 68.7074 69.9135C68.7365 69.8484 68.7766 69.7907 68.8255 69.7438C68.8743 69.697 68.9309 69.6619 68.9918 69.6407C69.0527 69.6195 69.1167 69.6126 69.1799 69.6205C69.2642 69.236 69.7047 69.0238 70.002 69.224C70.0247 69.124 70.0734 69.0343 70.1416 68.9671C70.2098 68.8998 70.2942 68.8582 70.3836 68.8477C70.6066 68.8268 70.7217 69.0377 70.883 69.1365C71.0444 69.2354 71.2613 69.426 71.4408 69.4533Z" fill="#CD8809"/>
<path d="M67.3761 69.616C67.3528 69.5914 67.3228 69.5768 67.2913 69.5748C67.1129 69.545 66.9345 69.6084 66.7572 69.6483C66.3436 69.7415 65.9175 69.706 65.4962 69.6807C65.4855 69.6791 65.4745 69.6804 65.4643 69.6845C65.4527 69.6916 65.4437 69.7033 65.439 69.7174C65.4254 69.7568 65.4218 69.7997 65.4286 69.8413C65.4353 69.883 65.452 69.9215 65.4769 69.9527C65.5274 70.0141 65.5899 70.0609 65.6592 70.089C65.7623 70.1389 65.8698 70.176 65.9797 70.2C66.117 70.2267 66.2561 70.2405 66.3954 70.2412C66.6526 70.2469 66.9191 70.2336 67.1613 70.1251C67.2309 70.1017 67.2901 70.0483 67.3265 69.9761C67.3689 69.8905 67.4449 69.7054 67.3761 69.616Z" fill="white"/>
<path d="M67.9955 65.7203C68.0501 65.7954 68.0965 65.878 68.1337 65.9661C68.2593 66.2631 68.289 66.5995 68.2929 66.9314C68.3041 67.217 68.2643 67.5022 68.1761 67.7694C68.0781 68.0437 67.9162 68.2508 67.7802 68.5017C67.6641 68.7164 67.5787 68.952 67.4532 69.1591C67.3407 69.3481 67.195 69.5078 67.0255 69.6278C66.856 69.7478 66.6665 69.8256 66.4692 69.8559C66.2718 69.8815 66.072 69.8514 65.887 69.7682C65.702 69.685 65.5375 69.5511 65.4076 69.3783C65.2815 69.2035 65.1978 68.9938 65.0953 68.7994C64.9953 68.6309 64.9034 68.4562 64.82 68.2762C64.7044 67.9924 64.6719 67.6738 64.651 67.3609C64.623 67.0559 64.6288 66.7482 64.6681 66.4449C64.7084 66.1401 64.8298 65.8571 65.0155 65.6348C65.1366 65.5111 65.2703 65.4048 65.4136 65.3181C65.6531 65.1578 65.8971 64.995 66.1652 64.9152C66.4334 64.8354 66.7357 64.8481 66.9686 65.021C67.0688 65.0951 67.1564 65.1901 67.2582 65.2611C67.3601 65.332 67.4823 65.3586 67.5996 65.4049C67.7539 65.467 67.8907 65.576 67.9955 65.7203Z" fill="#CD8809"/>
<path d="M64.4319 69.9797C64.6679 69.8972 64.9227 69.9243 65.1416 70.055C65.2589 70.1266 65.3068 70.266 65.4048 70.3426C65.4858 70.406 65.6251 70.3325 65.6923 70.4459C65.771 70.5782 65.8239 70.7974 65.8861 70.9463C65.9657 71.138 66.0381 71.3335 66.103 71.5328C66.2326 71.9319 66.3346 72.3422 66.4081 72.7597C66.551 73.5899 66.6077 74.4365 66.5771 75.282C66.5617 75.7888 66.5221 76.305 66.3519 76.775C66.1691 77.2881 65.3233 77.1405 64.9506 77.1335C64.2997 77.1213 63.65 77.0829 63.0013 77.0182C62.8592 75.3716 62.8879 73.7114 63.0867 72.0725C63.1313 71.7083 63.1863 71.3371 63.3405 71.0147C63.5492 70.5782 63.9759 70.1228 64.4319 69.9797Z" fill="#473F47"/>
</g>
<path d="M44.8524 34.1273C44.8366 34.26 44.8066 34.3899 44.7632 34.5141C44.7054 34.6567 44.6234 34.7846 44.5222 34.8903C44.4209 34.9961 44.3023 35.0775 44.1734 35.1298C43.9139 35.2325 43.6349 35.2511 43.3668 35.1837C43.3712 34.9205 43.3772 34.6485 43.4725 34.4088C43.5376 34.2592 43.6236 34.1227 43.7269 34.0049C43.837 33.8718 43.9614 33.745 44.1123 33.6879C44.2156 33.6571 44.3223 33.6443 44.4289 33.6498H44.7268C44.7769 33.6498 44.9366 33.6207 44.9724 33.6682C45.0082 33.7158 44.9498 33.8039 44.9295 33.8451C44.8881 33.9325 44.8619 34.0284 44.8524 34.1273Z" fill="#FC682D"/>
<path d="M45.2852 34.5333C45.2797 34.655 45.2643 34.7825 45.3067 34.8941C45.3546 35.0209 45.4658 35.0957 45.5748 35.1515C45.6981 35.2246 45.8375 35.2537 45.9751 35.2352C45.9646 35.0101 45.9342 34.7868 45.8843 34.5688C45.8332 34.3496 45.7255 34.1535 45.5754 34.0064C45.511 33.948 45.2076 33.7096 45.1971 33.8986C45.1921 33.9886 45.2428 34.0888 45.2599 34.1738C45.2831 34.2916 45.2917 34.4127 45.2852 34.5333Z" fill="#FC682D"/>
<path d="M46.5758 37.7816L47.5719 38.3751L46.9519 40.1582L46.6931 40.1303C46.6931 40.1303 46.3947 38.4517 46.5758 37.7816Z" fill="#505457"/>
<path d="M47.1865 39.4906L46.5544 39.0664L46.6953 40.1325L46.9541 40.1605L47.1865 39.4906Z" fill="url(#paint9_linear_10_714)"/>
<path d="M52.7495 33.6794C52.9977 33.6794 53.1989 33.4475 53.1989 33.1613C53.1989 32.8752 52.9977 32.6432 52.7495 32.6432C52.5014 32.6432 52.3002 32.8752 52.3002 33.1613C52.3002 33.4475 52.5014 33.6794 52.7495 33.6794Z" fill="#505457"/>
<path d="M66.9328 31.012C67.181 31.012 67.3821 30.78 67.3821 30.4939C67.3821 30.2077 67.181 29.9758 66.9328 29.9758C66.6847 29.9758 66.4835 30.2077 66.4835 30.4939C66.4835 30.78 66.6847 31.012 66.9328 31.012Z" fill="#505457"/>
<path d="M57.3534 39.3656L52.8371 33.4234L52.9704 33.2891L57.3463 39.0457L62.025 32.1578L64.5166 34.288L66.8596 30.4033L67.0055 30.5198L64.5574 34.5775L62.0581 32.4403L57.3534 39.3656Z" fill="#505457"/>
<defs>
<linearGradient id="paint0_linear_10_714" x1="44.2676" y1="42.8425" x2="44.7113" y2="66.5945" gradientUnits="userSpaceOnUse">
<stop offset="0.01"/>
<stop offset="0.08" stop-opacity="0.69"/>
<stop offset="0.21" stop-opacity="0.32"/>
<stop offset="1" stop-opacity="0"/>
</linearGradient>
<linearGradient id="paint1_linear_10_714" x1="44.5423" y1="46.1285" x2="45.0814" y2="31.2478" gradientUnits="userSpaceOnUse">
<stop offset="0.01"/>
<stop offset="0.08" stop-opacity="0.69"/>
<stop offset="0.21" stop-opacity="0.32"/>
<stop offset="1" stop-opacity="0"/>
</linearGradient>
<linearGradient id="paint2_linear_10_714" x1="43.1415" y1="40.2668" x2="40.6066" y2="39.5278" gradientUnits="userSpaceOnUse">
<stop offset="0.01"/>
<stop offset="0.08" stop-opacity="0.69"/>
<stop offset="0.21" stop-opacity="0.32"/>
<stop offset="1" stop-opacity="0"/>
</linearGradient>
<linearGradient id="paint3_linear_10_714" x1="43.4504" y1="38.8475" x2="45.5611" y2="36.9229" gradientUnits="userSpaceOnUse">
<stop offset="0.01"/>
<stop offset="0.08" stop-opacity="0.69"/>
<stop offset="0.21" stop-opacity="0.32"/>
<stop offset="1" stop-opacity="0"/>
</linearGradient>
<linearGradient id="paint4_linear_10_714" x1="43.9752" y1="40.0204" x2="45.9542" y2="38.8244" gradientUnits="userSpaceOnUse">
<stop offset="0.01"/>
<stop offset="0.08" stop-opacity="0.69"/>
<stop offset="0.21" stop-opacity="0.32"/>
<stop offset="1" stop-opacity="0"/>
</linearGradient>
<linearGradient id="paint5_linear_10_714" x1="45.9856" y1="38.9884" x2="43.6319" y2="36.8433" gradientUnits="userSpaceOnUse">
<stop offset="0.01"/>
<stop offset="0.08" stop-opacity="0.69"/>
<stop offset="0.21" stop-opacity="0.32"/>
<stop offset="1" stop-opacity="0"/>
</linearGradient>
<linearGradient id="paint6_linear_10_714" x1="45.5456" y1="40.0204" x2="43.5666" y2="38.8244" gradientUnits="userSpaceOnUse">
<stop offset="0.01"/>
<stop offset="0.08" stop-opacity="0.69"/>
<stop offset="0.21" stop-opacity="0.32"/>
<stop offset="1" stop-opacity="0"/>
</linearGradient>
<linearGradient id="paint7_linear_10_714" x1="43.6635" y1="37.4279" x2="45.6876" y2="50.8497" gradientUnits="userSpaceOnUse">
<stop offset="0.01"/>
<stop offset="0.08" stop-opacity="0.69"/>
<stop offset="0.21" stop-opacity="0.32"/>
<stop offset="1" stop-opacity="0"/>
</linearGradient>
<linearGradient id="paint8_linear_10_714" x1="44.352" y1="37.7877" x2="45.2665" y2="39.8101" gradientUnits="userSpaceOnUse">
<stop offset="0.01"/>
<stop offset="0.08" stop-opacity="0.69"/>
<stop offset="0.21" stop-opacity="0.32"/>
<stop offset="1" stop-opacity="0"/>
</linearGradient>
<linearGradient id="paint9_linear_10_714" x1="47.0246" y1="41.4031" x2="46.6075" y2="37.0788" gradientUnits="userSpaceOnUse">
<stop offset="0.01"/>
<stop offset="0.08" stop-opacity="0.69"/>
<stop offset="0.21" stop-opacity="0.32"/>
<stop offset="1" stop-opacity="0"/>
</linearGradient>
</defs>
</svg>
