<svg width="96" height="96" viewBox="0 0 96 96" fill="none" xmlns="http://www.w3.org/2000/svg">
<rect width="96" height="96" rx="15" fill="#131C73"/>
<path d="M59.953 44.0851H60.4155V54.4637H59.953V44.0851Z" fill="#505457"/>
<path opacity="0.18" d="M49.5107 25.7151H71.2019V44.085H49.5107V25.7151Z" fill="#505457"/>
<path d="M50.1319 26.4696H70.6997V43.5067H50.1319V26.4696Z" fill="white"/>
<path d="M49.0658 43.1273H72.062V44.0851H49.0658V43.1273Z" fill="#505457"/>
<path d="M49.0658 25.5118H72.062V26.4695H49.0658V25.5118Z" fill="#505457"/>
<path d="M40.8448 46.0582H48.0185V62.8711H40.8448V46.0582Z" fill="white"/>
<path d="M40.8448 46.0582H48.0185V62.8711H40.8448V46.0582Z" fill="#505457"/>
<path d="M40.8448 46.0582H48.0185V62.8711H40.8448V46.0582Z" fill="url(#paint0_linear_10_714)"/>
<path d="M42.2319 46.0582H46.6651V65.2844H42.2319V46.0582Z" fill="#505457"/>
<path d="M39.9974 42.6738H48.8643V46.5257H39.9974V42.6738Z" fill="#505457"/>
<path d="M43.114 34.6876C43.1228 34.5394 43.114 34.3854 43.1283 34.2372C43.1488 34.0232 43.2085 33.8166 43.3034 33.631C43.3983 33.4454 43.5263 33.285 43.679 33.1604C43.9891 32.9135 44.3672 32.806 44.7417 32.8583C45.3474 32.9387 45.8584 33.4188 46.1502 34.0212C46.4806 34.7072 46.1722 35.2703 45.9035 35.893C45.7025 36.3592 45.8204 36.9407 46.0819 37.3657C46.2868 37.6989 46.5885 38.0175 46.5626 38.4248C46.5472 38.6718 46.4096 38.8834 46.2768 39.0785C46.1887 39.209 46.0891 39.3483 45.9465 39.3857C45.8759 39.4009 45.8034 39.4009 45.7328 39.3857C45.5746 39.3608 45.4179 39.3244 45.2637 39.2767C45.1134 39.2305 44.9597 39.1735 44.805 39.1963C44.5451 39.2349 44.3524 39.487 44.1993 39.7347C44.0462 39.9824 43.9003 40.2554 43.6608 40.3783C43.4791 40.472 43.2715 40.4631 43.0733 40.4416C42.494 40.3865 41.88 40.2313 41.4819 39.7448C41.3939 39.6329 41.3131 39.5137 41.2402 39.3882C41.1943 39.323 41.1571 39.2502 41.1301 39.1722C41.0612 38.9397 41.1719 38.6895 41.2953 38.4907C41.4186 38.2918 41.5706 38.0916 41.5909 37.8471C41.6069 37.6571 41.5408 37.467 41.5188 37.277C41.477 36.916 41.5992 36.5479 41.7941 36.2597C41.9891 35.9715 42.2495 35.753 42.5171 35.5573C42.7225 35.4072 42.9466 35.252 43.0441 34.9954C43.0826 34.8982 43.1062 34.7941 43.114 34.6876Z" fill="#FC682D"/>
<path d="M42.6851 40.0299C42.5248 40.2377 42.173 40.8293 42.1658 40.942C42.1587 41.0364 42.2209 41.2461 42.2462 41.3367C42.3071 41.5649 42.3921 41.7836 42.4995 41.9878C42.5887 42.1563 42.7049 42.3945 42.8409 42.5155C42.9331 42.5897 43.0366 42.6434 43.146 42.6738H42.1851C41.7104 42.0537 41.0288 41.1536 40.9996 41.0383C40.9738 40.9196 40.9865 40.7942 41.0354 40.6855C41.0838 40.5773 41.1437 40.4765 41.2138 40.3853C41.4781 40.0096 42.0761 39.1608 42.1245 39.1342C42.1693 39.1131 42.2171 39.1019 42.2655 39.1013C42.6781 39.0684 43.0907 39.0589 43.5033 39.0728C43.353 39.2115 42.8172 39.8595 42.6851 40.0299Z" fill="#F4DBBD"/>
<path d="M43.8662 37.0845C43.8662 37.0845 42.6674 37.7059 42.5997 37.8686C42.532 38.0314 42.5997 42.6744 42.5997 42.6744H46.8242L46.5814 37.7819L45.3457 37.1998L43.8662 37.0845Z" fill="#505457"/>
<path d="M46.822 42.6751H42.5964C42.5964 42.6751 42.5259 38.0327 42.5964 37.868C42.6669 37.7033 43.8662 37.0845 43.8662 37.0845L45.3424 37.1991L46.5758 37.7812L46.6931 40.13L46.822 42.6751Z" fill="url(#paint1_linear_10_714)"/>
<path d="M42.597 37.8687L41.5904 39.3433C41.7925 40.0318 42.597 40.9053 42.597 40.9053V37.8687Z" fill="#505457"/>
<path d="M42.597 39.2052L41.9681 40.0952L42.597 40.9053V39.2052Z" fill="url(#paint2_linear_10_714)"/>
<path d="M43.8965 36.4245C43.9378 36.674 43.8739 36.8678 43.8656 37.0946C43.853 37.4354 44.1663 37.9681 44.2907 38.2785C44.3309 38.3798 44.3788 38.4888 44.4669 38.5318C44.5294 38.5572 44.5962 38.565 44.6618 38.5547C44.7597 38.5575 44.8567 38.532 44.9438 38.4805C45.0572 38.3982 45.1062 38.2398 45.1464 38.0923C45.2108 37.8554 45.3744 37.4747 45.3347 37.2283C45.3221 37.1485 45.2598 37.0693 45.2428 36.9825C45.2261 36.8708 45.2208 36.7573 45.2268 36.6443C45.2317 36.0476 43.8965 36.4245 43.8965 36.4245Z" fill="#F4DBBD"/>
<path d="M43.8965 36.4245C43.8965 36.4245 44.0666 37.4696 44.6046 37.4075C44.7516 37.397 44.8918 37.3321 45.0042 37.2226C45.1166 37.113 45.1953 36.9646 45.2284 36.7995L43.8965 36.4245Z" fill="#E0BE99"/>
<path d="M43.8491 36.2439C43.8809 36.4105 43.9368 36.5698 44.0143 36.7152C44.2345 37.0864 44.7356 37.1998 45.0671 36.954C45.2521 36.8172 45.3749 36.5961 45.4647 36.3693C45.6592 35.8776 45.7241 35.331 45.6513 34.7972C45.6232 34.592 45.5715 34.3836 45.452 34.2271C45.2554 33.9661 44.9206 33.899 44.6172 33.9174C44.3452 33.9338 44.0666 34.0117 43.8579 34.2119C43.7476 34.3242 43.6657 34.4687 43.6209 34.6302C43.5761 34.7916 43.5701 34.964 43.6035 35.1291C43.6856 35.4984 43.7616 35.8746 43.8491 36.2439Z" fill="#F4DBBD"/>
<path d="M50.0349 37.2771C50.0548 37.241 50.0944 37.2017 50.1225 37.2289C50.133 37.2416 50.1392 37.2583 50.1401 37.2758C50.1637 37.4378 50.1545 37.6038 50.1131 37.761C50.2587 37.4268 50.4307 37.1088 50.6269 36.8109C50.6616 36.7589 50.7161 36.7013 50.7673 36.7304C50.7497 36.977 50.6754 37.2138 50.552 37.4164C50.6382 37.1744 50.7774 36.9623 50.9561 36.8007C50.9925 37.0604 50.8769 37.3125 50.7656 37.5418C50.8525 37.3646 50.9622 37.2036 51.091 37.0642C51.139 37.144 51.0999 37.2543 51.0602 37.3385L50.8466 37.7984C50.9207 37.6475 51.0157 37.5117 51.1279 37.3961C51.1593 37.4715 51.1208 37.5596 51.0833 37.6318L50.6951 38.3805C50.6395 38.4996 50.5707 38.6099 50.4903 38.7086C50.4193 38.789 50.3295 38.8416 50.2574 38.9189C50.1853 38.9962 48.5581 40.8724 48.4144 40.9319C48.3124 40.9676 48.2025 40.96 48.105 40.9104C48.0085 40.8598 47.9177 40.796 47.8346 40.7203C47.4937 40.4378 46.7245 39.7993 46.6975 39.7455C46.6762 39.6952 46.6636 39.6405 46.6606 39.5846C46.6084 39.1136 46.5769 38.6398 46.5665 38.1651C46.692 38.3304 47.2878 38.9075 47.4436 39.0519C47.6325 39.2255 48.165 39.596 48.2641 39.5979C48.3467 39.5979 48.5251 39.5156 48.6022 39.4826C48.7967 39.3993 48.9816 39.2889 49.1528 39.1539C49.2938 39.043 49.4931 38.8955 49.5933 38.7333C49.7073 38.5433 49.7326 38.2215 49.7871 38.0036C49.8431 37.7505 49.9264 37.5064 50.0349 37.2771Z" fill="#F4DBBD"/>
<path d="M43.6118 35.2589C43.594 35.2437 43.5731 35.234 43.5511 35.2308C43.5291 35.2275 43.5068 35.2308 43.4862 35.2404C43.4656 35.2499 43.4475 35.2653 43.4337 35.2852C43.4198 35.3051 43.4106 35.3288 43.407 35.354C43.3849 35.4969 43.4111 35.6442 43.4802 35.7657C43.4956 35.8011 43.517 35.8328 43.543 35.8588C43.596 35.8973 43.6581 35.9161 43.7208 35.9126C43.7348 35.9149 43.7491 35.9136 43.7627 35.9088C43.7739 35.9028 43.7839 35.8939 43.7918 35.8829C43.8116 35.854 43.8261 35.8208 43.8345 35.7853C43.843 35.7499 43.8451 35.7128 43.8409 35.6764C43.8276 35.5161 43.7456 35.3261 43.6118 35.2589Z" fill="#F4DBBD"/>
<path d="M45.7003 35.8816C45.6723 35.8992 45.6401 35.9063 45.6084 35.9017C45.5767 35.8972 45.547 35.8813 45.5236 35.8563C45.51 35.8357 45.5004 35.8119 45.4955 35.7866C45.4734 35.6437 45.4996 35.4964 45.5687 35.3749C45.5842 35.3395 45.6055 35.3079 45.6315 35.2818C45.6847 35.2435 45.7467 35.2245 45.8093 35.2273C45.8236 35.2256 45.838 35.2271 45.8517 35.2317C45.8629 35.2378 45.8727 35.2466 45.8804 35.2577C45.9004 35.2865 45.9151 35.3196 45.9236 35.3551C45.9321 35.3906 45.9343 35.4277 45.9299 35.4642C45.9151 35.6245 45.8341 35.8145 45.7003 35.8816Z" fill="#F4DBBD"/>
<path d="M43.5006 35.6219C43.5185 35.6716 43.5471 35.7152 43.5837 35.7486C43.5999 35.7639 43.6198 35.7729 43.6407 35.7742C43.6616 35.7756 43.6823 35.7693 43.6999 35.7562C43.7063 35.751 43.7111 35.7437 43.7137 35.7353C43.716 35.7215 43.7142 35.7073 43.7087 35.6948L43.7004 35.6694C43.6984 35.662 43.6954 35.6549 43.6916 35.6485C43.6762 35.6251 43.6448 35.6289 43.6228 35.6143C43.6008 35.5997 43.5909 35.5636 43.5782 35.5377C43.5738 35.5259 43.5666 35.5158 43.5574 35.5086C43.5483 35.5013 43.5376 35.4971 43.5264 35.4965C43.5158 35.4987 43.5061 35.505 43.4989 35.5143C43.4918 35.5236 43.4875 35.5354 43.4868 35.5478C43.4852 35.5735 43.49 35.5992 43.5006 35.6219Z" fill="#E0BE99"/>
<path d="M45.838 35.5712C45.8204 35.621 45.792 35.6646 45.7554 35.6979C45.7392 35.7131 45.7193 35.7221 45.6985 35.7236C45.6776 35.7251 45.6569 35.719 45.6392 35.7062C45.6328 35.7008 45.628 35.6933 45.6254 35.6846C45.6232 35.6709 45.6249 35.6566 45.6304 35.6441L45.6387 35.6188C45.6407 35.6113 45.6437 35.6043 45.6475 35.5979C45.6629 35.5751 45.6943 35.5782 45.7163 35.5643C45.7383 35.5503 45.7482 35.513 45.7609 35.487C45.7653 35.4752 45.7724 35.4651 45.7816 35.4578C45.7908 35.4505 45.8015 35.4464 45.8127 35.4458C45.8233 35.4481 45.833 35.4543 45.8402 35.4636C45.8474 35.4729 45.8516 35.4847 45.8523 35.4971C45.8538 35.5229 45.8488 35.5486 45.838 35.5712Z" fill="#E0BE99"/>
<path d="M43.8662 37.0845L43.5848 37.2346L43.7252 38.7326L44.4691 39.0665C44.4691 39.0665 44.1564 37.9649 43.8662 37.0845Z" fill="url(#paint3_linear_10_714)"/>
<path d="M43.962 38.8391L43.8662 39.4136L44.7709 40.5759L44.4691 39.0664L43.962 38.8391Z" fill="url(#paint4_linear_10_714)"/>
<path d="M45.3529 37.2079L45.6348 37.3574L45.795 38.7326L45.0517 39.0664C45.0517 39.0664 45.343 37.6786 45.3529 37.2079Z" fill="url(#paint5_linear_10_714)"/>
<path d="M45.5588 38.8391L45.6546 39.4136L44.7499 40.5759L45.0517 39.0664L45.5588 38.8391Z" fill="url(#paint6_linear_10_714)"/>
<path d="M45.9244 42.6574L43.1344 42.0847L42.597 39.2052V42.4103V42.6745L45.9244 42.6574Z" fill="url(#paint7_linear_10_714)"/>
<path d="M42.2401 42.6827C42.2401 42.644 41.9847 38.7783 44.4157 38.2303L44.4471 38.4115C42.157 38.9277 42.3976 42.6301 42.4004 42.6675L42.2401 42.6827Z" fill="#505457"/>
<path d="M44.5203 38.5217C44.635 38.5217 44.7279 38.4148 44.7279 38.2829C44.7279 38.151 44.635 38.0441 44.5203 38.0441C44.4057 38.0441 44.3127 38.151 44.3127 38.2829C44.3127 38.4148 44.4057 38.5217 44.5203 38.5217Z" fill="#505457"/>
<path d="M44.5203 38.5217C44.635 38.5217 44.7279 38.4148 44.7279 38.2829C44.7279 38.151 44.635 38.0441 44.5203 38.0441C44.4057 38.0441 44.3127 38.151 44.3127 38.2829C44.3127 38.4148 44.4057 38.5217 44.5203 38.5217Z" fill="url(#paint8_linear_10_714)"/>
<mask id="mask0_10_714" style="mask-type:luminance" maskUnits="userSpaceOnUse" x="15" y="13" width="68" height="62">
<path d="M75.4362 35.2342C75.8415 35.601 79.4691 35.7194 79.7923 36.1888C81.1689 38.1898 82.0532 45.6901 82.7905 49.5287C83.6346 53.9234 81.8269 65.2015 79.1767 68.5124C77.6399 70.4329 75.0227 73.0096 72.6346 73.8996C64.5095 76.9343 56.0176 72.8228 47.7536 71.948C41.7853 71.3159 38.9716 72.9653 34.7923 73.6006C30.657 74.229 26.7574 74.7459 22.7515 72.8576C19.7093 71.4236 17.227 68.1348 15.8141 64.105C13.8164 58.4137 16.0988 52.9922 16.2992 48.8687C16.6786 41.0909 16.7948 30.7312 20.8695 24.1652C22.9619 20.7954 26.1401 18.5277 29.4236 16.8339C33.7626 14.5954 38.3989 13.6554 43.1123 13.257C45.3958 13.067 47.6644 12.7414 49.8675 13.3609C52.5436 14.1147 55.2026 15.5525 57.7967 16.6192C60.7007 17.8126 63.7281 19.0978 65.8012 21.7233C68.3055 24.8949 69.0753 29.617 71.8968 32.4155C72.9821 33.4904 74.3212 34.2246 75.4362 35.2342Z" fill="white"/>
</mask>
<g mask="url(#mask0_10_714)">
<path d="M83.421 56.8782C83.421 56.8782 84.5773 56.9169 84.7976 57.4565C85.0178 57.9962 85.0178 61.7087 85.0178 61.7087H80.0544C80.0544 61.7087 79.9404 57.7967 80.1728 57.4375C80.4052 57.0784 83.421 56.8782 83.421 56.8782Z" fill="#505457"/>
<path d="M81.9618 51.5144C82.1981 51.4321 82.4529 51.4589 82.6722 51.5892C82.7895 51.6614 82.8374 51.8007 82.9348 51.8767C83.0163 51.9401 83.1551 51.8666 83.2222 51.98C83.301 52.113 83.3544 52.3315 83.4166 52.481C83.4965 52.671 83.5686 52.8687 83.6336 53.0676C83.7627 53.4668 83.8647 53.877 83.9386 54.2945C84.0814 55.1246 84.1379 55.9713 84.1071 56.8168C84.0917 57.3235 84.0521 57.8398 83.8825 58.3091C83.6996 58.8228 82.8539 58.6746 82.4811 58.6683C81.8302 58.6565 81.1805 58.618 80.5318 58.553C80.3895 56.9064 80.4182 55.2461 80.6172 53.6072C80.6612 53.2424 80.7163 52.8718 80.8705 52.5494C81.0792 52.1124 81.5048 51.6569 81.9618 51.5144Z" fill="#473F47"/>
<path d="M78.7615 53.0131C78.7615 53.0131 79.9179 53.0518 80.1381 53.5914C80.3584 54.1311 80.3584 57.6985 80.3584 57.6985H75.3972C75.3972 57.6985 75.2832 53.9322 75.5155 53.5724C75.7479 53.2126 78.7615 53.0131 78.7615 53.0131Z" fill="white"/>
<path d="M78.1079 65.9698C78.1079 65.9698 77.8915 57.6143 77.7225 57.3299C77.5535 57.0455 76.146 56.4589 74.4 56.6008C72.6539 56.7427 72.1253 57.3274 72.1253 57.3274L71.6771 65.9673L78.1079 65.9698Z" fill="#505457"/>
<path d="M76.7804 61.5586C76.7804 61.5586 75.8993 62.0172 75.8008 62.3643C75.7022 62.7115 75.4544 65.9698 75.4544 65.9698H82.312C82.312 65.9698 81.9348 62.2199 81.6584 61.9019C81.382 61.584 78.2373 61.1577 76.7804 61.5586Z" fill="white"/>
<path d="M79.9184 56.1359C79.9735 56.1454 80.0285 56.1359 80.0875 56.1454C80.1536 56.1557 80.216 56.1868 80.2678 56.2353C80.3196 56.2838 80.3588 56.3478 80.3809 56.4203C80.3912 56.472 80.4062 56.5223 80.4255 56.5704C80.4559 56.6172 80.49 56.6607 80.5274 56.7002C80.5637 56.7512 80.5861 56.8133 80.5921 56.8788C80.5981 56.9443 80.5873 57.0104 80.561 57.0689C80.6254 57.1105 80.6797 57.1701 80.7189 57.2421C80.758 57.3142 80.7808 57.3964 80.7851 57.4813C80.7851 57.5446 80.7785 57.613 80.7851 57.6789C80.8011 57.8841 80.947 58.0406 81.0224 58.2274C81.0875 58.4054 81.0913 58.6052 81.033 58.7862C80.9747 58.9673 80.8587 59.116 80.7086 59.2023C80.8089 59.3175 80.8668 59.4728 80.87 59.6359C80.8733 59.799 80.8218 59.9572 80.7262 60.0776C80.8793 60.2208 81.0378 60.3728 81.1116 60.5844C81.1854 60.796 81.1447 61.0778 80.9696 61.1811C81.0287 61.2544 81.0677 61.3462 81.0816 61.4449C81.0955 61.5436 81.0837 61.6449 81.0477 61.7359C81.0117 61.8269 80.953 61.9037 80.8792 61.9564C80.8053 62.0092 80.7195 62.0356 80.6326 62.0324C80.6585 62.1365 80.661 62.2464 80.6399 62.352C80.6188 62.4575 80.5747 62.5551 80.5117 62.6356C80.4488 62.7162 80.3692 62.777 80.2802 62.8124C80.1913 62.8478 80.0959 62.8567 80.0032 62.8381C80.021 63.1186 80.0025 63.4006 79.9481 63.6749C79.5952 63.7678 79.2262 63.7378 78.8882 63.5887C78.7478 63.7027 78.6024 63.8199 78.4344 63.8617C78.2665 63.9035 78.0683 63.8509 77.9747 63.685C77.9196 63.5919 77.8998 63.4646 77.8095 63.4196C77.7717 63.4035 77.7313 63.3969 77.6911 63.4H77.076C77.0309 63.4056 76.9853 63.3938 76.9466 63.3664C76.9178 63.3349 76.8986 63.2936 76.8916 63.2486C76.8462 63.0573 76.84 62.8565 76.8734 62.662C76.8239 62.639 76.7789 62.6048 76.741 62.5616C76.7031 62.5184 76.6731 62.467 76.6526 62.4103C76.6321 62.3536 76.6216 62.2928 76.6217 62.2314C76.6218 62.17 76.6325 62.1093 76.6531 62.0527C76.6835 61.9955 76.7087 61.9351 76.7286 61.8721C76.7501 61.767 76.7077 61.6606 76.6906 61.5554C76.6678 61.4067 76.6963 61.2536 76.7699 61.1285C76.8029 61.0859 76.827 61.0352 76.8404 60.9803C76.8492 60.9081 76.8101 60.8403 76.7781 60.777C76.7224 60.6622 76.6879 60.5354 76.6769 60.4046C76.6659 60.2738 76.6786 60.1417 76.7143 60.0168C76.7396 59.9282 76.7776 59.8395 76.7693 59.7464C76.76 59.6909 76.7447 59.6371 76.7236 59.5861C76.6819 59.461 76.6638 59.3271 76.6705 59.1933C76.6773 59.0595 76.7087 58.9289 76.7627 58.8102C76.7978 58.75 76.8232 58.6831 76.8376 58.6125C76.8408 58.552 76.8347 58.4913 76.8194 58.4333C76.7561 58.1104 76.749 57.7763 76.7985 57.4502C76.8266 57.2665 76.8866 57.0702 77.0309 56.9827C77.0625 56.9697 77.0908 56.9479 77.1135 56.9194C77.1296 56.8829 77.1363 56.8417 77.1327 56.801C77.1373 56.7279 77.1547 56.6567 77.1837 56.5915C77.2127 56.5263 77.2529 56.4685 77.3018 56.4216C77.3506 56.3747 77.4072 56.3395 77.4682 56.3183C77.5291 56.2971 77.5931 56.2902 77.6564 56.298C77.7401 55.9142 78.1812 55.7013 78.4779 55.9021C78.5001 55.8013 78.5486 55.7108 78.617 55.6428C78.6853 55.5748 78.7702 55.5327 78.8601 55.5221C79.0803 55.5012 79.1982 55.7121 79.3595 55.8116C79.5209 55.911 79.7384 56.1067 79.9184 56.1359Z" fill="#473F47"/>
<path d="M75.8536 56.3006C75.8303 56.2761 75.8004 56.2615 75.7688 56.2594C75.5904 56.229 75.4115 56.2923 75.2347 56.3322C74.8212 56.426 74.3945 56.3899 73.9738 56.3645C73.963 56.3629 73.9521 56.3642 73.9418 56.3683C73.9302 56.3755 73.9213 56.3872 73.9165 56.4013C73.903 56.4406 73.8994 56.4835 73.9061 56.5251C73.9128 56.5666 73.9296 56.6052 73.9545 56.6363C74.0049 56.6977 74.0671 56.7446 74.1362 56.7731C74.2396 56.8227 74.3472 56.8596 74.4572 56.8833C74.5946 56.91 74.7336 56.9238 74.873 56.9245C75.1301 56.9302 75.3966 56.9175 75.6389 56.8092C75.7087 56.7857 75.7678 56.7322 75.8041 56.6597C75.8465 56.5736 75.9247 56.3886 75.8536 56.3006Z" fill="white"/>
<path d="M76.4753 52.4032C76.5296 52.4786 76.576 52.561 76.6135 52.6489C76.739 52.946 76.7688 53.2823 76.7726 53.6143C76.7838 53.9 76.7441 54.1854 76.6559 54.4529C76.5579 54.7272 76.396 54.9337 76.26 55.1851C76.1433 55.3992 76.0585 55.6349 75.9329 55.8426C75.8204 56.0315 75.6747 56.1911 75.5052 56.3111C75.3357 56.4312 75.1462 56.5089 74.9489 56.5394C74.7513 56.5657 74.5511 56.5361 74.3656 56.4534C74.1802 56.3706 74.0151 56.2371 73.8846 56.0643C73.7585 55.8895 73.6748 55.6805 73.5723 55.486C73.4726 55.3174 73.3807 55.1427 73.297 54.9628C73.1814 54.6784 73.1489 54.3598 73.128 54.0469C73.0998 53.7422 73.1055 53.4346 73.1451 53.1316C73.1852 52.8265 73.3066 52.5433 73.4925 52.3208C73.6135 52.197 73.7472 52.0906 73.8906 52.0041C74.1301 51.8432 74.3735 51.6804 74.6422 51.6006C74.9109 51.5208 75.2127 51.5335 75.4456 51.7064C75.5458 51.7805 75.6334 51.8755 75.7352 51.9465C75.8371 52.0174 75.9593 52.044 76.0766 52.0909C76.2316 52.1516 76.3694 52.2595 76.4753 52.4032Z" fill="#473F47"/>
<path d="M39.0123 56.9137C39.0123 56.9137 40.1687 56.9523 40.3889 57.492C40.6092 58.0317 40.6092 64.8397 40.6092 64.8397H35.648C35.648 64.8397 35.5296 57.8341 35.7619 57.473C35.9943 57.112 39.0123 56.9137 39.0123 56.9137Z" fill="#505457"/>
<path d="M35.7619 54.9742C35.7592 54.3002 35.8412 53.6117 36.1077 53.0105C36.6479 51.7956 38.0515 51.0032 39.0184 52.0927C39.4495 52.5786 39.639 53.3133 39.5608 54.0019C39.4963 54.5719 39.2629 55.1192 39.2932 55.6931C39.3207 56.2163 39.563 56.6869 39.7639 57.1576C39.9649 57.6282 40.1318 58.1666 39.9996 58.6683C39.8856 59.1022 39.5591 59.4284 39.1984 59.6083C38.8378 59.7882 38.4375 59.8382 38.0449 59.8756C37.6429 59.9136 37.2189 59.9389 36.8549 59.7394C36.2201 59.3986 36.2867 58.4795 36.1391 57.8068C35.9343 56.8839 35.7663 55.9338 35.7619 54.9742Z" fill="#473F47"/>
<path d="M70.969 65.9698C70.969 65.9698 70.7526 57.6143 70.5835 57.3299C70.4145 57.0455 69.007 56.4589 67.261 56.6008C65.5149 56.7427 64.9885 57.3274 64.9885 57.3274L64.5403 65.9673L70.969 65.9698Z" fill="#665966"/>
<path d="M69.6414 61.5586C69.6414 61.5586 68.7604 62.0172 68.6623 62.3643C68.5643 62.7115 68.316 70.4303 68.316 70.4303H75.1742C75.1742 70.4303 74.797 62.2199 74.5205 61.9019C74.2441 61.584 71.0984 61.1577 69.6414 61.5586Z" fill="white"/>
<path d="M72.7794 56.1359C72.8345 56.1454 72.8929 56.1359 72.949 56.1454C73.0152 56.1557 73.0776 56.1868 73.1294 56.2353C73.1812 56.2838 73.2203 56.3478 73.2425 56.4203C73.2526 56.4719 73.2674 56.5223 73.2866 56.5704C73.3173 56.6169 73.3514 56.6603 73.3884 56.7002C73.4248 56.7512 73.4474 56.8132 73.4534 56.8787C73.4595 56.9442 73.4488 57.0103 73.4226 57.0689C73.4869 57.1106 73.5411 57.1702 73.5801 57.2422C73.6192 57.3143 73.6419 57.3965 73.6461 57.4813C73.6489 57.5446 73.6401 57.613 73.6461 57.6789C73.6627 57.8841 73.8113 58.0406 73.884 58.2274C73.9491 58.4055 73.9528 58.6053 73.8944 58.7864C73.836 58.9674 73.7199 59.1161 73.5696 59.2023C73.67 59.3174 73.728 59.4727 73.7314 59.6358C73.7347 59.7988 73.6833 59.9571 73.5878 60.0776C73.7403 60.2208 73.8994 60.3728 73.9732 60.5844C74.047 60.796 74.0068 61.0778 73.8312 61.1811C73.8903 61.2544 73.9293 61.3462 73.9432 61.4449C73.9571 61.5436 73.9453 61.6449 73.9093 61.7359C73.8733 61.8269 73.8146 61.9037 73.7407 61.9564C73.6669 62.0092 73.5811 62.0356 73.4942 62.0324C73.5203 62.1365 73.5229 62.2465 73.5018 62.3521C73.4807 62.4577 73.4366 62.5554 73.3737 62.636C73.3107 62.7166 73.231 62.7774 73.142 62.8128C73.0529 62.8481 72.9576 62.8569 72.8648 62.8381C72.8823 63.1186 72.8638 63.4006 72.8097 63.6749C72.4566 63.7678 72.0875 63.7378 71.7492 63.5887C71.6093 63.7027 71.464 63.8199 71.296 63.8617C71.1281 63.9035 70.9299 63.8509 70.8363 63.685C70.7812 63.5919 70.7608 63.4646 70.6711 63.4196C70.6334 63.4035 70.5933 63.3968 70.5532 63.4H69.9382C69.893 63.4057 69.8474 63.3939 69.8088 63.3664C69.78 63.3349 69.7607 63.2936 69.7537 63.2486C69.7081 63.0573 69.7019 62.8565 69.7355 62.662C69.686 62.639 69.641 62.605 69.603 62.5618C69.5651 62.5186 69.535 62.4671 69.5145 62.4104C69.494 62.3537 69.4835 62.2929 69.4836 62.2314C69.4838 62.17 69.4945 62.1092 69.5153 62.0527C69.5456 61.9956 69.5707 61.9351 69.5902 61.8721C69.6122 61.767 69.5692 61.6606 69.5527 61.5554C69.53 61.4067 69.5584 61.2536 69.632 61.1285C69.6648 61.0859 69.6888 61.0352 69.7019 60.9803C69.7113 60.9081 69.6717 60.8403 69.6403 60.777C69.5844 60.6623 69.5498 60.5355 69.5388 60.4047C69.5277 60.2738 69.5403 60.1418 69.5759 60.0168C69.6017 59.9282 69.6397 59.8395 69.6309 59.7464C69.6219 59.6909 69.6065 59.637 69.5852 59.5861C69.5436 59.461 69.5255 59.327 69.5324 59.1932C69.5392 59.0594 69.5707 58.9289 69.6249 58.8102C69.6597 58.7499 69.6851 58.683 69.6997 58.6125C69.703 58.552 69.6968 58.4913 69.6816 58.4333C69.6182 58.1104 69.6111 57.7763 69.6607 57.4502C69.6887 57.2665 69.7482 57.0702 69.893 56.9827C69.9245 56.9695 69.9529 56.9478 69.9756 56.9194C69.9916 56.8828 69.9981 56.8417 69.9943 56.801C69.999 56.7279 70.0164 56.6566 70.0455 56.5915C70.0746 56.5263 70.1148 56.4685 70.1637 56.4216C70.2126 56.3746 70.2692 56.3395 70.3302 56.3183C70.3912 56.2971 70.4552 56.2902 70.5185 56.298C70.6022 55.9142 71.0433 55.7013 71.3401 55.9021C71.3622 55.8014 71.4106 55.711 71.4789 55.643C71.5471 55.575 71.6319 55.5328 71.7217 55.5221C71.9419 55.5012 72.0603 55.7121 72.2211 55.8116C72.3819 55.911 72.5999 56.1067 72.7794 56.1359Z" fill="#CD8809"/>
<path d="M68.7147 56.3006C68.6916 56.2761 68.6618 56.2615 68.6304 56.2594C68.452 56.229 68.2731 56.2923 68.0963 56.3322C67.6822 56.426 67.256 56.3899 66.8353 56.3645C66.8244 56.3629 66.8133 56.3642 66.8029 56.3683C66.7916 56.3759 66.7827 56.3875 66.7775 56.4013C66.7643 56.4406 66.7608 56.4835 66.7675 56.525C66.7742 56.5665 66.7909 56.605 66.8155 56.6363C66.8662 56.6976 66.9286 56.7444 66.9978 56.7731C67.1011 56.8228 67.2087 56.8597 67.3188 56.8833C67.456 56.91 67.5948 56.9238 67.734 56.9245C67.9911 56.9302 68.2576 56.9175 68.5005 56.8092C68.5704 56.786 68.6296 56.7324 68.6657 56.6597C68.7081 56.5736 68.784 56.3886 68.7147 56.3006Z" fill="white"/>
<path d="M69.3347 52.4032C69.3894 52.4782 69.4358 52.5608 69.4729 52.6489C69.5984 52.946 69.6282 53.2823 69.632 53.6143C69.6434 53.9001 69.6037 54.1855 69.5153 54.4529C69.4178 54.7272 69.2554 54.9337 69.1194 55.1851C69.0032 55.3992 68.9178 55.6349 68.7923 55.8426C68.6799 56.0316 68.5342 56.1913 68.3647 56.3113C68.1952 56.4314 68.0056 56.5091 67.8083 56.5394C67.6108 56.5657 67.4107 56.5361 67.2253 56.4534C67.0399 56.3706 66.8749 56.237 66.7445 56.0643C66.6179 55.8895 66.5342 55.6805 66.4317 55.486C66.3323 55.3171 66.2404 55.1425 66.1564 54.9628C66.0408 54.6784 66.0088 54.3598 65.9879 54.0469C65.9595 53.7422 65.9651 53.4346 66.0044 53.1316C66.0448 52.8266 66.1662 52.5434 66.3519 52.3208C66.4731 52.197 66.607 52.0906 66.7506 52.0041C66.9901 51.8432 67.2335 51.6804 67.5022 51.6006C67.7709 51.5208 68.0721 51.5335 68.3055 51.7064C68.4052 51.7805 68.4928 51.8755 68.5946 51.9465C68.6965 52.0174 68.8193 52.044 68.9366 52.0909C69.0913 52.1518 69.2289 52.2597 69.3347 52.4032Z" fill="#CD8809"/>
<path d="M65.891 61.1393C65.891 61.1393 67.0473 61.178 67.2676 61.7177C67.4879 62.2573 67.4879 65.9698 67.4879 65.9698H62.5266C62.5266 65.9698 62.4127 62.0578 62.6456 61.6987C62.8785 61.3395 65.891 61.1393 65.891 61.1393Z" fill="#505457"/>
<path d="M64.4318 55.7755C64.6679 55.6931 64.9225 55.7199 65.1416 55.8502C65.2589 55.9224 65.3068 56.0618 65.4048 56.1378C65.4857 56.2011 65.6251 56.1277 65.6922 56.241C65.771 56.3741 65.8238 56.5926 65.8861 56.7421C65.9659 56.9321 66.038 57.1297 66.103 57.3286C66.2327 57.7277 66.3347 58.138 66.4081 58.5556C66.551 59.3857 66.6077 60.2324 66.5771 61.0779C66.5617 61.5846 66.522 62.1008 66.3519 62.5702C66.1691 63.0839 65.3233 62.9357 64.9505 62.9294C64.2997 62.9171 63.6499 62.8787 63.0013 62.8141C62.8592 61.1674 62.8879 59.5072 63.0866 57.8683C63.1312 57.5035 63.1863 57.1329 63.3405 56.8105C63.5492 56.3734 63.9759 55.918 64.4318 55.7755Z" fill="#473F47"/>
<path d="M65.722 60.91C65.722 60.91 66.8783 60.9487 67.0985 61.4883C67.3188 62.028 67.3188 65.7405 67.3188 65.7405H62.3576C62.3576 65.7405 62.2436 61.8291 62.4765 61.4693C62.7094 61.1096 65.722 60.91 65.722 60.91Z" fill="#505457"/>
<path d="M64.2628 55.5462C64.4991 55.464 64.7539 55.4911 64.9731 55.6215C65.0904 55.6931 65.1383 55.8325 65.2358 55.9091C65.3172 55.9725 65.456 55.899 65.5237 56.0124C65.6019 56.1447 65.6553 56.3639 65.7176 56.5128C65.7976 56.7045 65.8699 56.9002 65.9345 57.0999C66.0638 57.4989 66.1658 57.909 66.2396 58.3263C66.3824 59.1566 66.4392 60.0035 66.4086 60.8492C66.3932 61.3559 66.3535 61.8715 66.1834 62.3415C66.0006 62.8546 65.1548 62.707 64.782 62.7C64.1312 62.6878 63.4814 62.6494 62.8328 62.5847C62.6907 60.9381 62.7194 59.2779 62.9181 57.639C62.9627 57.2748 63.0178 56.9036 63.1714 56.5812C63.3807 56.1447 63.8058 55.6893 64.2628 55.5462Z" fill="#473F47"/>
<path d="M61.0625 57.0455C61.0625 57.0455 62.2188 57.0835 62.4391 57.6238C62.6593 58.1641 62.6593 61.7303 62.6593 61.7303H57.6981C57.6981 61.7303 57.5841 57.9639 57.8171 57.6042C58.05 57.2444 61.0625 57.0455 61.0625 57.0455Z" fill="white"/>
<path d="M60.1815 51.8312C60.4744 51.9718 60.6644 52.2993 60.8142 52.6223C61.4589 54.0159 61.666 55.6361 61.6181 57.2153C61.6027 57.722 61.563 58.2382 61.3929 58.7076C61.3697 58.7913 61.3257 58.8653 61.2662 58.9204C61.1954 58.9643 61.1152 58.9843 61.035 58.9781C60.1582 58.9996 59.2811 58.9673 58.4073 58.8812C58.1138 57.6435 57.8181 56.3887 57.8126 55.1053C57.8099 54.432 57.8914 53.7435 58.1584 53.1417C58.4255 52.54 58.8968 52.0396 59.469 51.8958C59.8428 51.802 60.3054 51.9173 60.4645 52.3176" fill="#CD8809"/>
<path d="M60.4089 70.0015C60.4089 70.0015 60.1925 61.6466 60.0234 61.3622C59.8544 61.0778 58.447 60.4906 56.7004 60.6332C54.9537 60.7757 54.4279 61.3622 54.4279 61.3622L53.9797 70.0015H60.4089Z" fill="#665966"/>
<path d="M59.0813 65.591C59.0813 65.591 58.2003 66.0496 58.1023 66.3967C58.0043 66.7438 57.7537 70.0015 57.7537 70.0015H64.6135C64.6135 70.0015 64.2369 66.2516 63.9599 65.9337C63.683 65.6157 60.5383 65.19 59.0813 65.591Z" fill="#473F47"/>
<path d="M62.2194 60.1682C62.2744 60.1771 62.3295 60.1682 62.3884 60.1771C62.4547 60.1874 62.5172 60.2186 62.569 60.2672C62.6208 60.3158 62.6599 60.38 62.6819 60.4526C62.6925 60.5042 62.7075 60.5545 62.7265 60.6027C62.7573 60.6482 62.7914 60.6906 62.8284 60.7294C62.8646 60.7803 62.8872 60.8422 62.8931 60.9076C62.8991 60.9731 62.8883 61.039 62.862 61.0974C62.9264 61.139 62.9807 61.1986 63.0198 61.2707C63.059 61.3427 63.0818 61.425 63.0861 61.5098C63.0861 61.5731 63.08 61.6416 63.0861 61.7074C63.1026 61.9127 63.248 62.0691 63.324 62.256C63.3892 62.4341 63.393 62.6341 63.3346 62.8153C63.2761 62.9965 63.1599 63.1453 63.0095 63.2314C63.1097 63.3466 63.1675 63.5018 63.1708 63.6648C63.174 63.8277 63.1226 63.9858 63.0272 64.1062C63.1802 64.2494 63.3388 64.4014 63.4126 64.6129C63.4864 64.8245 63.4462 65.1064 63.2705 65.2103C63.3295 65.2836 63.3684 65.3753 63.3822 65.4739C63.396 65.5726 63.3841 65.6737 63.3481 65.7646C63.3121 65.8555 63.2535 65.9321 63.1798 65.9848C63.106 66.0376 63.0204 66.064 62.9336 66.0609C62.9603 66.1653 62.9634 66.2758 62.9426 66.382C62.9218 66.4882 62.8779 66.5865 62.8149 66.6677C62.7518 66.7488 62.6719 66.8102 62.5825 66.8459C62.4932 66.8816 62.3974 66.8905 62.3042 66.8717C62.3217 67.152 62.3032 67.4338 62.2491 67.7078C61.8962 67.8013 61.5271 67.7713 61.1891 67.6217C61.0487 67.7363 60.9034 67.8529 60.7354 67.8947C60.5675 67.9365 60.3692 67.8839 60.2762 67.718C60.2239 67.6255 60.2008 67.4982 60.111 67.4526C60.0733 67.4367 60.0332 67.4302 59.9932 67.4336H59.3776C59.3325 67.4391 59.287 67.4275 59.2482 67.4006C59.2193 67.3689 59.2 67.3274 59.1931 67.2822C59.1473 67.091 59.1409 66.8902 59.1744 66.6956C59.125 66.6725 59.08 66.6383 59.0421 66.5951C59.0043 66.5519 58.9742 66.5005 58.9538 66.4438C58.9333 66.3871 58.9228 66.3264 58.9228 66.265C58.9229 66.2036 58.9335 66.1429 58.9541 66.0863C58.9844 66.0294 59.0097 65.9691 59.0296 65.9064C59.0516 65.8012 59.0086 65.6942 58.9921 65.5897C58.9694 65.4407 58.9978 65.2874 59.0714 65.1621C59.1039 65.1195 59.1278 65.0691 59.1413 65.0145C59.1507 64.9417 59.111 64.8745 59.0797 64.8106C59.0238 64.6959 58.9892 64.5691 58.9781 64.4383C58.9671 64.3075 58.9797 64.1754 59.0152 64.0505C59.0411 63.9618 59.0786 63.8731 59.0703 63.7806C59.0611 63.725 59.0457 63.6709 59.0246 63.6197C58.9828 63.4947 58.9647 63.3609 58.9715 63.2272C58.9782 63.0935 59.0096 62.963 59.0637 62.8444C59.0987 62.7842 59.1241 62.7173 59.1386 62.6468C59.1421 62.5863 59.136 62.5255 59.1204 62.4675C59.057 62.1444 59.05 61.81 59.1 61.4838C59.1281 61.3008 59.1876 61.1038 59.3319 61.017C59.3635 61.0041 59.3919 60.9823 59.4144 60.9537C59.4306 60.9169 59.4373 60.8756 59.4337 60.8346C59.4383 60.7615 59.4556 60.6903 59.4847 60.6252C59.5137 60.5601 59.5539 60.5023 59.6028 60.4554C59.6516 60.4085 59.7082 60.3735 59.7692 60.3523C59.8301 60.3311 59.8941 60.3243 59.9574 60.3323C60.0416 59.9478 60.4821 59.7349 60.7795 59.9357C60.8021 59.8358 60.8508 59.7461 60.919 59.6789C60.9872 59.6116 61.0717 59.57 61.1611 59.5595C61.3813 59.5386 61.4992 59.7495 61.6605 59.8483C61.8218 59.9471 62.0399 60.1391 62.2194 60.1682Z" fill="#A36A0F"/>
<path d="M58.1546 60.3323C58.1313 60.3077 58.1013 60.2932 58.0698 60.2911C57.8914 60.2607 57.713 60.3247 57.5357 60.3646C57.1221 60.4577 56.696 60.4216 56.2747 60.3963C56.2639 60.3949 56.253 60.3964 56.2428 60.4007C56.2312 60.4079 56.2222 60.4196 56.2175 60.4337C56.2039 60.473 56.2003 60.5159 56.2071 60.5574C56.2138 60.599 56.2306 60.6376 56.2555 60.6687C56.306 60.73 56.3684 60.7767 56.4377 60.8048C56.5408 60.8547 56.6482 60.8917 56.7582 60.9151C56.8955 60.9421 57.0346 60.9558 57.1739 60.9562C57.4311 60.9626 57.6976 60.9493 57.9398 60.8409C58.0096 60.8175 58.0688 60.7639 58.105 60.6915C58.148 60.6053 58.224 60.4204 58.1546 60.3323Z" fill="white"/>
<path d="M58.7746 56.4355C58.8292 56.5106 58.8756 56.5932 58.9128 56.6813C59.0383 56.9783 59.0681 57.3147 59.0719 57.6466C59.0831 57.9322 59.0434 58.2174 58.9552 58.4846C58.8572 58.7589 58.6953 58.966 58.5593 59.2168C58.4431 59.4316 58.3578 59.6672 58.2322 59.8743C58.1195 60.0627 57.9737 60.2218 57.8042 60.3413C57.6347 60.4607 57.4453 60.538 57.2482 60.5679C57.0507 60.5943 56.8505 60.5648 56.665 60.4822C56.4796 60.3995 56.3144 60.2661 56.1839 60.0935C56.0578 59.9187 55.9741 59.709 55.8717 59.5146C55.7716 59.3461 55.6797 59.1714 55.5963 58.9914C55.4807 58.7069 55.4482 58.3883 55.4273 58.0754C55.3994 57.7707 55.4051 57.4632 55.4444 57.1601C55.4847 56.8553 55.6061 56.5723 55.7918 56.35C55.9126 56.225 56.0463 56.1176 56.1899 56.0301C56.4294 55.8692 56.6734 55.7071 56.9415 55.6272C57.2097 55.5474 57.512 55.5595 57.7449 55.7324C57.8451 55.8065 57.9327 55.9021 58.0345 55.9725C58.1364 56.0428 58.2587 56.0706 58.3759 56.1169C58.5315 56.1794 58.6693 56.2896 58.7746 56.4355Z" fill="#684712"/>
<path d="M53.9241 57.0455C53.9241 57.0455 55.0804 57.0835 55.3007 57.6238C55.5209 58.1641 55.5209 61.7303 55.5209 61.7303H50.5597C50.5597 61.7303 50.4457 57.9639 50.6781 57.6042C50.9104 57.2444 53.9241 57.0455 53.9241 57.0455Z" fill="#505457"/>
<path d="M53.0425 51.8312C53.336 51.9718 53.526 52.2993 53.6752 52.6223C54.3205 54.0159 54.527 55.6361 54.4791 57.2153C54.4637 57.722 54.424 58.2382 54.2545 58.7076C54.2313 58.7913 54.1873 58.8653 54.1278 58.9204C54.0569 58.9642 53.9768 58.9842 53.8965 58.9781C53.0198 58.9996 52.1427 58.9673 51.2689 58.8812C50.9754 57.6435 50.6792 56.3887 50.6737 55.1053C50.6737 54.432 50.753 53.7435 51.0195 53.1417C51.286 52.54 51.7579 52.0396 52.3305 51.8958C52.7044 51.802 53.167 51.9173 53.3261 52.3176" fill="#473F47"/>
<path d="M25.0824 57.0455C25.0824 57.0455 26.2387 57.0835 26.459 57.6238C26.6792 58.1641 26.6792 66.5063 26.6792 66.5063H21.718C21.718 66.5063 21.604 57.9639 21.8369 57.6042C22.0699 57.2444 25.0824 57.0455 25.0824 57.0455Z" fill="#505457"/>
<path d="M24.2014 51.8312C24.4943 51.9718 24.6843 52.2993 24.834 52.6223C25.4788 54.0159 25.6859 55.6361 25.6374 57.2153C25.6225 57.722 25.5823 58.2382 25.4127 58.7076C25.3896 58.7913 25.3456 58.8653 25.2861 58.9204C25.2153 58.9643 25.1351 58.9843 25.0548 58.9781C24.1781 58.9996 23.301 58.9673 22.4272 58.8812C22.1337 57.6435 21.838 56.3887 21.8325 55.1053C21.8292 54.432 21.9113 53.7435 22.1778 53.1417C22.4443 52.54 22.9167 52.0396 23.4888 51.8958C23.8627 51.802 24.3252 51.9173 24.4844 52.3176" fill="#473F47"/>
<path d="M33.9052 66.3669C33.9052 66.3669 33.6888 58.0121 33.5198 57.7276C33.3507 57.4432 31.9438 56.8561 30.1972 56.9986C28.4506 57.1411 27.9253 57.7276 27.9253 57.7276L27.4771 66.3669H33.9052Z" fill="#665966"/>
<path d="M32.5776 61.9564C32.5776 61.9564 31.6966 62.415 31.5986 62.7621C31.5006 63.1092 31.2522 66.3669 31.2522 66.3669H38.1098C38.1098 66.3669 37.7327 62.6171 37.4562 62.2991C37.1798 61.9811 34.034 61.5554 32.5776 61.9564Z" fill="#473F47"/>
<path d="M35.7157 56.5337C35.7707 56.5426 35.8286 56.5337 35.8847 56.5426C35.951 56.5529 36.0135 56.5841 36.0653 56.6327C36.1171 56.6813 36.1562 56.7455 36.1782 56.8181C36.1888 56.8695 36.2037 56.9196 36.2228 56.9676C36.2533 57.0145 36.2874 57.0582 36.3247 57.0981C36.3609 57.1489 36.3835 57.2109 36.3894 57.2763C36.3954 57.3417 36.3846 57.4077 36.3583 57.4661C36.4227 57.5077 36.477 57.5673 36.5161 57.6393C36.5553 57.7114 36.5781 57.7936 36.5824 57.8785C36.5851 57.9418 36.5758 58.0102 36.5824 58.0761C36.5989 58.2813 36.7443 58.4378 36.8202 58.6246C36.8855 58.8027 36.8893 59.0027 36.8308 59.1839C36.7724 59.3651 36.6562 59.514 36.5058 59.6001C36.606 59.7153 36.6638 59.8705 36.667 60.0334C36.6703 60.1963 36.6189 60.3544 36.5235 60.4749C36.6765 60.618 36.8351 60.77 36.9089 60.9816C36.9827 61.1932 36.9425 61.475 36.7668 61.5789C36.8258 61.6522 36.8647 61.744 36.8785 61.8426C36.8922 61.9412 36.8804 62.0423 36.8444 62.1332C36.8084 62.2241 36.7498 62.3008 36.6761 62.3535C36.6023 62.4062 36.5166 62.4327 36.4298 62.4296C36.4566 62.5341 36.4597 62.6446 36.4389 62.7509C36.4181 62.8571 36.3741 62.9555 36.311 63.0366C36.2479 63.1178 36.1679 63.1792 36.0785 63.2148C35.989 63.2505 35.8931 63.2593 35.7999 63.2404C35.8177 63.5207 35.7992 63.8025 35.7449 64.0765C35.3909 64.1698 35.0208 64.1391 34.6821 63.9885C34.5417 64.1031 34.3964 64.2196 34.2284 64.2615C34.0605 64.3033 33.8622 64.2507 33.7686 64.0847C33.7169 63.9923 33.6937 63.8649 33.6062 63.8193C33.5685 63.8035 33.5284 63.797 33.4884 63.8003H32.8728C32.8276 63.8059 32.7822 63.7943 32.7434 63.7674C32.7147 63.7355 32.6955 63.694 32.6883 63.6489C32.6429 63.4577 32.6367 63.2569 32.6701 63.0624C32.6207 63.0393 32.5758 63.0051 32.5379 62.9619C32.5 62.9187 32.47 62.8672 32.4495 62.8106C32.429 62.7539 32.4185 62.6931 32.4186 62.6318C32.4186 62.5704 32.4293 62.5096 32.4499 62.453C32.4802 62.3961 32.5054 62.3359 32.5253 62.2731C32.5473 62.168 32.5044 62.0609 32.4873 61.9564C32.4651 61.8074 32.4937 61.6543 32.5671 61.5289C32.5996 61.4862 32.6235 61.4358 32.6371 61.3813C32.6464 61.3084 32.6068 61.2413 32.5749 61.1773C32.5191 61.0626 32.4846 60.9358 32.4736 60.805C32.4626 60.6741 32.4753 60.5421 32.511 60.4172C32.5363 60.3285 32.5743 60.2399 32.566 60.1474C32.5568 60.0917 32.5415 60.0377 32.5203 59.9865C32.4786 59.8615 32.4605 59.7277 32.4672 59.594C32.4739 59.4603 32.5054 59.3298 32.5594 59.2112C32.5944 59.151 32.6198 59.084 32.6343 59.0136C32.6376 58.953 32.6315 58.8923 32.6162 58.8343C32.5528 58.5112 32.5457 58.1769 32.5952 57.8506C32.6233 57.6675 32.6833 57.4705 32.8276 57.3838C32.8591 57.3704 32.8874 57.3487 32.9102 57.3204C32.9264 57.2837 32.9331 57.2423 32.9295 57.2013C32.934 57.1283 32.9514 57.0571 32.9804 56.992C33.0095 56.9268 33.0496 56.8691 33.0985 56.8222C33.1474 56.7753 33.204 56.7402 33.2649 56.7191C33.3258 56.6979 33.3898 56.6911 33.4531 56.699C33.5368 56.3145 33.9779 56.1017 34.2752 56.3025C34.2979 56.2025 34.3466 56.1129 34.4148 56.0456C34.483 55.9784 34.5674 55.9367 34.6568 55.9263C34.8798 55.9053 34.9949 56.1163 35.1562 56.2151C35.3176 56.3139 35.5362 56.5039 35.7157 56.5337Z" fill="#CD8809"/>
<path d="M31.6537 56.6978C31.6303 56.6733 31.6004 56.6587 31.5689 56.6566C31.3905 56.6262 31.2115 56.6902 31.0347 56.7301C30.6212 56.8232 30.195 56.7871 29.7738 56.7618C29.763 56.7603 29.7521 56.7619 29.7419 56.7662C29.7303 56.7733 29.7213 56.785 29.7165 56.7991C29.703 56.8385 29.6994 56.8814 29.7061 56.9229C29.7129 56.9645 29.7296 57.003 29.7545 57.0341C29.805 57.0955 29.8675 57.1422 29.9368 57.1703C30.0398 57.2202 30.1473 57.2572 30.2572 57.2805C30.3946 57.3076 30.5336 57.3213 30.673 57.3217C30.9301 57.328 31.1966 57.3147 31.4389 57.2064C31.5087 57.183 31.5678 57.1294 31.6041 57.0569C31.6437 56.9708 31.7203 56.7858 31.6537 56.6978Z" fill="white"/>
<path d="M32.2709 52.801C32.3256 52.876 32.3721 52.9585 32.4091 53.0467C32.5347 53.3438 32.5644 53.6802 32.5683 54.0121C32.5794 54.2976 32.5397 54.5828 32.4515 54.8501C32.3535 55.1244 32.1916 55.3315 32.0556 55.5823C31.9394 55.7964 31.8541 56.0327 31.7285 56.2398C31.6158 56.4282 31.47 56.5873 31.3005 56.7067C31.131 56.8262 30.9416 56.9034 30.7446 56.9334C30.547 56.9598 30.3468 56.9303 30.1614 56.8477C29.9759 56.765 29.8107 56.6316 29.6802 56.459C29.5541 56.2842 29.4704 56.0745 29.368 55.88C29.2679 55.7116 29.176 55.5369 29.0927 55.3568C28.977 55.0724 28.9445 54.7538 28.9236 54.4409C28.8957 54.1362 28.9014 53.8286 28.9407 53.5256C28.9811 53.2208 29.1024 52.9378 29.2881 52.7155C29.4089 52.5903 29.5426 52.4829 29.6862 52.3956C29.9258 52.2347 30.1697 52.0725 30.4379 51.9927C30.706 51.9129 31.0083 51.9249 31.2412 52.0979C31.3414 52.172 31.429 52.2676 31.5309 52.3379C31.6327 52.4082 31.755 52.4361 31.8723 52.4824C32.0278 52.5449 32.1657 52.6551 32.2709 52.801Z" fill="#CD8809"/>
<path d="M17.9428 57.0455C17.9428 57.0455 19.0992 57.0835 19.3194 57.6238C19.5397 58.1641 19.5397 66.555 19.5397 66.555L14.5785 61.7328C14.5785 61.7328 14.4612 57.9639 14.6941 57.6042C14.927 57.2444 17.9428 57.0455 17.9428 57.0455Z" fill="#505457"/>
<path d="M17.0618 51.8312C17.3553 51.9718 17.5453 52.2993 17.6945 52.6223C18.3398 54.0159 18.5463 55.6361 18.4984 57.2153C18.483 57.722 18.4434 58.2382 18.2738 58.7076C18.2506 58.7913 18.2066 58.8653 18.1471 58.9204C18.0762 58.9642 17.9961 58.9841 17.9159 58.9781C17.0391 58.9996 16.162 58.9673 15.2882 58.8812C14.9953 57.6441 14.6991 56.3887 14.6941 55.1053C14.6913 54.432 14.7734 53.7435 15.0399 53.1417C15.3064 52.54 15.7783 52.0396 16.351 51.8958C16.7248 51.802 17.1874 51.9173 17.3465 52.3176" fill="#473F47"/>
<path d="M53.2705 70.0015C53.2705 70.0015 53.0541 61.6466 52.885 61.3622C52.716 61.0778 51.3086 60.4906 49.5625 60.6332C47.8164 60.7757 47.2917 61.3622 47.2917 61.3622L46.8435 70.0015H53.2705Z" fill="#665966"/>
<path d="M51.9429 65.591C51.9429 65.591 51.0619 66.0496 50.9633 66.3967C50.8647 66.7438 50.6169 70.0015 50.6169 70.0015H57.4751C57.4751 70.0015 57.0979 66.2516 56.8215 65.9337C56.5451 65.6157 53.3993 65.19 51.9429 65.591Z" fill="#473F47"/>
<path d="M55.081 60.1682C55.136 60.1771 55.1911 60.1682 55.25 60.1771C55.3163 60.1874 55.3787 60.2186 55.4305 60.2672C55.4823 60.3159 55.5214 60.38 55.5435 60.4526C55.5539 60.5043 55.5688 60.5546 55.5881 60.6028C55.6189 60.6482 55.653 60.6906 55.69 60.7294C55.7262 60.7803 55.7487 60.8422 55.7547 60.9077C55.7607 60.9731 55.7498 61.0391 55.7235 61.0975C55.788 61.1391 55.8422 61.1986 55.8814 61.2707C55.9206 61.3427 55.9434 61.425 55.9477 61.5098C55.9477 61.5732 55.941 61.6416 55.9477 61.7074C55.9636 61.9127 56.1095 62.0691 56.185 62.256C56.2502 62.434 56.2541 62.634 56.1958 62.8151C56.1375 62.9963 56.0214 63.1452 55.8711 63.2315C55.9713 63.3467 56.029 63.5019 56.0323 63.6648C56.0356 63.8277 55.9842 63.9858 55.8887 64.1062C56.0418 64.2494 56.2004 64.4014 56.2742 64.613C56.348 64.8245 56.3078 65.1064 56.1327 65.2103C56.1916 65.2836 56.2305 65.3753 56.2443 65.4739C56.2581 65.5726 56.2462 65.6737 56.2102 65.7646C56.1742 65.8555 56.1156 65.9321 56.0419 65.9849C55.9681 66.0376 55.8825 66.0641 55.7957 66.061C55.8226 66.1655 55.8259 66.2762 55.8053 66.3826C55.7846 66.489 55.7406 66.5876 55.6775 66.669C55.6144 66.7503 55.5342 66.8118 55.4447 66.8475C55.3551 66.8832 55.2591 66.892 55.1657 66.873C55.1836 67.1533 55.165 67.4351 55.1107 67.7091C54.7578 67.8025 54.3887 67.7725 54.0507 67.623C53.9103 67.7376 53.7649 67.8542 53.597 67.896C53.429 67.9378 53.2308 67.8852 53.1372 67.7193C53.0849 67.6268 53.0623 67.4995 52.9748 67.4538C52.9369 67.438 52.8966 67.4315 52.8564 67.4348H52.2413C52.1962 67.4404 52.1508 67.4288 52.1119 67.4019C52.0831 67.3701 52.0638 67.3287 52.0569 67.2835C52.0115 67.0922 52.0053 66.8914 52.0387 66.6969C51.9892 66.6739 51.9442 66.6397 51.9063 66.5965C51.8684 66.5533 51.8384 66.5019 51.8179 66.4452C51.7974 66.3885 51.7869 66.3277 51.787 66.2663C51.7871 66.2049 51.7978 66.1442 51.8184 66.0876C51.8487 66.0306 51.874 65.9704 51.8939 65.9077C51.9154 65.8025 51.873 65.6955 51.8559 65.591C51.8331 65.442 51.8616 65.2887 51.9352 65.1634C51.968 65.1209 51.9921 65.0704 52.0057 65.0158C52.0145 64.943 51.9748 64.8758 51.9434 64.8118C51.8877 64.6971 51.8532 64.5703 51.8422 64.4395C51.8312 64.3087 51.8439 64.1766 51.8796 64.0517C51.9049 63.9631 51.9429 63.8744 51.9346 63.7819C51.9254 63.7262 51.9101 63.6722 51.8889 63.621C51.8472 63.496 51.829 63.3622 51.8358 63.2285C51.8425 63.0948 51.874 62.9643 51.928 62.8457C51.963 62.7855 51.9884 62.7186 52.0029 62.6481C52.0062 62.5876 52.0001 62.5268 51.9847 62.4688C51.9214 62.1457 51.9143 61.8114 51.9638 61.4851C51.9919 61.3021 52.0519 61.1051 52.1962 61.0183C52.2278 61.0052 52.2561 60.9835 52.2788 60.9549C52.2951 60.9182 52.3016 60.8768 52.2975 60.8359C52.3021 60.7628 52.3195 60.6916 52.3486 60.6264C52.3778 60.5613 52.418 60.5035 52.4669 60.4567C52.5158 60.4098 52.5724 60.3747 52.6334 60.3536C52.6944 60.3324 52.7584 60.3256 52.8217 60.3335C52.9054 59.9491 53.3465 59.7362 53.6432 59.937C53.6659 59.8369 53.7147 59.7472 53.783 59.68C53.8514 59.6127 53.9359 59.5711 54.0254 59.5608C54.2456 59.5399 54.3635 59.7508 54.5248 59.8496C54.6861 59.9484 54.9009 60.1391 55.081 60.1682Z" fill="#CD8809"/>
<path d="M51.0162 60.3323C50.9928 60.3078 50.9629 60.2933 50.9314 60.2911C50.753 60.2607 50.574 60.3247 50.3972 60.3646C49.9837 60.4577 49.557 60.4216 49.1363 60.3963C49.1255 60.3949 49.1146 60.3964 49.1044 60.4007C49.0928 60.4079 49.0838 60.4196 49.079 60.4337C49.0655 60.473 49.0619 60.5159 49.0686 60.5574C49.0754 60.599 49.0921 60.6376 49.117 60.6687C49.1674 60.7299 49.2297 60.7766 49.2987 60.8048C49.402 60.8547 49.5096 60.8917 49.6198 60.9151C49.7571 60.9421 49.8961 60.9559 50.0355 60.9562C50.2926 60.9626 50.5586 60.9493 50.8014 60.8409C50.8713 60.8178 50.9306 60.7641 50.9666 60.6915C51.009 60.6053 51.0855 60.4204 51.0162 60.3323Z" fill="white"/>
<path d="M51.6356 56.4355C51.6904 56.5106 51.737 56.5931 51.7744 56.6813C51.8999 56.9783 51.9297 57.3147 51.9335 57.6466C51.9447 57.9322 51.905 58.2174 51.8168 58.4846C51.7188 58.7589 51.5569 58.966 51.4209 59.2168C51.3042 59.4316 51.2194 59.6672 51.0938 59.8743C50.9811 60.0627 50.8353 60.2218 50.6658 60.3413C50.4963 60.4607 50.3069 60.538 50.1098 60.5679C49.9122 60.5944 49.712 60.565 49.5266 60.4823C49.3411 60.3997 49.1759 60.2662 49.0454 60.0935C48.9194 59.9187 48.8357 59.709 48.7332 59.5146C48.6332 59.3461 48.5413 59.1714 48.4579 58.9914C48.3423 58.7069 48.3098 58.3883 48.2889 58.0754C48.2607 57.7707 48.2664 57.4631 48.3059 57.1601C48.3461 56.8554 48.4673 56.5724 48.6528 56.35C48.7739 56.225 48.9078 56.1176 49.0515 56.0301C49.291 55.8692 49.5344 55.7071 49.8031 55.6272C50.0718 55.5474 50.3736 55.5595 50.6065 55.7324C50.7067 55.8065 50.7943 55.9021 50.8961 55.9725C50.998 56.0428 51.1202 56.0706 51.2375 56.1169C51.393 56.1793 51.5307 56.2895 51.6356 56.4355Z" fill="#CD8809"/>
<path d="M48.192 65.171C48.192 65.171 49.3483 65.2097 49.5685 65.7493C49.7888 66.289 49.7888 70.0015 49.7888 70.0015H44.8276C44.8276 70.0015 44.713 66.0901 44.946 65.7303C45.1789 65.3705 48.192 65.171 48.192 65.171Z" fill="#505457"/>
<path d="M46.7328 59.8072C46.9688 59.7248 47.2236 59.7519 47.4425 59.8826C47.5604 59.9542 47.6077 60.0935 47.7057 60.1702C47.7867 60.2335 47.926 60.16 47.9932 60.2734C48.0719 60.4058 48.1248 60.625 48.187 60.7738C48.267 60.966 48.3404 61.1617 48.4072 61.361C48.5354 61.7593 48.6363 62.1685 48.709 62.5848C48.8522 63.4151 48.9089 64.262 48.878 65.1077C48.8626 65.6145 48.823 66.1301 48.6528 66.6001C48.4706 67.1131 47.6248 66.9655 47.2515 66.9586C46.6014 66.9463 45.9516 66.9079 45.3022 66.8433C45.1601 65.1966 45.1888 63.5364 45.3876 61.8975C45.4322 61.5333 45.4872 61.1621 45.6414 60.8397C45.8501 60.4058 46.2757 59.9504 46.7328 59.8072Z" fill="#473F47"/>
<path d="M64.2628 69.75C64.4991 69.6679 64.7539 69.6949 64.9731 69.8254C65.0904 69.8976 65.1383 70.037 65.2358 70.113C65.3173 70.1763 65.456 70.1028 65.5237 70.2162C65.6019 70.3486 65.6553 70.5678 65.7176 70.7166C65.7974 70.9066 65.8695 71.1049 65.9345 71.3038C66.0639 71.7028 66.1659 72.1128 66.2396 72.5301C66.3825 73.3604 66.4392 74.2073 66.4086 75.053C66.3932 75.5598 66.3535 76.0754 66.1834 76.5454C66.0006 77.0591 65.1548 76.9109 64.782 76.9039C64.1312 76.8925 63.4814 76.8541 62.8328 76.7886C62.6907 75.142 62.7194 73.4817 62.9181 71.8428C62.9627 71.4786 63.0178 71.1074 63.1714 70.785C63.3807 70.3486 63.8058 69.8932 64.2628 69.75Z" fill="#473F47"/>
<path d="M61.0625 71.2493C61.0625 71.2493 62.2188 71.288 62.4391 71.8276C62.6593 72.3673 62.6593 75.9348 62.6593 75.9348H57.6981C57.6981 75.9348 57.5841 72.1678 57.8171 71.8086C58.05 71.4495 61.0625 71.2493 61.0625 71.2493Z" fill="#505457"/>
<path d="M58.4073 73.085C58.2609 72.4668 58.0026 71.746 57.996 71.1024C57.9905 70.5387 57.6777 70.1713 57.5087 69.6576C57.3765 69.2547 57.3815 68.812 57.3881 68.3812C57.3947 67.9505 57.4057 67.4849 57.5902 67.1017C57.7036 66.8655 57.8749 66.6748 58.0456 66.4905C58.2526 66.2675 58.4662 66.0471 58.7239 65.9077C58.9816 65.7684 59.2933 65.7323 59.5449 65.883C59.631 65.9405 59.7139 66.004 59.7933 66.073C60.1099 66.322 60.5944 66.4398 60.813 66.8173C61.0592 67.2417 61.2045 67.8137 61.3235 68.3008C61.5707 69.3143 61.6495 70.3715 61.6181 71.4185C61.6027 71.9252 61.563 72.4415 61.3929 72.9115C61.3696 72.9949 61.3255 73.0687 61.2662 73.1237C61.1955 73.1678 61.1152 73.1878 61.035 73.1813C60.1582 73.2031 59.2811 73.1709 58.4073 73.085Z" fill="#473F47"/>
<path d="M60.4089 84.2053C60.4089 84.2053 60.1925 75.8504 60.0234 75.566C59.8544 75.2816 58.447 74.6951 56.7004 74.837C54.9537 74.9789 54.4284 75.566 54.4284 75.566L53.9802 84.2053H60.4089Z" fill="#665966"/>
<path d="M62.2194 74.3721C62.2744 74.381 62.3295 74.3721 62.3884 74.3816C62.4546 74.392 62.517 74.4231 62.5688 74.4716C62.6206 74.5201 62.6597 74.5841 62.6819 74.6565C62.6925 74.7081 62.7074 74.7584 62.7265 74.8067C62.7572 74.8522 62.7913 74.8946 62.8284 74.9333C62.8646 74.9842 62.8872 75.0461 62.8931 75.1116C62.8991 75.177 62.8883 75.243 62.862 75.3014C62.9264 75.343 62.9807 75.4025 63.0198 75.4746C63.059 75.5467 63.0818 75.6289 63.0861 75.7137C63.0861 75.7771 63.08 75.8461 63.0861 75.9113C63.1026 76.1172 63.248 76.2737 63.324 76.4605C63.389 76.6386 63.3927 76.8384 63.3343 77.0195C63.2759 77.2005 63.1598 77.3492 63.0095 77.4354C63.1099 77.5506 63.1677 77.7059 63.171 77.869C63.1743 78.0321 63.1228 78.1903 63.0272 78.3108C63.1802 78.4539 63.3388 78.6059 63.4126 78.8175C63.4864 79.0291 63.4462 79.3109 63.2705 79.4142C63.3297 79.4875 63.3687 79.5793 63.3826 79.678C63.3965 79.7767 63.3847 79.878 63.3487 79.969C63.3126 80.06 63.254 80.1368 63.1801 80.1895C63.1062 80.2423 63.0205 80.2687 62.9336 80.2655C62.9601 80.3698 62.9632 80.4803 62.9423 80.5863C62.9215 80.6924 62.8775 80.7906 62.8145 80.8717C62.7515 80.9528 62.6716 81.0141 62.5823 81.0498C62.493 81.0854 62.3973 81.0944 62.3042 81.0756C62.3217 81.3562 62.3032 81.6381 62.2491 81.9124C61.8962 82.0053 61.5272 81.9753 61.1891 81.8262C61.0487 81.9403 60.9034 82.0568 60.7354 82.0986C60.5675 82.1404 60.3692 82.0879 60.2762 81.9225C60.2239 81.8294 60.2008 81.7021 60.111 81.6565C60.0733 81.6406 60.0332 81.6342 59.9932 81.6375H59.3776C59.3324 81.6434 59.2869 81.6318 59.2482 81.6045C59.2192 81.5729 59.1999 81.5314 59.1931 81.4861C59.1473 81.2951 59.1409 81.0945 59.1744 80.9002C59.1249 80.8771 59.0799 80.8429 59.042 80.7996C59.0041 80.7563 58.974 80.7048 58.9535 80.6481C58.933 80.5914 58.9225 80.5305 58.9226 80.4691C58.9227 80.4076 58.9334 80.3468 58.9541 80.2902C58.9845 80.2333 59.0098 80.1731 59.0296 80.1103C59.0516 80.0052 59.0086 79.8987 58.9921 79.7936C58.9693 79.6448 58.9978 79.4917 59.0714 79.3667C59.1041 79.3239 59.128 79.2733 59.1413 79.2184C59.1507 79.1456 59.1111 79.0785 59.0797 79.0145C59.0238 78.8998 58.9892 78.773 58.9781 78.6422C58.9671 78.5114 58.9797 78.3793 59.0152 78.2544C59.0411 78.1663 59.0786 78.077 59.0703 77.9845C59.0611 77.9291 59.0457 77.8752 59.0246 77.8243C58.9828 77.6992 58.9647 77.5653 58.9714 77.4315C58.9782 77.2977 59.0096 77.1671 59.0637 77.0483C59.0987 76.9881 59.1241 76.9212 59.1386 76.8507C59.1421 76.7902 59.136 76.7294 59.1204 76.6715C59.057 76.3484 59.05 76.014 59.1 75.6877C59.1281 75.5047 59.1876 75.3077 59.3319 75.2209C59.3635 75.208 59.3919 75.1862 59.4144 75.1576C59.4306 75.121 59.4373 75.0799 59.4337 75.0391C59.4383 74.9661 59.4556 74.8948 59.4847 74.8297C59.5137 74.7645 59.5539 74.7067 59.6027 74.6598C59.6516 74.6128 59.7082 74.5777 59.7691 74.5565C59.8301 74.5352 59.8941 74.5283 59.9574 74.5362C60.0416 74.1517 60.4821 73.9395 60.7795 74.1397C60.8021 74.0397 60.8508 73.95 60.919 73.8828C60.9872 73.8155 61.0717 73.7739 61.1611 73.7634C61.3813 73.7425 61.4992 73.9534 61.6605 74.0523C61.8218 74.1511 62.0399 74.343 62.2194 74.3721Z" fill="#CD8809"/>
<path d="M58.1546 74.5367C58.1314 74.512 58.1014 74.4972 58.0698 74.4949C57.8914 74.4652 57.713 74.5285 57.5357 74.5684C57.1221 74.6615 56.696 74.6261 56.2747 74.6007C56.264 74.5991 56.253 74.6004 56.2428 74.6045C56.2312 74.6117 56.2222 74.6234 56.2175 74.6375C56.2039 74.6768 56.2003 74.7197 56.2071 74.7613C56.2138 74.8028 56.2306 74.8414 56.2555 74.8725C56.3058 74.9341 56.3683 74.9808 56.4377 75.0087C56.5408 75.0585 56.6483 75.0956 56.7582 75.1195C56.8956 75.1462 57.0346 75.16 57.1739 75.1607C57.4311 75.1664 57.6976 75.1537 57.9398 75.0448C58.0095 75.0213 58.0686 74.968 58.105 74.8959C58.148 74.8098 58.224 74.6242 58.1546 74.5367Z" fill="white"/>
<path d="M58.7746 70.6393C58.8292 70.7144 58.8756 70.797 58.9128 70.885C59.0384 71.1821 59.0681 71.5185 59.0719 71.8504C59.0831 72.1362 59.0434 72.4215 58.9552 72.689C58.8572 72.9627 58.6953 73.1698 58.5593 73.4206C58.4431 73.6354 58.3578 73.871 58.2322 74.0788C58.1196 74.2676 57.9739 74.4271 57.8044 74.5471C57.6349 74.6671 57.4455 74.7449 57.2482 74.7755C57.0506 74.8017 56.8504 74.7722 56.665 74.6894C56.4795 74.6066 56.3144 74.4731 56.1839 74.3005C56.0578 74.1256 55.9741 73.916 55.8717 73.7215C55.7717 73.5532 55.6798 73.3787 55.5963 73.1989C55.4807 72.9145 55.4482 72.5959 55.4273 72.283C55.3994 71.9781 55.4051 71.6703 55.4444 71.3671C55.4847 71.0623 55.6061 70.7793 55.7918 70.5569C55.9129 70.4333 56.0466 70.3269 56.1899 70.2402C56.4294 70.08 56.6734 69.9172 56.9415 69.8374C57.2097 69.7576 57.512 69.7702 57.7449 69.9431C57.8451 70.0173 57.9327 70.1123 58.0345 70.1832C58.1364 70.2542 58.2587 70.2808 58.3759 70.3276C58.5309 70.3882 58.6686 70.4959 58.7746 70.6393Z" fill="#CD8809"/>
<path d="M53.9241 71.2493C53.9241 71.2493 55.0804 71.288 55.3007 71.8276C55.5209 72.3673 55.5209 75.9348 55.5209 75.9348H50.5597C50.5597 75.9348 50.4457 72.1678 50.6781 71.8086C50.9104 71.4495 53.9241 71.2493 53.9241 71.2493Z" fill="#505457"/>
<path d="M53.0425 66.035C53.336 66.1762 53.526 66.5031 53.6752 66.8261C54.3205 68.2197 54.527 69.8406 54.4791 71.4191C54.4637 71.9258 54.424 72.442 54.2545 72.912C54.2312 72.9955 54.1871 73.0693 54.1278 73.1242C54.057 73.1683 53.9768 73.1883 53.8965 73.1819C53.0198 73.2034 52.1427 73.1711 51.2689 73.085C50.9754 71.8473 50.6792 70.5924 50.6737 69.3098C50.6737 68.6358 50.753 67.9473 51.0195 67.3462C51.286 66.745 51.7579 66.244 52.3305 66.1009C52.7044 66.0071 53.167 66.1218 53.3261 66.5221" fill="#473F47"/>
<path d="M51.9313 83.3185C51.9313 83.3185 51.7155 74.9631 51.5459 74.6787C51.3763 74.3943 49.9694 73.8077 48.2228 73.9496C46.4762 74.0915 45.9514 74.6787 45.9514 74.6787L45.5032 83.3185H51.9313Z" fill="#665966"/>
<path d="M53.7418 73.4847C53.7969 73.4942 53.8552 73.4847 53.9109 73.4942C53.9771 73.5044 54.0397 73.5355 54.0915 73.584C54.1434 73.6325 54.1827 73.6966 54.2049 73.7691C54.2149 73.8208 54.2297 73.8711 54.2489 73.9192C54.2798 73.9646 54.3138 74.007 54.3508 74.0459C54.3872 74.0968 54.4098 74.1589 54.4157 74.2244C54.4217 74.29 54.4108 74.3561 54.3844 74.4146C54.4488 74.4562 54.5031 74.5157 54.5423 74.5878C54.5814 74.6598 54.6042 74.7421 54.6085 74.8269C54.6085 74.8903 54.6025 74.9587 54.6085 75.0245C54.625 75.2298 54.7709 75.3862 54.8464 75.5731C54.9114 75.7511 54.9151 75.951 54.8567 76.132C54.7983 76.3131 54.6822 76.4618 54.532 76.5479C54.6324 76.6631 54.6903 76.8184 54.6937 76.9814C54.6971 77.1445 54.6457 77.3028 54.5501 77.4233C54.7027 77.5665 54.8613 77.7185 54.9356 77.9301C55.0099 78.1416 54.9692 78.4235 54.7935 78.5267C54.8527 78.6 54.8917 78.6918 54.9056 78.7906C54.9195 78.8893 54.9077 78.9905 54.8717 79.0816C54.8356 79.1726 54.777 79.2493 54.7031 79.3021C54.6292 79.3549 54.5434 79.3813 54.4565 79.3781C54.4834 79.4824 54.4867 79.593 54.466 79.6992C54.4453 79.8055 54.4013 79.9039 54.3383 79.985C54.2752 80.0662 54.1951 80.1275 54.1057 80.1631C54.0162 80.1986 53.9203 80.2073 53.8272 80.1882C53.8447 80.4687 53.8261 80.7507 53.7721 81.025C53.419 81.1179 53.0498 81.0879 52.7116 80.9388C52.5712 81.0528 52.4258 81.17 52.2579 81.2118C52.0899 81.2536 51.8922 81.201 51.7986 81.0351C51.7436 80.9426 51.7232 80.8147 51.6334 80.7697C51.5958 80.7536 51.5556 80.7469 51.5156 80.75H50.9005C50.8554 80.7558 50.8098 80.744 50.7711 80.7165C50.7423 80.685 50.7231 80.6437 50.7161 80.5987C50.6705 80.4074 50.6642 80.2066 50.6979 80.0121C50.6484 79.9891 50.6035 79.9549 50.5655 79.9117C50.5276 79.8685 50.4976 79.8171 50.4771 79.7604C50.4566 79.7037 50.4461 79.6429 50.4462 79.5815C50.4463 79.5201 50.457 79.4594 50.4777 79.4028C50.508 79.3456 50.5332 79.2851 50.5531 79.2222C50.5751 79.1171 50.5322 79.0107 50.5156 78.9055C50.4943 78.7583 50.5228 78.6073 50.5955 78.4837C50.6283 78.441 50.6522 78.3903 50.6654 78.3354C50.6748 78.2632 50.6351 78.1955 50.6037 78.1321C50.5479 78.0174 50.5133 77.8907 50.5022 77.7598C50.4911 77.629 50.5038 77.4969 50.5393 77.372C50.5652 77.2833 50.6032 77.1947 50.5944 77.1015C50.5853 77.046 50.57 76.9922 50.5487 76.9413C50.5069 76.8162 50.4888 76.6822 50.4956 76.5484C50.5025 76.4146 50.5341 76.284 50.5883 76.1653C50.6229 76.1049 50.6483 76.038 50.6632 75.9677C50.6662 75.9072 50.66 75.8466 50.645 75.7884C50.5812 75.4656 50.574 75.1314 50.6241 74.8054C50.6522 74.6217 50.7117 74.4222 50.8559 74.3379C50.8877 74.3249 50.9162 74.3031 50.9391 74.2746C50.955 74.238 50.9615 74.1969 50.9578 74.1561C50.9625 74.0831 50.9798 74.0119 51.0089 73.9468C51.038 73.8817 51.0781 73.8239 51.127 73.777C51.1758 73.7301 51.2324 73.6949 51.2933 73.6737C51.3542 73.6524 51.4182 73.6454 51.4815 73.6532C51.5657 73.2693 52.0068 73.0565 52.3036 73.2573C52.3256 73.1566 52.3741 73.0661 52.4423 72.9982C52.5106 72.9302 52.5954 72.888 52.6851 72.8772C52.9082 72.8563 53.0238 73.0673 53.1846 73.1667C53.3454 73.2662 53.5623 73.4556 53.7418 73.4847Z" fill="#CD8809"/>
<path d="M49.677 73.6494C49.6539 73.6249 49.6242 73.6103 49.5928 73.6082C49.4144 73.5778 49.2354 73.6412 49.0581 73.6811C48.6446 73.7748 48.2184 73.7387 47.7972 73.7134C47.7864 73.7118 47.7755 73.7131 47.7652 73.7172C47.7538 73.7246 47.7449 73.7362 47.7399 73.7501C47.7265 73.7894 47.723 73.8323 47.7297 73.8738C47.7364 73.9154 47.7531 73.9539 47.7779 73.9851C47.8285 74.0465 47.8909 74.0934 47.9601 74.1219C48.0633 74.1715 48.1707 74.2085 48.2806 74.2321C48.418 74.2588 48.557 74.2726 48.6963 74.2733C48.9535 74.279 49.22 74.2663 49.4628 74.158C49.5326 74.1347 49.5919 74.0811 49.628 74.0085C49.6704 73.923 49.7464 73.7374 49.677 73.6494Z" fill="white"/>
<path d="M50.297 69.7519C50.3517 69.827 50.3981 69.9095 50.4352 69.9977C50.5608 70.2948 50.5905 70.6311 50.5944 70.963C50.6058 71.2488 50.566 71.5343 50.4776 71.8017C50.3796 72.0759 50.2177 72.2831 50.0817 72.5339C49.9656 72.748 49.8802 72.9843 49.7547 73.1914C49.6423 73.3804 49.4966 73.5401 49.3271 73.6601C49.1575 73.7801 48.968 73.8578 48.7707 73.8882C48.5731 73.9144 48.373 73.8849 48.1876 73.8021C48.0023 73.7193 47.8372 73.5858 47.7069 73.4131C47.5802 73.2383 47.4965 73.0292 47.3941 72.8348C47.2945 72.666 47.2026 72.4913 47.1188 72.3116C47.0031 72.0272 46.9707 71.7086 46.9503 71.3956C46.9219 71.091 46.9274 70.7834 46.9668 70.4803C47.0072 70.1753 47.1285 69.8922 47.3142 69.6696C47.4354 69.5457 47.5693 69.4394 47.7129 69.3529C47.9524 69.192 48.1958 69.0292 48.4645 68.9494C48.7332 68.8696 49.0344 68.8822 49.2679 69.0551C49.3676 69.1293 49.4551 69.2243 49.557 69.2952C49.6589 69.3662 49.7811 69.3928 49.8984 69.4396C50.0534 69.5004 50.1911 69.6083 50.297 69.7519Z" fill="#CD8809"/>
<path d="M46.7328 74.0111C46.9689 73.9289 47.2235 73.956 47.4426 74.0865C47.5604 74.1587 47.6077 74.298 47.7058 74.374C47.7867 74.4374 47.926 74.3639 47.9932 74.4773C48.0719 74.6097 48.1248 74.8288 48.187 74.9777C48.267 75.1698 48.3405 75.3656 48.4073 75.5649C48.5364 75.9639 48.6382 76.3739 48.7118 76.7912C48.8549 77.6215 48.9117 78.4684 48.8808 79.3141C48.8654 79.8208 48.8257 80.3364 48.6556 80.8064C48.4733 81.3201 47.6276 81.1719 47.2542 81.165C46.6041 81.1536 45.9544 81.1151 45.305 81.0497C45.1629 79.403 45.1916 77.7428 45.3903 76.1039C45.4349 75.7397 45.49 75.3685 45.6442 75.0461C45.8501 74.6097 46.2758 74.1542 46.7328 74.0111Z" fill="#473F47"/>
<path d="M47.8974 65.1741C47.8974 65.1741 49.0537 65.2128 49.274 65.7524C49.4942 66.2921 49.4942 70.0046 49.4942 70.0046H44.533C44.533 70.0046 44.419 66.0932 44.6519 65.7334C44.8849 65.3737 47.8974 65.1741 47.8974 65.1741Z" fill="#505457"/>
<path d="M46.4387 59.8103C46.675 59.7278 46.9299 59.7549 47.149 59.8857C47.2663 59.9573 47.3142 60.0966 47.4117 60.1733C47.4932 60.2366 47.632 60.1631 47.6997 60.2765C47.7779 60.4089 47.8313 60.6281 47.8935 60.7769C47.9735 60.9686 48.0458 61.1641 48.1105 61.3635C48.2397 61.7627 48.3417 62.1729 48.4155 62.5904C48.5584 63.4205 48.6151 64.2672 48.5845 65.1127C48.5691 65.6194 48.5267 66.1357 48.3593 66.6057C48.1765 67.1187 47.3308 66.9712 46.958 66.9642C46.3071 66.9524 45.6574 66.9139 45.0087 66.8489C44.8664 65.2023 44.895 63.542 45.0941 61.9031C45.1381 61.5389 45.1932 61.1677 45.3474 60.8453C45.5566 60.4089 45.9817 59.9535 46.4387 59.8103Z" fill="#473F47"/>
<path d="M43.2384 61.3097C43.2384 61.3097 44.3948 61.3477 44.615 61.888C44.8353 62.4283 44.8353 65.9945 44.8353 65.9945H39.8741C39.8741 65.9945 39.7601 62.2282 39.993 61.8684C40.2259 61.5086 43.2384 61.3097 43.2384 61.3097Z" fill="#505457"/>
<path d="M39.9886 59.3695C39.9853 58.6962 40.0673 58.0077 40.3339 57.4059C40.8669 56.2075 42.4455 55.3365 43.087 56.9328C43.3425 57.57 43.2985 58.3067 43.2401 59.0053C43.1817 59.704 43.1184 60.4337 43.3409 61.0874C43.4763 61.4852 43.7136 61.8399 43.7814 62.2598C43.9102 63.0554 43.3959 63.7984 42.8453 64.2969C42.5045 64.6041 42.0997 64.879 41.668 64.8398C41.1934 64.7973 40.7925 64.3666 40.6147 63.8586C40.3999 63.2435 40.4853 62.5664 40.3135 61.933C40.0974 61.1012 39.988 60.2377 39.9886 59.3695Z" fill="#684712"/>
<path d="M28.9082 62.2465C28.9082 62.2465 30.0645 62.2852 30.2848 62.8248C30.505 63.3645 30.5023 66.9319 30.5023 66.9319H25.5416C25.5416 66.9319 25.4276 63.1656 25.6606 62.8058C25.8935 62.4461 28.9082 62.2465 28.9082 62.2465Z" fill="#505457"/>
<path d="M28.0266 57.0328C28.3201 57.1734 28.5101 57.5009 28.6593 57.8233C29.3046 59.2168 29.5111 60.8377 29.4632 62.4169C29.4478 62.9236 29.4054 63.4392 29.238 63.9092C29.2149 63.9926 29.1711 64.0664 29.1119 64.1214C29.0412 64.1657 28.9609 64.1857 28.8806 64.179C28.0039 64.2011 27.1268 64.169 26.253 64.0828C25.959 62.8451 25.6633 61.5903 25.6578 60.3069C25.655 59.6336 25.7371 58.9451 26.0036 58.3433C26.2701 57.7416 26.742 57.2405 27.3146 57.0974C27.6885 57.0036 28.1511 57.1183 28.3102 57.5186" fill="#473F47"/>
<path d="M42.5848 74.2657C42.5848 74.2657 42.3684 65.9109 42.1994 65.6259C42.0304 65.3408 40.6235 64.7549 38.8769 64.8974C37.1303 65.0399 36.6039 65.6252 36.6039 65.6252L36.1556 74.2651L42.5848 74.2657Z" fill="#665966"/>
<path d="M41.2573 69.8546C41.2573 69.8546 40.3763 70.3138 40.2782 70.6609C40.1802 71.008 39.9319 74.2657 39.9319 74.2657H46.7895C46.7895 74.2657 46.4107 70.5158 46.1353 70.1979C45.86 69.8799 42.7143 69.4542 41.2573 69.8546Z" fill="#473F47"/>
<path d="M44.3953 64.4325C44.4504 64.4414 44.5082 64.4325 44.5644 64.4414C44.6306 64.4517 44.6931 64.4829 44.7449 64.5315C44.7967 64.5801 44.8358 64.6443 44.8579 64.7169C44.8684 64.7683 44.8833 64.8184 44.9025 64.8664C44.9328 64.9132 44.9669 64.9567 45.0043 64.9963C45.0406 65.0472 45.0631 65.1093 45.069 65.1748C45.075 65.2403 45.0642 65.3064 45.0379 65.3649C45.1023 65.4065 45.1566 65.4661 45.1958 65.5381C45.2349 65.6102 45.2577 65.6924 45.262 65.7773C45.2648 65.8406 45.2554 65.909 45.262 65.9749C45.2785 66.1801 45.4239 66.3366 45.4999 66.5234C45.5651 66.7015 45.5689 66.9015 45.5105 67.0827C45.4521 67.2639 45.3359 67.4128 45.1855 67.4989C45.2857 67.6141 45.3434 67.7693 45.3467 67.9322C45.35 68.0951 45.2985 68.2532 45.2031 68.3737C45.3562 68.5168 45.5148 68.6688 45.5885 68.8804C45.6623 69.092 45.6221 69.3738 45.4465 69.4777C45.5055 69.551 45.5443 69.6428 45.5581 69.7414C45.5719 69.84 45.56 69.9411 45.524 70.032C45.488 70.1229 45.4295 70.1996 45.3557 70.2523C45.282 70.305 45.1963 70.3315 45.1095 70.3284C45.1354 70.4322 45.1381 70.5419 45.1172 70.6473C45.0963 70.7526 45.0525 70.8501 44.99 70.9308C44.9275 71.0114 44.8483 71.0725 44.7597 71.1084C44.6711 71.1443 44.5761 71.1538 44.4834 71.136C44.501 71.4163 44.4824 71.6981 44.4284 71.9721C44.0754 72.0651 43.7065 72.0351 43.3684 71.886C43.228 72.0006 43.0826 72.1172 42.9147 72.159C42.7467 72.2008 42.5485 72.1482 42.4549 71.9823C42.4031 71.8898 42.38 71.7625 42.2897 71.7169C42.252 71.701 42.2119 71.6945 42.1719 71.6979H41.5563C41.5112 71.7034 41.4657 71.6918 41.4269 71.6649C41.3982 71.633 41.379 71.5916 41.3718 71.5465C41.3264 71.3552 41.3202 71.1544 41.3536 70.9599C41.3042 70.9368 41.2593 70.9026 41.2214 70.8594C41.1835 70.8162 41.1535 70.7648 41.133 70.7081C41.1125 70.6514 41.102 70.5907 41.1021 70.5293C41.1021 70.4679 41.1128 70.4072 41.1334 70.3506C41.1637 70.2937 41.1889 70.2334 41.2088 70.1707C41.2308 70.0655 41.1879 69.9585 41.1714 69.854C41.1487 69.7052 41.1771 69.5522 41.2506 69.427C41.2831 69.3844 41.307 69.334 41.3206 69.2795C41.3299 69.2066 41.2903 69.1395 41.2584 69.0755C41.2026 68.9608 41.1681 68.834 41.1571 68.7031C41.1461 68.5723 41.1588 68.4403 41.1945 68.3154C41.2204 68.2267 41.2578 68.138 41.2495 68.0455C41.2403 67.9899 41.225 67.9358 41.2038 67.8847C41.1621 67.7597 41.144 67.6258 41.1507 67.4922C41.1574 67.3585 41.1889 67.228 41.2429 67.1093C41.2779 67.0491 41.3033 66.9822 41.3178 66.9117C41.3211 66.8512 41.315 66.7905 41.2997 66.7325C41.2363 66.4094 41.2292 66.075 41.2787 65.7488C41.3068 65.5657 41.3668 65.3687 41.5111 65.2819C41.5427 65.2688 41.571 65.2471 41.5937 65.2186C41.6099 65.1821 41.6166 65.1409 41.613 65.1001C41.6175 65.0271 41.6349 64.9559 41.6639 64.8908C41.693 64.8256 41.7331 64.7679 41.782 64.721C41.8309 64.6741 41.8875 64.639 41.9484 64.6179C42.0093 64.5967 42.0734 64.5899 42.1366 64.5978C42.2203 64.2133 42.6614 64.0005 42.9587 64.2013C42.9814 64.1013 43.0301 64.0117 43.0983 63.9444C43.1665 63.8772 43.2509 63.8355 43.3403 63.8251C43.5633 63.8042 43.6784 64.0151 43.8397 64.1139C44.0011 64.2127 44.2158 64.4034 44.3953 64.4325Z" fill="#CD8809"/>
<path d="M40.3305 64.5965C40.3072 64.572 40.2773 64.5574 40.2457 64.5553C40.0673 64.5249 39.8884 64.5889 39.7116 64.6288C39.2981 64.7219 38.8719 64.6858 38.4507 64.6604C38.4399 64.659 38.4289 64.6605 38.4187 64.6649C38.4072 64.672 38.3982 64.6837 38.3934 64.6978C38.3799 64.737 38.3763 64.7798 38.383 64.8213C38.3897 64.8628 38.4065 64.9012 38.4314 64.9322C38.4817 64.994 38.5442 65.0409 38.6137 65.069C38.7168 65.1186 38.8242 65.1556 38.9341 65.1792C39.0715 65.2062 39.2105 65.22 39.3499 65.2204C39.607 65.2267 39.8735 65.2134 40.1158 65.1051C40.1856 65.0816 40.2447 65.0281 40.281 64.9556C40.3234 64.8695 40.3999 64.6845 40.3305 64.5965Z" fill="white"/>
<path d="M40.9506 60.6997C41.0053 60.7747 41.0517 60.8573 41.0888 60.9455C41.2143 61.2419 41.2441 61.5789 41.2479 61.9108C41.259 62.1964 41.2193 62.4815 41.1312 62.7488C41.0332 63.0231 40.8713 63.2302 40.7353 63.4811C40.6191 63.6952 40.5337 63.9314 40.4082 64.1385C40.2958 64.3275 40.1501 64.4872 39.9806 64.6072C39.811 64.7272 39.6215 64.805 39.4242 64.8353C39.2265 64.8614 39.0262 64.8315 38.8407 64.7484C38.6552 64.6653 38.4902 64.5314 38.3598 64.3583C38.2337 64.1835 38.15 63.9739 38.0476 63.7794C37.9476 63.6109 37.8557 63.4363 37.7723 63.2562C37.6567 62.9718 37.6242 62.6532 37.6033 62.3403C37.5753 62.0356 37.5811 61.728 37.6203 61.425C37.6607 61.1201 37.7821 60.8372 37.9678 60.6148C38.0887 60.4908 38.2224 60.3844 38.3659 60.2981C38.6054 60.1372 38.8493 59.9751 39.1175 59.8952C39.3857 59.8154 39.688 59.8275 39.9209 60.0004C40.0211 60.0745 40.1086 60.1702 40.2105 60.2405C40.3124 60.3108 40.4346 60.3386 40.5519 60.3849C40.7071 60.4464 40.8449 60.5552 40.9506 60.6997Z" fill="#473F47"/>
<path d="M35.4464 74.2657C35.4464 74.2657 35.23 65.9109 35.061 65.6259C34.8919 65.3408 33.4845 64.7549 31.7384 64.8974C29.9924 65.0399 29.4654 65.6252 29.4654 65.6252L29.0172 74.2651L35.4464 74.2657Z" fill="#665966"/>
<path d="M34.1188 69.8546C34.1188 69.8546 33.24 70.3125 33.1404 70.6609C33.0407 71.0093 32.794 74.2657 32.794 74.2657H39.6511C39.6511 74.2657 39.2739 70.5158 38.9975 70.1979C38.721 69.8799 35.5753 69.4542 34.1188 69.8546Z" fill="#473F47"/>
<path d="M37.2569 64.4325C37.312 64.4414 37.3698 64.4325 37.426 64.4414C37.4922 64.4517 37.5547 64.4829 37.6065 64.5315C37.6583 64.5801 37.6974 64.6443 37.7195 64.7169C37.7306 64.768 37.7461 64.8176 37.7657 64.8651C37.7964 64.9118 37.8307 64.9553 37.8681 64.995C37.9044 65.046 37.9269 65.108 37.9328 65.1735C37.9388 65.239 37.928 65.3051 37.9017 65.3636C37.9661 65.4052 38.0204 65.4648 38.0596 65.5369C38.0987 65.6089 38.1215 65.6912 38.1258 65.776C38.1258 65.8393 38.1192 65.9077 38.1258 65.9736C38.1418 66.1789 38.2877 66.3353 38.3631 66.5222C38.4284 66.7002 38.4323 66.9001 38.374 67.0813C38.3157 67.2625 38.1996 67.4114 38.0493 67.4976C38.1495 67.6128 38.2072 67.768 38.2105 67.931C38.2138 68.0939 38.1624 68.252 38.0669 68.3724C38.22 68.5155 38.3786 68.6676 38.4524 68.8791C38.5261 69.0907 38.4859 69.3726 38.3108 69.4764C38.3698 69.5498 38.4087 69.6415 38.4224 69.7401C38.4362 69.8388 38.4244 69.9399 38.3884 70.0308C38.3524 70.1217 38.2938 70.1983 38.2201 70.251C38.1463 70.3038 38.0606 70.3302 37.9738 70.3271C38.0004 70.4317 38.0032 70.5423 37.9822 70.6485C37.9611 70.7548 37.9169 70.853 37.8536 70.934C37.7902 71.015 37.71 71.0761 37.6204 71.1115C37.5309 71.1468 37.4349 71.1553 37.3417 71.136C37.3595 71.4163 37.341 71.6981 37.2867 71.9721C36.9337 72.0651 36.5647 72.0351 36.2267 71.886C36.0863 72.0006 35.9409 72.1172 35.773 72.159C35.605 72.2008 35.4068 72.1482 35.3132 71.9823C35.2609 71.8898 35.2383 71.7625 35.1507 71.7169C35.1129 71.701 35.0725 71.6945 35.0324 71.6979H34.4173C34.3722 71.7035 34.3267 71.6919 34.2879 71.6649C34.2591 71.6331 34.2398 71.5917 34.2328 71.5465C34.1872 71.3552 34.181 71.1544 34.2147 70.9599C34.1652 70.9369 34.1201 70.9029 34.0822 70.8597C34.0442 70.8165 34.0141 70.765 33.9936 70.7083C33.9731 70.6516 33.9626 70.5908 33.9628 70.5293C33.9629 70.4679 33.9737 70.4072 33.9944 70.3506C34.0248 70.2938 34.0499 70.2335 34.0693 70.1707C34.0913 70.0655 34.0489 69.9585 34.0319 69.854C34.0092 69.7052 34.0376 69.5522 34.1111 69.427C34.1439 69.3845 34.168 69.3341 34.1816 69.2795C34.1904 69.2066 34.1508 69.1395 34.1194 69.0755C34.0636 68.9608 34.0292 68.834 34.0182 68.7031C34.0072 68.5723 34.0199 68.4403 34.0555 68.3154C34.0809 68.2267 34.1189 68.138 34.1106 68.0455C34.1018 67.9898 34.0866 67.9357 34.0654 67.8847C34.0237 67.7597 34.0056 67.6258 34.0123 67.4922C34.019 67.3585 34.0505 67.228 34.1045 67.1093C34.1395 67.0491 34.1649 66.9822 34.1794 66.9117C34.1827 66.8512 34.1766 66.7905 34.1613 66.7325C34.0979 66.4094 34.0908 66.075 34.1403 65.7488C34.1684 65.5657 34.2279 65.3687 34.3727 65.2819C34.4043 65.2688 34.4326 65.2471 34.4553 65.2186C34.4716 65.1821 34.4781 65.1409 34.474 65.1001C34.4787 65.0271 34.4961 64.9559 34.5252 64.8907C34.5543 64.8256 34.5945 64.7678 34.6434 64.721C34.6923 64.6741 34.749 64.639 34.8099 64.6179C34.8709 64.5967 34.9349 64.5899 34.9982 64.5978C35.0819 64.2133 35.523 64.0005 35.8198 64.2013C35.8424 64.1013 35.8911 64.0117 35.9593 63.9444C36.0275 63.8772 36.112 63.8355 36.2014 63.8251C36.4249 63.8042 36.54 64.0151 36.7008 64.1139C36.8616 64.2127 37.0769 64.4034 37.2569 64.4325Z" fill="#684712"/>
<path d="M33.1921 64.5965C33.1688 64.572 33.1389 64.5574 33.1073 64.5553C32.9289 64.5249 32.75 64.5889 32.5732 64.6288C32.1591 64.7219 31.7329 64.6858 31.3123 64.6604C31.3015 64.659 31.2905 64.6605 31.2803 64.6649C31.2687 64.672 31.2597 64.6837 31.255 64.6978C31.2415 64.737 31.2379 64.7797 31.2445 64.8212C31.2511 64.8626 31.2677 64.9011 31.2924 64.9322C31.3429 64.9937 31.4054 65.0406 31.4747 65.069C31.578 65.1186 31.6856 65.1555 31.7957 65.1792C31.9329 65.2062 32.0717 65.22 32.2109 65.2204C32.4686 65.2267 32.7345 65.2134 32.9774 65.1051C33.0473 65.0819 33.1065 65.0283 33.1426 64.9556C33.185 64.8695 33.261 64.6845 33.1921 64.5965Z" fill="white"/>
<path d="M33.8116 60.6997C33.8665 60.7746 33.9129 60.8572 33.9498 60.9455C34.0759 61.2419 34.1056 61.5789 34.1095 61.9108C34.1207 62.1965 34.0808 62.4817 33.9922 62.7488C33.8947 63.0231 33.7328 63.2302 33.5963 63.4811C33.4801 63.6952 33.3953 63.9314 33.2698 64.1386C33.1573 64.3275 33.0116 64.4872 32.8421 64.6072C32.6726 64.7273 32.4831 64.805 32.2858 64.8353C32.088 64.8615 31.8877 64.8317 31.7022 64.7486C31.5167 64.6655 31.3517 64.5315 31.2214 64.3584C31.0948 64.1835 31.0116 63.9739 30.9092 63.7794C30.8092 63.6109 30.7173 63.4363 30.6339 63.2562C30.5182 62.9718 30.4858 62.6532 30.4648 62.3403C30.4364 62.0356 30.442 61.728 30.4814 61.425C30.5216 61.1202 30.6425 60.8371 30.8277 60.6142C30.9489 60.4903 31.0827 60.384 31.2264 60.2975C31.4659 60.1366 31.7093 59.9744 31.978 59.8946C32.2467 59.8148 32.5479 59.8269 32.7814 59.9998C32.881 60.0739 32.9691 60.1695 33.071 60.2399C33.1729 60.3102 33.2951 60.338 33.4124 60.3843C33.5679 60.4458 33.7059 60.5548 33.8116 60.6997Z" fill="#AF7210"/>
<path d="M30.3679 69.4352C30.3679 69.4352 31.5243 69.4738 31.7445 70.0135C31.9648 70.5532 31.962 74.2657 31.962 74.2657H27.0008C27.0008 74.2657 26.8868 70.3543 27.1197 69.9945C27.3527 69.6347 30.3679 69.4352 30.3679 69.4352Z" fill="#505457"/>
<path d="M28.9087 64.0714C29.1441 63.9897 29.398 64.0167 29.6163 64.1468C29.7341 64.2184 29.7815 64.3577 29.8795 64.4344C29.9604 64.4977 30.0998 64.4242 30.1669 64.5376C30.2457 64.67 30.2985 64.8891 30.3608 65.038C30.4408 65.2297 30.5133 65.4252 30.5783 65.6246C30.7074 66.0238 30.8092 66.434 30.8828 66.8515C31.0256 67.6816 31.0824 68.5283 31.0518 69.3738C31.0364 69.8805 30.994 70.3968 30.8266 70.8668C30.6443 71.3798 29.798 71.2322 29.4252 71.2253C28.7744 71.2134 28.1246 71.175 27.476 71.11C27.3339 69.4633 27.3626 67.8031 27.5613 66.1642C27.6059 65.8 27.661 65.4288 27.8152 65.1064C28.0261 64.67 28.4517 64.2146 28.9087 64.0714Z" fill="#473F47"/>
<path d="M46.4387 74.0142C46.675 73.9321 46.9298 73.9592 47.149 74.0896C47.2663 74.1618 47.3142 74.3012 47.4117 74.3772C47.4932 74.4405 47.632 74.3671 47.6997 74.4804C47.7779 74.6128 47.8313 74.832 47.8935 74.9808C47.9735 75.1726 48.0458 75.3683 48.1105 75.568C48.2398 75.967 48.3418 76.377 48.4155 76.7943C48.5584 77.6247 48.6151 78.4715 48.5845 79.3173C48.5691 79.824 48.5267 80.3396 48.3593 80.8096C48.1765 81.3233 47.3308 81.1751 46.958 81.1681C46.3071 81.1567 45.6574 81.1183 45.0087 81.0528C44.8664 79.4062 44.895 77.7459 45.0941 76.1071C45.1381 75.7428 45.1932 75.3717 45.3474 75.0493C45.5566 74.6128 45.9817 74.1574 46.4387 74.0142Z" fill="#473F47"/>
<path d="M42.3574 70.2992C42.6504 70.4404 42.8403 70.7673 42.9901 71.0903C43.6349 72.4839 43.8419 74.1048 43.7935 75.6833C43.7786 76.19 43.7384 76.7063 43.5688 77.1763C43.5455 77.2597 43.5015 77.3335 43.4422 77.3885C43.3714 77.4326 43.2912 77.4526 43.2109 77.4461C42.3342 77.4677 41.457 77.4353 40.5833 77.3492C40.2898 76.1115 39.9941 74.8567 39.9886 73.574C39.9853 72.9 40.0673 72.2115 40.3339 71.6104C40.6004 71.0093 41.0728 70.5082 41.6449 70.3651C42.0188 70.2713 42.4813 70.386 42.6405 70.7863" fill="#473F47"/>
<path d="M40.9506 74.9036C41.0052 74.9787 41.0516 75.0612 41.0888 75.1493C41.2143 75.4464 41.2441 75.7827 41.2479 76.1147C41.2591 76.4002 41.2194 76.6854 41.1312 76.9527C41.0332 77.2269 40.8713 77.4341 40.7353 77.6849C40.6191 77.8996 40.5337 78.1353 40.4082 78.3424C40.2958 78.5314 40.1501 78.691 39.9806 78.8111C39.811 78.9311 39.6215 79.0088 39.4242 79.0392C39.2266 79.0657 39.0264 79.0363 38.8409 78.9536C38.6554 78.871 38.4903 78.7375 38.3598 78.5647C38.2337 78.3899 38.15 78.1802 38.0476 77.9858C37.9476 77.8173 37.8557 77.6427 37.7723 77.4626C37.6567 77.1788 37.6242 76.8602 37.6033 76.5473C37.5753 76.2424 37.5811 75.9346 37.6203 75.6314C37.6607 75.3265 37.7821 75.0436 37.9678 74.8212C38.0886 74.6963 38.2223 74.5889 38.3659 74.5013C38.6054 74.3411 38.8493 74.1783 39.1175 74.0985C39.3857 74.0187 39.688 74.0313 39.9209 74.2043C40.0211 74.2784 40.1086 74.3734 40.2105 74.4443C40.3124 74.5153 40.4346 74.5419 40.5519 74.5887C40.7072 74.65 40.8451 74.7588 40.9506 74.9036Z" fill="#CD8809"/>
<path d="M35.2184 70.2992C35.5119 70.4404 35.7019 70.7673 35.8511 71.0903C36.4965 72.4839 36.703 74.1048 36.655 75.6833C36.6396 76.19 36.5972 76.7063 36.4304 77.1763C36.4071 77.2597 36.3631 77.3335 36.3037 77.3885C36.233 77.4325 36.1528 77.4525 36.0725 77.4461C35.1957 77.4677 34.3186 77.4353 33.4449 77.3492C33.1514 76.1115 32.8551 74.8567 32.8496 73.574C32.8469 72.9 32.9289 72.2115 33.1954 71.6104C33.4619 71.0093 33.9338 70.5082 34.5065 70.3651C34.8804 70.2713 35.3429 70.386 35.502 70.7863" fill="#473F47"/>
<path d="M32.473 74.0162C32.5277 74.0913 32.5741 74.1738 32.6112 74.262C32.7367 74.559 32.7665 74.8954 32.7703 75.2273C32.7817 75.5131 32.742 75.7985 32.6536 76.0659C32.5556 76.3402 32.3937 76.5467 32.2577 76.7982C32.1415 77.0123 32.0562 77.2479 31.9306 77.4557C31.8182 77.6447 31.6725 77.8044 31.503 77.9244C31.3335 78.0444 31.1439 78.1221 30.9466 78.1524C30.7491 78.1787 30.549 78.1492 30.3636 78.0664C30.1782 77.9836 30.0132 77.8501 29.8828 77.6774C29.7562 77.5026 29.6725 77.2935 29.57 77.0991C29.4704 76.9303 29.3785 76.7556 29.2947 76.5759C29.1791 76.2914 29.1466 75.9728 29.1262 75.6599C29.0978 75.3553 29.1034 75.0477 29.1427 74.7446C29.1831 74.4396 29.3045 74.1564 29.4902 73.9338C29.6113 73.8102 29.745 73.7038 29.8883 73.6171C30.1284 73.4562 30.3718 73.2935 30.6405 73.2136C30.9092 73.1338 31.2104 73.1465 31.4433 73.3194C31.5435 73.3935 31.6311 73.4886 31.7329 73.5595C31.8348 73.6304 31.957 73.657 32.0743 73.7039C32.2293 73.7647 32.3671 73.8726 32.473 74.0162Z" fill="#CD8809"/>
<path d="M23.0786 71.492C23.0786 71.492 22.8622 63.1371 22.6932 62.8527C22.5241 62.5683 21.1167 61.9811 19.3706 62.1236C17.6246 62.2662 17.0987 62.8527 17.0987 62.8527L16.6505 71.492H23.0786Z" fill="#665966"/>
<path d="M21.8524 65.5194C21.8524 65.5194 20.9713 65.9779 20.8722 66.3251C20.7731 66.6722 20.5259 69.9324 20.5259 69.9324H27.384C27.384 69.9324 27.0068 66.1832 26.7304 65.8646C26.454 65.546 23.3082 65.1184 21.8524 65.5194Z" fill="#473F47"/>
<path d="M24.991 60.0967C25.046 60.1056 25.1044 60.0967 25.1606 60.1062C25.2267 60.1165 25.2892 60.1476 25.3409 60.1961C25.3927 60.2446 25.4319 60.3086 25.4541 60.3811C25.4642 60.4328 25.4789 60.4831 25.4981 60.5312C25.5289 60.5766 25.563 60.619 25.6 60.6579C25.6363 60.7087 25.6588 60.7706 25.6649 60.836C25.671 60.9014 25.6603 60.9674 25.6341 61.0259C25.6984 61.0676 25.7526 61.1272 25.7917 61.1993C25.8307 61.2713 25.8534 61.3535 25.8577 61.4383C25.8604 61.5016 25.8516 61.5707 25.8577 61.6365C25.8742 61.8418 26.0201 61.9982 26.0956 62.1851C26.1606 62.3631 26.1643 62.563 26.1059 62.744C26.0475 62.9251 25.9314 63.0738 25.7811 63.1599C25.8816 63.2751 25.9395 63.4303 25.9429 63.5934C25.9463 63.7565 25.8948 63.9148 25.7993 64.0353C25.9518 64.1785 26.111 64.3305 26.1848 64.542C26.2585 64.7536 26.2183 65.0355 26.0427 65.1387C26.1022 65.2119 26.1415 65.3037 26.1556 65.4025C26.1697 65.5013 26.1581 65.6028 26.1222 65.694C26.0862 65.7852 26.0276 65.8622 25.9537 65.9151C25.8797 65.968 25.7938 65.9945 25.7068 65.9913C25.7337 66.0957 25.737 66.2063 25.7163 66.3125C25.6956 66.4187 25.6516 66.5171 25.5885 66.5983C25.5255 66.6795 25.4454 66.7408 25.3559 66.7763C25.2665 66.8119 25.1706 66.8205 25.0774 66.8015C25.095 67.082 25.0764 67.3639 25.0224 67.6382C24.6693 67.7311 24.3001 67.7011 23.9618 67.5521C23.822 67.6661 23.6766 67.7826 23.5087 67.8244C23.3407 67.8662 23.1425 67.8137 23.0489 67.6483C22.9966 67.5552 22.9735 67.4279 22.8837 67.3823C22.846 67.3664 22.8059 67.3599 22.7659 67.3633H22.1508C22.1057 67.3696 22.06 67.358 22.0214 67.3304C21.9925 67.2987 21.9732 67.2572 21.9663 67.2119C21.9207 67.0209 21.9145 66.8203 21.9482 66.626C21.8987 66.603 21.8536 66.5689 21.8157 66.5257C21.7777 66.4825 21.7476 66.4311 21.7271 66.3744C21.7066 66.3177 21.6961 66.2568 21.6963 66.1954C21.6964 66.134 21.7072 66.0732 21.7279 66.0167C21.7583 65.9596 21.7834 65.8991 21.8028 65.8361C21.8248 65.731 21.7819 65.6246 21.7654 65.5194C21.7426 65.3707 21.771 65.2176 21.8447 65.0925C21.8775 65.0499 21.9014 64.9992 21.9146 64.9443C21.9239 64.8714 21.8843 64.8043 21.8529 64.7403C21.797 64.6256 21.7625 64.4989 21.7514 64.368C21.7403 64.2372 21.7529 64.1051 21.7885 63.9802C21.8144 63.8922 21.8524 63.8028 21.8436 63.7104C21.8346 63.6548 21.8192 63.6009 21.7978 63.5501C21.7562 63.4249 21.7382 63.291 21.745 63.1572C21.7518 63.0234 21.7834 62.8928 21.8375 62.7742C21.8704 62.714 21.894 62.6478 21.9074 62.5784C21.9107 62.5179 21.9046 62.4572 21.8893 62.3992C21.8259 62.0763 21.8188 61.7422 21.8683 61.4161C21.8964 61.2324 21.9559 61.036 22.1007 60.9486C22.1322 60.9354 22.1605 60.9137 22.1833 60.8853C22.1993 60.8487 22.2058 60.8076 22.202 60.7668C22.2067 60.6938 22.2241 60.6225 22.2532 60.5573C22.2823 60.4922 22.3225 60.4344 22.3714 60.3875C22.4203 60.3405 22.4769 60.3054 22.5379 60.2842C22.5988 60.263 22.6629 60.2561 22.7262 60.2639C22.8099 59.8794 23.251 59.6672 23.5478 59.8674C23.5704 59.7674 23.6191 59.6778 23.6873 59.6105C23.7555 59.5433 23.84 59.5016 23.9294 59.4911C24.1524 59.4702 24.268 59.6812 24.4288 59.7806C24.5896 59.8801 24.8098 60.0675 24.991 60.0967Z" fill="#CD8809"/>
<path d="M20.8243 61.8246C20.801 61.8001 20.7711 61.7856 20.7395 61.7834C20.5611 61.753 20.3822 61.817 20.2054 61.8569C19.7919 61.95 19.3657 61.9139 18.9445 61.8886C18.9337 61.8872 18.9227 61.8887 18.9125 61.893C18.9009 61.9002 18.8919 61.9119 18.8872 61.926C18.8737 61.9652 18.87 62.008 18.8768 62.0495C18.8835 62.0909 18.9003 62.1294 18.9252 62.1603C18.9755 62.2221 19.038 62.2691 19.1074 62.2972C19.2106 62.3468 19.318 62.3838 19.4279 62.4074C19.5652 62.4344 19.7043 62.4482 19.8436 62.4485C20.1008 62.4549 20.3673 62.4416 20.6096 62.3333C20.6793 62.3098 20.7385 62.2562 20.7748 62.1838C20.8172 62.0957 20.8937 61.9108 20.8243 61.8246Z" fill="white"/>
<path d="M21.4443 57.9259C21.4989 58.0011 21.5453 58.0836 21.5825 58.1717C21.7081 58.4688 21.7378 58.8051 21.7417 59.137C21.7528 59.4226 21.7131 59.7078 21.6249 59.975C21.5269 60.2493 21.365 60.4564 21.229 60.7073C21.1128 60.9214 21.0275 61.1576 20.9019 61.3648C20.7895 61.5537 20.6438 61.7134 20.4743 61.8334C20.3048 61.9535 20.1153 62.0312 19.918 62.0615C19.7204 62.0879 19.5202 62.0585 19.3347 61.9759C19.1493 61.8932 18.9841 61.7597 18.8536 61.5871C18.7275 61.4123 18.6438 61.2026 18.5414 61.0081C18.4413 60.8397 18.3494 60.665 18.2661 60.4849C18.1504 60.2005 18.1179 59.8819 18.097 59.569C18.0688 59.2643 18.0745 58.9567 18.1141 58.6537C18.1543 58.3488 18.2756 58.0658 18.4615 57.8436C18.5823 57.7185 18.716 57.611 18.8596 57.5237C19.0992 57.3628 19.3425 57.2006 19.6113 57.1208C19.88 57.041 20.1817 57.0531 20.4146 57.226C20.5148 57.3001 20.6024 57.3957 20.7043 57.466C20.8061 57.5364 20.9284 57.5642 21.0457 57.6105C21.2009 57.6721 21.3387 57.7812 21.4443 57.9259Z" fill="#CD8809"/>
<path d="M83.421 71.0822C83.421 71.0822 84.5773 71.1208 84.7976 71.6605C85.0178 72.2001 85.0178 75.9126 85.0178 75.9126H80.0544C80.0544 75.9126 79.9404 72.0012 80.1728 71.6415C80.4052 71.2817 83.421 71.0822 83.421 71.0822Z" fill="#505457"/>
<path d="M81.9618 65.7183C82.1981 65.6358 82.453 65.6629 82.6722 65.7936C82.7895 65.8652 82.8374 66.0046 82.9348 66.0812C83.0163 66.1446 83.1551 66.0711 83.2222 66.1845C83.301 66.3169 83.3544 66.536 83.4166 66.6849C83.4966 66.8766 83.569 67.0721 83.6336 67.2714C83.7626 67.6707 83.8646 68.0809 83.9386 68.4984C84.0813 69.3285 84.1379 70.1752 84.1071 71.0207C84.0917 71.5274 84.0521 72.0436 83.8825 72.5136C83.6996 73.0267 82.8539 72.8791 82.4811 72.8721C81.8302 72.8603 81.1805 72.8219 80.5318 72.7569C80.3895 71.1102 80.4182 69.4499 80.6172 67.8111C80.6612 67.4469 80.7163 67.0757 80.8705 66.7533C81.0792 66.3169 81.5048 65.8614 81.9618 65.7183Z" fill="#473F47"/>
<path d="M78.7615 67.217C78.7615 67.217 79.9179 67.2556 80.1381 67.7959C80.3584 68.3362 80.3584 71.9024 80.3584 71.9024H75.3972C75.3972 71.9024 75.2832 68.1361 75.5155 67.7763C75.7479 67.4165 78.7615 67.217 78.7615 67.217Z" fill="#505457"/>
<path d="M76.1064 69.0533C75.9351 69.0362 75.6218 66.7229 75.5915 66.4638C75.5525 66.1306 75.5915 65.8241 75.5106 65.5017C75.4076 65.1001 75.2904 64.7206 75.2755 64.2982C75.2793 64.1289 75.2723 63.9595 75.2546 63.7914C75.2287 63.6267 75.1681 63.4709 75.1384 63.3062C75.0134 62.6057 75.5139 61.9083 76.1102 61.7037C76.7066 61.4991 77.3514 61.679 77.9273 61.9501C78.0885 62.0169 78.2386 62.1148 78.3712 62.2395C78.5914 62.465 78.6938 62.8096 78.734 63.1434C78.7742 63.4772 78.761 63.8212 78.7929 64.1569C78.9031 65.2724 79.5038 66.3226 79.3662 67.4336C79.3111 67.9042 79.2494 68.4407 79.0908 68.881C79.0677 68.9647 79.0237 69.0387 78.9642 69.0938C78.8933 69.1376 78.8132 69.1576 78.7329 69.1514C77.8565 69.1725 76.9798 69.1398 76.1064 69.0533Z" fill="#5A3B27"/>
<path d="M78.1079 80.1736C78.1079 80.1736 77.8915 71.8187 77.7225 71.5337C77.5535 71.2487 76.146 70.6627 74.4 70.8053C72.6539 70.9478 72.1281 71.5337 72.1281 71.5337L71.6798 80.1736H78.1079Z" fill="#665966"/>
<path d="M79.9184 70.3404C79.9735 70.3493 80.0286 70.3404 80.0875 70.3493C80.1537 70.3596 80.2162 70.3908 80.268 70.4394C80.3198 70.488 80.3589 70.5522 80.381 70.6248C80.3913 70.6763 80.4062 70.7264 80.4256 70.7743C80.4559 70.8211 80.49 70.8646 80.5274 70.9042C80.5637 70.9551 80.5862 71.0172 80.5921 71.0827C80.5981 71.1482 80.5873 71.2143 80.561 71.2728C80.6254 71.3144 80.6797 71.374 80.7189 71.446C80.758 71.5181 80.7808 71.6003 80.7851 71.6852C80.7851 71.7485 80.7785 71.8169 80.7851 71.8828C80.8011 72.088 80.947 72.2445 81.0224 72.4313C81.0877 72.6094 81.0916 72.8093 81.0333 72.9905C80.975 73.1717 80.8589 73.3206 80.7086 73.4068C80.8088 73.522 80.8665 73.6772 80.8698 73.8401C80.8731 74.003 80.8216 74.1611 80.7262 74.2816C80.8793 74.4247 81.0379 74.5767 81.1116 74.7883C81.1854 74.9999 81.1447 75.2817 80.9696 75.3856C81.0286 75.4589 81.0674 75.5507 81.0812 75.6493C81.095 75.7479 81.0832 75.849 81.0471 75.9399C81.0111 76.0308 80.9526 76.1075 80.8788 76.1602C80.8051 76.2129 80.7194 76.2394 80.6326 76.2363C80.6593 76.3408 80.6625 76.4513 80.6417 76.5576C80.6209 76.6638 80.5768 76.7622 80.5138 76.8433C80.4507 76.9245 80.3706 76.9859 80.2812 77.0215C80.1918 77.0572 80.0959 77.066 80.0027 77.0471C80.0205 77.3274 80.0019 77.6092 79.9476 77.8832C79.5947 77.9761 79.2257 77.9461 78.8876 77.7971C78.7472 77.9117 78.6019 78.0283 78.4339 78.0701C78.266 78.1119 78.0677 78.0593 77.9741 77.8933C77.9191 77.8009 77.8992 77.6735 77.8089 77.6279C77.7711 77.6121 77.7307 77.6056 77.6906 77.6089H77.0755C77.0304 77.6145 76.985 77.6029 76.9461 77.576C76.9173 77.5442 76.898 77.5027 76.891 77.4575C76.8457 77.2663 76.8395 77.0655 76.8729 76.871C76.8234 76.8479 76.7784 76.8138 76.7405 76.7706C76.7026 76.7274 76.6725 76.676 76.652 76.6193C76.6315 76.5626 76.621 76.5018 76.6211 76.4404C76.6212 76.379 76.6319 76.3182 76.6526 76.2616C76.6829 76.2047 76.7082 76.1445 76.728 76.0817C76.7495 75.9766 76.7071 75.8696 76.6901 75.765C76.6674 75.6163 76.6958 75.4632 76.7693 75.3381C76.8021 75.2956 76.8262 75.2452 76.8398 75.1905C76.8486 75.1177 76.8095 75.0505 76.7776 74.9866C76.7218 74.8718 76.6874 74.745 76.6764 74.6142C76.6654 74.4834 76.6781 74.3513 76.7137 74.2265C76.7391 74.1378 76.7771 74.0491 76.7688 73.9566C76.7596 73.901 76.7442 73.8469 76.7231 73.7957C76.6813 73.6707 76.6632 73.5369 76.6699 73.4032C76.6767 73.2695 76.7081 73.139 76.7622 73.0204C76.7972 72.9602 76.8225 72.8933 76.8371 72.8228C76.8404 72.7623 76.8342 72.7016 76.8189 72.6435C76.7556 72.3204 76.7484 71.9861 76.798 71.6598C76.8261 71.4768 76.8861 71.2798 77.0303 71.193C77.0619 71.1799 77.0903 71.1581 77.1129 71.1297C77.1292 71.0931 77.1359 71.052 77.1322 71.0112C77.1368 70.9382 77.1541 70.867 77.1832 70.8018C77.2122 70.7367 77.2524 70.6789 77.3013 70.6321C77.3501 70.5852 77.4067 70.5501 77.4677 70.5289C77.5286 70.5078 77.5926 70.501 77.6559 70.5089C77.7396 70.1244 78.1806 69.9116 78.4774 70.1124C78.5001 70.0123 78.5489 69.9226 78.6172 69.8553C78.6855 69.7881 78.7701 69.7465 78.8596 69.7361C79.0798 69.7152 79.1976 69.9262 79.359 70.025C79.5203 70.1238 79.7384 70.3125 79.9184 70.3404Z" fill="#CD8809"/>
<path d="M75.8536 70.5025C75.8303 70.478 75.8004 70.4635 75.7688 70.4614C75.5904 70.431 75.4115 70.4949 75.2347 70.5348C74.8212 70.628 74.3945 70.5919 73.9738 70.5665C73.963 70.5648 73.952 70.5663 73.9418 70.571C73.9302 70.5781 73.9213 70.5898 73.9165 70.6039C73.903 70.6431 73.8994 70.6859 73.9061 70.7274C73.9128 70.7689 73.9296 70.8073 73.9545 70.8383C74.0047 70.8999 74.067 70.9468 74.1362 70.9751C74.2396 71.0247 74.3472 71.0616 74.4572 71.0853C74.5946 71.1123 74.7336 71.1261 74.873 71.1265C75.1301 71.1328 75.3966 71.1195 75.6389 71.0112C75.7086 70.9877 75.7678 70.9341 75.8041 70.8617C75.8465 70.7774 75.9247 70.5925 75.8536 70.5025Z" fill="white"/>
<path d="M76.4753 66.6076C76.5298 66.6828 76.5762 66.7653 76.6135 66.8534C76.739 67.1498 76.7688 67.4868 76.7726 67.8187C76.7838 68.1043 76.744 68.3895 76.6559 68.6567C76.5579 68.931 76.396 69.1381 76.26 69.389C76.1433 69.6031 76.0585 69.8393 75.9329 70.0465C75.8205 70.2354 75.6748 70.3951 75.5053 70.5151C75.3358 70.6352 75.1462 70.7129 74.9489 70.7432C74.7514 70.7696 74.5512 70.7402 74.3657 70.6576C74.1802 70.5749 74.0151 70.4415 73.8845 70.2688C73.7585 70.094 73.6748 69.8843 73.5723 69.6899C73.4723 69.5214 73.3804 69.3467 73.297 69.1666C73.1814 68.8822 73.1489 68.5636 73.128 68.2507C73.0998 67.946 73.1055 67.6384 73.145 67.3354C73.1852 67.0305 73.3066 66.7475 73.4925 66.5253C73.6134 66.4013 73.7471 66.2949 73.8906 66.2086C74.1301 66.0477 74.3735 65.8855 74.6422 65.8057C74.9109 65.7259 75.2127 65.7379 75.4456 65.9109C75.5458 65.985 75.6334 66.0806 75.7352 66.1509C75.8371 66.2212 75.9593 66.2491 76.0766 66.2953C76.2316 66.3561 76.3693 66.464 76.4753 66.6076Z" fill="#CD8809"/>
<path d="M71.6231 67.217C71.6231 67.217 72.7794 67.2556 72.9997 67.7959C73.2199 68.3362 73.2199 71.9024 73.2199 71.9024H68.2587C68.2587 71.9024 68.1447 68.1361 68.3777 67.7763C68.6106 67.4165 71.6231 67.217 71.6231 67.217Z" fill="#505457"/>
<path d="M70.7415 62.0033C71.035 62.1439 71.225 62.4714 71.3742 62.7944C72.0196 64.188 72.2261 65.8083 72.1781 67.3874C72.1627 67.8941 72.1231 68.4104 71.9529 68.8797C71.9301 68.9635 71.8863 69.0375 71.8268 69.0926C71.756 69.1363 71.6758 69.1562 71.5956 69.1502C70.7188 69.1718 69.8417 69.1394 68.968 69.0533C68.6739 67.8156 68.3782 66.5608 68.3727 65.2775C68.3727 64.6041 68.452 63.9156 68.7185 63.3138C68.985 62.7121 69.4569 62.2111 70.029 62.0679C70.4035 61.9742 70.866 62.0894 71.0251 62.4898" fill="#473F47"/>
<path d="M69.6304 79.2862C69.6304 79.2862 69.414 70.9314 69.2449 70.647C69.0759 70.3626 67.6685 69.7754 65.9218 69.9179C64.1752 70.0604 63.6499 70.647 63.6499 70.647L63.2017 79.2862H69.6304Z" fill="#665966"/>
<path d="M68.3028 74.8731C68.3028 74.8731 67.4218 75.3317 67.3237 75.6788C67.2257 76.026 66.9774 79.2836 66.9774 79.2836H73.835C73.835 79.2836 73.4584 75.5344 73.1814 75.2158C72.9044 74.8972 69.7576 74.4747 68.3028 74.8731Z" fill="#473F47"/>
<path d="M71.4408 69.453C71.4959 69.4619 71.551 69.453 71.6099 69.4625C71.676 69.4728 71.7385 69.504 71.7902 69.5525C71.842 69.601 71.8812 69.665 71.9034 69.7374C71.9139 69.789 71.9289 69.8393 71.948 69.8875C71.9786 69.9341 72.0127 69.9775 72.0498 70.0174C72.0861 70.0682 72.1086 70.1302 72.1146 70.1956C72.1205 70.261 72.1097 70.327 72.0834 70.3854C72.1478 70.427 72.2021 70.4866 72.2413 70.5586C72.2804 70.6307 72.3032 70.7129 72.3075 70.7978C72.3075 70.8611 72.3015 70.9302 72.3075 70.9954C72.3241 71.2006 72.4694 71.3571 72.5454 71.5439C72.6106 71.722 72.6144 71.922 72.556 72.1032C72.4976 72.2845 72.3814 72.4333 72.231 72.5194C72.3313 72.6346 72.3892 72.79 72.3925 72.953C72.3958 73.1161 72.3442 73.2743 72.2486 73.3948C72.4017 73.538 72.5603 73.69 72.6341 73.9015C72.7078 74.1131 72.6676 74.395 72.492 74.4982C72.551 74.5715 72.5898 74.6633 72.6036 74.7619C72.6174 74.8605 72.6056 74.9616 72.5695 75.0525C72.5335 75.1434 72.475 75.2201 72.4012 75.2728C72.3275 75.3255 72.2418 75.352 72.155 75.3489C72.1817 75.4533 72.1848 75.5638 72.1641 75.67C72.1433 75.7761 72.0993 75.8745 72.0363 75.9556C71.9733 76.0368 71.8933 76.0981 71.804 76.1338C71.7146 76.1695 71.6188 76.1784 71.5256 76.1597C71.5432 76.4402 71.5246 76.7222 71.4706 76.9964C71.1176 77.0894 70.7487 77.0594 70.4106 76.9103C70.2702 77.0243 70.1248 77.1409 69.9569 77.1827C69.7889 77.2245 69.5907 77.1719 69.4976 77.0059C69.4426 76.9135 69.4222 76.7861 69.3325 76.7405C69.2948 76.7247 69.2546 76.7182 69.2146 76.7215H68.599C68.5539 76.7271 68.5085 76.7155 68.4696 76.6886C68.4409 76.6567 68.4216 76.6153 68.4145 76.5701C68.3692 76.3791 68.363 76.1785 68.3964 75.9842C68.3469 75.9611 68.3019 75.9269 68.264 75.8837C68.2261 75.8404 68.196 75.7889 68.1755 75.7322C68.155 75.6754 68.1445 75.6146 68.1446 75.5531C68.1447 75.4917 68.1554 75.4309 68.1761 75.3742C68.2064 75.3173 68.2317 75.2571 68.2516 75.1943C68.2736 75.0892 68.2306 74.9828 68.2141 74.8776C68.1913 74.7289 68.2198 74.5758 68.2934 74.4507C68.3261 74.4079 68.35 74.3573 68.3633 74.3025C68.3727 74.2296 68.3331 74.1625 68.3017 74.0985C68.2458 73.9839 68.2112 73.8571 68.2001 73.7262C68.189 73.5954 68.2017 73.4634 68.2372 73.3384C68.2631 73.2497 68.3006 73.1611 68.2923 73.0686C68.2831 73.0131 68.2677 72.9593 68.2466 72.9083C68.2048 72.7832 68.1867 72.6493 68.1934 72.5155C68.2002 72.3817 68.2316 72.2511 68.2857 72.1324C68.3207 72.0722 68.3461 72.0052 68.3606 71.9348C68.3639 71.8742 68.3577 71.8135 68.3424 71.7555C68.279 71.4324 68.272 71.098 68.322 70.7718C68.3501 70.5887 68.4096 70.3917 68.5539 70.305C68.5855 70.2921 68.6139 70.2703 68.6365 70.2416C68.6528 70.2049 68.6597 70.1636 68.6563 70.1225C68.6609 70.0495 68.6783 69.9784 68.7074 69.9133C68.7365 69.8482 68.7766 69.7905 68.8255 69.7436C68.8743 69.6967 68.9309 69.6617 68.9918 69.6405C69.0527 69.6193 69.1167 69.6124 69.1799 69.6202C69.2642 69.2357 69.7047 69.0235 70.002 69.2237C70.0247 69.1237 70.0734 69.0341 70.1416 68.9668C70.2098 68.8996 70.2942 68.8579 70.3836 68.8475C70.6066 68.8266 70.7217 69.0375 70.883 69.1363C71.0444 69.2351 71.2613 69.4258 71.4408 69.453Z" fill="#CD8809"/>
<path d="M67.3761 69.6158C67.3528 69.5912 67.3228 69.5766 67.2913 69.5746C67.1129 69.5448 66.9345 69.6082 66.7572 69.6481C66.3436 69.7412 65.9174 69.7057 65.4962 69.6804C65.4854 69.6788 65.4745 69.6801 65.4643 69.6842C65.4527 69.6913 65.4437 69.703 65.4389 69.7171C65.4254 69.7564 65.4218 69.7993 65.4285 69.8409C65.4353 69.8825 65.452 69.921 65.4769 69.9521C65.5274 70.0135 65.5899 70.0602 65.6592 70.0883C65.7623 70.1381 65.8697 70.1753 65.9797 70.1992C66.117 70.2259 66.2561 70.2396 66.3954 70.2403C66.6525 70.246 66.919 70.2327 67.1613 70.1244C67.2309 70.101 67.2901 70.0477 67.3265 69.9756C67.3689 69.89 67.4449 69.7051 67.3761 69.6158Z" fill="white"/>
<path d="M67.9955 65.7202C68.0501 65.7954 68.0965 65.8779 68.1337 65.966C68.2593 66.263 68.289 66.5994 68.2929 66.9313C68.3041 67.2169 68.2643 67.5021 68.1761 67.7693C68.0781 68.0436 67.9162 68.2507 67.7802 68.5016C67.664 68.7163 67.5787 68.9519 67.4532 69.1591C67.3407 69.348 67.195 69.5077 67.0255 69.6277C66.856 69.7477 66.6665 69.8255 66.4692 69.8558C66.2718 69.8814 66.072 69.8513 65.887 69.7681C65.702 69.6849 65.5375 69.5511 65.4075 69.3782C65.2814 69.2034 65.1978 68.9937 65.0953 68.7993C64.9953 68.6308 64.9034 68.4561 64.82 68.2761C64.7044 67.9923 64.6719 67.6737 64.651 67.3608C64.623 67.0559 64.6288 66.7481 64.668 66.4448C64.7084 66.14 64.8298 65.857 65.0155 65.6347C65.1366 65.511 65.2703 65.4047 65.4136 65.318C65.6531 65.1577 65.8971 64.9949 66.1652 64.9151C66.4334 64.8353 66.7357 64.848 66.9686 65.0209C67.0688 65.095 67.1564 65.19 67.2582 65.261C67.3601 65.3319 67.4823 65.3585 67.5996 65.4048C67.7539 65.4669 67.8907 65.5759 67.9955 65.7202Z" fill="#CD8809"/>
<path d="M64.4318 69.9794C64.6679 69.8969 64.9226 69.924 65.1416 70.0547C65.2589 70.1263 65.3068 70.2657 65.4048 70.3423C65.4857 70.4056 65.6251 70.3322 65.6922 70.4456C65.771 70.5779 65.8238 70.7971 65.8861 70.946C65.9657 71.1377 66.038 71.3332 66.103 71.5325C66.2325 71.9316 66.3345 72.3419 66.4081 72.7594C66.5509 73.5896 66.6077 74.4362 66.5771 75.2817C66.5617 75.7885 66.522 76.3047 66.3519 76.7747C66.1691 77.2878 65.3233 77.1402 64.9505 77.1332C64.2997 77.121 63.6499 77.0826 63.0013 77.0179C62.8592 75.3713 62.8879 73.7111 63.0866 72.0722C63.1312 71.708 63.1863 71.3368 63.3405 71.0144C63.5492 70.5779 63.9759 70.1225 64.4318 69.9794Z" fill="#473F47"/>
</g>
<path d="M44.8524 34.1264C44.8366 34.2589 44.8066 34.3887 44.7632 34.5128C44.7053 34.6553 44.6234 34.783 44.5221 34.8886C44.4209 34.9943 44.3023 35.0756 44.1734 35.1278C43.9139 35.2304 43.6349 35.2491 43.3667 35.1817C43.3712 34.9188 43.3772 34.6471 43.4725 34.4076C43.5376 34.2581 43.6235 34.1218 43.7269 34.0042C43.837 33.8711 43.9614 33.7445 44.1123 33.6874C44.2156 33.6567 44.3223 33.6439 44.4289 33.6494H44.7268C44.7769 33.6494 44.9366 33.6203 44.9724 33.6678C45.0082 33.7153 44.9498 33.8034 44.9294 33.8445C44.8881 33.9318 44.8619 34.0276 44.8524 34.1264Z" fill="#FC682D"/>
<path d="M45.2852 34.5324C45.2797 34.654 45.2642 34.7814 45.3066 34.8928C45.3546 35.0195 45.4658 35.0943 45.5748 35.15C45.6981 35.223 45.8374 35.2521 45.9751 35.2336C45.9646 35.0087 45.9341 34.7857 45.8843 34.5679C45.8332 34.3489 45.7255 34.153 45.5754 34.006C45.5109 33.9478 45.2075 33.7096 45.1971 33.8984C45.1921 33.9883 45.2428 34.0884 45.2598 34.1733C45.2831 34.291 45.2916 34.4119 45.2852 34.5324Z" fill="#FC682D"/>
<path d="M46.5758 37.7812L47.5719 38.3748L46.9519 40.1579L46.6931 40.13C46.6931 40.13 46.3947 38.4514 46.5758 37.7812Z" fill="#505457"/>
<path d="M47.1865 39.4896L46.5544 39.0665L46.6953 40.13L46.9541 40.1579L47.1865 39.4896Z" fill="url(#paint9_linear_10_714)"/>
<path d="M52.7495 33.6767C52.9977 33.6767 53.1989 33.4452 53.1989 33.1598C53.1989 32.8743 52.9977 32.6429 52.7495 32.6429C52.5014 32.6429 52.3002 32.8743 52.3002 33.1598C52.3002 33.4452 52.5014 33.6767 52.7495 33.6767Z" fill="#505457"/>
<path d="M66.9328 31.0093C67.1809 31.0093 67.3821 30.7779 67.3821 30.4925C67.3821 30.207 67.1809 29.9756 66.9328 29.9756C66.6846 29.9756 66.4835 30.207 66.4835 30.4925C66.4835 30.7779 66.6846 31.0093 66.9328 31.0093Z" fill="#505457"/>
<path d="M57.3534 39.3654L52.8371 33.4233L52.9704 33.289L57.3463 39.0455L62.025 32.1577L64.5166 34.2879L66.8596 30.4031L67.0055 30.5197L64.5574 34.5774L62.058 32.4402L57.3534 39.3654Z" fill="#505457"/>
<defs>
<linearGradient id="paint0_linear_10_714" x1="44.2676" y1="42.8423" x2="44.7113" y2="66.5942" gradientUnits="userSpaceOnUse">
<stop offset="0.01"/>
<stop offset="0.08" stop-opacity="0.69"/>
<stop offset="0.21" stop-opacity="0.32"/>
<stop offset="1" stop-opacity="0"/>
</linearGradient>
<linearGradient id="paint1_linear_10_714" x1="44.5423" y1="46.1285" x2="45.0814" y2="31.2478" gradientUnits="userSpaceOnUse">
<stop offset="0.01"/>
<stop offset="0.08" stop-opacity="0.69"/>
<stop offset="0.21" stop-opacity="0.32"/>
<stop offset="1" stop-opacity="0"/>
</linearGradient>
<linearGradient id="paint2_linear_10_714" x1="43.1415" y1="40.2655" x2="40.607" y2="39.5259" gradientUnits="userSpaceOnUse">
<stop offset="0.01"/>
<stop offset="0.08" stop-opacity="0.69"/>
<stop offset="0.21" stop-opacity="0.32"/>
<stop offset="1" stop-opacity="0"/>
</linearGradient>
<linearGradient id="paint3_linear_10_714" x1="43.4504" y1="38.8467" x2="45.5603" y2="36.922" gradientUnits="userSpaceOnUse">
<stop offset="0.01"/>
<stop offset="0.08" stop-opacity="0.69"/>
<stop offset="0.21" stop-opacity="0.32"/>
<stop offset="1" stop-opacity="0"/>
</linearGradient>
<linearGradient id="paint4_linear_10_714" x1="43.9752" y1="40.0198" x2="45.9537" y2="38.8235" gradientUnits="userSpaceOnUse">
<stop offset="0.01"/>
<stop offset="0.08" stop-opacity="0.69"/>
<stop offset="0.21" stop-opacity="0.32"/>
<stop offset="1" stop-opacity="0"/>
</linearGradient>
<linearGradient id="paint5_linear_10_714" x1="45.9856" y1="38.9872" x2="43.6328" y2="36.8421" gradientUnits="userSpaceOnUse">
<stop offset="0.01"/>
<stop offset="0.08" stop-opacity="0.69"/>
<stop offset="0.21" stop-opacity="0.32"/>
<stop offset="1" stop-opacity="0"/>
</linearGradient>
<linearGradient id="paint6_linear_10_714" x1="45.5456" y1="40.0198" x2="43.5671" y2="38.8235" gradientUnits="userSpaceOnUse">
<stop offset="0.01"/>
<stop offset="0.08" stop-opacity="0.69"/>
<stop offset="0.21" stop-opacity="0.32"/>
<stop offset="1" stop-opacity="0"/>
</linearGradient>
<linearGradient id="paint7_linear_10_714" x1="43.6635" y1="37.4278" x2="45.6876" y2="50.8496" gradientUnits="userSpaceOnUse">
<stop offset="0.01"/>
<stop offset="0.08" stop-opacity="0.69"/>
<stop offset="0.21" stop-opacity="0.32"/>
<stop offset="1" stop-opacity="0"/>
</linearGradient>
<linearGradient id="paint8_linear_10_714" x1="44.3518" y1="37.7889" x2="45.2606" y2="39.8011" gradientUnits="userSpaceOnUse">
<stop offset="0.01"/>
<stop offset="0.08" stop-opacity="0.69"/>
<stop offset="0.21" stop-opacity="0.32"/>
<stop offset="1" stop-opacity="0"/>
</linearGradient>
<linearGradient id="paint9_linear_10_714" x1="47.0246" y1="41.3975" x2="46.6095" y2="37.0834" gradientUnits="userSpaceOnUse">
<stop offset="0.01"/>
<stop offset="0.08" stop-opacity="0.69"/>
<stop offset="0.21" stop-opacity="0.32"/>
<stop offset="1" stop-opacity="0"/>
</linearGradient>
</defs>
</svg>
