<svg width="96" height="96" viewBox="0 0 96 96" fill="none" xmlns="http://www.w3.org/2000/svg">
<rect width="96" height="96" rx="15" fill="#131C73"/>
<path d="M24.0399 24.2575H70.5433V46.705H24.0399V24.2575Z" fill="white"/>
<path d="M70.5458 46.9575H24.0399C23.9737 46.9575 23.9103 46.9311 23.8636 46.8843C23.8168 46.8374 23.7905 46.7738 23.7905 46.7075V24.25C23.7905 24.1837 23.8168 24.1201 23.8636 24.0732C23.9103 24.0263 23.9737 24 24.0399 24H70.5458C70.6119 24 70.6754 24.0263 70.7221 24.0732C70.7689 24.1201 70.7952 24.1837 70.7952 24.25V46.7C70.7962 46.7334 70.7905 46.7668 70.7784 46.798C70.7663 46.8292 70.7481 46.8576 70.7248 46.8816C70.7016 46.9056 70.6738 46.9247 70.643 46.9378C70.6122 46.9508 70.5792 46.9575 70.5458 46.9575ZM24.2893 46.4575H70.2964V24.5H24.2893V46.4575Z" fill="#093F68"/>
<path d="M38.0423 48.9625C37.9761 48.9625 37.9127 48.9361 37.866 48.8892C37.8192 48.8424 37.7929 48.7788 37.7929 48.7125V43.32C37.7927 43.2865 37.7992 43.2533 37.8121 43.2224C37.8249 43.1914 37.8439 43.1634 37.8677 43.14L39.8128 41.23C39.8601 41.1836 39.9239 41.1579 39.9901 41.1586C40.0562 41.1593 40.1194 41.1863 40.1657 41.2337C40.212 41.2811 40.2376 41.345 40.2369 41.4114C40.2362 41.4777 40.2093 41.5411 40.162 41.5875L38.2917 43.425V48.7125C38.2917 48.7788 38.2654 48.8424 38.2186 48.8892C38.1719 48.9361 38.1084 48.9625 38.0423 48.9625Z" fill="#093F68"/>
<path d="M40.1834 40.2393L39.3484 41.0058C39.0823 41.2501 39.0641 41.6645 39.3078 41.9313L39.3633 41.9921C39.607 42.2589 40.0203 42.2771 40.2864 42.0328L41.1214 41.2663C41.3876 41.022 41.4057 40.6077 41.1621 40.3409L41.1065 40.2801C40.8628 40.0133 40.4495 39.995 40.1834 40.2393Z" fill="black"/>
<path d="M39.8453 42.4575H39.8054C39.6868 42.4534 39.5702 42.4254 39.4627 42.3751C39.3551 42.3249 39.2588 42.2534 39.1794 42.165L39.1221 42.105C38.9615 41.9276 38.8774 41.6937 38.8882 41.4544C38.8989 41.2151 39.0036 40.9897 39.1794 40.8275L40.0148 40.06C40.102 39.9795 40.2042 39.9171 40.3155 39.8763C40.4268 39.8355 40.545 39.8171 40.6634 39.8222C40.7818 39.8273 40.898 39.8558 41.0054 39.9061C41.1128 39.9563 41.2092 40.0273 41.2891 40.115L41.344 40.1775C41.4243 40.2649 41.4865 40.3673 41.5272 40.4789C41.5679 40.5904 41.5863 40.709 41.5812 40.8277C41.5761 40.9463 41.5477 41.0629 41.4975 41.1705C41.4474 41.2782 41.3766 41.3748 41.2891 41.455L40.4537 42.2225C40.2873 42.3743 40.0703 42.4581 39.8453 42.4575ZM40.6233 40.32C40.5229 40.3201 40.426 40.3575 40.3515 40.425L39.5211 41.1925C39.4813 41.2281 39.4492 41.2716 39.4269 41.3202C39.4046 41.3688 39.3925 41.4215 39.3914 41.475C39.3888 41.5279 39.3968 41.5807 39.4148 41.6305C39.4327 41.6803 39.4604 41.726 39.4961 41.765L39.551 41.825C39.5865 41.8645 39.6295 41.8965 39.6774 41.9192C39.7254 41.942 39.7773 41.955 39.8303 41.9575C39.9376 41.96 40.0419 41.9216 40.1221 41.85L40.9575 41.0825C41.0358 41.01 41.0824 40.9094 41.0871 40.8026C41.0917 40.6959 41.0541 40.5916 40.9824 40.5125L40.9275 40.45C40.854 40.3717 40.7529 40.3251 40.6458 40.32H40.6233Z" fill="#093F68"/>
<path d="M54.1693 51.3425V45.5475C54.1697 45.091 54.0803 44.6388 53.9062 44.2169C53.7322 43.795 53.4769 43.4116 53.155 43.0887C52.8331 42.7657 52.4508 42.5096 52.0301 42.3348C51.6094 42.16 51.1584 42.07 50.703 42.07H45.2318C44.3122 42.0707 43.4305 42.4373 42.7805 43.0894C42.1306 43.7415 41.7654 44.6256 41.7654 45.5475V51.3425H54.1693Z" fill="black"/>
<path d="M54.1693 51.5925H41.7654C41.6993 51.5925 41.6359 51.5662 41.5891 51.5193C41.5423 51.4724 41.5161 51.4088 41.5161 51.3425V45.5475C41.5174 44.5593 41.9095 43.612 42.6066 42.9132C43.3036 42.2145 44.2485 41.8213 45.2342 41.82H50.7055C51.691 41.8213 52.6357 42.2146 53.3323 42.9134C54.029 43.6122 54.4206 44.5595 54.4212 45.5475V51.3425C54.4212 51.3755 54.4147 51.4083 54.402 51.4387C54.3893 51.4692 54.3707 51.4969 54.3473 51.5202C54.3239 51.5434 54.2961 51.5618 54.2655 51.5742C54.235 51.5866 54.2023 51.5928 54.1693 51.5925ZM42.0123 51.0925H53.92V45.5475C53.9193 44.6922 53.5803 43.872 52.9772 43.2669C52.3741 42.6619 51.5562 42.3213 50.703 42.32H45.2318C44.3785 42.3213 43.5607 42.6619 42.9576 43.2669C42.3545 43.872 42.0155 44.6922 42.0148 45.5475L42.0123 51.0925Z" fill="#093F68"/>
<path d="M50.2267 42.07L48.0073 50.4975L45.738 42.07H50.2267Z" fill="white"/>
<path d="M47.9998 50.75C47.9435 50.7519 47.8882 50.7347 47.8429 50.7011C47.7977 50.6675 47.7651 50.6195 47.7504 50.565L45.5061 42.135C45.4967 42.0981 45.4959 42.0596 45.5037 42.0223C45.5115 41.985 45.5276 41.9501 45.551 41.92C45.5739 41.8893 45.6037 41.8643 45.6378 41.847C45.672 41.8296 45.7097 41.8204 45.748 41.82H50.2367C50.2752 41.8197 50.3133 41.8284 50.3479 41.8453C50.3825 41.8622 50.4127 41.8869 50.4362 41.9175C50.4595 41.9481 50.4754 41.9836 50.4828 42.0213C50.4901 42.059 50.4887 42.0979 50.4786 42.135L48.2492 50.5625C48.2346 50.617 48.202 50.665 48.1567 50.6986C48.1114 50.7322 48.0561 50.7494 47.9998 50.7475V50.75ZM46.0572 42.3225L47.9998 49.53L49.8976 42.32L46.0572 42.3225Z" fill="#093F68"/>
<path d="M47.0996 41.41H48.8452V42.41C48.8452 42.6089 48.7664 42.7997 48.6261 42.9403C48.4858 43.081 48.2955 43.16 48.0971 43.16H47.8352C47.6368 43.16 47.4465 43.081 47.3062 42.9403C47.1659 42.7997 47.0871 42.6089 47.0871 42.41V41.41H47.0996Z" fill="#FFC9B0"/>
<path d="M48.0971 43.4H47.8477C47.5832 43.4 47.3294 43.2946 47.1424 43.1071C46.9553 42.9195 46.8502 42.6652 46.8502 42.4V41.4C46.8502 41.3337 46.8765 41.2701 46.9232 41.2232C46.97 41.1763 47.0334 41.15 47.0996 41.15H48.8452C48.9113 41.15 48.9748 41.1763 49.0215 41.2232C49.0683 41.2701 49.0946 41.3337 49.0946 41.4V42.4C49.0946 42.6652 48.9895 42.9195 48.8024 43.1071C48.6154 43.2946 48.3616 43.4 48.0971 43.4ZM47.349 41.65V42.4C47.349 42.5326 47.4015 42.6597 47.495 42.7535C47.5886 42.8473 47.7154 42.9 47.8477 42.9H48.0971C48.2294 42.9 48.3562 42.8473 48.4497 42.7535C48.5433 42.6597 48.5958 42.5326 48.5958 42.4V41.65H47.349Z" fill="#093F68"/>
<path d="M42.0298 36.5C41.8829 36.1213 41.8175 35.7158 41.8378 35.31C41.8231 33.8665 41.9332 32.4244 42.1669 31C42.2513 30.2855 42.4651 29.5924 42.7979 28.955C43.092 28.4782 43.4736 28.0617 43.9225 27.7275C45.0525 26.8363 46.4524 26.3591 47.8901 26.375C50.6606 26.4375 52.9424 28.4325 53.6507 31.05C53.972 32.3573 54.069 33.71 53.9374 35.05C53.9382 35.4653 53.8335 35.8739 53.6332 36.2375C53.1519 36.9725 52.1893 36.5675 51.4686 36.59L48.1046 36.695C46.7455 36.7375 45.3988 36.9675 44.0348 36.945C43.6083 36.945 42.8004 37.0475 42.4014 36.88C42.2353 36.8031 42.1031 36.6679 42.0298 36.5Z" fill="#725858"/>
<path d="M43.0946 37.21C42.8272 37.2229 42.5598 37.1847 42.3066 37.0975C42.0852 36.9973 41.9078 36.8195 41.8078 36.5975C41.6444 36.1845 41.5704 35.7414 41.5909 35.2975C41.5766 33.8373 41.6876 32.3786 41.9226 30.9375C42.0112 30.1919 42.2361 29.469 42.5859 28.805C42.8934 28.3058 43.2918 27.869 43.7604 27.5175C44.9345 26.5881 46.3918 26.092 47.8876 26.1125C50.6607 26.175 53.1245 28.1725 53.8726 30.9725C54.204 32.3088 54.3036 33.6923 54.1669 35.0625C54.1651 35.5206 54.0466 35.9707 53.8227 36.37C53.3863 37.035 52.6407 36.9475 52.0422 36.87C51.8481 36.8423 51.6522 36.8281 51.4562 36.8275L48.0921 36.9325C47.5285 36.95 46.9549 37 46.3988 37.05C45.6054 37.136 44.8079 37.1777 44.0098 37.175C43.8926 37.175 43.748 37.175 43.5909 37.175C43.4338 37.175 43.2617 37.21 43.0946 37.21ZM47.7504 26.61C46.4126 26.6225 45.1168 27.0807 44.0672 27.9125C43.6458 28.2271 43.2878 28.619 43.0123 29.0675C42.6919 29.6785 42.4881 30.344 42.4113 31.03C42.1792 32.442 42.0699 33.8715 42.0847 35.3025C42.0669 35.6699 42.1229 36.0372 42.2492 36.3825C42.2992 36.4935 42.3879 36.5824 42.4986 36.6325C42.8561 36.7127 43.2245 36.7322 43.5884 36.69C43.758 36.69 43.9151 36.675 44.0397 36.69C44.8194 36.6919 45.5987 36.651 46.3739 36.5675C46.9375 36.5175 47.5185 36.465 48.0971 36.4475L51.4611 36.3425C51.6814 36.3416 51.9014 36.3567 52.1195 36.3875C52.7654 36.465 53.1768 36.4825 53.4237 36.1025C53.5986 35.774 53.6902 35.4074 53.6906 35.035C53.822 33.7203 53.7276 32.3927 53.4113 31.11C52.7105 28.525 50.4362 26.6775 47.8851 26.61H47.7504Z" fill="#093F68"/>
<path d="M42.8926 38.3475C43.8237 38.3475 44.5784 37.6949 44.5784 36.89C44.5784 36.085 43.8237 35.4325 42.8926 35.4325C41.9616 35.4325 41.2068 36.085 41.2068 36.89C41.2068 37.6949 41.9616 38.3475 42.8926 38.3475Z" fill="#FFC9B0"/>
<path d="M42.8926 38.595C41.8253 38.595 40.955 37.83 40.955 36.89C40.955 35.95 41.8253 35.1825 42.8926 35.1825C43.9599 35.1825 44.8278 35.9475 44.8278 36.89C44.8278 37.8325 43.9599 38.595 42.8926 38.595ZM42.8926 35.6825C42.0996 35.6825 41.4537 36.2225 41.4537 36.89C41.4537 37.5575 42.0996 38.095 42.8926 38.095C43.6856 38.095 44.329 37.555 44.329 36.89C44.329 36.225 43.6831 35.6825 42.8926 35.6825Z" fill="#093F68"/>
<path d="M52.723 38.3475C53.654 38.3475 54.4088 37.6949 54.4088 36.89C54.4088 36.085 53.654 35.4325 52.723 35.4325C51.792 35.4325 51.0372 36.085 51.0372 36.89C51.0372 37.6949 51.792 38.3475 52.723 38.3475Z" fill="#FFC9B0"/>
<path d="M52.7379 38.595C51.6681 38.595 50.8003 37.83 50.8003 36.89C50.8003 35.95 51.6681 35.1825 52.7379 35.1825C53.8078 35.1825 54.6731 35.9475 54.6731 36.89C54.6731 37.8325 53.7928 38.595 52.7379 38.595ZM52.7379 35.6825C51.9449 35.6825 51.299 36.2225 51.299 36.89C51.299 37.5575 51.9449 38.095 52.7379 38.095C53.5309 38.095 54.1743 37.555 54.1743 36.89C54.1743 36.225 53.516 35.6825 52.7379 35.6825Z" fill="#093F68"/>
<path d="M47.8527 41.6375C46.5035 41.6375 45.2095 41.1002 44.2555 40.1437C43.3014 39.1873 42.7654 37.8901 42.7654 36.5375C42.7654 35.83 42.7654 35.1225 42.8053 34.415C42.8303 33.815 42.7455 33.12 42.94 32.555C43.0825 32.0745 43.2871 31.6148 43.5485 31.1875C43.8158 30.7584 44.2417 30.4528 44.733 30.3375C45.8427 30.1325 46.8053 31.2575 47.935 31.285C48.7105 31.305 49.3863 30.8075 50.0871 30.475C53.526 28.835 52.9399 34.725 52.9399 36.5375C52.9399 37.8901 52.404 39.1873 51.4499 40.1437C50.4959 41.1002 49.2019 41.6375 47.8527 41.6375Z" fill="#FFC9B0"/>
<path d="M47.8527 41.8875C46.4377 41.8861 45.0811 41.3221 44.0806 40.319C43.0801 39.316 42.5174 37.956 42.5161 36.5375C42.5161 35.9125 42.5161 35.1675 42.556 34.405C42.556 34.2375 42.556 34.0625 42.556 33.885C42.5256 33.4092 42.5754 32.9317 42.7031 32.4725C42.8511 31.9713 43.0649 31.4921 43.339 31.0475C43.4891 30.8065 43.6855 30.5978 43.9166 30.4334C44.1478 30.2691 44.4092 30.1523 44.6856 30.09C45.3714 29.965 45.9799 30.2725 46.5709 30.5675C46.987 30.8212 47.4534 30.9808 47.9375 31.035C48.4711 31.05 48.9574 30.785 49.4761 30.5075C49.6432 30.4175 49.8103 30.3275 49.9749 30.2575C50.7928 29.87 51.4711 29.8475 52.0023 30.1925C53.334 31.0625 53.2492 34.0425 53.1993 35.8225C53.1993 36.105 53.1843 36.35 53.1843 36.5475C53.1804 37.9634 52.6172 39.3201 51.6181 40.3208C50.6189 41.3215 49.2651 41.8848 47.8527 41.8875ZM45.0073 30.5625C44.9312 30.5617 44.8552 30.5684 44.7804 30.5825C44.3541 30.6872 43.9865 30.9569 43.758 31.3325C43.5086 31.74 43.314 32.1788 43.1794 32.6375C43.0718 33.0448 43.0314 33.4671 43.0597 33.8875V34.4325C43.0248 35.1825 43.0198 35.9325 43.0198 36.5425C43.0198 37.8288 43.5295 39.0624 44.4368 39.9719C45.3441 40.8815 46.5746 41.3925 47.8577 41.3925C49.1408 41.3925 50.3713 40.8815 51.2786 39.9719C52.1858 39.0624 52.6956 37.8288 52.6956 36.5425C52.6956 36.3425 52.6956 36.09 52.7105 35.7925C52.7554 34.225 52.8377 31.31 51.7404 30.595C51.3664 30.345 50.8477 30.3825 50.1993 30.6925C50.0397 30.77 49.8801 30.855 49.718 30.9425C49.1644 31.24 48.5908 31.5525 47.9325 31.53C47.3741 31.4775 46.8346 31.2998 46.3539 31.01C45.8876 30.7825 45.4487 30.5625 45.0073 30.5625Z" fill="#093F68"/>
<path d="M47.8377 38C47.6782 37.9989 47.5189 37.9856 47.3614 37.96C47.3287 37.9543 47.2974 37.9421 47.2693 37.9242C47.2413 37.9064 47.217 37.8831 47.1979 37.8558C47.1788 37.8286 47.1652 37.7978 47.158 37.7653C47.1507 37.7327 47.15 37.6991 47.1557 37.6663C47.1614 37.6334 47.1735 37.602 47.1914 37.5739C47.2092 37.5458 47.2324 37.5214 47.2596 37.5023C47.2868 37.4831 47.3175 37.4695 47.35 37.4623C47.3824 37.455 47.416 37.4543 47.4487 37.46C47.6392 37.4904 47.8327 37.4971 48.0248 37.48C47.9401 37.1383 47.8119 36.8089 47.6432 36.5C47.6143 36.4415 47.6093 36.374 47.6294 36.3119C47.6495 36.2498 47.693 36.198 47.7506 36.1676C47.8083 36.1373 47.8755 36.1307 47.9379 36.1494C48.0003 36.168 48.053 36.2104 48.0846 36.2675C48.2991 36.6775 48.6332 37.415 48.4861 37.745C48.4634 37.7961 48.4289 37.841 48.3856 37.8762C48.3423 37.9114 48.2913 37.9358 48.2367 37.9475C48.1062 37.9804 47.9723 37.998 47.8377 38Z" fill="#093F68"/>
<path d="M48.2766 43.32H47.738C47.5314 43.32 47.3639 43.4879 47.3639 43.695V43.96C47.3639 44.1671 47.5314 44.335 47.738 44.335H48.2766C48.4832 44.335 48.6507 44.1671 48.6507 43.96V43.695C48.6507 43.4879 48.4832 43.32 48.2766 43.32Z" fill="#F56132"/>
<path d="M48.2766 44.5825H47.7504C47.5855 44.5825 47.4273 44.517 47.3105 44.4003C47.1936 44.2837 47.1277 44.1253 47.127 43.96V43.6925C47.1277 43.5272 47.1936 43.3689 47.3105 43.2522C47.4273 43.1355 47.5855 43.07 47.7504 43.07H48.2891C48.4538 43.0707 48.6116 43.1364 48.7283 43.2529C48.845 43.3694 48.9112 43.5274 48.9125 43.6925V43.96C48.9119 44.0428 48.8949 44.1247 48.8625 44.2009C48.8301 44.2771 48.783 44.3462 48.7239 44.404C48.6648 44.4619 48.5948 44.5075 48.5181 44.5381C48.4413 44.5687 48.3592 44.5838 48.2766 44.5825ZM47.7504 43.57C47.7342 43.5697 47.718 43.5726 47.7029 43.5786C47.6878 43.5846 47.674 43.5936 47.6624 43.605C47.6508 43.6164 47.6416 43.63 47.6353 43.645C47.629 43.6601 47.6257 43.6762 47.6257 43.6925V43.96C47.6257 43.9763 47.629 43.9924 47.6353 44.0075C47.6416 44.0225 47.6508 44.0361 47.6624 44.0475C47.674 44.0589 47.6878 44.0679 47.7029 44.0739C47.718 44.0799 47.7342 44.0828 47.7504 44.0825H48.2891C48.3217 44.0825 48.3531 44.0697 48.3764 44.0468C48.3997 44.0239 48.4131 43.9927 48.4138 43.96V43.6925C48.4131 43.6598 48.3997 43.6286 48.3764 43.6057C48.3531 43.5828 48.3217 43.57 48.2891 43.57H47.7504Z" fill="#093F68"/>
<path d="M48.7554 47.6575L48.0073 50.4975L47.1769 47.415L47.6382 44.335H48.3739L48.7554 47.6575Z" fill="#F56132"/>
<path d="M47.9998 50.75C47.9435 50.7519 47.8882 50.7347 47.8429 50.7011C47.7977 50.6675 47.7651 50.6195 47.7504 50.565L46.9225 47.485C46.9155 47.4512 46.9155 47.4163 46.9225 47.3825L47.3839 44.3C47.3929 44.2404 47.4231 44.186 47.4689 44.147C47.5147 44.1079 47.5731 44.0868 47.6332 44.0875H48.3689C48.4302 44.087 48.4894 44.1092 48.5354 44.1498C48.5814 44.1904 48.6109 44.2465 48.6183 44.3075L48.9973 47.6275C49.0036 47.658 49.0036 47.6895 48.9973 47.72L48.2492 50.5625C48.2346 50.617 48.202 50.665 48.1567 50.6986C48.1114 50.7322 48.0561 50.7494 47.9998 50.7475V50.75ZM47.4238 47.405L47.9973 49.5325L48.4961 47.64L48.1445 44.5875H47.8452L47.4238 47.405Z" fill="#093F68"/>
<path d="M44.5909 51.5925C44.5247 51.5925 44.4613 51.5662 44.4145 51.5193C44.3678 51.4724 44.3415 51.4088 44.3415 51.3425V45.0625C44.3415 44.9962 44.3678 44.9326 44.4145 44.8857C44.4613 44.8388 44.5247 44.8125 44.5909 44.8125C44.657 44.8125 44.7204 44.8388 44.7672 44.8857C44.814 44.9326 44.8402 44.9962 44.8402 45.0625V51.3425C44.8402 51.4088 44.814 51.4724 44.7672 51.5193C44.7204 51.5662 44.657 51.5925 44.5909 51.5925Z" fill="#093F68"/>
<path d="M51.3439 51.5925C51.2778 51.5925 51.2144 51.5662 51.1676 51.5193C51.1208 51.4724 51.0946 51.4088 51.0946 51.3425V45.0625C51.0946 44.9962 51.1208 44.9326 51.1676 44.8857C51.2144 44.8388 51.2778 44.8125 51.3439 44.8125C51.4101 44.8125 51.4735 44.8388 51.5203 44.8857C51.567 44.9326 51.5933 44.9962 51.5933 45.0625V51.3425C51.5933 51.4088 51.567 51.4724 51.5203 51.5193C51.4735 51.5662 51.4101 51.5925 51.3439 51.5925Z" fill="#093F68"/>
<path d="M58.2766 48.5H36.7081C36.2688 48.5 35.9126 48.8571 35.9126 49.2975V49.7C35.9126 50.1404 36.2688 50.4975 36.7081 50.4975H58.2766C58.7159 50.4975 59.0721 50.1404 59.0721 49.7V49.2975C59.0721 48.8571 58.7159 48.5 58.2766 48.5Z" fill="#725858"/>
<path d="M58.279 50.7499H36.7106C36.4333 50.7499 36.1672 50.6397 35.9709 50.4433C35.7745 50.2469 35.6639 49.9805 35.6632 49.7024V49.2999C35.6639 49.0219 35.7745 48.7555 35.9709 48.5591C36.1672 48.3627 36.4333 48.2524 36.7106 48.2524H58.279C58.556 48.2531 58.8213 48.3637 59.0172 48.56C59.213 48.7563 59.3233 49.0223 59.3239 49.2999V49.7024C59.3233 49.9801 59.213 50.2461 59.0172 50.4424C58.8213 50.6387 58.556 50.7493 58.279 50.7499ZM36.7106 48.7499C36.5655 48.7499 36.4264 48.8075 36.3236 48.9101C36.2207 49.0128 36.1626 49.152 36.162 49.2974V49.6999C36.1626 49.8454 36.2207 49.9846 36.3236 50.0872C36.4264 50.1898 36.5655 50.2474 36.7106 50.2474H58.279C58.4237 50.2468 58.5622 50.1889 58.6645 50.0864C58.7668 49.9838 58.8245 49.8449 58.8252 49.6999V49.2974C58.8245 49.1524 58.7668 49.0136 58.6645 48.911C58.5622 48.8085 58.4237 48.7506 58.279 48.7499H36.7106Z" fill="#725858"/>
<path d="M38.3739 68.665H56.6132L57.8002 50.4975H37.1869L38.3739 68.665Z" fill="#725858"/>
<path d="M56.6132 68.915H38.3739C38.3103 68.9151 38.2491 68.8908 38.2027 68.8471C38.1563 68.8034 38.1284 68.7436 38.1246 68.68L36.94 50.515C36.9376 50.4807 36.9423 50.4463 36.9538 50.4139C36.9652 50.3816 36.9832 50.3519 37.0066 50.3268C37.03 50.3017 37.0583 50.2817 37.0898 50.2681C37.1212 50.2544 37.1551 50.2474 37.1894 50.2475H57.8002C57.8345 50.2474 57.8684 50.2544 57.8999 50.2681C57.9313 50.2817 57.9596 50.3017 57.983 50.3268C58.0064 50.3519 58.0244 50.3816 58.0359 50.4139C58.0473 50.4463 58.052 50.4807 58.0496 50.515L56.8626 68.68C56.8588 68.7436 56.8308 68.8034 56.7845 68.8471C56.7381 68.8908 56.6768 68.9151 56.6132 68.915ZM38.6084 68.415H56.3813L57.5334 50.75H37.4537L38.6084 68.415Z" fill="#093F68"/>
<path d="M26.4713 64.125H28.1321V65.0825C28.1321 65.2701 28.0578 65.4501 27.9254 65.5828C27.7931 65.7155 27.6136 65.79 27.4264 65.79H27.177C26.9898 65.79 26.8103 65.7155 26.678 65.5828C26.5456 65.4501 26.4713 65.2701 26.4713 65.0825V64.125Z" fill="#FFC9B0"/>
<path d="M27.4289 66.0399H27.1795C26.9264 66.0393 26.6839 65.9382 26.5049 65.7588C26.3259 65.5793 26.2251 65.3362 26.2244 65.0824V64.1249C26.2244 64.0586 26.2507 63.995 26.2975 63.9482C26.3442 63.9013 26.4076 63.8749 26.4738 63.8749H28.1346C28.2008 63.8749 28.2642 63.9013 28.311 63.9482C28.3577 63.995 28.384 64.0586 28.384 64.1249V65.0824C28.384 65.3364 28.2834 65.5799 28.1043 65.7595C27.9251 65.9391 27.6822 66.0399 27.4289 66.0399ZM26.7207 64.3749V65.0824C26.7207 65.1425 26.7325 65.202 26.7554 65.2575C26.7783 65.313 26.812 65.3635 26.8543 65.4059C26.8967 65.4484 26.947 65.4821 27.0024 65.5051C27.0578 65.5281 27.1171 65.5399 27.177 65.5399H27.4264C27.547 65.5393 27.6624 65.4908 27.7475 65.4051C27.8325 65.3193 27.8803 65.2033 27.8803 65.0824V64.3749H26.7207Z" fill="#093F68"/>
<path d="M27.3017 64.3449C26.0118 64.3443 24.7749 63.8301 23.863 62.9155C22.9511 62.0008 22.4389 60.7606 22.4389 59.4674V55.9275C22.7232 56.395 23.6658 56.2075 25.0498 53.8275C30.2319 56.46 32.167 54.9525 32.167 54.9525V59.4674C32.167 60.761 31.6544 62.0016 30.742 62.9164C29.8296 63.8311 28.5921 64.3449 27.3017 64.3449Z" fill="#FFC9B0"/>
<path d="M27.3017 64.5949C25.946 64.5929 24.6465 64.052 23.6881 63.0908C22.7298 62.1295 22.1908 60.8265 22.1895 59.4674V55.9274C22.1899 55.8732 22.2078 55.8206 22.2406 55.7775C22.2734 55.7344 22.3193 55.7031 22.3714 55.6885C22.4235 55.6738 22.4789 55.6765 22.5293 55.6961C22.5797 55.7158 22.6224 55.7513 22.6509 55.7974C22.6668 55.8253 22.6902 55.848 22.7184 55.863C22.7467 55.8781 22.7786 55.8848 22.8105 55.8824C22.9376 55.8824 23.6309 55.7699 24.8329 53.7024C24.8648 53.6477 24.9164 53.6071 24.977 53.589C25.0377 53.5709 25.1029 53.5766 25.1596 53.6049C30.0997 56.1049 31.9949 54.7674 32.0124 54.7524C32.0494 54.7239 32.0937 54.7063 32.1402 54.7017C32.1868 54.6972 32.2336 54.7058 32.2755 54.7267C32.3173 54.7475 32.3525 54.7797 32.377 54.8196C32.4015 54.8596 32.4142 54.9056 32.4139 54.9524V59.4674C32.4126 60.8265 31.8736 62.1295 30.9153 63.0908C29.9569 64.052 28.6574 64.5929 27.3017 64.5949ZM22.6883 56.3724V59.4674C22.6679 60.0876 22.7722 60.7055 22.9949 61.2845C23.2176 61.8634 23.5541 62.3915 23.9845 62.8374C24.4149 63.2833 24.9304 63.6379 25.5003 63.8801C26.0701 64.1222 26.6828 64.247 27.3017 64.247C27.9206 64.247 28.5333 64.1222 29.1031 63.8801C29.673 63.6379 30.1885 63.2833 30.6189 62.8374C31.0493 62.3915 31.3858 61.8634 31.6085 61.2845C31.8312 60.7055 31.9355 60.0876 31.9151 59.4674V55.3624C31.1072 55.6874 29.0299 56.0799 25.1446 54.1549C24.2693 55.6074 23.4688 56.3749 22.8154 56.3824C22.7728 56.3827 22.7303 56.3794 22.6883 56.3724Z" fill="#093F68"/>
<path d="M33.1146 70.7499V68.4999C33.114 67.6183 32.7643 66.7729 32.1425 66.1495C31.5206 65.5261 30.6774 65.1756 29.7979 65.1749H24.5586C23.6802 65.1769 22.8385 65.5281 22.2182 66.1514C21.5978 66.7748 21.2494 67.6194 21.2494 68.4999V70.7499H33.1146Z" fill="#093F68"/>
<path d="M33.1146 71H21.2494C21.1832 71 21.1198 70.9736 21.073 70.9268C21.0263 70.8799 21 70.8163 21 70.75V68.5C21.0013 67.5522 21.3775 66.6437 22.0459 65.9735C22.7144 65.3034 23.6207 64.9263 24.5661 64.925H29.8029C30.7483 64.9263 31.6546 65.3034 32.3231 65.9735C32.9915 66.6437 33.3677 67.5522 33.369 68.5V70.75C33.369 70.7832 33.3624 70.8162 33.3495 70.8468C33.3367 70.8775 33.3179 70.9053 33.2942 70.9286C33.2705 70.9518 33.2424 70.9701 33.2116 70.9824C33.1808 70.9947 33.1478 71.0006 33.1146 71ZM21.4987 70.5H32.8653V68.5C32.8639 67.6849 32.5403 66.9035 31.9654 66.3271C31.3905 65.7507 30.611 65.4263 29.7979 65.425H24.5586C23.7466 65.4276 22.9687 65.7527 22.3952 66.329C21.8218 66.9053 21.4994 67.6859 21.4987 68.5V70.5Z" fill="#093F68"/>
<path d="M21.778 58.6225C21.7408 58.2013 21.6724 57.7835 21.5736 57.3725C21.2269 56.0775 21.7307 54.525 22.6409 53.5425C23.5511 52.56 25.1895 52.1775 26.2493 52.99C26.6034 52.34 27.4314 52.1575 28.1595 52.04C29.2019 51.875 30.3416 51.725 31.2543 52.26C32.167 52.795 32.8154 54.0225 33.0722 55.0475C33.2236 55.65 33.27 56.2742 33.2094 56.8925C33.1944 57.0475 32.8104 58.4225 32.8129 58.4275C32.4712 58.1025 32.3141 57.6325 32.0648 57.23C31.8154 56.8275 31.3889 56.455 30.9251 56.5425C31.1861 58.0057 31.1128 59.5093 30.7106 60.94C30.5951 61.4215 30.3839 61.8747 30.0897 62.2725C28.5037 64.25 23.7855 63.2175 22.4913 61.36C21.9451 60.5725 21.8778 59.5825 21.778 58.6225Z" fill="#231F20"/>
<path d="M27.2768 63.59H27.0523C25.0897 63.52 23.0923 62.645 22.2967 61.5025C21.7531 60.72 21.6559 59.77 21.5486 58.85L21.5262 58.65C21.4918 58.2413 21.4259 57.8359 21.3292 57.4375C20.9776 56.1125 21.4289 54.48 22.4563 53.3725C23.3416 52.4175 24.9676 51.91 26.1795 52.6425C26.6109 52.105 27.3616 51.915 28.1197 51.795C29.2917 51.6075 30.4239 51.485 31.3765 52.045C32.4114 52.65 33.0548 53.9625 33.3116 54.9875C33.4702 55.6177 33.5191 56.2706 33.4563 56.9175C33.4438 57.025 33.3391 57.4175 33.1346 58.1825C33.0947 58.3275 33.0648 58.4325 33.0548 58.4725C33.0474 58.5196 33.0256 58.5633 32.9924 58.5975C32.9474 58.6457 32.8851 58.6741 32.8192 58.6765C32.7533 58.6788 32.6892 58.6549 32.6408 58.61C32.6321 58.6038 32.6245 58.5962 32.6184 58.5875C32.3898 58.3402 32.2028 58.0574 32.0648 57.75C31.9924 57.615 31.9276 57.485 31.8528 57.3625C31.7103 57.111 31.487 56.9154 31.2194 56.8075C31.4247 58.2084 31.3329 59.637 30.9501 61C30.8241 61.5136 30.5978 61.9971 30.2842 62.4225C29.6782 63.1825 28.6159 63.59 27.2768 63.59ZM24.8902 52.7975C24.5031 52.8056 24.1213 52.8904 23.767 53.047C23.4126 53.2036 23.0926 53.4289 22.8254 53.71C21.9252 54.68 21.5087 56.16 21.8279 57.305C21.9299 57.7291 21.9999 58.1603 22.0374 58.595L22.0573 58.7975C22.1471 59.6525 22.2394 60.5475 22.7082 61.215C23.409 62.215 25.2843 63.025 27.0723 63.0875C28.3615 63.13 29.369 62.785 29.9077 62.115C30.1793 61.7401 30.375 61.3154 30.4837 60.865C30.8756 59.4717 30.9472 58.0075 30.6932 56.5825C30.6871 56.5501 30.6874 56.5169 30.6941 56.4847C30.7008 56.4524 30.7138 56.4218 30.7323 56.3947C30.7509 56.3675 30.7746 56.3443 30.8021 56.3263C30.8296 56.3083 30.8604 56.296 30.8927 56.29C31.4887 56.18 32.0049 56.6325 32.2892 57.0925C32.374 57.2325 32.4488 57.375 32.5186 57.5125C32.5884 57.65 32.6458 57.7625 32.7156 57.8725C32.8129 57.51 32.965 56.9525 32.965 56.86C33.0214 56.2734 32.9767 55.6814 32.8328 55.11C32.6009 54.1825 32.0299 53.005 31.1296 52.475C30.3191 52 29.2842 52.115 28.2019 52.2875C27.5212 52.395 26.7705 52.5575 26.4713 53.11C26.454 53.1417 26.43 53.1693 26.401 53.1908C26.372 53.2123 26.3387 53.2273 26.3033 53.2347C26.268 53.2421 26.2315 53.2416 26.1964 53.2335C26.1612 53.2253 26.1282 53.2096 26.0997 53.1875C25.7509 52.9265 25.3254 52.7893 24.8902 52.7975Z" fill="#093F68"/>
<path d="M39.8203 64.87H41.4812V65.8275C41.4812 65.9204 41.4629 66.0124 41.4274 66.0982C41.392 66.1841 41.34 66.2621 41.2745 66.3278C41.2089 66.3935 41.1311 66.4456 41.0455 66.4811C40.9599 66.5167 40.8681 66.535 40.7754 66.535H40.5261C40.4334 66.535 40.3416 66.5167 40.256 66.4811C40.1704 66.4456 40.0926 66.3935 40.027 66.3278C39.9615 66.2621 39.9095 66.1841 39.874 66.0982C39.8386 66.0124 39.8203 65.9204 39.8203 65.8275V64.87Z" fill="#FFC9B0"/>
<path d="M40.7679 66.7849H40.5186C40.2659 66.7849 40.0236 66.6843 39.845 66.5052C39.6663 66.3261 39.5659 66.0832 39.5659 65.8299V64.8699C39.5659 64.8036 39.5922 64.74 39.639 64.6932C39.6858 64.6463 39.7492 64.6199 39.8153 64.6199H41.4737C41.5398 64.6199 41.6032 64.6463 41.65 64.6932C41.6968 64.74 41.723 64.8036 41.723 64.8699V65.8299C41.723 65.9556 41.6983 66.0799 41.6503 66.196C41.6023 66.312 41.5319 66.4174 41.4431 66.5061C41.3544 66.5948 41.2491 66.6651 41.1333 66.713C41.0174 66.7608 40.8932 66.7853 40.7679 66.7849ZM40.0622 65.1199V65.8299C40.0629 65.9504 40.1109 66.0658 40.1959 66.1509C40.2808 66.2361 40.3959 66.2843 40.5161 66.2849H40.7654C40.8856 66.2843 41.0007 66.2361 41.0856 66.1509C41.1706 66.0658 41.2187 65.9504 41.2193 65.8299V65.1199H40.0622Z" fill="#093F68"/>
<path d="M40.6482 65.0899C39.8757 65.0854 39.1151 64.8986 38.428 64.5447C37.7409 64.1907 37.1466 63.6795 36.6932 63.0524C35.5934 61.5124 35.7306 59.4474 35.9799 57.6524C36.1171 56.6524 36.4213 55.5774 37.2144 54.935C37.5545 54.6726 37.9412 54.4775 38.354 54.36C39.6009 53.965 40.6308 54.3024 41.8602 54.3224C43.0273 54.3424 44.0846 54.5424 44.8527 55.5149C46.0123 56.9649 45.5036 58.5624 45.5036 60.2124C45.5036 61.5043 44.9924 62.7434 44.0821 63.6578C43.1718 64.5722 41.9369 65.0873 40.6482 65.0899Z" fill="#FFC9B0"/>
<path d="M40.6482 65.3399C39.8366 65.3327 39.038 65.1352 38.3161 64.7631C37.5943 64.3911 36.9693 63.8549 36.4912 63.1974C35.364 61.6224 35.4612 59.585 35.743 57.62C35.9351 56.2325 36.3565 55.3175 37.0697 54.74C37.4332 54.4581 37.8471 54.2485 38.2892 54.1225C39.2069 53.8325 40.0198 53.915 40.8053 53.995C41.152 54.03 41.5086 54.0675 41.8777 54.0725C42.9624 54.0925 44.1894 54.26 45.0697 55.36C46.0173 56.5425 45.9225 57.8275 45.8303 59.0725C45.8053 59.445 45.7754 59.8225 45.7754 60.2125C45.7747 60.8867 45.6416 61.5542 45.3835 62.1768C45.1255 62.7994 44.7476 63.3649 44.2715 63.8411C43.7953 64.3173 43.2303 64.6947 42.6086 64.9519C41.9869 65.2091 41.3208 65.3409 40.6482 65.3399ZM39.6507 54.42C39.2342 54.4144 38.8194 54.4743 38.4213 54.5975C38.0385 54.7064 37.6797 54.8871 37.364 55.13C36.7555 55.63 36.3914 56.435 36.2193 57.6875C35.97 59.5525 35.8652 61.4724 36.8877 62.9049C37.3194 63.4986 37.8836 63.9827 38.5353 64.3187C39.187 64.6547 39.908 64.8332 40.6408 64.8399C41.8646 64.8386 43.0379 64.3507 43.9033 63.4831C44.7686 62.6156 45.2554 61.4393 45.2567 60.2125C45.2567 59.815 45.2866 59.4175 45.314 59.035C45.4013 57.835 45.4836 56.7025 44.6607 55.6725C43.9126 54.735 42.8652 54.59 41.8477 54.5725C41.4587 54.5725 41.0996 54.53 40.7355 54.4925C40.3779 54.4501 40.0183 54.4259 39.6582 54.42H39.6507Z" fill="#093F68"/>
<path d="M46.4612 70.7499V69.2499C46.4612 68.8133 46.3754 68.3809 46.2087 67.9775C46.042 67.5741 45.7977 67.2075 45.4897 66.8988C45.1818 66.59 44.8161 66.3451 44.4137 66.178C44.0113 66.0109 43.58 65.9249 43.1445 65.9249H37.9076C37.4721 65.9249 37.0408 66.0109 36.6384 66.178C36.236 66.3451 35.8703 66.59 35.5624 66.8988C35.2544 67.2075 35.0101 67.5741 34.8434 67.9775C34.6767 68.3809 34.5909 68.8133 34.5909 69.2499V70.7499H46.4612Z" fill="#F56132"/>
<path d="M46.4612 71H34.5959C34.5298 71 34.4663 70.9736 34.4196 70.9268C34.3728 70.8799 34.3465 70.8163 34.3465 70.75V69.25C34.3479 68.3022 34.724 67.3937 35.3925 66.7235C36.061 66.0534 36.9672 65.6763 37.9126 65.675H43.1495C44.0948 65.6763 45.0011 66.0534 45.6696 66.7235C46.3381 67.3937 46.7142 68.3022 46.7155 69.25V70.75C46.7155 70.7832 46.7089 70.8162 46.6961 70.8468C46.6832 70.8775 46.6644 70.9053 46.6407 70.9286C46.6171 70.9518 46.589 70.9701 46.5581 70.9824C46.5273 70.9947 46.4943 71.0006 46.4612 71ZM34.8453 70.5H46.2118V69.25C46.2105 68.4349 45.8869 67.6535 45.3119 67.0771C44.737 66.5007 43.9576 66.1763 43.1445 66.175H37.9076C37.0945 66.1763 36.3151 66.5007 35.7402 67.0771C35.1652 67.6535 34.8416 68.4349 34.8403 69.25L34.8453 70.5Z" fill="#093F68"/>
<path d="M35.2618 59.38C35.578 58.1612 35.9712 56.9638 36.4388 55.795C36.688 55.0722 37.0722 54.4036 37.571 53.825C37.9301 53.45 38.2792 53.395 38.768 53.415C38.8727 53.415 39.7505 53.47 39.6059 53.72C39.9899 53.0575 40.8128 52.895 41.5061 52.785C42.3814 52.645 43.2916 52.535 44.0497 53.0925C44.7974 53.6474 45.3199 54.4544 45.521 55.365C45.5702 55.538 45.5913 55.7178 45.5834 55.8975C45.5344 56.2105 45.4113 56.5071 45.2243 56.7625C44.9026 57.2825 44.4562 57.875 44.2268 58.44C43.9575 59.12 44.1345 60.14 44.1919 60.85C44.334 62.5775 44.6906 64.28 44.7604 66.015C44.7954 66.995 43.6407 67.13 42.925 67.4C41.8255 67.802 40.6418 67.9156 39.4862 67.73C37.5834 67.4375 35.8453 66.4525 34.3515 65.23C34.1321 65.05 34.5411 63.065 34.581 62.745C34.6782 61.995 34.8303 61.245 34.9849 60.495C35.0747 60.13 35.1645 59.75 35.2618 59.38Z" fill="#231F20"/>
<path d="M40.5934 68.0649C40.2127 68.0642 39.8326 68.035 39.4562 67.9774C37.7106 67.7099 35.945 66.8524 34.2019 65.4299C33.9974 65.2624 33.9525 64.8949 34.2842 63.0599C34.3116 62.8999 34.3341 62.7774 34.3416 62.7174C34.4263 62.0574 34.5535 61.3599 34.7505 60.4549C34.8328 60.0724 34.9226 59.7049 35.0199 59.3174C35.3402 58.0889 35.7367 56.8816 36.2069 55.7024C36.4683 54.9492 36.8703 54.2526 37.3914 53.65C37.8079 53.2175 38.2318 53.15 38.7779 53.165C39.058 53.1645 39.3359 53.2145 39.5984 53.3125C40.1096 52.7525 40.9425 52.62 41.4687 52.5375C42.2492 52.4125 43.319 52.2425 44.1993 52.8925C44.9938 53.4812 45.5491 54.338 45.7629 55.305C45.8182 55.5033 45.8418 55.7092 45.8327 55.915C45.7815 56.2689 45.6455 56.6052 45.4362 56.8949C45.3465 57.0374 45.2492 57.1874 45.147 57.3399C44.8823 57.7146 44.6543 58.1139 44.4662 58.5324C44.2667 59.0324 44.3465 59.8099 44.4088 60.4324C44.4238 60.5724 44.4387 60.7049 44.4487 60.8299C44.5086 61.5549 44.6083 62.2924 44.6981 63.0024C44.8328 63.9824 44.9699 65.0024 45.0098 66.0024C45.0497 67.0024 44.1071 67.2874 43.4188 67.5024C43.2767 67.5474 43.137 67.5899 43.0123 67.6374C42.2377 67.9227 41.4186 68.0675 40.5934 68.0649ZM34.551 65.0649C36.2144 66.4124 37.8902 67.2249 39.5385 67.4774C40.6522 67.6579 41.7933 67.5486 42.8527 67.1599C42.9849 67.1099 43.1345 67.0649 43.2891 67.0174C44.0373 66.7824 44.536 66.5874 44.536 66.0174C44.4986 65.0324 44.3614 64.0324 44.2293 63.0674C44.132 62.3474 44.0298 61.6049 43.9799 60.8649C43.9799 60.7449 43.955 60.6149 43.9425 60.4799C43.8702 59.8024 43.7854 58.9624 44.0298 58.3424C44.2291 57.8916 44.473 57.462 44.7579 57.0599C44.8577 56.9125 44.9525 56.7649 45.0397 56.6249C45.2031 56.4028 45.3139 56.1463 45.3639 55.8749C45.3671 55.7219 45.3469 55.5693 45.3041 55.4225C45.1177 54.5694 44.6296 53.8128 43.93 53.2925C43.2717 52.7925 42.4737 52.885 41.5734 53.0275C40.8752 53.14 40.167 53.295 39.8502 53.8425C39.8243 53.8879 39.7847 53.9241 39.7372 53.9458C39.6896 53.9676 39.6364 53.9737 39.5851 53.9635C39.5339 53.9533 39.4871 53.9272 39.4514 53.8889C39.4158 53.8505 39.393 53.8019 39.3864 53.75C39.1911 53.6965 38.9902 53.6663 38.7879 53.66C38.3365 53.645 38.0722 53.69 37.7904 53.995C37.3154 54.5524 36.9491 55.1944 36.7106 55.8875C36.2467 57.0464 35.8569 58.2338 35.5435 59.4424C35.4488 59.8074 35.359 60.1924 35.2767 60.5599C35.0822 61.4474 34.96 62.1324 34.8752 62.7799C34.8752 62.8449 34.8453 62.9749 34.8154 63.1424C34.7032 63.5574 34.4887 64.7849 34.551 65.0699V65.0649Z" fill="#093F68"/>
<path d="M53.1669 65.33H54.8277V66.2875C54.8277 66.4751 54.7533 66.655 54.621 66.7877C54.4886 66.9204 54.3091 66.995 54.122 66.995H53.8726C53.7799 66.995 53.6881 66.9767 53.6025 66.9411C53.5169 66.9055 53.4391 66.8534 53.3736 66.7877C53.308 66.722 53.256 66.644 53.2206 66.5582C53.1851 66.4724 53.1669 66.3804 53.1669 66.2875V65.33Z" fill="#FFC9B0"/>
<path d="M54.122 67.25H53.8726C53.6199 67.25 53.3776 67.1493 53.199 66.9702C53.0203 66.7912 52.92 66.5482 52.92 66.295V65.3375C52.92 65.2712 52.9463 65.2076 52.993 65.1607C53.0398 65.1138 53.1032 65.0875 53.1694 65.0875H54.8302C54.8963 65.0875 54.9598 65.1138 55.0065 65.1607C55.0533 65.2076 55.0796 65.2712 55.0796 65.3375V66.295C55.0792 66.4207 55.0542 66.5451 55.0059 66.6612C54.9576 66.7772 54.887 66.8826 54.7981 66.9713C54.7091 67.06 54.6037 67.1302 54.4877 67.178C54.3717 67.2258 54.2474 67.2503 54.122 67.25ZM53.4162 65.5875V66.295C53.4169 66.4154 53.4649 66.5308 53.5499 66.616C53.6349 66.7012 53.7499 66.7493 53.8701 66.75H54.1195C54.2401 66.75 54.3558 66.7021 54.4413 66.6168C54.5268 66.5316 54.5752 66.4159 54.5758 66.295V65.5875H53.4162Z" fill="#093F68"/>
<path d="M53.9973 65.5475C53.3583 65.5478 52.7255 65.4219 52.135 65.1768C51.5446 64.9318 51.0081 64.5726 50.5563 64.1196C50.1044 63.6666 49.7461 63.1288 49.5017 62.5369C49.2573 61.945 49.1317 61.3106 49.132 60.67V57.13C49.4163 57.5975 50.3614 57.4125 51.7429 55.0325C56.925 57.6625 58.8601 56.155 58.8601 56.155V60.67C58.8604 61.3104 58.7349 61.9446 58.4907 62.5363C58.2464 63.1281 57.8883 63.6658 57.4367 64.1187C56.9851 64.5717 56.4489 64.931 55.8588 65.1761C55.2686 65.4213 54.6361 65.5475 53.9973 65.5475Z" fill="#FFC9B0"/>
<path d="M53.9973 65.7974C52.6412 65.7961 51.341 65.2555 50.3821 64.2942C49.4232 63.3329 48.8839 62.0294 48.8826 60.6699V57.13C48.883 57.0757 48.9009 57.0231 48.9337 56.98C48.9665 56.9369 49.0124 56.9056 49.0645 56.891C49.1166 56.8763 49.172 56.879 49.2224 56.8987C49.2728 56.9183 49.3155 56.9539 49.3439 57C49.3598 57.0278 49.3833 57.0505 49.4115 57.0655C49.4397 57.0806 49.4717 57.0873 49.5035 57.085C49.6307 57.085 50.324 56.975 51.526 54.905C51.558 54.8495 51.6099 54.8085 51.6712 54.7904C51.7324 54.7723 51.7983 54.7784 51.8552 54.8075C56.7928 57.3075 58.688 55.97 58.708 55.955C58.7452 55.9271 58.7894 55.9103 58.8357 55.9063C58.882 55.9023 58.9284 55.9114 58.9698 55.9325C59.0109 55.9532 59.0455 55.985 59.0697 56.0243C59.0939 56.0636 59.1068 56.1088 59.107 56.155V60.6699C59.1057 62.0286 58.567 63.3313 57.6092 64.2924C56.6514 65.2536 55.3525 65.7948 53.9973 65.7974ZM49.3813 57.575V60.6699C49.361 61.2901 49.4653 61.908 49.688 62.487C49.9107 63.0659 50.2472 63.594 50.6776 64.04C51.108 64.4859 51.6235 64.8404 52.1934 65.0826C52.7632 65.3247 53.3758 65.4495 53.9948 65.4495C54.6137 65.4495 55.2263 65.3247 55.7962 65.0826C56.3661 64.8404 56.8815 64.4859 57.3119 64.04C57.7423 63.594 58.0789 63.0659 58.3016 62.487C58.5243 61.908 58.6286 61.2901 58.6082 60.6699V56.565C57.8002 56.8925 55.723 57.2825 51.8377 55.36C50.9649 56.81 50.1619 57.58 49.5085 57.585C49.4659 57.5864 49.4232 57.5831 49.3813 57.575Z" fill="#093F68"/>
<path d="M59.8077 70.7499V69.6999C59.808 69.2632 59.7225 68.8307 59.5559 68.4271C59.3894 68.0236 59.1451 67.6569 58.837 67.3481C58.529 67.0393 58.1632 66.7943 57.7607 66.6274C57.3581 66.4604 56.9267 66.3746 56.491 66.3749H51.2542C50.8185 66.3746 50.3871 66.4604 49.9845 66.6274C49.582 66.7943 49.2162 67.0393 48.9082 67.3481C48.6001 67.6569 48.3558 68.0236 48.1893 68.4271C48.0227 68.8307 47.9371 69.2632 47.9375 69.6999V70.7499H59.8077Z" fill="#70CC40"/>
<path d="M59.8077 70.9999H47.9425C47.8763 70.9999 47.8129 70.9736 47.7661 70.9267C47.7194 70.8798 47.6931 70.8162 47.6931 70.7499V69.6999C47.6937 68.752 48.0697 67.8431 48.7383 67.1728C49.4069 66.5025 50.3136 66.1256 51.2591 66.1249H56.496C57.4416 66.1256 58.3482 66.5025 59.0169 67.1728C59.6855 67.8431 60.0614 68.752 60.0621 69.6999V70.7499C60.0621 70.7832 60.0555 70.8161 60.0426 70.8468C60.0298 70.8774 60.011 70.9052 59.9873 70.9285C59.9636 70.9518 59.9355 70.9701 59.9047 70.9824C59.8738 70.9946 59.8409 71.0006 59.8077 70.9999ZM48.1918 70.4999H59.5583V69.6999C59.5577 68.8846 59.2343 68.1028 58.6592 67.5263C58.0841 66.9498 57.3043 66.6256 56.491 66.6249H51.2542C50.4409 66.6256 49.6611 66.9498 49.086 67.5263C48.5109 68.1028 48.1875 68.8846 48.1868 69.6999L48.1918 70.4999Z" fill="#093F68"/>
<path d="M49.8701 58.4575C49.4113 58.1075 48.93 57.7825 48.7529 57.2725C48.324 56.04 49.501 54.2325 50.6581 53.8275C50.92 53.7325 53.1095 53.885 52.9424 54.19C53.2965 53.5425 54.1245 53.3575 54.8551 53.2425C55.8676 53.08 57.1743 52.8275 57.9474 53.63C58.694 54.3963 59.2293 55.3439 59.501 56.38C59.7743 57.5023 59.8519 58.6636 59.7304 59.8124C59.6908 60.7176 59.4569 61.6036 59.0446 62.4099C58.2711 63.6901 57.088 64.67 55.688 65.1899C54.9534 65.4922 54.1482 65.5789 53.3664 65.4399C51.9449 65.1374 51.1469 63.8999 50.9998 62.5374C50.895 61.5774 51.1719 60.1474 50.698 59.2874C50.4811 58.9574 50.1994 58.675 49.8701 58.4575Z" fill="#231F20"/>
<path d="M54.0571 65.75C53.8058 65.7513 53.5551 65.7262 53.309 65.675C51.9025 65.38 50.92 64.175 50.7429 62.5575C50.7145 62.1874 50.7078 61.8159 50.723 61.445C50.7404 60.695 50.7554 59.92 50.4736 59.4125C50.2767 59.1108 50.0225 58.8508 49.7255 58.6475L49.6108 58.5625C49.1694 58.23 48.7105 57.885 48.5235 57.3475C48.0472 55.9825 49.2991 54.0375 50.5808 53.5825C50.7978 53.5075 52.2965 53.5475 52.91 53.8C53.3464 53.3 54.0796 53.105 54.8202 52.9875L54.9549 52.965C55.9998 52.7975 57.3015 52.5875 58.1319 53.4475C58.9064 54.2446 59.4622 55.229 59.7454 56.305C60.0286 57.4546 60.1088 58.6451 59.9823 59.8225C59.9397 60.7635 59.6956 61.6844 59.2666 62.5225C58.4604 63.8528 57.2305 64.8719 55.7753 65.415C55.2273 65.6291 54.6453 65.7425 54.0571 65.75ZM50.9923 54.0475C50.9038 54.0442 50.8153 54.0501 50.728 54.065C49.6881 54.4325 48.6058 56.1125 48.9823 57.19C49.1195 57.585 49.4986 57.87 49.8976 58.17L50.0148 58.2575C50.3725 58.4999 50.6772 58.8129 50.91 59.1775C51.2566 59.8025 51.2392 60.6475 51.2217 61.4625C51.2081 61.8084 51.2148 62.1548 51.2417 62.5C51.3614 63.6 51.9898 64.885 53.4137 65.185C54.15 65.3095 54.9065 65.2229 55.5958 64.935C56.9395 64.4315 58.0759 63.4904 58.8227 62.2625C59.2166 61.4857 59.4394 60.6331 59.476 59.7625C59.5975 58.643 59.5223 57.5109 59.2541 56.4175C58.9906 55.4229 58.4752 54.5135 57.7579 53.7775C57.1095 53.105 55.9499 53.2925 55.0147 53.4425L54.8776 53.4625C54.1993 53.5725 53.4462 53.735 53.1469 54.285C53.1312 54.3139 53.11 54.3395 53.0845 54.3602C53.0589 54.3809 53.0296 54.3963 52.9981 54.4056C52.9665 54.4149 52.9335 54.4179 52.9009 54.4143C52.8682 54.4108 52.8366 54.4008 52.8078 54.385C52.7784 54.3686 52.7527 54.3464 52.7321 54.3197C52.7116 54.2931 52.6966 54.2626 52.6881 54.23C52.1327 54.0981 51.563 54.0368 50.9923 54.0475Z" fill="#093F68"/>
<path d="M66.5134 64.125H68.1742V65.0825C68.1742 65.2701 68.0999 65.4501 67.9675 65.5828C67.8352 65.7155 67.6557 65.79 67.4685 65.79H67.2191C67.032 65.79 66.8525 65.7155 66.7201 65.5828C66.5878 65.4501 66.5134 65.2701 66.5134 65.0825V64.125Z" fill="#FFC9B0"/>
<path d="M67.4685 66.0399H67.2191C66.9662 66.0393 66.724 65.9381 66.5454 65.7586C66.3668 65.5791 66.2665 65.336 66.2665 65.0824V64.1249C66.2665 64.0586 66.2928 63.995 66.3396 63.9482C66.3863 63.9013 66.4497 63.8749 66.5159 63.8749H68.1767C68.2429 63.8749 68.3063 63.9013 68.3531 63.9482C68.3998 63.995 68.4261 64.0586 68.4261 64.1249V65.0824C68.4254 65.3366 68.3243 65.5802 68.1447 65.7596C67.9652 65.9391 67.722 66.0399 67.4685 66.0399ZM66.7628 64.3749V65.0824C66.7628 65.2033 66.8105 65.3193 66.8955 65.4051C66.9806 65.4908 67.096 65.5393 67.2166 65.5399H67.466C67.587 65.5399 67.7031 65.4917 67.7887 65.4059C67.8743 65.3201 67.9224 65.2038 67.9224 65.0824V64.3749H66.7628Z" fill="#093F68"/>
<path d="M67.3438 64.3449C66.0535 64.3449 64.816 63.8311 63.9035 62.9164C62.9911 62.0016 62.4785 60.761 62.4785 59.4674V55.9275C62.7628 56.395 63.7079 56.2075 65.092 53.8275C70.274 56.46 72.2066 54.9525 72.2066 54.9525V59.4674C72.2066 60.7606 71.6944 62.0008 70.7825 62.9155C69.8706 63.8301 68.6337 64.3443 67.3438 64.3449Z" fill="#FFC9B0"/>
<path d="M67.3438 64.595C65.9877 64.5937 64.6876 64.053 63.7287 63.0917C62.7698 62.1304 62.2305 60.827 62.2291 59.4675V55.9275C62.2271 55.8714 62.2439 55.8162 62.2769 55.7709C62.31 55.7255 62.3572 55.6926 62.4112 55.6775C62.4636 55.6632 62.5193 55.6664 62.5697 55.6867C62.6201 55.707 62.6625 55.7433 62.6905 55.79C62.7063 55.8191 62.7304 55.8427 62.7597 55.8579C62.7891 55.8731 62.8223 55.879 62.8551 55.875C62.9798 55.875 63.673 55.7625 64.875 53.695C64.907 53.6396 64.959 53.5986 65.0202 53.5804C65.0814 53.5623 65.1473 53.5684 65.2042 53.5975C70.1418 56.0975 72.0371 54.76 72.057 54.745C72.0929 54.7195 72.1349 54.704 72.1787 54.7001C72.2225 54.6961 72.2665 54.7039 72.3064 54.7225C72.3475 54.7433 72.3821 54.7751 72.4063 54.8143C72.4305 54.8536 72.4434 54.8988 72.4435 54.945V59.46C72.4449 60.8184 71.9087 62.1219 70.9527 63.0845C69.9967 64.0471 68.6988 64.5904 67.3438 64.595ZM62.7279 56.3725V59.4675C62.7076 60.0876 62.8118 60.7056 63.0345 61.2845C63.2572 61.8635 63.5938 62.3916 64.0242 62.8375C64.4546 63.2834 64.97 63.638 65.5399 63.8801C66.1098 64.1223 66.7224 64.2471 67.3413 64.2471C67.9603 64.2471 68.5729 64.1223 69.1428 63.8801C69.7126 63.638 70.2281 63.2834 70.6585 62.8375C71.0889 62.3916 71.4255 61.8635 71.6481 61.2845C71.8708 60.7056 71.9751 60.0876 71.9548 59.4675V55.3625C71.1468 55.6875 69.0695 56.08 65.1842 54.155C64.3114 55.6075 63.5084 56.375 62.8551 56.3825C62.8125 56.3828 62.7699 56.3795 62.7279 56.3725Z" fill="#093F68"/>
<path d="M73.1543 70.7499V68.4999C73.1543 68.0633 73.0685 67.6309 72.9018 67.2275C72.7351 66.8241 72.4908 66.4575 72.1828 66.1488C71.8749 65.84 71.5092 65.5951 71.1068 65.428C70.7044 65.2609 70.2731 65.1749 69.8376 65.1749H64.6007C63.7213 65.1756 62.878 65.5261 62.2562 66.1495C61.6343 66.7729 61.2847 67.6183 61.284 68.4999V70.7499H73.1543Z" fill="#FFBC0E"/>
<path d="M73.1543 71H61.289C61.2229 71 61.1594 70.9736 61.1127 70.9268C61.0659 70.8799 61.0396 70.8163 61.0396 70.75V68.5C61.0409 67.5522 61.4171 66.6437 62.0856 65.9735C62.754 65.3034 63.6603 64.9263 64.6057 64.925H69.8426C70.7879 64.9263 71.6942 65.3034 72.3627 65.9735C73.0312 66.6437 73.4073 67.5522 73.4086 68.5V70.75C73.4086 70.7832 73.402 70.8162 73.3892 70.8468C73.3763 70.8775 73.3575 70.9053 73.3338 70.9286C73.3101 70.9518 73.2821 70.9701 73.2512 70.9824C73.2204 70.9947 73.1874 71.0006 73.1543 71ZM61.5384 70.5H72.9049V68.5C72.9042 67.6846 72.5809 66.9029 72.0058 66.3264C71.4307 65.7498 70.6509 65.4256 69.8376 65.425H64.6007C63.7876 65.4263 63.0082 65.7507 62.4332 66.3271C61.8583 66.9035 61.5347 67.6849 61.5334 68.5L61.5384 70.5Z" fill="#093F68"/>
<path d="M62.9448 56.8825C62.6461 56.7919 62.379 56.6186 62.1743 56.3825C62.0602 56.1922 61.9999 55.9745 61.9997 55.7525C61.8376 53.125 64.3862 51.0825 66.865 52.0025C67.0097 52.0575 67.6705 51.7525 67.8625 51.71C68.3002 51.6255 68.7468 51.597 69.1917 51.625C69.9317 51.6683 70.6522 51.8795 71.2989 52.2425C71.8207 52.5833 72.2439 53.0558 72.5258 53.6125C72.9996 54.4525 73.0246 55.4075 73.2615 56.335C73.5682 57.4975 73.86 58.665 74.1019 59.835C74.5034 61.9184 74.7203 64.0333 74.7502 66.155C74.7976 67.86 74.6031 68.655 72.6979 69.12C71.7314 69.3076 70.7433 69.358 69.7627 69.27C68.9264 69.2612 68.0944 69.1469 67.2865 68.93C66.4717 68.7105 65.758 68.2149 65.2665 67.5275C64.1917 65.89 64.6206 63.3575 64.3488 61.5025C64.2067 60.5325 64.3139 59.6375 64.2017 58.6725C64.1778 58.3359 64.077 58.0092 63.9071 57.7179C63.7371 57.4266 63.5026 57.1784 63.2217 56.9925C63.1314 56.9508 63.039 56.9141 62.9448 56.8825Z" fill="#231F20"/>
<path d="M70.8725 69.5775C70.5009 69.5775 70.1244 69.5625 69.7478 69.5425C68.8903 69.5325 68.0375 69.4149 67.2092 69.1925C66.3393 68.9564 65.5773 68.4266 65.0521 67.6925C64.2815 66.5175 64.2466 64.97 64.2117 63.4725C64.2115 62.8357 64.1732 62.1996 64.097 61.5675C64.0322 61.0543 64.0022 60.5372 64.0072 60.02C64.0113 59.5884 63.9922 59.157 63.9498 58.7275C63.9325 58.4279 63.8459 58.1365 63.6971 57.8762C63.5482 57.6159 63.3411 57.3938 63.092 57.2275C63.0116 57.1819 62.9283 57.1418 62.8426 57.1075L62.7578 57.07C62.4462 56.9669 62.1709 56.776 61.9648 56.52C61.8277 56.2936 61.7529 56.0348 61.7479 55.77C61.7054 55.1014 61.8311 54.4329 62.1135 53.8257C62.3958 53.2186 62.8257 52.6922 63.3638 52.295C63.8646 51.9145 64.4533 51.6673 65.0751 51.5764C65.6969 51.4855 66.3315 51.5538 66.9199 51.775C67.0899 51.7311 67.2566 51.6751 67.4186 51.6075C67.5435 51.5554 67.6719 51.512 67.8027 51.4775C68.261 51.3896 68.7285 51.3602 69.1942 51.39C69.9741 51.4342 70.7334 51.6574 71.4136 52.0425C71.9768 52.4012 72.434 52.9044 72.7378 53.5C73.0345 54.0919 73.2284 54.7302 73.3114 55.3875C73.3662 55.6825 73.4211 55.9875 73.4984 56.28C73.8725 57.6975 74.1318 58.78 74.3413 59.8025C74.7427 61.9003 74.9613 64.0292 74.9946 66.165C75.047 68.04 74.7453 68.9025 72.7503 69.38C72.1343 69.5198 71.504 69.5861 70.8725 69.5775ZM63.0446 56.6525C63.1344 56.6925 63.2391 56.74 63.3414 56.7975C63.6566 57.0021 63.9202 57.2773 64.1115 57.6013C64.3027 57.9254 64.4164 58.2895 64.4436 58.665C64.4897 59.1118 64.5106 59.5608 64.5059 60.01C64.4994 60.5047 64.5277 60.9993 64.5907 61.49C64.6707 62.1427 64.7107 62.7998 64.7104 63.4575C64.7453 64.8825 64.7778 66.3575 65.4586 67.4125C65.9193 68.0506 66.5849 68.5105 67.3438 68.715C68.1325 68.9247 68.9443 69.0347 69.7603 69.0425C70.7174 69.1311 71.6822 69.0823 72.6256 68.8975C74.3712 68.4775 74.5333 67.82 74.4859 66.185C74.4531 64.0777 74.2379 61.9774 73.8425 59.9075C73.6356 58.9075 73.3762 57.82 73.0071 56.4075C72.9248 56.095 72.8675 55.7825 72.8101 55.4775C72.7375 54.8748 72.5629 54.2889 72.2939 53.745C72.0346 53.2264 71.6431 52.7857 71.1593 52.4675C70.5462 52.1258 69.8644 51.9268 69.1643 51.885C68.7411 51.8577 68.3163 51.8845 67.8999 51.965C67.7974 51.9942 67.6967 52.0293 67.5982 52.07C67.1493 52.24 66.9348 52.3075 66.7728 52.2475C66.2586 52.0505 65.7029 51.988 65.158 52.0658C64.613 52.1437 64.0969 52.3593 63.6581 52.6925C63.1857 53.0422 62.8089 53.5057 62.5626 54.0402C62.3163 54.5746 62.2085 55.1627 62.2491 55.75C62.249 55.925 62.2937 56.0971 62.3788 56.25C62.5343 56.4245 62.7343 56.5532 62.9573 56.6225L63.0446 56.6525Z" fill="#093F68"/>
<path d="M36.1894 28.4375H27.1346C27.0685 28.4375 27.0051 28.4112 26.9583 28.3643C26.9115 28.3174 26.8853 28.2538 26.8853 28.1875C26.8853 28.1212 26.9115 28.0576 26.9583 28.0107C27.0051 27.9638 27.0685 27.9375 27.1346 27.9375H36.1894C36.2556 27.9375 36.319 27.9638 36.3658 28.0107C36.4125 28.0576 36.4388 28.1212 36.4388 28.1875C36.4388 28.2538 36.4125 28.3174 36.3658 28.3643C36.319 28.4112 36.2556 28.4375 36.1894 28.4375Z" fill="#DFEAEF"/>
<path d="M31.2468 31.91H27.1346C27.0685 31.91 27.005 31.8837 26.9583 31.8368C26.9115 31.7899 26.8852 31.7263 26.8852 31.66C26.8852 31.5937 26.9115 31.5301 26.9583 31.4832C27.005 31.4363 27.0685 31.41 27.1346 31.41H31.2468C31.3129 31.41 31.3764 31.4363 31.4231 31.4832C31.4699 31.5301 31.4962 31.5937 31.4962 31.66C31.4962 31.7263 31.4699 31.7899 31.4231 31.8368C31.3764 31.8837 31.3129 31.91 31.2468 31.91Z" fill="#DFEAEF"/>
<path d="M34.9151 43.57H27.1346C27.0685 43.57 27.005 43.5437 26.9583 43.4968C26.9115 43.4499 26.8852 43.3863 26.8852 43.32V34.6925C26.8852 34.6262 26.9115 34.5626 26.9583 34.5157C27.005 34.4688 27.0685 34.4425 27.1346 34.4425C27.2008 34.4425 27.2642 34.4688 27.3109 34.5157C27.3577 34.5626 27.384 34.6262 27.384 34.6925V43.07H34.9151C34.9812 43.07 35.0447 43.0963 35.0914 43.1432C35.1382 43.1901 35.1645 43.2537 35.1645 43.32C35.1645 43.3863 35.1382 43.4499 35.0914 43.4968C35.0447 43.5437 34.9812 43.57 34.9151 43.57Z" fill="#DFEAEF"/>
<path d="M27.1346 43.57C27.0993 43.5698 27.0645 43.5621 27.0324 43.5475C27.0023 43.534 26.9752 43.5146 26.9526 43.4906C26.9301 43.4665 26.9125 43.4382 26.9009 43.4073C26.8893 43.3764 26.8839 43.3435 26.8851 43.3104C26.8863 43.2774 26.8939 43.245 26.9077 43.215C27.1246 42.7375 29.0573 38.5225 30.4912 38.0675C30.5994 38.0297 30.7144 38.0158 30.8284 38.0266C30.9424 38.0374 31.0528 38.0726 31.1521 38.13C31.5735 38.3886 31.9147 38.7601 32.1371 39.2025C32.2368 39.375 32.3216 39.525 32.4039 39.5425C32.4862 39.56 32.6533 39.5425 33.152 39.185C34.6308 38.1525 35.95 35.355 35.9625 35.3275C35.9747 35.2955 35.9934 35.2664 36.0174 35.242C36.0413 35.2175 36.07 35.1983 36.1017 35.1854C36.1334 35.1726 36.1673 35.1664 36.2015 35.1672C36.2356 35.1681 36.2693 35.176 36.3003 35.1904C36.3312 35.2048 36.359 35.2254 36.3817 35.2511C36.4044 35.2767 36.4216 35.3067 36.4322 35.3392C36.4429 35.3718 36.4467 35.4061 36.4436 35.4403C36.4404 35.4744 36.4303 35.5075 36.4139 35.5375C36.359 35.6575 35.0273 38.4875 33.4363 39.5975C32.9052 39.9675 32.5735 40.0975 32.2917 40.03C32.0099 39.9625 31.8528 39.715 31.7007 39.4525C31.5229 39.0839 31.2433 38.7741 30.8952 38.56C30.8572 38.5396 30.8152 38.5277 30.7721 38.5251C30.7291 38.5226 30.686 38.5293 30.6458 38.545C29.6109 38.8725 27.9276 42.1775 27.3665 43.4225C27.3465 43.4671 27.3139 43.5049 27.2727 43.5311C27.2314 43.5573 27.1834 43.5708 27.1346 43.57Z" fill="#DFEAEF"/>
<path d="M66.8451 28.4375H57.5509C57.4847 28.4375 57.4213 28.4112 57.3745 28.3643C57.3278 28.3174 57.3015 28.2538 57.3015 28.1875C57.3015 28.1212 57.3278 28.0576 57.3745 28.0107C57.4213 27.9638 57.4847 27.9375 57.5509 27.9375H66.8451C66.9112 27.9375 66.9746 27.9638 67.0214 28.0107C67.0682 28.0576 67.0944 28.1212 67.0944 28.1875C67.0944 28.2538 67.0682 28.3174 67.0214 28.3643C66.9746 28.4112 66.9112 28.4375 66.8451 28.4375Z" fill="#DFEAEF"/>
<path d="M66.8451 31.0575H57.5509C57.4847 31.0575 57.4213 31.0312 57.3745 30.9843C57.3278 30.9374 57.3015 30.8738 57.3015 30.8075C57.3015 30.7412 57.3278 30.6776 57.3745 30.6307C57.4213 30.5838 57.4847 30.5575 57.5509 30.5575H66.8451C66.9112 30.5575 66.9746 30.5838 67.0214 30.6307C67.0682 30.6776 67.0944 30.7412 67.0944 30.8075C67.0944 30.8738 67.0682 30.9374 67.0214 30.9843C66.9746 31.0312 66.9112 31.0575 66.8451 31.0575Z" fill="#DFEAEF"/>
<path d="M66.8451 33.6775H57.5509C57.4847 33.6775 57.4213 33.6512 57.3745 33.6043C57.3278 33.5574 57.3015 33.4938 57.3015 33.4275C57.3015 33.3612 57.3278 33.2976 57.3745 33.2507C57.4213 33.2038 57.4847 33.1775 57.5509 33.1775H66.8451C66.9112 33.1775 66.9746 33.2038 67.0214 33.2507C67.0682 33.2976 67.0944 33.3612 67.0944 33.4275C67.0944 33.4938 67.0682 33.5574 67.0214 33.6043C66.9746 33.6512 66.9112 33.6775 66.8451 33.6775Z" fill="#DFEAEF"/>
<path d="M66.8451 43.57H57.5509C57.4847 43.57 57.4213 43.5436 57.3745 43.4968C57.3278 43.4499 57.3015 43.3863 57.3015 43.32V36.96C57.3015 36.8937 57.3278 36.8301 57.3745 36.7832C57.4213 36.7363 57.4847 36.71 57.5509 36.71H66.8451C66.9112 36.71 66.9746 36.7363 67.0214 36.7832C67.0682 36.8301 67.0944 36.8937 67.0944 36.96V43.32C67.0944 43.3863 67.0682 43.4499 67.0214 43.4968C66.9746 43.5436 66.9112 43.57 66.8451 43.57ZM57.8002 43.07H66.5957V37.21H57.8002V43.07Z" fill="#DFEAEF"/>
</svg>
