<svg width="96" height="96" viewBox="0 0 96 96" fill="none" xmlns="http://www.w3.org/2000/svg">
<rect width="96" height="96" rx="15" fill="#131C73"/>
<path d="M31.1395 59.6266C31.0493 59.6266 30.9627 59.5928 30.899 59.5326C30.8352 59.4724 30.7993 59.3907 30.7993 59.3056V50.2451C30.7995 50.2027 30.8086 50.1606 30.8261 50.1215C30.8437 50.0824 30.8692 50.0469 30.9014 50.0172L34.3674 46.8065C34.4319 46.7469 34.5188 46.714 34.6091 46.7149C34.6993 46.7158 34.7855 46.7505 34.8486 46.8114C34.9118 46.8722 34.9467 46.9543 34.9458 47.0395C34.9448 47.1247 34.908 47.2061 34.8435 47.2657L31.4796 50.3768V59.3024C31.48 59.3448 31.4716 59.3869 31.4547 59.4262C31.4378 59.4655 31.4128 59.5013 31.3812 59.5315C31.3496 59.5616 31.3119 59.5856 31.2704 59.6019C31.2289 59.6182 31.1844 59.6266 31.1395 59.6266Z" fill="#093F68"/>
<path d="M34.9581 45.0699L33.4655 46.36C32.9917 46.7696 32.9593 47.4641 33.3932 47.9114L33.4943 48.0156C33.9281 48.4628 34.664 48.4934 35.1378 48.0838L36.6304 46.7937C37.1042 46.3842 37.1366 45.6896 36.7027 45.2424L36.6016 45.1382C36.1678 44.6909 35.4319 44.6604 34.9581 45.0699Z" fill="#FFBC0E"/>
<path d="M34.3537 48.6977H34.2857C34.0886 48.6903 33.895 48.6459 33.7163 48.5671C33.5376 48.4883 33.3773 48.3766 33.2449 48.2385L33.1429 48.1358C32.8741 47.8575 32.7332 47.49 32.7511 47.1139C32.7689 46.7377 32.9441 46.3836 33.2381 46.1291L34.7279 44.8449C35.0227 44.5912 35.412 44.4582 35.8105 44.4751C36.209 44.4919 36.5842 44.6572 36.8537 44.9348L36.9524 45.0375C37.0861 45.1749 37.1898 45.3358 37.2575 45.5111C37.3253 45.6863 37.3558 45.8724 37.3472 46.0588C37.3387 46.2452 37.2913 46.4282 37.2078 46.5972C37.1243 46.7663 37.0063 46.9182 36.8605 47.0442L35.3707 48.3284C35.0931 48.568 34.7299 48.6999 34.3537 48.6977ZM35.7551 45.1082C35.5485 45.1084 35.3495 45.1817 35.1973 45.3136L33.7143 46.6107C33.634 46.6792 33.5691 46.7623 33.5235 46.855C33.4779 46.9476 33.4526 47.048 33.449 47.1501C33.4433 47.2525 33.4593 47.355 33.4961 47.4515C33.5329 47.5479 33.5897 47.6365 33.6633 47.712L33.7619 47.8147C33.9098 47.966 34.1151 48.056 34.333 48.065C34.5509 48.074 34.7638 48.0014 34.9252 47.8629L36.4184 46.5786C36.4991 46.5105 36.5643 46.4275 36.61 46.3348C36.6556 46.242 36.6807 46.1415 36.6837 46.0392C36.6891 45.9374 36.6729 45.8355 36.6361 45.7395C36.5993 45.6436 36.5427 45.5556 36.4694 45.4806L36.3707 45.3779C36.2982 45.302 36.2102 45.2408 36.112 45.1978C36.0139 45.1547 35.9075 45.1308 35.7993 45.1274L35.7551 45.1082Z" fill="#093F68"/>
<path d="M64.7041 59.6266C64.6139 59.6266 64.5274 59.5928 64.4636 59.5326C64.3998 59.4724 64.3639 59.3907 64.3639 59.3056V54.13L61 51.0157C60.9366 50.9555 60.9011 50.8742 60.9011 50.7893C60.9011 50.7045 60.9366 50.6231 61 50.563C61.0316 50.5329 61.0692 50.509 61.1107 50.4927C61.1521 50.4764 61.1966 50.468 61.2415 50.468C61.2864 50.468 61.3309 50.4764 61.3723 50.4927C61.4138 50.509 61.4514 50.5329 61.483 50.563L64.949 53.7736C64.9811 53.8034 65.0067 53.8388 65.0242 53.878C65.0417 53.9171 65.0508 53.9591 65.051 54.0016V59.312C65.0501 59.3541 65.0405 59.3957 65.0225 59.4344C65.0046 59.473 64.9788 59.5079 64.9466 59.5371C64.9144 59.5664 64.8764 59.5893 64.8348 59.6047C64.7932 59.62 64.7488 59.6275 64.7041 59.6266Z" fill="#093F68"/>
<path d="M60.3015 51.971L61.7941 53.2611C62.2679 53.6706 63.0037 53.6401 63.4376 53.1928L63.5387 53.0886C63.9725 52.6414 63.9401 51.9468 63.4663 51.5373L61.9737 50.2472C61.4999 49.8376 60.7641 49.8682 60.3302 50.3154L60.2291 50.4196C59.7953 50.8669 59.8277 51.5614 60.3015 51.971Z" fill="#F56132"/>
<path d="M62.5748 53.8731C62.1973 53.8741 61.8331 53.7411 61.5544 53.5007L60.0646 52.2165C59.7706 51.962 59.5954 51.6079 59.5776 51.2317C59.5597 50.8555 59.7006 50.4881 59.9694 50.2098L60.0714 50.1071C60.2039 49.969 60.3641 49.8573 60.5428 49.7785C60.7215 49.6997 60.9151 49.6553 61.1123 49.6479C61.3102 49.6393 61.508 49.6677 61.6942 49.7317C61.8805 49.7956 62.0515 49.8937 62.1973 50.0204L63.6871 51.3046C63.8328 51.4306 63.9508 51.5825 64.0344 51.7516C64.1179 51.9206 64.1652 52.1036 64.1738 52.29C64.1823 52.4764 64.1518 52.6625 64.0841 52.8377C64.0163 53.013 63.9126 53.1739 63.7789 53.3113L63.6803 53.414C63.5472 53.5521 63.3864 53.6639 63.2071 53.7427C63.0278 53.8215 62.8337 53.8659 62.6361 53.8731H62.5748ZM60.534 51.7381L62.0238 53.0223C62.1038 53.0917 62.1976 53.1454 62.2998 53.1801C62.402 53.2148 62.5106 53.23 62.6191 53.2246C62.7272 53.2212 62.8336 53.1973 62.9318 53.1543C63.0299 53.1112 63.1179 53.05 63.1905 52.9742L63.2891 52.8714C63.3624 52.7964 63.4191 52.7084 63.4559 52.6125C63.4927 52.5165 63.5088 52.4147 63.5034 52.3128C63.5004 52.2105 63.4753 52.11 63.4297 52.0172C63.3841 51.9245 63.3189 51.8415 63.2381 51.7734L61.7449 50.4891C61.6656 50.4198 61.5723 50.3662 61.4707 50.3315C61.369 50.2967 61.261 50.2816 61.1531 50.2869C60.9351 50.2962 60.7298 50.3862 60.5816 50.5373L60.483 50.64C60.3352 50.7925 60.2576 50.9941 60.2672 51.2006C60.2768 51.4071 60.3727 51.6015 60.534 51.7413V51.7381Z" fill="#093F68"/>
<path d="M58.5748 63.7234V53.9952C58.5748 52.4463 57.923 50.9608 56.7627 49.8656C55.6024 48.7703 54.0287 48.155 52.3878 48.155H42.6293C41.8162 48.1542 41.0109 48.3046 40.2595 48.5977C39.508 48.8909 38.8252 49.3209 38.2499 49.8633C37.6747 50.4057 37.2183 51.0498 36.907 51.7588C36.5956 52.4678 36.4354 53.2277 36.4354 53.9952V63.7234H58.5748Z" fill="#40596B"/>
<path d="M58.5748 64.0445H36.4354C36.3452 64.0445 36.2587 64.0106 36.1949 63.9504C36.1311 63.8902 36.0952 63.8085 36.0952 63.7234V53.9951C36.097 52.3616 36.7853 50.7955 38.009 49.6404C39.2327 48.4853 40.8919 47.8356 42.6225 47.8339H52.3878C54.1183 47.8356 55.7775 48.4853 57.0012 49.6404C58.2249 50.7955 58.9132 52.3616 58.915 53.9951V63.7234C58.915 63.8085 58.8791 63.8902 58.8153 63.9504C58.7516 64.0106 58.665 64.0445 58.5748 64.0445ZM36.7823 63.4023H58.2347V53.9951C58.2329 52.5319 57.6163 51.1291 56.5202 50.0944C55.4241 49.0598 53.9379 48.4778 52.3878 48.4761H42.6293C41.0779 48.4761 39.59 49.0573 38.4924 50.0922C37.3948 51.127 36.7773 52.5308 36.7755 53.9951L36.7823 63.4023Z" fill="#093F68"/>
<path d="M51.5408 48.1486L47.5816 62.3043L43.534 48.1486H51.5408Z" fill="white"/>
<path d="M47.5816 62.6254C47.5048 62.6279 47.4294 62.6057 47.3677 62.5626C47.3059 62.5194 47.2614 62.4578 47.2415 62.3878L43.1939 48.2321C43.1801 48.1844 43.1782 48.1345 43.1882 48.086C43.1982 48.0376 43.22 47.992 43.2517 47.9527C43.2837 47.9135 43.325 47.8817 43.3722 47.86C43.4194 47.8383 43.4713 47.8271 43.5238 47.8275H51.5306C51.5831 47.8271 51.635 47.8383 51.6822 47.86C51.7294 47.8817 51.7707 47.9135 51.8027 47.9527C51.8345 47.992 51.8562 48.0376 51.8662 48.086C51.8762 48.1345 51.8743 48.1844 51.8605 48.2321L47.898 62.3878C47.878 62.4578 47.8336 62.5194 47.7718 62.5626C47.71 62.6057 47.6346 62.6279 47.5578 62.6254H47.5816ZM43.9762 48.4697L47.5782 61.0586L51.102 48.4664L43.9762 48.4697Z" fill="#093F68"/>
<path d="M46.1871 47.0377H49.2823V48.7201C49.2823 48.8833 49.2483 49.0448 49.1821 49.1956C49.116 49.3463 49.019 49.4833 48.8968 49.5987C48.7745 49.7141 48.6294 49.8056 48.4697 49.868C48.31 49.9305 48.1388 49.9626 47.966 49.9626H47.5C47.1509 49.9626 46.8161 49.8317 46.5692 49.5987C46.3224 49.3657 46.1837 49.0496 46.1837 48.7201V47.0377H46.1871Z" fill="#FFC9B0"/>
<path d="M47.9694 50.2837H47.5C47.0613 50.2828 46.6408 50.1177 46.3309 49.8246C46.021 49.5315 45.8469 49.1342 45.8469 48.7201V47.0377C45.8469 46.9526 45.8828 46.8709 45.9466 46.8107C46.0104 46.7505 46.0969 46.7167 46.1871 46.7167H49.2823C49.3725 46.7167 49.459 46.7505 49.5228 46.8107C49.5866 46.8709 49.6225 46.9526 49.6225 47.0377V48.7201C49.6225 49.1342 49.4484 49.5315 49.1385 49.8246C48.8286 50.1177 48.4081 50.2828 47.9694 50.2837ZM46.5272 47.3588V48.7201C46.5272 48.9639 46.6296 49.1978 46.8119 49.3705C46.9943 49.5433 47.2417 49.6407 47.5 49.6416H47.9694C48.2277 49.6407 48.4751 49.5433 48.6575 49.3705C48.8398 49.1978 48.9422 48.9639 48.9422 48.7201V47.3588H46.5272Z" fill="#093F68"/>
<path d="M37.0442 38.9276C35.6054 38.4139 35.6837 37.3769 35.4762 36.0381C35.2611 34.7227 35.1271 33.3966 35.0748 32.0665C35.0204 30.5543 35.0748 28.9971 35.6871 27.5941C36.4694 25.7897 38.0136 24.621 40.0782 24.7816C40.017 22.1199 41.7075 20.4825 44.7075 20.3316C49.5068 20.0908 52.2687 24.0977 54.9558 23.7381C57.6429 23.3785 58.3571 22.2484 58.3571 22.2484C58.8102 23.0623 58.9975 23.9848 58.8951 24.8992C58.7928 25.8136 58.4056 26.6788 57.7823 27.3854C57.7823 27.3854 59.898 26.8011 60.1633 29.4595C60.4286 32.1179 58.7347 39.1813 58.7347 39.1813L56.8163 38.8602C56.0102 38.7254 55.0034 38.9116 54.1905 38.9373L48.1871 39.1139C45.1769 39.2005 40.3095 40.0963 37.0442 38.9276Z" fill="#725858"/>
<path d="M41.3707 39.8427C39.8609 39.8856 38.3549 39.6769 36.9218 39.2262C35.5 38.7157 35.3605 37.7044 35.2211 36.6352C35.1973 36.4587 35.1735 36.2789 35.1429 36.0926C34.9241 34.7635 34.7878 33.4235 34.7347 32.0793C34.6837 30.6506 34.7347 28.9843 35.3707 27.4721C36.2007 25.5457 37.8061 24.4476 39.7177 24.4476H39.7415C39.8265 21.8117 41.6531 20.1647 44.6871 20.0105C47.4694 19.8725 49.6156 21.1182 51.3435 22.1167C52.6803 22.8937 53.8367 23.5647 54.9082 23.4202C57.3673 23.0992 58.0612 22.091 58.068 22.0814C58.1005 22.035 58.1443 21.9968 58.1959 21.97C58.2474 21.9431 58.3051 21.9285 58.3639 21.9273C58.4227 21.9282 58.4803 21.9434 58.5309 21.9716C58.5816 21.9997 58.6237 22.0398 58.6531 22.0878C59.0753 22.8558 59.2811 23.7134 59.2507 24.5782C59.2203 25.443 58.9548 26.2859 58.4796 27.0258C58.8209 27.0545 59.1487 27.165 59.432 27.3469C60.0408 27.7386 60.398 28.4449 60.4966 29.4434C60.7551 32.1211 59.1361 38.9726 59.0612 39.2648C59.0416 39.345 58.9901 39.4151 58.9173 39.4605C58.8445 39.506 58.756 39.5232 58.6701 39.5088L56.7517 39.1877C56.186 39.1296 55.6148 39.1371 55.051 39.2102C54.7483 39.2391 54.466 39.2615 54.1905 39.2712L48.1905 39.4478C47.4422 39.4702 46.5646 39.5441 45.6361 39.6211C44.3129 39.7175 42.8299 39.8427 41.3707 39.8427ZM37.1633 38.629C39.5442 39.4734 42.8844 39.1941 45.5782 38.9501C46.517 38.8698 47.4048 38.796 48.1701 38.7735L54.1735 38.5969C54.4252 38.5969 54.7007 38.5648 54.9932 38.5392C55.6154 38.4639 56.2452 38.4639 56.8674 38.5392L58.466 38.8024C58.7789 37.4347 60.0374 31.739 59.8265 29.4916C59.7483 28.6953 59.4864 28.1495 59.0612 27.8702C58.8877 27.7691 58.6945 27.7017 58.493 27.6719C58.2915 27.6422 58.0857 27.6506 57.8878 27.6968C57.8178 27.7153 57.7434 27.7122 57.6755 27.688C57.6076 27.6637 57.5496 27.6196 57.5102 27.562C57.4709 27.5056 57.4513 27.439 57.4544 27.3715C57.4574 27.3041 57.4829 27.2393 57.5272 27.1863C58.0557 26.5915 58.4039 25.8728 58.535 25.1064C58.6661 24.34 58.5753 23.5544 58.2721 22.8327C57.7959 23.234 56.8197 23.8216 55.0136 24.0624C53.7007 24.2422 52.4456 23.5166 50.9966 22.6754C49.2653 21.6704 47.2993 20.5307 44.7347 20.6623C41.9422 20.8036 40.3708 22.3061 40.4286 24.7848C40.4298 24.8296 40.4211 24.8742 40.4029 24.9157C40.3847 24.9572 40.3576 24.9946 40.3231 25.0256C40.2884 25.0566 40.2471 25.0803 40.202 25.0953C40.1568 25.1102 40.1089 25.116 40.0612 25.1123C38.2653 24.971 36.7925 25.9245 36.0136 27.7257C35.4048 29.1256 35.3776 30.7052 35.4252 32.0665C35.4733 33.3859 35.6051 34.7014 35.8197 36.006C35.8503 36.1986 35.8742 36.3848 35.898 36.5646C36.0408 37.6241 36.1293 38.2662 37.1701 38.6387L37.1633 38.629Z" fill="#093F68"/>
<path d="M38.8844 41.891C40.5468 41.891 41.8946 40.7957 41.8946 39.4445C41.8946 38.0934 40.5468 36.998 38.8844 36.998C37.2219 36.998 35.8742 38.0934 35.8742 39.4445C35.8742 40.7957 37.2219 41.891 38.8844 41.891Z" fill="#FFC9B0"/>
<path d="M38.8843 42.2153C37.0374 42.2153 35.534 40.9728 35.534 39.4445C35.534 37.9162 37.0374 36.6769 38.8843 36.6769C40.7313 36.6769 42.2313 37.9195 42.2313 39.4445C42.2313 40.9696 40.7313 42.2153 38.8843 42.2153ZM38.8843 37.3191C37.4116 37.3191 36.2143 38.2823 36.2143 39.4445C36.2143 40.6068 37.4116 41.5732 38.8843 41.5732C40.3571 41.5732 41.551 40.61 41.551 39.4445C41.551 38.2791 40.3571 37.3191 38.8843 37.3191Z" fill="#093F68"/>
<path d="M56.4252 41.891C58.0877 41.891 59.4354 40.7957 59.4354 39.4445C59.4354 38.0934 58.0877 36.998 56.4252 36.998C54.7627 36.998 53.415 38.0934 53.415 39.4445C53.415 40.7957 54.7627 41.891 56.4252 41.891Z" fill="#FFC9B0"/>
<path d="M56.4252 42.2153C54.5782 42.2153 53.0748 40.9728 53.0748 39.4445C53.0748 37.9162 54.5782 36.6769 56.4252 36.6769C58.2721 36.6769 59.7721 37.9195 59.7721 39.4445C59.7721 40.9696 58.2721 42.2153 56.4252 42.2153ZM56.4252 37.3191C54.9524 37.3191 53.7551 38.2823 53.7551 39.4445C53.7551 40.6068 54.9524 41.5732 56.4252 41.5732C57.898 41.5732 59.0918 40.61 59.0918 39.4445C59.0918 38.2791 57.8946 37.3191 56.4252 37.3191Z" fill="#093F68"/>
<path d="M47.7347 47.423C45.3279 47.423 43.0197 46.5205 41.3178 44.9141C39.616 43.3076 38.6599 41.1288 38.6599 38.857V32.638C39.1905 33.4471 40.9524 33.126 43.534 28.9522C53.2007 33.5755 56.7993 30.9267 56.7993 30.9267V38.857C56.7984 41.1269 55.8434 43.3038 54.144 44.9097C52.4445 46.5157 50.1394 47.4196 47.7347 47.423Z" fill="#FFC9B0"/>
<path d="M47.7347 47.7441C45.2385 47.7415 42.8453 46.8044 41.0803 45.1383C39.3152 43.4722 38.3224 41.2132 38.3197 38.857V32.638C38.3169 32.5659 38.3399 32.4951 38.3849 32.4368C38.4299 32.3786 38.4945 32.3364 38.568 32.3169C38.6396 32.2975 38.716 32.3008 38.7855 32.3263C38.8549 32.3518 38.9135 32.3982 38.9524 32.4582C38.9915 32.5265 39.051 32.5825 39.1236 32.619C39.1962 32.6556 39.2786 32.6711 39.3605 32.6637C39.7007 32.6637 41.0204 32.3715 43.2381 28.7788C43.2817 28.7076 43.3526 28.655 43.4361 28.6317C43.5197 28.6084 43.6095 28.6162 43.6871 28.6536C48.5612 30.9845 51.8231 31.3987 53.6973 31.3409C55.7109 31.2767 56.5918 30.6635 56.602 30.657C56.6525 30.6208 56.7127 30.5986 56.7758 30.5929C56.8389 30.5873 56.9024 30.5983 56.9592 30.6249C57.0164 30.6514 57.0646 30.6925 57.0983 30.7436C57.132 30.7947 57.1498 30.8537 57.1497 30.9139V38.8442C57.1506 41.2026 56.1594 43.4649 54.3939 45.1338C52.6284 46.8026 50.2332 47.7415 47.7347 47.7441ZM39 33.2737V38.857C39.0027 41.0429 39.9238 43.1386 41.5613 44.6842C43.1988 46.2299 45.4189 47.0994 47.7347 47.1019C50.0504 47.0994 52.2706 46.2299 53.9081 44.6842C55.5456 43.1386 56.4667 41.0429 56.4694 38.857V31.4725C55.1292 32.044 51.2585 32.943 43.6633 29.376C42.0578 31.9156 40.5374 33.3122 39.3673 33.3219C39.2429 33.3255 39.1187 33.3092 39 33.2737Z" fill="#093F68"/>
<path d="M43.8197 38.4043C44.2837 38.4043 44.6599 38.0493 44.6599 37.6113C44.6599 37.1733 44.2837 36.8183 43.8197 36.8183C43.3557 36.8183 42.9796 37.1733 42.9796 37.6113C42.9796 38.0493 43.3557 38.4043 43.8197 38.4043Z" fill="#093F68"/>
<path d="M51.6463 38.4043C52.1103 38.4043 52.4864 38.0493 52.4864 37.6113C52.4864 37.1733 52.1103 36.8183 51.6463 36.8183C51.1823 36.8183 50.8061 37.1733 50.8061 37.6113C50.8061 38.0493 51.1823 38.4043 51.6463 38.4043Z" fill="#093F68"/>
<path d="M47.7109 41.2104C47.4318 41.2091 47.1532 41.1876 46.8775 41.1462C46.8335 41.1388 46.7915 41.1234 46.7538 41.1007C46.7162 41.078 46.6836 41.0485 46.658 41.0139C46.6324 40.9793 46.6143 40.9403 46.6047 40.8991C46.5951 40.8579 46.5942 40.8153 46.602 40.7738C46.6098 40.7322 46.6262 40.6925 46.6503 40.657C46.6743 40.6214 46.7056 40.5907 46.7422 40.5666C46.7789 40.5424 46.8202 40.5253 46.8638 40.5162C46.9075 40.5072 46.9526 40.5063 46.9966 40.5137C47.379 40.5727 47.7684 40.5802 48.1531 40.5362C48.0256 39.9107 47.7888 39.3096 47.4524 38.7575C47.4129 38.6824 47.4062 38.5957 47.4335 38.5159C47.4609 38.4361 47.5203 38.3696 47.5989 38.3306C47.6775 38.2916 47.7692 38.2832 47.8543 38.3072C47.9395 38.3312 48.0113 38.3856 48.0544 38.4589C48.3537 39.0015 49.0238 40.3211 48.7687 40.8572C48.7374 40.925 48.6907 40.9854 48.632 41.0343C48.5732 41.0831 48.5037 41.1191 48.4286 41.1398C48.1935 41.1921 47.9523 41.2158 47.7109 41.2104Z" fill="#093F68"/>
<path d="M48.0612 50.2451H47.0986C46.7305 50.2451 46.432 50.5269 46.432 50.8744V51.3207C46.432 51.6682 46.7305 51.95 47.0986 51.95H48.0612C48.4294 51.95 48.7279 51.6682 48.7279 51.3207V50.8744C48.7279 50.5269 48.4294 50.2451 48.0612 50.2451Z" fill="#F56132"/>
<path d="M48.0612 52.271H47.0986C46.828 52.271 46.5685 52.1696 46.3771 51.9889C46.1857 51.8083 46.0782 51.5633 46.0782 51.3078V50.8616C46.0782 50.6061 46.1857 50.3611 46.3771 50.1805C46.5685 49.9999 46.828 49.8984 47.0986 49.8984H48.0612C48.3318 49.8984 48.5914 49.9999 48.7828 50.1805C48.9741 50.3611 49.0816 50.6061 49.0816 50.8616V51.3078C49.0816 51.5633 48.9741 51.8083 48.7828 51.9889C48.5914 52.1696 48.3318 52.271 48.0612 52.271ZM47.0986 50.5662C47.0084 50.5662 46.9219 50.6 46.8581 50.6602C46.7943 50.7204 46.7585 50.8021 46.7585 50.8873V51.3335C46.7585 51.4187 46.7943 51.5003 46.8581 51.5606C46.9219 51.6208 47.0084 51.6546 47.0986 51.6546H48.0612C48.1514 51.6546 48.2379 51.6208 48.3017 51.5606C48.3655 51.5003 48.4014 51.4187 48.4014 51.3335V50.8873C48.4014 50.8021 48.3655 50.7204 48.3017 50.6602C48.2379 50.6 48.1514 50.5662 48.0612 50.5662H47.0986Z" fill="#093F68"/>
<path d="M48.915 57.5333L47.5816 62.3043L46.0986 57.1288L46.9218 51.95H48.2347L48.915 57.5333Z" fill="#F56132"/>
<path d="M47.5816 62.6254C47.5048 62.6279 47.4294 62.6057 47.3677 62.5626C47.3059 62.5195 47.2614 62.4578 47.2415 62.3878L45.7721 57.2058C45.7625 57.1624 45.7625 57.1176 45.7721 57.0742L46.5918 51.8954C46.6041 51.8189 46.6453 51.7491 46.7078 51.6989C46.7703 51.6488 46.8499 51.6216 46.932 51.6225H48.2449C48.329 51.622 48.4103 51.651 48.4731 51.7037C48.5359 51.7565 48.5758 51.8294 48.585 51.9083L49.2653 57.4884C49.2722 57.5277 49.2722 57.5678 49.2653 57.6072L47.9286 62.3814C47.9086 62.4514 47.8642 62.513 47.8024 62.5562C47.7406 62.5993 47.6652 62.6214 47.5884 62.619L47.5816 62.6254ZM46.449 57.1095L47.5782 61.0586L48.5714 57.5044L47.932 52.2679H47.2143L46.449 57.1095Z" fill="#093F68"/>
<path d="M41.4864 64.0445C41.3962 64.0445 41.3097 64.0106 41.2459 63.9504C41.1821 63.8902 41.1463 63.8086 41.1463 63.7234V53.1732C41.1463 53.0881 41.1821 53.0064 41.2459 52.9462C41.3097 52.886 41.3962 52.8522 41.4864 52.8522C41.5766 52.8522 41.6631 52.886 41.7269 52.9462C41.7907 53.0064 41.8265 53.0881 41.8265 53.1732V63.7234C41.8265 63.8086 41.7907 63.8902 41.7269 63.9504C41.6631 64.0106 41.5766 64.0445 41.4864 64.0445Z" fill="#093F68"/>
<path d="M53.5306 64.0445C53.4404 64.0445 53.3539 64.0106 53.2901 63.9504C53.2263 63.8902 53.1905 63.8086 53.1905 63.7234V53.1732C53.1905 53.0881 53.2263 53.0064 53.2901 52.9462C53.3539 52.886 53.4404 52.8522 53.5306 52.8522C53.6208 52.8522 53.7073 52.886 53.7711 52.9462C53.8349 53.0064 53.8707 53.0881 53.8707 53.1732V63.7234C53.8707 63.8086 53.8349 63.8902 53.7711 63.9504C53.7073 64.0106 53.6208 64.0445 53.5306 64.0445Z" fill="#093F68"/>
<path d="M45.381 35.7812H41.0068C40.8264 35.7812 40.6534 35.7136 40.5258 35.5931C40.3982 35.4727 40.3265 35.3094 40.3265 35.1391C40.3265 34.9688 40.3982 34.8054 40.5258 34.685C40.6534 34.5646 40.8264 34.4969 41.0068 34.4969H45.381C45.5614 34.4969 45.7344 34.5646 45.862 34.685C45.9896 34.8054 46.0612 34.9688 46.0612 35.1391C46.0612 35.3094 45.9896 35.4727 45.862 35.5931C45.7344 35.7136 45.5614 35.7812 45.381 35.7812Z" fill="#093F68"/>
<path d="M54.4626 35.7812H50.085C49.9046 35.7812 49.7316 35.7136 49.604 35.5931C49.4764 35.4727 49.4048 35.3094 49.4048 35.1391C49.4048 34.9688 49.4764 34.8054 49.604 34.685C49.7316 34.5646 49.9046 34.4969 50.085 34.4969H54.4626C54.643 34.4969 54.816 34.5646 54.9436 34.685C55.0712 34.8054 55.1429 34.9688 55.1429 35.1391C55.1429 35.3094 55.0712 35.4727 54.9436 35.5931C54.816 35.7136 54.643 35.7812 54.4626 35.7812Z" fill="#093F68"/>
<path d="M49.5476 42.4754H46.102C46.102 42.4754 45.7347 44.9444 47.9218 44.9444C48.915 44.9444 49.5476 43.9298 49.5476 42.4754Z" fill="white"/>
<path d="M47.9218 45.2655C47.6236 45.28 47.3257 45.2317 47.0497 45.1239C46.7738 45.0162 46.5267 44.8518 46.3265 44.6426C45.568 43.8207 45.7551 42.4883 45.7619 42.4305C45.7735 42.3533 45.8143 42.2828 45.8769 42.232C45.9395 42.1812 46.0195 42.1536 46.102 42.1544H49.5476C49.6378 42.1544 49.7244 42.1882 49.7881 42.2484C49.8519 42.3086 49.8878 42.3903 49.8878 42.4754C49.8878 44.145 49.0952 45.2655 47.9218 45.2655ZM46.4184 42.7965C46.3803 43.3034 46.5293 43.8071 46.8401 44.222C46.9778 44.3602 47.1463 44.4678 47.3333 44.5372C47.5203 44.6066 47.7213 44.636 47.9218 44.6234C48.6225 44.6234 49.1157 43.901 49.1939 42.7965H46.4184Z" fill="#093F68"/>
<path d="M67.2347 58.9492H28.7619C27.9767 58.9492 27.3401 59.55 27.3401 60.2912V60.9622C27.3401 61.7034 27.9767 62.3043 28.7619 62.3043H67.2347C68.0199 62.3043 68.6565 61.7034 68.6565 60.9622V60.2912C68.6565 59.55 68.0199 58.9492 67.2347 58.9492Z" fill="#725858"/>
<path d="M67.2381 62.6254H28.7619C28.2955 62.6246 27.8484 62.4495 27.5182 62.1385C27.1881 61.8275 27.0018 61.4058 27 60.9655V60.2881C27.0018 59.8478 27.1881 59.4261 27.5182 59.1151C27.8484 58.8041 28.2955 58.629 28.7619 58.6282H67.2381C67.7045 58.629 68.1516 58.8041 68.4818 59.1151C68.8119 59.4261 68.9982 59.8478 69 60.2881V60.9655C68.9982 61.4058 68.8119 61.8275 68.4818 62.1385C68.1516 62.4495 67.7045 62.6246 67.2381 62.6254ZM28.7619 59.2703C28.4756 59.2703 28.201 59.3774 27.9983 59.5682C27.7955 59.759 27.6812 60.0179 27.6803 60.2881V60.9655C27.6812 61.2357 27.7955 61.4946 27.9983 61.6854C28.201 61.8762 28.4756 61.9833 28.7619 61.9833H67.2381C67.5244 61.9833 67.799 61.8762 68.0017 61.6854C68.2045 61.4946 68.3188 61.2357 68.3197 60.9655V60.2881C68.3188 60.0179 68.2045 59.759 68.0017 59.5682C67.799 59.3774 67.5244 59.2703 67.2381 59.2703H28.7619Z" fill="#093F68"/>
<path d="M31.7313 78.6786H64.2687L66.3844 62.3043H29.6156L31.7313 78.6786Z" fill="#725858"/>
<path d="M64.2687 78.9996H31.7313C31.6477 79.0002 31.5669 78.9717 31.5041 78.9196C31.4414 78.8675 31.4012 78.7954 31.3912 78.7171L29.2925 62.3428C29.2867 62.298 29.291 62.2525 29.305 62.2094C29.3191 62.1662 29.3427 62.1264 29.3741 62.0924C29.406 62.0581 29.4453 62.0307 29.4892 62.0119C29.5332 61.993 29.581 61.9833 29.6293 61.9832H66.398C66.4463 61.9833 66.494 61.993 66.538 62.0119C66.5819 62.0307 66.6212 62.0581 66.6531 62.0924C66.6846 62.1264 66.7081 62.1662 66.7222 62.2094C66.7362 62.2525 66.7405 62.298 66.7347 62.3428L64.6224 78.7171C64.6122 78.7976 64.5701 78.8716 64.5044 78.924C64.4388 78.9764 64.3546 79.0034 64.2687 78.9996ZM32.0306 78.3575H63.9864L66.0272 62.6253H30L32.0306 78.3575Z" fill="#093F68"/>
</svg>
