<svg width="96" height="96" viewBox="0 0 96 96" fill="none" xmlns="http://www.w3.org/2000/svg">
<rect width="96" height="96" rx="15" fill="#131C73"/>
<path d="M32.9529 32.2122C32.9529 32.2122 29.6866 34.2836 29.1535 37.8974C28.7852 40.3831 29.1535 52.3379 29.1535 52.3379H33.0304L32.9529 32.2122Z" fill="#334A5E"/>
<path d="M33.9105 45.658L33.4995 68.134L37.0043 68.3925L39.4312 52.3748L42.62 68.9749L46.4717 68.134L43.3508 44.1075L33.9105 45.658Z" fill="#231F20"/>
<path d="M42.62 69.0774C42.6014 69.0774 42.5832 69.0717 42.5676 69.061C42.5459 69.0458 42.5307 69.0223 42.525 68.9954L39.4429 52.949L37.1012 68.4088C37.097 68.434 37.0842 68.4566 37.0653 68.4725C37.0463 68.4884 37.0226 68.4964 36.9985 68.495L33.4937 68.2366C33.4687 68.235 33.4452 68.2232 33.4282 68.2037C33.4113 68.1842 33.4021 68.1585 33.4026 68.132L33.8136 45.656C33.8138 45.632 33.8221 45.6089 33.8371 45.5908C33.852 45.5728 33.8725 45.5609 33.895 45.5575L43.3353 44.007C43.3478 44.0048 43.3606 44.0052 43.3729 44.0084C43.3853 44.0116 43.3969 44.0174 43.407 44.0255C43.4176 44.0337 43.4265 44.0441 43.4332 44.0561C43.4398 44.0681 43.4441 44.0814 43.4458 44.0952L46.5686 68.1197C46.572 68.1457 46.5659 68.1721 46.5515 68.1934C46.5371 68.2148 46.5154 68.2295 46.4911 68.2345L42.6394 69.0754L42.62 69.0774ZM39.4312 52.2722C39.4536 52.2722 39.4752 52.2804 39.4925 52.2953C39.5098 52.3103 39.5217 52.3311 39.5262 52.3543L42.6956 68.8539L46.3631 68.054L43.2616 44.2265L34.0055 45.7483L33.5984 68.0417L36.9229 68.2858L39.3362 52.3604C39.3398 52.3368 39.3511 52.3153 39.3681 52.2996C39.3851 52.2839 39.4067 52.2749 39.4293 52.2743L39.4312 52.2722Z" fill="#231F20"/>
<path d="M74.2246 26.445H51.9129C51.534 26.445 51.2267 26.7701 51.2267 27.1711V41.5849C51.2267 41.9859 51.534 42.3109 51.9129 42.3109H74.2246C74.6036 42.3109 74.9108 41.9859 74.9108 41.5849V27.1711C74.9108 26.7701 74.6036 26.445 74.2246 26.445Z" fill="white"/>
<path d="M74.2246 42.4135H51.911C51.7054 42.4135 51.5081 42.327 51.3627 42.1732C51.2173 42.0193 51.1356 41.8107 51.1356 41.5931V27.169C51.1356 26.9514 51.2173 26.7428 51.3627 26.5889C51.5081 26.4351 51.7054 26.3486 51.911 26.3486H74.2246C74.4302 26.3486 74.6274 26.4351 74.7729 26.5889C74.9183 26.7428 75 26.9514 75 27.169V41.5849C75.001 41.6933 74.9817 41.8009 74.9432 41.9014C74.9047 42.0018 74.8477 42.0932 74.7756 42.1703C74.7035 42.2473 74.6177 42.3085 74.5231 42.3502C74.4285 42.392 74.3271 42.4135 74.2246 42.4135ZM51.911 26.5476C51.7568 26.5476 51.6088 26.6124 51.4998 26.7278C51.3907 26.8432 51.3295 26.9997 51.3295 27.1628V41.5849C51.3295 41.7481 51.3907 41.9046 51.4998 42.02C51.6088 42.1353 51.7568 42.2002 51.911 42.2002H74.2246C74.3788 42.2002 74.5267 42.1353 74.6358 42.02C74.7448 41.9046 74.8061 41.7481 74.8061 41.5849V27.169C74.8061 27.0058 74.7448 26.8493 74.6358 26.7339C74.5267 26.6185 74.3788 26.5537 74.2246 26.5537L51.911 26.5476Z" fill="#D1D3D4"/>
<path d="M73.581 41.2055H52.5565C52.5308 41.2055 52.5061 41.1947 52.488 41.1755C52.4698 41.1562 52.4596 41.1301 52.4596 41.1029V27.651C52.4596 27.6238 52.4698 27.5977 52.488 27.5785C52.5061 27.5592 52.5308 27.5484 52.5565 27.5484H73.581C73.6067 27.5484 73.6314 27.5592 73.6495 27.5785C73.6677 27.5977 73.6779 27.6238 73.6779 27.651V41.1029C73.6779 41.1301 73.6677 41.1562 73.6495 41.1755C73.6314 41.1947 73.6067 41.2055 73.581 41.2055ZM52.6457 41.0004H73.4841V27.7535H52.6573L52.6457 41.0004Z" fill="#D1D3D4"/>
<path d="M59.5757 30.7766L63.1133 34.5092C63.1309 34.5304 63.1527 34.5472 63.1772 34.5582C63.2017 34.5692 63.2283 34.5742 63.2548 34.5728H68.6728C68.6472 35.4622 68.4193 36.332 68.0085 37.1085C67.5977 37.885 67.0161 38.5453 66.313 39.0335C65.6098 39.5217 64.8058 39.8234 63.9691 39.9131C63.1323 40.0028 62.2874 39.8779 61.506 39.5488C60.7246 39.2198 60.0296 38.6963 59.48 38.0228C58.9303 37.3493 58.5422 36.5455 58.3484 35.6796C58.1546 34.8137 58.161 33.9112 58.3668 33.0484C58.5727 32.1856 58.972 31.3881 59.5311 30.7232L59.5757 30.7766Z" fill="#334A5E"/>
<path d="M63.6367 28.8425V34.1749H63.6891L68.572 34.1626C68.6787 34.1626 68.6806 34.1626 68.6728 34.0457C68.6111 33.0306 68.288 32.0527 67.7386 31.218C67.1891 30.3832 66.4343 29.7235 65.5558 29.3101C65.0194 29.0627 64.4485 28.9096 63.8655 28.8569L63.6367 28.8425Z" fill="#D1D3D4"/>
<path d="M63.2645 34.1093V28.8467C62.678 28.8781 62.0997 29.0069 61.5509 29.2282C60.8948 29.5028 60.2961 29.9111 59.7889 30.43L63.2645 34.1093Z" fill="#D1D3D4"/>
<path d="M35.374 27.8192C35.1873 27.0915 35.0461 26.3515 34.9514 25.6042C34.8894 24.8535 34.9844 24.0578 35.3876 23.4364C35.5404 23.1781 35.7703 22.981 36.0409 22.8765C36.2586 22.8448 36.4802 22.8673 36.6883 22.9421C36.8857 22.7889 37.0908 22.6472 37.3028 22.5176C37.7657 22.299 38.2622 22.1712 38.7683 22.1402C39.4816 22.0684 40.3074 22.1074 40.761 22.6939C41.0944 23.1246 41.1235 23.7194 41.1371 24.2834L41.172 25.7088" fill="white"/>
<path d="M35.374 27.9258C35.3512 27.9258 35.329 27.9174 35.3114 27.9021C35.2937 27.8868 35.2816 27.8654 35.2771 27.8417C35.2364 27.6489 35.1918 27.4582 35.1472 27.2675C35.0099 26.725 34.9108 26.1724 34.8506 25.6144C34.8002 24.9991 34.8371 24.0988 35.3062 23.3769C35.4255 23.1214 35.6313 22.9227 35.8827 22.8205C36.1342 22.7183 36.4128 22.7199 36.6631 22.8252C36.8497 22.6773 37.0438 22.5404 37.2446 22.415C37.7188 22.1918 38.227 22.0605 38.745 22.0274C39.7569 21.9228 40.4373 22.1176 40.825 22.6201C41.2127 23.1225 41.2127 23.7768 41.2223 24.2711L41.2592 25.7067C41.2597 25.7346 41.2498 25.7617 41.2317 25.782C41.2136 25.8023 41.1886 25.8143 41.1623 25.8154C41.149 25.8166 41.1356 25.8147 41.1231 25.8101C41.1105 25.8054 41.099 25.798 41.0893 25.7883C41.0796 25.7787 41.0719 25.767 41.0668 25.754C41.0617 25.7409 41.0592 25.7269 41.0595 25.7129L41.0227 24.2772C41.0091 23.6742 40.9723 23.1431 40.6699 22.7534C40.3287 22.3104 39.7007 22.1381 38.7644 22.2386C38.2735 22.2724 37.7923 22.3988 37.3435 22.6119C37.1364 22.7371 36.9358 22.874 36.7426 23.0221C36.7299 23.0319 36.7152 23.0384 36.6997 23.0409C36.6841 23.0434 36.6683 23.0418 36.6534 23.0364C36.467 22.9672 36.2677 22.9454 36.0719 22.9728C35.8241 23.071 35.6136 23.2526 35.4729 23.4897C35.0367 24.1603 35.0038 25.0012 35.0522 25.5898C35.1108 26.1369 35.2087 26.6786 35.3449 27.21C35.3876 27.4028 35.4322 27.5956 35.4729 27.7904C35.476 27.8039 35.4765 27.8179 35.4744 27.8316C35.4722 27.8453 35.4675 27.8584 35.4604 27.8701C35.4533 27.8818 35.4441 27.8919 35.4333 27.8997C35.4224 27.9075 35.4102 27.9129 35.3973 27.9155L35.374 27.9258Z" fill="#231F20"/>
<path d="M43.9207 47.7992C43.1453 43.9393 41.6314 32.3475 41.2863 32.1814C40.447 31.7712 36.0098 31.318 35.0057 33.1248C34.6936 33.6909 35.6047 45.5965 36.006 48.88L43.9207 47.7992Z" fill="#231F20"/>
<path d="M39.5999 33.9678L39.0338 35.3768L40.4024 43.7568L39.4312 45.5042L37.8552 44.2798L38.4077 35.3091L37.0043 33.4715L39.5999 33.9678Z" fill="white"/>
<path d="M39.4312 45.6088C39.4096 45.6092 39.3884 45.602 39.3711 45.5883L37.7952 44.3577C37.7816 44.3472 37.7708 44.3332 37.7637 44.3171C37.7566 44.3009 37.7534 44.2832 37.7544 44.2654L38.3127 35.3419L36.9345 33.5371C36.9231 33.5192 36.9171 33.4981 36.9171 33.4766C36.9171 33.455 36.9231 33.434 36.9345 33.4161C36.9451 33.3976 36.9609 33.383 36.9796 33.3742C36.9983 33.3654 37.019 33.3629 37.0392 33.3669L39.6328 33.8632C39.6477 33.866 39.6618 33.8725 39.6739 33.8821C39.686 33.8917 39.6959 33.9042 39.7026 33.9186C39.7092 33.9326 39.7127 33.948 39.7127 33.9637C39.7127 33.9793 39.7092 33.9948 39.7026 34.0088L39.1482 35.3891L40.5051 43.7404C40.5093 43.7653 40.5044 43.7909 40.4916 43.8122L39.5223 45.5575C39.5153 45.5702 39.5058 45.5812 39.4944 45.5897C39.4831 45.5982 39.4701 45.604 39.4564 45.6067L39.4312 45.6088ZM37.958 44.2285L39.4002 45.3483L40.2977 43.7384L38.9408 35.3932C38.935 35.3745 38.935 35.3544 38.9408 35.3357L39.4584 34.058L37.2524 33.6355L38.4852 35.2517C38.5008 35.2726 38.5084 35.2989 38.5066 35.3255L37.958 44.2285Z" fill="#231F20"/>
<path d="M37.7079 50.2213L36.1572 32.4748L40.4218 32.3168L41.1972 50.2213L45.2524 49.7927C44.6263 43.9476 44.1262 33.1434 43.6028 32.5404C41.6352 30.2844 36.5914 31.0371 36.5914 31.0371C36.5914 31.0371 32.9606 31.2216 31.8092 33.4715C31.5204 34.0355 31.8286 49.1262 31.8693 51.5626L37.7079 50.2213Z" fill="#334A5E"/>
<path d="M32.4489 50.9104C32.4225 50.9104 32.3971 50.8995 32.3783 50.8799C32.3594 50.8604 32.3486 50.8338 32.3481 50.8058C32.3481 50.652 32.3481 35.424 32.3481 35.1943C32.3478 35.1803 32.3502 35.1665 32.3551 35.1536C32.3599 35.1407 32.3671 35.1289 32.3764 35.119C32.3856 35.109 32.3965 35.1011 32.4087 35.0958C32.4208 35.0904 32.4338 35.0876 32.447 35.0876C32.4601 35.0871 32.4732 35.0893 32.4855 35.0942C32.4978 35.0991 32.5091 35.1065 32.5187 35.116C32.5283 35.1256 32.5359 35.1371 32.5413 35.1498C32.5466 35.1625 32.5494 35.1762 32.5497 35.1902V50.8058C32.5497 50.8197 32.5471 50.8335 32.542 50.8463C32.5369 50.8592 32.5294 50.8708 32.5201 50.8805C32.5107 50.8903 32.4995 50.8979 32.4873 50.9031C32.4751 50.9082 32.462 50.9107 32.4489 50.9104Z" fill="#231F20"/>
<path d="M31.8247 51.6693C31.8027 51.6659 31.7823 51.6548 31.7669 51.6378C31.7514 51.6208 31.7417 51.5989 31.7393 51.5755C31.7368 51.552 31.7418 51.5284 31.7534 51.5083C31.765 51.4881 31.7826 51.4726 31.8034 51.4642L37.5373 50.1352L37.4249 46.9789C37.4243 46.951 37.4339 46.9241 37.4515 46.9034C37.4692 46.8828 37.4937 46.8702 37.5199 46.8681C37.5464 46.868 37.5719 46.8786 37.5913 46.8976C37.6107 46.9166 37.6226 46.9427 37.6246 46.9706L37.7486 50.2234C37.7496 50.2483 37.7421 50.2727 37.7275 50.2922C37.7129 50.3118 37.6922 50.3252 37.6692 50.33L31.8538 51.6734L31.8247 51.6693Z" fill="#231F20"/>
<path d="M40.1 30.9817L40.3307 32.5588C40.3307 32.5588 40.0961 34.8559 38.4542 34.4539C36.8124 34.0519 36.163 32.485 36.163 32.485L35.9536 28.3155C35.9536 28.3155 37.1613 27.6182 36.7794 24.8289C38.1251 25.4272 39.5987 25.6291 41.044 25.4134C41.044 25.4134 41.6255 28.2847 41.4433 29.624C41.4143 29.9846 41.2618 30.3216 41.0144 30.5716C40.767 30.8217 40.4418 30.9675 40.1 30.9817Z" fill="white"/>
<path d="M38.8245 34.5954C38.6939 34.5942 38.5639 34.5777 38.4368 34.5462C37.9272 34.4102 37.4518 34.1583 37.0436 33.808C36.6355 33.4577 36.3046 33.0174 36.0738 32.5178C36.072 32.5056 36.072 32.4931 36.0738 32.4809L35.8528 28.3155C35.852 28.2955 35.8564 28.2757 35.8657 28.2583C35.8749 28.2409 35.8886 28.2266 35.9052 28.217C35.9168 28.217 37.045 27.5095 36.6805 24.8433C36.6777 24.8242 36.68 24.8046 36.6872 24.7868C36.6944 24.769 36.7062 24.7538 36.7213 24.7428C36.736 24.7316 36.7533 24.7248 36.7713 24.723C36.7894 24.7212 36.8075 24.7245 36.824 24.7325C38.1519 25.3151 39.6027 25.512 41.0266 25.3027C41.0516 25.2994 41.0768 25.3059 41.0975 25.3211C41.1183 25.3362 41.133 25.3588 41.139 25.3847C41.1623 25.5037 41.7205 28.2868 41.5383 29.6342C41.508 29.9977 41.3602 30.339 41.1197 30.6005C40.8792 30.8621 40.5608 31.0278 40.2182 31.0699L40.4315 32.5363C40.4334 32.5457 40.4334 32.5555 40.4315 32.565C40.4315 32.6142 40.2958 33.814 39.5824 34.3493C39.3613 34.5152 39.0955 34.6015 38.8245 34.5954ZM36.2618 32.4501C36.3374 32.6163 36.9965 33.976 38.4775 34.3411C38.6439 34.391 38.8186 34.4018 38.9894 34.3727C39.1602 34.3437 39.3229 34.2755 39.4661 34.1729C40.069 33.7196 40.2144 32.6798 40.2299 32.5506L40.0011 30.9817C39.9993 30.9667 40.0004 30.9515 40.0044 30.937C40.0084 30.9226 40.0152 30.9091 40.0244 30.8976C40.0339 30.8862 40.0455 30.877 40.0585 30.8707C40.0715 30.8643 40.0856 30.8609 40.1 30.8607C40.4167 30.8476 40.7178 30.7119 40.9462 30.4794C41.1745 30.2468 41.3142 29.9337 41.3387 29.5994C41.4995 28.4262 41.0576 26.0287 40.951 25.5221C39.5779 25.6988 38.1848 25.5164 36.8938 24.9909C37.169 27.3639 36.2851 28.1822 36.0486 28.3565L36.2618 32.4501Z" fill="#231F20"/>
<path d="M39.2587 27.0849C39.2587 27.0849 40.0341 28.5965 39.8034 28.8241C39.5727 29.0518 38.9815 28.8241 38.9815 28.8241" fill="white"/>
<path d="M39.4758 29.0312C39.2959 29.026 39.118 28.9907 38.9485 28.9266C38.9244 28.9174 38.9047 28.8983 38.8938 28.8737C38.8829 28.8491 38.8817 28.8209 38.8904 28.7954C38.8945 28.7825 38.901 28.7707 38.9095 28.7606C38.9181 28.7505 38.9284 28.7424 38.94 28.7366C38.9516 28.7309 38.9642 28.7277 38.977 28.7272C38.9898 28.7267 39.0025 28.729 39.0144 28.7338C39.1521 28.7851 39.5805 28.9 39.7375 28.7502C39.8305 28.6579 39.5611 27.8868 39.1753 27.1362C39.1689 27.1244 39.1648 27.1114 39.1633 27.0979C39.1618 27.0844 39.1629 27.0707 39.1665 27.0577C39.1701 27.0446 39.1762 27.0325 39.1844 27.022C39.1926 27.0115 39.2027 27.0029 39.2141 26.9967C39.2252 26.9903 39.2373 26.9862 39.2498 26.9848C39.2624 26.9833 39.2751 26.9846 39.2872 26.9884C39.2993 26.9922 39.3105 26.9985 39.3203 27.007C39.33 27.0155 39.3381 27.0259 39.344 27.0377C39.5902 27.5135 40.131 28.6477 39.8674 28.902C39.756 28.994 39.6168 29.0399 39.4758 29.0312Z" fill="#231F20"/>
<path d="M37.8752 27.2076C37.964 27.2036 38.029 27.0261 38.0205 26.8111C38.0119 26.5961 37.933 26.425 37.8442 26.4289C37.7555 26.4329 37.6904 26.6104 37.699 26.8254C37.7075 27.0404 37.7864 27.2115 37.8752 27.2076Z" fill="#231F20"/>
<path d="M40.4491 27.2079C40.5379 27.2039 40.603 27.0264 40.5944 26.8114C40.5859 26.5964 40.507 26.4253 40.4182 26.4292C40.3294 26.4332 40.2644 26.6107 40.2729 26.8257C40.2815 27.0407 40.3604 27.2118 40.4491 27.2079Z" fill="#231F20"/>
<path d="M37.0043 27.5874C36.8599 27.3255 36.669 27.0957 36.4421 26.9106C36.3241 26.8015 36.1773 26.7335 36.0215 26.7158C35.8936 26.7164 35.7686 26.7556 35.6609 26.8286C35.4992 26.9285 35.3593 27.0635 35.2504 27.2246C35.1415 27.3858 35.066 27.5696 35.029 27.7638C34.9936 27.9439 35.0003 28.1305 35.0484 28.3073C35.141 28.5812 35.3223 28.8115 35.5601 28.9574C35.7955 29.1018 36.0459 29.2168 36.3064 29.2999" fill="white"/>
<path d="M36.3064 29.4045C36.2955 29.4065 36.2844 29.4065 36.2735 29.4045C36.0029 29.3192 35.7427 29.2009 35.4981 29.0517C35.2411 28.8918 35.0456 28.6413 34.9456 28.3442C34.8907 28.1504 34.8833 27.945 34.9243 27.7473C34.9641 27.5385 35.0451 27.3408 35.162 27.1673C35.2789 26.9938 35.4291 26.8483 35.6028 26.7403C35.7269 26.6572 35.8707 26.6132 36.0176 26.6132C36.1936 26.6333 36.3598 26.709 36.4944 26.8306C36.7291 27.0251 36.9265 27.2653 37.076 27.5382C37.0869 27.5622 37.0889 27.5896 37.0816 27.6151C37.0744 27.6406 37.0583 27.6623 37.0367 27.676C37.0151 27.6896 36.9894 27.6942 36.9647 27.6888C36.9401 27.6834 36.9182 27.6684 36.9035 27.6469C36.7679 27.3958 36.5883 27.1744 36.3743 26.9947C36.272 26.9005 36.146 26.84 36.0118 26.8203C35.9031 26.8228 35.7971 26.8569 35.7055 26.9188C35.5567 27.0119 35.428 27.1371 35.3279 27.2862C35.2277 27.4353 35.1582 27.605 35.124 27.7843C35.0908 27.9472 35.0961 28.1163 35.1395 28.2765C35.2258 28.5258 35.3917 28.7354 35.6086 28.8692C35.8381 29.0084 36.082 29.1191 36.3355 29.1994C36.3606 29.2087 36.3813 29.2282 36.3929 29.2535C36.4045 29.2789 36.4062 29.3081 36.3975 29.3348C36.3904 29.3545 36.378 29.3716 36.3618 29.384C36.3456 29.3964 36.3264 29.4035 36.3064 29.4045Z" fill="#231F20"/>
<path d="M40.1 30.9817C39.1553 31.1328 38.1896 30.961 37.3435 30.4915C37.3435 30.4915 38.745 32.7721 40.3113 32.4501L40.1 30.9817Z" fill="#231F20"/>
<path d="M40.0069 32.5855C38.5376 32.5855 37.3222 30.6351 37.2679 30.5469C37.2549 30.5289 37.2478 30.5069 37.2478 30.4843C37.2478 30.4617 37.2549 30.4397 37.2679 30.4218C37.2824 30.4052 37.3016 30.3941 37.3225 30.3901C37.3435 30.386 37.3651 30.3892 37.3842 30.3992C38.2119 30.8495 39.1521 31.0144 40.0728 30.8709C40.0989 30.8654 40.1259 30.8705 40.1484 30.8853C40.1593 30.8934 40.1685 30.9038 40.1755 30.9157C40.1825 30.9277 40.1872 30.9411 40.1892 30.955L40.4043 32.4358C40.4083 32.4618 40.4023 32.4885 40.3878 32.51C40.3733 32.5315 40.3514 32.5461 40.3268 32.5506C40.2216 32.5737 40.1144 32.5854 40.0069 32.5855ZM37.6478 30.7396C38.0801 31.3262 39.1056 32.5096 40.2066 32.3578L40.0128 31.0822C39.2104 31.193 38.3946 31.0777 37.6478 30.7479V30.7396Z" fill="#231F20"/>
<path d="M39.3324 30.1777C39.4801 30.1777 39.5999 29.9812 39.5999 29.7388C39.5999 29.4964 39.4801 29.2999 39.3324 29.2999C39.1846 29.2999 39.0648 29.4964 39.0648 29.7388C39.0648 29.9812 39.1846 30.1777 39.3324 30.1777Z" fill="#231F20"/>
<path d="M38.02 28.1924C37.762 28.1924 37.5098 28.1115 37.2952 27.9598C37.0807 27.8081 36.9135 27.5926 36.8147 27.3404C36.716 27.0881 36.6902 26.8106 36.7405 26.5429C36.7908 26.2751 36.9151 26.0292 37.0975 25.8362C37.28 25.6431 37.5124 25.5117 37.7655 25.4584C38.0186 25.4051 38.2809 25.4325 38.5193 25.537C38.7576 25.6414 38.9614 25.8183 39.1047 26.0453C39.2481 26.2723 39.3246 26.5392 39.3246 26.8122C39.3241 27.1781 39.1865 27.5288 38.9419 27.7875C38.6974 28.0463 38.3659 28.1919 38.02 28.1924ZM38.02 25.6431C37.8015 25.6431 37.5879 25.7117 37.4062 25.8401C37.2245 25.9686 37.0828 26.1512 36.9992 26.3648C36.9156 26.5784 36.8937 26.8134 36.9363 27.0402C36.979 27.267 37.0842 27.4753 37.2387 27.6388C37.3932 27.8023 37.5901 27.9136 37.8045 27.9587C38.0188 28.0038 38.241 27.9807 38.4429 27.8922C38.6447 27.8037 38.8173 27.6539 38.9387 27.4616C39.0601 27.2694 39.1249 27.0434 39.1249 26.8122C39.1229 26.5033 39.0056 26.2079 38.7987 25.9901C38.5918 25.7723 38.3119 25.6498 38.02 25.6493V25.6431Z" fill="#231F20"/>
<path d="M40.6195 28.1924C40.3615 28.1924 40.1092 28.1115 39.8947 27.9598C39.6802 27.8081 39.513 27.5926 39.4142 27.3404C39.3155 27.0881 39.2896 26.8106 39.34 26.5429C39.3903 26.2751 39.5146 26.0292 39.697 25.8362C39.8795 25.6431 40.1119 25.5117 40.365 25.4584C40.618 25.4051 40.8803 25.4325 41.1187 25.537C41.3571 25.6414 41.5609 25.8183 41.7042 26.0453C41.8476 26.2723 41.9241 26.5392 41.9241 26.8122C41.9236 27.1781 41.7859 27.5288 41.5414 27.7875C41.2969 28.0463 40.9653 28.1919 40.6195 28.1924ZM40.6195 25.6431C40.401 25.6431 40.1873 25.7117 40.0056 25.8401C39.8239 25.9686 39.6823 26.1512 39.5987 26.3648C39.515 26.5784 39.4932 26.8134 39.5358 27.0402C39.5784 27.267 39.6837 27.4753 39.8382 27.6388C39.9927 27.8023 40.1896 27.9136 40.4039 27.9587C40.6183 28.0038 40.8404 27.9807 41.0423 27.8922C41.2442 27.8037 41.4168 27.6539 41.5382 27.4616C41.6596 27.2694 41.7244 27.0434 41.7244 26.8122C41.7229 26.5032 41.6058 26.2074 41.3987 25.9895C41.1917 25.7716 40.9115 25.6493 40.6195 25.6493V25.6431Z" fill="#231F20"/>
<path d="M53.611 34.9174C53.5955 34.7246 54.4969 34.1442 54.6423 33.9822C55.1592 33.3956 55.6813 32.8077 56.2086 32.2184C56.3475 32.0205 56.5491 31.8821 56.7765 31.8287C56.8185 31.8219 56.8614 31.8298 56.8986 31.8513C57.0072 31.9189 56.9646 32.0933 56.8986 32.2122C56.6702 32.6806 56.4111 33.1316 56.1233 33.5617C56.8986 32.9957 57.685 32.4535 58.4824 31.9353C58.6064 31.8554 58.7634 31.7733 58.8914 31.8492C58.9301 31.8782 58.9628 31.9151 58.9878 31.9577C59.0128 32.0003 59.0294 32.0478 59.0368 32.0974C59.1028 32.516 59.0273 32.9459 58.8235 33.3115C58.2594 34.4908 57.2456 35.3255 56.226 36.0392C55.7317 36.3838 55.3072 36.7796 54.8284 37.1488C54.7334 37.2226 53.8495 37.7805 53.8591 37.8974L53.611 34.9174Z" fill="white"/>
<path d="M53.8688 38.004C53.8442 38.0032 53.8206 37.993 53.8024 37.9753C53.7843 37.9576 53.7728 37.9335 53.77 37.9076L53.7215 37.3395C53.6459 36.476 53.5122 34.9317 53.5122 34.9256C53.4986 34.7533 53.737 34.5523 54.2468 34.1667C54.3585 34.087 54.466 34.0007 54.5686 33.9083L55.6018 32.7454L56.1465 32.1445C56.3038 31.9329 56.5271 31.7875 56.7765 31.7343C56.843 31.7221 56.9114 31.7344 56.9704 31.7692C57.1061 31.8553 57.1235 32.0481 57.0149 32.2696C56.8657 32.5773 56.7009 32.8849 56.5265 33.172C57.1603 32.7167 57.8078 32.2758 58.4649 31.8553C58.5347 31.7937 58.6188 31.753 58.7084 31.7375C58.7981 31.722 58.8901 31.7322 58.9747 31.7671C59.026 31.8026 59.0698 31.849 59.1032 31.9034C59.1366 31.9578 59.1588 32.019 59.1686 32.083C59.2558 32.4542 59.1821 32.8746 58.9476 33.3689C58.3661 34.5995 57.2883 35.4567 56.3152 36.1376C56.0205 36.3427 55.7336 36.5745 55.4739 36.798C55.2936 36.9478 55.1133 37.0975 54.9234 37.2451L54.7586 37.3579C54.4852 37.5242 54.2258 37.715 53.9832 37.9281C53.9786 37.9512 53.9671 37.9721 53.9503 37.9876C53.9335 38.0032 53.9124 38.0125 53.8902 38.0142L53.8688 38.004ZM53.7118 34.9153C53.7215 35.0281 53.8495 36.4925 53.9212 37.321C53.9328 37.4646 53.9425 37.5712 53.9483 37.6533C54.0743 37.5487 54.2817 37.399 54.6248 37.1693C54.7024 37.118 54.7586 37.079 54.7799 37.0626C54.9738 36.917 55.1463 36.7693 55.3266 36.6196C55.5979 36.3961 55.8771 36.1623 56.1814 35.951C57.1313 35.2845 58.178 34.4456 58.7441 33.2623C58.9386 32.9209 59.0115 32.5172 58.9495 32.124C58.9456 32.0881 58.9348 32.0534 58.9178 32.022C58.9008 31.9906 58.878 31.9632 58.8507 31.9415C58.7693 31.8922 58.6433 31.9599 58.5425 32.0256C57.7477 32.5383 56.9568 33.0859 56.1911 33.6478C56.172 33.6627 56.1485 33.6696 56.1249 33.6673C56.1014 33.6651 56.0794 33.6537 56.0632 33.6355C56.0463 33.6181 56.0359 33.5949 56.0337 33.5701C56.0316 33.5453 56.0379 33.5205 56.0515 33.5002C56.3392 33.0741 56.5983 32.6273 56.8269 32.163C56.8773 32.0625 56.889 31.9579 56.856 31.9415C56.8358 31.9346 56.8141 31.9346 56.794 31.9415C56.592 31.9927 56.414 32.1185 56.2919 32.2963L55.7569 32.8992L54.714 34.058C54.6033 34.1614 54.4861 34.2567 54.3631 34.3431C54.1635 34.4928 53.7467 34.8066 53.7118 34.9153Z" fill="#231F20"/>
<path d="M72.2357 37.9999H69.0411C69.0154 37.9999 68.9908 37.9891 68.9726 37.9699C68.9544 37.9507 68.9442 37.9246 68.9442 37.8974C68.9442 37.8702 68.9544 37.8441 68.9726 37.8249C68.9908 37.8056 69.0154 37.7948 69.0411 37.7948H72.2357C72.2614 37.7948 72.2861 37.8056 72.3042 37.8249C72.3224 37.8441 72.3326 37.8702 72.3326 37.8974C72.3326 37.9246 72.3224 37.9507 72.3042 37.9699C72.2861 37.9891 72.2614 37.9999 72.2357 37.9999Z" fill="#D1D3D4"/>
<path d="M72.2357 38.6788H69.0411C69.0154 38.6788 68.9908 38.668 68.9726 38.6487C68.9544 38.6295 68.9442 38.6034 68.9442 38.5762C68.9447 38.5492 68.9551 38.5234 68.9732 38.5043C68.9912 38.4852 69.0156 38.4742 69.0411 38.4737H72.2357C72.2614 38.4737 72.2861 38.4845 72.3042 38.5037C72.3224 38.5229 72.3326 38.549 72.3326 38.5762C72.3326 38.6034 72.3224 38.6295 72.3042 38.6487C72.2861 38.668 72.2614 38.6788 72.2357 38.6788Z" fill="#D1D3D4"/>
<path d="M71.2665 39.3597H69.0411C69.0156 39.3591 68.9912 39.3482 68.9732 39.329C68.9551 39.3099 68.9447 39.2841 68.9442 39.2571C68.9442 39.2299 68.9544 39.2038 68.9726 39.1846C68.9908 39.1654 69.0154 39.1546 69.0411 39.1546H71.2665C71.2922 39.1546 71.3168 39.1654 71.335 39.1846C71.3532 39.2038 71.3634 39.2299 71.3634 39.2571C71.3634 39.2843 71.3532 39.3104 71.335 39.3296C71.3168 39.3489 71.2922 39.3597 71.2665 39.3597Z" fill="#D1D3D4"/>
<path d="M57.4589 29.1625H54.274C54.2484 29.162 54.2241 29.151 54.206 29.1319C54.1879 29.1128 54.1775 29.087 54.177 29.0599C54.177 29.0327 54.1873 29.0067 54.2054 28.9874C54.2236 28.9682 54.2483 28.9574 54.274 28.9574H57.4589C57.4846 28.9574 57.5092 28.9682 57.5274 28.9874C57.5456 29.0067 57.5558 29.0327 57.5558 29.0599C57.5558 29.0871 57.5456 29.1132 57.5274 29.1325C57.5092 29.1517 57.4846 29.1625 57.4589 29.1625Z" fill="#D1D3D4"/>
<path d="M57.4589 29.8414H54.274C54.2483 29.8414 54.2236 29.8305 54.2054 29.8113C54.1873 29.7921 54.177 29.766 54.177 29.7388C54.177 29.7116 54.1873 29.6855 54.2054 29.6663C54.2236 29.6471 54.2483 29.6363 54.274 29.6363H57.4589C57.4846 29.6363 57.5092 29.6471 57.5274 29.6663C57.5456 29.6855 57.5558 29.7116 57.5558 29.7388C57.5558 29.766 57.5456 29.7921 57.5274 29.8113C57.5092 29.8305 57.4846 29.8414 57.4589 29.8414Z" fill="#D1D3D4"/>
<path d="M56.5071 30.5202H54.274C54.2483 30.5202 54.2236 30.5094 54.2054 30.4902C54.1873 30.471 54.177 30.4449 54.177 30.4177C54.1775 30.3906 54.1879 30.3649 54.206 30.3457C54.2241 30.3266 54.2484 30.3156 54.274 30.3151H56.5071C56.5328 30.3151 56.5574 30.3259 56.5756 30.3452C56.5938 30.3644 56.604 30.3905 56.604 30.4177C56.604 30.4449 56.5938 30.471 56.5756 30.4902C56.5574 30.5094 56.5328 30.5202 56.5071 30.5202Z" fill="#D1D3D4"/>
<path d="M66.4029 55.5065C66.62 54.0709 68.8589 53.7263 68.7484 55.4101C68.7308 55.9943 68.5194 56.5534 68.1514 56.9893C67.9639 57.2017 67.721 57.3504 67.4536 57.4165C67.1861 57.4826 66.9061 57.4631 66.6491 57.3605" fill="white"/>
<path d="M67.1163 57.5677C66.9414 57.5695 66.7683 57.5317 66.6084 57.457C66.5964 57.4513 66.5856 57.4432 66.5766 57.4332C66.5676 57.4231 66.5606 57.4113 66.5559 57.3983C66.5512 57.3853 66.549 57.3716 66.5493 57.3577C66.5497 57.3438 66.5526 57.3302 66.558 57.3175C66.5633 57.3049 66.571 57.2934 66.5805 57.2839C66.59 57.2744 66.6012 57.2669 66.6134 57.262C66.6257 57.257 66.6387 57.2547 66.6518 57.2551C66.6649 57.2554 66.6778 57.2585 66.6898 57.2642C66.9279 57.3595 67.1875 57.3772 67.4352 57.315C67.6829 57.2529 67.9073 57.1138 68.0797 56.9155C68.4305 56.4969 68.6315 55.9613 68.6476 55.402C68.7019 54.5816 68.1747 54.4257 67.9459 54.3991C67.6167 54.3659 67.2875 54.4621 67.0211 54.6694C66.7547 54.8767 66.5698 55.1806 66.5018 55.523C66.4999 55.5367 66.4954 55.5499 66.4886 55.5618C66.4818 55.5736 66.4727 55.5839 66.462 55.592C66.4513 55.6 66.4392 55.6057 66.4264 55.6086C66.4135 55.6116 66.4003 55.6118 66.3874 55.6091C66.3613 55.6046 66.3379 55.5893 66.3223 55.5667C66.3067 55.544 66.3001 55.5158 66.304 55.4881C66.3784 55.0907 66.5903 54.7371 66.8984 54.4965C67.2065 54.2559 67.5884 54.1459 67.9692 54.1878C68.4286 54.2432 68.9016 54.598 68.8473 55.4184C68.827 56.0257 68.6061 56.6062 68.2231 57.0591C67.9323 57.3769 67.5343 57.5598 67.1163 57.5677Z" fill="#231F20"/>
<path d="M60.824 55.5065C60.6069 54.0709 58.368 53.7263 58.4785 55.4101C58.4961 55.9943 58.7075 56.5534 59.0755 56.9893C59.263 57.2017 59.5059 57.3504 59.7734 57.4165C60.0408 57.4826 60.3208 57.4631 60.5778 57.3605" fill="white"/>
<path d="M60.1107 57.5677C59.6932 57.5609 59.2953 57.3795 59.0038 57.0632C58.6208 56.6103 58.4 56.0298 58.3796 55.4225C58.3254 54.6021 58.7964 54.2493 59.2578 54.1919C59.6385 54.1504 60.0202 54.2607 60.3281 54.5012C60.6361 54.7417 60.8482 55.095 60.9229 55.4922C60.9268 55.5199 60.9203 55.5481 60.9047 55.5708C60.8891 55.5934 60.8657 55.6087 60.8395 55.6132C60.8266 55.6158 60.8134 55.6157 60.8006 55.6127C60.7877 55.6098 60.7756 55.6041 60.7649 55.5961C60.7542 55.588 60.7452 55.5777 60.7383 55.5659C60.7315 55.554 60.727 55.5408 60.7252 55.5271C60.6571 55.1843 60.4719 54.8801 60.2051 54.6728C59.9383 54.4654 59.6086 54.3694 59.2791 54.4032C59.0503 54.4298 58.5231 54.5836 58.5774 55.4061C58.594 55.965 58.7957 56.5 59.1473 56.9176C59.3192 57.1164 59.5436 57.2561 59.7913 57.3186C60.0391 57.3811 60.2989 57.3636 60.5371 57.2683C60.5613 57.2569 60.5888 57.2561 60.6135 57.2661C60.6382 57.2761 60.6582 57.296 60.6689 57.3216C60.6797 57.3472 60.6805 57.3762 60.671 57.4024C60.6616 57.4285 60.6427 57.4497 60.6186 57.4611C60.4583 57.5344 60.2852 57.5707 60.1107 57.5677Z" fill="#231F20"/>
<path d="M67.2675 55.6111L66.8798 51.4149C66.8798 51.4149 65.8039 50.0162 63.6076 50.0162C61.4114 50.0162 60.3355 51.4149 60.3355 51.4149L60.1708 55.1209C60.1708 56.9483 60.6147 58.0455 61.2873 58.671L61.1148 62.6375C61.1148 62.6375 61.7215 64.0342 63.4894 64.0342C63.9824 64.0487 64.4706 63.9276 64.9061 63.6828C65.3417 63.438 65.7098 63.0778 65.9745 62.6375L65.8194 59.0464C66.5095 58.6198 67.0135 57.6805 67.2675 55.6111Z" fill="white"/>
<path d="M63.6135 50.0162C65.8097 50.0162 66.8856 51.4149 66.8856 51.4149L67.2733 55.6111C67.0193 57.6805 66.5153 58.6198 65.831 59.0464L65.9861 62.6376C65.7214 63.0779 65.3533 63.438 64.9178 63.6828C64.4822 63.9276 63.994 64.0487 63.501 64.0342C61.7332 64.0342 61.1264 62.6376 61.1264 62.6376L61.2989 58.6711C60.6263 58.0558 60.1824 56.9483 60.1824 55.1209L60.3472 51.4149C60.3472 51.4149 61.4211 50.0162 63.6193 50.0162M63.6193 49.8111C61.3532 49.8111 60.2386 51.2304 60.1921 51.2898C60.1644 51.3251 60.1487 51.3691 60.1475 51.4149L59.9827 55.1189C59.9827 56.8047 60.3568 58.0291 61.0935 58.7675L60.9268 62.6376C60.9264 62.6708 60.933 62.7037 60.9461 62.734C60.9733 62.7975 61.6265 64.2537 63.501 64.2537C64.03 64.2706 64.5539 64.1404 65.0206 63.8763C65.4872 63.6122 65.8803 63.2233 66.1606 62.7483C66.1785 62.7138 66.1872 62.6748 66.1858 62.6355L66.0326 59.1592C66.7925 58.6178 67.2364 57.5185 67.4671 55.6378C67.4681 55.6221 67.4681 55.6063 67.4671 55.5906L67.0794 51.3965C67.0761 51.3542 67.0606 51.3141 67.0348 51.2816C66.9883 51.2222 65.8718 49.8029 63.6076 49.8029L63.6193 49.8111Z" fill="#231F20"/>
<path d="M71.7181 64.7192C69.5335 61.528 65.7903 61.245 63.5514 61.245C61.3125 61.245 57.5694 61.528 55.3847 64.7192C53.2001 67.9105 53.3028 73.8951 53.3028 73.8951H73.7981C73.7981 73.8951 73.9028 67.9105 71.7181 64.7192Z" fill="#231F20"/>
<path d="M73.7981 73.9976H53.3028C53.2776 73.9971 53.2535 73.9864 53.2355 73.9677C53.2175 73.949 53.2069 73.9238 53.2059 73.8971C53.2059 73.8356 53.1264 67.8407 55.3052 64.668C57.7128 61.1506 62.1073 61.1506 63.5514 61.1506C69.3881 61.1506 71.2006 63.7984 71.7957 64.668C73.9745 67.8489 73.897 73.8438 73.895 73.8971C73.8945 73.9239 73.8841 73.9495 73.866 73.9683C73.8478 73.9871 73.8235 73.9976 73.7981 73.9976ZM53.3997 73.7925H73.7012C73.7012 72.9947 73.6256 67.6808 71.6387 64.7685C69.5335 61.6921 66.0172 61.3373 63.5514 61.3373C61.0857 61.3373 57.5694 61.6921 55.4623 64.7685C53.4753 67.6808 53.3997 72.9947 53.3997 73.7925Z" fill="#231F20"/>
<path d="M56.8269 72.1497C56.8023 72.1499 56.7785 72.1403 56.7602 72.1228C56.7419 72.1054 56.7305 72.0813 56.7281 72.0554L56.0554 65.1233C56.059 65.1001 56.0697 65.0788 56.0859 65.0627C56.102 65.0466 56.1228 65.0366 56.1449 65.0342C56.167 65.0319 56.1892 65.0373 56.2081 65.0497C56.227 65.0621 56.2414 65.0808 56.2493 65.1028L56.9219 72.0328C56.9246 72.0608 56.9168 72.0888 56.9001 72.1107C56.8834 72.1326 56.8592 72.1466 56.8327 72.1497H56.8269Z" fill="white"/>
<path d="M69.3377 73.9996H69.328C69.3019 73.9956 69.2784 73.9808 69.2624 73.9586C69.2465 73.9363 69.2394 73.9084 69.2427 73.8807L70.0472 67.5556C70.0489 67.5419 70.0531 67.5286 70.0597 67.5165C70.0663 67.5045 70.075 67.494 70.0855 67.4856C70.096 67.4772 70.1079 67.471 70.1207 67.4676C70.1334 67.4641 70.1466 67.4634 70.1596 67.4654C70.1857 67.4695 70.2093 67.4842 70.2252 67.5065C70.2412 67.5287 70.2483 67.5567 70.2449 67.5844L69.4405 73.9094C69.4371 73.9353 69.4247 73.9589 69.4057 73.9756C69.3867 73.9923 69.3624 74.0009 69.3377 73.9996Z" fill="white"/>
<path d="M59.6493 61.6695C59.6493 61.6695 59.7133 60.8266 60.0603 60.5928C60.4073 60.359 65.9745 59.9775 66.622 60.5928C67.0185 61.0044 67.2497 61.562 67.2675 62.1494C67.2675 62.1494 60.8202 61.5239 59.6493 61.6695Z" fill="#334A5E"/>
<path d="M68.0894 61.9689H68.0603C63.2374 60.4 59.2074 61.9505 59.1666 61.9689C59.1409 61.9787 59.1126 61.9773 59.0879 61.965C59.0632 61.9527 59.0441 61.9305 59.0348 61.9033C59.0256 61.8761 59.0269 61.8461 59.0385 61.82C59.0502 61.7938 59.0712 61.7736 59.0969 61.7639C59.1376 61.7474 63.2297 60.1703 68.1184 61.7639C68.1415 61.7709 68.1613 61.7865 68.1743 61.8079C68.1872 61.8292 68.1924 61.8548 68.1888 61.8799C68.1853 61.905 68.1732 61.9278 68.1549 61.9442C68.1366 61.9606 68.1133 61.9694 68.0894 61.9689Z" fill="#231F20"/>
<path d="M58.7169 56.13C58.6588 56.372 58.6006 56.616 58.5405 56.8581C58.2362 58.0886 57.9008 59.3192 57.8853 60.5805C57.8698 61.8418 58.2149 63.1749 59.0833 64.0445C59.8703 64.832 60.9694 65.1458 62.0317 65.3755C63.125 65.6114 64.2551 65.7857 65.3581 65.5991C66.4611 65.4124 67.5466 64.8013 68.1068 63.7778C68.6883 62.7175 68.6263 61.3967 68.3995 60.1928C68.1126 58.667 67.659 57.1882 67.6551 55.6316C67.6551 53.9457 67.7211 52.2271 67.2675 50.5904C67.06 49.8419 66.7169 49.0912 66.1044 48.6564C65.4918 48.2216 64.5536 48.2237 64.0961 48.8308C64.2318 48.6544 62.7392 48.2565 62.5977 48.2565C62.219 48.2436 61.8458 48.3554 61.5296 48.5764C60.4421 49.2635 59.9362 50.0921 59.7036 51.3944C59.4206 52.9846 59.0917 54.5631 58.7169 56.13Z" fill="white"/>
<path d="M64.3753 65.7857C63.5792 65.767 62.787 65.6639 62.0104 65.4781C60.9248 65.2422 59.8083 64.9161 59.0154 64.1204C58.2226 63.3246 57.7671 62.0284 57.7845 60.5784C57.8 59.3992 58.0908 58.2384 58.3661 57.1144L58.4378 56.8314C58.4979 56.5894 58.556 56.3474 58.6142 56.1033C58.9864 54.5467 59.3198 52.9552 59.6028 51.3739C59.847 50.008 60.3898 49.1712 61.4773 48.4862C61.8093 48.2553 62.2005 48.1378 62.5977 48.1499C62.6559 48.1499 63.786 48.4042 64.1116 48.6544C64.6408 48.1027 65.5694 48.1519 66.1567 48.5683C66.7014 48.9559 67.0949 49.6081 67.3586 50.5618C67.7579 51.9974 67.7462 53.5212 67.7462 54.9876V55.6316C67.7462 56.7453 67.9905 57.8487 68.225 58.9131C68.3162 59.3233 68.4092 59.7499 68.4887 60.1724C68.7794 61.727 68.6825 62.9247 68.1843 63.8312C67.659 64.791 66.6045 65.4904 65.3639 65.7037C65.037 65.759 64.7064 65.7864 64.3753 65.7857ZM58.8138 56.1567C58.7557 56.3987 58.6975 56.6427 58.6355 56.8847L58.5657 57.1698C58.2866 58.2794 57.9997 59.4258 57.9842 60.5805C57.9667 61.9731 58.3913 63.2077 59.1473 63.9666C59.9033 64.7254 60.9888 65.0412 62.0549 65.2709C63.1211 65.5006 64.2415 65.6811 65.3503 65.4945C66.5328 65.2894 67.535 64.629 68.0293 63.7246C68.5022 62.8652 68.5934 61.7167 68.3123 60.2134C68.2328 59.7929 68.1398 59.3705 68.0486 58.9603C67.8122 57.8835 67.5679 56.7719 67.564 55.6316C67.564 55.4265 67.564 55.203 67.564 54.9856C67.564 53.5356 67.564 52.0343 67.1763 50.6212C66.9263 49.7168 66.5599 49.1015 66.0559 48.7447C65.5054 48.3529 64.6215 48.3222 64.1834 48.8964C64.1697 48.9139 64.1512 48.9264 64.1305 48.932C64.1097 48.9376 64.0878 48.9361 64.0679 48.9276C64.048 48.9191 64.0312 48.9042 64.0199 48.885C64.0086 48.8657 64.0034 48.8431 64.005 48.8205C63.8306 48.6688 62.7412 48.3673 62.6035 48.3611C62.2439 48.35 61.8898 48.4567 61.5897 48.6667C60.5584 49.3189 60.0389 50.1147 59.8083 51.4149C59.5253 52.9983 59.1918 54.5939 58.8177 56.1567H58.8138Z" fill="#231F20"/>
<path d="M34.1993 55.5065C34.4164 54.0709 36.6553 53.7263 36.5449 55.4101C36.5272 55.9943 36.3159 56.5534 35.9478 56.9893C35.7603 57.2017 35.5175 57.3504 35.25 57.4165C34.9825 57.4826 34.7025 57.4631 34.4455 57.3605" fill="white"/>
<path d="M34.9127 57.5677C34.7379 57.5694 34.5647 57.5317 34.4048 57.457C34.3808 57.4453 34.3621 57.4242 34.3527 57.3981C34.3433 57.372 34.3439 57.3431 34.3544 57.3175C34.3596 57.3048 34.3672 57.2932 34.3767 57.2836C34.3862 57.274 34.3975 57.2665 34.4097 57.2616C34.422 57.2566 34.4351 57.2543 34.4482 57.2547C34.4614 57.2552 34.4743 57.2584 34.4862 57.2642C34.7243 57.3594 34.9839 57.3771 35.2316 57.315C35.4793 57.2529 35.7037 57.1137 35.8761 56.9155C36.2274 56.4969 36.429 55.9614 36.446 55.4019C36.5003 54.5816 35.973 54.4257 35.7443 54.399C35.4148 54.3653 35.0851 54.4613 34.8183 54.6687C34.5515 54.876 34.3663 55.1802 34.2982 55.5229C34.2973 55.5376 34.2935 55.5519 34.2871 55.5649C34.2807 55.5778 34.2717 55.5893 34.2609 55.5984C34.25 55.6075 34.2375 55.614 34.224 55.6177C34.2106 55.6213 34.1966 55.6219 34.1829 55.6195C34.1693 55.617 34.1563 55.6115 34.1447 55.6034C34.1332 55.5953 34.1234 55.5847 34.116 55.5723C34.1086 55.5599 34.1037 55.546 34.1017 55.5315C34.0997 55.517 34.1006 55.5022 34.1043 55.4881C34.1782 55.0909 34.3898 54.7372 34.6976 54.4966C35.0053 54.256 35.3869 54.1459 35.7675 54.1878C36.2289 54.2432 36.6999 54.598 36.6476 55.4183C36.6256 56.0257 36.4042 56.6059 36.0215 57.0591C35.7302 57.3774 35.3314 57.5603 34.9127 57.5677Z" fill="#231F20"/>
<path d="M28.6204 55.5065C28.4033 54.0709 26.1644 53.7263 26.2749 55.4101C26.2925 55.9943 26.5039 56.5534 26.872 56.9893C27.0594 57.2017 27.3023 57.3504 27.5698 57.4165C27.8373 57.4826 28.1173 57.4631 28.3743 57.3605" fill="white"/>
<path d="M27.9071 57.5677C27.4896 57.5609 27.0917 57.3795 26.8002 57.0632C26.4172 56.6103 26.1964 56.0298 26.1761 55.4225C26.1218 54.6021 26.5948 54.2493 27.0542 54.1919C27.4349 54.1504 27.8166 54.2607 28.1245 54.5012C28.4325 54.7417 28.6446 55.095 28.7193 55.4922C28.7232 55.5199 28.7167 55.5481 28.7011 55.5708C28.6855 55.5934 28.6621 55.6087 28.636 55.6132C28.6231 55.6158 28.6098 55.6157 28.597 55.6127C28.5841 55.6098 28.572 55.6041 28.5613 55.5961C28.5506 55.588 28.5416 55.5777 28.5348 55.5659C28.5279 55.554 28.5234 55.5408 28.5216 55.5271C28.4542 55.1824 28.2685 54.8763 28.0004 54.668C27.7323 54.4597 27.4007 54.3639 27.0697 54.3991C26.8409 54.4257 26.3137 54.5795 26.368 55.402C26.3839 55.9607 26.5849 56.4957 26.9359 56.9135C27.1079 57.1123 27.3322 57.252 27.58 57.3145C27.8278 57.377 28.0875 57.3595 28.3258 57.2642C28.3378 57.2585 28.3507 57.2554 28.3638 57.255C28.3769 57.2547 28.3899 57.257 28.4021 57.262C28.4144 57.2669 28.4256 57.2744 28.4351 57.2839C28.4446 57.2934 28.4523 57.3049 28.4576 57.3175C28.463 57.3302 28.4659 57.3438 28.4663 57.3577C28.4666 57.3715 28.4644 57.3853 28.4597 57.3983C28.455 57.4112 28.448 57.4231 28.439 57.4332C28.43 57.4432 28.4192 57.4513 28.4072 57.457C28.2497 57.5306 28.0793 57.5683 27.9071 57.5677Z" fill="#231F20"/>
<path d="M35.0639 55.6111L34.6762 51.4149C34.6762 51.4149 33.6023 50.0162 31.4041 50.0162C29.2059 50.0162 28.132 51.4149 28.132 51.4149L27.9691 55.1209C27.9691 56.9483 28.4111 58.0455 29.0837 58.671L28.9132 62.6375C28.9132 62.6375 29.518 64.0342 31.2858 64.0342C31.7788 64.0487 32.267 63.9276 32.7026 63.6828C33.1381 63.438 33.5062 63.0778 33.7709 62.6375L33.6158 59.0464C34.3059 58.6198 34.8099 57.6805 35.0639 55.6111Z" fill="white"/>
<path d="M31.4099 50.0162C33.6081 50.0162 34.682 51.415 34.682 51.415L35.0697 55.6112C34.8158 57.6805 34.3118 58.6198 33.6275 59.0464L33.7826 62.6376C33.5179 63.0779 33.1498 63.4381 32.7142 63.6829C32.2786 63.9277 31.7905 64.0487 31.2974 64.0343C29.5296 64.0343 28.9248 62.6376 28.9248 62.6376L29.0954 58.6711C28.4227 58.0558 27.9808 56.9483 27.9808 55.121L28.1436 51.415C28.1436 51.415 29.2194 50.0162 31.4157 50.0162M31.4157 49.8112C29.1496 49.8112 28.035 51.2304 27.9885 51.2899C27.9609 51.3251 27.9452 51.3692 27.9439 51.415L27.7792 55.1189C27.7792 56.8048 28.1533 58.0292 28.8918 58.7675L28.7251 62.6376C28.7235 62.6707 28.7295 62.7038 28.7426 62.734C28.7697 62.7976 29.423 64.2537 31.2974 64.2537C31.8266 64.2701 32.3507 64.1398 32.8175 63.8758C33.2844 63.6117 33.6779 63.223 33.959 62.7483C33.9762 62.7137 33.9842 62.6747 33.9822 62.6355L33.833 59.1674C34.5928 58.626 35.0367 57.5267 35.2693 55.646C35.2713 55.6304 35.2713 55.6145 35.2693 55.5988L34.8817 51.4047C34.8784 51.3625 34.8628 51.3224 34.8371 51.2899C34.7906 51.2304 33.674 49.8112 31.4099 49.8112H31.4157Z" fill="#231F20"/>
<path d="M27.5039 56.3945C27.9982 56.7924 28.5352 57.0775 28.7484 57.8302C28.7712 57.9439 28.8146 58.0519 28.8763 58.1481C28.9368 58.2188 29.0127 58.273 29.0973 58.306C29.3344 58.4148 29.591 58.4679 29.8494 58.4619C29.9532 58.4419 30.0601 58.4482 30.1611 58.4803C30.2622 58.5124 30.3547 58.5693 30.431 58.6465C30.6523 58.7973 30.9055 58.8879 31.168 58.9101C31.4304 58.9323 31.694 58.8854 31.9352 58.7736C32.0536 58.6996 32.186 58.6541 32.3229 58.6403C32.4496 58.6597 32.5733 58.6962 32.6912 58.749C33.2572 58.9069 33.7322 58.4311 34.1024 58.0578C34.2962 57.863 34.4029 57.8343 34.5075 57.5636C34.6122 57.2928 34.4765 57.0016 34.6742 56.7678C34.7531 56.6874 34.8418 56.6184 34.9379 56.5627C35.3081 56.292 35.4438 55.7875 35.5504 55.3322C35.689 54.822 35.7735 54.2972 35.8024 53.7673C35.7826 53.5568 35.8161 53.3444 35.8993 53.152C35.9588 53.0643 36.0235 52.9807 36.0932 52.9018C36.1822 52.7867 36.2426 52.6498 36.269 52.5037C36.2954 52.3576 36.287 52.2068 36.2444 52.0651C36.1707 51.8313 36.006 51.6282 35.9866 51.3821C35.9769 51.2467 36.0137 51.1093 36.0079 50.9719C35.9885 50.5289 35.5562 50.2541 35.1782 50.0613C35.2635 49.2163 34.2265 49.1261 33.7205 48.8308C33.405 48.6107 33.0379 48.4879 32.6602 48.476C32.4334 48.4883 32.2163 48.5764 31.9914 48.599C31.4583 48.6544 30.8787 48.3611 30.4058 48.6298C30.276 48.7298 30.1363 48.8144 29.989 48.882C29.832 48.9114 29.6709 48.9058 29.516 48.8656C29.0102 48.8051 28.5018 48.9519 28.0951 49.2758C27.8144 49.5807 27.5553 49.907 27.3197 50.252C27.1642 50.2706 27.0142 50.324 26.8797 50.4087C26.7452 50.4935 26.6293 50.6076 26.5398 50.7434C26.4503 50.8793 26.3891 51.0338 26.3605 51.1966C26.3319 51.3594 26.3364 51.5269 26.3738 51.6877C26.3993 51.7592 26.4175 51.8335 26.428 51.9092C26.4276 51.9944 26.4165 52.0793 26.3951 52.1615C26.3655 52.347 26.3792 52.5374 26.435 52.7161C26.4907 52.8948 26.5868 53.0564 26.7149 53.1869C26.6107 53.2863 26.528 53.4084 26.4727 53.5448C26.4174 53.6813 26.3908 53.8288 26.3947 53.9772C26.3985 54.1256 26.4328 54.2714 26.4951 54.4044C26.5575 54.5374 26.6463 54.6545 26.7556 54.7477C26.7105 54.9624 26.7154 55.1856 26.7702 55.3979C26.8249 55.6102 26.9277 55.8051 27.0697 55.9659C27.1997 56.1246 27.3452 56.2683 27.5039 56.3945Z" fill="white"/>
<path d="M31.3052 59.0157C30.978 59.0174 30.6574 58.9183 30.3825 58.7306L30.3263 58.6896C30.268 58.6405 30.2025 58.6017 30.1324 58.5747C30.0605 58.5583 29.9867 58.5534 29.9134 58.5604H29.8552C29.5821 58.5685 29.3107 58.5125 29.0605 58.3963C28.9618 58.3565 28.8735 58.2925 28.8027 58.2097C28.7381 58.1177 28.6931 58.0121 28.6708 57.9L28.6573 57.8549C28.4886 57.2683 28.1087 56.9812 27.7035 56.6756C27.6183 56.612 27.533 56.5464 27.4477 56.4705C27.279 56.3404 27.1243 56.1912 26.9863 56.0254C26.8463 55.8603 26.7429 55.664 26.6839 55.4511C26.6249 55.2381 26.6116 55.0139 26.6451 54.7949C26.4377 54.5895 26.3142 54.3066 26.3008 54.0063C26.2874 53.7061 26.3852 53.4121 26.5734 53.187C26.4578 53.0458 26.3728 52.8796 26.3246 52.6999C26.2764 52.5202 26.266 52.3315 26.2943 52.1471L26.3059 52.0856C26.3186 52.0313 26.3251 51.9755 26.3253 51.9195C26.3185 51.8711 26.3068 51.8237 26.2904 51.778L26.2749 51.7226C26.2344 51.5504 26.2284 51.3711 26.2571 51.1963C26.2858 51.0214 26.3487 50.8548 26.4418 50.7072C26.5348 50.5595 26.656 50.434 26.7975 50.3387C26.939 50.2434 27.0977 50.1804 27.2635 50.1537C27.5009 49.8147 27.76 49.4933 28.0389 49.1918C28.4649 48.8503 28.9984 48.6947 29.5296 48.757L29.6168 48.7713C29.7161 48.8049 29.8221 48.8105 29.9241 48.7875C30.026 48.7644 30.1206 48.7136 30.1983 48.6401C30.2501 48.6008 30.3038 48.5645 30.3592 48.5314C30.6771 48.3509 31.0319 48.4022 31.375 48.4514C31.5752 48.4886 31.7787 48.5016 31.9817 48.4904C32.0816 48.4776 32.1806 48.4585 32.2783 48.4329C32.4022 48.3991 32.5287 48.3771 32.6563 48.3673C33.0518 48.3791 33.4366 48.5053 33.769 48.7324C33.9139 48.8094 34.0643 48.8746 34.2187 48.9272C34.7033 49.1097 35.3062 49.3374 35.2829 49.9896C35.6706 50.1947 36.0854 50.4859 36.1068 50.9597C36.1082 51.0282 36.105 51.0967 36.0971 51.1648C36.0905 51.2295 36.0905 51.2948 36.0971 51.3596C36.117 51.4934 36.1618 51.6216 36.2289 51.737C36.2767 51.8267 36.3169 51.9207 36.3491 52.0179C36.3962 52.1768 36.4055 52.3455 36.3761 52.509C36.3466 52.6725 36.2794 52.8258 36.1804 52.9552C36.1548 52.9881 36.1277 53.0196 36.099 53.0496C36.0576 53.0938 36.0199 53.1418 35.9866 53.1931C35.9192 53.3461 35.8911 53.5152 35.9052 53.6833V53.7551C35.8767 54.2932 35.7915 54.8264 35.6512 55.3445C35.5291 55.8675 35.3876 56.37 34.998 56.6428C34.9708 56.6633 34.9417 56.6817 34.9127 56.7002C34.8536 56.7343 34.7995 56.7771 34.7518 56.8273C34.6744 56.9405 34.6404 57.0805 34.6568 57.2191C34.6621 57.3459 34.6443 57.4726 34.6045 57.5923C34.546 57.7565 34.4436 57.899 34.3098 58.0025C34.2691 58.0374 34.2265 58.0764 34.1761 58.1276C33.8019 58.5029 33.2921 59.0177 32.6699 58.8434C32.6233 58.829 32.5788 58.8126 32.5322 58.7942C32.4579 58.7512 32.3735 58.7317 32.289 58.7379C32.2045 58.7441 32.1234 58.7757 32.0554 58.829L31.9875 58.8619C31.773 58.9639 31.5404 59.0163 31.3052 59.0157ZM29.9967 58.3471C30.062 58.3447 30.1273 58.3523 30.1906 58.3696C30.2832 58.4036 30.3702 58.4527 30.4484 58.5152L30.5007 58.5542C30.7075 58.6952 30.9441 58.7798 31.1893 58.8006C31.4345 58.8213 31.6808 58.7776 31.9061 58.6732L31.972 58.6404C32.0826 58.5782 32.2039 58.5405 32.3287 58.5296C32.4241 58.5363 32.5178 58.5598 32.6059 58.5993C32.6446 58.6158 32.6841 58.6302 32.7241 58.6424C33.2359 58.786 33.6817 58.3389 34.0384 57.9779C34.0927 57.9225 34.1412 57.8815 34.1838 57.8446C34.2922 57.764 34.3748 57.6502 34.4203 57.5185C34.4505 57.4235 34.4636 57.3233 34.4591 57.2232C34.4416 57.0336 34.4936 56.8441 34.6045 56.694C34.6637 56.6269 34.7331 56.5707 34.8099 56.5279L34.8855 56.4746C35.2189 56.2326 35.3469 55.7814 35.4671 55.2994C35.6037 54.7967 35.6869 54.2794 35.7152 53.7571V53.6874C35.6997 53.4806 35.7386 53.2733 35.8276 53.0885C35.8666 53.0235 35.9128 52.9636 35.9652 52.9101L36.037 52.826C36.1146 52.7243 36.1672 52.6038 36.1902 52.4754C36.2132 52.3469 36.2058 52.2144 36.1688 52.0897C36.1387 52.0042 36.1024 51.9212 36.0602 51.8416C35.9813 51.7012 35.9292 51.5458 35.9071 51.3842C35.9002 51.3058 35.9002 51.2268 35.9071 51.1484C35.9149 51.0893 35.9182 51.0296 35.9168 50.9699C35.8993 50.5823 35.4961 50.328 35.1414 50.1496C35.1228 50.14 35.1075 50.1247 35.0974 50.1056C35.0874 50.0865 35.0831 50.0646 35.0852 50.0429C35.1395 49.4974 34.6393 49.3107 34.1567 49.1282C33.9924 49.0728 33.8323 49.0042 33.6779 48.9231C33.3788 48.7133 33.0305 48.5954 32.6718 48.5827C32.5553 48.5927 32.4399 48.6132 32.3268 48.6442C32.2214 48.6714 32.1146 48.6919 32.0069 48.7057C31.7884 48.7187 31.5692 48.705 31.3537 48.6647C31.028 48.6175 30.7198 48.5724 30.4581 48.7221C30.4094 48.7516 30.3621 48.7838 30.3166 48.8185C30.2284 48.8918 30.1286 48.948 30.0219 48.9846C29.8807 49.0164 29.7348 49.0164 29.5935 48.9846L29.5082 48.9703C29.0228 48.9161 28.5364 49.0631 28.1513 49.3805C27.8847 49.6722 27.6355 49.9811 27.405 50.3054C27.3983 50.3245 27.3864 50.341 27.3709 50.353C27.3554 50.365 27.337 50.372 27.3178 50.3731C27.1774 50.391 27.0421 50.4401 26.9209 50.5172C26.7996 50.5942 26.6951 50.6975 26.6142 50.8203C26.5333 50.943 26.4779 51.0825 26.4515 51.2295C26.4251 51.3765 26.4283 51.5278 26.461 51.6734L26.4765 51.7226C26.4996 51.7887 26.5146 51.8576 26.5211 51.9277C26.5226 52.003 26.5148 52.0781 26.4978 52.1513L26.4862 52.2066C26.4619 52.3745 26.4759 52.5461 26.5272 52.707C26.5784 52.868 26.6654 53.0136 26.7808 53.1316C26.7914 53.1415 26.7997 53.1539 26.8051 53.1678C26.8105 53.1816 26.8128 53.1966 26.8119 53.2116C26.8119 53.2267 26.8086 53.2417 26.8022 53.2552C26.7958 53.2687 26.7865 53.2805 26.775 53.2895C26.6837 53.3794 26.6115 53.4889 26.5633 53.6107C26.5151 53.7324 26.4919 53.8637 26.4954 53.9956C26.4989 54.1276 26.5289 54.2573 26.5835 54.376C26.6381 54.4947 26.7159 54.5997 26.8119 54.6841C26.8281 54.6968 26.8404 54.7143 26.8473 54.7344C26.8542 54.7544 26.8553 54.7762 26.8506 54.7969C26.8103 54.9925 26.8152 55.1954 26.8648 55.3886C26.9144 55.5817 27.0073 55.7594 27.1356 55.9065C27.2642 56.0589 27.4078 56.1965 27.564 56.3167C27.6473 56.3843 27.7326 56.4479 27.816 56.5115C28.2308 56.8232 28.6573 57.1452 28.8453 57.8015L28.8589 57.8487C28.8745 57.9335 28.9069 58.0139 28.9539 58.0846C29.0055 58.14 29.0676 58.1833 29.1361 58.2117C29.3605 58.314 29.6032 58.3636 29.8475 58.3573H29.9967V58.3471Z" fill="#231F20"/>
<path d="M27.4457 61.6695C27.4457 61.6695 27.5097 60.8266 27.8586 60.5928C28.2075 60.359 33.7729 59.9775 34.4184 60.5928C34.8149 61.0044 35.0461 61.562 35.0639 62.1494C35.0639 62.1494 28.6204 61.5239 27.4457 61.6695Z" fill="#334A5E"/>
<path d="M39.5146 64.7192C37.3299 61.528 33.5868 61.245 31.3479 61.245C29.1089 61.245 25.3658 61.528 23.1811 64.7192C20.9965 67.9105 21.0992 73.8951 21.0992 73.8951H41.5945C41.5945 73.8951 41.6992 67.9105 39.5146 64.7192Z" fill="white"/>
<path d="M41.5945 73.9996H21.0992C21.0863 73.9999 21.0735 73.9975 21.0615 73.9924C21.0496 73.9874 21.0386 73.9799 21.0294 73.9703C21.0202 73.9608 21.0129 73.9494 21.0079 73.9368C21.0029 73.9242 21.0004 73.9107 21.0004 73.8971C21.0004 73.8356 20.9209 67.8387 23.0997 64.6577C25.5189 61.1301 29.9037 61.1301 31.3478 61.1301C37.1865 61.1301 38.9989 63.7799 39.596 64.6495C41.7748 67.8305 41.6973 73.8274 41.6953 73.8889C41.6961 73.9033 41.6941 73.9177 41.6894 73.9313C41.6847 73.9448 41.6773 73.9572 41.6679 73.9676C41.6584 73.978 41.647 73.9862 41.6344 73.9917C41.6217 73.9973 41.6082 73.9999 41.5945 73.9996ZM21.2 73.7945H41.4957C41.4957 72.9865 41.4162 67.6828 39.4332 64.7869C37.328 61.7105 33.8116 61.3578 31.3478 61.3578C28.8841 61.3578 25.3677 61.7126 23.2625 64.7869C21.2776 67.6787 21.2 72.9803 21.2 73.7884V73.7945Z" fill="#231F20"/>
<path d="M25.4375 73.9997C25.4124 74.0002 25.3881 73.9905 25.3697 73.9725C25.3513 73.9546 25.3401 73.9297 25.3386 73.9033L24.8153 66.5815C24.8131 66.5535 24.8215 66.5258 24.8385 66.5043C24.8556 66.4828 24.8799 66.4692 24.9064 66.4666C24.933 66.4649 24.9592 66.4742 24.9795 66.4926C24.9997 66.511 25.0124 66.537 25.0149 66.5651L25.5383 73.8869C25.5399 73.9148 25.531 73.9423 25.5136 73.9634C25.4962 73.9845 25.4717 73.9975 25.4453 73.9997H25.4375Z" fill="#231F20"/>
<path d="M37.6808 73.9997C37.6678 73.9986 37.6551 73.9949 37.6435 73.9886C37.6319 73.9824 37.6215 73.9738 37.6131 73.9633C37.6046 73.9528 37.5982 73.9407 37.5942 73.9276C37.5901 73.9144 37.5886 73.9006 37.5897 73.8869L38.1189 66.7784C38.1199 66.7646 38.1234 66.7512 38.1293 66.7389C38.1352 66.7266 38.1433 66.7157 38.1532 66.7067C38.1631 66.6978 38.1746 66.691 38.187 66.6867C38.1994 66.6825 38.2125 66.6809 38.2255 66.682C38.2387 66.6828 38.2515 66.6863 38.2634 66.6924C38.2752 66.6986 38.2858 66.7071 38.2945 66.7176C38.3032 66.7282 38.3097 66.7404 38.3139 66.7536C38.318 66.7669 38.3196 66.7809 38.3185 66.7948L37.7874 73.9033C37.7864 73.917 37.7829 73.9304 37.777 73.9427C37.7711 73.955 37.763 73.966 37.753 73.9749C37.7431 73.9839 37.7317 73.9907 37.7193 73.9949C37.7069 73.9992 37.6938 74.0008 37.6808 73.9997Z" fill="#231F20"/>
<path d="M52.4383 56.8109C52.6554 55.3752 54.8943 55.0327 54.7838 56.7145C54.7668 57.2988 54.5554 57.8581 54.1868 58.2937C53.9994 58.5062 53.7566 58.6551 53.4892 58.7216C53.2217 58.788 52.9417 58.769 52.6844 58.6669" fill="white"/>
<path d="M53.1516 58.8741C52.9769 58.8751 52.8039 58.8373 52.6437 58.7634C52.6316 58.7576 52.6207 58.7494 52.6116 58.7391C52.6025 58.7289 52.5954 58.7169 52.5907 58.7037C52.586 58.6906 52.5839 58.6766 52.5843 58.6625C52.5848 58.6485 52.5878 58.6347 52.5933 58.6219C52.6043 58.5965 52.6243 58.5767 52.6489 58.5667C52.6736 58.5568 52.701 58.5574 52.7251 58.5685C52.9633 58.6638 53.2228 58.6815 53.4705 58.6194C53.7182 58.5572 53.9427 58.4181 54.115 58.2199C54.4659 57.8012 54.6669 57.2656 54.683 56.7063C54.7373 55.8859 54.21 55.7321 53.9813 55.7034C53.3997 55.6316 52.6515 56.0746 52.5371 56.8273C52.5328 56.855 52.5184 56.8797 52.497 56.8962C52.4756 56.9127 52.4489 56.9196 52.4227 56.9155C52.3966 56.911 52.3732 56.8957 52.3576 56.8731C52.342 56.8504 52.3355 56.8222 52.3394 56.7945C52.4133 56.3969 52.6252 56.0429 52.9333 55.8023C53.2415 55.5617 53.6236 55.4518 54.0045 55.4942C54.4639 55.5496 54.9369 55.9044 54.8826 56.7248C54.8628 57.3326 54.6411 57.9135 54.2565 58.3655C54.1131 58.5231 53.9416 58.6491 53.752 58.7364C53.5624 58.8237 53.3584 58.8705 53.1516 58.8741Z" fill="#231F20"/>
<path d="M46.8574 56.8109C46.6423 55.3752 44.4034 55.0327 44.5139 56.7145C44.5292 57.2992 44.7408 57.8591 45.1109 58.2937C45.2983 58.5062 45.5411 58.6551 45.8085 58.7216C46.0759 58.788 46.356 58.769 46.6132 58.6669" fill="white"/>
<path d="M46.146 58.8742C45.9391 58.8708 45.7349 58.8244 45.5449 58.7375C45.355 58.6505 45.1831 58.5249 45.0392 58.3676C44.6562 57.9145 44.4347 57.3342 44.413 56.7268C44.3588 55.9065 44.8318 55.5558 45.2912 55.4963C45.6721 55.4538 46.0542 55.5638 46.3623 55.8044C46.6705 56.045 46.8824 56.399 46.9563 56.7966C46.9585 56.8102 46.9582 56.8241 46.9553 56.8376C46.9524 56.8511 46.947 56.8638 46.9394 56.875C46.9319 56.8863 46.9223 56.8958 46.9112 56.9031C46.9001 56.9104 46.8878 56.9153 46.8749 56.9176C46.8485 56.9218 46.8215 56.9149 46.7998 56.8984C46.7781 56.882 46.7633 56.8572 46.7586 56.8294C46.6461 56.0788 45.9076 55.6337 45.3144 55.7055C45.0857 55.7342 44.5584 55.888 44.6127 56.7084C44.6287 57.2681 44.8305 57.8039 45.1826 58.222C45.3546 58.42 45.5788 58.559 45.8261 58.6212C46.0735 58.6833 46.3327 58.6657 46.5705 58.5706C46.5833 58.5648 46.597 58.5618 46.6108 58.5616C46.6247 58.5614 46.6384 58.5641 46.6513 58.5695C46.6642 58.5749 46.6759 58.583 46.6858 58.5932C46.6957 58.6034 46.7037 58.6156 46.7091 58.6291C46.7146 58.6425 46.7175 58.657 46.7177 58.6717C46.7179 58.6863 46.7154 58.7009 46.7102 58.7145C46.7051 58.7281 46.6975 58.7405 46.6878 58.751C46.6782 58.7615 46.6666 58.7699 46.6539 58.7757C46.4928 58.8453 46.3199 58.8788 46.146 58.8742Z" fill="#231F20"/>
<path d="M53.3028 56.9176L52.9151 52.7214C52.9151 52.7214 51.8393 51.3206 49.643 51.3206C47.4467 51.3206 46.3767 52.7214 46.3767 52.7214L46.2119 56.4254C46.2119 58.2527 46.6539 59.35 47.3265 59.9755L47.156 63.944C47.156 63.944 47.7627 65.3407 49.5306 65.3407C50.0235 65.3548 50.5115 65.2335 50.947 64.9887C51.3825 64.744 51.7507 64.384 52.0157 63.944L51.8606 60.3508C52.5449 59.9242 53.045 58.9869 53.3028 56.9176Z" fill="white"/>
<path d="M49.6488 51.3206C51.8451 51.3206 52.9209 52.7214 52.9209 52.7214L53.3086 56.9176C53.0547 58.987 52.5507 59.9242 51.8664 60.3508L52.0215 63.944C51.7565 64.384 51.3884 64.744 50.9528 64.9887C50.5173 65.2335 50.0293 65.3548 49.5364 65.3407C47.7685 65.3407 47.1618 63.944 47.1618 63.944L47.3324 59.9755C46.6597 59.35 46.2178 58.2527 46.2178 56.4254L46.3767 52.7214C46.3767 52.7214 47.4506 51.3206 49.6488 51.3206ZM49.6488 51.1155C47.3828 51.1155 46.2662 52.5327 46.2216 52.5942C46.1944 52.629 46.1787 52.6722 46.177 52.7173L46.0123 56.413C46.0123 58.101 46.3864 59.3254 47.123 60.0637L46.9563 63.9317C46.9553 63.9655 46.9613 63.9991 46.9737 64.0302C47.0009 64.0917 47.6561 65.5499 49.5306 65.5499C50.0597 65.5665 50.5838 65.4361 51.0505 65.1716C51.5171 64.9071 51.9101 64.5178 52.1901 64.0425C52.2083 64.0088 52.217 63.9704 52.2153 63.9317L52.0758 60.4636C52.8337 59.9242 53.2795 58.8229 53.5102 56.9442C53.5122 56.9286 53.5122 56.9127 53.5102 56.8971L53.1225 52.7009C53.1194 52.6596 53.1045 52.6203 53.0799 52.5881C53.0334 52.5266 51.9168 51.1094 49.6527 51.1094L49.6488 51.1155Z" fill="#231F20"/>
<path d="M45.9987 57.2477C46.0685 57.4528 46.1421 57.6436 46.2216 57.8384C46.4155 58.2998 46.9524 58.8392 47.2064 59.274C47.5107 59.7868 47.4681 59.6842 48.0147 59.7396C49.2041 59.8749 50.403 59.8893 51.595 59.7827C51.8761 59.758 52.1766 59.7129 52.3704 59.4955C52.4636 59.374 52.534 59.2348 52.5778 59.0853C53.0353 57.8548 53.4508 56.6051 53.8243 55.3363C53.9943 54.8227 54.0539 54.2755 53.9987 53.7345C53.9871 53.5909 53.9134 52.3727 53.611 52.4834C53.8049 52.4096 54.0724 52.547 54.2779 52.6044C54.0355 52.0117 53.5277 51.3739 52.9209 51.3985C53.0586 50.5474 52.3064 49.9731 51.5388 49.6819C50.7712 49.3907 49.926 49.5014 49.1196 49.6347C48.4027 49.7225 47.7011 49.9172 47.0358 50.2131C45.7758 50.8284 44.9636 52.5265 45.2059 54.0011C45.3762 55.1066 45.6416 56.1933 45.9987 57.2477Z" fill="white"/>
<path d="M50.0229 59.9509C49.3482 59.9506 48.674 59.9122 48.0031 59.836L47.7666 59.8155C47.4235 59.7909 47.3789 59.7581 47.1211 59.3213C46.9976 59.1292 46.8637 58.945 46.7198 58.7696C46.4898 58.502 46.2943 58.2034 46.1383 57.8815C46.0607 57.6887 45.9851 57.4877 45.9134 57.2847C45.5542 56.2245 45.2882 55.1315 45.1186 54.0196C44.8705 52.5081 45.7176 50.7566 47.0048 50.1229C47.6775 49.8229 48.3868 49.6247 49.1119 49.5343C49.9318 49.3989 50.7964 49.2902 51.5795 49.5876C52.5488 49.9547 53.0896 50.5884 53.0411 51.2981C53.6614 51.3452 54.146 51.9954 54.3787 52.5655C54.3863 52.5837 54.3888 52.6037 54.3861 52.6233C54.3833 52.6429 54.3754 52.6613 54.3631 52.6763C54.3508 52.6911 54.335 52.7021 54.3172 52.7082C54.2995 52.7144 54.2806 52.7154 54.2623 52.7111C54.21 52.6968 54.1557 52.6763 54.0995 52.6578C54.0433 52.6394 53.9735 52.6148 53.9057 52.5983C54.0284 52.9549 54.0939 53.3306 54.0995 53.7099V53.7305C54.1543 54.2844 54.0941 54.8444 53.9231 55.3712C53.549 56.6325 53.1303 57.8959 52.6728 59.1285C52.6233 59.2876 52.5464 59.4357 52.446 59.5653C52.2289 59.8114 51.8974 59.8606 51.6047 59.8873C51.0801 59.9311 50.5528 59.9523 50.0229 59.9509ZM46.0937 57.2109C46.1635 57.416 46.2371 57.6087 46.3127 57.7974C46.4653 58.1003 46.6536 58.3814 46.873 58.6342C47.0238 58.8161 47.1637 59.0079 47.2917 59.2085C47.5146 59.5838 47.5146 59.5838 47.7801 59.6043L48.0244 59.6248C49.2079 59.7608 50.401 59.7759 51.5873 59.6699C51.8432 59.6474 52.132 59.6063 52.2987 59.4156C52.3843 59.3055 52.45 59.1797 52.4925 59.0444C52.9481 57.8138 53.3668 56.5587 53.737 55.3035C53.9022 54.803 53.9598 54.2698 53.9057 53.7428V53.7202C53.834 52.7296 53.6808 52.5963 53.6634 52.584H53.6537C53.6409 52.5886 53.6275 52.5905 53.6141 52.5895C53.6007 52.5886 53.5875 52.5849 53.5755 52.5786C53.5634 52.5723 53.5527 52.5636 53.5438 52.5529C53.5349 52.5422 53.5281 52.5298 53.5238 52.5163C53.5195 52.5028 53.5177 52.4886 53.5186 52.4744C53.5194 52.4602 53.5229 52.4463 53.5289 52.4336C53.5348 52.4208 53.5431 52.4094 53.5532 52.4001C53.5633 52.3907 53.575 52.3835 53.5878 52.3789C53.7575 52.3374 53.9353 52.3539 54.0956 52.4261C53.834 51.9195 53.4036 51.4703 52.9326 51.4991C52.9181 51.4992 52.9037 51.4962 52.8903 51.4902C52.877 51.4842 52.865 51.4754 52.855 51.4642C52.845 51.4523 52.8375 51.4383 52.8332 51.4231C52.8288 51.4078 52.8277 51.3918 52.8298 51.376C52.981 50.4408 51.9595 49.9404 51.5136 49.7783C50.7731 49.4994 49.9357 49.604 49.1429 49.7353C48.4365 49.8212 47.7453 50.0132 47.0901 50.3054C45.8785 50.9084 45.0818 52.5614 45.3144 53.9807C45.4831 55.0799 45.7466 56.1604 46.1014 57.2088L46.0937 57.2109Z" fill="#231F20"/>
<path d="M45.6789 62.976C45.6789 62.976 45.7428 62.131 46.0898 61.8993C46.4368 61.6675 52.004 61.284 52.6495 61.8993C53.047 62.3095 53.2791 62.8666 53.297 63.4539C53.297 63.4539 46.8555 62.8283 45.6789 62.976Z" fill="white"/>
<path d="M53.3028 63.5604H53.2931C53.2291 63.5604 46.8419 62.9452 45.6963 63.0805C45.6816 63.0827 45.6665 63.0812 45.6524 63.0762C45.6383 63.0712 45.6255 63.0629 45.6149 63.0518C45.6043 63.041 45.5961 63.0278 45.5907 63.0133C45.5854 62.9988 45.583 62.9833 45.5839 62.9677C45.5839 62.8754 45.6634 62.0633 46.0433 61.809C46.3185 61.6244 51.9982 61.1383 52.7232 61.8192C53.1438 62.251 53.3874 62.8401 53.4017 63.46C53.4018 63.4747 53.3989 63.4893 53.3932 63.5027C53.3875 63.5162 53.3792 63.5282 53.3687 63.5379C53.3503 63.5541 53.3267 63.5622 53.3028 63.5604ZM46.2177 62.8467C47.9876 62.8467 52.3975 63.2569 53.1962 63.3369C53.1577 62.8209 52.9427 62.3374 52.5914 61.9771C52.3433 61.7433 51.0716 61.6346 49.2728 61.69C47.5921 61.7413 46.2817 61.8951 46.1518 61.9894C45.9386 62.131 45.8359 62.5883 45.799 62.859C45.9115 62.8508 46.053 62.8467 46.2177 62.8467Z" fill="#231F20"/>
<path d="M57.7535 66.0236C55.5669 62.8345 51.8257 62.5494 49.5848 62.5494C47.344 62.5494 43.6028 62.8345 41.4181 66.0236C39.2335 69.2128 39.3382 73.8951 39.3382 73.8951H59.8296C59.8296 73.8951 59.9381 69.2149 57.7535 66.0236Z" fill="#334A5E"/>
<path d="M59.8296 73.9996H39.3382C39.3121 73.9997 39.287 73.989 39.2682 73.9699C39.2494 73.9507 39.2384 73.9247 39.2374 73.8971C39.2374 73.8499 39.1579 69.1451 41.3387 65.9621C43.7462 62.4448 48.1407 62.4448 49.5849 62.4448C55.4254 62.4448 57.2379 65.0925 57.833 65.9621C60.0234 69.1451 59.9343 73.8458 59.9343 73.8971C59.9338 73.9111 59.9307 73.9249 59.9251 73.9376C59.9196 73.9503 59.9118 73.9618 59.902 73.9713C59.8923 73.9808 59.8809 73.9882 59.8685 73.9931C59.856 73.998 59.8428 74.0002 59.8296 73.9996ZM39.4332 73.7945H59.7346C59.7346 73.0911 59.6338 68.9564 57.6721 66.0933C55.5669 63.017 52.0506 62.6622 49.5849 62.6622C47.1191 62.6622 43.6047 63.017 41.4996 66.0933C39.5378 68.9503 39.439 73.0849 39.437 73.7884L39.4332 73.7945Z" fill="#334A5E"/>
<path d="M43.3857 73.9997C43.3598 74.0002 43.3347 73.99 43.3159 73.9712C43.297 73.9524 43.2859 73.9265 43.2849 73.8992L43.0232 67.5741C43.0226 67.5463 43.0321 67.5193 43.0498 67.4987C43.0675 67.4781 43.0919 67.4655 43.1182 67.4634C43.1446 67.4633 43.1701 67.4738 43.1896 67.4929C43.209 67.5119 43.2209 67.538 43.2228 67.5659L43.4845 73.891C43.485 73.9047 43.483 73.9184 43.4785 73.9313C43.474 73.9442 43.4672 73.956 43.4583 73.9661C43.4495 73.9762 43.4389 73.9844 43.4271 73.9901C43.4153 73.9959 43.4025 73.9991 43.3895 73.9997H43.3857Z" fill="#231F20"/>
<path d="M55.5495 73.9997C55.5365 73.9989 55.5238 73.9954 55.5121 73.9894C55.5003 73.9834 55.4899 73.975 55.4812 73.9647C55.4726 73.9544 55.4659 73.9424 55.4617 73.9294C55.4574 73.9164 55.4556 73.9027 55.4564 73.8889L55.7588 68.0192C55.7593 68.0054 55.7624 67.9918 55.768 67.9792C55.7736 67.9667 55.7815 67.9555 55.7913 67.9463C55.8011 67.9371 55.8125 67.9301 55.8249 67.9257C55.8373 67.9213 55.8505 67.9196 55.8635 67.9207C55.8767 67.9213 55.8896 67.9246 55.9015 67.9304C55.9135 67.9363 55.9242 67.9447 55.933 67.955C55.9419 67.9653 55.9487 67.9774 55.9531 67.9905C55.9574 68.0037 55.9593 68.0176 55.9585 68.0315L55.6445 73.9012C55.6426 73.927 55.632 73.9512 55.6145 73.9694C55.597 73.9875 55.5739 73.9982 55.5495 73.9997Z" fill="#231F20"/>
<path d="M43.6183 32.5404C43.6183 32.5404 47.9372 36.109 48.8269 36.5766C49.7167 37.0442 53.3784 34.4908 53.3784 34.4908L55.8674 36.7817C55.8674 36.7817 51.5698 42.2617 48.8269 42.153C46.084 42.0443 42.6529 37.0421 42.6529 37.0421" fill="#334A5E"/>
<path d="M55.8674 35.2988C55.8482 35.2987 55.8294 35.2931 55.8131 35.2824C55.7908 35.2669 55.7751 35.2428 55.7693 35.2152C55.7636 35.1877 55.7681 35.1588 55.7821 35.1348C56.3636 34.1852 56.0515 33.6232 56.0477 33.6171C56.0388 33.6053 56.0324 33.5916 56.0289 33.577C56.0254 33.5624 56.0249 33.5471 56.0274 33.5323C56.0298 33.5174 56.0353 33.5033 56.0433 33.4908C56.0513 33.4783 56.0618 33.4678 56.0739 33.4599C56.0861 33.452 56.0997 33.4469 56.1138 33.445C56.1279 33.4431 56.1423 33.4444 56.156 33.4488C56.1696 33.4532 56.1822 33.4606 56.1929 33.4705C56.2037 33.4804 56.2123 33.4926 56.2183 33.5063C56.2357 33.5351 56.6059 34.1893 55.9507 35.2496C55.9418 35.2645 55.9295 35.2767 55.9149 35.2853C55.9004 35.2939 55.884 35.2986 55.8674 35.2988Z" fill="#231F20"/>
<path d="M41.2204 50.3259C41.1964 50.3259 41.1732 50.3173 41.1545 50.3013C41.1446 50.2916 41.1365 50.2799 41.1309 50.2668C41.1252 50.2538 41.122 50.2397 41.1216 50.2254L40.8928 44.9833C40.8918 44.9553 40.9011 44.928 40.9189 44.9073C40.9366 44.8866 40.9614 44.8741 40.9878 44.8725C41.0142 44.8714 41.04 44.8813 41.0596 44.9001C41.0792 44.9189 41.091 44.9451 41.0925 44.973L41.3154 50.1003L45.266 49.6901C45.2804 49.6844 45.2959 49.6822 45.3113 49.6838C45.3267 49.6854 45.3415 49.6907 45.3546 49.6993C45.3678 49.708 45.3788 49.7197 45.387 49.7335C45.3952 49.7474 45.4002 49.7631 45.4018 49.7793C45.4033 49.7956 45.4013 49.812 45.3959 49.8273C45.3905 49.8426 45.3818 49.8564 45.3705 49.8676C45.3593 49.8788 45.3458 49.8871 45.331 49.8919C45.3162 49.8967 45.3006 49.8978 45.2854 49.8952L41.2204 50.3259Z" fill="#231F20"/>
</svg>
