<svg width="96" height="96" viewBox="0 0 96 96" fill="none" xmlns="http://www.w3.org/2000/svg">
<rect x="-7.62939e-06" y="0.00012207" width="96" height="96" rx="15" fill="#131C73"/>
<path d="M32.9529 32.2124C32.9529 32.2124 29.6866 34.2838 29.1535 37.8975C28.7852 40.3832 29.1535 52.338 29.1535 52.338H33.0304L32.9529 32.2124Z" fill="#334A5E"/>
<path d="M33.9105 45.6581L33.4995 68.1341L37.0043 68.3925L39.4312 52.3749L42.62 68.975L46.4717 68.1341L43.3508 44.1076L33.9105 45.6581Z" fill="#231F20"/>
<path d="M42.62 69.0775C42.6014 69.0774 42.5832 69.0717 42.5676 69.0611C42.5459 69.0459 42.5307 69.0223 42.525 68.9955L39.4428 52.9491L37.1012 68.4089C37.097 68.4341 37.0842 68.4567 37.0653 68.4726C37.0463 68.4884 37.0226 68.4964 36.9984 68.495L33.4937 68.2366C33.4687 68.235 33.4452 68.2232 33.4282 68.2037C33.4112 68.1842 33.4021 68.1585 33.4026 68.132L33.8136 45.656C33.8138 45.632 33.8221 45.6089 33.8371 45.5909C33.852 45.5728 33.8725 45.561 33.895 45.5576L43.3353 44.0071C43.3478 44.0048 43.3606 44.0053 43.3729 44.0085C43.3853 44.0116 43.3969 44.0175 43.407 44.0255C43.4176 44.0338 43.4265 44.0442 43.4331 44.0562C43.4398 44.0682 43.4441 44.0815 43.4458 44.0953L46.5686 68.1197C46.572 68.1457 46.5659 68.1721 46.5515 68.1935C46.5371 68.2149 46.5154 68.2296 46.4911 68.2346L42.6394 69.0754L42.62 69.0775ZM39.4312 52.2723C39.4536 52.2723 39.4752 52.2804 39.4925 52.2954C39.5098 52.3103 39.5217 52.3312 39.5262 52.3543L42.6956 68.8539L46.3631 68.0541L43.2616 44.2265L34.0055 45.7483L33.5984 68.0418L36.9228 68.2858L39.3362 52.3605C39.3398 52.3369 39.3511 52.3154 39.3681 52.2997C39.3851 52.2839 39.4067 52.275 39.4293 52.2743L39.4312 52.2723Z" fill="#231F20"/>
<path d="M74.2246 26.4451H51.9129C51.5339 26.4451 51.2267 26.7701 51.2267 27.1711V41.5849C51.2267 41.9859 51.5339 42.311 51.9129 42.311H74.2246C74.6035 42.311 74.9108 41.9859 74.9108 41.5849V27.1711C74.9108 26.7701 74.6035 26.4451 74.2246 26.4451Z" fill="white"/>
<path d="M74.2245 42.4135H51.911C51.7053 42.4135 51.5081 42.3271 51.3627 42.1732C51.2173 42.0194 51.1356 41.8107 51.1356 41.5931V27.169C51.1356 26.9515 51.2173 26.7428 51.3627 26.5889C51.5081 26.4351 51.7053 26.3487 51.911 26.3487H74.2245C74.4302 26.3487 74.6274 26.4351 74.7728 26.5889C74.9182 26.7428 74.9999 26.9515 74.9999 27.169V41.5849C75.001 41.6933 74.9817 41.8009 74.9431 41.9014C74.9046 42.0019 74.8477 42.0933 74.7756 42.1703C74.7035 42.2474 74.6177 42.3085 74.5231 42.3503C74.4285 42.392 74.327 42.4135 74.2245 42.4135ZM51.911 26.5476C51.7567 26.5476 51.6088 26.6124 51.4998 26.7278C51.3907 26.8432 51.3294 26.9997 51.3294 27.1629V41.5849C51.3294 41.7481 51.3907 41.9046 51.4998 42.02C51.6088 42.1354 51.7567 42.2002 51.911 42.2002H74.2245C74.3788 42.2002 74.5267 42.1354 74.6358 42.02C74.7448 41.9046 74.8061 41.7481 74.8061 41.5849V27.169C74.8061 27.0058 74.7448 26.8494 74.6358 26.734C74.5267 26.6186 74.3788 26.5538 74.2245 26.5538L51.911 26.5476Z" fill="#D1D3D4"/>
<path d="M73.581 41.2056H52.5565C52.5308 41.2056 52.5062 41.1948 52.488 41.1756C52.4698 41.1564 52.4596 41.1303 52.4596 41.1031V27.6511C52.4596 27.6239 52.4698 27.5979 52.488 27.5786C52.5062 27.5594 52.5308 27.5486 52.5565 27.5486H73.581C73.6067 27.5486 73.6314 27.5594 73.6495 27.5786C73.6677 27.5979 73.6779 27.6239 73.6779 27.6511V41.1031C73.6779 41.1303 73.6677 41.1564 73.6495 41.1756C73.6314 41.1948 73.6067 41.2056 73.581 41.2056ZM52.6457 41.0005H73.4841V27.7537H52.6573L52.6457 41.0005Z" fill="#D1D3D4"/>
<path d="M59.5757 30.7766L63.1134 34.5093C63.1309 34.5305 63.1527 34.5472 63.1772 34.5582C63.2017 34.5692 63.2283 34.5742 63.2549 34.5728H68.6728C68.6472 35.4623 68.4193 36.332 68.0085 37.1085C67.5977 37.885 67.0161 38.5453 66.313 39.0335C65.6098 39.5217 64.8058 39.8235 63.9691 39.9132C63.1323 40.0029 62.2874 39.8779 61.506 39.5488C60.7246 39.2198 60.0296 38.6963 59.48 38.0228C58.9303 37.3493 58.5422 36.5456 58.3484 35.6797C58.1546 34.8138 58.161 33.9112 58.3668 33.0484C58.5727 32.1857 58.9721 31.3881 59.5311 30.7233L59.5757 30.7766Z" fill="#334A5E"/>
<path d="M63.6367 28.8427V34.1751H63.6891L68.572 34.1628C68.6787 34.1628 68.6806 34.1628 68.6728 34.0459C68.6111 33.0307 68.288 32.0529 67.7386 31.2181C67.1891 30.3834 66.4343 29.7236 65.5558 29.3103C65.0194 29.0628 64.4485 28.9097 63.8655 28.857L63.6367 28.8427Z" fill="#D1D3D4"/>
<path d="M63.2645 34.1095V28.8469C62.678 28.8784 62.0997 29.0071 61.5509 29.2284C60.8948 29.503 60.2961 29.9113 59.7889 30.4302L63.2645 34.1095Z" fill="#D1D3D4"/>
<path d="M35.374 27.8197C35.1873 27.092 35.0461 26.3521 34.9514 25.6047C34.8894 24.8541 34.9844 24.0583 35.3876 23.4369C35.5404 23.1786 35.7703 22.9816 36.0408 22.877C36.2585 22.8453 36.4802 22.8678 36.6883 22.9426C36.8857 22.7894 37.0908 22.6477 37.3028 22.5181C37.7657 22.2996 38.2622 22.1717 38.7683 22.1407C39.4816 22.0689 40.3074 22.1079 40.761 22.6945C41.0944 23.1252 41.1235 23.7199 41.137 24.2839L41.1719 25.7093" fill="white"/>
<path d="M35.374 27.9258C35.3512 27.9258 35.329 27.9174 35.3113 27.9021C35.2937 27.8868 35.2816 27.8654 35.2771 27.8417C35.2364 27.649 35.1918 27.4582 35.1472 27.2675C35.0099 26.725 34.9107 26.1725 34.8506 25.6144C34.8002 24.9992 34.8371 24.0988 35.3062 23.3769C35.4255 23.1214 35.6313 22.9228 35.8827 22.8205C36.1342 22.7183 36.4128 22.72 36.6631 22.8252C36.8497 22.6773 37.0438 22.5404 37.2446 22.415C37.7188 22.1919 38.227 22.0606 38.745 22.0274C39.7569 21.9228 40.4373 22.1176 40.825 22.6201C41.2126 23.1226 41.2126 23.7768 41.2223 24.2711L41.2592 25.7067C41.2597 25.7347 41.2498 25.7617 41.2317 25.782C41.2136 25.8024 41.1886 25.8144 41.1622 25.8154C41.149 25.8166 41.1356 25.8148 41.123 25.8101C41.1105 25.8055 41.099 25.798 41.0893 25.7884C41.0796 25.7787 41.0719 25.767 41.0668 25.754C41.0617 25.741 41.0592 25.727 41.0595 25.7129L41.0227 24.2772C41.0091 23.6743 40.9723 23.1431 40.6699 22.7534C40.3287 22.3104 39.7007 22.1381 38.7644 22.2386C38.2735 22.2725 37.7923 22.3989 37.3435 22.6119C37.1364 22.7372 36.9358 22.8741 36.7426 23.0221C36.7299 23.0319 36.7152 23.0384 36.6997 23.0409C36.6841 23.0434 36.6682 23.0419 36.6534 23.0364C36.467 22.9672 36.2677 22.9454 36.0719 22.9729C35.8241 23.0711 35.6136 23.2526 35.4729 23.4897C35.0367 24.1603 35.0038 25.0012 35.0522 25.5898C35.1108 26.137 35.2087 26.6786 35.3449 27.2101C35.3876 27.4028 35.4322 27.5956 35.4729 27.7905C35.476 27.804 35.4765 27.818 35.4744 27.8317C35.4722 27.8454 35.4675 27.8585 35.4604 27.8702C35.4533 27.8819 35.4441 27.8919 35.4332 27.8997C35.4224 27.9075 35.4102 27.9129 35.3973 27.9156L35.374 27.9258Z" fill="#231F20"/>
<path d="M43.9207 47.7993C43.1453 43.9394 41.6313 32.3476 41.2863 32.1815C40.4469 31.7713 36.0098 31.3181 35.0057 33.1249C34.6936 33.691 35.6047 45.5966 36.0059 48.8801L43.9207 47.7993Z" fill="#231F20"/>
<path d="M39.5999 33.9677L39.0338 35.3767L40.4024 43.7567L39.4312 45.5041L37.8553 44.2797L38.4077 35.309L37.0043 33.4714L39.5999 33.9677Z" fill="white"/>
<path d="M39.4312 45.6089C39.4096 45.6094 39.3884 45.6021 39.3711 45.5884L37.7951 44.3578C37.7816 44.3473 37.7708 44.3333 37.7637 44.3172C37.7566 44.3011 37.7534 44.2833 37.7544 44.2656L38.3127 35.342L36.9345 33.5372C36.9231 33.5193 36.9171 33.4983 36.9171 33.4767C36.9171 33.4552 36.9231 33.4341 36.9345 33.4162C36.9451 33.3977 36.9609 33.3831 36.9795 33.3743C36.9982 33.3655 37.019 33.363 37.0391 33.367L39.6328 33.8633C39.6477 33.8661 39.6618 33.8726 39.6739 33.8822C39.686 33.8918 39.6958 33.9043 39.7026 33.9187C39.7092 33.9327 39.7127 33.9481 39.7127 33.9638C39.7127 33.9795 39.7092 33.9949 39.7026 34.0089L39.1482 35.3892L40.5051 43.7405C40.5093 43.7654 40.5044 43.791 40.4915 43.8123L39.5223 45.5576C39.5153 45.5704 39.5058 45.5813 39.4944 45.5898C39.483 45.5983 39.4701 45.6041 39.4564 45.6069L39.4312 45.6089ZM37.958 44.2286L39.4002 45.3484L40.2977 43.7385L38.9408 35.3933C38.935 35.3746 38.935 35.3545 38.9408 35.3359L39.4583 34.0581L37.2524 33.6357L38.4852 35.2518C38.5008 35.2727 38.5084 35.299 38.5066 35.3256L37.958 44.2286Z" fill="#231F20"/>
<path d="M37.7079 50.2214L36.1572 32.4748L40.4218 32.3169L41.1972 50.2214L45.2524 49.7928C44.6263 43.9476 44.1262 33.1434 43.6028 32.5404C41.6352 30.2844 36.5914 31.0371 36.5914 31.0371C36.5914 31.0371 32.9606 31.2217 31.8092 33.4716C31.5204 34.0356 31.8286 49.1262 31.8693 51.5627L37.7079 50.2214Z" fill="#334A5E"/>
<path d="M32.4497 50.9107C32.4231 50.9107 32.3975 50.8998 32.3785 50.8802C32.3595 50.8607 32.3486 50.8341 32.3481 50.8061C32.3481 50.6523 32.3481 35.4243 32.3481 35.1946C32.3478 35.1807 32.3502 35.1668 32.3551 35.1539C32.36 35.141 32.3673 35.1292 32.3766 35.1193C32.3859 35.1093 32.3969 35.1014 32.4092 35.0961C32.4214 35.0907 32.4345 35.0879 32.4478 35.0879C32.461 35.0874 32.4742 35.0896 32.4867 35.0945C32.4991 35.0994 32.5104 35.1068 32.5201 35.1163C32.5297 35.1259 32.5375 35.1374 32.5428 35.1501C32.5482 35.1628 32.5511 35.1765 32.5513 35.1905V50.8061C32.5513 50.8201 32.5487 50.8338 32.5436 50.8466C32.5384 50.8595 32.5309 50.8711 32.5215 50.8808C32.512 50.8906 32.5008 50.8982 32.4885 50.9034C32.4761 50.9085 32.463 50.911 32.4497 50.9107Z" fill="#231F20"/>
<path d="M31.8247 51.6693C31.8027 51.6659 31.7823 51.6548 31.7668 51.6378C31.7514 51.6208 31.7417 51.5989 31.7392 51.5755C31.7368 51.5521 31.7418 51.5284 31.7534 51.5083C31.765 51.4882 31.7826 51.4727 31.8034 51.4642L37.5373 50.1352L37.4249 46.9789C37.4243 46.9511 37.4339 46.9241 37.4515 46.9035C37.4692 46.8829 37.4937 46.8702 37.5199 46.8681C37.5464 46.8681 37.5719 46.8786 37.5913 46.8976C37.6107 46.9166 37.6226 46.9428 37.6246 46.9707L37.7486 50.2234C37.7495 50.2483 37.742 50.2727 37.7275 50.2923C37.7129 50.3118 37.6922 50.3252 37.6691 50.3301L31.8538 51.6734L31.8247 51.6693Z" fill="#231F20"/>
<path d="M40.1 30.9819L40.3307 32.5591C40.3307 32.5591 40.0961 34.8561 38.4542 34.4541C36.8124 34.0522 36.163 32.4853 36.163 32.4853L35.9536 28.3158C35.9536 28.3158 37.1613 27.6184 36.7794 24.8292C38.1251 25.4275 39.5987 25.6294 41.044 25.4137C41.044 25.4137 41.6255 28.285 41.4433 29.6242C41.4143 29.9849 41.2617 30.3219 41.0144 30.5719C40.767 30.8219 40.4418 30.9678 40.1 30.9819Z" fill="white"/>
<path d="M38.8245 34.5955C38.6939 34.5943 38.5639 34.5778 38.4368 34.5463C37.9272 34.4104 37.4517 34.1585 37.0436 33.8081C36.6355 33.4578 36.3045 33.0175 36.0738 32.518C36.072 32.5057 36.072 32.4933 36.0738 32.481L35.8528 28.3156C35.8519 28.2957 35.8564 28.2759 35.8656 28.2585C35.8749 28.2411 35.8886 28.2268 35.9051 28.2172C35.9168 28.2172 37.045 27.5096 36.6805 24.8434C36.6777 24.8243 36.68 24.8047 36.6872 24.787C36.6944 24.7692 36.7062 24.7539 36.7212 24.7429C36.736 24.7318 36.7532 24.725 36.7713 24.7232C36.7893 24.7214 36.8075 24.7246 36.824 24.7327C38.1518 25.3153 39.6027 25.5121 41.0265 25.3028C41.0515 25.2996 41.0768 25.3061 41.0975 25.3212C41.1182 25.3363 41.133 25.359 41.139 25.3849C41.1622 25.5038 41.7205 28.2869 41.5383 29.6344C41.508 29.9978 41.3602 30.3392 41.1197 30.6007C40.8792 30.8622 40.5608 31.028 40.2182 31.07L40.4314 32.5364C40.4334 32.5459 40.4334 32.5557 40.4314 32.5651C40.4314 32.6144 40.2957 33.8141 39.5824 34.3494C39.3612 34.5154 39.0955 34.6016 38.8245 34.5955ZM36.2618 32.4503C36.3374 32.6164 36.9965 33.9762 38.4775 34.3412C38.6439 34.3911 38.8186 34.402 38.9894 34.3729C39.1601 34.3438 39.3228 34.2756 39.4661 34.173C40.0689 33.7198 40.2143 32.68 40.2298 32.5508L40.0011 30.9818C39.9992 30.9669 40.0004 30.9517 40.0044 30.9372C40.0084 30.9227 40.0152 30.9093 40.0244 30.8977C40.0338 30.8863 40.0454 30.8772 40.0585 30.8708C40.0715 30.8645 40.0856 30.861 40.1 30.8608C40.4167 30.8477 40.7178 30.7121 40.9461 30.4795C41.1745 30.247 41.3142 29.9338 41.3386 29.5995C41.4995 28.4264 41.0576 26.0289 40.9509 25.5223C39.5778 25.6989 38.1847 25.5165 36.8938 24.9911C37.169 27.364 36.2851 28.1823 36.0486 28.3566L36.2618 32.4503Z" fill="#231F20"/>
<path d="M39.2587 27.085C39.2587 27.085 40.0341 28.5972 39.8034 28.825C39.5727 29.0528 38.9815 28.825 38.9815 28.825" fill="white"/>
<path d="M39.4758 29.0323C39.2959 29.0271 39.1179 28.9918 38.9485 28.9277C38.9243 28.9184 38.9046 28.8994 38.8937 28.8748C38.8828 28.8501 38.8816 28.8219 38.8903 28.7963C38.8944 28.7835 38.901 28.7717 38.9095 28.7616C38.918 28.7515 38.9284 28.7433 38.94 28.7376C38.9516 28.7318 38.9641 28.7286 38.9769 28.7282C38.9897 28.7277 39.0025 28.7299 39.0144 28.7348C39.152 28.7861 39.5804 28.901 39.7374 28.7512C39.8305 28.6589 39.561 27.8874 39.1753 27.1364C39.1689 27.1246 39.1648 27.1116 39.1633 27.0981C39.1618 27.0846 39.1629 27.0709 39.1665 27.0578C39.1701 27.0448 39.1762 27.0327 39.1844 27.0222C39.1925 27.0117 39.2026 27.0031 39.2141 26.9969C39.2251 26.9904 39.2373 26.9863 39.2498 26.9849C39.2624 26.9835 39.275 26.9847 39.2871 26.9885C39.2992 26.9924 39.3105 26.9987 39.3202 27.0072C39.33 27.0156 39.338 27.0261 39.3439 27.0379C39.5901 27.5139 40.131 28.6486 39.8673 28.903C39.756 28.995 39.6168 29.041 39.4758 29.0323Z" fill="#231F20"/>
<path d="M37.8759 27.2074C37.965 27.2034 38.0304 27.026 38.0218 26.8111C38.0133 26.5961 37.9341 26.4251 37.8449 26.4291C37.7558 26.4331 37.6904 26.6105 37.699 26.8254C37.7075 27.0404 37.7867 27.2114 37.8759 27.2074Z" fill="#231F20"/>
<path d="M40.4498 27.2077C40.539 27.2037 40.6043 27.0263 40.5957 26.8113C40.5872 26.5964 40.508 26.4254 40.4188 26.4294C40.3297 26.4333 40.2644 26.6108 40.2729 26.8257C40.2815 27.0406 40.3607 27.2116 40.4498 27.2077Z" fill="#231F20"/>
<path d="M37.0042 27.5874C36.8599 27.3256 36.669 27.0957 36.4421 26.9106C36.3241 26.8016 36.1772 26.7335 36.0214 26.7158C35.8936 26.7165 35.7685 26.7556 35.6609 26.8286C35.4992 26.9285 35.3593 27.0635 35.2504 27.2247C35.1415 27.3859 35.066 27.5696 35.029 27.7638C34.9936 27.9439 35.0002 28.1305 35.0483 28.3073C35.1409 28.5812 35.3222 28.8115 35.5601 28.9574C35.7954 29.1019 36.0459 29.2168 36.3064 29.2999" fill="white"/>
<path d="M36.3064 29.4046C36.2955 29.4066 36.2844 29.4066 36.2735 29.4046C36.0029 29.3194 35.7427 29.201 35.4981 29.0519C35.2411 28.892 35.0456 28.6415 34.9456 28.3443C34.8907 28.1505 34.8833 27.9451 34.9243 27.7475C34.9641 27.5386 35.0451 27.341 35.162 27.1675C35.279 26.9939 35.4291 26.8485 35.6028 26.7405C35.7269 26.6574 35.8707 26.6133 36.0176 26.6133C36.1936 26.6334 36.3598 26.7092 36.4945 26.8307C36.7291 27.0253 36.9265 27.2654 37.076 27.5383C37.0869 27.5623 37.0889 27.5898 37.0816 27.6153C37.0744 27.6408 37.0583 27.6625 37.0367 27.6761C37.0151 27.6897 36.9894 27.6943 36.9647 27.6889C36.9401 27.6835 36.9182 27.6686 36.9035 27.647C36.7679 27.3959 36.5883 27.1746 36.3743 26.9948C36.272 26.9007 36.146 26.8401 36.0118 26.8205C35.9031 26.823 35.7971 26.857 35.7055 26.9189C35.5567 27.0121 35.428 27.1372 35.3279 27.2863C35.2277 27.4354 35.1582 27.6051 35.124 27.7844C35.0908 27.9473 35.0961 28.1164 35.1395 28.2766C35.2258 28.526 35.3918 28.7356 35.6086 28.8694C35.8381 29.0085 36.082 29.1193 36.3355 29.1995C36.3607 29.2089 36.3813 29.2283 36.3929 29.2537C36.4045 29.2791 36.4062 29.3083 36.3975 29.3349C36.3904 29.3546 36.378 29.3717 36.3618 29.3841C36.3456 29.3965 36.3264 29.4036 36.3064 29.4046Z" fill="#231F20"/>
<path d="M40.1 30.9819C39.1552 31.1331 38.1896 30.9613 37.3435 30.4915C37.3435 30.4915 38.745 32.7732 40.3113 32.451L40.1 30.9819Z" fill="#231F20"/>
<path d="M40.0069 32.5857C38.5376 32.5857 37.3222 30.6352 37.2679 30.547C37.2548 30.5291 37.2478 30.5071 37.2478 30.4845C37.2478 30.4619 37.2548 30.4399 37.2679 30.4219C37.2824 30.4054 37.3015 30.3943 37.3225 30.3902C37.3435 30.3862 37.3651 30.3894 37.3842 30.3994C38.2119 30.8497 39.1521 31.0146 40.0728 30.8711C40.0988 30.8656 40.1259 30.8707 40.1484 30.8854C40.1593 30.8936 40.1685 30.9039 40.1755 30.9159C40.1825 30.9279 40.1871 30.9413 40.1891 30.9552L40.4043 32.4359C40.4082 32.462 40.4023 32.4887 40.3878 32.5102C40.3733 32.5317 40.3514 32.5463 40.3268 32.5508C40.2216 32.5739 40.1144 32.5856 40.0069 32.5857ZM37.6478 30.7398C38.0801 31.3264 39.1055 32.5098 40.2066 32.358L40.0127 31.0823C39.2104 31.1932 38.3945 31.0779 37.6478 30.748V30.7398Z" fill="#231F20"/>
<path d="M39.3323 30.1799C39.4801 30.1799 39.5998 29.9829 39.5998 29.7399C39.5998 29.497 39.4801 29.3 39.3323 29.3C39.1846 29.3 39.0648 29.497 39.0648 29.7399C39.0648 29.9829 39.1846 30.1799 39.3323 30.1799Z" fill="#231F20"/>
<path d="M38.02 28.1925C37.762 28.1925 37.5098 28.1116 37.2952 27.9599C37.0807 27.8082 36.9135 27.5927 36.8148 27.3405C36.716 27.0882 36.6902 26.8107 36.7405 26.543C36.7909 26.2752 36.9151 26.0293 37.0976 25.8362C37.28 25.6432 37.5125 25.5118 37.7655 25.4585C38.0186 25.4052 38.2809 25.4326 38.5193 25.537C38.7577 25.6415 38.9614 25.8184 39.1048 26.0454C39.2481 26.2724 39.3246 26.5393 39.3246 26.8122C39.3241 27.1781 39.1865 27.5289 38.9419 27.7876C38.6974 28.0464 38.3659 28.192 38.02 28.1925ZM38.02 25.6432C37.8015 25.6432 37.5879 25.7118 37.4062 25.8402C37.2245 25.9687 37.0829 26.1513 36.9992 26.3649C36.9156 26.5785 36.8937 26.8135 36.9363 27.0403C36.979 27.2671 37.0842 27.4754 37.2387 27.6389C37.3933 27.8024 37.5901 27.9137 37.8045 27.9588C38.0188 28.0039 38.241 27.9808 38.4429 27.8923C38.6448 27.8038 38.8173 27.654 38.9387 27.4617C39.0602 27.2695 39.125 27.0435 39.125 26.8122C39.1229 26.5034 39.0057 26.208 38.7987 25.9902C38.5918 25.7724 38.3119 25.6499 38.02 25.6494V25.6432Z" fill="#231F20"/>
<path d="M40.6195 28.1925C40.3614 28.1925 40.1092 28.1116 39.8947 27.9599C39.6801 27.8082 39.5129 27.5927 39.4142 27.3405C39.3155 27.0882 39.2896 26.8107 39.34 26.543C39.3903 26.2752 39.5145 26.0293 39.697 25.8362C39.8794 25.6432 40.1119 25.5118 40.365 25.4585C40.618 25.4052 40.8803 25.4326 41.1187 25.537C41.3571 25.6415 41.5608 25.8184 41.7042 26.0454C41.8475 26.2724 41.9241 26.5393 41.9241 26.8122C41.9235 27.1781 41.7859 27.5289 41.5414 27.7876C41.2968 28.0464 40.9653 28.192 40.6195 28.1925ZM40.6195 25.6432C40.4009 25.6432 40.1873 25.7118 40.0056 25.8402C39.8239 25.9687 39.6823 26.1513 39.5987 26.3649C39.515 26.5785 39.4931 26.8135 39.5358 27.0403C39.5784 27.2671 39.6836 27.4754 39.8382 27.6389C39.9927 27.8024 40.1896 27.9137 40.4039 27.9588C40.6182 28.0039 40.8404 27.9808 41.0423 27.8923C41.2442 27.8038 41.4168 27.654 41.5382 27.4617C41.6596 27.2695 41.7244 27.0435 41.7244 26.8122C41.7229 26.5033 41.6058 26.2075 41.3987 25.9896C41.1917 25.7717 40.9115 25.6494 40.6195 25.6494V25.6432Z" fill="#231F20"/>
<path d="M53.611 34.9176C53.5955 34.7248 54.4969 34.1444 54.6423 33.9823C55.1592 33.3958 55.6813 32.8078 56.2086 32.2186C56.3475 32.0207 56.5491 31.8823 56.7765 31.8289C56.8185 31.822 56.8614 31.83 56.8987 31.8514C57.0072 31.9191 56.9646 32.0934 56.8987 32.2124C56.6702 32.6808 56.4111 33.1317 56.1233 33.5619C56.8987 32.9958 57.685 32.4537 58.4824 31.9355C58.6064 31.8555 58.7634 31.7735 58.8914 31.8494C58.9301 31.8784 58.9628 31.9153 58.9878 31.9579C59.0128 32.0005 59.0294 32.048 59.0368 32.0975C59.1028 32.5162 59.0273 32.9461 58.8235 33.3117C58.2594 34.491 57.2456 35.3257 56.226 36.0394C55.7317 36.384 55.3072 36.7798 54.8284 37.149C54.7334 37.2228 53.8495 37.7806 53.8592 37.8975L53.611 34.9176Z" fill="white"/>
<path d="M53.8688 38.004C53.8441 38.0032 53.8206 37.993 53.8024 37.9753C53.7843 37.9576 53.7727 37.9336 53.77 37.9076L53.7215 37.3395C53.6459 36.4761 53.5121 34.9318 53.5121 34.9256C53.4986 34.7533 53.737 34.5523 54.2468 34.1668C54.3585 34.087 54.4659 34.0007 54.5686 33.9084L55.6018 32.7455L56.1465 32.1446C56.3037 31.9329 56.5271 31.7875 56.7765 31.7344C56.843 31.7222 56.9114 31.7345 56.9704 31.7693C57.106 31.8554 57.1235 32.0482 57.0149 32.2697C56.8657 32.5773 56.7009 32.885 56.5264 33.1721C57.1603 32.7168 57.8078 32.2758 58.4649 31.8554C58.5347 31.7938 58.6187 31.7531 58.7084 31.7376C58.7981 31.7221 58.8901 31.7323 58.9747 31.7672C59.026 31.8027 59.0698 31.8491 59.1032 31.9035C59.1365 31.9578 59.1588 32.019 59.1686 32.083C59.2558 32.4543 59.1821 32.8747 58.9476 33.369C58.366 34.5995 57.2883 35.4568 56.3152 36.1377C56.0205 36.3428 55.7336 36.5746 55.4739 36.7981C55.2936 36.9478 55.1133 37.0975 54.9233 37.2452L54.7586 37.358C54.4852 37.5243 54.2258 37.715 53.9832 37.9282C53.9786 37.9513 53.9671 37.9722 53.9503 37.9877C53.9335 38.0032 53.9124 38.0126 53.8901 38.0143L53.8688 38.004ZM53.7118 34.9154C53.7215 35.0282 53.8494 36.4925 53.9212 37.3211C53.9328 37.4647 53.9425 37.5713 53.9483 37.6533C54.0743 37.5487 54.2817 37.399 54.6248 37.1693C54.7024 37.118 54.7586 37.0791 54.7799 37.0627C54.9737 36.9171 55.1463 36.7694 55.3265 36.6197C55.5979 36.3961 55.8771 36.1623 56.1814 35.9511C57.1312 35.2845 58.178 34.4457 58.744 33.2623C58.9386 32.921 59.0115 32.5173 58.9495 32.1241C58.9456 32.0881 58.9348 32.0534 58.9178 32.022C58.9008 31.9907 58.878 31.9633 58.8507 31.9415C58.7692 31.8923 58.6432 31.96 58.5424 32.0256C57.7477 32.5383 56.9568 33.0859 56.1911 33.6479C56.172 33.6627 56.1485 33.6697 56.1249 33.6674C56.1014 33.6651 56.0794 33.6538 56.0632 33.6356C56.0463 33.6182 56.0359 33.595 56.0337 33.5702C56.0316 33.5454 56.0379 33.5206 56.0515 33.5002C56.3392 33.0742 56.5983 32.6274 56.8269 32.163C56.8773 32.0625 56.8889 31.9579 56.856 31.9415C56.8358 31.9346 56.8141 31.9346 56.794 31.9415C56.592 31.9928 56.414 32.1186 56.2919 32.2963L55.7569 32.8993L54.714 34.0581C54.6033 34.1615 54.4861 34.2567 54.3631 34.3432C54.1635 34.4929 53.7467 34.8067 53.7118 34.9154Z" fill="#231F20"/>
<path d="M72.2357 38.0018H69.0412C69.0155 38.0018 68.9908 37.9909 68.9726 37.9715C68.9544 37.9522 68.9442 37.9259 68.9442 37.8984C68.9442 37.871 68.9544 37.8447 68.9726 37.8254C68.9908 37.806 69.0155 37.7951 69.0412 37.7951H72.2357C72.2614 37.7951 72.2861 37.806 72.3043 37.8254C72.3224 37.8447 72.3327 37.871 72.3327 37.8984C72.3327 37.9259 72.3224 37.9522 72.3043 37.9715C72.2861 37.9909 72.2614 38.0018 72.2357 38.0018Z" fill="#D1D3D4"/>
<path d="M72.2357 38.6806H69.0412C69.0155 38.6806 68.9908 38.6697 68.9726 38.6503C68.9544 38.631 68.9442 38.6047 68.9442 38.5773C68.9447 38.55 68.9551 38.524 68.9732 38.5047C68.9912 38.4855 69.0156 38.4744 69.0412 38.4739H72.2357C72.2614 38.4739 72.2861 38.4848 72.3043 38.5042C72.3224 38.5235 72.3327 38.5498 72.3327 38.5773C72.3327 38.6047 72.3224 38.631 72.3043 38.6503C72.2861 38.6697 72.2614 38.6806 72.2357 38.6806Z" fill="#D1D3D4"/>
<path d="M71.2665 39.3615H69.0412C69.0156 39.361 68.9912 39.3499 68.9732 39.3306C68.9551 39.3114 68.9447 39.2854 68.9442 39.2581C68.9442 39.2307 68.9544 39.2044 68.9726 39.185C68.9908 39.1656 69.0155 39.1548 69.0412 39.1548H71.2665C71.2922 39.1548 71.3169 39.1656 71.335 39.185C71.3532 39.2044 71.3634 39.2307 71.3634 39.2581C71.3634 39.2855 71.3532 39.3118 71.335 39.3312C71.3169 39.3506 71.2922 39.3615 71.2665 39.3615Z" fill="#D1D3D4"/>
<path d="M57.4589 29.1644H54.274C54.2484 29.1638 54.2241 29.1528 54.206 29.1335C54.1879 29.1142 54.1775 29.0882 54.177 29.061C54.177 29.0336 54.1873 29.0073 54.2054 28.9879C54.2236 28.9685 54.2483 28.9576 54.274 28.9576H57.4589C57.4846 28.9576 57.5092 28.9685 57.5274 28.9879C57.5456 29.0073 57.5558 29.0336 57.5558 29.061C57.5558 29.0884 57.5456 29.1147 57.5274 29.1341C57.5092 29.1535 57.4846 29.1644 57.4589 29.1644Z" fill="#D1D3D4"/>
<path d="M57.4589 29.8431H54.274C54.2483 29.8431 54.2236 29.8322 54.2054 29.8128C54.1873 29.7934 54.177 29.7671 54.177 29.7397C54.177 29.7123 54.1873 29.686 54.2054 29.6666C54.2236 29.6472 54.2483 29.6364 54.274 29.6364H57.4589C57.4846 29.6364 57.5092 29.6472 57.5274 29.6666C57.5456 29.686 57.5558 29.7123 57.5558 29.7397C57.5558 29.7671 57.5456 29.7934 57.5274 29.8128C57.5092 29.8322 57.4846 29.8431 57.4589 29.8431Z" fill="#D1D3D4"/>
<path d="M56.5071 30.5221H54.274C54.2483 30.5221 54.2236 30.5112 54.2054 30.4918C54.1873 30.4725 54.177 30.4462 54.177 30.4187C54.1775 30.3915 54.1879 30.3655 54.206 30.3462C54.2241 30.327 54.2484 30.3159 54.274 30.3154H56.5071C56.5328 30.3154 56.5574 30.3263 56.5756 30.3456C56.5938 30.365 56.604 30.3913 56.604 30.4187C56.604 30.4462 56.5938 30.4725 56.5756 30.4918C56.5574 30.5112 56.5328 30.5221 56.5071 30.5221Z" fill="#D1D3D4"/>
<path d="M66.4029 55.5067C66.62 54.071 68.8589 53.7265 68.7484 55.4103C68.7308 55.9945 68.5194 56.5535 68.1514 56.9895C67.9639 57.2019 67.721 57.3506 67.4536 57.4167C67.1861 57.4828 66.9061 57.4633 66.6491 57.3607" fill="white"/>
<path d="M67.1162 57.5679C66.9414 57.5696 66.7683 57.5319 66.6084 57.4571C66.5964 57.4515 66.5856 57.4434 66.5766 57.4333C66.5676 57.4233 66.5605 57.4114 66.5559 57.3985C66.5512 57.3855 66.5489 57.3717 66.5493 57.3578C66.5497 57.344 66.5526 57.3303 66.558 57.3177C66.5633 57.305 66.5709 57.2936 66.5805 57.2841C66.59 57.2745 66.6012 57.2671 66.6134 57.2621C66.6257 57.2572 66.6387 57.2548 66.6518 57.2552C66.6649 57.2556 66.6778 57.2587 66.6898 57.2644C66.9279 57.3596 67.1875 57.3773 67.4352 57.3152C67.6829 57.253 67.9073 57.1139 68.0796 56.9157C68.4305 56.497 68.6315 55.9614 68.6476 55.4021C68.7019 54.5818 68.1746 54.4259 67.9459 54.3992C67.6167 54.366 67.2875 54.4623 67.0211 54.6696C66.7547 54.8769 66.5698 55.1807 66.5017 55.5231C66.4999 55.5369 66.4954 55.5501 66.4886 55.5619C66.4817 55.5738 66.4727 55.5841 66.462 55.5921C66.4513 55.6002 66.4392 55.6059 66.4264 55.6088C66.4135 55.6117 66.4003 55.6119 66.3874 55.6093C66.3612 55.6047 66.3378 55.5895 66.3222 55.5668C66.3066 55.5442 66.3001 55.516 66.304 55.4883C66.3783 55.0909 66.5903 54.7372 66.8984 54.4967C67.2064 54.2561 67.5883 54.146 67.9691 54.188C68.4286 54.2434 68.9015 54.5982 68.8473 55.4185C68.8269 56.0258 68.6061 56.6064 68.2231 57.0593C67.9323 57.3771 67.5343 57.56 67.1162 57.5679Z" fill="#231F20"/>
<path d="M60.824 55.5067C60.6069 54.071 58.368 53.7265 58.4785 55.4103C58.4961 55.9945 58.7075 56.5535 59.0755 56.9895C59.263 57.2019 59.5059 57.3506 59.7734 57.4167C60.0408 57.4828 60.3208 57.4633 60.5778 57.3607" fill="white"/>
<path d="M60.1107 57.568C59.6932 57.5611 59.2953 57.3798 59.0038 57.0634C58.6208 56.6106 58.4 56.03 58.3796 55.4227C58.3254 54.6023 58.7964 54.2496 59.2578 54.1922C59.6385 54.1507 60.0202 54.2609 60.3281 54.5014C60.6361 54.7419 60.8482 55.0953 60.9229 55.4924C60.9268 55.5202 60.9203 55.5484 60.9047 55.571C60.8891 55.5937 60.8657 55.6089 60.8395 55.6134C60.8267 55.6161 60.8134 55.6159 60.8006 55.613C60.7877 55.61 60.7756 55.6044 60.7649 55.5963C60.7542 55.5883 60.7452 55.578 60.7384 55.5661C60.7315 55.5543 60.727 55.5411 60.7252 55.5273C60.6571 55.1845 60.4719 54.8804 60.2051 54.673C59.9383 54.4657 59.6086 54.3697 59.2791 54.4034C59.0504 54.4301 58.5231 54.5839 58.5774 55.4063C58.594 55.9652 58.7957 56.5003 59.1473 56.9178C59.3192 57.1166 59.5436 57.2563 59.7913 57.3188C60.0391 57.3813 60.2989 57.3638 60.5371 57.2685C60.5613 57.2571 60.5888 57.2563 60.6135 57.2663C60.6382 57.2763 60.6582 57.2963 60.669 57.3219C60.6798 57.3474 60.6805 57.3765 60.6711 57.4026C60.6616 57.4288 60.6427 57.4499 60.6186 57.4613C60.4584 57.5346 60.2852 57.571 60.1107 57.568Z" fill="#231F20"/>
<path d="M67.2675 55.6113L66.8798 51.4151C66.8798 51.4151 65.8039 50.0164 63.6077 50.0164C61.4114 50.0164 60.3355 51.4151 60.3355 51.4151L60.1708 55.1211C60.1708 56.9485 60.6147 58.0457 61.2873 58.6713L61.1148 62.6377C61.1148 62.6377 61.7215 64.0344 63.4894 64.0344C63.9824 64.0489 64.4706 63.9278 64.9061 63.683C65.3417 63.4382 65.7098 63.078 65.9745 62.6377L65.8194 59.0466C66.5095 58.62 67.0135 57.6807 67.2675 55.6113Z" fill="white"/>
<path d="M63.6135 50.0162C65.8097 50.0162 66.8856 51.4149 66.8856 51.4149L67.2733 55.6111C67.0193 57.6805 66.5153 58.6198 65.8311 59.0464L65.9861 62.6375C65.7215 63.0778 65.3533 63.438 64.9178 63.6828C64.4822 63.9276 63.9941 64.0487 63.501 64.0342C61.7332 64.0342 61.1264 62.6375 61.1264 62.6375L61.299 58.6711C60.6263 58.0558 60.1824 56.9483 60.1824 55.1209L60.3472 51.4149C60.3472 51.4149 61.4211 50.0162 63.6193 50.0162M63.6193 49.8111C61.3532 49.8111 60.2386 51.2303 60.1921 51.2898C60.1644 51.3251 60.1487 51.3691 60.1475 51.4149L59.9827 55.1189C59.9827 56.8047 60.3569 58.0291 61.0935 58.7674L60.9268 62.6375C60.9264 62.6708 60.9331 62.7037 60.9462 62.7339C60.9733 62.7975 61.6266 64.2536 63.501 64.2536C64.03 64.2705 64.554 64.1404 65.0206 63.8763C65.4872 63.6121 65.8803 63.2232 66.1606 62.7483C66.1785 62.7138 66.1872 62.6748 66.1858 62.6355L66.0327 59.1592C66.7925 58.6177 67.2364 57.5184 67.4671 55.6377C67.4681 55.622 67.4681 55.6063 67.4671 55.5906L67.0794 51.3964C67.0761 51.3542 67.0606 51.3141 67.0348 51.2816C66.9883 51.2221 65.8718 49.8029 63.6077 49.8029L63.6193 49.8111Z" fill="#231F20"/>
<path d="M71.7181 64.7194C69.5335 61.5282 65.7903 61.2451 63.5514 61.2451C61.3125 61.2451 57.5693 61.5282 55.3847 64.7194C53.2 67.9106 53.3028 73.8952 53.3028 73.8952H73.7981C73.7981 73.8952 73.9027 67.9106 71.7181 64.7194Z" fill="#231F20"/>
<path d="M73.7981 73.9976H53.3028C53.2776 73.9971 53.2535 73.9864 53.2355 73.9678C53.2174 73.9491 53.2069 73.9238 53.2059 73.8971C53.2059 73.8356 53.1264 67.8408 55.3052 64.668C57.7128 61.1507 62.1073 61.1507 63.5514 61.1507C69.3881 61.1507 71.2006 63.7984 71.7957 64.668C73.9745 67.849 73.897 73.8438 73.895 73.8971C73.8945 73.924 73.8841 73.9495 73.866 73.9683C73.8478 73.9871 73.8235 73.9976 73.7981 73.9976ZM53.3997 73.7925H73.7012C73.7012 72.9947 73.6256 67.6808 71.6387 64.7685C69.5335 61.6921 66.0171 61.3373 63.5514 61.3373C61.0857 61.3373 57.5693 61.6921 55.4622 64.7685C53.4753 67.6808 53.3997 72.9947 53.3997 73.7925Z" fill="#231F20"/>
<path d="M56.8269 72.15C56.8023 72.1501 56.7785 72.1405 56.7602 72.1231C56.7419 72.1056 56.7305 72.0816 56.728 72.0557L56.0554 65.1236C56.059 65.1004 56.0697 65.079 56.0858 65.0629C56.102 65.0468 56.1228 65.0368 56.1449 65.0345C56.167 65.0322 56.1892 65.0376 56.2081 65.05C56.2269 65.0624 56.2414 65.0811 56.2492 65.1031L56.9219 72.0331C56.9246 72.0611 56.9168 72.0891 56.9001 72.111C56.8834 72.1329 56.8592 72.1469 56.8327 72.15H56.8269Z" fill="white"/>
<path d="M69.3377 73.9998H69.328C69.3019 73.9957 69.2784 73.9809 69.2624 73.9587C69.2465 73.9365 69.2394 73.9085 69.2427 73.8808L70.0472 67.5558C70.0489 67.542 70.0531 67.5287 70.0597 67.5166C70.0663 67.5046 70.075 67.4941 70.0855 67.4857C70.096 67.4773 70.1079 67.4712 70.1206 67.4677C70.1334 67.4642 70.1466 67.4635 70.1596 67.4655C70.1857 67.4696 70.2093 67.4843 70.2252 67.5066C70.2412 67.5288 70.2482 67.5568 70.2449 67.5845L69.4405 73.9095C69.4371 73.9354 69.4247 73.9591 69.4057 73.9758C69.3866 73.9925 69.3624 74.001 69.3377 73.9998Z" fill="white"/>
<path d="M59.6493 61.6701C59.6493 61.6701 59.7133 60.8268 60.0603 60.5929C60.4072 60.359 65.9745 59.9773 66.6219 60.5929C67.0185 61.0047 67.2497 61.5625 67.2674 62.1503C67.2674 62.1503 60.8201 61.5244 59.6493 61.6701Z" fill="#334A5E"/>
<path d="M68.0894 61.9713H68.0603C63.2374 60.3986 59.2074 61.9528 59.1667 61.9713C59.1409 61.9812 59.1126 61.9797 59.0879 61.9674C59.0632 61.9551 59.0441 61.9328 59.0348 61.9056C59.0256 61.8783 59.0269 61.8482 59.0386 61.822C59.0502 61.7958 59.0712 61.7756 59.0969 61.7658C59.1376 61.7493 63.2297 60.1683 68.1184 61.7658C68.1415 61.7728 68.1613 61.7885 68.1743 61.8099C68.1872 61.8313 68.1924 61.8569 68.1889 61.8821C68.1853 61.9072 68.1732 61.9301 68.1549 61.9465C68.1366 61.963 68.1133 61.9718 68.0894 61.9713Z" fill="#231F20"/>
<path d="M58.7169 56.1299C58.6587 56.3719 58.6006 56.616 58.5405 56.858C58.2362 58.0885 57.9008 59.3191 57.8853 60.5804C57.8698 61.8417 58.2148 63.1748 59.0833 64.0444C59.8703 64.832 60.9694 65.1457 62.0317 65.3754C63.125 65.6113 64.2551 65.7856 65.3581 65.599C66.461 65.4124 67.5466 64.8012 68.1068 63.7778C68.6883 62.7175 68.6263 61.3967 68.3995 60.1928C68.1126 58.6669 67.659 57.1882 67.6551 55.6315C67.6551 53.9457 67.721 52.227 67.2674 50.5904C67.06 49.8418 66.7169 49.0912 66.1044 48.6564C65.4918 48.2216 64.5536 48.2236 64.0961 48.8307C64.2318 48.6543 62.7392 48.2564 62.5977 48.2564C62.2189 48.2435 61.8457 48.3553 61.5296 48.5764C60.4421 49.2634 59.9362 50.092 59.7036 51.3943C59.4206 52.9845 59.0917 54.563 58.7169 56.1299Z" fill="white"/>
<path d="M64.3753 65.7859C63.5792 65.7672 62.787 65.6641 62.0104 65.4783C60.9248 65.2424 59.8083 64.9163 59.0154 64.1206C58.2226 63.3248 57.7671 62.0286 57.7845 60.5786C57.8 59.3994 58.0908 58.2385 58.3661 57.1146L58.4378 56.8316C58.4979 56.5896 58.556 56.3476 58.6142 56.1035C58.9864 54.5469 59.3198 52.9554 59.6028 51.3741C59.847 50.0082 60.3898 49.1714 61.4773 48.4864C61.8093 48.2554 62.2005 48.138 62.5977 48.1501C62.6559 48.1501 63.786 48.4044 64.1116 48.6546C64.6408 48.1029 65.5694 48.1521 66.1567 48.5685C66.7014 48.9561 67.0949 49.6083 67.3586 50.562C67.7579 51.9976 67.7462 53.5214 67.7462 54.9878V55.6318C67.7462 56.7455 67.9905 57.8489 68.225 58.9133C68.3162 59.3235 68.4092 59.7501 68.4887 60.1726C68.7794 61.7271 68.6825 62.9249 68.1843 63.8314C67.659 64.7912 66.6045 65.4906 65.3639 65.7039C65.0369 65.7592 64.7064 65.7866 64.3753 65.7859ZM58.8138 56.1569C58.7557 56.3989 58.6975 56.6429 58.6355 56.8849L58.5657 57.17C58.2866 58.2796 57.9997 59.426 57.9842 60.5807C57.9667 61.9733 58.3913 63.2079 59.1473 63.9667C59.9033 64.7256 60.9888 65.0414 62.0549 65.2711C63.1211 65.5008 64.2415 65.6813 65.3503 65.4947C66.5328 65.2896 67.535 64.6292 68.0293 63.7247C68.5022 62.8654 68.5934 61.7169 68.3123 60.2136C68.2328 59.7931 68.1397 59.3706 68.0486 58.9605C67.8122 57.8837 67.5679 56.7721 67.564 55.6318C67.564 55.4267 67.564 55.2032 67.564 54.9858C67.564 53.5358 67.564 52.0345 67.1763 50.6214C66.9263 49.717 66.5599 49.1017 66.0559 48.7448C65.5054 48.3531 64.6215 48.3223 64.1834 48.8966C64.1697 48.9141 64.1512 48.9266 64.1305 48.9322C64.1097 48.9378 64.0878 48.9362 64.0679 48.9278C64.048 48.9193 64.0312 48.9044 64.0199 48.8851C64.0086 48.8659 64.0034 48.8433 64.005 48.8207C63.8306 48.669 62.7411 48.3675 62.6035 48.3613C62.2439 48.3501 61.8898 48.4569 61.5897 48.6669C60.5584 49.3191 60.0389 50.1149 59.8083 51.4151C59.5253 52.9984 59.1918 54.5941 58.8177 56.1569H58.8138Z" fill="#231F20"/>
<path d="M34.1993 55.5067C34.4164 54.071 36.6553 53.7265 36.5448 55.4103C36.5272 55.9945 36.3158 56.5535 35.9478 56.9895C35.7603 57.2019 35.5174 57.3506 35.25 57.4167C34.9825 57.4828 34.7025 57.4633 34.4455 57.3607" fill="white"/>
<path d="M34.9126 57.5679C34.7378 57.5696 34.5647 57.5318 34.4048 57.4571C34.3808 57.4455 34.3621 57.4243 34.3526 57.3983C34.3432 57.3722 34.3438 57.3433 34.3544 57.3177C34.3596 57.3049 34.3672 57.2934 34.3767 57.2838C34.3862 57.2742 34.3974 57.2667 34.4097 57.2617C34.422 57.2568 34.4351 57.2544 34.4482 57.2549C34.4613 57.2553 34.4742 57.2585 34.4862 57.2643C34.7243 57.3596 34.9839 57.3773 35.2316 57.3152C35.4793 57.253 35.7037 57.1139 35.8761 56.9157C36.2273 56.4971 36.429 55.9616 36.446 55.4021C36.5002 54.5817 35.973 54.4259 35.7442 54.3992C35.4147 54.3655 35.085 54.4615 34.8182 54.6688C34.5514 54.8762 34.3663 55.1803 34.2981 55.5231C34.2973 55.5377 34.2935 55.552 34.2871 55.565C34.2807 55.578 34.2717 55.5894 34.2608 55.5985C34.25 55.6076 34.2374 55.6142 34.224 55.6178C34.2106 55.6215 34.1966 55.6221 34.1829 55.6196C34.1693 55.6172 34.1562 55.6117 34.1447 55.6036C34.1332 55.5954 34.1234 55.5848 34.116 55.5725C34.1085 55.5601 34.1037 55.5462 34.1017 55.5317C34.0997 55.5171 34.1006 55.5024 34.1043 55.4882C34.1782 55.091 34.3898 54.7374 34.6975 54.4968C35.0053 54.2562 35.3869 54.146 35.7675 54.188C36.2288 54.2433 36.6999 54.5981 36.6476 55.4185C36.6256 56.0258 36.4041 56.606 36.0214 57.0592C35.7302 57.3776 35.3313 57.5605 34.9126 57.5679Z" fill="#231F20"/>
<path d="M28.6204 55.5067C28.4033 54.071 26.1644 53.7265 26.2749 55.4103C26.2925 55.9945 26.5039 56.5535 26.8719 56.9895C27.0594 57.2019 27.3023 57.3506 27.5697 57.4167C27.8372 57.4828 28.1172 57.4633 28.3742 57.3607" fill="white"/>
<path d="M27.9071 57.568C27.4896 57.5611 27.0917 57.3798 26.8002 57.0634C26.4172 56.6106 26.1964 56.03 26.176 55.4227C26.1218 54.6023 26.5947 54.2496 27.0542 54.1922C27.4349 54.1507 27.8166 54.2609 28.1245 54.5014C28.4325 54.7419 28.6446 55.0953 28.7193 55.4924C28.7232 55.5202 28.7167 55.5484 28.7011 55.571C28.6855 55.5937 28.6621 55.6089 28.6359 55.6134C28.623 55.6161 28.6098 55.6159 28.597 55.613C28.5841 55.61 28.572 55.6044 28.5613 55.5963C28.5506 55.5883 28.5416 55.578 28.5347 55.5661C28.5279 55.5543 28.5234 55.5411 28.5216 55.5273C28.4542 55.1826 28.2685 54.8766 28.0004 54.6683C27.7322 54.4599 27.4007 54.3641 27.0697 54.3993C26.8409 54.426 26.3137 54.5798 26.3679 55.4022C26.3839 55.9609 26.5849 56.496 26.9359 56.9137C27.1079 57.1125 27.3322 57.2522 27.58 57.3147C27.8277 57.3772 28.0875 57.3597 28.3258 57.2644C28.3377 57.2588 28.3506 57.2557 28.3637 57.2553C28.3768 57.2549 28.3899 57.2573 28.4021 57.2622C28.4144 57.2672 28.4256 57.2746 28.4351 57.2841C28.4446 57.2937 28.4523 57.3051 28.4576 57.3178C28.4629 57.3304 28.4659 57.3441 28.4662 57.3579C28.4666 57.3718 28.4644 57.3856 28.4597 57.3985C28.455 57.4115 28.448 57.4233 28.439 57.4334C28.43 57.4435 28.4192 57.4516 28.4072 57.4572C28.2497 57.5308 28.0793 57.5685 27.9071 57.568Z" fill="#231F20"/>
<path d="M35.0638 55.6113L34.6761 51.4151C34.6761 51.4151 33.6022 50.0164 31.404 50.0164C29.2058 50.0164 28.1319 51.4151 28.1319 51.4151L27.9691 55.1211C27.9691 56.9485 28.4111 58.0457 29.0837 58.6713L28.9131 62.6377C28.9131 62.6377 29.5179 64.0344 31.2858 64.0344C31.7788 64.0489 32.2669 63.9278 32.7025 63.683C33.1381 63.4382 33.5062 63.078 33.7709 62.6377L33.6158 59.0466C34.3059 58.62 34.8099 57.6807 35.0638 55.6113Z" fill="white"/>
<path d="M31.4099 50.0165C33.6081 50.0165 34.682 51.4152 34.682 51.4152L35.0697 55.6114C34.8157 57.6808 34.3117 58.6201 33.6275 59.0467L33.7825 62.6378C33.5179 63.0782 33.1497 63.4383 32.7142 63.6831C32.2786 63.9279 31.7905 64.049 31.2974 64.0345C29.5296 64.0345 28.9248 62.6378 28.9248 62.6378L29.0954 58.6714C28.4227 58.0561 27.9807 56.9486 27.9807 55.1212L28.1436 51.4152C28.1436 51.4152 29.2194 50.0165 31.4157 50.0165M31.4157 49.8114C29.1496 49.8114 28.035 51.2306 27.9885 51.2901C27.9608 51.3254 27.9451 51.3694 27.9439 51.4152L27.7791 55.1192C27.7791 56.805 28.1533 58.0294 28.8918 58.7678L28.7251 62.6378C28.7235 62.671 28.7294 62.7041 28.7426 62.7342C28.7697 62.7978 29.423 64.254 31.2974 64.254C31.8266 64.2704 32.3507 64.1401 32.8175 63.876C33.2844 63.6119 33.6779 63.2233 33.9589 62.7486C33.9762 62.7139 33.9842 62.6749 33.9822 62.6358L33.8329 59.1677C34.5928 58.6262 35.0367 57.527 35.2693 55.6463C35.2713 55.6306 35.2713 55.6147 35.2693 55.5991L34.8816 51.405C34.8784 51.3627 34.8628 51.3226 34.8371 51.2901C34.7905 51.2306 33.674 49.8114 31.4099 49.8114H31.4157Z" fill="#231F20"/>
<path d="M27.5039 56.3947C27.9982 56.7925 28.5351 57.0776 28.7484 57.8303C28.7712 57.944 28.8146 58.052 28.8763 58.1482C28.9368 58.219 29.0127 58.2731 29.0973 58.3061C29.3344 58.4149 29.591 58.4681 29.8494 58.462C29.9532 58.442 30.0601 58.4484 30.1611 58.4804C30.2622 58.5125 30.3547 58.5694 30.431 58.6466C30.6523 58.7975 30.9055 58.888 31.168 58.9102C31.4304 58.9324 31.694 58.8855 31.9352 58.7737C32.0536 58.6998 32.186 58.6543 32.3229 58.6404C32.4496 58.6598 32.5733 58.6963 32.6912 58.7491C33.2572 58.907 33.7321 58.4312 34.1024 58.058C34.2962 57.8631 34.4029 57.8344 34.5075 57.5637C34.6122 57.293 34.4765 57.0017 34.6742 56.7679C34.7531 56.6875 34.8418 56.6185 34.9379 56.5628C35.3081 56.2921 35.4438 55.7876 35.5504 55.3323C35.689 54.8222 35.7735 54.2973 35.8024 53.7674C35.7826 53.5569 35.8161 53.3445 35.8993 53.1522C35.9588 53.0644 36.0235 52.9808 36.0932 52.902C36.1822 52.7868 36.2426 52.65 36.269 52.5038C36.2954 52.3577 36.287 52.207 36.2444 52.0652C36.1707 51.8314 36.006 51.6283 35.9866 51.3822C35.9769 51.2469 36.0137 51.1095 36.0079 50.972C35.9885 50.529 35.5562 50.2542 35.1782 50.0614C35.2635 49.2165 34.2265 49.1262 33.7205 48.8309C33.405 48.6109 33.0379 48.488 32.6602 48.4761C32.4334 48.4884 32.2163 48.5766 31.9914 48.5991C31.4583 48.6545 30.8787 48.3612 30.4058 48.6299C30.276 48.73 30.1363 48.8146 29.989 48.8822C29.832 48.9115 29.6709 48.9059 29.516 48.8657C29.0102 48.8053 28.5018 48.952 28.0951 49.2759C27.8144 49.5808 27.5553 49.9071 27.3197 50.2522C27.1642 50.2707 27.0142 50.3241 26.8797 50.4089C26.7452 50.4936 26.6293 50.6077 26.5398 50.7436C26.4502 50.8794 26.3891 51.0339 26.3605 51.1967C26.3319 51.3596 26.3364 51.527 26.3738 51.6878C26.3993 51.7594 26.4175 51.8336 26.428 51.9093C26.4276 51.9946 26.4165 52.0794 26.3951 52.1616C26.3655 52.3471 26.3792 52.5375 26.435 52.7162C26.4907 52.8949 26.5868 53.0565 26.7149 53.187C26.6107 53.2864 26.528 53.4085 26.4727 53.545C26.4174 53.6814 26.3908 53.8289 26.3946 53.9774C26.3985 54.1258 26.4328 54.2715 26.4951 54.4045C26.5575 54.5376 26.6463 54.6547 26.7556 54.7478C26.7105 54.9626 26.7154 55.1857 26.7702 55.398C26.8249 55.6103 26.9277 55.8053 27.0697 55.966C27.1997 56.1248 27.3452 56.2684 27.5039 56.3947Z" fill="white"/>
<path d="M31.3052 59.0158C30.978 59.0175 30.6574 58.9184 30.3825 58.7307L30.3263 58.6897C30.2679 58.6406 30.2025 58.6018 30.1324 58.5748C30.0605 58.5584 29.9867 58.5535 29.9134 58.5605H29.8552C29.5821 58.5686 29.3107 58.5126 29.0605 58.3964C28.9618 58.3566 28.8735 58.2926 28.8026 58.2098C28.7381 58.1178 28.6931 58.0122 28.6708 57.9001L28.6573 57.8549C28.4886 57.2684 28.1087 56.9813 27.7035 56.6757C27.6182 56.6121 27.533 56.5465 27.4477 56.4706C27.279 56.3405 27.1242 56.1913 26.9863 56.0255C26.8463 55.8603 26.7429 55.6641 26.6839 55.4512C26.6249 55.2382 26.6116 55.014 26.6451 54.795C26.4377 54.5896 26.3142 54.3067 26.3008 54.0064C26.2874 53.7062 26.3852 53.4122 26.5734 53.1871C26.4578 53.0459 26.3728 52.8797 26.3246 52.7C26.2764 52.5203 26.266 52.3316 26.2943 52.1472L26.3059 52.0857C26.3186 52.0313 26.3251 51.9756 26.3253 51.9196C26.3184 51.8712 26.3068 51.8238 26.2904 51.7781L26.2749 51.7227C26.2344 51.5505 26.2284 51.3712 26.2571 51.1964C26.2858 51.0215 26.3487 50.8549 26.4418 50.7073C26.5348 50.5596 26.656 50.4341 26.7975 50.3388C26.939 50.2435 27.0977 50.1805 27.2635 50.1537C27.5009 49.8147 27.76 49.4934 28.0389 49.1919C28.4649 48.8504 28.9984 48.6948 29.5296 48.7571L29.6168 48.7714C29.7161 48.805 29.8221 48.8106 29.924 48.7875C30.026 48.7645 30.1206 48.7137 30.1983 48.6402C30.2501 48.6009 30.3038 48.5646 30.3592 48.5315C30.6771 48.351 31.0319 48.4023 31.375 48.4515C31.5752 48.4886 31.7787 48.5017 31.9817 48.4905C32.0816 48.4777 32.1806 48.4586 32.2783 48.433C32.4022 48.3992 32.5287 48.3772 32.6563 48.3674C33.0518 48.3792 33.4366 48.5054 33.769 48.7325C33.9139 48.8095 34.0643 48.8746 34.2187 48.9273C34.7033 49.1098 35.3062 49.3375 35.2829 49.9897C35.6706 50.1948 36.0854 50.486 36.1068 50.9598C36.1082 51.0283 36.105 51.0968 36.0971 51.1649C36.0905 51.2296 36.0905 51.2949 36.0971 51.3597C36.117 51.4935 36.1618 51.6217 36.2289 51.7371C36.2767 51.8268 36.3169 51.9208 36.3491 52.018C36.3962 52.1769 36.4055 52.3456 36.3761 52.5091C36.3466 52.6726 36.2794 52.8259 36.1804 52.9553C36.1548 52.9882 36.1277 53.0197 36.099 53.0496C36.0576 53.0939 36.0199 53.1419 35.9866 53.1932C35.9192 53.3462 35.8911 53.5153 35.9052 53.6834V53.7552C35.8767 54.2933 35.7915 54.8265 35.6512 55.3446C35.5291 55.8676 35.3876 56.3701 34.998 56.6429C34.9708 56.6634 34.9417 56.6818 34.9127 56.7003C34.8536 56.7344 34.7995 56.7772 34.7518 56.8274C34.6744 56.9406 34.6404 57.0806 34.6568 57.2192C34.6621 57.346 34.6443 57.4727 34.6044 57.5924C34.546 57.7565 34.4436 57.8991 34.3098 58.0026C34.2691 58.0375 34.2265 58.0764 34.1761 58.1277C33.8019 58.503 33.2921 59.0178 32.6699 58.8435C32.6233 58.8291 32.5788 58.8127 32.5322 58.7943C32.4579 58.7513 32.3735 58.7318 32.289 58.738C32.2045 58.7442 32.1234 58.7758 32.0554 58.8291L31.9875 58.8619C31.773 58.964 31.5404 59.0164 31.3052 59.0158ZM29.9967 58.3472C30.062 58.3448 30.1273 58.3524 30.1906 58.3697C30.2832 58.4037 30.3702 58.4528 30.4484 58.5153L30.5007 58.5543C30.7075 58.6953 30.9441 58.7799 31.1893 58.8007C31.4345 58.8214 31.6808 58.7777 31.9061 58.6733L31.972 58.6404C32.0826 58.5783 32.2039 58.5406 32.3287 58.5297C32.4241 58.5364 32.5178 58.5599 32.6059 58.5994C32.6446 58.6159 32.6841 58.6303 32.7241 58.6425C33.2359 58.7861 33.6817 58.339 34.0384 57.978C34.0927 57.9226 34.1412 57.8816 34.1838 57.8447C34.2922 57.7641 34.3748 57.6503 34.4203 57.5186C34.4505 57.4236 34.4636 57.3234 34.4591 57.2233C34.4416 57.0337 34.4936 56.8442 34.6044 56.6941C34.6637 56.627 34.7331 56.5708 34.8099 56.528L34.8855 56.4747C35.2189 56.2327 35.3469 55.7815 35.4671 55.2995C35.6037 54.7968 35.6869 54.2795 35.7152 53.7572V53.6875C35.6997 53.4807 35.7386 53.2734 35.8276 53.0886C35.8666 53.0236 35.9128 52.9637 35.9652 52.9102L36.037 52.8261C36.1146 52.7243 36.1672 52.6039 36.1902 52.4755C36.2132 52.347 36.2058 52.2145 36.1688 52.0898C36.1387 52.0043 36.1024 51.9213 36.0602 51.8417C35.9813 51.7013 35.9292 51.5459 35.9071 51.3843C35.9002 51.3058 35.9002 51.2269 35.9071 51.1484C35.9149 51.0893 35.9182 51.0297 35.9168 50.97C35.8993 50.5824 35.4961 50.3281 35.1414 50.1496C35.1228 50.1401 35.1075 50.1248 35.0974 50.1057C35.0874 50.0866 35.0831 50.0647 35.0852 50.043C35.1395 49.4975 34.6393 49.3108 34.1567 49.1283C33.9924 49.0729 33.8323 49.0043 33.6779 48.9232C33.3788 48.7134 33.0305 48.5955 32.6718 48.5827C32.5553 48.5927 32.4399 48.6133 32.3268 48.6443C32.2214 48.6714 32.1146 48.692 32.0069 48.7058C31.7884 48.7188 31.5692 48.705 31.3537 48.6648C31.028 48.6176 30.7198 48.5725 30.4581 48.7222C30.4093 48.7517 30.3621 48.7839 30.3166 48.8186C30.2284 48.8919 30.1286 48.9481 30.0219 48.9847C29.8807 49.0165 29.7348 49.0165 29.5935 48.9847L29.5082 48.9704C29.0228 48.9162 28.5364 49.0632 28.1513 49.3806C27.8847 49.6723 27.6355 49.9812 27.405 50.3055C27.3983 50.3245 27.3864 50.3411 27.3709 50.3531C27.3554 50.3651 27.337 50.3721 27.3178 50.3732C27.1774 50.3911 27.0421 50.4402 26.9208 50.5173C26.7996 50.5943 26.6951 50.6976 26.6142 50.8204C26.5333 50.9431 26.4779 51.0826 26.4515 51.2296C26.4251 51.3766 26.4283 51.5279 26.461 51.6735L26.4765 51.7227C26.4996 51.7888 26.5146 51.8577 26.5211 51.9278C26.5226 52.0031 26.5148 52.0782 26.4978 52.1513L26.4862 52.2067C26.4618 52.3746 26.4759 52.5462 26.5272 52.7071C26.5784 52.8681 26.6654 53.0136 26.7808 53.1317C26.7914 53.1416 26.7997 53.154 26.8051 53.1679C26.8105 53.1817 26.8128 53.1967 26.8119 53.2117C26.8119 53.2268 26.8086 53.2417 26.8022 53.2553C26.7958 53.2688 26.7865 53.2806 26.775 53.2896C26.6837 53.3795 26.6115 53.489 26.5633 53.6108C26.5151 53.7325 26.4919 53.8638 26.4954 53.9957C26.4989 54.1277 26.5289 54.2573 26.5835 54.3761C26.6381 54.4948 26.7159 54.5998 26.8119 54.6842C26.8281 54.6969 26.8404 54.7144 26.8473 54.7345C26.8542 54.7545 26.8553 54.7763 26.8506 54.797C26.8103 54.9926 26.8152 55.1955 26.8648 55.3887C26.9144 55.5818 27.0073 55.7595 27.1356 55.9066C27.2642 56.059 27.4078 56.1965 27.564 56.3168C27.6473 56.3844 27.7326 56.448 27.816 56.5116C28.2308 56.8233 28.6573 57.1453 28.8453 57.8016L28.8589 57.8488C28.8745 57.9336 28.9069 58.014 28.9538 58.0846C29.0055 58.1401 29.0676 58.1834 29.1361 58.2118C29.3605 58.3141 29.6032 58.3637 29.8475 58.3574H29.9967V58.3472Z" fill="#231F20"/>
<path d="M27.4457 61.6701C27.4457 61.6701 27.5097 60.8268 27.8586 60.5929C28.2075 60.359 33.7728 59.9773 34.4183 60.5929C34.8149 61.0047 35.0461 61.5625 35.0639 62.1503C35.0639 62.1503 28.6204 61.5244 27.4457 61.6701Z" fill="#334A5E"/>
<path d="M39.515 64.7194C37.3303 61.5282 33.5872 61.2451 31.3482 61.2451C29.1093 61.2451 25.3662 61.5282 23.1815 64.7194C20.9969 67.9106 21.0996 73.8952 21.0996 73.8952H41.5949C41.5949 73.8952 41.6996 67.9106 39.515 64.7194Z" fill="white"/>
<path d="M41.5945 73.9998H21.0992C21.0863 74.0001 21.0735 73.9977 21.0616 73.9926C21.0496 73.9876 21.0387 73.9801 21.0294 73.9705C21.0202 73.961 21.0129 73.9496 21.0079 73.937C21.0029 73.9244 21.0004 73.9109 21.0004 73.8973C21.0004 73.8358 20.9209 67.8389 23.0997 64.6579C25.5189 61.1303 29.9037 61.1303 31.3479 61.1303C37.1865 61.1303 38.9989 63.7801 39.596 64.6497C41.7748 67.8307 41.6973 73.8276 41.6953 73.8891C41.6961 73.9035 41.6941 73.918 41.6894 73.9315C41.6847 73.9451 41.6773 73.9574 41.6679 73.9678C41.6584 73.9782 41.647 73.9864 41.6344 73.992C41.6217 73.9975 41.6082 74.0002 41.5945 73.9998ZM21.2 73.7948H41.4957C41.4957 72.9867 41.4162 67.683 39.4332 64.7871C37.328 61.7108 33.8116 61.358 31.3479 61.358C28.8841 61.358 25.3677 61.7128 23.2626 64.7871C21.2776 67.6789 21.2 72.9805 21.2 73.7886V73.7948Z" fill="#231F20"/>
<path d="M25.4375 73.9995C25.4124 74.0001 25.3881 73.9904 25.3697 73.9724C25.3513 73.9544 25.3401 73.9296 25.3386 73.9031L24.8153 66.5814C24.8131 66.5534 24.8215 66.5256 24.8385 66.5041C24.8556 66.4826 24.8799 66.4691 24.9064 66.4665C24.933 66.4648 24.9592 66.4741 24.9795 66.4925C24.9997 66.5108 25.0124 66.5368 25.0149 66.565L25.5383 73.8867C25.5399 73.9147 25.531 73.9422 25.5136 73.9633C25.4962 73.9844 25.4717 73.9974 25.4453 73.9995H25.4375Z" fill="#231F20"/>
<path d="M37.6808 73.9999C37.6678 73.9989 37.6551 73.9951 37.6435 73.9889C37.6319 73.9827 37.6215 73.9741 37.6131 73.9636C37.6046 73.9531 37.5982 73.941 37.5942 73.9278C37.5902 73.9147 37.5886 73.9009 37.5897 73.8871L38.1189 66.7787C38.1199 66.7649 38.1234 66.7515 38.1293 66.7392C38.1352 66.7269 38.1433 66.716 38.1533 66.707C38.1632 66.698 38.1746 66.6912 38.187 66.687C38.1994 66.6827 38.2125 66.6811 38.2255 66.6823C38.2387 66.683 38.2516 66.6866 38.2634 66.6927C38.2753 66.6988 38.2858 66.7074 38.2945 66.7179C38.3032 66.7284 38.3098 66.7407 38.3139 66.7539C38.318 66.7672 38.3196 66.7812 38.3186 66.7951L37.7874 73.9035C37.7864 73.9173 37.7829 73.9307 37.777 73.943C37.7711 73.9553 37.763 73.9662 37.7531 73.9752C37.7432 73.9842 37.7317 73.991 37.7193 73.9952C37.7069 73.9994 37.6938 74.0011 37.6808 73.9999Z" fill="#231F20"/>
<path d="M52.4383 56.8109C52.6554 55.3753 54.8943 55.0328 54.7838 56.7145C54.7668 57.2989 54.5554 57.8582 54.1868 58.2937C53.9994 58.5063 53.7566 58.6552 53.4892 58.7216C53.2217 58.7881 52.9417 58.7691 52.6845 58.667" fill="white"/>
<path d="M53.1516 58.8743C52.9768 58.8752 52.8038 58.8375 52.6437 58.7635C52.6316 58.7577 52.6206 58.7495 52.6116 58.7393C52.6025 58.729 52.5954 58.717 52.5907 58.7038C52.586 58.6907 52.5838 58.6767 52.5843 58.6626C52.5847 58.6486 52.5878 58.6348 52.5933 58.622C52.6043 58.5966 52.6243 58.5768 52.6489 58.5669C52.6735 58.5569 52.7009 58.5575 52.7251 58.5687C52.9632 58.6639 53.2228 58.6816 53.4705 58.6195C53.7182 58.5574 53.9426 58.4182 54.115 58.22C54.4658 57.8013 54.6668 57.2657 54.6829 56.7064C54.7372 55.8861 54.21 55.7322 53.9812 55.7035C53.3997 55.6318 52.6514 56.0748 52.5371 56.8274C52.5328 56.8551 52.5184 56.8798 52.497 56.8963C52.4756 56.9128 52.4489 56.9198 52.4227 56.9156C52.3966 56.9111 52.3732 56.8958 52.3576 56.8732C52.342 56.8506 52.3354 56.8223 52.3393 56.7946C52.4133 56.397 52.6251 56.0431 52.9333 55.8024C53.2415 55.5618 53.6236 55.4519 54.0045 55.4943C54.4639 55.5497 54.9369 55.9045 54.8826 56.7249C54.8627 57.3327 54.641 57.9136 54.2565 58.3656C54.113 58.5232 53.9416 58.6493 53.752 58.7365C53.5624 58.8238 53.3583 58.8706 53.1516 58.8743Z" fill="#231F20"/>
<path d="M46.8574 56.8109C46.6422 55.3753 44.4033 55.0328 44.5138 56.7145C44.5291 57.2993 44.7408 57.8591 45.1109 58.2937C45.2983 58.5063 45.541 58.6552 45.8085 58.7216C46.0759 58.7881 46.356 58.7691 46.6132 58.667" fill="white"/>
<path d="M46.146 58.8743C45.9391 58.871 45.7348 58.8246 45.5449 58.7376C45.355 58.6507 45.1831 58.525 45.0391 58.3677C44.6562 57.9147 44.4347 57.3344 44.413 56.727C44.3587 55.9066 44.8317 55.5559 45.2911 55.4964C45.672 55.454 46.0542 55.5639 46.3623 55.8045C46.6705 56.0452 46.8824 56.3991 46.9563 56.7967C46.9585 56.8103 46.9581 56.8243 46.9552 56.8377C46.9524 56.8512 46.947 56.8639 46.9394 56.8752C46.9318 56.8864 46.9222 56.896 46.9112 56.9033C46.9001 56.9106 46.8877 56.9155 46.8749 56.9177C46.8484 56.9219 46.8215 56.915 46.7998 56.8986C46.7781 56.8821 46.7633 56.8574 46.7586 56.8295C46.6461 56.0789 45.9076 55.6339 45.3144 55.7056C45.0857 55.7344 44.5584 55.8882 44.6127 56.7085C44.6287 57.2682 44.8305 57.8041 45.1826 58.2221C45.3546 58.4202 45.5787 58.5592 45.8261 58.6213C46.0734 58.6835 46.3327 58.6659 46.5705 58.5708C46.5833 58.565 46.5969 58.5619 46.6108 58.5617C46.6246 58.5615 46.6384 58.5642 46.6513 58.5696C46.6641 58.5751 46.6759 58.5831 46.6858 58.5933C46.6957 58.6036 46.7037 58.6158 46.7091 58.6292C46.7146 58.6427 46.7175 58.6572 46.7177 58.6718C46.7179 58.6865 46.7153 58.701 46.7102 58.7147C46.7051 58.7283 46.6975 58.7407 46.6878 58.7512C46.6781 58.7617 46.6666 58.7701 46.6539 58.7759C46.4928 58.8454 46.3199 58.8789 46.146 58.8743Z" fill="#231F20"/>
<path d="M53.3028 56.9176L52.9151 52.7214C52.9151 52.7214 51.8393 51.3206 49.643 51.3206C47.4467 51.3206 46.3767 52.7214 46.3767 52.7214L46.2119 56.4254C46.2119 58.2527 46.6539 59.35 47.3266 59.9755L47.156 63.944C47.156 63.944 47.7627 65.3407 49.5306 65.3407C50.0235 65.3548 50.5115 65.2335 50.947 64.9888C51.3825 64.744 51.7507 64.3841 52.0157 63.944L51.8606 60.3508C52.5449 59.9242 53.045 58.987 53.3028 56.9176Z" fill="white"/>
<path d="M49.6488 51.3209C51.8451 51.3209 52.9209 52.7217 52.9209 52.7217L53.3086 56.9179C53.0547 58.9873 52.5507 59.9245 51.8664 60.3511L52.0215 63.9443C51.7565 64.3844 51.3883 64.7443 50.9528 64.989C50.5173 65.2338 50.0293 65.3551 49.5364 65.341C47.7685 65.341 47.1618 63.9443 47.1618 63.9443L47.3324 59.9758C46.6597 59.3503 46.2177 58.253 46.2177 56.4257L46.3767 52.7217C46.3767 52.7217 47.4506 51.3209 49.6488 51.3209ZM49.6488 51.1158C47.3828 51.1158 46.2662 52.533 46.2216 52.5945C46.1944 52.6293 46.1787 52.6725 46.177 52.7176L46.0123 56.4134C46.0123 58.1013 46.3864 59.3257 47.123 60.064L46.9563 63.932C46.9553 63.9658 46.9613 63.9994 46.9737 64.0305C47.0009 64.092 47.6561 65.5502 49.5306 65.5502C50.0597 65.5669 50.5838 65.4364 51.0504 65.1719C51.5171 64.9074 51.9101 64.5181 52.1901 64.0428C52.2082 64.0091 52.217 63.9707 52.2153 63.932L52.0758 60.4639C52.8337 59.9245 53.2795 58.8232 53.5102 56.9445C53.5122 56.9289 53.5122 56.913 53.5102 56.8974L53.1225 52.7012C53.1194 52.6599 53.1045 52.6206 53.0799 52.5884C53.0334 52.5269 51.9168 51.1097 49.6527 51.1097L49.6488 51.1158Z" fill="#231F20"/>
<path d="M45.9987 57.2479C46.0685 57.453 46.1421 57.6438 46.2216 57.8386C46.4155 58.3001 46.9524 58.8395 47.2064 59.2742C47.5107 59.787 47.4681 59.6844 48.0147 59.7398C49.2041 59.8751 50.403 59.8895 51.595 59.7829C51.8761 59.7583 52.1766 59.7131 52.3704 59.4957C52.4636 59.3742 52.534 59.235 52.5778 59.0856C53.0353 57.855 53.4508 56.6053 53.8243 55.3365C53.9943 54.8229 54.0539 54.2757 53.9987 53.7347C53.9871 53.5912 53.9134 52.3729 53.611 52.4837C53.8049 52.4098 54.0724 52.5472 54.2779 52.6047C54.0355 52.0119 53.5277 51.3741 52.9209 51.3987C53.0586 50.5476 52.3064 49.9733 51.5388 49.6821C50.7712 49.3909 49.926 49.5016 49.1196 49.6349C48.4027 49.7227 47.7011 49.9174 47.0358 50.2133C45.7758 50.8286 44.9636 52.5267 45.2059 54.0013C45.3762 55.1068 45.6416 56.1935 45.9987 57.2479Z" fill="white"/>
<path d="M50.023 59.9511C49.3482 59.9508 48.674 59.9125 48.0031 59.8363L47.7666 59.8158C47.4235 59.7912 47.3789 59.7583 47.1211 59.3215C46.9976 59.1294 46.8637 58.9452 46.7198 58.7698C46.4898 58.5022 46.2943 58.2036 46.1383 57.8818C46.0607 57.689 45.9851 57.488 45.9134 57.2849C45.5543 56.2247 45.2882 55.1318 45.1187 54.0199C44.8705 52.5084 45.7176 50.7569 47.0048 50.1231C47.6775 49.8231 48.3869 49.625 49.1119 49.5345C49.9318 49.3992 50.7964 49.2905 51.5795 49.5878C52.5488 49.955 53.0896 50.5887 53.0411 51.2983C53.6614 51.3455 54.1461 51.9956 54.3787 52.5658C54.3863 52.5839 54.3888 52.6039 54.3861 52.6235C54.3834 52.6431 54.3754 52.6615 54.3632 52.6765C54.3508 52.6913 54.335 52.7023 54.3172 52.7085C54.2995 52.7146 54.2806 52.7156 54.2624 52.7114C54.21 52.697 54.1557 52.6765 54.0995 52.6581C54.0433 52.6396 53.9735 52.615 53.9057 52.5986C54.0284 52.9551 54.0939 53.3308 54.0995 53.7102V53.7307C54.1543 54.2847 54.0941 54.8446 53.9231 55.3714C53.549 56.6327 53.1303 57.8961 52.6728 59.1287C52.6233 59.2879 52.5464 59.436 52.446 59.5656C52.2289 59.8117 51.8974 59.8609 51.6047 59.8876C51.0801 59.9313 50.5528 59.9525 50.023 59.9511ZM46.0937 57.2111C46.1635 57.4162 46.2371 57.609 46.3127 57.7977C46.4654 58.1005 46.6536 58.3817 46.873 58.6344C47.0238 58.8163 47.1637 59.0081 47.2917 59.2087C47.5146 59.584 47.5146 59.584 47.7802 59.6045L48.0244 59.625C49.2079 59.761 50.401 59.7761 51.5873 59.6702C51.8432 59.6476 52.132 59.6066 52.2987 59.4158C52.3843 59.3057 52.45 59.1799 52.4925 59.0446C52.9481 57.8141 53.3668 56.5589 53.737 55.3038C53.9022 54.8032 53.9598 54.27 53.9057 53.743V53.7204C53.834 52.7299 53.6808 52.5965 53.6634 52.5842H53.6537C53.641 52.5888 53.6275 52.5907 53.6141 52.5898C53.6007 52.5888 53.5876 52.5851 53.5755 52.5789C53.5634 52.5726 53.5527 52.5638 53.5438 52.5531C53.5349 52.5425 53.5281 52.53 53.5238 52.5166C53.5195 52.5031 53.5177 52.4889 53.5186 52.4747C53.5194 52.4605 53.523 52.4466 53.5289 52.4338C53.5348 52.4211 53.5431 52.4097 53.5532 52.4003C53.5633 52.3909 53.575 52.3837 53.5878 52.3791C53.7575 52.3377 53.9353 52.3542 54.0957 52.4263C53.834 51.9197 53.4036 51.4706 52.9326 51.4993C52.9181 51.4995 52.9037 51.4965 52.8903 51.4905C52.877 51.4845 52.865 51.4756 52.855 51.4644C52.845 51.4526 52.8375 51.4385 52.8332 51.4233C52.8288 51.4081 52.8277 51.392 52.8298 51.3762C52.981 50.441 51.9595 49.9406 51.5136 49.7786C50.7731 49.4997 49.9357 49.6043 49.1429 49.7355C48.4365 49.8215 47.7453 50.0134 47.0901 50.3057C45.8785 50.9086 45.0818 52.5617 45.3144 53.9809C45.4832 55.0801 45.7466 56.1607 46.1015 57.2091L46.0937 57.2111Z" fill="#231F20"/>
<path d="M45.6788 62.9767C45.6788 62.9767 45.7428 62.1314 46.0898 61.8995C46.4368 61.6676 52.004 61.2839 52.6495 61.8995C53.047 62.31 53.279 62.8673 53.297 63.4548C53.297 63.4548 46.8555 62.829 45.6788 62.9767Z" fill="white"/>
<path d="M53.3028 63.5615H53.2931C53.2291 63.5615 46.8419 62.9459 45.6963 63.0813C45.6815 63.0835 45.6665 63.082 45.6524 63.077C45.6383 63.072 45.6254 63.0637 45.6149 63.0526C45.6043 63.0418 45.5961 63.0286 45.5907 63.0141C45.5854 62.9996 45.583 62.984 45.5838 62.9685C45.5838 62.8762 45.6633 62.0636 46.0433 61.8092C46.3185 61.6245 51.9982 61.1382 52.7232 61.8194C53.1437 62.2514 53.3873 62.8408 53.4016 63.4609C53.4018 63.4757 53.3989 63.4903 53.3932 63.5037C53.3875 63.5172 53.3791 63.5292 53.3687 63.5389C53.3503 63.5551 53.3267 63.5632 53.3028 63.5615ZM46.2177 62.8474C47.9875 62.8474 52.3975 63.2578 53.1962 63.3378C53.1577 62.8216 52.9426 62.3379 52.5914 61.9774C52.3432 61.7435 51.0716 61.6348 49.2727 61.6902C47.5921 61.7415 46.2817 61.8954 46.1518 61.9897C45.9386 62.1313 45.8358 62.5889 45.799 62.8597C45.9114 62.8515 46.053 62.8474 46.2177 62.8474Z" fill="#231F20"/>
<path d="M57.7535 66.0237C55.5669 62.8345 51.8257 62.5494 49.5848 62.5494C47.344 62.5494 43.6028 62.8345 41.4181 66.0237C39.2335 69.2129 39.3382 73.8951 39.3382 73.8951H59.8296C59.8296 73.8951 59.9381 69.2149 57.7535 66.0237Z" fill="#334A5E"/>
<path d="M59.8296 73.9997H39.3382C39.3121 73.9997 39.287 73.989 39.2682 73.9699C39.2494 73.9508 39.2384 73.9247 39.2374 73.8971C39.2374 73.85 39.1579 69.1452 41.3387 65.9621C43.7462 62.4448 48.1407 62.4448 49.5849 62.4448C55.4254 62.4448 57.2379 65.0926 57.833 65.9621C60.0235 69.1452 59.9343 73.8459 59.9343 73.8971C59.9338 73.9112 59.9307 73.9249 59.9251 73.9377C59.9196 73.9504 59.9118 73.9619 59.902 73.9714C59.8923 73.9809 59.8809 73.9883 59.8685 73.9932C59.8561 73.998 59.8428 74.0002 59.8296 73.9997ZM39.4332 73.7946H59.7346C59.7346 73.0911 59.6338 68.9565 57.6721 66.0934C55.5669 63.017 52.0506 62.6622 49.5849 62.6622C47.1191 62.6622 43.6047 63.017 41.4996 66.0934C39.5378 68.9503 39.439 73.085 39.437 73.7884L39.4332 73.7946Z" fill="#334A5E"/>
<path d="M43.3872 73.9998C43.3612 74.0004 43.336 73.9901 43.3171 73.9714C43.2982 73.9526 43.287 73.9267 43.286 73.8993L43.0232 67.5743C43.0226 67.5465 43.0322 67.5195 43.0499 67.4989C43.0677 67.4783 43.0922 67.4656 43.1186 67.4635C43.1451 67.4635 43.1708 67.474 43.1903 67.493C43.2098 67.512 43.2217 67.5381 43.2237 67.5661L43.4865 73.8911C43.487 73.9048 43.4849 73.9186 43.4804 73.9315C43.4759 73.9444 43.469 73.9562 43.4602 73.9663C43.4513 73.9764 43.4406 73.9845 43.4288 73.9903C43.4169 73.996 43.4041 73.9993 43.3911 73.9998H43.3872Z" fill="#231F20"/>
<path d="M55.5495 73.9998C55.5365 73.9991 55.5238 73.9956 55.5121 73.9896C55.5003 73.9836 55.4899 73.9752 55.4812 73.9649C55.4726 73.9546 55.4659 73.9426 55.4617 73.9296C55.4574 73.9166 55.4556 73.9028 55.4564 73.8891L55.7588 68.0194C55.7593 68.0055 55.7624 67.9919 55.768 67.9794C55.7736 67.9669 55.7815 67.9557 55.7913 67.9465C55.8011 67.9373 55.8125 67.9303 55.8249 67.9259C55.8373 67.9215 55.8505 67.9198 55.8635 67.9209C55.8767 67.9214 55.8896 67.9247 55.9015 67.9306C55.9135 67.9365 55.9242 67.9448 55.933 67.9552C55.9419 67.9655 55.9487 67.9776 55.9531 67.9907C55.9574 68.0038 55.9593 68.0178 55.9585 68.0317L55.6445 73.9014C55.6426 73.9272 55.632 73.9514 55.6145 73.9695C55.597 73.9877 55.5739 73.9984 55.5495 73.9998Z" fill="#231F20"/>
<path d="M43.6182 32.5403C43.6182 32.5403 47.9371 36.1089 48.8269 36.5765C49.7166 37.0442 53.3784 34.4908 53.3784 34.4908L55.8673 36.7816C55.8673 36.7816 51.5698 42.2617 48.8269 42.153C46.084 42.0443 42.6529 37.0421 42.6529 37.0421" fill="#334A5E"/>
<path d="M55.8674 35.2998C55.8482 35.2997 55.8294 35.294 55.8131 35.2834C55.7908 35.2679 55.7751 35.2438 55.7693 35.2162C55.7635 35.1886 55.7681 35.1597 55.7821 35.1357C56.3636 34.1857 56.0515 33.6234 56.0477 33.6173C56.0388 33.6055 56.0324 33.5918 56.0289 33.5772C56.0254 33.5625 56.0249 33.5473 56.0274 33.5324C56.0298 33.5176 56.0353 33.5034 56.0433 33.4909C56.0513 33.4785 56.0617 33.4679 56.0739 33.46C56.086 33.4521 56.0996 33.4471 56.1138 33.4451C56.1279 33.4432 56.1423 33.4445 56.1559 33.4489C56.1696 33.4533 56.1822 33.4607 56.1929 33.4706C56.2037 33.4805 56.2123 33.4928 56.2182 33.5065C56.2357 33.5352 56.6059 34.1898 55.9507 35.2506C55.9418 35.2654 55.9295 35.2777 55.9149 35.2863C55.9004 35.2949 55.884 35.2995 55.8674 35.2998Z" fill="#231F20"/>
<path d="M41.2204 50.3261C41.1964 50.3261 41.1732 50.3174 41.1545 50.3015C41.1446 50.2917 41.1365 50.28 41.1309 50.267C41.1252 50.254 41.1221 50.2399 41.1216 50.2256L40.8928 44.9834C40.8918 44.9555 40.9011 44.9282 40.9189 44.9075C40.9367 44.8868 40.9614 44.8743 40.9878 44.8727C41.0142 44.8716 41.04 44.8815 41.0596 44.9003C41.0792 44.9191 41.091 44.9452 41.0925 44.9732L41.3154 50.1005L45.266 49.6903C45.2804 49.6845 45.296 49.6824 45.3113 49.684C45.3267 49.6856 45.3415 49.6909 45.3546 49.6995C45.3678 49.7081 45.3788 49.7198 45.387 49.7337C45.3952 49.7475 45.4002 49.7632 45.4018 49.7795C45.4033 49.7957 45.4013 49.8122 45.3959 49.8275C45.3905 49.8428 45.3818 49.8566 45.3705 49.8678C45.3593 49.879 45.3458 49.8873 45.331 49.8921C45.3162 49.8969 45.3006 49.898 45.2854 49.8954L41.2204 50.3261Z" fill="#231F20"/>
</svg>
