<svg width="96" height="96" viewBox="0 0 96 96" fill="none" xmlns="http://www.w3.org/2000/svg">
<rect x="-1.52588e-05" y="0.00012207" width="96" height="96" rx="15" fill="#131C73"/>
<path d="M24.0399 24.2576H70.5433V46.7051H24.0399V24.2576Z" fill="white"/>
<path d="M70.5458 46.9577H24.0398C23.9737 46.9577 23.9103 46.9314 23.8635 46.8845C23.8167 46.8376 23.7905 46.774 23.7905 46.7077V24.2502C23.7905 24.1839 23.8167 24.1204 23.8635 24.0735C23.9103 24.0266 23.9737 24.0002 24.0398 24.0002H70.5458C70.6119 24.0002 70.6753 24.0266 70.7221 24.0735C70.7689 24.1204 70.7951 24.1839 70.7951 24.2502V46.7002C70.7961 46.7337 70.7904 46.767 70.7783 46.7982C70.7663 46.8294 70.7481 46.8578 70.7248 46.8819C70.7015 46.9059 70.6737 46.925 70.643 46.938C70.6122 46.951 70.5792 46.9577 70.5458 46.9577ZM24.2892 46.4577H70.2964V24.5002H24.2892V46.4577Z" fill="#093F68"/>
<path d="M38.0423 48.9626C37.9762 48.9626 37.9128 48.9363 37.866 48.8894C37.8192 48.8425 37.793 48.7789 37.793 48.7126V43.3201C37.7928 43.2866 37.7993 43.2534 37.8121 43.2225C37.825 43.1916 37.8439 43.1636 37.8678 43.1401L39.8129 41.2301C39.8602 41.1837 39.9239 41.158 39.9901 41.1587C40.0563 41.1594 40.1195 41.1865 40.1658 41.2339C40.2121 41.2813 40.2377 41.3452 40.237 41.4115C40.2363 41.4779 40.2093 41.5412 40.162 41.5876L38.2917 43.4251V48.7126C38.2917 48.7789 38.2654 48.8425 38.2187 48.8894C38.1719 48.9363 38.1085 48.9626 38.0423 48.9626Z" fill="#093F68"/>
<path d="M40.1837 40.2393L39.3485 41.0061C39.0823 41.2504 39.0641 41.6649 39.3079 41.9317L39.3635 41.9926C39.6072 42.2595 40.0206 42.2777 40.2868 42.0334L41.1221 41.2667C41.3883 41.0223 41.4064 40.6079 41.1627 40.341L41.1071 40.2801C40.8633 40.0132 40.4499 39.995 40.1837 40.2393Z" fill="black"/>
<path d="M39.8453 42.4575H39.8054C39.6869 42.4534 39.5703 42.4254 39.4628 42.3751C39.3552 42.3249 39.2589 42.2534 39.1795 42.165L39.1222 42.105C38.9616 41.9276 38.8775 41.6937 38.8883 41.4544C38.899 41.2151 39.0037 40.9897 39.1795 40.8275L40.0149 40.06C40.1021 39.9795 40.2043 39.9171 40.3155 39.8763C40.4268 39.8355 40.5451 39.8171 40.6635 39.8222C40.7819 39.8273 40.8981 39.8558 41.0055 39.9061C41.1128 39.9563 41.2093 40.0273 41.2892 40.115L41.3441 40.1775C41.4244 40.2649 41.4866 40.3673 41.5273 40.4789C41.568 40.5904 41.5864 40.709 41.5813 40.8277C41.5762 40.9463 41.5477 41.0629 41.4976 41.1705C41.4475 41.2782 41.3767 41.3748 41.2892 41.455L40.4538 42.2225C40.2874 42.3743 40.0703 42.4581 39.8453 42.4575ZM40.6234 40.32C40.523 40.3201 40.4261 40.3575 40.3516 40.425L39.5212 41.1925C39.4814 41.2281 39.4493 41.2716 39.427 41.3202C39.4047 41.3688 39.3926 41.4215 39.3915 41.475C39.3889 41.5279 39.3969 41.5807 39.4148 41.6305C39.4328 41.6803 39.4605 41.726 39.4962 41.765L39.5511 41.825C39.5866 41.8645 39.6296 41.8965 39.6775 41.9193C39.7254 41.942 39.7774 41.955 39.8304 41.9575C39.9377 41.96 40.042 41.9216 40.1222 41.85L40.9576 41.0825C41.0359 41.01 41.0825 40.9094 41.0871 40.8026C41.0918 40.6959 41.0542 40.5916 40.9825 40.5125L40.9276 40.45C40.8541 40.3717 40.753 40.3251 40.6458 40.32H40.6234Z" fill="#093F68"/>
<path d="M54.1694 51.3425V45.5475C54.1697 45.091 54.0803 44.6388 53.9062 44.2169C53.7322 43.795 53.4769 43.4116 53.155 43.0887C52.8331 42.7657 52.4508 42.5096 52.0301 42.3348C51.6094 42.16 51.1585 42.07 50.7031 42.07H45.2318C44.3122 42.0707 43.4306 42.4373 42.7806 43.0894C42.1306 43.7415 41.7655 44.6256 41.7655 45.5475V51.3425H54.1694Z" fill="black"/>
<path d="M54.1694 51.5927H41.7655C41.6994 51.5927 41.636 51.5663 41.5892 51.5194C41.5424 51.4725 41.5161 51.409 41.5161 51.3427V45.5477C41.5175 44.5595 41.9096 43.6121 42.6066 42.9134C43.3036 42.2146 44.2486 41.8215 45.2343 41.8202H50.7056C51.6911 41.8215 52.6358 42.2147 53.3324 42.9135C54.029 43.6124 54.4206 44.5597 54.4213 45.5477V51.3427C54.4213 51.3757 54.4148 51.4084 54.4021 51.4389C54.3894 51.4694 54.3708 51.4971 54.3474 51.5203C54.324 51.5436 54.2962 51.5619 54.2656 51.5743C54.2351 51.5868 54.2024 51.593 54.1694 51.5927ZM42.0124 51.0927H53.9201V45.5477C53.9194 44.6923 53.5803 43.8721 52.9773 43.2671C52.3742 42.662 51.5563 42.3215 50.7031 42.3202H45.2318C44.3786 42.3215 43.5608 42.662 42.9577 43.2671C42.3546 43.8721 42.0156 44.6923 42.0149 45.5477L42.0124 51.0927Z" fill="#093F68"/>
<path d="M50.2267 42.07L48.0073 50.4975L45.738 42.07H50.2267Z" fill="white"/>
<path d="M47.9999 50.7502C47.9436 50.7521 47.8883 50.7349 47.843 50.7013C47.7977 50.6677 47.7651 50.6197 47.7505 50.5652L45.5061 42.1352C45.4968 42.0983 45.496 42.0597 45.5037 42.0225C45.5115 41.9852 45.5277 41.9502 45.551 41.9202C45.574 41.8895 45.6037 41.8645 45.6379 41.8471C45.672 41.8298 45.7097 41.8206 45.748 41.8202H50.2368C50.2753 41.8199 50.3133 41.8285 50.3479 41.8454C50.3825 41.8624 50.4128 41.8871 50.4363 41.9177C50.4595 41.9482 50.4755 41.9837 50.4828 42.0214C50.4902 42.0592 50.4887 42.0981 50.4787 42.1352L48.2492 50.5627C48.2346 50.6172 48.202 50.6652 48.1567 50.6988C48.1115 50.7324 48.0562 50.7496 47.9999 50.7477V50.7502ZM46.0572 42.3227L47.9999 49.5302L49.8976 42.3202L46.0572 42.3227Z" fill="#093F68"/>
<path d="M47.0996 41.4102H48.8452V42.4106C48.8452 42.6097 48.7664 42.8005 48.6261 42.9412C48.4858 43.0819 48.2955 43.161 48.0971 43.161H47.8352C47.6368 43.161 47.4465 43.0819 47.3062 42.9412C47.1659 42.8005 47.0871 42.6097 47.0871 42.4106V41.4102H47.0996Z" fill="#FFC9B0"/>
<path d="M48.0971 43.4003H47.8477C47.5831 43.4003 47.3294 43.2949 47.1423 43.1074C46.9553 42.9198 46.8502 42.6655 46.8502 42.4003V41.4003C46.8502 41.334 46.8765 41.2704 46.9232 41.2235C46.97 41.1766 47.0334 41.1503 47.0996 41.1503H48.8452C48.9113 41.1503 48.9748 41.1766 49.0215 41.2235C49.0683 41.2704 49.0946 41.334 49.0946 41.4003V42.4003C49.0946 42.6655 48.9895 42.9198 48.8024 43.1074C48.6153 43.2949 48.3616 43.4003 48.0971 43.4003ZM47.3489 41.6503V42.4003C47.3489 42.5329 47.4015 42.6601 47.495 42.7538C47.5886 42.8476 47.7154 42.9003 47.8477 42.9003H48.0971C48.2293 42.9003 48.3562 42.8476 48.4497 42.7538C48.5433 42.6601 48.5958 42.5329 48.5958 42.4003V41.6503H47.3489Z" fill="#093F68"/>
<path d="M42.0298 36.5C41.883 36.1213 41.8175 35.7158 41.8378 35.31C41.8231 33.8665 41.9333 32.4244 42.167 31C42.2513 30.2855 42.4651 29.5924 42.7979 28.955C43.0921 28.4782 43.4737 28.0617 43.9226 27.7275C45.0526 26.8363 46.4525 26.3591 47.8902 26.375C50.6607 26.4375 52.9425 28.4325 53.6507 31.05C53.9721 32.3573 54.069 33.71 53.9375 35.05C53.9382 35.4653 53.8335 35.8739 53.6333 36.2375C53.152 36.9725 52.1894 36.5675 51.4687 36.59L48.1046 36.695C46.7455 36.7375 45.3989 36.9675 44.0348 36.945C43.6084 36.945 42.8004 37.0475 42.4014 36.88C42.2354 36.8031 42.1032 36.6679 42.0298 36.5Z" fill="#725858"/>
<path d="M43.0946 37.2101C42.8272 37.223 42.5598 37.1849 42.3066 37.0976C42.0852 36.9974 41.9078 36.8196 41.8078 36.5976C41.6444 36.1846 41.5704 35.7415 41.5909 35.2976C41.5766 33.8375 41.6876 32.3788 41.9226 30.9376C42.0112 30.192 42.2361 29.4691 42.5859 28.8051C42.8934 28.3059 43.2918 27.8692 43.7604 27.5176C44.9345 26.5883 46.3918 26.0922 47.8876 26.1126C50.6607 26.1751 53.1245 28.1726 53.8726 30.9726C54.204 32.3089 54.3036 33.6925 54.1669 35.0626C54.1651 35.5207 54.0466 35.9708 53.8227 36.3701C53.3863 37.0351 52.6407 36.9476 52.0422 36.8701C51.8481 36.8424 51.6522 36.8282 51.4562 36.8276L48.0921 36.9326C47.5285 36.9501 46.9549 37.0001 46.3988 37.0501C45.6054 37.1361 44.8079 37.1778 44.0098 37.1751C43.8926 37.1751 43.748 37.1751 43.5909 37.1751C43.4338 37.1751 43.2617 37.2101 43.0946 37.2101ZM47.7504 26.6101C46.4126 26.6226 45.1168 27.0808 44.0672 27.9126C43.6458 28.2272 43.2878 28.6192 43.0123 29.0676C42.6919 29.6786 42.4881 30.3442 42.4113 31.0301C42.1792 32.4421 42.0699 33.8717 42.0847 35.3026C42.0669 35.67 42.1229 36.0373 42.2492 36.3826C42.2992 36.4936 42.3879 36.5825 42.4986 36.6326C42.8561 36.7129 43.2245 36.7323 43.5884 36.6901C43.758 36.6901 43.9151 36.6751 44.0397 36.6901C44.8194 36.692 45.5987 36.6511 46.3739 36.5676C46.9375 36.5176 47.5185 36.4651 48.0971 36.4476L51.4611 36.3426C51.6814 36.3418 51.9014 36.3568 52.1195 36.3876C52.7654 36.4651 53.1768 36.4826 53.4237 36.1026C53.5986 35.7741 53.6902 35.4075 53.6906 35.0351C53.822 33.7204 53.7276 32.3928 53.4113 31.1101C52.7105 28.5251 50.4362 26.6776 47.8851 26.6101H47.7504Z" fill="#093F68"/>
<path d="M42.8926 38.3477C43.8236 38.3477 44.5784 37.6952 44.5784 36.8902C44.5784 36.0853 43.8236 35.4327 42.8926 35.4327C41.9616 35.4327 41.2068 36.0853 41.2068 36.8902C41.2068 37.6952 41.9616 38.3477 42.8926 38.3477Z" fill="#FFC9B0"/>
<path d="M42.8926 38.5952C41.8253 38.5952 40.955 37.8302 40.955 36.8902C40.955 35.9502 41.8253 35.1827 42.8926 35.1827C43.96 35.1827 44.8278 35.9477 44.8278 36.8902C44.8278 37.8327 43.96 38.5952 42.8926 38.5952ZM42.8926 35.6827C42.0996 35.6827 41.4537 36.2227 41.4537 36.8902C41.4537 37.5577 42.0996 38.0952 42.8926 38.0952C43.6856 38.0952 44.329 37.5552 44.329 36.8902C44.329 36.2252 43.6831 35.6827 42.8926 35.6827Z" fill="#093F68"/>
<path d="M52.723 38.3477C53.654 38.3477 54.4088 37.6952 54.4088 36.8902C54.4088 36.0853 53.654 35.4327 52.723 35.4327C51.792 35.4327 51.0372 36.0853 51.0372 36.8902C51.0372 37.6952 51.792 38.3477 52.723 38.3477Z" fill="#FFC9B0"/>
<path d="M52.7379 38.5952C51.6681 38.5952 50.8003 37.8302 50.8003 36.8902C50.8003 35.9502 51.6681 35.1827 52.7379 35.1827C53.8077 35.1827 54.6731 35.9477 54.6731 36.8902C54.6731 37.8327 53.7928 38.5952 52.7379 38.5952ZM52.7379 35.6827C51.9449 35.6827 51.299 36.2227 51.299 36.8902C51.299 37.5577 51.9449 38.0952 52.7379 38.0952C53.5309 38.0952 54.1743 37.5552 54.1743 36.8902C54.1743 36.2252 53.516 35.6827 52.7379 35.6827Z" fill="#093F68"/>
<path d="M47.8527 41.6377C46.5034 41.6377 45.2095 41.1004 44.2554 40.144C43.3014 39.1875 42.7654 37.8903 42.7654 36.5377C42.7654 35.8302 42.7654 35.1227 42.8053 34.4152C42.8302 33.8152 42.7455 33.1202 42.94 32.5552C43.0825 32.0747 43.287 31.615 43.5484 31.1877C43.8158 30.7587 44.2416 30.4531 44.733 30.3377C45.8427 30.1327 46.8053 31.2577 47.935 31.2852C48.7105 31.3052 49.3863 30.8077 50.0871 30.4752C53.5259 28.8352 52.9399 34.7252 52.9399 36.5377C52.9399 37.8903 52.4039 39.1875 51.4499 40.144C50.4958 41.1004 49.2019 41.6377 47.8527 41.6377Z" fill="#FFC9B0"/>
<path d="M47.8527 41.8876C46.4377 41.8863 45.0811 41.3222 44.0806 40.3192C43.08 39.3161 42.5174 37.9561 42.516 36.5376C42.516 35.9126 42.516 35.1676 42.5559 34.4051C42.5559 34.2376 42.5559 34.0626 42.5559 33.8851C42.5256 33.4094 42.5753 32.9319 42.7031 32.4726C42.851 31.9714 43.0649 31.4922 43.339 31.0476C43.4891 30.8067 43.6854 30.598 43.9166 30.4336C44.1477 30.2692 44.4091 30.1525 44.6856 30.0901C45.3714 29.9651 45.9799 30.2726 46.5709 30.5676C46.987 30.8214 47.4534 30.9809 47.9374 31.0351C48.4711 31.0501 48.9574 30.7851 49.4761 30.5076C49.6432 30.4176 49.8103 30.3276 49.9748 30.2576C50.7928 29.8701 51.4711 29.8476 52.0023 30.1926C53.3339 31.0626 53.2491 34.0426 53.1993 35.8226C53.1993 36.1051 53.1843 36.3501 53.1843 36.5476C53.1803 37.9635 52.6172 39.3202 51.618 40.321C50.6189 41.3217 49.265 41.885 47.8527 41.8876ZM45.0073 30.5626C44.9312 30.5618 44.8552 30.5685 44.7804 30.5826C44.3541 30.6874 43.9865 30.957 43.7579 31.3326C43.5085 31.7402 43.314 32.179 43.1794 32.6376C43.0718 33.045 43.0314 33.4672 43.0597 33.8876V34.4326C43.0248 35.1826 43.0198 35.9326 43.0198 36.5426C43.0198 37.8289 43.5295 39.0625 44.4368 39.9721C45.344 40.8816 46.5746 41.3926 47.8576 41.3926C49.1407 41.3926 50.3713 40.8816 51.2785 39.9721C52.1858 39.0625 52.6955 37.8289 52.6955 36.5426C52.6955 36.3426 52.6955 36.0901 52.7105 35.7926C52.7554 34.2251 52.8377 31.3101 51.7404 30.5951C51.3664 30.3451 50.8477 30.3826 50.1993 30.6926C50.0397 30.7701 49.8801 30.8551 49.718 30.9426C49.1644 31.2401 48.5908 31.5526 47.9325 31.5301C47.374 31.4776 46.8346 31.2999 46.3539 31.0101C45.8876 30.7826 45.4487 30.5626 45.0073 30.5626Z" fill="#093F68"/>
<path d="M47.8377 38.0009C47.6782 37.9998 47.519 37.9865 47.3614 37.9609C47.3287 37.9551 47.2974 37.943 47.2693 37.9251C47.2413 37.9072 47.217 37.884 47.1979 37.8567C47.1788 37.8294 47.1652 37.7986 47.158 37.766C47.1507 37.7335 47.15 37.6998 47.1557 37.667C47.1614 37.6341 47.1736 37.6028 47.1914 37.5746C47.2092 37.5465 47.2324 37.5221 47.2596 37.503C47.2868 37.4838 47.3175 37.4702 47.35 37.4629C47.3824 37.4557 47.416 37.4549 47.4487 37.4606C47.6392 37.491 47.8327 37.4978 48.0248 37.4807C47.9401 37.1388 47.8119 36.8092 47.6432 36.5002C47.6143 36.4417 47.6093 36.3741 47.6294 36.312C47.6495 36.2499 47.693 36.1981 47.7507 36.1677C47.8083 36.1373 47.8755 36.1307 47.9379 36.1494C48.0003 36.1681 48.053 36.2105 48.0846 36.2676C48.2991 36.6778 48.6333 37.4156 48.4861 37.7458C48.4634 37.7969 48.429 37.8418 48.3856 37.877C48.3423 37.9122 48.2913 37.9367 48.2367 37.9484C48.1062 37.9812 47.9723 37.9989 47.8377 38.0009Z" fill="#093F68"/>
<path d="M48.2767 43.32H47.738C47.5314 43.32 47.364 43.4883 47.364 43.6959V43.9616C47.364 44.1692 47.5314 44.3375 47.738 44.3375H48.2767C48.4833 44.3375 48.6507 44.1692 48.6507 43.9616V43.6959C48.6507 43.4883 48.4833 43.32 48.2767 43.32Z" fill="#F56132"/>
<path d="M48.2766 44.5843H47.7505C47.5856 44.5843 47.4274 44.5188 47.3105 44.402C47.1937 44.2852 47.1277 44.1267 47.127 43.9612V43.6934C47.1277 43.5279 47.1937 43.3694 47.3105 43.2526C47.4274 43.1358 47.5856 43.0703 47.7505 43.0703H48.2891C48.4538 43.0709 48.6116 43.1367 48.7284 43.2533C48.8451 43.37 48.9112 43.5281 48.9126 43.6934V43.9612C48.9119 44.0441 48.8949 44.1261 48.8625 44.2024C48.8302 44.2786 48.7831 44.3477 48.7239 44.4057C48.6648 44.4636 48.5949 44.5092 48.5181 44.5399C48.4413 44.5705 48.3593 44.5856 48.2766 44.5843ZM47.7505 43.5708C47.7342 43.5704 47.7181 43.5734 47.7029 43.5794C47.6878 43.5854 47.6741 43.5944 47.6624 43.6058C47.6508 43.6172 47.6416 43.6308 47.6353 43.6459C47.629 43.6609 47.6258 43.6771 47.6258 43.6934V43.9612C47.6258 43.9775 47.629 43.9936 47.6353 44.0087C47.6416 44.0237 47.6508 44.0374 47.6624 44.0488C47.6741 44.0602 47.6878 44.0692 47.7029 44.0752C47.7181 44.0812 47.7342 44.0841 47.7505 44.0838H48.2891C48.3218 44.0838 48.3531 44.071 48.3764 44.048C48.3997 44.0251 48.4132 43.9939 48.4138 43.9612V43.6934C48.4132 43.6606 48.3997 43.6295 48.3764 43.6065C48.3531 43.5836 48.3218 43.5708 48.2891 43.5708H47.7505Z" fill="#093F68"/>
<path d="M48.7555 47.6576L48.0073 50.4976L47.1769 47.4151L47.6383 44.3351H48.3739L48.7555 47.6576Z" fill="#F56132"/>
<path d="M47.9998 50.7502C47.9435 50.7521 47.8882 50.7349 47.843 50.7013C47.7977 50.6677 47.7651 50.6197 47.7505 50.5652L46.9225 47.4852C46.9155 47.4514 46.9155 47.4165 46.9225 47.3827L47.3839 44.3002C47.3929 44.2405 47.4231 44.1862 47.4689 44.1472C47.5148 44.1081 47.5731 44.087 47.6333 44.0877H48.3689C48.4302 44.0872 48.4895 44.1094 48.5355 44.15C48.5815 44.1906 48.6109 44.2467 48.6183 44.3077L48.9973 47.6277C49.0036 47.6582 49.0036 47.6896 48.9973 47.7202L48.2492 50.5627C48.2346 50.6172 48.202 50.6652 48.1567 50.6988C48.1114 50.7324 48.0561 50.7496 47.9998 50.7477V50.7502ZM47.4238 47.4052L47.9973 49.5327L48.4961 47.6402L48.1445 44.5877H47.8452L47.4238 47.4052Z" fill="#093F68"/>
<path d="M44.5909 51.5925C44.5248 51.5925 44.4614 51.5662 44.4146 51.5193C44.3678 51.4724 44.3416 51.4088 44.3416 51.3425V45.0625C44.3416 44.9962 44.3678 44.9326 44.4146 44.8858C44.4614 44.8389 44.5248 44.8125 44.5909 44.8125C44.6571 44.8125 44.7205 44.8389 44.7673 44.8858C44.814 44.9326 44.8403 44.9962 44.8403 45.0625V51.3425C44.8403 51.4088 44.814 51.4724 44.7673 51.5193C44.7205 51.5662 44.6571 51.5925 44.5909 51.5925Z" fill="#093F68"/>
<path d="M51.344 51.5925C51.2778 51.5925 51.2144 51.5662 51.1676 51.5193C51.1209 51.4724 51.0946 51.4088 51.0946 51.3425V45.0625C51.0946 44.9962 51.1209 44.9326 51.1676 44.8858C51.2144 44.8389 51.2778 44.8125 51.344 44.8125C51.4101 44.8125 51.4735 44.8389 51.5203 44.8858C51.5671 44.9326 51.5933 44.9962 51.5933 45.0625V51.3425C51.5933 51.4088 51.5671 51.4724 51.5203 51.5193C51.4735 51.5662 51.4101 51.5925 51.344 51.5925Z" fill="#093F68"/>
<path d="M58.2766 48.5003H36.7081C36.2688 48.5003 35.9126 48.8575 35.9126 49.2981V49.7008C35.9126 50.1415 36.2688 50.4987 36.7081 50.4987H58.2766C58.7159 50.4987 59.0721 50.1415 59.0721 49.7008V49.2981C59.0721 48.8575 58.7159 48.5003 58.2766 48.5003Z" fill="#725858"/>
<path d="M58.2791 50.7502H36.7106C36.4333 50.7502 36.1673 50.6399 35.9709 50.4436C35.7746 50.2472 35.6639 49.9808 35.6633 49.7027V49.3002C35.6639 49.0222 35.7746 48.7557 35.9709 48.5594C36.1673 48.363 36.4333 48.2527 36.7106 48.2527H58.2791C58.556 48.2534 58.8214 48.364 59.0172 48.5603C59.213 48.7566 59.3233 49.0226 59.324 49.3002V49.7027C59.3233 49.9803 59.213 50.2464 59.0172 50.4427C58.8214 50.639 58.556 50.7496 58.2791 50.7502ZM36.7106 48.7502C36.5656 48.7502 36.4264 48.8078 36.3236 48.9104C36.2208 49.013 36.1627 49.1523 36.162 49.2977V49.7002C36.1627 49.8457 36.2208 49.9849 36.3236 50.0875C36.4264 50.1901 36.5656 50.2477 36.7106 50.2477H58.2791C58.4237 50.2471 58.5622 50.1892 58.6645 50.0866C58.7668 49.9841 58.8246 49.8452 58.8252 49.7002V49.2977C58.8246 49.1527 58.7668 49.0138 58.6645 48.9113C58.5622 48.8088 58.4237 48.7509 58.2791 48.7502H36.7106Z" fill="#725858"/>
<path d="M38.374 68.665H56.6133L57.8003 50.4975H37.187L38.374 68.665Z" fill="#725858"/>
<path d="M56.6133 68.9151H38.374C38.3104 68.9152 38.2491 68.891 38.2028 68.8473C38.1564 68.8036 38.1284 68.7438 38.1246 68.6801L36.9401 50.5151C36.9377 50.4809 36.9424 50.4465 36.9538 50.4141C36.9653 50.3817 36.9833 50.352 37.0067 50.3269C37.0301 50.3018 37.0584 50.2819 37.0898 50.2682C37.1213 50.2546 37.1552 50.2476 37.1895 50.2477H57.8003C57.8346 50.2476 57.8685 50.2546 57.8999 50.2682C57.9314 50.2819 57.9597 50.3018 57.9831 50.3269C58.0065 50.352 58.0245 50.3817 58.036 50.4141C58.0474 50.4465 58.0521 50.4809 58.0497 50.5151L56.8627 68.6801C56.8588 68.7438 56.8309 68.8036 56.7845 68.8473C56.7382 68.891 56.6769 68.9152 56.6133 68.9151ZM38.6084 68.4151H56.3814L57.5335 50.7501H37.4538L38.6084 68.4151Z" fill="#093F68"/>
<path d="M26.4713 64.1254H28.1321V65.0839C28.1321 65.2717 28.0578 65.4519 27.9254 65.5847C27.7931 65.7175 27.6136 65.7921 27.4264 65.7921H27.177C26.9898 65.7921 26.8103 65.7175 26.678 65.5847C26.5456 65.4519 26.4713 65.2717 26.4713 65.0839V64.1254Z" fill="#FFC9B0"/>
<path d="M27.4289 66.0411H27.1795C26.9264 66.0404 26.6839 65.9393 26.5049 65.7598C26.3259 65.5803 26.2251 65.337 26.2244 65.0831V64.1252C26.2244 64.0589 26.2507 63.9953 26.2975 63.9483C26.3442 63.9014 26.4077 63.8751 26.4738 63.8751H28.1347C28.2008 63.8751 28.2642 63.9014 28.311 63.9483C28.3578 63.9953 28.384 64.0589 28.384 64.1252V65.0831C28.384 65.3372 28.2834 65.5809 28.1043 65.7605C27.9252 65.9402 27.6822 66.0411 27.4289 66.0411ZM26.7207 64.3753V65.0831C26.7207 65.1433 26.7325 65.2028 26.7554 65.2583C26.7784 65.3138 26.812 65.3643 26.8544 65.4068C26.8967 65.4493 26.947 65.483 27.0024 65.506C27.0578 65.529 27.1171 65.5409 27.1771 65.5409H27.4264C27.547 65.5402 27.6625 65.4917 27.7475 65.4059C27.8326 65.3202 27.8803 65.2041 27.8803 65.0831V64.3753H26.7207Z" fill="#093F68"/>
<path d="M27.3017 64.345C26.0118 64.3443 24.7749 63.8302 23.863 62.9155C22.9511 62.0009 22.4389 60.7607 22.4389 59.4675V55.9275C22.7232 56.395 23.6658 56.2075 25.0498 53.8275C30.2319 56.46 32.167 54.9525 32.167 54.9525V59.4675C32.167 60.7611 31.6544 62.0017 30.742 62.9164C29.8296 63.8311 28.5921 64.345 27.3017 64.345Z" fill="#FFC9B0"/>
<path d="M27.3017 64.5951C25.946 64.5931 24.6465 64.0521 23.6881 63.0909C22.7298 62.1297 22.1908 60.8266 22.1895 59.4676V55.9276C22.1899 55.8733 22.2078 55.8207 22.2406 55.7776C22.2734 55.7345 22.3193 55.7032 22.3714 55.6886C22.4235 55.6739 22.4789 55.6766 22.5293 55.6963C22.5797 55.7159 22.6224 55.7515 22.6509 55.7976C22.6668 55.8254 22.6902 55.8481 22.7184 55.8632C22.7467 55.8782 22.7786 55.8849 22.8105 55.8826C22.9376 55.8826 23.6309 55.7701 24.8329 53.7026C24.8648 53.6478 24.9164 53.6072 24.977 53.5891C25.0377 53.571 25.1029 53.5767 25.1596 53.6051C30.0997 56.1051 31.9949 54.7676 32.0124 54.7526C32.0494 54.724 32.0937 54.7064 32.1402 54.7018C32.1868 54.6973 32.2336 54.7059 32.2755 54.7268C32.3173 54.7476 32.3525 54.7798 32.377 54.8198C32.4015 54.8597 32.4142 54.9057 32.4139 54.9526V59.4676C32.4126 60.8266 31.8736 62.1297 30.9153 63.0909C29.9569 64.0521 28.6574 64.5931 27.3017 64.5951ZM22.6883 56.3726V59.4676C22.6679 60.0877 22.7722 60.7056 22.9949 61.2846C23.2176 61.8635 23.5541 62.3917 23.9845 62.8376C24.4149 63.2835 24.9304 63.638 25.5003 63.8802C26.0701 64.1224 26.6828 64.2471 27.3017 64.2471C27.9206 64.2471 28.5333 64.1224 29.1031 63.8802C29.673 63.638 30.1885 63.2835 30.6189 62.8376C31.0493 62.3917 31.3858 61.8635 31.6085 61.2846C31.8312 60.7056 31.9355 60.0877 31.9151 59.4676V55.3626C31.1072 55.6876 29.0299 56.0801 25.1446 54.1551C24.2693 55.6076 23.4688 56.3751 22.8154 56.3826C22.7728 56.3829 22.7303 56.3795 22.6883 56.3726Z" fill="#093F68"/>
<path d="M33.1146 70.7502V68.5002C33.114 67.6185 32.7643 66.7732 32.1425 66.1498C31.5206 65.5264 30.6774 65.1758 29.798 65.1752H24.5586C23.6802 65.1772 22.8386 65.5283 22.2182 66.1517C21.5978 66.775 21.2494 67.6196 21.2494 68.5002V70.7502H33.1146Z" fill="#093F68"/>
<path d="M33.1146 71.0002H21.2494C21.1832 71.0002 21.1198 70.9738 21.073 70.9269C21.0263 70.8801 21 70.8165 21 70.7502V68.5002C21.0013 67.5524 21.3774 66.6439 22.0459 65.9737C22.7144 65.3036 23.6207 64.9265 24.566 64.9252H29.8029C30.7483 64.9265 31.6546 65.3036 32.323 65.9737C32.9915 66.6439 33.3677 67.5524 33.369 68.5002V70.7502C33.369 70.7834 33.3624 70.8163 33.3495 70.847C33.3367 70.8777 33.3179 70.9055 33.2942 70.9287C33.2705 70.952 33.2424 70.9703 33.2116 70.9826C33.1807 70.9949 33.1478 71.0008 33.1146 71.0002ZM21.4987 70.5002H32.8652V68.5002C32.8639 67.685 32.5403 66.9037 31.9654 66.3273C31.3904 65.7509 30.611 65.4265 29.7979 65.4252H24.5586C23.7466 65.4278 22.9687 65.7529 22.3952 66.3292C21.8217 66.9055 21.4994 67.6861 21.4987 68.5002V70.5002Z" fill="#093F68"/>
<path d="M21.7781 58.6228C21.7408 58.2017 21.6724 57.7839 21.5736 57.3728C21.227 56.0778 21.7307 54.5253 22.6409 53.5428C23.5511 52.5603 25.1895 52.1778 26.2494 52.9903C26.6035 52.3403 27.4314 52.1578 28.1596 52.0403C29.202 51.8753 30.3416 51.7253 31.2543 52.2603C32.167 52.7953 32.8154 54.0228 33.0723 55.0478C33.2236 55.6503 33.27 56.2745 33.2094 56.8928C33.1945 57.0478 32.8104 58.4228 32.8129 58.4278C32.4713 58.1028 32.3142 57.6328 32.0648 57.2303C31.8154 56.8278 31.389 56.4553 30.9251 56.5428C31.1861 58.0061 31.1128 59.5096 30.7107 60.9403C30.5951 61.4218 30.3839 61.875 30.0897 62.2728C28.5037 64.2503 23.7855 63.2178 22.4913 61.3603C21.9452 60.5728 21.8778 59.5828 21.7781 58.6228Z" fill="#231F20"/>
<path d="M27.2768 63.5901H27.0524C25.0898 63.5201 23.0923 62.6451 22.2968 61.5026C21.7531 60.7201 21.6559 59.7701 21.5487 58.8501L21.5262 58.6501C21.4918 58.2414 21.4259 57.8361 21.3292 57.4376C20.9776 56.1126 21.429 54.4801 22.4564 53.3726C23.3417 52.4176 24.9676 51.9101 26.1795 52.6426C26.611 52.1051 27.3616 51.9151 28.1197 51.7951C29.2917 51.6076 30.4239 51.4851 31.3765 52.0451C32.4114 52.6501 33.0548 53.9626 33.3117 54.9876C33.4703 55.6178 33.5192 56.2707 33.4563 56.9176C33.4438 57.0251 33.3391 57.4176 33.1346 58.1826C33.0947 58.3276 33.0648 58.4326 33.0548 58.4726C33.0475 58.5197 33.0257 58.5634 32.9925 58.5976C32.9474 58.6459 32.8851 58.6743 32.8192 58.6766C32.7533 58.6789 32.6892 58.655 32.6408 58.6101C32.6322 58.6039 32.6246 58.5963 32.6184 58.5876C32.3898 58.3403 32.2029 58.0575 32.0648 57.7501C31.9925 57.6151 31.9276 57.4851 31.8528 57.3626C31.7103 57.1112 31.487 56.9155 31.2194 56.8076C31.4247 58.2085 31.333 59.6371 30.9501 61.0001C30.8241 61.5137 30.5978 61.9972 30.2843 62.4226C29.6783 63.1826 28.6159 63.5901 27.2768 63.5901ZM24.8903 52.7976C24.5031 52.8057 24.1213 52.8906 23.767 53.0472C23.4126 53.2038 23.0926 53.4291 22.8255 53.7101C21.9252 54.6801 21.5088 56.1601 21.828 57.3051C21.9299 57.7292 21.9999 58.1604 22.0374 58.5951L22.0574 58.7976C22.1472 59.6526 22.2394 60.5476 22.7082 61.2151C23.409 62.2151 25.2843 63.0251 27.0723 63.0876C28.3616 63.1301 29.369 62.7851 29.9077 62.1151C30.1794 61.7402 30.3751 61.3155 30.4838 60.8651C30.8756 59.4718 30.9472 58.0076 30.6932 56.5826C30.6871 56.5502 30.6874 56.517 30.6941 56.4848C30.7008 56.4526 30.7138 56.422 30.7324 56.3948C30.7509 56.3676 30.7746 56.3444 30.8021 56.3264C30.8296 56.3084 30.8604 56.2961 30.8927 56.2901C31.4887 56.1801 32.0049 56.6326 32.2892 57.0926C32.374 57.2326 32.4488 57.3751 32.5187 57.5126C32.5885 57.6501 32.6458 57.7626 32.7157 57.8726C32.8129 57.5101 32.965 56.9526 32.965 56.8601C33.0214 56.2735 32.9767 55.6815 32.8329 55.1101C32.6009 54.1826 32.0299 53.0051 31.1296 52.4751C30.3192 52.0001 29.2843 52.1151 28.202 52.2876C27.5212 52.3951 26.7706 52.5576 26.4713 53.1101C26.454 53.1418 26.43 53.1694 26.401 53.1909C26.372 53.2125 26.3387 53.2274 26.3034 53.2348C26.268 53.2422 26.2315 53.2418 26.1964 53.2336C26.1612 53.2255 26.1283 53.2098 26.0997 53.1876C25.751 52.9266 25.3254 52.7894 24.8903 52.7976Z" fill="#093F68"/>
<path d="M39.8204 64.8703H41.4812V65.8288C41.4812 65.9218 41.4629 66.0139 41.4275 66.0999C41.392 66.1858 41.34 66.2639 41.2745 66.3296C41.209 66.3954 41.1312 66.4476 41.0455 66.4832C40.9599 66.5187 40.8681 66.5371 40.7755 66.5371H40.5261C40.4334 66.5371 40.3416 66.5187 40.256 66.4832C40.1704 66.4476 40.0926 66.3954 40.0271 66.3296C39.9615 66.2639 39.9095 66.1858 39.8741 66.0999C39.8386 66.0139 39.8204 65.9218 39.8204 65.8288V64.8703Z" fill="#FFC9B0"/>
<path d="M40.768 66.7861H40.5186C40.266 66.7861 40.0237 66.6855 39.845 66.5063C39.6664 66.3271 39.566 66.0841 39.566 65.8307V64.8703C39.566 64.8039 39.5923 64.7403 39.6391 64.6934C39.6858 64.6465 39.7492 64.6201 39.8154 64.6201H41.4737C41.5399 64.6201 41.6033 64.6465 41.6501 64.6934C41.6968 64.7403 41.7231 64.8039 41.7231 64.8703V65.8307C41.7231 65.9564 41.6984 66.0808 41.6504 66.1969C41.6023 66.313 41.5319 66.4184 41.4432 66.5072C41.3545 66.5959 41.2492 66.6663 41.1333 66.7141C41.0174 66.762 40.8933 66.7865 40.768 66.7861ZM40.0623 65.1204V65.8307C40.0629 65.9512 40.1109 66.0666 40.1959 66.1519C40.2809 66.2371 40.396 66.2853 40.5161 66.2859H40.7655C40.8857 66.2853 41.0007 66.2371 41.0857 66.1519C41.1707 66.0666 41.2187 65.9512 41.2194 65.8307V65.1204H40.0623Z" fill="#093F68"/>
<path d="M40.6483 65.0903C39.8758 65.0858 39.1152 64.899 38.428 64.545C37.7409 64.191 37.1466 63.6798 36.6932 63.0528C35.5934 61.5128 35.7306 59.4478 35.98 57.6528C36.1171 56.6528 36.4214 55.5778 37.2144 54.9353C37.5545 54.673 37.9412 54.4778 38.354 54.3603C39.6009 53.9653 40.6308 54.3028 41.8602 54.3228C43.0273 54.3428 44.0847 54.5428 44.8527 55.5153C46.0123 56.9653 45.5036 58.5628 45.5036 60.2128C45.5036 61.5046 44.9924 62.7437 44.0821 63.6582C43.1719 64.5726 41.9369 65.0876 40.6483 65.0903Z" fill="#FFC9B0"/>
<path d="M40.6482 65.3403C39.8366 65.333 39.038 65.1355 38.3161 64.7635C37.5943 64.3914 36.9693 63.8552 36.4912 63.1978C35.364 61.6228 35.4612 59.5853 35.743 57.6203C35.9351 56.2328 36.3565 55.3178 37.0697 54.7403C37.4332 54.4584 37.8471 54.2488 38.2892 54.1228C39.2069 53.8328 40.0198 53.9153 40.8053 53.9953C41.152 54.0303 41.5086 54.0678 41.8777 54.0728C42.9624 54.0928 44.1894 54.2603 45.0697 55.3603C46.0173 56.5428 45.9225 57.8278 45.8303 59.0728C45.8053 59.4453 45.7754 59.8228 45.7754 60.2128C45.7747 60.887 45.6416 61.5545 45.3835 62.1771C45.1255 62.7997 44.7476 63.3652 44.2715 63.8414C43.7953 64.3176 43.2303 64.695 42.6086 64.9522C41.9869 65.2094 41.3208 65.3412 40.6482 65.3403ZM39.6507 54.4203C39.2342 54.4147 38.8194 54.4746 38.4213 54.5978C38.0385 54.7067 37.6797 54.8874 37.364 55.1303C36.7555 55.6303 36.3914 56.4353 36.2193 57.6878C35.97 59.5528 35.8652 61.4728 36.8877 62.9053C37.3194 63.4989 37.8836 63.983 38.5353 64.319C39.187 64.655 39.908 64.8335 40.6408 64.8403C41.8646 64.8389 43.0379 64.351 43.9033 63.4834C44.7686 62.6159 45.2554 61.4396 45.2567 60.2128C45.2567 59.8153 45.2866 59.4178 45.314 59.0353C45.4013 57.8353 45.4836 56.7028 44.6607 55.6728C43.9126 54.7353 42.8652 54.5903 41.8477 54.5728C41.4587 54.5728 41.0996 54.5303 40.7355 54.4928C40.3779 54.4504 40.0183 54.4262 39.6582 54.4203H39.6507Z" fill="#093F68"/>
<path d="M46.4612 70.7501V69.2501C46.4612 68.8134 46.3754 68.3811 46.2087 67.9777C46.042 67.5742 45.7977 67.2077 45.4898 66.8989C45.1818 66.5902 44.8161 66.3453 44.4137 66.1782C44.0113 66.0111 43.5801 65.9251 43.1445 65.9251H37.9076C37.4721 65.9251 37.0408 66.0111 36.6384 66.1782C36.236 66.3453 35.8704 66.5902 35.5624 66.8989C35.2544 67.2077 35.0101 67.5742 34.8434 67.9777C34.6767 68.3811 34.5909 68.8134 34.5909 69.2501V70.7501H46.4612Z" fill="#F56132"/>
<path d="M46.4612 71.0001H34.5959C34.5298 71.0001 34.4663 70.9737 34.4196 70.9269C34.3728 70.88 34.3465 70.8164 34.3465 70.7501V69.2501C34.3479 68.3023 34.724 67.3938 35.3925 66.7236C36.061 66.0535 36.9672 65.6764 37.9126 65.6751H43.1495C44.0948 65.6764 45.0011 66.0535 45.6696 66.7236C46.3381 67.3938 46.7142 68.3023 46.7155 69.2501V70.7501C46.7155 70.7833 46.7089 70.8163 46.6961 70.8469C46.6832 70.8776 46.6644 70.9054 46.6407 70.9286C46.6171 70.9519 46.589 70.9702 46.5581 70.9825C46.5273 70.9948 46.4943 71.0007 46.4612 71.0001ZM34.8453 70.5001H46.2118V69.2501C46.2105 68.4349 45.8869 67.6536 45.3119 67.0772C44.737 66.5008 43.9576 66.1764 43.1445 66.1751H37.9076C37.0945 66.1764 36.3151 66.5008 35.7402 67.0772C35.1652 67.6536 34.8416 68.4349 34.8403 69.2501L34.8453 70.5001Z" fill="#093F68"/>
<path d="M35.2618 59.3801C35.5781 58.1614 35.9712 56.964 36.4388 55.7951C36.688 55.0724 37.0723 54.4038 37.571 53.8252C37.9301 53.4502 38.2792 53.3952 38.768 53.4152C38.8727 53.4152 39.7505 53.4702 39.6059 53.7202C39.9899 53.0577 40.8129 52.8952 41.5061 52.7852C42.3814 52.6452 43.2917 52.5352 44.0498 53.0927C44.7975 53.6475 45.32 54.4546 45.5211 55.3652C45.5703 55.5381 45.5913 55.7179 45.5834 55.8976C45.5345 56.2106 45.4113 56.5073 45.2243 56.7626C44.9026 57.2826 44.4562 57.8751 44.2268 58.4401C43.9575 59.1201 44.1345 60.1401 44.1919 60.8501C44.334 62.5776 44.6906 64.2801 44.7605 66.0151C44.7954 66.9951 43.6408 67.1301 42.9251 67.4001C41.8256 67.8022 40.6418 67.9158 39.4862 67.7301C37.5835 67.4376 35.8453 66.4526 34.3516 65.2301C34.1321 65.0501 34.5411 63.0651 34.581 62.7451C34.6782 61.9951 34.8304 61.2451 34.985 60.4951C35.0748 60.1301 35.1645 59.7501 35.2618 59.3801Z" fill="#231F20"/>
<path d="M40.5934 68.0652C40.2127 68.0644 39.8326 68.0352 39.4563 67.9777C37.7107 67.7102 35.9451 66.8527 34.202 65.4302C33.9975 65.2627 33.9526 64.8952 34.2842 63.0602C34.3117 62.9002 34.3341 62.7777 34.3416 62.7177C34.4264 62.0577 34.5536 61.3602 34.7506 60.4552C34.8329 60.0727 34.9226 59.7052 35.0199 59.3177C35.3403 58.0891 35.7367 56.8818 36.2069 55.7027C36.4683 54.9494 36.8703 54.2529 37.3915 53.6502C37.8079 53.2177 38.2319 53.1502 38.778 53.1652C39.0581 53.1648 39.3359 53.2147 39.5984 53.3127C40.1096 52.7527 40.9426 52.6202 41.4687 52.5377C42.2493 52.4127 43.3191 52.2427 44.1994 52.8927C44.9938 53.4814 45.5491 54.3383 45.763 55.3052C45.8183 55.5035 45.8418 55.7094 45.8328 55.9152C45.7816 56.2692 45.6455 56.6055 45.4363 56.8952C45.3465 57.0377 45.2493 57.1877 45.147 57.3402C44.8823 57.7148 44.6543 58.1142 44.4662 58.5327C44.2667 59.0327 44.3465 59.8102 44.4089 60.4327C44.4238 60.5727 44.4388 60.7052 44.4488 60.8302C44.5086 61.5552 44.6084 62.2927 44.6981 63.0027C44.8328 63.9827 44.97 65.0027 45.0099 66.0027C45.0498 67.0027 44.1071 67.2877 43.4188 67.5027C43.2767 67.5477 43.1371 67.5902 43.0124 67.6377C42.2378 67.923 41.4187 68.0677 40.5934 68.0652ZM34.5511 65.0652C36.2144 66.4127 37.8902 67.2252 39.5386 67.4777C40.6522 67.6581 41.7934 67.5488 42.8528 67.1602C42.9849 67.1102 43.1346 67.0652 43.2892 67.0177C44.0373 66.7827 44.536 66.5877 44.536 66.0177C44.4986 65.0327 44.3615 64.0327 44.2293 63.0677C44.1321 62.3477 44.0298 61.6052 43.9799 60.8652C43.9799 60.7452 43.955 60.6152 43.9425 60.4802C43.8702 59.8027 43.7854 58.9627 44.0298 58.3427C44.2291 57.8919 44.4731 57.4622 44.758 57.0602C44.8577 56.9127 44.9525 56.7652 45.0398 56.6252C45.2031 56.403 45.3139 56.1466 45.364 55.8752C45.3672 55.7222 45.347 55.5696 45.3041 55.4227C45.1178 54.5696 44.6297 53.813 43.9301 53.2927C43.2717 52.7927 42.4737 52.8852 41.5735 53.0277C40.8752 53.1402 40.167 53.2952 39.8503 53.8427C39.8243 53.8882 39.7848 53.9244 39.7372 53.9461C39.6896 53.9678 39.6364 53.974 39.5852 53.9638C39.5339 53.9535 39.4871 53.9274 39.4515 53.8891C39.4158 53.8508 39.3931 53.8022 39.3865 53.7502C39.1912 53.6967 38.9903 53.6665 38.788 53.6602C38.3366 53.6452 38.0722 53.6902 37.7905 53.9952C37.3154 54.5526 36.9491 55.1946 36.7107 55.8877C36.2468 57.0467 35.8569 58.2341 35.5436 59.4427C35.4488 59.8077 35.359 60.1927 35.2768 60.5602C35.0822 61.4477 34.96 62.1327 34.8753 62.7802C34.8753 62.8452 34.8453 62.9752 34.8154 63.1427C34.7032 63.5577 34.4887 64.7852 34.5511 65.0702V65.0652Z" fill="#093F68"/>
<path d="M53.1669 65.3304H54.8277V66.2888C54.8277 66.4767 54.7534 66.6568 54.621 66.7896C54.4887 66.9225 54.3091 66.9971 54.122 66.9971H53.8726C53.7799 66.9971 53.6882 66.9788 53.6025 66.9432C53.5169 66.9076 53.4391 66.8554 53.3736 66.7896C53.308 66.7239 53.2561 66.6458 53.2206 66.5599C53.1851 66.474 53.1669 66.3819 53.1669 66.2888V65.3304Z" fill="#FFC9B0"/>
<path d="M54.122 67.2511H53.8726C53.6199 67.2511 53.3776 67.1504 53.199 66.9712C53.0203 66.792 52.92 66.549 52.92 66.2956V65.3377C52.92 65.2713 52.9463 65.2077 52.993 65.1608C53.0398 65.1139 53.1032 65.0876 53.1694 65.0876H54.8302C54.8963 65.0876 54.9598 65.1139 55.0065 65.1608C55.0533 65.2077 55.0796 65.2713 55.0796 65.3377V66.2956C55.0792 66.4214 55.0542 66.5459 55.0059 66.662C54.9576 66.7781 54.887 66.8835 54.7981 66.9722C54.7091 67.061 54.6037 67.1313 54.4877 67.1791C54.3717 67.2269 54.2474 67.2514 54.122 67.2511ZM53.4162 65.5878V66.2956C53.4169 66.4161 53.4649 66.5315 53.5499 66.6168C53.6349 66.702 53.7499 66.7502 53.8701 66.7508H54.1195C54.2401 66.7508 54.3558 66.7029 54.4413 66.6176C54.5268 66.5323 54.5752 66.4166 54.5758 66.2956V65.5878H53.4162Z" fill="#093F68"/>
<path d="M53.9973 65.5477C53.3583 65.548 52.7255 65.4221 52.1351 65.1771C51.5446 64.9321 51.0082 64.5728 50.5563 64.1199C50.1045 63.6669 49.7461 63.129 49.5017 62.5371C49.2573 61.9452 49.1317 61.3108 49.132 60.6702V57.1302C49.4163 57.5977 50.3614 57.4127 51.743 55.0327C56.925 57.6627 58.8601 56.1552 58.8601 56.1552V60.6702C58.8605 61.3106 58.7349 61.9448 58.4907 62.5366C58.2465 63.1283 57.8883 63.666 57.4367 64.119C56.9851 64.5719 56.449 64.9312 55.8588 65.1764C55.2687 65.4215 54.6361 65.5477 53.9973 65.5477Z" fill="#FFC9B0"/>
<path d="M53.9973 65.7977C52.6412 65.7964 51.3411 65.2558 50.3822 64.2945C49.4233 63.3332 48.884 62.0297 48.8826 60.6703V57.1303C48.883 57.076 48.901 57.0234 48.9338 56.9803C48.9666 56.9372 49.0125 56.9059 49.0645 56.8913C49.1166 56.8766 49.172 56.8793 49.2224 56.899C49.2728 56.9186 49.3155 56.9542 49.344 57.0003C49.3599 57.0281 49.3833 57.0508 49.4116 57.0658C49.4398 57.0809 49.4717 57.0876 49.5036 57.0853C49.6308 57.0853 50.324 56.9753 51.526 54.9053C51.558 54.8498 51.61 54.8088 51.6712 54.7907C51.7325 54.7726 51.7983 54.7787 51.8552 54.8078C56.7928 57.3078 58.6881 55.9703 58.708 55.9553C58.7452 55.9274 58.7895 55.9106 58.8357 55.9066C58.882 55.9027 58.9285 55.9117 58.9699 55.9328C59.011 55.9535 59.0456 55.9853 59.0698 56.0246C59.094 56.0639 59.1069 56.1091 59.107 56.1553V60.6703C59.1057 62.0289 58.5671 63.3316 57.6093 64.2927C56.6514 65.2539 55.3526 65.7951 53.9973 65.7977ZM49.3814 57.5753V60.6703C49.3611 61.2904 49.4653 61.9083 49.688 62.4873C49.9107 63.0662 50.2473 63.5943 50.6777 64.0403C51.1081 64.4862 51.6235 64.8407 52.1934 65.0829C52.7633 65.325 53.3759 65.4498 53.9948 65.4498C54.6138 65.4498 55.2264 65.325 55.7963 65.0829C56.3661 64.8407 56.8816 64.4862 57.312 64.0403C57.7424 63.5943 58.079 63.0662 58.3016 62.4873C58.5243 61.9083 58.6286 61.2904 58.6083 60.6703V56.5653C57.8003 56.8928 55.723 57.2828 51.8377 55.3603C50.9649 56.8103 50.1619 57.5803 49.5086 57.5853C49.4659 57.5867 49.4233 57.5834 49.3814 57.5753Z" fill="#093F68"/>
<path d="M59.8077 70.7501V69.7001C59.8081 69.2634 59.7225 68.8309 59.5559 68.4273C59.3894 68.0238 59.1451 67.6571 58.837 67.3483C58.529 67.0394 58.1632 66.7945 57.7607 66.6276C57.3581 66.4606 56.9267 66.3748 56.4911 66.3751H51.2542C50.8185 66.3748 50.3871 66.4606 49.9846 66.6276C49.582 66.7945 49.2163 67.0394 48.9082 67.3483C48.6002 67.6571 48.3559 68.0238 48.1893 68.4273C48.0227 68.8309 47.9372 69.2634 47.9375 69.7001V70.7501H59.8077Z" fill="#70CC40"/>
<path d="M59.8077 71H47.9425C47.8763 71 47.8129 70.9737 47.7661 70.9268C47.7194 70.8799 47.6931 70.8163 47.6931 70.75V69.7C47.6937 68.7521 48.0697 67.8432 48.7383 67.1729C49.4069 66.5026 50.3136 66.1257 51.2591 66.125H56.496C57.4416 66.1257 58.3482 66.5026 59.0169 67.1729C59.6855 67.8432 60.0614 68.7521 60.0621 69.7V70.75C60.0621 70.7833 60.0555 70.8162 60.0426 70.8469C60.0298 70.8775 60.011 70.9053 59.9873 70.9286C59.9636 70.9519 59.9355 70.9702 59.9047 70.9825C59.8738 70.9947 59.8409 71.0007 59.8077 71ZM48.1918 70.5H59.5583V69.7C59.5577 68.8847 59.2343 68.1029 58.6592 67.5264C58.0841 66.9499 57.3043 66.6257 56.491 66.625H51.2542C50.4409 66.6257 49.6611 66.9499 49.086 67.5264C48.5109 68.1029 48.1875 68.8847 48.1868 69.7L48.1918 70.5Z" fill="#093F68"/>
<path d="M49.8701 58.4577C49.4113 58.1077 48.93 57.7827 48.7529 57.2727C48.324 56.0402 49.501 54.2327 50.6581 53.8277C50.92 53.7327 53.1095 53.8852 52.9424 54.1902C53.2965 53.5427 54.1244 53.3577 54.8551 53.2427C55.8676 53.0802 57.1743 52.8277 57.9474 53.6302C58.694 54.3966 59.2293 55.3442 59.501 56.3802C59.7743 57.5025 59.8519 58.6638 59.7304 59.8127C59.6908 60.7179 59.4569 61.6039 59.0446 62.4102C58.2711 63.6904 57.088 64.6702 55.688 65.1902C54.9534 65.4924 54.1482 65.5791 53.3663 65.4402C51.9449 65.1377 51.1469 63.9002 50.9998 62.5377C50.895 61.5777 51.1718 60.1477 50.698 59.2877C50.481 58.9576 50.1994 58.6752 49.8701 58.4577Z" fill="#231F20"/>
<path d="M54.0572 65.7501C53.8059 65.7514 53.5551 65.7263 53.309 65.6751C51.9026 65.3801 50.92 64.1751 50.743 62.5576C50.7145 62.1874 50.7079 61.816 50.723 61.4451C50.7405 60.6951 50.7554 59.9201 50.4737 59.4126C50.2767 59.1109 50.0225 58.8509 49.7255 58.6476L49.6108 58.5626C49.1694 58.2301 48.7106 57.8851 48.5235 57.3476C48.0472 55.9826 49.2991 54.0376 50.5809 53.5826C50.7978 53.5076 52.2966 53.5476 52.91 53.8001C53.3465 53.3001 54.0796 53.1051 54.8203 52.9876L54.9549 52.9651C55.9998 52.7976 57.3015 52.5876 58.132 53.4476C58.9065 54.2447 59.4623 55.2291 59.7454 56.3051C60.0287 57.4547 60.1088 58.6452 59.9823 59.8226C59.9397 60.7636 59.6956 61.6845 59.2666 62.5226C58.4605 63.8529 57.2305 64.872 55.7754 65.4151C55.2273 65.6292 54.6453 65.7426 54.0572 65.7501ZM50.9924 54.0476C50.9039 54.0443 50.8153 54.0502 50.728 54.0651C49.6881 54.4326 48.6058 56.1126 48.9824 57.1901C49.1196 57.5851 49.4986 57.8701 49.8976 58.1701L50.0148 58.2576C50.3726 58.5 50.6772 58.813 50.9101 59.1776C51.2567 59.8026 51.2392 60.6476 51.2218 61.4626C51.2082 61.8085 51.2148 62.1549 51.2417 62.5001C51.3614 63.6001 51.9899 64.8851 53.4138 65.1851C54.1501 65.3096 54.9065 65.223 55.5958 64.9351C56.9396 64.4316 58.0759 63.4905 58.8227 62.2626C59.2166 61.4858 59.4395 60.6332 59.4761 59.7626C59.5975 58.6431 59.5224 57.511 59.2541 56.4176C58.9907 55.423 58.4753 54.5136 57.7579 53.7776C57.1095 53.1051 55.9499 53.2926 55.0148 53.4426L54.8776 53.4626C54.1993 53.5726 53.4462 53.7351 53.147 54.2851C53.1313 54.314 53.1101 54.3396 53.0845 54.3603C53.059 54.381 53.0296 54.3964 52.9981 54.4057C52.9666 54.415 52.9336 54.418 52.9009 54.4144C52.8682 54.4109 52.8366 54.4009 52.8078 54.3851C52.7785 54.3687 52.7527 54.3465 52.7322 54.3198C52.7116 54.2932 52.6966 54.2627 52.6881 54.2301C52.1327 54.0982 51.563 54.0369 50.9924 54.0476Z" fill="#093F68"/>
<path d="M66.5134 64.1254H68.1742V65.0839C68.1742 65.2717 68.0999 65.4519 67.9675 65.5847C67.8352 65.7175 67.6557 65.7921 67.4685 65.7921H67.2191C67.032 65.7921 66.8525 65.7175 66.7201 65.5847C66.5878 65.4519 66.5134 65.2717 66.5134 65.0839V64.1254Z" fill="#FFC9B0"/>
<path d="M67.4685 66.0411H67.2191C66.9662 66.0404 66.7239 65.9392 66.5454 65.7596C66.3668 65.5801 66.2665 65.3368 66.2665 65.0831V64.1252C66.2665 64.0589 66.2928 63.9953 66.3395 63.9483C66.3863 63.9014 66.4497 63.8751 66.5159 63.8751H68.1767C68.2428 63.8751 68.3063 63.9014 68.353 63.9483C68.3998 63.9953 68.4261 64.0589 68.4261 64.1252V65.0831C68.4254 65.3374 68.3242 65.5811 68.1447 65.7607C67.9652 65.9402 67.722 66.0411 67.4685 66.0411ZM66.7627 64.3753V65.0831C66.7627 65.2041 66.8105 65.3202 66.8955 65.4059C66.9806 65.4917 67.096 65.5402 67.2166 65.5409H67.466C67.587 65.5409 67.7031 65.4926 67.7887 65.4068C67.8743 65.321 67.9223 65.2045 67.9223 65.0831V64.3753H66.7627Z" fill="#093F68"/>
<path d="M67.3439 64.345C66.0535 64.345 64.816 63.8311 63.9036 62.9164C62.9911 62.0017 62.4785 60.7611 62.4785 59.4675V55.9275C62.7628 56.395 63.708 56.2075 65.092 53.8275C70.274 56.46 72.2067 54.9525 72.2067 54.9525V59.4675C72.2067 60.7607 71.6944 62.0009 70.7825 62.9155C69.8706 63.8302 68.6338 64.3443 67.3439 64.345Z" fill="#FFC9B0"/>
<path d="M67.3439 64.5953C65.9878 64.594 64.6876 64.0534 63.7287 63.0921C62.7698 62.1308 62.2305 60.8273 62.2292 59.4679V55.9279C62.2271 55.8717 62.244 55.8166 62.277 55.7712C62.31 55.7259 62.3573 55.693 62.4112 55.6779C62.4637 55.6636 62.5193 55.6668 62.5697 55.6871C62.6201 55.7074 62.6626 55.7437 62.6905 55.7904C62.7063 55.8194 62.7304 55.8431 62.7598 55.8583C62.7891 55.8734 62.8223 55.8794 62.8551 55.8754C62.9798 55.8754 63.6731 55.7629 64.8751 53.6954C64.907 53.6399 64.959 53.5989 65.0203 53.5808C65.0815 53.5627 65.1473 53.5688 65.2042 53.5979C70.1419 56.0979 72.0371 54.7604 72.0571 54.7454C72.093 54.7199 72.1349 54.7044 72.1787 54.7005C72.2225 54.6965 72.2666 54.7042 72.3064 54.7229C72.3476 54.7436 72.3821 54.7754 72.4063 54.8147C72.4306 54.854 72.4434 54.8992 72.4436 54.9454V59.4604C72.4449 60.8188 71.9088 62.1222 70.9527 63.0849C69.9967 64.0475 68.6989 64.5907 67.3439 64.5953ZM62.7279 56.3729V59.4679C62.7076 60.088 62.8119 60.7059 63.0346 61.2849C63.2573 61.8638 63.5938 62.3919 64.0242 62.8379C64.4546 63.2838 64.9701 63.6383 65.54 63.8805C66.1098 64.1227 66.7224 64.2474 67.3414 64.2474C67.9603 64.2474 68.5729 64.1227 69.1428 63.8805C69.7127 63.6383 70.2281 63.2838 70.6585 62.8379C71.0889 62.3919 71.4255 61.8638 71.6482 61.2849C71.8709 60.7059 71.9752 60.088 71.9548 59.4679V55.3629C71.1468 55.6879 69.0695 56.0804 65.1843 54.1554C64.3115 55.6079 63.5085 56.3754 62.8551 56.3829C62.8125 56.3832 62.77 56.3798 62.7279 56.3729Z" fill="#093F68"/>
<path d="M73.1543 70.7502V68.5002C73.1543 68.0635 73.0685 67.6312 72.9018 67.2277C72.7351 66.8243 72.4908 66.4578 72.1828 66.149C71.8749 65.8403 71.5092 65.5954 71.1068 65.4283C70.7044 65.2612 70.2731 65.1752 69.8376 65.1752H64.6007C63.7213 65.1758 62.878 65.5264 62.2562 66.1498C61.6343 66.7732 61.2847 67.6185 61.284 68.5002V70.7502H73.1543Z" fill="#FFBC0E"/>
<path d="M73.1542 71.0002H61.289C61.2228 71.0002 61.1594 70.9738 61.1127 70.9269C61.0659 70.8801 61.0396 70.8165 61.0396 70.7502V68.5002C61.0409 67.5524 61.4171 66.6439 62.0855 65.9737C62.754 65.3036 63.6603 64.9265 64.6057 64.9252H69.8425C70.7879 64.9265 71.6942 65.3036 72.3627 65.9737C73.0312 66.6439 73.4073 67.5524 73.4086 68.5002V70.7502C73.4086 70.7834 73.402 70.8163 73.3892 70.847C73.3763 70.8777 73.3575 70.9055 73.3338 70.9287C73.3101 70.952 73.282 70.9703 73.2512 70.9826C73.2204 70.9949 73.1874 71.0008 73.1542 71.0002ZM61.5384 70.5002H72.9049V68.5002C72.9042 67.6848 72.5808 66.9031 72.0057 66.3265C71.4307 65.75 70.6509 65.4258 69.8376 65.4252H64.6007C63.7876 65.4265 63.0082 65.7509 62.4332 66.3273C61.8583 66.9037 61.5347 67.685 61.5334 68.5002L61.5384 70.5002Z" fill="#093F68"/>
<path d="M62.9448 56.8827C62.6461 56.7922 62.379 56.6188 62.1742 56.3827C62.0602 56.1924 61.9999 55.9747 61.9997 55.7527C61.8376 53.1252 64.3862 51.0827 66.865 52.0027C67.0096 52.0577 67.6705 51.7527 67.8625 51.7102C68.3002 51.6257 68.7468 51.5972 69.1917 51.6252C69.9316 51.6685 70.6521 51.8797 71.2989 52.2427C71.8207 52.5835 72.2438 53.056 72.5258 53.6127C72.9996 54.4527 73.0245 55.4077 73.2614 56.3352C73.5682 57.4977 73.86 58.6652 74.1018 59.8352C74.5033 61.9186 74.7203 64.0335 74.7502 66.1552C74.7976 67.8602 74.6031 68.6552 72.6979 69.1202C71.7313 69.3078 70.7433 69.3583 69.7627 69.2702C68.9263 69.2614 68.0944 69.1471 67.2864 68.9302C66.4717 68.7107 65.7579 68.2151 65.2665 67.5277C64.1917 65.8902 64.6206 63.3577 64.3488 61.5027C64.2066 60.5327 64.3139 59.6377 64.2017 58.6727C64.1778 58.3361 64.077 58.0095 63.907 57.7181C63.7371 57.4268 63.5026 57.1786 63.2216 56.9927C63.1314 56.951 63.039 56.9143 62.9448 56.8827Z" fill="#231F20"/>
<path d="M70.8724 69.5778C70.5009 69.5778 70.1243 69.5628 69.7477 69.5428C68.8903 69.5328 68.0374 69.4152 67.2091 69.1928C66.3392 68.9568 65.5773 68.4269 65.052 67.6928C64.2815 66.5178 64.2465 64.9703 64.2116 63.4728C64.2114 62.8361 64.1731 62.1999 64.0969 61.5678C64.0321 61.0546 64.0021 60.5376 64.0071 60.0203C64.0113 59.5888 63.9922 59.1573 63.9498 58.7278C63.9324 58.4283 63.8459 58.1369 63.697 57.8766C63.5482 57.6163 63.341 57.3942 63.0919 57.2278C63.0116 57.1822 62.9283 57.1421 62.8426 57.1078L62.7578 57.0703C62.4462 56.9673 62.1708 56.7763 61.9648 56.5203C61.8277 56.2939 61.7528 56.0351 61.7478 55.7703C61.7054 55.1018 61.8311 54.4332 62.1134 53.8261C62.3958 53.2189 62.8257 52.6926 63.3638 52.2953C63.8646 51.9148 64.4533 51.6676 65.0751 51.5767C65.6969 51.4858 66.3315 51.5541 66.9198 51.7753C67.0899 51.7315 67.2565 51.6755 67.4186 51.6078C67.5435 51.5557 67.6718 51.5123 67.8026 51.4778C68.2609 51.3899 68.7285 51.3605 69.1941 51.3903C69.974 51.4345 70.7334 51.6578 71.4136 52.0428C71.9767 52.4016 72.4339 52.9048 72.7378 53.5003C73.0344 54.0923 73.2284 54.7306 73.3113 55.3878C73.3662 55.6828 73.421 55.9878 73.4983 56.2803C73.8724 57.6978 74.1318 58.7803 74.3412 59.8028C74.7427 61.9006 74.9613 64.0295 74.9946 66.1653C75.047 68.0403 74.7452 68.9028 72.7502 69.3803C72.1343 69.5202 71.5039 69.5865 70.8724 69.5778ZM63.0446 56.6528C63.1343 56.6928 63.2391 56.7403 63.3413 56.7978C63.6565 57.0025 63.9202 57.2776 64.1114 57.6017C64.3027 57.9257 64.4164 58.2898 64.4435 58.6653C64.4897 59.1121 64.5105 59.5612 64.5059 60.0103C64.4993 60.505 64.5277 60.9996 64.5907 61.4903C64.6707 62.1431 64.7106 62.8001 64.7104 63.4578C64.7453 64.8828 64.7777 66.3578 65.4585 67.4128C65.9192 68.051 66.5849 68.5109 67.3438 68.7153C68.1325 68.925 68.9443 69.0351 69.7602 69.0428C70.7173 69.1314 71.6822 69.0826 72.6255 68.8978C74.3712 68.4778 74.5333 67.8203 74.4859 66.1853C74.4531 64.0781 74.2378 61.9777 73.8425 59.9078C73.6355 58.9078 73.3762 57.8203 73.0071 56.4078C72.9248 56.0953 72.8674 55.7828 72.8101 55.4778C72.7374 54.8751 72.5629 54.2892 72.2939 53.7453C72.0345 53.2267 71.6431 52.786 71.1592 52.4678C70.5462 52.1262 69.8644 51.9271 69.1642 51.8853C68.7411 51.858 68.3162 51.8849 67.8999 51.9653C67.7974 51.9946 67.6967 52.0296 67.5981 52.0703C67.1493 52.2403 66.9348 52.3078 66.7727 52.2478C66.2586 52.0508 65.7028 51.9883 65.1579 52.0661C64.613 52.144 64.0968 52.3597 63.658 52.6928C63.1856 53.0425 62.8088 53.5061 62.5626 54.0405C62.3163 54.5749 62.2085 55.163 62.2491 55.7503C62.249 55.9253 62.2936 56.0975 62.3787 56.2503C62.5343 56.4248 62.7343 56.5536 62.9573 56.6228L63.0446 56.6528Z" fill="#093F68"/>
<path d="M36.1894 28.4404H27.1346C27.0685 28.4404 27.0051 28.414 26.9583 28.3668C26.9115 28.3197 26.8853 28.2557 26.8853 28.1891C26.8853 28.1224 26.9115 28.0585 26.9583 28.0113C27.0051 27.9642 27.0685 27.9377 27.1346 27.9377H36.1894C36.2556 27.9377 36.319 27.9642 36.3658 28.0113C36.4125 28.0585 36.4388 28.1224 36.4388 28.1891C36.4388 28.2557 36.4125 28.3197 36.3658 28.3668C36.319 28.414 36.2556 28.4404 36.1894 28.4404Z" fill="#DFEAEF"/>
<path d="M31.2468 31.9129H27.1347C27.0685 31.9129 27.0051 31.8865 26.9583 31.8393C26.9115 31.7922 26.8853 31.7282 26.8853 31.6616C26.8853 31.5949 26.9115 31.531 26.9583 31.4838C27.0051 31.4367 27.0685 31.4102 27.1347 31.4102H31.2468C31.313 31.4102 31.3764 31.4367 31.4232 31.4838C31.4699 31.531 31.4962 31.5949 31.4962 31.6616C31.4962 31.7282 31.4699 31.7922 31.4232 31.8393C31.3764 31.8865 31.313 31.9129 31.2468 31.9129Z" fill="#DFEAEF"/>
<path d="M34.9151 43.5701H27.1347C27.0685 43.5701 27.0051 43.5438 26.9583 43.4969C26.9115 43.45 26.8853 43.3865 26.8853 43.3201V34.6927C26.8853 34.6264 26.9115 34.5628 26.9583 34.5159C27.0051 34.469 27.0685 34.4427 27.1347 34.4427C27.2008 34.4427 27.2642 34.469 27.311 34.5159C27.3578 34.5628 27.384 34.6264 27.384 34.6927V43.0701H34.9151C34.9813 43.0701 35.0447 43.0965 35.0915 43.1434C35.1382 43.1903 35.1645 43.2538 35.1645 43.3201C35.1645 43.3865 35.1382 43.45 35.0915 43.4969C35.0447 43.5438 34.9813 43.5701 34.9151 43.5701Z" fill="#DFEAEF"/>
<path d="M27.1346 43.5703C27.0993 43.5701 27.0645 43.5625 27.0324 43.5478C27.0023 43.5343 26.9752 43.515 26.9526 43.4909C26.9301 43.4668 26.9125 43.4385 26.9009 43.4076C26.8893 43.3767 26.8839 43.3438 26.8851 43.3108C26.8863 43.2778 26.8939 43.2453 26.9077 43.2153C27.1247 42.7378 29.0573 38.5228 30.4912 38.0678C30.5994 38.0301 30.7144 38.0161 30.8284 38.0269C30.9425 38.0377 31.0528 38.073 31.1521 38.1303C31.5735 38.389 31.9147 38.7604 32.1371 39.2028C32.2368 39.3753 32.3216 39.5253 32.4039 39.5428C32.4862 39.5603 32.6533 39.5428 33.152 39.1853C34.6308 38.1528 35.95 35.3553 35.9625 35.3278C35.9748 35.2958 35.9934 35.2667 36.0174 35.2423C36.0413 35.2179 36.07 35.1986 36.1017 35.1858C36.1334 35.1729 36.1673 35.1667 36.2015 35.1676C36.2356 35.1684 36.2693 35.1763 36.3003 35.1907C36.3313 35.2051 36.359 35.2258 36.3817 35.2514C36.4044 35.277 36.4216 35.307 36.4322 35.3395C36.4429 35.3721 36.4467 35.4065 36.4436 35.4406C36.4404 35.4747 36.4303 35.5078 36.4139 35.5378C36.359 35.6578 35.0273 38.4878 33.4363 39.5978C32.9052 39.9678 32.5735 40.0978 32.2917 40.0303C32.0099 39.9628 31.8528 39.7153 31.7007 39.4528C31.5229 39.0842 31.2433 38.7744 30.8952 38.5603C30.8572 38.54 30.8152 38.5281 30.7722 38.5255C30.7291 38.5229 30.686 38.5297 30.6458 38.5453C29.6109 38.8728 27.9276 42.1778 27.3665 43.4228C27.3465 43.4675 27.3139 43.5052 27.2727 43.5315C27.2314 43.5577 27.1834 43.5712 27.1346 43.5703Z" fill="#DFEAEF"/>
<path d="M66.8451 28.4404H57.5509C57.4847 28.4404 57.4213 28.414 57.3745 28.3668C57.3278 28.3197 57.3015 28.2557 57.3015 28.1891C57.3015 28.1224 57.3278 28.0585 57.3745 28.0113C57.4213 27.9642 57.4847 27.9377 57.5509 27.9377H66.8451C66.9112 27.9377 66.9746 27.9642 67.0214 28.0113C67.0682 28.0585 67.0945 28.1224 67.0945 28.1891C67.0945 28.2557 67.0682 28.3197 67.0214 28.3668C66.9746 28.414 66.9112 28.4404 66.8451 28.4404Z" fill="#DFEAEF"/>
<path d="M66.8451 31.0603H57.5509C57.4847 31.0603 57.4213 31.0339 57.3745 30.9867C57.3278 30.9396 57.3015 30.8756 57.3015 30.809C57.3015 30.7423 57.3278 30.6784 57.3745 30.6312C57.4213 30.5841 57.4847 30.5576 57.5509 30.5576H66.8451C66.9112 30.5576 66.9746 30.5841 67.0214 30.6312C67.0682 30.6784 67.0944 30.7423 67.0944 30.809C67.0944 30.8756 67.0682 30.9396 67.0214 30.9867C66.9746 31.0339 66.9112 31.0603 66.8451 31.0603Z" fill="#DFEAEF"/>
<path d="M66.8451 33.6804H57.5509C57.4847 33.6804 57.4213 33.6539 57.3745 33.6068C57.3278 33.5596 57.3015 33.4957 57.3015 33.429C57.3015 33.3624 57.3278 33.2984 57.3745 33.2513C57.4213 33.2042 57.4847 33.1777 57.5509 33.1777H66.8451C66.9112 33.1777 66.9746 33.2042 67.0214 33.2513C67.0682 33.2984 67.0944 33.3624 67.0944 33.429C67.0944 33.4957 67.0682 33.5596 67.0214 33.6068C66.9746 33.6539 66.9112 33.6804 66.8451 33.6804Z" fill="#DFEAEF"/>
<path d="M66.8451 43.5702H57.5509C57.4847 43.5702 57.4213 43.5439 57.3745 43.497C57.3278 43.4501 57.3015 43.3865 57.3015 43.3202V36.9602C57.3015 36.8939 57.3278 36.8303 57.3745 36.7835C57.4213 36.7366 57.4847 36.7102 57.5509 36.7102H66.8451C66.9112 36.7102 66.9746 36.7366 67.0214 36.7835C67.0682 36.8303 67.0944 36.8939 67.0944 36.9602V43.3202C67.0944 43.3865 67.0682 43.4501 67.0214 43.497C66.9746 43.5439 66.9112 43.5702 66.8451 43.5702ZM57.8002 43.0702H66.5957V37.2102H57.8002V43.0702Z" fill="#DFEAEF"/>
</svg>
