<svg width="96" height="96" viewBox="0 0 96 96" fill="none" xmlns="http://www.w3.org/2000/svg">
<rect y="0.000305176" width="96" height="96" rx="15" fill="#131C73"/>
<path d="M73.2566 24.7332L70.5888 21.8974C70.3212 21.6129 70.0036 21.3873 69.6539 21.2333C69.3043 21.0794 68.9296 21.0001 68.5512 21.0001C68.1728 21.0001 67.798 21.0794 67.4484 21.2333C67.0988 21.3873 66.7812 21.6129 66.5136 21.8974L62.3466 26.3316C61.9973 26.7018 61.7343 27.1538 61.5785 27.6514L60.4837 31.1457L53.6173 38.4444C52.5224 37.606 51.3213 36.9379 50.0067 36.6125C46.9949 35.8679 43.9741 36.5283 41.914 38.7181C41.0736 39.615 40.4485 40.7137 40.0916 41.9214C39.5513 43.6978 38.0018 45.0501 36.2964 45.2195C34.1625 45.4368 32.1789 46.3154 30.6591 47.9415C26.5497 52.2972 27.2889 60.1452 32.2843 65.4522C37.2797 70.7592 44.6575 71.5345 48.7597 67.1817C50.2903 65.5661 51.1151 63.4586 51.3213 61.1798C51.4797 59.3757 52.752 57.7219 54.4213 57.1467C55.5577 56.7666 56.5915 56.1019 57.4358 55.2086C59.495 53.0188 60.1136 49.8145 59.4167 46.6188C59.1115 45.2176 58.483 43.939 57.6916 42.7713L64.5561 35.4745L67.8408 34.3107C68.3089 34.1452 68.7341 33.8656 69.0824 33.4943L73.2539 29.0611C73.7937 28.4873 74.0971 27.7092 74.0976 26.8978C74.0981 26.0863 73.7957 25.3078 73.2566 24.7332ZM46.7284 54.6899C45.8736 54.6899 45.038 54.4204 44.3273 53.9156C43.6165 53.4108 43.0626 52.6934 42.7355 51.8539C42.4084 51.0145 42.3228 50.0908 42.4895 49.1996C42.6563 48.3085 43.0679 47.4899 43.6723 46.8474C44.2768 46.2049 45.0469 45.7674 45.8852 45.5902C46.7236 45.4129 47.5926 45.5039 48.3823 45.8516C49.172 46.1993 49.847 46.7881 50.3219 47.5436C50.7968 48.2991 51.0503 49.1873 51.0503 50.0959C51.0503 51.3143 50.5949 52.4828 49.7844 53.3443C48.9739 54.2058 47.8746 54.6899 46.7284 54.6899Z" fill="white"/>
</svg>
