<svg width="96" height="96" viewBox="0 0 96 96" fill="none" xmlns="http://www.w3.org/2000/svg">
<rect x="-3.05176e-05" y="0.000305176" width="96" height="96" rx="15" fill="#131C73"/>
<path opacity="0.5" d="M53.5701 28.0107C54.2024 28.0107 54.7995 28.2258 55.2562 28.6202C56.6261 29.8393 57.2584 31.4887 57.1179 33.6041C56.872 37.9785 55.5723 40.345 52.5865 44.1815L53.1837 47.9105C54.2375 47.9463 57.6799 48.3766 58.9796 52.0697C60.2442 55.6194 59.1201 58.4878 55.6074 60.5674C55.4669 60.6391 55.3616 60.8543 55.3967 61.0335C55.7479 62.6829 56.3802 66.7346 54.4834 68.9576C53.3593 70.2843 51.7084 71.0014 49.9872 71.0014C49.8115 71.0014 49.6359 71.0014 49.4251 70.9655C47.7742 70.8221 46.3691 69.9616 45.5963 68.599C44.964 67.4517 44.8938 66.0175 45.4207 65.0135C45.7719 64.153 46.5096 63.5076 47.3878 63.3641C47.3878 63.3641 47.6337 63.3283 47.9147 63.3283C48.0201 63.3283 48.1606 63.3283 48.2659 63.3641C49.671 63.4717 50.6194 64.7267 50.5492 66.3402C50.5141 67.2724 49.9872 68.0971 49.1441 68.6349C48.828 68.8142 48.5118 68.9576 48.1957 68.9935C48.4767 69.1369 48.7577 69.2086 49.109 69.2803C49.4954 69.352 49.8818 69.3879 50.233 69.3879C51.0058 69.3879 51.6732 69.1727 52.2353 68.7783C53.5701 67.8461 53.816 66.0533 53.816 66.0533V65.9816C53.816 65.9816 54.2024 64.6549 53.6052 61.3204C53.6052 61.2487 53.535 61.177 53.4647 61.177C53.1486 61.2128 52.6919 61.2487 52.0948 61.2487C50.1979 61.2487 47.1419 60.8901 44.964 58.8822C43.4184 57.4839 42.6105 55.7987 42.5754 53.8983C42.5051 51.3526 43.8048 48.5917 46.2637 46.0818C47.0716 45.2572 47.7742 44.5759 48.4064 43.9664C49.2846 43.1058 49.9169 42.4604 50.2682 42.0302C49.8818 40.5959 47.5634 31.3094 52.165 28.3334C52.6217 28.1182 53.0783 28.0107 53.5701 28.0107ZM52.0948 40.5601C56.2046 36.4009 55.1859 32.887 54.1672 31.1301C54.0619 30.9508 53.8862 30.8074 53.7106 30.7357C53.6755 30.7357 53.6403 30.7357 53.5701 30.7357C53.4647 30.7357 53.3945 30.7716 53.2891 30.8074C50.5492 32.5285 51.6732 38.6239 52.0948 40.5601ZM51.8489 59.671C52.446 59.671 52.9378 59.5993 53.2539 59.5635C53.2891 59.5635 53.3242 59.5276 53.3242 59.4918C53.3593 59.4559 53.3593 59.3842 53.3593 59.3125L51.9191 51.8546C51.1815 52.2848 50.7248 52.7868 50.5492 53.3963C50.2682 54.5079 51.0761 55.7628 51.5679 56.4082C51.7435 56.6233 51.7435 56.9102 51.5679 57.1612C51.4625 57.3046 51.2868 57.3763 51.1463 57.3763C51.0761 57.3763 50.9707 57.3404 50.9004 57.3046C48.828 56.3365 48.3713 54.723 48.3713 54.6513C47.4229 50.9582 50.6194 48.8427 51.5327 48.3407L51.0761 45.293C48.2659 48.0539 47.1419 50.5638 46.6501 52.1773C46.1232 54.0417 46.2988 55.225 46.2988 55.225C46.5096 56.7309 47.1068 57.8783 48.1254 58.5954C49.2495 59.4918 50.6897 59.671 51.8489 59.671ZM55.0805 59.0256C55.7128 58.5595 56.2046 58.0217 56.5559 57.448C57.5394 55.9779 57.4692 53.8983 56.3802 52.5358C55.5372 51.4243 54.378 51.245 53.7808 51.245L55.0805 59.0256Z" fill="white"/>
<path d="M37.0183 35.8981H30.7025C30.3161 35.8981 30 36.2208 30 36.6152V62.4312C30 62.8256 30.3161 63.1483 30.7025 63.1483H37.0183V35.8981Z" fill="#FFF0F0"/>
<path d="M34.1485 35.9055H71V36.9837H34.1485V35.9055Z" fill="white"/>
<path d="M34.1485 42.449H71V43.5272H34.1485V42.449Z" fill="#FFFDFD"/>
<path d="M34.1485 48.9966H71V50.0748H34.1485V48.9966Z" fill="white"/>
<path d="M34.1485 55.5429H71V56.6212H34.1485V55.5429Z" fill="white"/>
<path d="M34.1485 62.0869H71V63.1651H34.1485V62.0869Z" fill="white"/>
<path d="M55.6074 60.5662C59.12 58.4866 60.2441 55.654 58.9795 52.0685C57.6447 48.3754 54.2374 47.9451 53.1836 47.9093L52.5865 44.1803C55.5722 40.3438 56.8719 37.9773 57.1178 33.6029C57.2232 31.4875 56.626 29.8381 55.2561 28.619C54.4482 27.9019 53.1134 27.7944 52.2001 28.3681C47.5984 31.3441 49.9168 40.6306 50.3032 42.0648C49.9519 42.4951 49.3197 43.1405 48.4415 44.001C47.8092 44.6106 47.1067 45.3277 46.2988 46.1165C43.875 48.6264 42.5402 51.3872 42.6104 53.933C42.6456 55.8333 43.4535 57.5185 44.9991 58.9169C47.8795 61.5702 52.2352 61.3551 53.5349 61.2116C53.6051 61.2116 53.6403 61.2475 53.6754 61.3551C54.3077 64.6896 53.8861 66.0163 53.8861 66.0163V66.088C53.8861 66.1238 53.6403 67.8807 52.3054 68.813C51.4975 69.3867 50.4437 69.5301 49.1792 69.2791C48.8279 69.2074 48.5117 69.0998 48.2659 68.9923C48.582 68.9564 48.8981 68.813 49.2143 68.6337C50.0222 68.1317 50.5491 67.2712 50.6194 66.339C50.6896 64.7255 49.7412 63.5064 48.3361 63.363C47.9848 63.2912 47.4579 63.363 47.4579 63.363C46.5798 63.5422 45.8421 64.1518 45.4908 65.0123C44.9288 66.0163 44.9991 67.4505 45.6665 68.5979C46.4393 69.9604 47.8443 70.8209 49.4953 70.9643C49.6709 71.0002 49.8466 71.0002 50.0573 71.0002C51.7785 71.0002 53.4295 70.2472 54.5536 68.9564C56.4504 66.7334 55.8181 62.6459 55.4669 61.0324C55.3966 60.8531 55.4669 60.6738 55.6074 60.5662ZM53.3241 30.8062C53.3944 30.7704 53.4997 30.7345 53.6051 30.7345H53.7456C53.9213 30.7704 54.0969 30.9138 54.2023 31.1289C55.221 32.8858 56.2396 36.3638 52.1298 40.5589C51.6732 38.6227 50.5491 32.5273 53.3241 30.8062ZM53.3592 59.5264C53.3241 59.5623 53.3241 59.5981 53.289 59.5981C52.3054 59.7416 49.8466 59.9208 48.1254 58.63C47.1418 57.8771 46.5095 56.7656 46.2988 55.2596C46.088 53.7537 46.088 54.0764 46.65 52.2119C47.1418 50.5626 48.301 48.0885 51.076 45.3277L51.5327 48.4471C50.6194 48.9491 47.4228 51.0645 48.3712 54.7577C48.3712 54.8294 48.863 56.4429 50.9004 57.411C51.1463 57.5185 51.4273 57.4468 51.6029 57.2675C51.7785 57.0524 51.7785 56.7656 51.6029 56.5146C51.1111 55.8692 50.3032 54.6142 50.5842 53.5027C50.7247 52.8932 51.1814 52.3912 51.9542 51.9609L53.3944 59.4189C53.3944 59.4189 53.3944 59.4906 53.3592 59.5264ZM55.0805 59.0245L53.8159 51.2438C54.3779 51.2438 55.5371 51.4231 56.4153 52.5346C57.4691 53.8971 57.5393 55.9767 56.5909 57.4468C56.2045 58.0205 55.7127 58.5583 55.0805 59.0245Z" fill="white"/>
</svg>
