<svg width="96" height="96" viewBox="0 0 96 96" fill="none" xmlns="http://www.w3.org/2000/svg">
<rect width="96" height="96" rx="15" fill="#131C73"/>
<path opacity="0.5" d="M53.5701 28.0093C54.2024 28.0093 54.7995 28.2244 55.2562 28.6188C56.6261 29.8379 57.2584 31.4873 57.1179 33.6027C56.872 37.9771 55.5723 40.3436 52.5865 44.1801L53.1837 47.9091C54.2375 47.9449 57.6799 48.3752 58.9796 52.0683C60.2442 55.618 59.1201 58.4864 55.6074 60.566C55.4669 60.6377 55.3616 60.8529 55.3967 61.0321C55.7479 62.6815 56.3802 66.7332 54.4834 68.9562C53.3593 70.2828 51.7084 71 49.9872 71C49.8115 71 49.6359 71 49.4251 70.9641C47.7742 70.8207 46.3691 69.9602 45.5963 68.5976C44.964 67.4503 44.8938 66.0161 45.4207 65.0121C45.7719 64.1516 46.5096 63.5062 47.3878 63.3627C47.3878 63.3627 47.6337 63.3269 47.9147 63.3269C48.0201 63.3269 48.1606 63.3269 48.2659 63.3627C49.671 63.4703 50.6194 64.7253 50.5492 66.3388C50.5141 67.271 49.9872 68.0957 49.1441 68.6335C48.828 68.8128 48.5118 68.9562 48.1957 68.9921C48.4767 69.1355 48.7577 69.2072 49.109 69.2789C49.4954 69.3506 49.8818 69.3865 50.233 69.3865C51.0058 69.3865 51.6732 69.1713 52.2353 68.7769C53.5701 67.8447 53.816 66.0519 53.816 66.0519V65.9802C53.816 65.9802 54.2024 64.6535 53.6052 61.319C53.6052 61.2473 53.535 61.1756 53.4647 61.1756C53.1486 61.2114 52.6919 61.2473 52.0948 61.2473C50.1979 61.2473 47.1419 60.8887 44.964 58.8808C43.4184 57.4825 42.6105 55.7972 42.5754 53.8969C42.5051 51.3512 43.8048 48.5903 46.2637 46.0804C47.0716 45.2557 47.7742 44.5745 48.4064 43.965C49.2846 43.1044 49.9169 42.459 50.2682 42.0288C49.8818 40.5945 47.5634 31.308 52.165 28.332C52.6217 28.1168 53.0783 28.0093 53.5701 28.0093ZM52.0948 40.5587C56.2046 36.3995 55.1859 32.8856 54.1672 31.1287C54.0619 30.9494 53.8862 30.806 53.7106 30.7343C53.6755 30.7343 53.6403 30.7343 53.5701 30.7343C53.4647 30.7343 53.3945 30.7701 53.2891 30.806C50.5492 32.5271 51.6732 38.6225 52.0948 40.5587ZM51.8489 59.6696C52.446 59.6696 52.9378 59.5979 53.2539 59.5621C53.2891 59.5621 53.3242 59.5262 53.3242 59.4904C53.3593 59.4545 53.3593 59.3828 53.3593 59.3111L51.9191 51.8532C51.1815 52.2834 50.7248 52.7854 50.5492 53.3949C50.2682 54.5065 51.0761 55.7614 51.5679 56.4068C51.7435 56.6219 51.7435 56.9088 51.5679 57.1598C51.4625 57.3032 51.2868 57.3749 51.1463 57.3749C51.0761 57.3749 50.9707 57.339 50.9004 57.3032C48.828 56.3351 48.3713 54.7216 48.3713 54.6499C47.4229 50.9568 50.6194 48.8413 51.5327 48.3393L51.0761 45.2916C48.2659 48.0525 47.1419 50.5624 46.6501 52.1759C46.1232 54.0403 46.2988 55.2236 46.2988 55.2236C46.5096 56.7295 47.1068 57.8769 48.1254 58.594C49.2495 59.4904 50.6897 59.6696 51.8489 59.6696ZM55.0805 59.0242C55.7128 58.5581 56.2046 58.0203 56.5559 57.4466C57.5394 55.9765 57.4692 53.8969 56.3802 52.5344C55.5372 51.4229 54.378 51.2436 53.7808 51.2436L55.0805 59.0242Z" fill="white"/>
<path d="M37.0183 35.8975H30.7025C30.3161 35.8975 30 36.2202 30 36.6146V62.4305C30 62.8249 30.3161 63.1476 30.7025 63.1476H37.0183V35.8975Z" fill="#FFF0F0"/>
<path d="M34.1485 35.9048H71V36.9804H34.1485V35.9048Z" fill="white"/>
<path d="M34.1485 42.4482H71V43.5239H34.1485V42.4482Z" fill="#FFFDFD"/>
<path d="M34.1485 48.9956H71V50.0713H34.1485V48.9956Z" fill="white"/>
<path d="M34.1485 55.5427H71V56.6184H34.1485V55.5427Z" fill="white"/>
<path d="M34.1485 62.0864H71V63.1621H34.1485V62.0864Z" fill="white"/>
<path d="M55.6074 60.5661C59.1201 58.4864 60.2442 55.6539 58.9796 52.0683C57.6448 48.3752 54.2375 47.9449 53.1837 47.9091L52.5865 44.1801C55.5723 40.3436 56.872 37.9771 57.1179 33.6028C57.2233 31.4873 56.6261 29.8379 55.2562 28.6189C54.4483 27.9017 53.1134 27.7942 52.2001 28.3679C47.5985 31.3439 49.9169 40.6304 50.3033 42.0647C49.952 42.4949 49.3197 43.1403 48.4416 44.0008C47.8093 44.6104 47.1067 45.3275 46.2988 46.1163C43.8751 48.6262 42.5403 51.3871 42.6105 53.9328C42.6456 55.8331 43.4536 57.5183 44.9991 58.9167C47.8795 61.57 52.2353 61.3549 53.535 61.2115C53.6052 61.2115 53.6403 61.2473 53.6755 61.3549C54.3077 64.6894 53.8862 66.0161 53.8862 66.0161V66.0878C53.8862 66.1237 53.6403 67.8806 52.3055 68.8128C51.4976 69.3865 50.4438 69.5299 49.1792 69.2789C48.828 69.2072 48.5118 69.0997 48.2659 68.9921C48.5821 68.9562 48.8982 68.8128 49.2144 68.6335C50.0223 68.1316 50.5492 67.271 50.6194 66.3388C50.6897 64.7253 49.7413 63.5062 48.3362 63.3628C47.9849 63.2911 47.458 63.3628 47.458 63.3628C46.5798 63.5421 45.8422 64.1516 45.4909 65.0121C44.9289 66.0161 44.9991 67.4503 45.6666 68.5977C46.4393 69.9602 47.8444 70.8207 49.4954 70.9641C49.671 71 49.8466 71 50.0574 71C51.7786 71 53.4296 70.247 54.5536 68.9562C56.4505 66.7332 55.8182 62.6457 55.4669 61.0322C55.3967 60.8529 55.4669 60.6736 55.6074 60.5661ZM53.3242 30.806C53.3944 30.7702 53.4998 30.7343 53.6052 30.7343H53.7457C53.9213 30.7702 54.097 30.9136 54.2024 31.1287C55.221 32.8857 56.2397 36.3636 52.1299 40.5587C51.6732 38.6225 50.5492 32.5271 53.3242 30.806ZM53.3593 59.5263C53.3242 59.5621 53.3242 59.598 53.2891 59.598C52.3055 59.7414 49.8466 59.9207 48.1254 58.6299C47.1419 57.8769 46.5096 56.7654 46.2988 55.2595C46.0881 53.7535 46.0881 54.0762 46.6501 52.2117C47.1419 50.5624 48.3011 48.0884 51.0761 45.3275L51.5327 48.4469C50.6194 48.9489 47.4229 51.0644 48.3713 54.7575C48.3713 54.8292 48.8631 56.4427 50.9004 57.4108C51.1463 57.5184 51.4273 57.4466 51.603 57.2674C51.7786 57.0522 51.7786 56.7654 51.603 56.5144C51.1112 55.869 50.3033 54.6141 50.5843 53.5025C50.7248 52.893 51.1815 52.391 51.9542 51.9608L53.3944 59.4187C53.3944 59.4187 53.3944 59.4904 53.3593 59.5263ZM55.0805 59.0243L53.816 51.2436C54.378 51.2436 55.5372 51.4229 56.4153 52.5344C57.4692 53.897 57.5394 55.9766 56.591 57.4466C56.2046 58.0203 55.7128 58.5582 55.0805 59.0243Z" fill="white"/>
</svg>
