<svg width="96" height="96" viewBox="0 0 96 96" fill="none" xmlns="http://www.w3.org/2000/svg">
<rect width="96" height="96" rx="15" fill="#131C73"/>
<path d="M67 28.477V27.1296C61.6537 25.0526 56.6773 26.1241 51.8387 28.0541C51.2947 26.9167 50.3177 26.066 49.0892 26.0201C47.6384 25.9657 46.2448 26.9354 45.5006 28.2792C44.9819 29.2145 44.848 30.1906 44.9182 31.1833C41.0364 32.9994 37.1721 34.6557 33.2 34.9108C29.4781 35.3208 29.7693 35.2771 28 35.5136V59.1461L33.1993 59.7905C33.1993 59.7876 33.1993 59.7854 33.1993 59.7833C39.0877 62.1627 45.9556 61.3901 52.5511 61.8682C52.9606 63.1066 53.3916 64.4454 53.0711 65.6567C52.6818 67.1195 51.2895 68.0067 49.9492 67.8233C51.506 67.28 52.2885 65.2353 51.3792 63.6879C50.6141 62.3856 48.8852 62.056 47.7737 62.9948C45.4376 64.9686 47.6319 68.474 49.9284 68.932C51.4169 69.2302 52.9333 68.5292 53.829 67.194C54.8222 65.7133 54.7072 64.0978 54.3185 62.4014C54.2893 62.2746 54.258 62.1484 54.2288 62.0223C58.8165 62.5318 63.2183 63.8355 67 67.4635V66.1082C63.1357 62.1477 58.6085 60.9221 53.8882 60.581C53.5853 59.3146 52.4731 54.8072 52.4731 54.8072C52.4731 54.8072 53.5196 54.4711 54.6948 53.2154C58.7963 53.019 62.8978 53.5974 67 56.1976V54.818C63.3067 52.293 59.6141 51.5928 55.9208 51.6989C57.2078 49.6971 57.7726 47.1478 57.1226 44.7182C60.4148 44.6508 63.7077 45.4657 67 48.0329V46.6526C63.5712 44.0165 60.1425 43.2783 56.7144 43.4604C55.3812 40.4832 51.5982 39.3408 49.0411 41.106C48.9053 40.5642 48.7694 40.0216 48.6336 39.4798C54.7559 37.7182 60.8776 36.3908 67 39.8676V38.4915C60.7892 35.4061 54.5798 36.7477 48.3697 38.4384C48.3613 38.4083 48.3554 38.3775 48.3456 38.3474C48.3014 38.1991 48.9144 37.5325 49.0067 37.4064C49.6151 36.5678 50.204 35.7071 50.7402 34.8112C51.6788 33.2445 52.5505 31.3438 52.258 29.4058C52.2528 29.3729 52.2424 29.3413 52.2365 29.3084C56.9575 27.5983 61.8045 26.6702 67 28.477ZM47.3648 28.6476C47.9316 28.0513 48.8929 27.622 49.6495 28.0219C49.9323 28.171 50.1455 28.4103 50.3002 28.6963C49.0736 29.2281 47.8536 29.7979 46.6381 30.372C46.6842 29.7477 46.8792 29.1557 47.3648 28.6476ZM47.1087 43.4912C46.9241 43.9141 46.7869 44.3606 46.7024 44.82C46.6452 45.1282 46.6218 45.4414 46.6127 45.7553C45.5877 46.0742 44.562 46.391 43.5363 46.6791C43.5506 45.8685 43.6897 45.0601 43.9737 44.3118C44.6218 42.6039 45.8997 41.3174 47.0131 39.9837C47.2075 40.7548 47.3537 41.5611 47.604 42.3129C47.6007 42.3051 47.5995 42.3008 47.6066 42.323C47.7126 42.6376 47.2458 43.178 47.1087 43.4912ZM47.9927 43.8933C48.1045 44.3369 48.2156 44.7813 48.3261 45.2249C48.0304 45.3159 47.7333 45.4069 47.4369 45.4987C47.5364 44.9332 47.7158 44.3842 47.9927 43.8933ZM33.1993 35.7422C37.2352 35.5164 41.1482 33.9727 45.0709 32.2805C45.1327 32.5823 45.2009 32.8854 45.2835 33.1886C45.5656 34.2249 45.8321 35.2635 46.0947 36.3063C46.1909 36.694 46.2877 37.0803 46.3833 37.4666C46.4021 37.5383 46.4743 37.8235 46.4879 37.8192C46.3131 38.2084 45.901 38.5753 45.639 38.9C45.5376 39.0254 45.4336 39.1501 45.329 39.2748C41.286 40.3793 37.243 41.3511 33.1993 41.0644C33.1993 39.5902 33.1993 37.4358 33.1993 35.7422ZM33.1993 42.2499C36.8153 42.5996 40.4319 41.8198 44.0472 40.8122C43.5551 41.4343 43.0988 42.0865 42.7511 42.8182C42.1225 44.137 41.8118 45.6349 41.8534 47.1242C38.9687 47.8294 36.084 48.2035 33.1993 47.666C33.1993 45.9774 33.1993 44.1714 33.1993 42.2499ZM33.1993 48.6794C36.1146 49.2549 39.0305 48.898 41.9457 48.2093C42.2525 50.2827 43.2652 52.1583 44.718 53.4727C40.8784 54.2245 37.0389 54.7556 33.1993 53.9357C33.1993 52.5324 33.1993 50.3185 33.1993 48.6794ZM33.1993 58.8974C33.1993 57.8296 33.1993 55.8106 33.1993 54.7778C37.4406 55.6651 41.6825 55.0731 45.9231 54.3722C46.2162 54.5471 46.5185 54.7055 46.8318 54.8373C48.1155 55.3792 49.489 55.5146 50.8436 55.2917C51.3057 57.0154 51.6788 58.7663 52.1332 60.4935C45.6748 60.2893 38.9707 61.2948 33.1993 58.8974ZM55.467 45.1274C56.0774 47.5642 55.2643 50.2146 53.6009 51.8623C52.9984 51.9282 52.3958 52.0092 51.7926 52.1024C51.2719 50.0225 50.7506 47.9405 50.2306 45.8606C51.946 45.3969 53.66 45.0106 55.3754 44.8257C55.4066 44.926 55.441 45.0242 55.467 45.1274ZM49.6898 42.1768C51.543 41.1526 53.6847 41.9195 54.8203 43.6503C53.1972 43.8825 51.5735 44.2774 49.9511 44.7418C49.8127 44.1907 49.6749 43.641 49.5377 43.0891C49.409 42.5788 49.2218 42.4362 49.6898 42.1768ZM48.5998 46.3215C49.1055 48.3433 49.6112 50.3651 50.1169 52.3869C49.1445 52.5668 48.1714 52.7661 47.199 52.9682C45.8308 52.3002 44.6757 51.094 44.055 49.561C43.8268 48.9998 43.678 48.3992 43.598 47.7886C44.625 47.5083 45.652 47.2023 46.679 46.8941C46.72 47.16 46.7726 47.4245 46.8454 47.6839C46.9254 47.967 47.29 48.0143 47.4272 47.7556C47.5474 47.5298 47.4174 47.036 47.368 46.6877C47.7788 46.5637 48.1903 46.4419 48.5998 46.3215ZM47.7912 36.1142C47.5182 35.0248 47.2471 33.9375 46.9735 32.851C46.8695 32.4332 46.77 32.0025 46.7011 31.5731C48.0044 31.0055 49.3109 30.4408 50.6245 29.919C50.633 30.048 50.6362 30.1763 50.6317 30.3003C50.5439 32.5149 49.0009 34.488 47.7912 36.1142Z" fill="white"/>
</svg>
