<svg width="96" height="96" viewBox="0 0 96 96" fill="none" xmlns="http://www.w3.org/2000/svg">
<rect width="96" height="96" rx="15" fill="#131C73"/>
<path d="M62.3125 26H65V57.625C65 61.4228 60.7887 64.5 55.5938 64.5C50.3988 64.5 46.1875 61.4228 46.1875 57.625C46.1875 53.8272 50.3988 50.75 55.5938 50.75C58.2248 50.75 60.6059 51.5393 62.3125 52.8153V37L40.8125 41.8895V63.125C40.8125 66.9228 36.6012 70 31.4062 70C26.2113 70 22 66.9228 22 63.125C22 59.3272 26.2113 56.25 31.4062 56.25C34.0373 56.25 36.4184 57.0393 38.125 58.3153V31.5L62.3125 26Z" fill="white"/>
</svg>
