<svg width="96" height="96" viewBox="0 0 96 96" fill="none" xmlns="http://www.w3.org/2000/svg">
<rect x="-1.52588e-05" y="0.000305176" width="96" height="96" rx="15" fill="#131C73"/>
<path d="M67 28.4772V27.1298C61.6537 25.0528 56.6773 26.1243 51.8387 28.0544C51.2947 26.917 50.3177 26.0662 49.0892 26.0204C47.6384 25.9659 46.2448 26.9356 45.5006 28.2794C44.9819 29.2147 44.848 30.1909 44.9182 31.1835C41.0364 32.9996 37.1721 34.6559 33.2 34.9111C29.4781 35.321 29.7693 35.2773 28 35.5138V59.1464L33.1993 59.7907C33.1993 59.7878 33.1993 59.7857 33.1993 59.7835C39.0877 62.163 45.9556 61.3904 52.5511 61.8684C52.9606 63.1069 53.3916 64.4457 53.0711 65.6569C52.6818 67.1197 51.2895 68.007 49.9492 67.8235C51.5059 67.2802 52.2885 65.2355 51.3792 63.6881C50.6141 62.3859 48.8851 62.0562 47.7736 62.9951C45.4375 64.9689 47.6319 68.4743 49.9284 68.9322C51.4169 69.2304 52.9333 68.5295 53.829 67.1942C54.8222 65.7135 54.7072 64.0981 54.3185 62.4016C54.2892 62.2748 54.258 62.1486 54.2288 62.0225C58.8165 62.5321 63.2183 63.8358 67 67.4637V66.1084C63.1357 62.1479 58.6085 60.9224 53.8882 60.5812C53.5853 59.3148 52.4731 54.8075 52.4731 54.8075C52.4731 54.8075 53.5196 54.4713 54.6948 53.2157C58.7963 53.0193 62.8978 53.5977 67 56.1979V54.8182C63.3067 52.2933 59.614 51.593 55.9207 51.6991C57.2077 49.6974 57.7726 47.1481 57.1226 44.7184C60.4148 44.6511 63.7077 45.466 67 48.0332V46.6528C63.5712 44.0168 60.1425 43.2786 56.7144 43.4606C55.3812 40.4834 51.5982 39.341 49.0411 41.1063C48.9053 40.5644 48.7694 40.0219 48.6336 39.4801C54.7559 37.7184 60.8776 36.3911 67 39.8678V38.4917C60.7892 35.4063 54.5798 36.748 48.3697 38.4387C48.3612 38.4086 48.3554 38.3778 48.3456 38.3477C48.3014 38.1993 48.9144 37.5328 49.0067 37.4066C49.6151 36.5681 50.204 35.7073 50.7402 34.8115C51.6788 33.2447 52.5505 31.344 52.258 29.4061C52.2528 29.3731 52.2424 29.3416 52.2365 29.3086C56.9575 27.5986 61.8045 26.6704 67 28.4772ZM47.3648 28.6478C47.9316 28.0515 48.8929 27.6222 49.6495 28.0221C49.9323 28.1712 50.1455 28.4106 50.3002 28.6965C49.0736 29.2283 47.8536 29.7981 46.6381 30.3722C46.6842 29.7479 46.8792 29.156 47.3648 28.6478ZM47.1087 43.4914C46.9241 43.9143 46.7869 44.3608 46.7024 44.8202C46.6452 45.1284 46.6218 45.4416 46.6127 45.7555C45.5877 46.0744 44.562 46.3912 43.5363 46.6793C43.5506 45.8687 43.6897 45.0603 43.9737 44.3121C44.6218 42.6042 45.8997 41.3177 47.0131 39.9839C47.2075 40.7551 47.3537 41.5614 47.604 42.3132C47.6007 42.3053 47.5994 42.301 47.6066 42.3232C47.7125 42.6378 47.2458 43.1782 47.1087 43.4914ZM47.9927 43.8935C48.1045 44.3371 48.2156 44.7815 48.3261 45.2251C48.0304 45.3162 47.7333 45.4072 47.4369 45.4989C47.5364 44.9334 47.7158 44.3845 47.9927 43.8935ZM33.1993 35.7424C37.2352 35.5167 41.1482 33.9729 45.0709 32.2808C45.1327 32.5825 45.2009 32.8857 45.2835 33.1888C45.5656 34.2252 45.8321 35.2637 46.0947 36.3065C46.1909 36.6942 46.2877 37.0805 46.3833 37.4668C46.4021 37.5385 46.4743 37.8238 46.4879 37.8195C46.3131 38.2086 45.901 38.5756 45.639 38.9002C45.5376 39.0257 45.4336 39.1504 45.329 39.2751C41.286 40.3795 37.243 41.3514 33.1993 41.0647C33.1993 39.5904 33.1993 37.436 33.1993 35.7424ZM33.1993 42.2501C36.8153 42.5999 40.4319 41.8201 44.0472 40.8124C43.5551 41.4345 43.0988 42.0867 42.7511 42.8185C42.1225 44.1372 41.8118 45.6351 41.8534 47.1244C38.9687 47.8296 36.084 48.2038 33.1993 47.6662C33.1993 45.9777 33.1993 44.1716 33.1993 42.2501ZM33.1993 48.6797C36.1146 49.2552 39.0305 48.8982 41.9457 48.2095C42.2525 50.2829 43.2652 52.1585 44.718 53.473C40.8784 54.2248 37.0389 54.7559 33.1993 53.9359C33.1993 52.5326 33.1993 50.3188 33.1993 48.6797ZM33.1993 58.8977C33.1993 57.8298 33.1993 55.8108 33.1993 54.7781C37.4406 55.6654 41.6825 55.0734 45.9231 54.3724C46.2162 54.5473 46.5185 54.7057 46.8318 54.8376C48.1155 55.3794 49.489 55.5148 50.8436 55.292C51.3057 57.0156 51.6788 58.7665 52.1332 60.4938C45.6748 60.2895 38.9707 61.2951 33.1993 58.8977ZM55.467 45.1277C56.0774 47.5645 55.2642 50.2148 53.6009 51.8625C52.9983 51.9285 52.3958 52.0095 51.7926 52.1026C51.2719 50.0228 50.7506 47.9407 50.2306 45.8609C51.946 45.3972 53.66 45.0109 55.3754 44.8259C55.4066 44.9263 55.441 45.0245 55.467 45.1277ZM49.6898 42.177C51.543 41.1528 53.6847 41.9197 54.8203 43.6505C53.1972 43.8828 51.5735 44.2777 49.9511 44.7421C49.8127 44.1909 49.6749 43.6412 49.5377 43.0894C49.409 42.5791 49.2218 42.4365 49.6898 42.177ZM48.5998 46.3217C49.1055 48.3435 49.6112 50.3653 50.1169 52.3872C49.1445 52.567 48.1714 52.7663 47.199 52.9684C45.8308 52.3004 44.6757 51.0942 44.055 49.5612C43.8268 49 43.678 48.3994 43.598 47.7888C44.625 47.5086 45.652 47.2025 46.679 46.8943C46.72 47.1602 46.7726 47.4247 46.8454 47.6842C46.9254 47.9673 47.29 48.0146 47.4272 47.7558C47.5474 47.5301 47.4174 47.0363 47.368 46.6879C47.7788 46.5639 48.1903 46.4421 48.5998 46.3217ZM47.7912 36.1144C47.5182 35.025 47.2471 33.9378 46.9735 32.8513C46.8695 32.4334 46.77 32.0027 46.7011 31.5734C48.0044 31.0058 49.3109 30.441 50.6245 29.9192C50.633 30.0482 50.6362 30.1765 50.6317 30.3005C50.5439 32.5151 49.0008 34.4882 47.7912 36.1144Z" fill="white"/>
</svg>
