<svg width="96" height="96" viewBox="0 0 96 96" fill="none" xmlns="http://www.w3.org/2000/svg">
<rect x="-7.62939e-06" y="0.000305176" width="96" height="96" rx="15" fill="#131C73"/>
<path d="M70.2112 28.6917L70.5968 28.0969L71.044 28.5545L72 27.145L71.527 26.6609L71.9985 25.9334L71.0877 25.0027L70.3775 25.4838L69.9059 25.0005L68.5249 25.9767L68.9735 26.4358L68.3923 26.8289L68.2318 27.7573L67.8477 28.0177L66.8881 27.035L67.2908 26.6228L65.9815 26.0067L65.3028 26.7027L65.9034 28.0426L66.3062 27.6305L67.1482 28.4929L65.8267 29.3913L64.2515 27.7801L63.6682 28.3763L65.4648 30.2164L57.0133 38.2476C55.5599 36.8549 53.377 35.0919 51.0937 35.0919C49.2247 35.0919 47.6581 36.2345 46.4383 38.4845C46.2233 38.8798 46.0786 39.3418 45.9396 39.7885C45.5268 41.1071 45.1699 41.949 43.8863 42.0656L33.2154 31.1456L29.7066 32.6277L30.7364 33.6823L31.3585 34.3189L32.1841 35.1645V35.1638L42.7447 45.9709C42.5992 46.2635 42.3778 46.5437 42.0553 46.7901C41.0814 47.5367 40.2637 47.9158 39.6237 47.9158C39.279 47.9158 38.7723 47.8168 38.3645 46.9632C38.1739 46.5664 37.7747 46.1425 37.2265 46.1425C36.0361 46.1425 35.7824 47.9518 35.6993 48.5436C35.652 48.8751 35.361 49.6591 33.6876 49.7735C31.6523 49.9135 30.0857 51.0862 29.387 52.9886C28.4432 55.5635 29.0172 59.936 33.4626 64.4844C36.3077 67.3967 39.4517 68.9991 42.3154 69.0006H42.3169C45.3497 69.0006 47.5671 67.1018 47.833 64.2768C48.0021 62.4852 48.7976 62.2314 49.0362 62.1962C49.9672 62.0591 51.2227 61.7665 51.3725 60.7991C51.4535 60.2733 51.1446 59.7504 50.5813 59.4681C50.0739 59.2128 49.7815 58.8982 49.6877 58.5037C49.5271 57.8282 49.8833 56.8851 50.7619 55.6765C50.9884 55.3662 51.25 55.1367 51.5467 54.9798L60.4547 64.0957L62.0636 65.7421L63.5134 67.2258L64.5432 68.2796L65.993 64.689L55.3686 53.8173C55.4911 52.4078 56.435 52.0968 57.5931 51.7177C58.0302 51.5747 58.4817 51.4272 58.8687 51.2065C60.8151 50.1013 61.9166 48.7101 62.1402 47.0702C62.495 44.4777 60.5564 41.9659 59.0572 40.337L67.0816 31.4925L67.3883 31.8063L67.9451 30.9483L68.8861 31.9112L68.4841 32.3234L69.7934 32.9394L70.4721 32.2434L69.8701 30.9035L69.468 31.315L68.4095 30.231L68.9864 29.3422L71.1464 31.5533L71.7291 30.9563L69.6221 28.7987L70.2112 28.6917ZM47.2818 40.23C47.4065 39.8325 47.5241 39.457 47.6703 39.1856C48.637 37.4028 49.7572 36.5359 51.0937 36.5359C52.846 36.5359 54.687 38.0071 55.977 39.2333L48.2723 46.5561L45.0502 43.2588C46.5036 42.678 46.9615 41.2538 47.2818 40.23ZM51.5302 53.4485L49.1939 51.0576L49.7772 50.4599L49.8267 50.5105L50.2259 50.0705L53.4537 53.3736C53.1892 53.3245 52.9104 53.2886 52.6123 53.2886C52.2311 53.2886 51.8713 53.3458 51.5302 53.4485ZM41.9213 56.8733L47.6581 51.0019L48.187 51.5431L42.4502 57.4138L41.9213 56.8733ZM45.3555 48.9954C45.3841 48.911 45.4035 48.8098 45.4135 48.7049L45.7998 49.1002L45.4709 49.4368C45.4967 49.2836 45.463 49.1215 45.3555 48.9954ZM46.0671 49.3738L46.5946 49.9135L40.8585 55.785L40.331 55.2452L46.0671 49.3738ZM47.919 48.559L47.3356 49.156L46.8081 48.6162L47.3915 48.0185L47.919 48.559ZM49.5114 50.1878L48.9273 50.7848L48.3991 50.2443L48.9825 49.6466L49.5114 50.1878ZM48.1318 49.9715L47.6022 49.4295L48.1855 48.8318L48.7152 49.3738L48.1318 49.9715ZM46.8619 50.1871L47.3915 50.7291L41.6547 56.5998L41.1258 56.0593L46.8619 50.1871ZM48.4536 51.8152L48.8406 52.2112C48.7374 52.2215 48.6385 52.242 48.5553 52.2714C48.4328 52.1614 48.2737 52.1269 48.1232 52.1533L48.4536 51.8152ZM47.0755 47.6943L47.1242 47.7449L46.5408 48.3419L44.2432 45.9907C44.4288 45.3299 44.436 44.6523 44.3342 44.0406L47.5054 47.2858L47.0755 47.6943ZM33.9227 33.3875L42.3462 42.0077L41.9664 41.9806L42.5698 43.1334C42.5971 43.1848 42.9475 43.8771 42.9877 44.7073L32.9244 34.4084L33.9227 33.3875ZM30.7085 53.4991C31.2109 52.1291 32.3031 51.3172 33.7829 51.2168C36.5571 51.0254 37.0194 49.2843 37.0946 48.7533C37.1476 48.3727 37.2093 48.1036 37.2652 47.9165C37.956 49.1002 38.9156 49.3613 39.6244 49.3613C41.0563 49.3606 42.4444 48.2972 42.9138 47.9371C43.2779 47.6584 43.5509 47.3474 43.7688 47.0226L44.517 47.7882C42.6451 47.6569 40.1268 52.5119 39.0303 51.3906C38.7565 51.1082 38.8268 50.8618 38.902 50.7269C39.0582 50.7467 39.2173 50.7063 39.3356 50.5853C39.5391 50.3763 39.5391 50.0412 39.3356 49.8343C39.1335 49.6275 38.806 49.6275 38.6032 49.8343C38.4319 50.0118 38.4147 50.278 38.5372 50.4827C38.3874 50.7071 38.0986 51.2813 38.6182 51.8123C40.3969 53.6333 43.7222 47.3812 44.8545 48.5407C44.9284 48.6155 44.9348 48.7269 44.9241 48.8245C44.8072 48.834 44.6926 48.8787 44.603 48.9704C44.4009 49.1772 44.4009 49.5124 44.603 49.7199C44.7277 49.8475 44.899 49.8879 45.0609 49.8578L40.0637 54.9732L39.5979 54.4965C39.5979 54.4965 38.7114 56.0109 38.51 56.5602C38.328 57.0523 38.2993 58.1509 38.0513 58.6107C37.4393 59.7423 35.0328 61.9374 33.937 62.9054C30.4462 59.0471 29.989 55.4594 30.7085 53.4991ZM49.6138 54.8404C49.1953 55.4168 47.9204 57.1704 48.3181 58.8461C48.4901 59.5729 48.9395 60.1604 49.6547 60.5967C49.4712 60.6539 49.2082 60.7163 48.8356 60.7705C48.3389 60.8446 46.6978 61.3037 46.4297 64.1412C46.2312 66.2511 44.6546 67.5609 42.3169 67.5609C40.9466 67.5609 38.2212 67.0732 34.9633 63.9615C35.9085 62.8409 38.0549 60.3738 39.1607 59.7482C39.6108 59.493 40.685 59.4637 41.1652 59.2774C41.7027 59.072 43.1819 58.1641 43.1819 58.1641L42.716 57.6874L47.714 52.5721C47.6846 52.7371 47.724 52.9123 47.8487 53.04C48.0508 53.2482 48.379 53.2482 48.5826 53.04C48.6707 52.9498 48.7152 52.8317 48.7238 52.7136C48.8176 52.7004 48.9266 52.7092 48.9997 52.7825C50.1341 53.942 44.0254 57.3478 45.8041 59.1696C46.3237 59.7005 46.8848 59.4042 47.1034 59.251C47.3026 59.3764 47.5635 59.3588 47.7355 59.1813C47.939 58.9745 47.939 58.6393 47.7355 58.4325C47.5334 58.2257 47.2052 58.2242 47.0031 58.4325C46.8848 58.5535 46.8447 58.7185 46.8648 58.8755C46.7322 58.9547 46.4914 59.028 46.2176 58.7457C45.1219 57.6236 49.8661 55.0458 49.7364 53.1287L50.5247 53.9354C50.1872 54.1723 49.8819 54.4737 49.6138 54.8404ZM52.7929 54.7414C53.6235 54.7913 54.3215 55.1624 54.3273 55.166L55.4582 55.7953L55.4302 55.3963L63.8036 63.9644L62.8046 64.986L61.195 63.3388L52.7929 54.7414ZM60.7449 46.87C60.5851 48.0368 59.7237 49.0709 58.1843 49.9444C57.9191 50.0954 57.5522 50.2157 57.1631 50.3433C56.154 50.6741 54.7687 51.1405 54.2047 52.6256L50.9389 49.2836L58.0954 41.3968C59.4062 42.832 61.0108 44.9295 60.7449 46.87Z" fill="white"/>
</svg>
