<svg width="96" height="96" viewBox="0 0 96 96" fill="none" xmlns="http://www.w3.org/2000/svg">
<rect width="96" height="96" rx="15" fill="#131C73"/>
<path d="M70.2112 28.6911L70.5968 28.0963L71.044 28.554L72 27.1444L71.527 26.6604L71.9986 25.9329L71.0877 25.0022L70.3775 25.4833L69.9059 25L68.5249 25.9761L68.9736 26.4352L68.3924 26.8283L68.2318 27.7568L67.8477 28.0171L66.8881 27.0344L67.2909 26.6222L65.9815 26.0062L65.3029 26.7022L65.9034 28.0421L66.3062 27.6299L67.1482 28.4924L65.8267 29.3908L64.2515 27.7795L63.6682 28.3758L65.4648 30.2158L57.0133 38.2471C55.5599 36.8544 53.377 35.0913 51.0938 35.0913C49.2247 35.0913 47.6581 36.2339 46.4384 38.484C46.2234 38.8793 46.0786 39.3413 45.9396 39.7879C45.5268 41.1065 45.1699 41.9485 43.8864 42.0651L33.2154 31.145L29.7066 32.6272L30.7365 33.6818L31.3585 34.3184L32.1841 35.1639V35.1632L42.7447 45.9703C42.5992 46.263 42.3778 46.5431 42.0553 46.7895C41.0814 47.5361 40.2637 47.9153 39.6237 47.9153C39.279 47.9153 38.7723 47.8163 38.3645 46.9626C38.1739 46.5658 37.7747 46.1419 37.2265 46.1419C36.0361 46.1419 35.7824 47.9512 35.6993 48.543C35.652 48.8745 35.361 49.6585 33.6877 49.7729C31.6524 49.913 30.0857 51.0857 29.387 52.9881C28.4432 55.563 29.0172 59.9354 33.4626 64.4838C36.3077 67.3961 39.4517 68.9985 42.3155 69H42.3169C45.3498 69 47.5671 67.1013 47.833 64.2763C48.0021 62.4846 48.7976 62.2309 49.0362 62.1957C49.9672 62.0585 51.2228 61.7659 51.3725 60.7986C51.4535 60.2728 51.1446 59.7499 50.5813 59.4675C50.074 59.2123 49.7816 58.8977 49.6877 58.5031C49.5271 57.8277 49.8833 56.8845 50.7619 55.6759C50.9884 55.3657 51.25 55.1361 51.5467 54.9792L60.4547 64.0951L62.0636 65.7416L63.5134 67.2252L64.5432 68.2791L65.993 64.6884L55.3686 53.8168C55.4911 52.4072 56.435 52.0963 57.5931 51.7171C58.0303 51.5741 58.4817 51.4267 58.8687 51.2059C60.8152 50.1007 61.9167 48.7095 62.1403 47.0697C62.495 44.4772 60.5565 41.9653 59.0572 40.3365L67.0816 31.4919L67.3883 31.8058L67.9452 30.9477L68.8861 31.9107L68.4841 32.3228L69.7934 32.9389L70.4721 32.2429L69.8701 30.903L69.4681 31.3144L68.4096 30.2305L68.9865 29.3416L71.1465 31.5528L71.7291 30.9558L69.6221 28.7982L70.2112 28.6911ZM47.2819 40.2294C47.4066 39.8319 47.5241 39.4564 47.6703 39.1851C48.6371 37.4022 49.7572 36.5354 51.0938 36.5354C52.846 36.5354 54.6871 38.0065 55.977 39.2327L48.2723 46.5556L45.0502 43.2583C46.5036 42.6774 46.9615 41.2532 47.2819 40.2294ZM51.5302 53.4479L49.1939 51.0571L49.7773 50.4594L49.8267 50.51L50.2259 50.0699L53.4537 53.3731C53.1893 53.324 52.9105 53.288 52.6123 53.288C52.2311 53.288 51.8713 53.3452 51.5302 53.4479ZM41.9213 56.8728L47.6581 51.0013L48.187 51.5426L42.4502 57.4133L41.9213 56.8728ZM45.3555 48.9948C45.3842 48.9105 45.4035 48.8093 45.4136 48.7044L45.7998 49.0997L45.4709 49.4363C45.4967 49.283 45.463 49.1209 45.3555 48.9948ZM46.0671 49.3732L46.5946 49.913L40.8585 55.7845L40.331 55.2447L46.0671 49.3732ZM47.919 48.5584L47.3356 49.1554L46.8082 48.6156L47.3915 48.0179L47.919 48.5584ZM49.5114 50.1873L48.9273 50.7843L48.3991 50.2438L48.9825 49.646L49.5114 50.1873ZM48.1318 49.9709L47.6022 49.429L48.1856 48.8313L48.7152 49.3732L48.1318 49.9709ZM46.8619 50.1865L47.3915 50.7285L41.6547 56.5992L41.1258 56.0587L46.8619 50.1865ZM48.4536 51.8147L48.8406 52.2107C48.7374 52.2209 48.6385 52.2415 48.5554 52.2708C48.4328 52.1608 48.2737 52.1263 48.1232 52.1527L48.4536 51.8147ZM47.0755 47.6938L47.1242 47.7444L46.5408 48.3414L44.2433 45.9901C44.4289 45.3294 44.436 44.6517 44.3343 44.0401L47.5055 47.2853L47.0755 47.6938ZM33.9227 33.387L42.3463 42.0071L41.9664 41.98L42.5699 43.1329C42.5971 43.1842 42.9475 43.8765 42.9877 44.7067L32.9244 34.4078L33.9227 33.387ZM30.7085 53.4985C31.2109 52.1285 32.3031 51.3167 33.783 51.2162C36.5571 51.0248 37.0194 49.2838 37.0946 48.7528C37.1477 48.3722 37.2093 48.103 37.2652 47.916C37.956 49.0997 38.9156 49.3608 39.6244 49.3608C41.0563 49.36 42.4445 48.2966 42.9139 47.9365C43.2779 47.6578 43.551 47.3469 43.7688 47.022L44.517 47.7877C42.6451 47.6564 40.1268 52.5114 39.0303 51.39C38.7565 51.1077 38.8268 50.8613 38.902 50.7263C39.0583 50.7461 39.2174 50.7058 39.3356 50.5848C39.5391 50.3758 39.5391 50.0406 39.3356 49.8338C39.1335 49.627 38.806 49.627 38.6032 49.8338C38.4319 50.0113 38.4147 50.2775 38.5373 50.4821C38.3875 50.7065 38.0987 51.2808 38.6182 51.8117C40.397 53.6327 43.7222 47.3806 44.8546 48.5401C44.9284 48.6149 44.9348 48.7264 44.9241 48.8239C44.8073 48.8335 44.6926 48.8782 44.603 48.9699C44.4009 49.1767 44.4009 49.5118 44.603 49.7194C44.7277 49.847 44.899 49.8873 45.061 49.8573L40.0637 54.9726L39.5979 54.4959C39.5979 54.4959 38.7114 56.0103 38.51 56.5596C38.328 57.0517 38.2993 58.1503 38.0514 58.6102C37.4393 59.7418 35.0328 61.9368 33.937 62.9049C30.4462 59.0465 29.989 55.4588 30.7085 53.4985ZM49.6139 54.8399C49.1953 55.4163 47.9204 57.1698 48.3182 58.8456C48.4901 59.5724 48.9395 60.1598 49.6547 60.5962C49.4712 60.6534 49.2082 60.7157 48.8356 60.77C48.3389 60.8441 46.6978 61.3032 46.4298 64.1406C46.2313 66.2505 44.6546 67.5604 42.3169 67.5604C40.9466 67.5604 38.2212 67.0727 34.9633 63.9609C35.9086 62.8403 38.0549 60.3732 39.1607 59.7477C39.6108 59.4924 40.6851 59.4631 41.1652 59.2768C41.7027 59.0715 43.1819 58.1635 43.1819 58.1635L42.7161 57.6868L47.714 52.5715C47.6846 52.7365 47.724 52.9118 47.8487 53.0394C48.0508 53.2477 48.3791 53.2477 48.5826 53.0394C48.6707 52.9492 48.7152 52.8311 48.7238 52.713C48.8177 52.6998 48.9266 52.7086 48.9997 52.782C50.1342 53.9415 44.0254 57.3473 45.8041 59.169C46.3237 59.7 46.8848 59.4037 47.1034 59.2504C47.3027 59.3758 47.5635 59.3582 47.7355 59.1807C47.939 58.9739 47.939 58.6388 47.7355 58.432C47.5334 58.2251 47.2052 58.2237 47.0031 58.432C46.8848 58.553 46.8447 58.718 46.8648 58.8749C46.7322 58.9541 46.4914 59.0275 46.2176 58.7451C45.1219 57.623 49.8661 55.0452 49.7364 53.1281L50.5247 53.9349C50.1872 54.1717 49.8819 54.4732 49.6139 54.8399ZM52.7929 54.7409C53.6235 54.7907 54.3216 55.1618 54.3273 55.1655L55.4582 55.7947L55.4302 55.3958L63.8036 63.9639L62.8046 64.9855L61.195 63.3383L52.7929 54.7409ZM60.7449 46.8695C60.5851 48.0363 59.7237 49.0703 58.1843 49.9438C57.9192 50.0949 57.5522 50.2151 57.1631 50.3428C56.1541 50.6735 54.7688 51.1399 54.2048 52.625L50.939 49.283L58.0955 41.3962C59.4062 42.8315 61.0108 44.9289 60.7449 46.8695Z" fill="white"/>
</svg>
