<svg width="96" height="96" viewBox="0 0 96 96" fill="none" xmlns="http://www.w3.org/2000/svg">
<rect width="96" height="96" rx="15" fill="#131C73"/>
<path d="M73.2566 24.7331L70.5888 21.8973C70.3212 21.6128 70.0036 21.3872 69.654 21.2332C69.3043 21.0792 68.9296 21 68.5512 21C68.1728 21 67.798 21.0792 67.4484 21.2332C67.0988 21.3872 66.7812 21.6128 66.5136 21.8973L62.3466 26.3314C61.9973 26.7017 61.7343 27.1537 61.5786 27.6513L60.4837 31.1456L53.6173 38.4443C52.5224 37.6059 51.3213 36.9378 50.0067 36.6124C46.9949 35.8678 43.9741 36.5282 41.914 38.718C41.0736 39.6149 40.4485 40.7136 40.0916 41.9213C39.5514 43.6977 38.0018 45.05 36.2964 45.2194C34.1625 45.4367 32.1789 46.3153 30.6591 47.9414C26.5497 52.297 27.2889 60.1451 32.2843 65.4521C37.2797 70.7591 44.6575 71.5344 48.7597 67.1816C50.2903 65.566 51.1151 63.4585 51.3213 61.1797C51.4798 59.3756 52.752 57.7218 54.4213 57.1466C55.5577 56.7665 56.5915 56.1018 57.4359 55.2085C59.4951 53.0187 60.1136 49.8144 59.4167 46.6187C59.1115 45.2175 58.483 43.9389 57.6916 42.7712L64.5562 35.4744L67.8408 34.3106C68.3089 34.1451 68.7341 33.8655 69.0824 33.4942L73.2539 29.061C73.7937 28.4872 74.0971 27.7091 74.0976 26.8977C74.0981 26.0862 73.7957 25.3077 73.2566 24.7331ZM46.7284 54.6897C45.8736 54.6897 45.038 54.4203 44.3273 53.9155C43.6165 53.4107 43.0626 52.6932 42.7355 51.8538C42.4084 51.0144 42.3228 50.0907 42.4895 49.1995C42.6563 48.3084 43.0679 47.4898 43.6724 46.8473C44.2768 46.2048 45.0469 45.7673 45.8852 45.59C46.7236 45.4128 47.5926 45.5038 48.3823 45.8515C49.172 46.1992 49.847 46.788 50.3219 47.5435C50.7968 48.299 51.0503 49.1872 51.0503 50.0958C51.0503 51.3142 50.5949 52.4827 49.7844 53.3442C48.9739 54.2057 47.8746 54.6897 46.7284 54.6897Z" fill="white"/>
</svg>
