<svg width="96" height="96" viewBox="0 0 96 96" fill="none" xmlns="http://www.w3.org/2000/svg">
<rect y="0.000366211" width="96" height="96" rx="15" fill="#131C73"/>
<path d="M62.3125 26.0001H65V57.6251C65 61.4229 60.7887 64.5001 55.5937 64.5001C50.3988 64.5001 46.1875 61.4229 46.1875 57.6251C46.1875 53.8274 50.3988 50.7501 55.5937 50.7501C58.2248 50.7501 60.6059 51.5394 62.3125 52.8154V37.0001L40.8125 41.8896V63.1251C40.8125 66.9229 36.6012 70.0001 31.4062 70.0001C26.2113 70.0001 22 66.9229 22 63.1251C22 59.3274 26.2113 56.2501 31.4062 56.2501C34.0373 56.2501 36.4184 57.0394 38.125 58.3154V31.5001L62.3125 26.0001Z" fill="white"/>
</svg>
