<svg width="97" height="96" viewBox="0 0 97 96" fill="none" xmlns="http://www.w3.org/2000/svg">
<rect x="0.944473" y="3.05176e-05" width="95.9445" height="96" rx="15" fill="#131C73"/>
<path d="M55.4805 43.7037L48.3254 39.408V36.1486H51.3793C51.9418 36.1486 52.3973 35.6928 52.3973 35.13V33.0929C52.3973 32.5301 51.9418 32.0743 51.3793 32.0743H48.3254V29.0186C48.3254 28.4559 47.8699 28.0001 47.3074 28.0001H45.2715C44.7091 28.0001 44.2535 28.4559 44.2535 29.0186V32.0743H41.1996C40.6372 32.0743 40.1816 32.5301 40.1816 33.0929V35.13C40.1816 35.6928 40.6372 36.1486 41.1996 36.1486H44.2535V39.408L37.0984 43.7037C36.7969 43.8847 36.5473 44.1407 36.3741 44.4468C36.2008 44.753 36.1097 45.0988 36.1097 45.4506V60.5941H42.2176V54.4827C42.2176 52.2323 44.0404 50.4084 46.2895 50.4084C48.5386 50.4084 50.3614 52.2323 50.3614 54.4827V60.5941H56.4692V45.4506C56.4692 44.735 56.0938 44.0717 55.4805 43.7037ZM25.93 53.2069V59.5755C25.93 60.1383 26.3855 60.5941 26.948 60.5941H34.0738V48.3713L27.1636 51.3341C26.7975 51.4913 26.4855 51.7526 26.2662 52.0855C26.047 52.4184 25.9301 52.8083 25.93 53.2069ZM65.4153 51.3341L58.5052 48.3713V60.5941H65.631C66.1934 60.5941 66.6489 60.1383 66.6489 59.5755V53.2069C66.6489 52.3921 66.1635 51.6555 65.4153 51.3341Z" fill="white"/>
</svg>
