<svg width="96" height="96" viewBox="0 0 96 96" fill="none" xmlns="http://www.w3.org/2000/svg">
<rect y="6.10352e-05" width="95.9445" height="96" rx="15" fill="#131C73"/>
<path fill-rule="evenodd" clip-rule="evenodd" d="M66.6973 60.236L64.142 58.3672L63.983 70.0321L52.6289 69.9605C52.6289 67.7691 52.6284 63.9391 52.6284 63.9223C52.5978 58.055 44.8301 58.0615 44.803 63.9337V69.9111L33.0061 69.837L32.6571 57.6975L29.8876 59.6251L27.9838 56.1882L39.5048 49.2991V40.3707L46.4822 33.6865L46.4087 31.789L43.2926 31.8952L43.2936 27.4508L46.2418 27.4765L46.1204 24.3532L50.582 24.0001L50.5761 27.514L53.6916 27.5412V31.5401L50.5687 31.6468L50.5652 33.6514L57.6695 40.1894L57.5362 49.427L68.7028 57.0688L66.6973 60.236ZM50.812 43.4396C50.7952 40.2966 46.6337 40.3 46.6199 43.4461V49.8152H50.812C50.812 49.8157 50.812 43.453 50.812 43.4396Z" fill="white"/>
</svg>
