<svg width="97" height="96" viewBox="0 0 97 96" fill="none" xmlns="http://www.w3.org/2000/svg">
<path d="M49.5135 25.4758C49.5135 25.4758 46.416 27.1108 46.416 32.099V37.0737H52.6124V32.099C52.6124 27.1108 49.5135 25.4758 49.5135 25.4758Z" fill="#131C73"/>
<path d="M84.301 3.05176e-05H13.4754C6.53574 3.05176e-05 0.888947 5.64834 0.888947 12.5895V83.4106C0.888947 90.3532 6.53422 96 13.4754 96H84.301C91.2406 96 96.8889 90.3532 96.8889 83.4106V12.5895C96.8889 5.64834 91.2406 3.05176e-05 84.301 3.05176e-05ZM76.9132 84.6126H54.8135V72.8618C54.8135 66.8365 49.3605 64.8624 49.3605 64.8624C49.3605 64.8624 43.9075 66.835 43.9075 72.8618V84.6126H22.1545V60.2451L40.4922 51.3889V27.8797L49.524 9.00462L58.5665 27.8797V51.3889L76.9132 60.2451V84.6126Z" fill="#131C73"/>
</svg>
