<svg width="96" height="96" viewBox="0 0 96 96" fill="none" xmlns="http://www.w3.org/2000/svg">
<rect width="96" height="96" rx="15" fill="#131C73"/>
<path d="M54.5676 43.7037L47.4084 39.4079V36.1485H50.4641C51.0268 36.1485 51.4826 35.6927 51.4826 35.1299V33.0928C51.4826 32.5301 51.0268 32.0743 50.4641 32.0743H47.4084V29.0186C47.4084 28.4558 46.9526 28 46.3898 28H44.3527C43.7899 28 43.3341 28.4558 43.3341 29.0186V32.0743H40.2784C39.7157 32.0743 39.2599 32.5301 39.2599 33.0928V35.1299C39.2599 35.6927 39.7157 36.1485 40.2784 36.1485H43.3341V39.4079L36.1749 43.7037C35.8732 43.8846 35.6235 44.1406 35.4501 44.4468C35.2768 44.7529 35.1856 45.0987 35.1856 45.4505V60.594H41.297V54.4826C41.297 52.2322 43.1209 50.4084 45.3713 50.4084C47.6216 50.4084 49.4455 52.2322 49.4455 54.4826V60.594H55.5569V45.4505C55.5569 44.735 55.1813 44.0716 54.5676 43.7037ZM25 53.2069V59.5754C25 60.1382 25.4558 60.594 26.0186 60.594H33.1485V48.3713L26.2344 51.334C25.868 51.4913 25.5558 51.7525 25.3365 52.0854C25.1171 52.4183 25.0001 52.8082 25 53.2069ZM64.5081 51.334L57.594 48.3713V60.594H64.7239C65.2867 60.594 65.7425 60.1382 65.7425 59.5754V53.2069C65.7425 52.392 65.2568 51.6555 64.5081 51.334Z" fill="white"/>
</svg>
