<svg width="96" height="96" viewBox="0 0 96 96" fill="none" xmlns="http://www.w3.org/2000/svg">
<rect width="96" height="96" rx="15" fill="#131C73"/>
<path fill-rule="evenodd" clip-rule="evenodd" d="M66.7359 60.2359L64.1791 58.3671L64.02 70.032L52.6594 69.9604C52.6594 67.7691 52.6589 63.939 52.6589 63.9222C52.6282 58.055 44.8561 58.0614 44.8289 63.9336V69.911L33.0252 69.8369L32.676 57.6974L29.9049 59.625L28 56.1881L39.5276 49.299V40.3706L46.5091 33.6864L46.4355 31.789L43.3176 31.8951L43.3186 27.4507L46.2686 27.4764L46.1471 24.3531L50.6112 24L50.6053 27.5139L53.7227 27.5411V31.54L50.5979 31.6467L50.5945 33.6514L57.7028 40.1893L57.5695 49.4269L68.7425 57.0687L66.7359 60.2359ZM50.8414 43.4396C50.8246 40.2965 46.6607 40.3 46.6469 43.446V49.8151H50.8414C50.8414 49.8156 50.8414 43.4529 50.8414 43.4396Z" fill="white"/>
</svg>
