<svg width="96" height="96" viewBox="0 0 96 96" fill="none" xmlns="http://www.w3.org/2000/svg">
<path d="M48.6245 25.4758C48.6245 25.4758 45.5271 27.1108 45.5271 32.0991V37.0737H51.7234V32.0991C51.7234 27.1108 48.6245 25.4758 48.6245 25.4758Z" fill="#131C73"/>
<path d="M83.412 0H12.5864C5.64679 0 0 5.64831 0 12.5895V83.4105C0 90.3532 5.64528 96 12.5864 96H83.412C90.3517 96 96 90.3532 96 83.4105V12.5895C96 5.64831 90.3517 0 83.412 0ZM76.0243 84.6126H53.9246V72.8618C53.9246 66.8365 48.4716 64.8624 48.4716 64.8624C48.4716 64.8624 43.0186 66.835 43.0186 72.8618V84.6126H21.2655V60.2451L39.6032 51.3888V27.8797L48.6351 9.00459L57.6775 27.8797V51.3888L76.0243 60.2451V84.6126Z" fill="#131C73"/>
</svg>
