<svg width="96" height="96" viewBox="0 0 96 96" fill="none" xmlns="http://www.w3.org/2000/svg">
<rect width="96" height="96" rx="15" fill="#131C73"/>
<path d="M49.5317 59.4308C47.7356 59.4308 45.9184 58.9499 44.5027 58.01L31.7823 49.4193C29.4157 47.8236 28 45.1349 28 42.2059C28 39.2768 29.4157 36.5881 31.7823 34.9924L44.5238 26.4236C47.3553 24.5218 51.7715 24.5218 54.5818 26.4454L67.2388 35.0361C69.5843 36.6318 71 39.3205 71 42.2277C71 45.1349 69.5843 47.8236 67.2388 49.4193L54.5818 58.01C53.1661 58.9718 51.3489 59.4308 49.5317 59.4308ZM49.5317 28.2816C48.3273 28.2816 47.1228 28.5658 46.2565 29.1778L33.5361 37.7466C32.057 38.7521 31.1907 40.3697 31.1907 42.2059C31.1907 44.042 32.0359 45.6596 33.5361 46.6651L46.2565 55.2557C48.0103 56.4361 51.0953 56.4361 52.8491 55.2557L65.5061 46.6651C66.9853 45.6596 67.8305 44.042 67.8305 42.2059C67.8305 40.3697 66.9853 38.7521 65.5061 37.7466L52.8491 29.156C51.9617 28.5876 50.7572 28.2816 49.5317 28.2816Z" fill="white"/>
<path d="M49.5082 71.9999C48.5785 71.9999 47.6276 71.8687 46.867 71.6064L40.1264 69.2893C36.9357 68.1964 34.4212 64.5896 34.4424 61.114L34.4635 50.8621C34.4635 49.9659 35.1819 49.2227 36.0483 49.2227C36.9146 49.2227 37.633 49.9659 37.633 50.8621L37.6119 61.114C37.6119 63.1688 39.2601 65.5296 41.1407 66.1853L47.8812 68.5024C48.7264 68.7866 50.2901 68.7866 51.1353 68.5024L57.8758 66.1853C59.7564 65.5296 61.4046 63.1688 61.4046 61.1359V50.9932C61.4046 50.097 62.123 49.3538 62.9893 49.3538C63.8557 49.3538 64.5741 50.097 64.5741 50.9932V61.1359C64.5741 64.6115 62.0807 68.1964 58.8901 69.3112L52.1495 71.6283C51.3888 71.8687 50.438 71.9999 49.5082 71.9999Z" fill="white"/>
<path d="M69.3732 56.6984C68.5069 56.6984 67.7884 55.9551 67.7884 55.0589V41.9435C67.7884 41.0472 68.5069 40.304 69.3732 40.304C70.2395 40.304 70.958 41.0472 70.958 41.9435V55.0589C70.958 55.9551 70.2395 56.6984 69.3732 56.6984Z" fill="white"/>
</svg>
