<svg width="96" height="96" viewBox="0 0 96 96" fill="none" xmlns="http://www.w3.org/2000/svg">
<rect y="0.000152588" width="96" height="96" rx="15" fill="#131C73"/>
<path d="M44.8387 29.116L30.4579 37.3706C25.8474 40.0171 25.8474 45.9401 30.4579 48.5866L44.8387 56.8412C47.4187 58.3325 51.6709 58.3325 54.2508 56.8412L68.5601 48.5866C73.1467 45.9401 73.1467 40.0381 68.5601 37.3916L54.2508 29.137C51.6709 27.6248 47.4187 27.6248 44.8387 29.116Z" stroke="white" stroke-width="7.48006" stroke-linecap="round" stroke-linejoin="round"/>
<path d="M34.28 51.2752L34.2561 61.1261C34.2561 63.7936 36.5972 66.6501 39.4638 67.4903L47.0842 69.7167C48.3981 70.0948 50.572 70.0948 51.9097 69.7167L59.5302 67.4903C62.3968 66.6501 64.7379 63.7936 64.7379 61.1261V51.3802" stroke="white" stroke-width="7.48006" stroke-linecap="round" stroke-linejoin="round"/>
<path d="M71.9522 55.3081V42.7057" stroke="white" stroke-width="7.48006" stroke-linecap="round" stroke-linejoin="round"/>
</svg>
