<svg width="96" height="96" viewBox="0 0 96 96" fill="none" xmlns="http://www.w3.org/2000/svg">
<rect y="0.000183105" width="96" height="96" rx="15" fill="#131C73"/>
<path d="M62.8369 56.3715C64.475 55.3598 66.6264 56.4634 66.6264 58.3028V61.2688C66.6264 64.1889 64.206 67.3158 61.2966 68.2355L53.4976 70.6727C52.1284 71.1096 49.9036 71.1096 48.559 70.6727L40.7598 68.2355C37.826 67.3158 35.4301 64.1889 35.4301 61.2688V58.2798C35.4301 56.4634 37.5815 55.3598 39.1951 56.3485L44.2315 59.4294C46.163 60.648 48.6078 61.2458 51.0527 61.2458C53.4976 61.2458 55.9424 60.648 57.8739 59.4294L62.8369 56.3715Z" fill="white"/>
<path d="M70.5343 35.2605L55.8896 26.2245C53.2492 24.592 48.8973 24.592 46.2569 26.2245L31.5389 35.2605C26.8204 38.1345 26.8204 44.6414 31.5389 47.5384L35.4507 49.9296L46.2569 56.5515C48.8973 58.1839 53.2492 58.1839 55.8896 56.5515L66.6225 49.9296L69.972 47.8603V54.896C69.972 55.8387 70.8032 56.6204 71.8056 56.6204C72.808 56.6204 73.6393 55.8387 73.6393 54.896V43.5837C74.6172 40.6177 73.6148 37.1688 70.5343 35.2605Z" fill="white"/>
</svg>
