<svg width="96" height="96" viewBox="0 0 96 96" fill="none" xmlns="http://www.w3.org/2000/svg">
<rect width="96" height="96" rx="15" fill="#131C73"/>
<path d="M62.8369 56.3711C64.475 55.3595 66.6264 56.4631 66.6264 58.3025V61.2685C66.6264 64.1886 64.206 67.3155 61.2966 68.2352L53.4976 70.6724C52.1284 71.1093 49.9036 71.1093 48.559 70.6724L40.7598 68.2352C37.826 67.3155 35.4301 64.1886 35.4301 61.2685V58.2795C35.4301 56.4631 37.5815 55.3595 39.1951 56.3482L44.2315 59.4291C46.163 60.6477 48.6078 61.2455 51.0527 61.2455C53.4976 61.2455 55.9424 60.6477 57.8738 59.4291L62.8369 56.3711Z" fill="white"/>
<path d="M70.5343 35.2604L55.8896 26.2243C53.2492 24.5919 48.8973 24.5919 46.2569 26.2243L31.5389 35.2604C26.8204 38.1344 26.8204 44.6413 31.5389 47.5383L35.4507 49.9295L46.2569 56.5513C48.8973 58.1838 53.2492 58.1838 55.8896 56.5513L66.6225 49.9295L69.972 47.8602V54.8959C69.972 55.8386 70.8032 56.6203 71.8056 56.6203C72.808 56.6203 73.6393 55.8386 73.6393 54.8959V43.5836C74.6172 40.6176 73.6148 37.1687 70.5343 35.2604Z" fill="white"/>
</svg>
