<svg width="96" height="96" viewBox="0 0 96 96" fill="none" xmlns="http://www.w3.org/2000/svg">
<rect width="96" height="96" rx="15" fill="#131C73"/>
<path d="M44.8387 29.1158L30.4579 37.3704C25.8474 40.0169 25.8474 45.9399 30.4579 48.5864L44.8387 56.841C47.4187 58.3323 51.6708 58.3323 54.2508 56.841L68.5601 48.5864C73.1467 45.9399 73.1467 40.0379 68.5601 37.3914L54.2508 29.1369C51.6708 27.6246 47.4187 27.6246 44.8387 29.1158Z" stroke="white" stroke-width="7.48006" stroke-linecap="round" stroke-linejoin="round"/>
<path d="M34.28 51.275L34.2561 61.1259C34.2561 63.7934 36.5972 66.6499 39.4638 67.4901L47.0843 69.7165C48.3981 70.0946 50.572 70.0946 51.9097 69.7165L59.5302 67.4901C62.3968 66.6499 64.7379 63.7934 64.7379 61.1259V51.38" stroke="white" stroke-width="7.48006" stroke-linecap="round" stroke-linejoin="round"/>
<path d="M71.9522 55.3077V42.7053" stroke="white" stroke-width="7.48006" stroke-linecap="round" stroke-linejoin="round"/>
</svg>
