<svg width="96" height="96" viewBox="0 0 96 96" fill="none" xmlns="http://www.w3.org/2000/svg">
<rect x="-7.62939e-06" y="0.000152588" width="96" height="96" rx="15" fill="#131C73"/>
<path d="M49.5317 59.4309C47.7356 59.4309 45.9184 58.95 44.5027 58.0101L31.7823 49.4194C29.4157 47.8237 28 45.135 28 42.206C28 39.2769 29.4157 36.5882 31.7823 34.9925L44.5239 26.4237C47.3553 24.522 51.7715 24.522 54.5818 26.4456L67.2388 35.0362C69.5843 36.6319 71 39.3206 71 42.2278C71 45.135 69.5843 47.8237 67.2388 49.4194L54.5818 58.0101C53.1661 58.9719 51.3489 59.4309 49.5317 59.4309ZM49.5317 28.2817C48.3273 28.2817 47.1229 28.5659 46.2565 29.178L33.5361 37.7467C32.057 38.7522 31.1907 40.3698 31.1907 42.206C31.1907 44.0422 32.0359 45.6597 33.5361 46.6652L46.2565 55.2558C48.0103 56.4362 51.0953 56.4362 52.8491 55.2558L65.5062 46.6652C66.9853 45.6597 67.8305 44.0422 67.8305 42.206C67.8305 40.3698 66.9853 38.7522 65.5062 37.7467L52.8491 29.1561C51.9617 28.5878 50.7573 28.2817 49.5317 28.2817Z" fill="white"/>
<path d="M49.5083 71.9999C48.5785 71.9999 47.6277 71.8688 46.867 71.6065L40.1264 69.2894C36.9358 68.1964 34.4213 64.5897 34.4424 61.1141L34.4635 50.8622C34.4635 49.9659 35.182 49.2227 36.0483 49.2227C36.9146 49.2227 37.6331 49.9659 37.6331 50.8622L37.6119 61.1141C37.6119 63.1688 39.2601 65.5296 41.1407 66.1854L47.8812 68.5025C48.7264 68.7866 50.2901 68.7866 51.1353 68.5025L57.8758 66.1854C59.7564 65.5296 61.4046 63.1688 61.4046 61.1359V50.9933C61.4046 50.0971 62.123 49.3539 62.9893 49.3539C63.8557 49.3539 64.5741 50.0971 64.5741 50.9933V61.1359C64.5741 64.6115 62.0807 68.1964 58.8901 69.3112L52.1495 71.6283C51.3888 71.8688 50.438 71.9999 49.5083 71.9999Z" fill="white"/>
<path d="M69.3732 56.6984C68.5069 56.6984 67.7884 55.9552 67.7884 55.059V41.9435C67.7884 41.0473 68.5069 40.3041 69.3732 40.3041C70.2395 40.3041 70.958 41.0473 70.958 41.9435V55.059C70.958 55.9552 70.2395 56.6984 69.3732 56.6984Z" fill="white"/>
</svg>
