<svg width="96" height="96" viewBox="0 0 96 96" fill="none" xmlns="http://www.w3.org/2000/svg">
<rect width="96" height="96" rx="15" fill="#131C73"/>
<path d="M25.728 47.0433H23.0646C23.0291 46.7699 22.9563 46.5231 22.8462 46.3029C22.7362 46.0827 22.5906 45.8945 22.4094 45.7383C22.2283 45.582 22.0135 45.4631 21.7649 45.3814C21.5199 45.2962 21.2482 45.2536 20.9499 45.2536C20.4208 45.2536 19.9645 45.3832 19.581 45.6424C19.201 45.9016 18.908 46.2763 18.7021 46.7663C18.4996 47.2564 18.3984 47.8494 18.3984 48.5455C18.3984 49.2699 18.5014 49.8771 18.7074 50.3672C18.9169 50.8537 19.2099 51.2212 19.5863 51.4698C19.9663 51.7148 20.4155 51.8374 20.9339 51.8374C21.2251 51.8374 21.4897 51.8001 21.7276 51.7255C21.9691 51.6509 22.1804 51.5426 22.3615 51.4006C22.5462 51.255 22.6971 51.0792 22.8143 50.8732C22.935 50.6637 23.0185 50.4276 23.0646 50.1648L25.728 50.1808C25.6818 50.6637 25.5415 51.1396 25.3072 51.6083C25.0763 52.0771 24.7585 52.505 24.3537 52.892C23.9489 53.2756 23.4553 53.581 22.8729 53.8082C22.294 54.0355 21.63 54.1491 20.8807 54.1491C19.8935 54.1491 19.0092 53.9325 18.228 53.4993C17.4503 53.0625 16.8359 52.4268 16.3849 51.5923C15.9339 50.7578 15.7085 49.7422 15.7085 48.5455C15.7085 47.3452 15.9375 46.3278 16.3956 45.4933C16.8537 44.6587 17.4734 44.0249 18.2546 43.5916C19.0359 43.1584 19.9112 42.9418 20.8807 42.9418C21.5412 42.9418 22.152 43.0341 22.7131 43.2188C23.2741 43.3999 23.7678 43.6662 24.1939 44.0178C24.62 44.3658 24.9663 44.7937 25.2326 45.3015C25.4989 45.8093 25.6641 46.3899 25.728 47.0433ZM27.2368 54V43.0909H34.8433V45.2322H29.8735V47.4695H34.4545V49.6161H29.8735V51.8587H34.8433V54H27.2368ZM36.4946 54V43.0909H41.001C41.8177 43.0909 42.5226 43.2383 43.1157 43.533C43.7123 43.8242 44.1721 44.2433 44.4953 44.7901C44.8184 45.3335 44.98 45.978 44.98 46.7237C44.98 47.4801 44.8149 48.1229 44.4846 48.652C44.1544 49.1776 43.6856 49.5788 43.0784 49.8558C42.4711 50.1293 41.752 50.266 40.9211 50.266H38.0713V48.1886H40.431C40.8287 48.1886 41.1608 48.1371 41.4271 48.0341C41.697 47.9276 41.9012 47.7678 42.0397 47.5547C42.1782 47.3381 42.2474 47.0611 42.2474 46.7237C42.2474 46.3864 42.1782 46.1076 42.0397 45.8874C41.9012 45.6637 41.697 45.4968 41.4271 45.3867C41.1572 45.2731 40.8252 45.2163 40.431 45.2163H39.1313V54H36.4946ZM42.6363 49.0142L45.3529 54H42.4765L39.8131 49.0142H42.6363ZM52.3229 46.3615C52.2874 45.9709 52.1294 45.6673 51.8488 45.4506C51.5718 45.2305 51.1759 45.1204 50.661 45.1204C50.32 45.1204 50.036 45.1648 49.8087 45.2536C49.5814 45.3423 49.411 45.4648 49.2973 45.6211C49.1837 45.7738 49.1251 45.9496 49.1215 46.1484C49.1144 46.3118 49.1464 46.4556 49.2174 46.5799C49.292 46.7042 49.3985 46.8143 49.537 46.9102C49.6791 47.0025 49.8495 47.0842 50.0484 47.1552C50.2472 47.2262 50.471 47.2884 50.7195 47.3416L51.657 47.5547C52.1968 47.6719 52.6727 47.8281 53.0846 48.0234C53.5001 48.2188 53.8481 48.4513 54.1286 48.7212C54.4127 48.9911 54.6276 49.3018 54.7732 49.6534C54.9188 50.005 54.9933 50.3991 54.9969 50.8359C54.9933 51.5249 54.8193 52.1161 54.4749 52.6097C54.1304 53.1033 53.635 53.4815 52.9887 53.7443C52.346 54.0071 51.57 54.1385 50.661 54.1385C49.7483 54.1385 48.9529 54.0018 48.2746 53.7283C47.5963 53.4549 47.069 53.0394 46.6926 52.4819C46.3161 51.9244 46.1226 51.2195 46.1119 50.3672H48.6368C48.6581 50.7188 48.7522 51.0117 48.9191 51.2461C49.086 51.4805 49.3151 51.658 49.6063 51.7788C49.901 51.8995 50.2419 51.9599 50.629 51.9599C50.9841 51.9599 51.286 51.9119 51.5345 51.8161C51.7867 51.7202 51.9802 51.587 52.1151 51.4165C52.2501 51.2461 52.3193 51.0508 52.3229 50.8306C52.3193 50.6246 52.2554 50.4489 52.1311 50.3033C52.0068 50.1541 51.8151 50.0263 51.5558 49.9197C51.3002 49.8097 50.9735 49.7085 50.5757 49.6161L49.4358 49.3498C48.4912 49.1332 47.7472 48.7834 47.2039 48.3004C46.6606 47.8139 46.3907 47.157 46.3943 46.3295C46.3907 45.6548 46.5718 45.0636 46.9376 44.5558C47.3034 44.0479 47.8094 43.652 48.4557 43.3679C49.102 43.0838 49.8389 42.9418 50.6663 42.9418C51.5115 42.9418 52.2448 43.0856 52.8662 43.3732C53.4912 43.6573 53.9759 44.0568 54.3204 44.5717C54.6649 45.0866 54.8406 45.6832 54.8477 46.3615H52.3229ZM56.3286 54V43.0909H63.9351V45.2322H58.9653V47.4695H63.5463V49.6161H58.9653V51.8587H63.9351V54H56.3286ZM72.1862 43.0909H74.8176V50.1275C74.8176 50.9407 74.624 51.6491 74.2369 52.2528C73.8499 52.853 73.3101 53.3182 72.6176 53.6484C71.9252 53.9751 71.1208 54.1385 70.2046 54.1385C69.2778 54.1385 68.4681 53.9751 67.7757 53.6484C67.0832 53.3182 66.5452 52.853 66.1617 52.2528C65.7781 51.6491 65.5864 50.9407 65.5864 50.1275V43.0909H68.2231V49.8984C68.2231 50.2749 68.3048 50.6104 68.4681 50.9052C68.635 51.1999 68.8676 51.4308 69.1659 51.5977C69.4642 51.7646 69.8105 51.848 70.2046 51.848C70.5988 51.848 70.9433 51.7646 71.238 51.5977C71.5363 51.4308 71.7689 51.1999 71.9358 50.9052C72.1027 50.6104 72.1862 50.2749 72.1862 49.8984V43.0909Z" fill="white"/>
</svg>
