<svg width="96" height="96" viewBox="0 0 96 96" fill="none" xmlns="http://www.w3.org/2000/svg">
<rect y="0.000488281" width="96" height="96" rx="15" fill="#131C73"/>
<path d="M19.304 49.7244H15.7528C15.7055 49.3598 15.6084 49.0308 15.4616 48.7372C15.3149 48.4437 15.1207 48.1927 14.8793 47.9844C14.6378 47.776 14.3513 47.6174 14.0199 47.5085C13.6932 47.3949 13.331 47.3381 12.9332 47.3381C12.2277 47.3381 11.6193 47.5109 11.108 47.8565C10.6013 48.2022 10.2107 48.7017 9.93608 49.3551C9.66619 50.0085 9.53125 50.7992 9.53125 51.7273C9.53125 52.6932 9.66856 53.5028 9.94318 54.1562C10.2225 54.8049 10.6132 55.295 11.1151 55.6264C11.6217 55.9531 12.2206 56.1165 12.9119 56.1165C13.3002 56.1165 13.6529 56.0668 13.9702 55.9673C14.2921 55.8679 14.5739 55.7235 14.8153 55.5341C15.0616 55.34 15.2628 55.1056 15.419 54.831C15.58 54.5516 15.6913 54.2367 15.7528 53.8864L19.304 53.9077C19.2424 54.5516 19.0554 55.1861 18.7429 55.8111C18.4351 56.4361 18.0114 57.0066 17.4716 57.5227C16.9318 58.0341 16.2737 58.4413 15.4972 58.7443C14.7254 59.0473 13.84 59.1989 12.8409 59.1989C11.5246 59.1989 10.3456 58.91 9.30398 58.3324C8.26705 57.75 7.44792 56.9025 6.84659 55.7898C6.24527 54.6771 5.9446 53.3229 5.9446 51.7273C5.9446 50.1269 6.25 48.7704 6.8608 47.6577C7.47159 46.545 8.29782 45.6998 9.33949 45.1222C10.3812 44.5445 11.5483 44.2557 12.8409 44.2557C13.7216 44.2557 14.536 44.3788 15.2841 44.625C16.0322 44.8665 16.6903 45.2216 17.2585 45.6903C17.8267 46.1544 18.2884 46.7249 18.6435 47.402C18.9986 48.0791 19.2188 48.8532 19.304 49.7244ZM21.3157 59V44.4545H31.4577V47.3097H24.8313V50.2926H30.9393V53.1548H24.8313V56.1449H31.4577V59H21.3157ZM33.6594 59V44.4545H39.668C40.757 44.4545 41.6969 44.651 42.4876 45.044C43.283 45.4323 43.8962 45.991 44.3271 46.7202C44.7579 47.4446 44.9734 48.304 44.9734 49.2983C44.9734 50.3068 44.7532 51.1638 44.3129 51.8693C43.8725 52.5701 43.2475 53.1051 42.4379 53.4744C41.6282 53.839 40.6694 54.0213 39.5614 54.0213H35.7617V51.2514H38.908C39.4383 51.2514 39.881 51.1828 40.2362 51.0455C40.596 50.9034 40.8683 50.6903 41.0529 50.4062C41.2376 50.1174 41.3299 49.7481 41.3299 49.2983C41.3299 48.8485 41.2376 48.4768 41.0529 48.1832C40.8683 47.8849 40.596 47.6624 40.2362 47.5156C39.8763 47.3641 39.4336 47.2884 38.908 47.2884H37.1751V59H33.6594ZM41.8484 52.3523L45.4705 59H41.6353L38.0842 52.3523H41.8484ZM54.7638 48.8153C54.7165 48.2945 54.5058 47.8897 54.1317 47.6009C53.7624 47.3073 53.2345 47.1605 52.5479 47.1605C52.0934 47.1605 51.7146 47.2197 51.4116 47.3381C51.1085 47.4564 50.8813 47.6198 50.7298 47.8281C50.5782 48.0317 50.5001 48.2661 50.4954 48.5312C50.4859 48.7491 50.5285 48.9408 50.6232 49.1065C50.7227 49.2723 50.8647 49.419 51.0494 49.5469C51.2388 49.67 51.466 49.7789 51.7312 49.8736C51.9963 49.9683 52.2946 50.0511 52.6261 50.1222L53.8761 50.4062C54.5958 50.5625 55.2302 50.7708 55.7795 51.0312C56.3335 51.2917 56.7975 51.6018 57.1715 51.9616C57.5503 52.3215 57.8368 52.7358 58.0309 53.2045C58.225 53.6733 58.3245 54.1989 58.3292 54.7812C58.3245 55.6998 58.0924 56.4882 57.6332 57.1463C57.1739 57.8045 56.5134 58.3087 55.6516 58.6591C54.7946 59.0095 53.7601 59.1847 52.5479 59.1847C51.3311 59.1847 50.2705 59.0024 49.3661 58.6378C48.4618 58.2732 47.7586 57.7192 47.2567 56.9759C46.7549 56.2325 46.4968 55.2926 46.4826 54.1562H49.8491C49.8775 54.625 50.003 55.0156 50.2255 55.3281C50.448 55.6406 50.7534 55.8774 51.1417 56.0384C51.5347 56.1993 51.9892 56.2798 52.5053 56.2798C52.9788 56.2798 53.3813 56.2159 53.7127 56.0881C54.0489 55.9602 54.3069 55.7827 54.4869 55.5554C54.6668 55.3281 54.7591 55.0677 54.7638 54.7741C54.7591 54.4995 54.6739 54.2652 54.5082 54.071C54.3424 53.8722 54.0868 53.7017 53.7411 53.5597C53.4002 53.4129 52.9646 53.2779 52.4343 53.1548L50.9144 52.7997C49.6549 52.5109 48.663 52.0445 47.9386 51.4006C47.2141 50.7519 46.8543 49.8759 46.859 48.7727C46.8543 47.8731 47.0958 47.0848 47.5835 46.4077C48.0711 45.7306 48.7459 45.2027 49.6076 44.8239C50.4693 44.4451 51.4518 44.2557 52.555 44.2557C53.6819 44.2557 54.6597 44.4474 55.4883 44.831C56.3216 45.2098 56.9679 45.7424 57.4272 46.429C57.8865 47.1155 58.1209 47.911 58.1303 48.8153H54.7638ZM60.1048 59V44.4545H70.2468V47.3097H63.6204V50.2926H69.7283V53.1548H63.6204V56.1449H70.2468V59H60.1048ZM81.2482 44.4545H84.7567V53.8366C84.7567 54.9209 84.4987 55.8655 83.9826 56.6705C83.4665 57.4706 82.7468 58.0909 81.8235 58.5312C80.9002 58.9669 79.8278 59.1847 78.6062 59.1847C77.3704 59.1847 76.2908 58.9669 75.3675 58.5312C74.4442 58.0909 73.7269 57.4706 73.2156 56.6705C72.7042 55.8655 72.4485 54.9209 72.4485 53.8366V44.4545H75.9641V53.5312C75.9641 54.0331 76.073 54.4806 76.2908 54.8736C76.5134 55.2666 76.8235 55.5743 77.2212 55.7969C77.619 56.0194 78.0806 56.1307 78.6062 56.1307C79.1317 56.1307 79.591 56.0194 79.984 55.7969C80.3817 55.5743 80.6919 55.2666 80.9144 54.8736C81.137 54.4806 81.2482 54.0331 81.2482 53.5312V44.4545Z" fill="white"/>
</svg>
