<svg width="96" height="96" viewBox="0 0 96 96" fill="none" xmlns="http://www.w3.org/2000/svg">
<rect y="0.000488281" width="96" height="96" rx="15" fill="#131C73"/>
<path d="M63.6778 39.5511H35.962V37.0062H63.6778V39.5511ZM53.7823 63.8551H45.8575V61.3101H53.7823V63.8551ZM50.8571 62.5826H48.7828V38.2786H50.8573L50.8571 62.5826ZM60.7527 65.0002H58.6782V46.7279H71.6025V49.2727H60.7527V65.0002ZM72.6398 65.0002H70.5652V31.0002H72.6398V65.0002ZM71.6025 58.9943H59.7154V56.4494H71.6025V58.9943ZM40.9616 65.0002H38.8871V49.2727H28.0373V46.7278H40.9616V65.0002ZM29.0745 65.0002H27V31.0002H29.0745V65.0002ZM39.9244 58.9943H28.0373V56.4494H39.9244V58.9943Z" fill="white"/>
</svg>
