<svg width="96" height="96" viewBox="0 0 96 96" fill="none" xmlns="http://www.w3.org/2000/svg">
<rect x="-7.62939e-06" y="0.000488281" width="96" height="96" rx="15" fill="#131C73"/>
<path d="M56.0638 29.0005V33.6668C54.9282 34.7333 54.1264 36.2286 54.1264 37.9861C54.1264 38.165 54.1438 38.3392 54.1585 38.5147H47.3453V41.6861C47.3453 42.0967 47.6156 42.3817 47.7483 42.7433H42.5017C42.3733 42.7413 42.2459 42.7672 42.1268 42.8194C42.0076 42.8716 41.8992 42.9492 41.8078 43.0475C41.7164 43.1459 41.6438 43.2631 41.5942 43.3924C41.5447 43.5216 41.5192 43.6603 41.5192 43.8004C41.5192 43.9405 41.5447 44.0792 41.5942 44.2084C41.6438 44.3377 41.7164 44.4549 41.8078 44.5532C41.8992 44.6516 42.0076 44.7292 42.1268 44.7814C42.2459 44.8336 42.3733 44.8595 42.5017 44.8575H43.4704V46.9718V48.0289V49.0861V66.0002H49.2828V49.0861H61.8761V66.0002H67.6885V49.0861V46.9718V44.8575H68.6572C68.7856 44.8595 68.913 44.8336 69.0321 44.7814C69.1513 44.7292 69.2597 44.6516 69.3511 44.5532C69.4425 44.4549 69.5151 44.3377 69.5647 44.2084C69.6142 44.0792 69.6397 43.9405 69.6397 43.8004C69.6397 43.6603 69.6142 43.5216 69.5647 43.3924C69.5151 43.2631 69.4425 43.1459 69.3511 43.0475C69.2597 42.9492 69.1513 42.8716 69.0321 42.8194C68.913 42.7672 68.7856 42.7413 68.6572 42.7433H67.6885H63.0246C63.1535 42.3548 63.3456 41.9803 63.6017 41.6345C64.3381 40.6387 64.7823 39.3636 64.7823 37.9861C64.7823 36.2286 63.9805 34.7333 62.8449 33.6668V29.0005H56.0638ZM58.0013 31.1148H60.9074V34.5959L61.3369 34.9118C62.2458 35.576 62.8449 36.6962 62.8449 37.9861C62.8449 38.8709 62.5644 39.6705 62.0937 40.3069C61.5789 41.0021 61.2685 41.8484 61.0909 42.7433H57.5983C57.731 42.3817 58.0013 42.0967 58.0013 41.6861V38.5147H56.0979C56.0754 38.3425 56.0638 38.1667 56.0638 37.9861C56.0638 36.6962 56.6629 35.576 57.5718 34.9118L58.0013 34.5959V31.1148ZM27.9992 38.5003C27.8559 38.4953 27.7133 38.5252 27.5818 38.5878C27.4503 38.6503 27.3332 38.7439 27.2389 38.8618C27.1445 38.9798 27.0754 39.1191 27.0364 39.2697C26.9975 39.4203 26.9896 39.5785 27.0135 39.7329L28.4458 49.8892C28.7225 51.8544 29.9848 53.4161 31.6263 54.0517L28.9736 64.6644C28.9059 64.9349 28.9394 65.2237 29.0668 65.4672C29.1942 65.7108 29.405 65.8892 29.6529 65.9631C29.9008 66.037 30.1654 66.0004 30.3886 65.8614C30.6118 65.7224 30.7752 65.4924 30.843 65.2218L33.5543 54.3718H36.9183L39.6296 65.2218C39.6973 65.4924 39.8608 65.7224 40.084 65.8614C40.3071 66.0004 40.5718 66.037 40.8197 65.9631C41.0676 65.8892 41.2784 65.7108 41.4058 65.4672C41.5332 65.2237 41.5667 64.9349 41.4989 64.6644L38.9257 54.3718H39.5955C39.7239 54.3737 39.8513 54.3479 39.9705 54.2956C40.0896 54.2434 40.198 54.1658 40.2894 54.0675C40.3808 53.9691 40.4534 53.8519 40.503 53.7227C40.5525 53.5934 40.578 53.4547 40.578 53.3146C40.578 53.1745 40.5525 53.0358 40.503 52.9066C40.4534 52.7773 40.3808 52.6601 40.2894 52.5618C40.198 52.4634 40.0896 52.3859 39.9705 52.3336C39.8513 52.2814 39.7239 52.2555 39.5955 52.2575H37.8057C37.7029 52.2393 37.5981 52.2393 37.4954 52.2575H33.2326C31.7903 52.2575 30.5795 51.1246 30.3605 49.5692V49.5672L28.9282 39.4108C28.8966 39.1639 28.7861 38.937 28.6161 38.7704C28.4461 38.6038 28.2276 38.5081 27.9992 38.5003ZM49.2828 40.629H56.0638V41.6861C56.0638 42.2834 55.6424 42.7433 55.0951 42.7433H50.2515C49.7041 42.7433 49.2828 42.2834 49.2828 41.6861V40.629ZM45.4079 44.8575H50.2515H57.0325H62.8449H65.751V46.9718H61.8761H49.2828H45.4079V44.8575ZM45.4079 49.0861H47.3453V63.886H45.4079V49.0861ZM63.8136 49.0861H65.751V63.886H63.8136V49.0861Z" fill="white"/>
</svg>
