<svg width="96" height="96" viewBox="0 0 96 96" fill="none" xmlns="http://www.w3.org/2000/svg">
<rect width="96" height="96" rx="15" fill="#131C73"/>
<path d="M56.0638 29V33.6663C54.9282 34.7328 54.1264 36.2281 54.1264 37.9857C54.1264 38.1645 54.1438 38.3387 54.1585 38.5142H47.3453V41.6856C47.3453 42.0962 47.6156 42.3812 47.7483 42.7428H42.5017C42.3733 42.7408 42.2459 42.7667 42.1268 42.8189C42.0076 42.8711 41.8992 42.9487 41.8078 43.0471C41.7164 43.1454 41.6438 43.2626 41.5943 43.3919C41.5447 43.5211 41.5192 43.6598 41.5192 43.7999C41.5192 43.94 41.5447 44.0787 41.5943 44.2079C41.6438 44.3372 41.7164 44.4544 41.8078 44.5528C41.8992 44.6511 42.0076 44.7287 42.1268 44.7809C42.2459 44.8331 42.3733 44.859 42.5017 44.857H43.4704V46.9713V48.0284V49.0856V65.9998H49.2828V49.0856H61.8762V65.9998H67.6885V49.0856V46.9713V44.857H68.6572C68.7856 44.859 68.913 44.8331 69.0321 44.7809C69.1513 44.7287 69.2597 44.6511 69.3511 44.5528C69.4425 44.4544 69.5151 44.3372 69.5647 44.2079C69.6142 44.0787 69.6397 43.94 69.6397 43.7999C69.6397 43.6598 69.6142 43.5211 69.5647 43.3919C69.5151 43.2626 69.4425 43.1454 69.3511 43.0471C69.2597 42.9487 69.1513 42.8711 69.0321 42.8189C68.913 42.7667 68.7856 42.7408 68.6572 42.7428H67.6885H63.0246C63.1535 42.3543 63.3456 41.9798 63.6017 41.634C64.3381 40.6382 64.7823 39.3631 64.7823 37.9857C64.7823 36.2281 63.9805 34.7328 62.8449 33.6663V29H56.0638ZM58.0013 31.1143H60.9074V34.5954L61.3369 34.9113C62.2458 35.5755 62.8449 36.6957 62.8449 37.9857C62.8449 38.8705 62.5644 39.67 62.0937 40.3064C61.5789 41.0016 61.2685 41.848 61.091 42.7428H57.5983C57.731 42.3812 58.0013 42.0962 58.0013 41.6856V38.5142H56.0979C56.0754 38.342 56.0638 38.1662 56.0638 37.9857C56.0638 36.6957 56.6629 35.5755 57.5718 34.9113L58.0013 34.5954V31.1143ZM27.9993 38.4998C27.8559 38.4949 27.7133 38.5247 27.5818 38.5873C27.4503 38.6498 27.3332 38.7434 27.2389 38.8613C27.1446 38.9793 27.0754 39.1186 27.0364 39.2692C26.9975 39.4199 26.9896 39.5781 27.0135 39.7324L28.4458 49.8888C28.7225 51.8539 29.9848 53.4157 31.6263 54.0512L28.9737 64.6639C28.9059 64.9344 28.9394 65.2232 29.0668 65.4668C29.1942 65.7103 29.405 65.8887 29.6529 65.9626C29.9008 66.0365 30.1654 66 30.3886 65.861C30.6118 65.7219 30.7752 65.4919 30.843 65.2214L33.5543 54.3713H36.9183L39.6296 65.2214C39.6973 65.4919 39.8608 65.7219 40.084 65.861C40.3072 66 40.5718 66.0365 40.8197 65.9626C41.0676 65.8887 41.2784 65.7103 41.4058 65.4668C41.5332 65.2232 41.5667 64.9344 41.4989 64.6639L38.9258 54.3713H39.5955C39.7239 54.3732 39.8514 54.3474 39.9705 54.2951C40.0896 54.2429 40.198 54.1653 40.2894 54.067C40.3809 53.9686 40.4535 53.8514 40.503 53.7222C40.5525 53.5929 40.5781 53.4542 40.5781 53.3141C40.5781 53.174 40.5525 53.0353 40.503 52.9061C40.4535 52.7768 40.3809 52.6596 40.2894 52.5613C40.198 52.4629 40.0896 52.3854 39.9705 52.3331C39.8514 52.2809 39.7239 52.255 39.5955 52.257H37.8057C37.7029 52.2388 37.5981 52.2388 37.4954 52.257H33.2326C31.7903 52.257 30.5796 51.1241 30.3605 49.5687V49.5667L28.9282 39.4103C28.8967 39.1634 28.7861 38.9365 28.6161 38.7699C28.4461 38.6033 28.2276 38.5076 27.9993 38.4998ZM49.2828 40.6285H56.0638V41.6856C56.0638 42.2829 55.6425 42.7428 55.0951 42.7428H50.2515C49.7041 42.7428 49.2828 42.2829 49.2828 41.6856V40.6285ZM45.4079 44.857H50.2515H57.0325H62.8449H65.751V46.9713H61.8762H49.2828H45.4079V44.857ZM45.4079 49.0856H47.3453V63.8855H45.4079V49.0856ZM63.8136 49.0856H65.751V63.8855H63.8136V49.0856Z" fill="white"/>
</svg>
