<svg width="96" height="96" viewBox="0 0 96 96" fill="none" xmlns="http://www.w3.org/2000/svg">
<rect width="96" height="96" rx="15" fill="#131C73"/>
<path d="M63.6778 39.5509H35.962V37.006H63.6778V39.5509ZM53.7822 63.8548H45.8575V61.3099H53.7822V63.8548ZM50.8571 62.5823H48.7827V38.2784H50.8572L50.8571 62.5823ZM60.7527 65H58.6782V46.7276H71.6025V49.2724H60.7527V65ZM72.6397 65H70.5652V31H72.6397V65ZM71.6024 58.994H59.7154V56.4491H71.6024V58.994ZM40.9616 65H38.8871V49.2725H28.0373V46.7276H40.9616V65ZM29.0745 65H27V31H29.0745V65ZM39.9243 58.994H28.0373V56.4491H39.9243V58.994Z" fill="white"/>
</svg>
