<svg width="96" height="96" viewBox="0 0 96 96" fill="none" xmlns="http://www.w3.org/2000/svg">
<rect y="0.000366211" width="96" height="96" rx="15" fill="#131C73"/>
<path d="M38.5 62.0007C37.9808 62.0007 37.4733 62.1649 37.0416 62.4726C36.6099 62.7803 36.2735 63.2176 36.0748 63.7292C35.8761 64.2408 35.8241 64.8038 35.9254 65.347C36.0267 65.8901 36.2767 66.389 36.6438 66.7806C37.0109 67.1722 37.4787 67.4389 37.9879 67.5469C38.4971 67.655 39.0249 67.5995 39.5045 67.3876C39.9842 67.1757 40.3942 66.8168 40.6826 66.3563C40.971 65.8959 41.125 65.3545 41.125 64.8007C41.125 64.0581 40.8484 63.3459 40.3561 62.8208C39.8639 62.2957 39.1962 62.0007 38.5 62.0007ZM38.5 45.2007C37.9808 45.2007 37.4733 45.3649 37.0416 45.6726C36.6099 45.9803 36.2735 46.4176 36.0748 46.9292C35.8761 47.4408 35.8241 48.0038 35.9254 48.547C36.0267 49.0901 36.2767 49.589 36.6438 49.9806C37.0109 50.3722 37.4787 50.6389 37.9879 50.7469C38.4971 50.855 39.0249 50.7995 39.5045 50.5876C39.9842 50.3757 40.3942 50.0168 40.6826 49.5563C40.971 49.0959 41.125 48.5545 41.125 48.0007C41.125 47.2581 40.8484 46.5459 40.3561 46.0208C39.8639 45.4957 39.1962 45.2007 38.5 45.2007ZM38.5 28.4007C37.9808 28.4007 37.4733 28.5649 37.0416 28.8726C36.6099 29.1803 36.2735 29.6176 36.0748 30.1292C35.8761 30.6409 35.8241 31.2038 35.9254 31.747C36.0267 32.2901 36.2767 32.789 36.6438 33.1806C37.0109 33.5722 37.4787 33.8389 37.9879 33.9469C38.4971 34.055 39.0249 33.9995 39.5045 33.7876C39.9842 33.5757 40.3942 33.2168 40.6826 32.7563C40.971 32.2959 41.125 31.7545 41.125 31.2007C41.125 30.4581 40.8484 29.7459 40.3561 29.2208C39.8639 28.6957 39.1962 28.4007 38.5 28.4007ZM70 28.4007C70 26.1729 69.1703 24.0363 67.6935 22.461C66.2166 20.8857 64.2136 20.0007 62.125 20.0007H35.875C33.7864 20.0007 31.7834 20.8857 30.3065 22.461C28.8297 24.0363 28 26.1729 28 28.4007V34.0007C28.0116 36.0729 28.7408 38.0673 30.0475 39.6007C28.7408 41.1341 28.0116 43.1286 28 45.2007V50.8007C28.0116 52.8729 28.7408 54.8673 30.0475 56.4007C28.7408 57.9341 28.0116 59.9286 28 62.0007V67.6007C28 69.8285 28.8297 71.9651 30.3065 73.5404C31.7834 75.1157 33.7864 76.0007 35.875 76.0007H62.125C64.2136 76.0007 66.2166 75.1157 67.6935 73.5404C69.1703 71.9651 70 69.8285 70 67.6007V62.0007C69.9884 59.9286 69.2592 57.9341 67.9525 56.4007C69.2592 54.8673 69.9884 52.8729 70 50.8007V45.2007C69.9884 43.1286 69.2592 41.1341 67.9525 39.6007C69.2592 38.0673 69.9884 36.0729 70 34.0007V28.4007ZM64.75 67.6007C64.75 68.3433 64.4734 69.0555 63.9812 69.5806C63.4889 70.1057 62.8212 70.4007 62.125 70.4007H35.875C35.1788 70.4007 34.5111 70.1057 34.0188 69.5806C33.5265 69.0555 33.25 68.3433 33.25 67.6007V62.0007C33.25 61.2581 33.5265 60.5459 34.0188 60.0208C34.5111 59.4957 35.1788 59.2007 35.875 59.2007H62.125C62.8212 59.2007 63.4889 59.4957 63.9812 60.0208C64.4734 60.5459 64.75 61.2581 64.75 62.0007V67.6007ZM64.75 50.8007C64.75 51.5433 64.4734 52.2555 63.9812 52.7806C63.4889 53.3057 62.8212 53.6007 62.125 53.6007H35.875C35.1788 53.6007 34.5111 53.3057 34.0188 52.7806C33.5265 52.2555 33.25 51.5433 33.25 50.8007V45.2007C33.25 44.4581 33.5265 43.7459 34.0188 43.2208C34.5111 42.6957 35.1788 42.4007 35.875 42.4007H62.125C62.8212 42.4007 63.4889 42.6957 63.9812 43.2208C64.4734 43.7459 64.75 44.4581 64.75 45.2007V50.8007ZM64.75 34.0007C64.75 34.7433 64.4734 35.4555 63.9812 35.9806C63.4889 36.5057 62.8212 36.8007 62.125 36.8007H35.875C35.1788 36.8007 34.5111 36.5057 34.0188 35.9806C33.5265 35.4555 33.25 34.7433 33.25 34.0007V28.4007C33.25 27.6581 33.5265 26.9459 34.0188 26.4208C34.5111 25.8957 35.1788 25.6007 35.875 25.6007H62.125C62.8212 25.6007 63.4889 25.8957 63.9812 26.4208C64.4734 26.9459 64.75 27.6581 64.75 28.4007V34.0007Z" fill="white"/>
</svg>
