<svg width="96" height="96" viewBox="0 0 96 96" fill="none" xmlns="http://www.w3.org/2000/svg">
<rect width="96" height="96" rx="15" fill="#131C73"/>
<path d="M36 62.85C35.4067 62.85 34.8266 63.0435 34.3333 63.4061C33.8399 63.7688 33.4554 64.2841 33.2284 64.8871C33.0013 65.4901 32.9419 66.1537 33.0576 66.7938C33.1734 67.4339 33.4591 68.0219 33.8787 68.4835C34.2982 68.945 34.8328 69.2593 35.4147 69.3866C35.9967 69.5139 36.5999 69.4486 37.1481 69.1988C37.6962 68.949 38.1648 68.5261 38.4944 67.9834C38.8241 67.4407 39 66.8027 39 66.15C39 65.2748 38.6839 64.4354 38.1213 63.8165C37.5587 63.1977 36.7956 62.85 36 62.85ZM48 15C36 15 24 19.521 24 28.2V67.8C24 76.479 36 81 48 81C60 81 72 76.479 72 67.8V28.2C72 19.521 60 15 48 15ZM66 67.8C66 70.143 59.16 74.4 48 74.4C36.84 74.4 30 70.143 30 67.8V57.009C35.6162 59.9459 41.7837 61.3819 48 61.2C54.2163 61.3819 60.3838 59.9459 66 57.009V67.8ZM66 48C66 50.343 59.16 54.6 48 54.6C36.84 54.6 30 50.343 30 48V37.209C35.6162 40.1459 41.7837 41.5819 48 41.4C54.2163 41.5819 60.3838 40.1459 66 37.209V48ZM48 34.8C36.84 34.8 30 30.543 30 28.2C30 25.857 36.84 21.6 48 21.6C59.16 21.6 66 25.857 66 28.2C66 30.543 59.16 34.8 48 34.8ZM36 43.05C35.4067 43.05 34.8266 43.2435 34.3333 43.6062C33.8399 43.9688 33.4554 44.4841 33.2284 45.0871C33.0013 45.6901 32.9419 46.3537 33.0576 46.9938C33.1734 47.6339 33.4591 48.2219 33.8787 48.6835C34.2982 49.145 34.8328 49.4593 35.4147 49.5866C35.9967 49.7139 36.5999 49.6486 37.1481 49.3988C37.6962 49.149 38.1648 48.7261 38.4944 48.1834C38.8241 47.6407 39 47.0027 39 46.35C39 45.4748 38.6839 44.6354 38.1213 44.0165C37.5587 43.3977 36.7956 43.05 36 43.05Z" fill="white"/>
</svg>
