<svg width="96" height="96" viewBox="0 0 96 96" fill="none" xmlns="http://www.w3.org/2000/svg">
<rect y="0.000488281" width="96" height="96" rx="15" fill="#131C73"/>
<path d="M36 62.8506C35.4067 62.8506 34.8267 63.0441 34.3333 63.4067C33.84 63.7693 33.4554 64.2847 33.2284 64.8877C33.0013 65.4907 32.9419 66.1543 33.0577 66.7944C33.1734 67.4345 33.4591 68.0225 33.8787 68.484C34.2983 68.9456 34.8328 69.2599 35.4147 69.3872C35.9967 69.5145 36.5999 69.4492 37.1481 69.1994C37.6962 68.9496 38.1648 68.5267 38.4944 67.984C38.8241 67.4413 39 66.8033 39 66.1506C39 65.2754 38.6839 64.436 38.1213 63.8171C37.5587 63.1983 36.7957 62.8506 36 62.8506ZM48 15.0006C36 15.0006 24 19.5216 24 28.2006V67.8006C24 76.4796 36 81.0006 48 81.0006C60 81.0006 72 76.4796 72 67.8006V28.2006C72 19.5216 60 15.0006 48 15.0006ZM66 67.8006C66 70.1436 59.16 74.4006 48 74.4006C36.84 74.4006 30 70.1436 30 67.8006V57.0096C35.6162 59.9465 41.7837 61.3824 48 61.2006C54.2163 61.3824 60.3838 59.9465 66 57.0096V67.8006ZM66 48.0006C66 50.3436 59.16 54.6006 48 54.6006C36.84 54.6006 30 50.3436 30 48.0006V37.2096C35.6162 40.1465 41.7837 41.5825 48 41.4006C54.2163 41.5825 60.3838 40.1465 66 37.2096V48.0006ZM48 34.8006C36.84 34.8006 30 30.5436 30 28.2006C30 25.8576 36.84 21.6006 48 21.6006C59.16 21.6006 66 25.8576 66 28.2006C66 30.5436 59.16 34.8006 48 34.8006ZM36 43.0506C35.4067 43.0506 34.8267 43.2441 34.3333 43.6068C33.84 43.9694 33.4554 44.4847 33.2284 45.0877C33.0013 45.6907 32.9419 46.3543 33.0577 46.9944C33.1734 47.6345 33.4591 48.2225 33.8787 48.684C34.2983 49.1456 34.8328 49.4599 35.4147 49.5872C35.9967 49.7145 36.5999 49.6492 37.1481 49.3994C37.6962 49.1496 38.1648 48.7267 38.4944 48.184C38.8241 47.6413 39 47.0033 39 46.3506C39 45.4754 38.6839 44.636 38.1213 44.0171C37.5587 43.3983 36.7957 43.0506 36 43.0506Z" fill="white"/>
</svg>
