<svg width="96" height="96" viewBox="0 0 96 96" fill="none" xmlns="http://www.w3.org/2000/svg">
<rect width="96" height="96" rx="15" fill="#131C73"/>
<path d="M38.5 62C37.9808 62 37.4733 62.1642 37.0416 62.4719C36.6099 62.7795 36.2735 63.2169 36.0748 63.7285C35.8761 64.2401 35.8242 64.8031 35.9254 65.3463C36.0267 65.8894 36.2767 66.3883 36.6438 66.7799C37.011 67.1715 37.4787 67.4382 37.9879 67.5462C38.4971 67.6542 39.0249 67.5988 39.5045 67.3869C39.9842 67.1749 40.3942 66.8161 40.6826 66.3556C40.971 65.8951 41.125 65.3538 41.125 64.8C41.125 64.0574 40.8484 63.3452 40.3562 62.8201C39.8639 62.295 39.1962 62 38.5 62ZM38.5 45.2C37.9808 45.2 37.4733 45.3642 37.0416 45.6719C36.6099 45.9796 36.2735 46.4169 36.0748 46.9285C35.8761 47.4401 35.8242 48.0031 35.9254 48.5463C36.0267 49.0894 36.2767 49.5883 36.6438 49.9799C37.011 50.3715 37.4787 50.6382 37.9879 50.7462C38.4971 50.8542 39.0249 50.7988 39.5045 50.5869C39.9842 50.3749 40.3942 50.0161 40.6826 49.5556C40.971 49.0951 41.125 48.5538 41.125 48C41.125 47.2574 40.8484 46.5452 40.3562 46.0201C39.8639 45.495 39.1962 45.2 38.5 45.2ZM38.5 28.4C37.9808 28.4 37.4733 28.5642 37.0416 28.8719C36.6099 29.1796 36.2735 29.6169 36.0748 30.1285C35.8761 30.6401 35.8242 31.2031 35.9254 31.7463C36.0267 32.2894 36.2767 32.7883 36.6438 33.1799C37.011 33.5715 37.4787 33.8382 37.9879 33.9462C38.4971 34.0542 39.0249 33.9988 39.5045 33.7869C39.9842 33.5749 40.3942 33.2161 40.6826 32.7556C40.971 32.2951 41.125 31.7538 41.125 31.2C41.125 30.4574 40.8484 29.7452 40.3562 29.2201C39.8639 28.695 39.1962 28.4 38.5 28.4ZM70 28.4C70 26.1722 69.1703 24.0356 67.6935 22.4603C66.2166 20.885 64.2136 20 62.125 20H35.875C33.7864 20 31.7834 20.885 30.3065 22.4603C28.8297 24.0356 28 26.1722 28 28.4V34C28.0116 36.0722 28.7408 38.0666 30.0475 39.6C28.7408 41.1334 28.0116 43.1278 28 45.2V50.8C28.0116 52.8722 28.7408 54.8666 30.0475 56.4C28.7408 57.9334 28.0116 59.9278 28 62V67.6C28 69.8278 28.8297 71.9644 30.3065 73.5397C31.7834 75.115 33.7864 76 35.875 76H62.125C64.2136 76 66.2166 75.115 67.6935 73.5397C69.1703 71.9644 70 69.8278 70 67.6V62C69.9884 59.9278 69.2592 57.9334 67.9525 56.4C69.2592 54.8666 69.9884 52.8722 70 50.8V45.2C69.9884 43.1278 69.2592 41.1334 67.9525 39.6C69.2592 38.0666 69.9884 36.0722 70 34V28.4ZM64.75 67.6C64.75 68.3426 64.4734 69.0548 63.9812 69.5799C63.4889 70.105 62.8212 70.4 62.125 70.4H35.875C35.1788 70.4 34.5111 70.105 34.0188 69.5799C33.5266 69.0548 33.25 68.3426 33.25 67.6V62C33.25 61.2574 33.5266 60.5452 34.0188 60.0201C34.5111 59.495 35.1788 59.2 35.875 59.2H62.125C62.8212 59.2 63.4889 59.495 63.9812 60.0201C64.4734 60.5452 64.75 61.2574 64.75 62V67.6ZM64.75 50.8C64.75 51.5426 64.4734 52.2548 63.9812 52.7799C63.4889 53.305 62.8212 53.6 62.125 53.6H35.875C35.1788 53.6 34.5111 53.305 34.0188 52.7799C33.5266 52.2548 33.25 51.5426 33.25 50.8V45.2C33.25 44.4574 33.5266 43.7452 34.0188 43.2201C34.5111 42.695 35.1788 42.4 35.875 42.4H62.125C62.8212 42.4 63.4889 42.695 63.9812 43.2201C64.4734 43.7452 64.75 44.4574 64.75 45.2V50.8ZM64.75 34C64.75 34.7426 64.4734 35.4548 63.9812 35.9799C63.4889 36.505 62.8212 36.8 62.125 36.8H35.875C35.1788 36.8 34.5111 36.505 34.0188 35.9799C33.5266 35.4548 33.25 34.7426 33.25 34V28.4C33.25 27.6574 33.5266 26.9452 34.0188 26.4201C34.5111 25.895 35.1788 25.6 35.875 25.6H62.125C62.8212 25.6 63.4889 25.895 63.9812 26.4201C64.4734 26.9452 64.75 27.6574 64.75 28.4V34Z" fill="white"/>
</svg>
