<svg width="100" height="96" viewBox="0 0 100 96" fill="none" xmlns="http://www.w3.org/2000/svg">
<rect width="96" height="96" rx="15" fill="#131C73"/>
<path d="M10.858 54H6.82564V43.0909H10.8526C11.9641 43.0909 12.9212 43.3093 13.7237 43.7461C14.5298 44.1793 15.1513 44.8043 15.5881 45.6211C16.0249 46.4343 16.2433 47.4073 16.2433 48.5401C16.2433 49.6765 16.0249 50.6531 15.5881 51.4698C15.1548 52.2866 14.5352 52.9134 13.729 53.3501C12.9229 53.7834 11.9659 54 10.858 54ZM9.46236 51.7521H10.7567C11.3675 51.7521 11.8842 51.6491 12.3068 51.4432C12.733 51.2337 13.0543 50.8945 13.271 50.4258C13.4911 49.9535 13.6012 49.3249 13.6012 48.5401C13.6012 47.7553 13.4911 47.1303 13.271 46.6651C13.0508 46.1964 12.7259 45.859 12.2962 45.6531C11.87 45.4435 11.3445 45.3388 10.7195 45.3388H9.46236V51.7521ZM17.7827 54V43.0909H25.3892V45.2322H20.4194V47.4695H25.0004V49.6161H20.4194V51.8587H25.3892V54H17.7827ZM36.9428 47.0433H34.2795C34.244 46.7699 34.1712 46.5231 34.0611 46.3029C33.951 46.0827 33.8054 45.8945 33.6243 45.7383C33.4432 45.582 33.2283 45.4631 32.9798 45.3814C32.7347 45.2962 32.4631 45.2536 32.1648 45.2536C31.6357 45.2536 31.1793 45.3832 30.7958 45.6424C30.4158 45.9016 30.1229 46.2763 29.9169 46.7663C29.7145 47.2564 29.6133 47.8494 29.6133 48.5455C29.6133 49.2699 29.7163 49.8771 29.9222 50.3672C30.1317 50.8537 30.4247 51.2212 30.8011 51.4698C31.1811 51.7148 31.6303 51.8374 32.1488 51.8374C32.44 51.8374 32.7045 51.8001 32.9425 51.7255C33.1839 51.6509 33.3952 51.5426 33.5763 51.4006C33.761 51.255 33.9119 51.0792 34.0291 50.8732C34.1499 50.6637 34.2333 50.4276 34.2795 50.1648L36.9428 50.1808C36.8967 50.6637 36.7564 51.1396 36.522 51.6083C36.2912 52.0771 35.9734 52.505 35.5685 52.892C35.1637 53.2756 34.6701 53.581 34.0877 53.8082C33.5089 54.0355 32.8448 54.1491 32.0955 54.1491C31.1083 54.1491 30.2241 53.9325 29.4428 53.4993C28.6651 53.0625 28.0508 52.4268 27.5998 51.5923C27.1488 50.7578 26.9233 49.7422 26.9233 48.5455C26.9233 47.3452 27.1523 46.3278 27.6104 45.4933C28.0685 44.6587 28.6882 44.0249 29.4695 43.5916C30.2507 43.1584 31.1261 42.9418 32.0955 42.9418C32.756 42.9418 33.3668 43.0341 33.9279 43.2188C34.489 43.3999 34.9826 43.6662 35.4087 44.0178C35.8349 44.3658 36.1811 44.7937 36.4474 45.3015C36.7138 45.8093 36.8789 46.3899 36.9428 47.0433ZM40.533 54H37.6992L41.38 43.0909H44.8903L48.571 54H45.7372L43.1751 45.8395H43.0898L40.533 54ZM40.1548 49.7067H46.0781V51.7095H40.1548V49.7067ZM59.03 43.0909V54H56.7928L52.4515 47.7038H52.3823V54H49.7456V43.0909H52.0147L56.3081 49.3764H56.3986V43.0909H59.03ZM63.0477 54H60.2139L63.8946 43.0909H67.4049L71.0857 54H68.2519L65.6897 45.8395H65.6045L63.0477 54ZM62.6695 49.7067H68.5928V51.7095H62.6695V49.7067ZM70.541 45.2322V43.0909H79.7615V45.2322H76.4537V54H73.8542V45.2322H70.541ZM90.8477 48.5455C90.8477 49.7457 90.6169 50.7631 90.1553 51.5977C89.6936 52.4322 89.0686 53.0661 88.2803 53.4993C87.4955 53.9325 86.6148 54.1491 85.6382 54.1491C84.6581 54.1491 83.7757 53.9308 82.9909 53.494C82.2061 53.0572 81.5828 52.4233 81.1212 51.5923C80.6631 50.7578 80.434 49.7422 80.434 48.5455C80.434 47.3452 80.6631 46.3278 81.1212 45.4933C81.5828 44.6587 82.2061 44.0249 82.9909 43.5916C83.7757 43.1584 84.6581 42.9418 85.6382 42.9418C86.6148 42.9418 87.4955 43.1584 88.2803 43.5916C89.0686 44.0249 89.6936 44.6587 90.1553 45.4933C90.6169 46.3278 90.8477 47.3452 90.8477 48.5455ZM88.1524 48.5455C88.1524 47.8352 88.0512 47.2351 87.8488 46.745C87.6499 46.255 87.3623 45.8839 86.9859 45.6317C86.613 45.3796 86.1638 45.2536 85.6382 45.2536C85.1162 45.2536 84.667 45.3796 84.2906 45.6317C83.9142 45.8839 83.6247 46.255 83.4223 46.745C83.2235 47.2351 83.124 47.8352 83.124 48.5455C83.124 49.2557 83.2235 49.8558 83.4223 50.3459C83.6247 50.8359 83.9142 51.207 84.2906 51.4592C84.667 51.7113 85.1162 51.8374 85.6382 51.8374C86.1638 51.8374 86.613 51.7113 86.9859 51.4592C87.3623 51.207 87.6499 50.8359 87.8488 50.3459C88.0512 49.8558 88.1524 49.2557 88.1524 48.5455Z" fill="white"/>
</svg>
