<svg width="96" height="96" viewBox="0 0 96 96" fill="none" xmlns="http://www.w3.org/2000/svg">
<rect x="-7.62939e-06" y="0.000488281" width="96" height="96" rx="15" fill="#131C73"/>
<path d="M6.18182 55H1.88068V43.3636H6.17614C7.36174 43.3636 8.38258 43.5966 9.23864 44.0625C10.0985 44.5246 10.7614 45.1913 11.2273 46.0625C11.6932 46.9299 11.9261 47.9678 11.9261 49.1761C11.9261 50.3883 11.6932 51.4299 11.2273 52.3011C10.7652 53.1723 10.1042 53.8409 9.24432 54.3068C8.38447 54.7689 7.36364 55 6.18182 55ZM4.69318 52.6023H6.07386C6.72538 52.6023 7.27652 52.4924 7.72727 52.2727C8.18182 52.0492 8.52462 51.6875 8.75568 51.1875C8.99053 50.6837 9.10795 50.0133 9.10795 49.1761C9.10795 48.339 8.99053 47.6723 8.75568 47.1761C8.52083 46.6761 8.17424 46.3163 7.71591 46.0966C7.26136 45.8731 6.70076 45.7614 6.03409 45.7614H4.69318V52.6023ZM13.5682 55V43.3636H21.6818V45.6477H16.3807V48.0341H21.267V50.3239H16.3807V52.7159H21.6818V55H13.5682ZM34.0057 47.5795H31.1648C31.1269 47.2879 31.0492 47.0246 30.9318 46.7898C30.8144 46.5549 30.6591 46.3542 30.4659 46.1875C30.2727 46.0208 30.0436 45.8939 29.7784 45.8068C29.517 45.7159 29.2273 45.6705 28.9091 45.6705C28.3447 45.6705 27.858 45.8087 27.4489 46.0852C27.0436 46.3617 26.7311 46.7614 26.5114 47.2841C26.2955 47.8068 26.1875 48.4394 26.1875 49.1818C26.1875 49.9545 26.2973 50.6023 26.517 51.125C26.7405 51.6439 27.053 52.036 27.4545 52.3011C27.8598 52.5625 28.339 52.6932 28.892 52.6932C29.2027 52.6932 29.4848 52.6534 29.7386 52.5739C29.9962 52.4943 30.2216 52.3788 30.4148 52.2273C30.6117 52.072 30.7727 51.8845 30.8977 51.6648C31.0265 51.4413 31.1155 51.1894 31.1648 50.9091L34.0057 50.9261C33.9564 51.4413 33.8068 51.9489 33.5568 52.4489C33.3106 52.9489 32.9716 53.4053 32.5398 53.8182C32.108 54.2273 31.5814 54.553 30.9602 54.7955C30.3428 55.0379 29.6345 55.1591 28.8352 55.1591C27.7822 55.1591 26.839 54.928 26.0057 54.4659C25.1761 54 24.5208 53.322 24.0398 52.4318C23.5587 51.5417 23.3182 50.4583 23.3182 49.1818C23.3182 47.9015 23.5625 46.8163 24.0511 45.9261C24.5398 45.036 25.2008 44.3598 26.0341 43.8977C26.8674 43.4356 27.8011 43.2045 28.8352 43.2045C29.5398 43.2045 30.1913 43.303 30.7898 43.5C31.3883 43.6932 31.9148 43.9773 32.3693 44.3523C32.8239 44.7235 33.1932 45.1799 33.4773 45.7216C33.7614 46.2633 33.9375 46.8826 34.0057 47.5795ZM37.8352 55H34.8125L38.7386 43.3636H42.483L46.4091 55H43.3864L40.6534 46.2955H40.5625L37.8352 55ZM37.4318 50.4205H43.75V52.5568H37.4318V50.4205ZM57.5653 43.3636V55H55.179L50.5483 48.2841H50.4744V55H47.6619V43.3636H50.0824L54.6619 50.0682H54.7585V43.3636H57.5653ZM61.8509 55H58.8281L62.7543 43.3636H66.4986L70.4247 55H67.402L64.669 46.2955H64.5781L61.8509 55ZM61.4474 50.4205H67.7656V52.5568H61.4474V50.4205ZM69.8438 45.6477V43.3636H79.679V45.6477H76.1506V55H73.3778V45.6477H69.8438ZM91.5043 49.1818C91.5043 50.4621 91.258 51.5473 90.7656 52.4375C90.2732 53.3277 89.6065 54.0038 88.7656 54.4659C87.9285 54.928 86.9891 55.1591 85.9474 55.1591C84.902 55.1591 83.9607 54.9261 83.1236 54.4602C82.2865 53.9943 81.6217 53.3182 81.1293 52.4318C80.6406 51.5417 80.3963 50.4583 80.3963 49.1818C80.3963 47.9015 80.6406 46.8163 81.1293 45.9261C81.6217 45.036 82.2865 44.3598 83.1236 43.8977C83.9607 43.4356 84.902 43.2045 85.9474 43.2045C86.9891 43.2045 87.9285 43.4356 88.7656 43.8977C89.6065 44.3598 90.2732 45.036 90.7656 45.9261C91.258 46.8163 91.5043 47.9015 91.5043 49.1818ZM88.6293 49.1818C88.6293 48.4242 88.5213 47.7841 88.3054 47.2614C88.0933 46.7386 87.7865 46.3428 87.3849 46.0739C86.9872 45.8049 86.508 45.6705 85.9474 45.6705C85.3906 45.6705 84.9115 45.8049 84.5099 46.0739C84.1084 46.3428 83.7997 46.7386 83.5838 47.2614C83.3717 47.7841 83.2656 48.4242 83.2656 49.1818C83.2656 49.9394 83.3717 50.5795 83.5838 51.1023C83.7997 51.625 84.1084 52.0208 84.5099 52.2898C84.9115 52.5587 85.3906 52.6932 85.9474 52.6932C86.508 52.6932 86.9872 52.5587 87.3849 52.2898C87.7865 52.0208 88.0933 51.625 88.3054 51.1023C88.5213 50.5795 88.6293 49.9394 88.6293 49.1818Z" fill="white"/>
</svg>
