<svg width="96" height="96" viewBox="0 0 96 96" fill="none" xmlns="http://www.w3.org/2000/svg">
<rect width="96" height="96" rx="15" fill="#131C73"/>
<path d="M22.8699 47H19.3752V37.5455H22.8653C23.8286 37.5455 24.658 37.7347 25.3536 38.1133C26.0522 38.4888 26.5908 39.0304 26.9693 39.7383C27.3479 40.4431 27.5372 41.2863 27.5372 42.2681C27.5372 43.253 27.3479 44.0993 26.9693 44.8072C26.5939 45.515 26.0568 46.0582 25.3582 46.4368C24.6595 46.8123 23.8301 47 22.8699 47ZM21.6604 45.0518H22.7822C23.3115 45.0518 23.7593 44.9626 24.1256 44.7841C24.4949 44.6025 24.7734 44.3086 24.9612 43.9023C25.152 43.493 25.2474 42.9483 25.2474 42.2681C25.2474 41.5879 25.152 41.0463 24.9612 40.6431C24.7703 40.2369 24.4887 39.9445 24.1163 39.766C23.747 39.5844 23.2915 39.4936 22.7499 39.4936H21.6604V45.0518ZM28.8713 47V37.5455H32.7769C33.4847 37.5455 34.0956 37.6839 34.6096 37.9609C35.1266 38.2348 35.5252 38.618 35.8053 39.1104C36.0853 39.5998 36.2254 40.1692 36.2254 40.8185C36.2254 41.471 36.0823 42.0419 35.796 42.5312C35.5129 43.0175 35.1082 43.3945 34.5819 43.6623C34.0556 43.93 33.4309 44.0639 32.7076 44.0639H30.2978V42.2635H32.2829C32.6276 42.2635 32.9154 42.2035 33.1462 42.0835C33.3801 41.9634 33.557 41.7957 33.6771 41.5803C33.7971 41.3617 33.8571 41.1078 33.8571 40.8185C33.8571 40.5262 33.7971 40.2738 33.6771 40.0614C33.557 39.846 33.3801 39.6798 33.1462 39.5629C32.9123 39.4459 32.6245 39.3874 32.2829 39.3874H31.1565V47H28.8713ZM37.0425 39.4013V37.5455H45.0336V39.4013H42.1668V47H39.9139V39.4013H37.0425ZM54.6416 42.2727C54.6416 43.313 54.4416 44.1947 54.0415 44.918C53.6414 45.6412 53.0997 46.1906 52.4165 46.5661C51.7363 46.9415 50.9731 47.1293 50.1267 47.1293C49.2773 47.1293 48.5125 46.94 47.8323 46.5614C47.1522 46.1829 46.6121 45.6335 46.212 44.9134C45.8149 44.1901 45.6164 43.3099 45.6164 42.2727C45.6164 41.2325 45.8149 40.3507 46.212 39.6275C46.6121 38.9042 47.1522 38.3549 47.8323 37.9794C48.5125 37.6039 49.2773 37.4162 50.1267 37.4162C50.9731 37.4162 51.7363 37.6039 52.4165 37.9794C53.0997 38.3549 53.6414 38.9042 54.0415 39.6275C54.4416 40.3507 54.6416 41.2325 54.6416 42.2727ZM52.3057 42.2727C52.3057 41.6572 52.218 41.1371 52.0426 40.7124C51.8702 40.2876 51.6209 39.966 51.2947 39.7475C50.9715 39.529 50.5822 39.4197 50.1267 39.4197C49.6743 39.4197 49.285 39.529 48.9588 39.7475C48.6325 39.966 48.3817 40.2876 48.2063 40.7124C48.0339 41.1371 47.9478 41.6572 47.9478 42.2727C47.9478 42.8883 48.0339 43.4084 48.2063 43.8331C48.3817 44.2578 48.6325 44.5794 48.9588 44.7979C49.285 45.0165 49.6743 45.1257 50.1267 45.1257C50.5822 45.1257 50.9715 45.0165 51.2947 44.7979C51.6209 44.5794 51.8702 44.2578 52.0426 43.8331C52.218 43.4084 52.3057 42.8883 52.3057 42.2727ZM56.6487 47.1339C56.3163 47.1339 56.0316 47.0169 55.7946 46.783C55.5607 46.5491 55.4453 46.266 55.4484 45.9336C55.4453 45.6074 55.5607 45.3288 55.7946 45.098C56.0316 44.8641 56.3163 44.7472 56.6487 44.7472C56.9626 44.7472 57.2396 44.8641 57.4796 45.098C57.7228 45.3288 57.8459 45.6074 57.8489 45.9336C57.8459 46.1552 57.7874 46.3568 57.6735 46.5384C57.5627 46.7199 57.4165 46.8646 57.235 46.9723C57.0564 47.08 56.861 47.1339 56.6487 47.1339ZM65.031 47H61.5364V37.5455H65.0264C65.9897 37.5455 66.8191 37.7347 67.5147 38.1133C68.2133 38.4888 68.7519 39.0304 69.1305 39.7383C69.509 40.4431 69.6983 41.2863 69.6983 42.2681C69.6983 43.253 69.509 44.0993 69.1305 44.8072C68.755 45.515 68.2179 46.0582 67.5193 46.4368C66.8207 46.8123 65.9913 47 65.031 47ZM63.8215 45.0518H64.9433C65.4727 45.0518 65.9205 44.9626 66.2867 44.7841C66.656 44.6025 66.9346 44.3086 67.1223 43.9023C67.3131 43.493 67.4085 42.9483 67.4085 42.2681C67.4085 41.5879 67.3131 41.0463 67.1223 40.6431C66.9315 40.2369 66.6499 39.9445 66.2775 39.766C65.9082 39.5844 65.4527 39.4936 64.911 39.4936H63.8215V45.0518ZM71.0324 47V37.5455H77.6248V39.4013H73.3176V41.3402H77.2878V43.2006H73.3176V45.1442H77.6248V47H71.0324ZM18.9188 56.38C18.888 56.0414 18.751 55.7783 18.5079 55.5906C18.2678 55.3997 17.9247 55.3043 17.4784 55.3043C17.183 55.3043 16.9368 55.3428 16.7398 55.4197C16.5428 55.4967 16.3951 55.6029 16.2966 55.7383C16.1981 55.8706 16.1473 56.023 16.1443 56.1953C16.1381 56.3369 16.1658 56.4615 16.2274 56.5692C16.292 56.677 16.3843 56.7724 16.5044 56.8555C16.6275 56.9355 16.7752 57.0063 16.9475 57.0678C17.1199 57.1294 17.3138 57.1832 17.5292 57.2294L18.3417 57.4141C18.8095 57.5156 19.2219 57.651 19.5789 57.8203C19.939 57.9896 20.2406 58.1912 20.4838 58.4251C20.73 58.659 20.9162 58.9283 21.0423 59.233C21.1685 59.5376 21.2332 59.8793 21.2362 60.2578C21.2332 60.8549 21.0824 61.3673 20.7838 61.7951C20.4853 62.2229 20.056 62.5507 19.4958 62.7784C18.9388 63.0062 18.2663 63.12 17.4784 63.12C16.6875 63.12 15.9981 63.0015 15.4102 62.7646C14.8224 62.5276 14.3654 62.1675 14.0392 61.6843C13.7129 61.2011 13.5452 60.5902 13.536 59.8516H15.7242C15.7426 60.1562 15.8242 60.4102 15.9688 60.6133C16.1135 60.8164 16.312 60.9703 16.5644 61.0749C16.8198 61.1796 17.1153 61.2319 17.4507 61.2319C17.7585 61.2319 18.0201 61.1903 18.2355 61.1072C18.454 61.0241 18.6218 60.9087 18.7387 60.761C18.8557 60.6133 18.9157 60.444 18.9188 60.2532C18.9157 60.0747 18.8603 59.9223 18.7526 59.7962C18.6449 59.6669 18.4787 59.5561 18.254 59.4638C18.0324 59.3684 17.7493 59.2807 17.4046 59.2006L16.4166 58.9698C15.598 58.7821 14.9532 58.4789 14.4823 58.0604C14.0115 57.6387 13.7776 57.0694 13.7806 56.3523C13.7776 55.7675 13.9345 55.2551 14.2515 54.815C14.5685 54.3749 15.0071 54.0317 15.5672 53.7855C16.1273 53.5393 16.766 53.4162 17.483 53.4162C18.2155 53.4162 18.8511 53.5408 19.3896 53.7901C19.9313 54.0363 20.3514 54.3826 20.6499 54.8288C20.9485 55.2751 21.1008 55.7921 21.107 56.38H18.9188ZM24.6755 53.5455V63H22.3904V53.5455H24.6755ZM31.2205 56.38C31.1897 56.0414 31.0528 55.7783 30.8097 55.5906C30.5696 55.3997 30.2264 55.3043 29.7802 55.3043C29.4847 55.3043 29.2385 55.3428 29.0415 55.4197C28.8446 55.4967 28.6969 55.6029 28.5984 55.7383C28.4999 55.8706 28.4491 56.023 28.446 56.1953C28.4399 56.3369 28.4676 56.4615 28.5291 56.5692C28.5938 56.677 28.6861 56.7724 28.8061 56.8555C28.9292 56.9355 29.0769 57.0063 29.2493 57.0678C29.4216 57.1294 29.6155 57.1832 29.831 57.2294L30.6435 57.4141C31.1113 57.5156 31.5237 57.651 31.8807 57.8203C32.2408 57.9896 32.5424 58.1912 32.7855 58.4251C33.0317 58.659 33.2179 58.9283 33.3441 59.233C33.4703 59.5376 33.5349 59.8793 33.538 60.2578C33.5349 60.8549 33.3841 61.3673 33.0856 61.7951C32.7871 62.2229 32.3577 62.5507 31.7976 62.7784C31.2405 63.0062 30.5681 63.12 29.7802 63.12C28.9892 63.12 28.2998 63.0015 27.712 62.7646C27.1242 62.5276 26.6671 62.1675 26.3409 61.6843C26.0147 61.2011 25.8469 60.5902 25.8377 59.8516H28.0259C28.0444 60.1562 28.1259 60.4102 28.2706 60.6133C28.4152 60.8164 28.6138 60.9703 28.8661 61.0749C29.1216 61.1796 29.417 61.2319 29.7525 61.2319C30.0603 61.2319 30.3219 61.1903 30.5373 61.1072C30.7558 61.0241 30.9235 60.9087 31.0405 60.761C31.1574 60.6133 31.2174 60.444 31.2205 60.2532C31.2174 60.0747 31.1621 59.9223 31.0543 59.7962C30.9466 59.6669 30.7804 59.5561 30.5558 59.4638C30.3342 59.3684 30.051 59.2807 29.7063 59.2006L28.7184 58.9698C27.8997 58.7821 27.255 58.4789 26.7841 58.0604C26.3132 57.6387 26.0793 57.0694 26.0824 56.3523C26.0793 55.7675 26.2363 55.2551 26.5533 54.815C26.8703 54.3749 27.3088 54.0317 27.869 53.7855C28.4291 53.5393 29.0677 53.4162 29.7848 53.4162C30.5173 53.4162 31.1528 53.5408 31.6914 53.7901C32.2331 54.0363 32.6532 54.3826 32.9517 54.8288C33.2502 55.2751 33.4026 55.7921 33.4087 56.38H31.2205ZM34.3828 55.4013V53.5455H42.3739V55.4013H39.5071V63H37.2543V55.4013H34.3828ZM43.49 63V53.5455H50.0823V55.4013H45.7751V57.3402H49.7453V59.2006H45.7751V61.1442H50.0823V63H43.49ZM51.5134 53.5455H54.3433L56.7439 59.3991H56.8547L59.2552 53.5455H62.0851V63H59.86V57.1925H59.7815L57.5102 62.94H56.0883L53.817 57.1602H53.7385V63H51.5134V53.5455ZM65.5556 63H63.0996L66.2896 53.5455H69.3319L72.5218 63H70.0659L67.8453 55.9276H67.7715L65.5556 63ZM65.2278 59.2791H70.3613V61.0149H65.2278V59.2791ZM78.3582 56.38C78.3274 56.0414 78.1905 55.7783 77.9474 55.5906C77.7073 55.3997 77.3641 55.3043 76.9179 55.3043C76.6224 55.3043 76.3762 55.3428 76.1792 55.4197C75.9823 55.4967 75.8345 55.6029 75.7361 55.7383C75.6376 55.8706 75.5868 56.023 75.5837 56.1953C75.5776 56.3369 75.6053 56.4615 75.6668 56.5692C75.7314 56.677 75.8238 56.7724 75.9438 56.8555C76.0669 56.9355 76.2146 57.0063 76.387 57.0678C76.5593 57.1294 76.7532 57.1832 76.9687 57.2294L77.7812 57.4141C78.249 57.5156 78.6614 57.651 79.0184 57.8203C79.3785 57.9896 79.6801 58.1912 79.9232 58.4251C80.1694 58.659 80.3556 58.9283 80.4818 59.233C80.608 59.5376 80.6726 59.8793 80.6757 60.2578C80.6726 60.8549 80.5218 61.3673 80.2233 61.7951C79.9247 62.2229 79.4954 62.5507 78.9353 62.7784C78.3782 63.0062 77.7058 63.12 76.9179 63.12C76.1269 63.12 75.4375 63.0015 74.8497 62.7646C74.2619 62.5276 73.8048 62.1675 73.4786 61.6843C73.1524 61.2011 72.9846 60.5902 72.9754 59.8516H75.1636C75.1821 60.1562 75.2636 60.4102 75.4083 60.6133C75.5529 60.8164 75.7515 60.9703 76.0038 61.0749C76.2593 61.1796 76.5547 61.2319 76.8902 61.2319C77.1979 61.2319 77.4595 61.1903 77.675 61.1072C77.8935 61.0241 78.0612 60.9087 78.1782 60.761C78.2951 60.6133 78.3551 60.444 78.3582 60.2532C78.3551 60.0747 78.2997 59.9223 78.192 59.7962C78.0843 59.6669 77.9181 59.5561 77.6934 59.4638C77.4719 59.3684 77.1887 59.2807 76.844 59.2006L75.8561 58.9698C75.0374 58.7821 74.3927 58.4789 73.9218 58.0604C73.4509 57.6387 73.217 57.0694 73.2201 56.3523C73.217 55.7675 73.374 55.2551 73.691 54.815C74.008 54.3749 74.4465 54.0317 75.0067 53.7855C75.5668 53.5393 76.2054 53.4162 76.9225 53.4162C77.655 53.4162 78.2905 53.5408 78.8291 53.7901C79.3708 54.0363 79.7909 54.3826 80.0894 54.8288C80.3879 55.2751 80.5403 55.7921 80.5464 56.38H78.3582Z" fill="white"/>
</svg>
