<svg width="96" height="96" viewBox="0 0 96 96" fill="none" xmlns="http://www.w3.org/2000/svg">
<rect x="4.57764e-05" y="0.000488281" width="96" height="96" rx="15" fill="#131C73"/>
<path d="M16.9553 49H12.6542V37.3636H16.9496C18.1352 37.3636 19.1561 37.5966 20.0121 38.0625C20.872 38.5246 21.5348 39.1913 22.0007 40.0625C22.4667 40.9299 22.6996 41.9678 22.6996 43.1761C22.6996 44.3883 22.4667 45.4299 22.0007 46.3011C21.5386 47.1723 20.8776 47.8409 20.0178 48.3068C19.1579 48.7689 18.1371 49 16.9553 49ZM15.4667 46.6023H16.8473C17.4989 46.6023 18.05 46.4924 18.5007 46.2727C18.9553 46.0492 19.2981 45.6875 19.5292 45.1875C19.764 44.6837 19.8814 44.0133 19.8814 43.1761C19.8814 42.339 19.764 41.6723 19.5292 41.1761C19.2943 40.6761 18.9477 40.3163 18.4894 40.0966C18.0348 39.8731 17.4742 39.7614 16.8076 39.7614H15.4667V46.6023ZM24.3417 49V37.3636H29.1485C30.0197 37.3636 30.7716 37.5341 31.4042 37.875C32.0405 38.2121 32.5311 38.6837 32.8757 39.2898C33.2204 39.892 33.3928 40.5928 33.3928 41.392C33.3928 42.1951 33.2167 42.8977 32.8644 43.5C32.5159 44.0985 32.0178 44.5625 31.3701 44.892C30.7223 45.2216 29.9534 45.3864 29.0632 45.3864H26.0973V43.1705H28.5405C28.9648 43.1705 29.3189 43.0966 29.603 42.9489C29.8909 42.8011 30.1087 42.5947 30.2564 42.3295C30.4042 42.0606 30.478 41.7481 30.478 41.392C30.478 41.0322 30.4042 40.7216 30.2564 40.4602C30.1087 40.1951 29.8909 39.9905 29.603 39.8466C29.3151 39.7027 28.961 39.6307 28.5405 39.6307H27.1542V49H24.3417ZM34.3985 39.6477V37.3636H44.2337V39.6477H40.7053V49H37.9326V39.6477H34.3985ZM56.059 43.1818C56.059 44.4621 55.8128 45.5473 55.3204 46.4375C54.8279 47.3277 54.1613 48.0038 53.3204 48.4659C52.4832 48.928 51.5438 49.1591 50.5022 49.1591C49.4567 49.1591 48.5154 48.9261 47.6783 48.4602C46.8412 47.9943 46.1764 47.3182 45.684 46.4318C45.1954 45.5417 44.951 44.4583 44.951 43.1818C44.951 41.9015 45.1954 40.8163 45.684 39.9261C46.1764 39.036 46.8412 38.3598 47.6783 37.8977C48.5154 37.4356 49.4567 37.2045 50.5022 37.2045C51.5438 37.2045 52.4832 37.4356 53.3204 37.8977C54.1613 38.3598 54.8279 39.036 55.3204 39.9261C55.8128 40.8163 56.059 41.9015 56.059 43.1818ZM53.184 43.1818C53.184 42.4242 53.076 41.7841 52.8601 41.2614C52.648 40.7386 52.3412 40.3428 51.9397 40.0739C51.5419 39.8049 51.0628 39.6705 50.5022 39.6705C49.9454 39.6705 49.4662 39.8049 49.0647 40.0739C48.6632 40.3428 48.3544 40.7386 48.1385 41.2614C47.9264 41.7841 47.8204 42.4242 47.8204 43.1818C47.8204 43.9394 47.9264 44.5795 48.1385 45.1023C48.3544 45.625 48.6632 46.0208 49.0647 46.2898C49.4662 46.5587 49.9454 46.6932 50.5022 46.6932C51.0628 46.6932 51.5419 46.5587 51.9397 46.2898C52.3412 46.0208 52.648 45.625 52.8601 45.1023C53.076 44.5795 53.184 43.9394 53.184 43.1818ZM58.5292 49.1648C58.1201 49.1648 57.7697 49.0208 57.478 48.733C57.1901 48.4451 57.0481 48.0966 57.0519 47.6875C57.0481 47.286 57.1901 46.9432 57.478 46.6591C57.7697 46.3712 58.1201 46.2273 58.5292 46.2273C58.9155 46.2273 59.2564 46.3712 59.5519 46.6591C59.8511 46.9432 60.0026 47.286 60.0064 47.6875C60.0026 47.9602 59.9307 48.2083 59.7905 48.4318C59.6542 48.6553 59.4742 48.8333 59.2507 48.9659C59.0311 49.0985 58.7905 49.1648 58.5292 49.1648ZM68.8459 49H64.5448V37.3636H68.8402C70.0258 37.3636 71.0467 37.5966 71.9027 38.0625C72.7626 38.5246 73.4255 39.1913 73.8914 40.0625C74.3573 40.9299 74.5902 41.9678 74.5902 43.1761C74.5902 44.3883 74.3573 45.4299 73.8914 46.3011C73.4293 47.1723 72.7683 47.8409 71.9084 48.3068C71.0486 48.7689 70.0277 49 68.8459 49ZM67.3573 46.6023H68.738C69.3895 46.6023 69.9406 46.4924 70.3914 46.2727C70.8459 46.0492 71.1887 45.6875 71.4198 45.1875C71.6546 44.6837 71.7721 44.0133 71.7721 43.1761C71.7721 42.339 71.6546 41.6723 71.4198 41.1761C71.1849 40.6761 70.8383 40.3163 70.38 40.0966C69.9255 39.8731 69.3649 39.7614 68.6982 39.7614H67.3573V46.6023ZM76.2323 49V37.3636H84.3459V39.6477H79.0448V42.0341H83.9311V44.3239H79.0448V46.7159H84.3459V49H76.2323ZM12.0924 59.8523C12.0545 59.4356 11.8859 59.1117 11.5867 58.8807C11.2912 58.6458 10.8689 58.5284 10.3196 58.5284C9.956 58.5284 9.65297 58.5758 9.41055 58.6705C9.16813 58.7652 8.98631 58.8958 8.8651 59.0625C8.74388 59.2254 8.68138 59.4129 8.6776 59.625C8.67002 59.7992 8.70411 59.9527 8.77987 60.0852C8.85941 60.2178 8.97305 60.3352 9.12078 60.4375C9.27229 60.536 9.45411 60.6231 9.66623 60.6989C9.87835 60.7746 10.117 60.8409 10.3821 60.8977L11.3821 61.125C11.9579 61.25 12.4655 61.4167 12.9049 61.625C13.3481 61.8333 13.7193 62.0814 14.0185 62.3693C14.3215 62.6572 14.5507 62.9886 14.706 63.3636C14.8613 63.7386 14.9409 64.1591 14.9446 64.625C14.9409 65.3598 14.7552 65.9905 14.3878 66.517C14.0204 67.0436 13.492 67.447 12.8026 67.7273C12.117 68.0076 11.2893 68.1477 10.3196 68.1477C9.34616 68.1477 8.49767 68.0019 7.77419 67.7102C7.0507 67.4186 6.4882 66.9754 6.08669 66.3807C5.68517 65.786 5.47873 65.0341 5.46737 64.125H8.16055C8.18328 64.5 8.28366 64.8125 8.46169 65.0625C8.63972 65.3125 8.88403 65.5019 9.19464 65.6307C9.50903 65.7595 9.87267 65.8239 10.2855 65.8239C10.6643 65.8239 10.9863 65.7727 11.2515 65.6705C11.5204 65.5682 11.7268 65.4261 11.8708 65.2443C12.0147 65.0625 12.0886 64.8542 12.0924 64.6193C12.0886 64.3996 12.0204 64.2121 11.8878 64.0568C11.7552 63.8977 11.5507 63.7614 11.2742 63.6477C11.0015 63.5303 10.653 63.4223 10.2287 63.3239L9.01282 63.0398C8.00525 62.8087 7.21169 62.4356 6.63214 61.9205C6.0526 61.4015 5.76472 60.7008 5.7685 59.8182C5.76472 59.0985 5.9579 58.4678 6.34805 57.9261C6.7382 57.3845 7.27797 56.9621 7.96737 56.6591C8.65676 56.3561 9.44275 56.2045 10.3253 56.2045C11.2268 56.2045 12.009 56.358 12.6719 56.6648C13.3386 56.9678 13.8556 57.3939 14.2231 57.9432C14.5905 58.4924 14.778 59.1288 14.7856 59.8523H12.0924ZM19.1776 56.3636V68H16.3651V56.3636H19.1776ZM27.233 59.8523C27.1951 59.4356 27.0266 59.1117 26.7273 58.8807C26.4319 58.6458 26.0095 58.5284 25.4603 58.5284C25.0966 58.5284 24.7936 58.5758 24.5512 58.6705C24.3088 58.7652 24.1269 58.8958 24.0057 59.0625C23.8845 59.2254 23.822 59.4129 23.8182 59.625C23.8106 59.7992 23.8447 59.9527 23.9205 60.0852C24 60.2178 24.1137 60.3352 24.2614 60.4375C24.4129 60.536 24.5947 60.6231 24.8069 60.6989C25.019 60.7746 25.2576 60.8409 25.5228 60.8977L26.5228 61.125C27.0985 61.25 27.6061 61.4167 28.0455 61.625C28.4887 61.8333 28.8599 62.0814 29.1591 62.3693C29.4622 62.6572 29.6913 62.9886 29.8466 63.3636C30.0019 63.7386 30.0815 64.1591 30.0853 64.625C30.0815 65.3598 29.8959 65.9905 29.5284 66.517C29.161 67.0436 28.6326 67.447 27.9432 67.7273C27.2576 68.0076 26.43 68.1477 25.4603 68.1477C24.4868 68.1477 23.6383 68.0019 22.9148 67.7102C22.1913 67.4186 21.6288 66.9754 21.2273 66.3807C20.8258 65.786 20.6194 65.0341 20.608 64.125H23.3012C23.3239 64.5 23.4243 64.8125 23.6023 65.0625C23.7803 65.3125 24.0247 65.5019 24.3353 65.6307C24.6497 65.7595 25.0133 65.8239 25.4262 65.8239C25.805 65.8239 26.1269 65.7727 26.3921 65.6705C26.661 65.5682 26.8675 65.4261 27.0114 65.2443C27.1553 65.0625 27.2292 64.8542 27.233 64.6193C27.2292 64.3996 27.161 64.2121 27.0284 64.0568C26.8959 63.8977 26.6913 63.7614 26.4148 63.6477C26.1421 63.5303 25.7936 63.4223 25.3694 63.3239L24.1534 63.0398C23.1459 62.8087 22.3523 62.4356 21.7728 61.9205C21.1932 61.4015 20.9053 60.7008 20.9091 59.8182C20.9053 59.0985 21.0985 58.4678 21.4887 57.9261C21.8788 57.3845 22.4186 56.9621 23.108 56.6591C23.7974 56.3561 24.5834 56.2045 25.4659 56.2045C26.3675 56.2045 27.1497 56.358 27.8125 56.6648C28.4792 56.9678 28.9963 57.3939 29.3637 57.9432C29.7311 58.4924 29.9186 59.1288 29.9262 59.8523H27.233ZM31.125 58.6477V56.3636H40.9603V58.6477H37.4319V68H34.6591V58.6477H31.125ZM42.3338 68V56.3636H50.4475V58.6477H45.1463V61.0341H50.0327V63.3239H45.1463V65.7159H50.4475V68H42.3338ZM52.2088 56.3636H55.6918L58.6463 63.5682H58.7827L61.7373 56.3636H65.2202V68H62.4816V60.8523H62.385L59.5895 67.9261H57.8395L55.0441 60.8125H54.9475V68H52.2088V56.3636ZM69.4915 68H66.4688L70.3949 56.3636H74.1392L78.0654 68H75.0427L72.3097 59.2955H72.2188L69.4915 68ZM69.0881 63.4205H75.4063V65.5568H69.0881V63.4205ZM85.2486 59.8523C85.2107 59.4356 85.0422 59.1117 84.7429 58.8807C84.4475 58.6458 84.0251 58.5284 83.4759 58.5284C83.1123 58.5284 82.8092 58.5758 82.5668 58.6705C82.3244 58.7652 82.1426 58.8958 82.0213 59.0625C81.9001 59.2254 81.8376 59.4129 81.8338 59.625C81.8263 59.7992 81.8604 59.9527 81.9361 60.0852C82.0157 60.2178 82.1293 60.3352 82.277 60.4375C82.4285 60.536 82.6104 60.6231 82.8225 60.6989C83.0346 60.7746 83.2732 60.8409 83.5384 60.8977L84.5384 61.125C85.1141 61.25 85.6217 61.4167 86.0611 61.625C86.5043 61.8333 86.8755 62.0814 87.1748 62.3693C87.4778 62.6572 87.707 62.9886 87.8623 63.3636C88.0176 63.7386 88.0971 64.1591 88.1009 64.625C88.0971 65.3598 87.9115 65.9905 87.5441 66.517C87.1766 67.0436 86.6482 67.447 85.9588 67.7273C85.2732 68.0076 84.4456 68.1477 83.4759 68.1477C82.5024 68.1477 81.6539 68.0019 80.9304 67.7102C80.207 67.4186 79.6445 66.9754 79.2429 66.3807C78.8414 65.786 78.635 65.0341 78.6236 64.125H81.3168C81.3395 64.5 81.4399 64.8125 81.6179 65.0625C81.796 65.3125 82.0403 65.5019 82.3509 65.6307C82.6653 65.7595 83.0289 65.8239 83.4418 65.8239C83.8206 65.8239 84.1426 65.7727 84.4077 65.6705C84.6766 65.5682 84.8831 65.4261 85.027 65.2443C85.171 65.0625 85.2448 64.8542 85.2486 64.6193C85.2448 64.3996 85.1766 64.2121 85.0441 64.0568C84.9115 63.8977 84.707 63.7614 84.4304 63.6477C84.1577 63.5303 83.8092 63.4223 83.385 63.3239L82.1691 63.0398C81.1615 62.8087 80.3679 62.4356 79.7884 61.9205C79.2088 61.4015 78.921 60.7008 78.9248 59.8182C78.921 59.0985 79.1141 58.4678 79.5043 57.9261C79.8945 57.3845 80.4342 56.9621 81.1236 56.6591C81.813 56.3561 82.599 56.2045 83.4816 56.2045C84.3831 56.2045 85.1653 56.358 85.8282 56.6648C86.4948 56.9678 87.0119 57.3939 87.3793 57.9432C87.7467 58.4924 87.9342 59.1288 87.9418 59.8523H85.2486Z" fill="white"/>
</svg>
