<svg width="96" height="96" viewBox="0 0 96 96" fill="none" xmlns="http://www.w3.org/2000/svg">
<rect width="96" height="96" rx="15" fill="#131C73"/>
<path d="M24.4773 54H19.1009V39.4545H24.4702C25.9522 39.4545 27.2282 39.7457 28.2983 40.3281C29.3731 40.9058 30.2017 41.7391 30.7841 42.8281C31.3665 43.9124 31.6577 45.2098 31.6577 46.7202C31.6577 48.2353 31.3665 49.5374 30.7841 50.6264C30.2064 51.7154 29.3802 52.5511 28.3054 53.1335C27.2306 53.7112 25.9545 54 24.4773 54ZM22.6165 51.0028H24.3423C25.1567 51.0028 25.8456 50.8655 26.4091 50.5909C26.9773 50.3116 27.4058 49.8594 27.6946 49.2344C27.9882 48.6046 28.1349 47.7666 28.1349 46.7202C28.1349 45.6738 27.9882 44.8404 27.6946 44.2202C27.401 43.5952 26.9678 43.1454 26.3949 42.8707C25.8267 42.5914 25.1259 42.4517 24.2926 42.4517H22.6165V51.0028ZM33.7102 54V39.4545H43.8523V42.3097H37.2259V45.2926H43.3338V48.1548H37.2259V51.1449H43.8523V54H33.7102ZM46.054 54V39.4545H52.0625C53.1515 39.4545 54.0914 39.6676 54.8821 40.0938C55.6776 40.5152 56.2907 41.1046 56.7216 41.8622C57.1525 42.6151 57.3679 43.491 57.3679 44.4901C57.3679 45.4938 57.1477 46.3722 56.7074 47.125C56.2718 47.8731 55.6491 48.4531 54.8395 48.8651C54.0298 49.277 53.0687 49.483 51.956 49.483H48.2486V46.7131H51.3026C51.8329 46.7131 52.2756 46.6207 52.6307 46.4361C52.9905 46.2514 53.2628 45.9934 53.4474 45.6619C53.6321 45.3258 53.7244 44.9351 53.7244 44.4901C53.7244 44.0402 53.6321 43.652 53.4474 43.3253C53.2628 42.9938 52.9905 42.7382 52.6307 42.5582C52.2708 42.3783 51.8281 42.2884 51.3026 42.2884H49.5696V54H46.054ZM62.6165 39.4545V54H59.1009V39.4545H62.6165ZM72.6857 43.8153C72.6384 43.2945 72.4277 42.8897 72.0536 42.6009C71.6843 42.3073 71.1564 42.1605 70.4698 42.1605C70.0153 42.1605 69.6365 42.2197 69.3335 42.3381C69.0304 42.4564 68.8031 42.6198 68.6516 42.8281C68.5001 43.0317 68.422 43.2661 68.4173 43.5312C68.4078 43.7491 68.4504 43.9408 68.5451 44.1065C68.6445 44.2723 68.7866 44.419 68.9712 44.5469C69.1606 44.67 69.3879 44.7789 69.6531 44.8736C69.9182 44.9683 70.2165 45.0511 70.5479 45.1222L71.7979 45.4062C72.5176 45.5625 73.1521 45.7708 73.7013 46.0312C74.2553 46.2917 74.7193 46.6018 75.0934 46.9616C75.4722 47.3215 75.7586 47.7358 75.9528 48.2045C76.1469 48.6733 76.2463 49.1989 76.2511 49.7812C76.2463 50.6998 76.0143 51.4882 75.555 52.1463C75.0958 52.8045 74.4353 53.3087 73.5735 53.6591C72.7165 54.0095 71.6819 54.1847 70.4698 54.1847C69.253 54.1847 68.1924 54.0024 67.288 53.6378C66.3836 53.2732 65.6805 52.7192 65.1786 51.9759C64.6767 51.2325 64.4187 50.2926 64.4045 49.1562H67.771C67.7994 49.625 67.9248 50.0156 68.1474 50.3281C68.3699 50.6406 68.6753 50.8774 69.0636 51.0384C69.4566 51.1993 69.9111 51.2798 70.4272 51.2798C70.9007 51.2798 71.3031 51.2159 71.6346 51.0881C71.9708 50.9602 72.2288 50.7827 72.4087 50.5554C72.5887 50.3281 72.681 50.0677 72.6857 49.7741C72.681 49.4995 72.5958 49.2652 72.43 49.071C72.2643 48.8722 72.0086 48.7017 71.663 48.5597C71.3221 48.4129 70.8865 48.2779 70.3562 48.1548L68.8363 47.7997C67.5768 47.5109 66.5849 47.0445 65.8604 46.4006C65.136 45.7519 64.7762 44.8759 64.7809 43.7727C64.7762 42.8731 65.0176 42.0848 65.5053 41.4077C65.993 40.7306 66.6677 40.2027 67.5295 39.8239C68.3912 39.4451 69.3737 39.2557 70.4769 39.2557C71.6038 39.2557 72.5816 39.4474 73.4102 39.831C74.2435 40.2098 74.8898 40.7424 75.3491 41.429C75.8084 42.1155 76.0427 42.911 76.0522 43.8153H72.6857Z" fill="white"/>
</svg>
