<svg width="96" height="96" viewBox="0 0 96 96" fill="none" xmlns="http://www.w3.org/2000/svg">
<rect width="96" height="96" rx="15" fill="#131C73"/>
<path d="M13.4773 54H8.10085V39.4545H13.4702C14.9522 39.4545 16.2282 39.7457 17.2983 40.3281C18.3731 40.9058 19.2017 41.7391 19.7841 42.8281C20.3665 43.9124 20.6577 45.2098 20.6577 46.7202C20.6577 48.2353 20.3665 49.5374 19.7841 50.6264C19.2064 51.7154 18.3802 52.5511 17.3054 53.1335C16.2306 53.7112 14.9545 54 13.4773 54ZM11.6165 51.0028H13.3423C14.1567 51.0028 14.8456 50.8655 15.4091 50.5909C15.9773 50.3116 16.4058 49.8594 16.6946 49.2344C16.9882 48.6046 17.1349 47.7666 17.1349 46.7202C17.1349 45.6738 16.9882 44.8404 16.6946 44.2202C16.401 43.5952 15.9678 43.1454 15.3949 42.8707C14.8267 42.5914 14.1259 42.4517 13.2926 42.4517H11.6165V51.0028ZM22.7102 54V39.4545H32.8523V42.3097H26.2259V45.2926H32.3338V48.1548H26.2259V51.1449H32.8523V54H22.7102ZM35.054 54V39.4545H41.0625C42.1515 39.4545 43.0914 39.6676 43.8821 40.0938C44.6776 40.5152 45.2907 41.1046 45.7216 41.8622C46.1525 42.6151 46.3679 43.491 46.3679 44.4901C46.3679 45.4938 46.1477 46.3722 45.7074 47.125C45.2718 47.8731 44.6491 48.4531 43.8395 48.8651C43.0298 49.277 42.0687 49.483 40.956 49.483H37.2486V46.7131H40.3026C40.8329 46.7131 41.2756 46.6207 41.6307 46.4361C41.9905 46.2514 42.2628 45.9934 42.4474 45.6619C42.6321 45.3258 42.7244 44.9351 42.7244 44.4901C42.7244 44.0402 42.6321 43.652 42.4474 43.3253C42.2628 42.9938 41.9905 42.7382 41.6307 42.5582C41.2708 42.3783 40.8281 42.2884 40.3026 42.2884H38.5696V54H35.054ZM51.6165 39.4545V54H48.1009V39.4545H51.6165ZM61.6857 43.8153C61.6384 43.2945 61.4277 42.8897 61.0536 42.6009C60.6843 42.3073 60.1564 42.1605 59.4698 42.1605C59.0153 42.1605 58.6365 42.2197 58.3335 42.3381C58.0304 42.4564 57.8031 42.6198 57.6516 42.8281C57.5001 43.0317 57.422 43.2661 57.4173 43.5312C57.4078 43.7491 57.4504 43.9408 57.5451 44.1065C57.6445 44.2723 57.7866 44.419 57.9712 44.5469C58.1606 44.67 58.3879 44.7789 58.6531 44.8736C58.9182 44.9683 59.2165 45.0511 59.5479 45.1222L60.7979 45.4062C61.5176 45.5625 62.1521 45.7708 62.7013 46.0312C63.2553 46.2917 63.7193 46.6018 64.0934 46.9616C64.4722 47.3215 64.7586 47.7358 64.9528 48.2045C65.1469 48.6733 65.2463 49.1989 65.2511 49.7812C65.2463 50.6998 65.0143 51.4882 64.555 52.1463C64.0958 52.8045 63.4353 53.3087 62.5735 53.6591C61.7165 54.0095 60.6819 54.1847 59.4698 54.1847C58.253 54.1847 57.1924 54.0024 56.288 53.6378C55.3836 53.2732 54.6805 52.7192 54.1786 51.9759C53.6767 51.2325 53.4187 50.2926 53.4045 49.1562H56.771C56.7994 49.625 56.9248 50.0156 57.1474 50.3281C57.3699 50.6406 57.6753 50.8774 58.0636 51.0384C58.4566 51.1993 58.9111 51.2798 59.4272 51.2798C59.9007 51.2798 60.3031 51.2159 60.6346 51.0881C60.9708 50.9602 61.2288 50.7827 61.4087 50.5554C61.5887 50.3281 61.681 50.0677 61.6857 49.7741C61.681 49.4995 61.5958 49.2652 61.43 49.071C61.2643 48.8722 61.0086 48.7017 60.663 48.5597C60.3221 48.4129 59.8865 48.2779 59.3562 48.1548L57.8363 47.7997C56.5768 47.5109 55.5849 47.0445 54.8604 46.4006C54.136 45.7519 53.7762 44.8759 53.7809 43.7727C53.7762 42.8731 54.0176 42.0848 54.5053 41.4077C54.993 40.7306 55.6677 40.2027 56.5295 39.8239C57.3912 39.4451 58.3737 39.2557 59.4769 39.2557C60.6038 39.2557 61.5816 39.4474 62.4102 39.831C63.2435 40.2098 63.8898 40.7424 64.3491 41.429C64.8084 42.1155 65.0427 42.911 65.0522 43.8153H61.6857ZM70.5138 54L66.2809 39.4545H70.1658L72.3604 48.9858H72.4812L74.9883 39.4545H78.1559L80.663 49.0071H80.7837L82.9854 39.4545H86.8633L82.6374 54H79.2496L76.6289 45.179H76.5153L73.8945 54H70.5138Z" fill="white"/>
</svg>
