<svg width="96" height="96" viewBox="0 0 96 96" fill="none" xmlns="http://www.w3.org/2000/svg">
<rect x="5.34058e-05" y="0.000488281" width="96" height="96" rx="15" fill="#131C73"/>
<path d="M13.4773 54.0001H8.10085V39.4547H13.4702C14.9522 39.4547 16.2282 39.7459 17.2983 40.3282C18.3731 40.9059 19.2017 41.7392 19.7841 42.8282C20.3665 43.9125 20.6577 45.2099 20.6577 46.7203C20.6577 48.2354 20.3665 49.5375 19.7841 50.6265C19.2064 51.7156 18.3802 52.5513 17.3054 53.1336C16.2306 53.7113 14.9545 54.0001 13.4773 54.0001ZM11.6165 51.003H13.3423C14.1567 51.003 14.8456 50.8657 15.4091 50.591C15.9773 50.3117 16.4058 49.8595 16.6946 49.2345C16.9882 48.6048 17.1349 47.7667 17.1349 46.7203C17.1349 45.6739 16.9882 44.8406 16.6946 44.2203C16.401 43.5953 15.9678 43.1455 15.3949 42.8709C14.8267 42.5915 14.1259 42.4518 13.2926 42.4518H11.6165V51.003ZM22.7102 54.0001V39.4547H32.8523V42.3098H26.2259V45.2927H32.3338V48.155H26.2259V51.145H32.8523V54.0001H22.7102ZM35.054 54.0001V39.4547H41.0625C42.1515 39.4547 43.0914 39.6677 43.8821 40.0939C44.6776 40.5153 45.2907 41.1048 45.7216 41.8623C46.1525 42.6152 46.3679 43.4911 46.3679 44.4902C46.3679 45.494 46.1477 46.3723 45.7074 47.1251C45.2718 47.8732 44.6491 48.4532 43.8395 48.8652C43.0298 49.2771 42.0687 49.4831 40.956 49.4831H37.2486V46.7132H40.3026C40.8329 46.7132 41.2756 46.6209 41.6307 46.4362C41.9905 46.2515 42.2628 45.9935 42.4474 45.6621C42.6321 45.3259 42.7244 44.9353 42.7244 44.4902C42.7244 44.0404 42.6321 43.6521 42.4474 43.3254C42.2628 42.994 41.9905 42.7383 41.6307 42.5584C41.2708 42.3784 40.8281 42.2885 40.3026 42.2885H38.5696V54.0001H35.054ZM51.6165 39.4547V54.0001H48.1009V39.4547H51.6165ZM61.6857 43.8155C61.6384 43.2946 61.4277 42.8898 61.0536 42.601C60.6843 42.3074 60.1564 42.1606 59.4698 42.1606C59.0153 42.1606 58.6365 42.2198 58.3335 42.3382C58.0304 42.4566 57.8031 42.6199 57.6516 42.8282C57.5001 43.0318 57.422 43.2662 57.4173 43.5314C57.4078 43.7492 57.4504 43.9409 57.5451 44.1067C57.6445 44.2724 57.7866 44.4192 57.9712 44.547C58.1606 44.6701 58.3879 44.779 58.6531 44.8737C58.9182 44.9684 59.2165 45.0513 59.5479 45.1223L60.7979 45.4064C61.5176 45.5626 62.1521 45.771 62.7013 46.0314C63.2553 46.2918 63.7193 46.6019 64.0934 46.9618C64.4722 47.3216 64.7586 47.7359 64.9528 48.2047C65.1469 48.6734 65.2463 49.199 65.2511 49.7814C65.2463 50.6999 65.0143 51.4883 64.555 52.1464C64.0958 52.8046 63.4353 53.3088 62.5735 53.6592C61.7165 54.0096 60.6819 54.1848 59.4698 54.1848C58.253 54.1848 57.1924 54.0025 56.288 53.6379C55.3836 53.2733 54.6805 52.7193 54.1786 51.976C53.6767 51.2326 53.4187 50.2927 53.4045 49.1564H56.771C56.7994 49.6251 56.9248 50.0157 57.1474 50.3282C57.3699 50.6407 57.6753 50.8775 58.0636 51.0385C58.4566 51.1995 58.9111 51.28 59.4272 51.28C59.9007 51.28 60.3031 51.216 60.6346 51.0882C60.9708 50.9603 61.2288 50.7828 61.4087 50.5555C61.5887 50.3282 61.681 50.0678 61.6857 49.7743C61.681 49.4996 61.5958 49.2653 61.43 49.0711C61.2643 48.8723 61.0086 48.7018 60.663 48.5598C60.3221 48.413 59.8865 48.2781 59.3562 48.155L57.8363 47.7998C56.5768 47.511 55.5849 47.0446 54.8604 46.4007C54.136 45.752 53.7762 44.8761 53.7809 43.7728C53.7762 42.8732 54.0176 42.0849 54.5053 41.4078C54.993 40.7307 55.6677 40.2028 56.5295 39.824C57.3912 39.4452 58.3737 39.2558 59.4769 39.2558C60.6038 39.2558 61.5816 39.4476 62.4102 39.8311C63.2435 40.2099 63.8898 40.7425 64.3491 41.4291C64.8084 42.1157 65.0427 42.9111 65.0522 43.8155H61.6857ZM70.5138 54.0001L66.2809 39.4547H70.1658L72.3604 48.9859H72.4812L74.9883 39.4547H78.1559L80.663 49.0072H80.7837L82.9854 39.4547H86.8633L82.6374 54.0001H79.2496L76.6289 45.1791H76.5153L73.8945 54.0001H70.5138Z" fill="white"/>
</svg>
