<svg width="96" height="96" viewBox="0 0 96 96" fill="none" xmlns="http://www.w3.org/2000/svg">
<rect x="6.10352e-05" y="0.000488281" width="96" height="96" rx="15" fill="#131C73"/>
<path d="M24.4773 54.0001H19.1009V39.4547H24.4702C25.9522 39.4547 27.2283 39.7459 28.2983 40.3282C29.3732 40.9059 30.2018 41.7392 30.7841 42.8282C31.3665 43.9125 31.6577 45.2099 31.6577 46.7203C31.6577 48.2354 31.3665 49.5375 30.7841 50.6265C30.2065 51.7156 29.3803 52.5513 28.3054 53.1336C27.2306 53.7113 25.9546 54.0001 24.4773 54.0001ZM22.6165 51.003H24.3424C25.1568 51.003 25.8457 50.8657 26.4091 50.591C26.9773 50.3117 27.4058 49.8595 27.6946 49.2345C27.9882 48.6048 28.135 47.7667 28.135 46.7203C28.135 45.6739 27.9882 44.8406 27.6946 44.2203C27.4011 43.5953 26.9678 43.1455 26.3949 42.8709C25.8268 42.5915 25.126 42.4518 24.2927 42.4518H22.6165V51.003ZM33.7103 54.0001V39.4547H43.8523V42.3098H37.2259V45.2927H43.3339V48.155H37.2259V51.145H43.8523V54.0001H33.7103ZM46.054 54.0001V39.4547H52.0625C53.1516 39.4547 54.0914 39.6677 54.8821 40.0939C55.6776 40.5153 56.2908 41.1048 56.7216 41.8623C57.1525 42.6152 57.3679 43.4911 57.3679 44.4902C57.3679 45.494 57.1478 46.3723 56.7074 47.1251C56.2718 47.8732 55.6492 48.4532 54.8395 48.8652C54.0299 49.2771 53.0687 49.4831 51.956 49.4831H48.2486V46.7132H51.3026C51.8329 46.7132 52.2756 46.6209 52.6307 46.4362C52.9906 46.2515 53.2628 45.9935 53.4475 45.6621C53.6321 45.3259 53.7245 44.9353 53.7245 44.4902C53.7245 44.0404 53.6321 43.6521 53.4475 43.3254C53.2628 42.994 52.9906 42.7383 52.6307 42.5584C52.2709 42.3784 51.8282 42.2885 51.3026 42.2885H49.5696V54.0001H46.054ZM62.6165 39.4547V54.0001H59.1009V39.4547H62.6165ZM72.6858 43.8155C72.6384 43.2946 72.4277 42.8898 72.0537 42.601C71.6843 42.3074 71.1564 42.1606 70.4699 42.1606C70.0153 42.1606 69.6365 42.2198 69.3335 42.3382C69.0305 42.4566 68.8032 42.6199 68.6517 42.8282C68.5002 43.0318 68.422 43.2662 68.4173 43.5314C68.4078 43.7492 68.4504 43.9409 68.5451 44.1067C68.6446 44.2724 68.7866 44.4192 68.9713 44.547C69.1607 44.6701 69.3879 44.779 69.6531 44.8737C69.9183 44.9684 70.2165 45.0513 70.548 45.1223L71.798 45.4064C72.5177 45.5626 73.1522 45.771 73.7014 46.0314C74.2554 46.2918 74.7194 46.6019 75.0934 46.9618C75.4722 47.3216 75.7587 47.7359 75.9528 48.2047C76.1469 48.6734 76.2464 49.199 76.2511 49.7814C76.2464 50.6999 76.0144 51.4883 75.5551 52.1464C75.0958 52.8046 74.4353 53.3088 73.5736 53.6592C72.7165 54.0096 71.682 54.1848 70.4699 54.1848C69.253 54.1848 68.1924 54.0025 67.288 53.6379C66.3837 53.2733 65.6806 52.7193 65.1787 51.976C64.6768 51.2326 64.4187 50.2927 64.4045 49.1564H67.771C67.7994 49.6251 67.9249 50.0157 68.1474 50.3282C68.37 50.6407 68.6754 50.8775 69.0636 51.0385C69.4566 51.1995 69.9111 51.28 70.4272 51.28C70.9007 51.28 71.3032 51.216 71.6346 51.0882C71.9708 50.9603 72.2289 50.7828 72.4088 50.5555C72.5887 50.3282 72.681 50.0678 72.6858 49.7743C72.681 49.4996 72.5958 49.2653 72.4301 49.0711C72.2644 48.8723 72.0087 48.7018 71.663 48.5598C71.3221 48.413 70.8865 48.2781 70.3562 48.155L68.8363 47.7998C67.5769 47.511 66.5849 47.0446 65.8605 46.4007C65.1361 45.752 64.7762 44.8761 64.7809 43.7728C64.7762 42.8732 65.0177 42.0849 65.5054 41.4078C65.9931 40.7307 66.6678 40.2028 67.5295 39.824C68.3913 39.4452 69.3737 39.2558 70.477 39.2558C71.6039 39.2558 72.5816 39.4476 73.4102 39.8311C74.2435 40.2099 74.8898 40.7425 75.3491 41.4291C75.8084 42.1157 76.0428 42.9111 76.0522 43.8155H72.6858Z" fill="white"/>
</svg>
