<svg width="96" height="96" viewBox="0 0 96 96" fill="none" xmlns="http://www.w3.org/2000/svg">
<rect width="96" height="96" rx="15" fill="#131C73"/>
<path d="M28.0966 57H21.3761V38.8182H28.0877C29.9402 38.8182 31.5353 39.1822 32.8729 39.9102C34.2164 40.6322 35.2521 41.6739 35.9801 43.0352C36.7081 44.3905 37.0721 46.0122 37.0721 47.9002C37.0721 49.7942 36.7081 51.4218 35.9801 52.783C35.258 54.1443 34.2253 55.1889 32.8817 55.9169C31.5382 56.639 29.9432 57 28.0966 57ZM25.7706 53.2536H27.9279C28.9459 53.2536 29.8071 53.0819 30.5114 52.7386C31.2216 52.3894 31.7572 51.8242 32.1183 51.043C32.4852 50.2558 32.6687 49.2082 32.6687 47.9002C32.6687 46.5922 32.4852 45.5505 32.1183 44.7752C31.7513 43.994 31.2098 43.4317 30.4936 43.0884C29.7834 42.7392 28.9074 42.5646 27.8658 42.5646H25.7706V53.2536ZM51.5696 44.7575C51.469 44.3846 51.321 44.0561 51.1257 43.772C50.9304 43.482 50.6907 43.2364 50.4066 43.0352C50.1225 42.8339 49.797 42.683 49.43 42.5824C49.0631 42.4759 48.6606 42.4226 48.2227 42.4226C47.3408 42.4226 46.5773 42.6357 45.9322 43.0618C45.293 43.4879 44.7988 44.1094 44.4496 44.9261C44.1004 45.737 43.9258 46.7224 43.9258 47.8825C43.9258 49.0484 44.0945 50.0427 44.4318 50.8654C44.7692 51.6881 45.2575 52.3155 45.8967 52.7475C46.5359 53.1796 47.3112 53.3956 48.2227 53.3956C49.0276 53.3956 49.7082 53.2654 50.2646 53.005C50.8268 52.7386 51.253 52.3628 51.543 51.8775C51.833 51.3922 51.978 50.821 51.978 50.1641L52.7947 50.2617H48.3736V47.0568H56.2127V49.4627C56.2127 51.0903 55.8665 52.4841 55.174 53.6442C54.4875 54.8042 53.5405 55.695 52.3331 56.3164C51.1316 56.9379 49.7496 57.2486 48.1871 57.2486C46.453 57.2486 44.929 56.8728 43.6151 56.1211C42.3011 55.3694 41.2772 54.2982 40.5433 52.9073C39.8094 51.5105 39.4425 49.8533 39.4425 47.9357C39.4425 46.4442 39.6644 45.1214 40.1083 43.9673C40.5522 42.8073 41.1707 41.8248 41.9638 41.0199C42.7628 40.215 43.6861 39.6054 44.7337 39.1911C45.7872 38.7768 46.9206 38.5696 48.1339 38.5696C49.1874 38.5696 50.1669 38.7205 51.0724 39.0224C51.9839 39.3242 52.7888 39.7504 53.4872 40.3008C54.1915 40.8512 54.7627 41.5052 55.2006 42.2628C55.6386 43.0204 55.9109 43.8519 56.0174 44.7575H51.5696ZM62.1742 57H57.4512L63.5858 38.8182H69.4363L75.5708 57H70.8478L66.5776 43.3991H66.4355L62.1742 57ZM61.5439 49.8445H71.416V53.1825H61.5439V49.8445Z" fill="white"/>
</svg>
