<svg width="96" height="96" viewBox="0 0 96 96" fill="none" xmlns="http://www.w3.org/2000/svg">
<rect y="0.000488281" width="96" height="96" rx="15" fill="#131C73"/>
<path d="M28.0966 57.0004H21.3761V38.8185H28.0877C29.9402 38.8185 31.5353 39.1825 32.8729 39.9105C34.2164 40.6326 35.2521 41.6743 35.9801 43.0355C36.7081 44.3909 37.0721 46.0126 37.0721 47.9006C37.0721 49.7945 36.7081 51.4221 35.9801 52.7834C35.2581 54.1447 34.2253 55.1893 32.8818 55.9173C31.5382 56.6393 29.9432 57.0004 28.0966 57.0004ZM25.7706 53.2539H27.9279C28.9459 53.2539 29.8071 53.0823 30.5114 52.739C31.2216 52.3898 31.7572 51.8246 32.1183 51.0433C32.4852 50.2562 32.6687 49.2086 32.6687 47.9006C32.6687 46.5926 32.4852 45.5509 32.1183 44.7756C31.7513 43.9943 31.2098 43.4321 30.4936 43.0888C29.7834 42.7396 28.9074 42.565 27.8658 42.565H25.7706V53.2539ZM51.5696 44.7578C51.469 44.385 51.321 44.0565 51.1257 43.7724C50.9304 43.4824 50.6907 43.2368 50.4066 43.0355C50.1225 42.8343 49.797 42.6834 49.4301 42.5828C49.0631 42.4762 48.6606 42.423 48.2227 42.423C47.3408 42.423 46.5773 42.636 45.9322 43.0622C45.293 43.4883 44.7988 44.1097 44.4496 44.9265C44.1004 45.7373 43.9258 46.7228 43.9258 47.8828C43.9258 49.0488 44.0945 50.0431 44.4318 50.8658C44.7692 51.6885 45.2575 52.3158 45.8967 52.7479C46.5359 53.1799 47.3112 53.396 48.2227 53.396C49.0276 53.396 49.7082 53.2658 50.2646 53.0053C50.8268 52.739 51.253 52.3632 51.543 51.8779C51.833 51.3925 51.978 50.8214 51.978 50.1644L52.7948 50.2621H48.3736V47.0572H56.2127V49.4631C56.2127 51.0907 55.8665 52.4845 55.174 53.6445C54.4875 54.8046 53.5405 55.6953 52.3331 56.3168C51.1316 56.9382 49.7497 57.2489 48.1872 57.2489C46.453 57.2489 44.929 56.8731 43.6151 56.1215C42.3012 55.3698 41.2772 54.2985 40.5433 52.9077C39.8094 51.5109 39.4425 49.8537 39.4425 47.9361C39.4425 46.4446 39.6644 45.1218 40.1083 43.9677C40.5522 42.8077 41.1707 41.8252 41.9638 41.0203C42.7628 40.2153 43.6861 39.6057 44.7337 39.1914C45.7872 38.7771 46.9206 38.57 48.1339 38.57C49.1874 38.57 50.1669 38.7209 51.0725 39.0227C51.9839 39.3246 52.7888 39.7507 53.4872 40.3011C54.1915 40.8516 54.7627 41.5056 55.2007 42.2632C55.6386 43.0207 55.9109 43.8523 56.0174 44.7578H51.5696ZM62.1742 57.0004H57.4512L63.5858 38.8185H69.4363L75.5709 57.0004H70.8478L66.5776 43.3995H66.4356L62.1742 57.0004ZM61.5439 49.8448H71.416V53.1829H61.5439V49.8448Z" fill="white"/>
</svg>
