<svg width="97" height="96" viewBox="0 0 97 96" fill="none" xmlns="http://www.w3.org/2000/svg">
<rect width="96" height="96" rx="15" fill="#131C73"/>
<path d="M9.96977 45H5.93746V34.0909H9.96444C11.0759 34.0909 12.033 34.3093 12.8355 34.7461C13.6416 35.1793 14.2631 35.8043 14.6999 36.6211C15.1367 37.4343 15.3551 38.4073 15.3551 39.5401C15.3551 40.6765 15.1367 41.6531 14.6999 42.4698C14.2666 43.2866 13.647 43.9134 12.8409 44.3501C12.0348 44.7834 11.0777 45 9.96977 45ZM8.57417 42.7521H9.86856C10.4794 42.7521 10.996 42.6491 11.4186 42.4432C11.8448 42.2337 12.1661 41.8945 12.3828 41.4258C12.6029 40.9535 12.713 40.3249 12.713 39.5401C12.713 38.7553 12.6029 38.1303 12.3828 37.6651C12.1626 37.1964 11.8377 36.859 11.408 36.6531C10.9818 36.4435 10.4563 36.3388 9.83128 36.3388H8.57417V42.7521ZM19.5312 34.0909V45H16.8945V34.0909H19.5312ZM21.1865 45V34.0909H25.6929C26.5096 34.0909 27.2145 34.2383 27.8076 34.533C28.4042 34.8242 28.864 35.2433 29.1872 35.7901C29.5103 36.3335 29.6719 36.978 29.6719 37.7237C29.6719 38.4801 29.5068 39.1229 29.1765 39.652C28.8463 40.1776 28.3775 40.5788 27.7703 40.8558C27.163 41.1293 26.4439 41.266 25.613 41.266H22.7632V39.1886H25.1229C25.5206 39.1886 25.8527 39.1371 26.119 39.0341C26.3889 38.9276 26.5931 38.7678 26.7316 38.5547C26.8701 38.3381 26.9393 38.0611 26.9393 37.7237C26.9393 37.3864 26.8701 37.1076 26.7316 36.8874C26.5931 36.6637 26.3889 36.4968 26.119 36.3867C25.8491 36.2731 25.5171 36.2163 25.1229 36.2163H23.8232V45H21.1865ZM27.3282 40.0142L30.0448 45H27.1684L24.505 40.0142H27.3282ZM31.1181 45V34.0909H38.7247V36.2322H33.7548V38.4695H38.3358V40.6161H33.7548V42.8587H38.7247V45H31.1181ZM50.2783 38.0433H47.6149C47.5794 37.7699 47.5066 37.5231 47.3965 37.3029C47.2864 37.0827 47.1408 36.8945 46.9597 36.7383C46.7786 36.582 46.5638 36.4631 46.3152 36.3814C46.0702 36.2962 45.7985 36.2536 45.5002 36.2536C44.9711 36.2536 44.5148 36.3832 44.1313 36.6424C43.7513 36.9016 43.4583 37.2763 43.2524 37.7663C43.0499 38.2564 42.9487 38.8494 42.9487 39.5455C42.9487 40.2699 43.0517 40.8771 43.2577 41.3672C43.4672 41.8537 43.7602 42.2212 44.1366 42.4698C44.5166 42.7148 44.9658 42.8374 45.4842 42.8374C45.7754 42.8374 46.04 42.8001 46.2779 42.7255C46.5194 42.6509 46.7307 42.5426 46.9118 42.4006C47.0965 42.255 47.2474 42.0792 47.3646 41.8732C47.4853 41.6637 47.5688 41.4276 47.6149 41.1648L50.2783 41.1808C50.2321 41.6637 50.0918 42.1396 49.8575 42.6083C49.6266 43.0771 49.3088 43.505 48.904 43.892C48.4992 44.2756 48.0055 44.581 47.4232 44.8082C46.8443 45.0355 46.1803 45.1491 45.431 45.1491C44.4438 45.1491 43.5595 44.9325 42.7783 44.4993C42.0006 44.0625 41.3862 43.4268 40.9352 42.5923C40.4842 41.7578 40.2587 40.7422 40.2587 39.5455C40.2587 38.3452 40.4878 37.3278 40.9459 36.4933C41.404 35.6587 42.0237 35.0249 42.8049 34.5916C43.5862 34.1584 44.4615 33.9418 45.431 33.9418C46.0915 33.9418 46.7023 34.0341 47.2634 34.2188C47.8244 34.3999 48.318 34.6662 48.7442 35.0178C49.1703 35.3658 49.5166 35.7937 49.7829 36.3015C50.0492 36.8093 50.2144 37.3899 50.2783 38.0433ZM61.6894 38.0433H59.0261C58.9905 37.7699 58.9177 37.5231 58.8077 37.3029C58.6976 37.0827 58.552 36.8945 58.3709 36.7383C58.1898 36.582 57.9749 36.4631 57.7263 36.3814C57.4813 36.2962 57.2097 36.2536 56.9114 36.2536C56.3822 36.2536 55.9259 36.3832 55.5424 36.6424C55.1624 36.9016 54.8695 37.2763 54.6635 37.7663C54.4611 38.2564 54.3599 38.8494 54.3599 39.5455C54.3599 40.2699 54.4628 40.8771 54.6688 41.3672C54.8783 41.8537 55.1713 42.2212 55.5477 42.4698C55.9277 42.7148 56.3769 42.8374 56.8954 42.8374C57.1866 42.8374 57.4511 42.8001 57.6891 42.7255C57.9305 42.6509 58.1418 42.5426 58.3229 42.4006C58.5076 42.255 58.6585 42.0792 58.7757 41.8732C58.8964 41.6637 58.9799 41.4276 59.0261 41.1648L61.6894 41.1808C61.6432 41.6637 61.503 42.1396 61.2686 42.6083C61.0378 43.0771 60.7199 43.505 60.3151 43.892C59.9103 44.2756 59.4167 44.581 58.8343 44.8082C58.2555 45.0355 57.5914 45.1491 56.8421 45.1491C55.8549 45.1491 54.9707 44.9325 54.1894 44.4993C53.4117 44.0625 52.7974 43.4268 52.3464 42.5923C51.8954 41.7578 51.6699 40.7422 51.6699 39.5455C51.6699 38.3452 51.8989 37.3278 52.357 36.4933C52.8151 35.6587 53.4348 35.0249 54.216 34.5916C54.9973 34.1584 55.8726 33.9418 56.8421 33.9418C57.5026 33.9418 58.1134 34.0341 58.6745 34.2188C59.2356 34.3999 59.7292 34.6662 60.1553 35.0178C60.5815 35.3658 60.9277 35.7937 61.194 36.3015C61.4604 36.8093 61.6255 37.3899 61.6894 38.0433ZM65.8349 34.0909V45H63.1982V34.0909H65.8349ZM77.7867 39.5455C77.7867 40.7457 77.5559 41.7631 77.0942 42.5977C76.6326 43.4322 76.0076 44.0661 75.2192 44.4993C74.4344 44.9325 73.5538 45.1491 72.5772 45.1491C71.5971 45.1491 70.7146 44.9308 69.9298 44.494C69.145 44.0572 68.5218 43.4233 68.0601 42.5923C67.6021 41.7578 67.373 40.7422 67.373 39.5455C67.373 38.3452 67.6021 37.3278 68.0601 36.4933C68.5218 35.6587 69.145 35.0249 69.9298 34.5916C70.7146 34.1584 71.5971 33.9418 72.5772 33.9418C73.5538 33.9418 74.4344 34.1584 75.2192 34.5916C76.0076 35.0249 76.6326 35.6587 77.0942 36.4933C77.5559 37.3278 77.7867 38.3452 77.7867 39.5455ZM75.0914 39.5455C75.0914 38.8352 74.9902 38.2351 74.7878 37.745C74.5889 37.255 74.3013 36.8839 73.9248 36.6317C73.552 36.3796 73.1028 36.2536 72.5772 36.2536C72.0552 36.2536 71.606 36.3796 71.2295 36.6317C70.8531 36.8839 70.5637 37.255 70.3613 37.745C70.1624 38.2351 70.063 38.8352 70.063 39.5455C70.063 40.2557 70.1624 40.8558 70.3613 41.3459C70.5637 41.8359 70.8531 42.207 71.2295 42.4592C71.606 42.7113 72.0552 42.8374 72.5772 42.8374C73.1028 42.8374 73.552 42.7113 73.9248 42.4592C74.3013 42.207 74.5889 41.8359 74.7878 41.3459C74.9902 40.8558 75.0914 40.2557 75.0914 39.5455ZM71.6823 33.0522L72.7583 30.6499H75.0648L73.4561 33.0522H71.6823ZM88.6106 34.0909V45H86.3734L82.0321 38.7038H81.9628V45H79.3261V34.0909H81.5953L85.8886 40.3764H85.9792V34.0909H88.6106ZM15.8398 63V52.0909H23.4463V54.2322H18.4765V56.4695H23.0575V58.6161H18.4765V60.8587H23.4463V63H15.8398ZM30.9943 55.3615C30.9588 54.9709 30.8007 54.6673 30.5202 54.4506C30.2432 54.2305 29.8473 54.1204 29.3323 54.1204C28.9914 54.1204 28.7073 54.1648 28.4801 54.2536C28.2528 54.3423 28.0823 54.4648 27.9687 54.6211C27.8551 54.7738 27.7965 54.9496 27.7929 55.1484C27.7858 55.3118 27.8178 55.4556 27.8888 55.5799C27.9634 55.7042 28.0699 55.8143 28.2084 55.9102C28.3505 56.0025 28.5209 56.0842 28.7198 56.1552C28.9186 56.2262 29.1424 56.2884 29.3909 56.3416L30.3284 56.5547C30.8682 56.6719 31.3441 56.8281 31.756 57.0234C32.1715 57.2188 32.5195 57.4513 32.8 57.7212C33.0841 57.9911 33.299 58.3018 33.4446 58.6534C33.5902 59.005 33.6647 59.3991 33.6683 59.8359C33.6647 60.5249 33.4907 61.1161 33.1463 61.6097C32.8018 62.1033 32.3064 62.4815 31.6601 62.7443C31.0174 63.0071 30.2414 63.1385 29.3323 63.1385C28.4197 63.1385 27.6242 63.0018 26.946 62.7283C26.2677 62.4549 25.7404 62.0394 25.3639 61.4819C24.9875 60.9244 24.794 60.2195 24.7833 59.3672H27.3082C27.3295 59.7188 27.4236 60.0117 27.5905 60.2461C27.7574 60.4805 27.9865 60.658 28.2777 60.7788C28.5724 60.8995 28.9133 60.9599 29.3004 60.9599C29.6555 60.9599 29.9573 60.9119 30.2059 60.8161C30.4581 60.7202 30.6516 60.587 30.7865 60.4165C30.9215 60.2461 30.9907 60.0508 30.9943 59.8306C30.9907 59.6246 30.9268 59.4489 30.8025 59.3033C30.6782 59.1541 30.4865 59.0263 30.2272 58.9197C29.9715 58.8097 29.6448 58.7085 29.2471 58.6161L28.1072 58.3498C27.1626 58.1332 26.4186 57.7834 25.8753 57.3004C25.332 56.8139 25.0621 56.157 25.0657 55.3295C25.0621 54.6548 25.2432 54.0636 25.609 53.5558C25.9747 53.0479 26.4808 52.652 27.1271 52.3679C27.7734 52.0838 28.5103 51.9418 29.3377 51.9418C30.1828 51.9418 30.9161 52.0856 31.5376 52.3732C32.1626 52.6573 32.6473 53.0568 32.9918 53.5717C33.3362 54.0866 33.512 54.6832 33.5191 55.3615H30.9943ZM44.9023 56.0433H42.2389C42.2034 55.7699 42.1306 55.5231 42.0206 55.3029C41.9105 55.0827 41.7649 54.8945 41.5838 54.7383C41.4027 54.582 41.1878 54.4631 40.9392 54.3814C40.6942 54.2962 40.4225 54.2536 40.1242 54.2536C39.5951 54.2536 39.1388 54.3832 38.7553 54.6424C38.3753 54.9016 38.0823 55.2763 37.8764 55.7663C37.674 56.2564 37.5728 56.8494 37.5728 57.5455C37.5728 58.2699 37.6757 58.8771 37.8817 59.3672C38.0912 59.8537 38.3842 60.2212 38.7606 60.4698C39.1406 60.7148 39.5898 60.8374 40.1083 60.8374C40.3995 60.8374 40.664 60.8001 40.9019 60.7255C41.1434 60.6509 41.3547 60.5426 41.5358 60.4006C41.7205 60.255 41.8714 60.0792 41.9886 59.8732C42.1093 59.6637 42.1928 59.4276 42.2389 59.1648L44.9023 59.1808C44.8561 59.6637 44.7159 60.1396 44.4815 60.6083C44.2507 61.0771 43.9328 61.505 43.528 61.892C43.1232 62.2756 42.6296 62.581 42.0472 62.8082C41.4684 63.0355 40.8043 63.1491 40.055 63.1491C39.0678 63.1491 38.1835 62.9325 37.4023 62.4993C36.6246 62.0625 36.0103 61.4268 35.5593 60.5923C35.1083 59.7578 34.8828 58.7422 34.8828 57.5455C34.8828 56.3452 35.1118 55.3278 35.5699 54.4933C36.028 53.6587 36.6477 53.0249 37.4289 52.5916C38.2102 52.1584 39.0855 51.9418 40.055 51.9418C40.7155 51.9418 41.3263 52.0341 41.8874 52.2188C42.4485 52.3999 42.9421 52.6662 43.3682 53.0178C43.7943 53.3658 44.1406 53.7937 44.4069 54.3015C44.6733 54.8093 44.8384 55.3899 44.9023 56.0433ZM53.0109 52.0909H55.6423V59.1275C55.6423 59.9407 55.4487 60.6491 55.0617 61.2528C54.6746 61.853 54.1348 62.3182 53.4423 62.6484C52.7499 62.9751 51.9455 63.1385 51.0293 63.1385C50.1025 63.1385 49.2928 62.9751 48.6004 62.6484C47.9079 62.3182 47.3699 61.853 46.9864 61.2528C46.6028 60.6491 46.4111 59.9407 46.4111 59.1275V52.0909H49.0478V58.8984C49.0478 59.2749 49.1295 59.6104 49.2928 59.9052C49.4597 60.1999 49.6923 60.4308 49.9906 60.5977C50.2889 60.7646 50.6352 60.848 51.0293 60.848C51.4235 60.848 51.768 60.7646 52.0627 60.5977C52.361 60.4308 52.5936 60.1999 52.7605 59.9052C52.9274 59.6104 53.0109 59.2749 53.0109 58.8984V52.0909ZM57.2949 63V52.0909H64.9014V54.2322H59.9316V56.4695H64.5126V58.6161H59.9316V60.8587H64.9014V63H57.2949ZM66.5527 63V52.0909H69.1894V60.8587H73.7278V63H66.5527ZM77.5989 63H74.7651L78.4459 52.0909H81.9562L85.6369 63H82.8031L80.241 54.8395H80.1558L77.5989 63ZM77.2207 58.7067H83.144V60.7095H77.2207V58.7067Z" fill="white"/>
</svg>
