<svg width="97" height="96" viewBox="0 0 97 96" fill="none" xmlns="http://www.w3.org/2000/svg">
<rect y="0.000488281" width="96" height="96" rx="15" fill="#131C73"/>
<path d="M12.6718 51H8.90829V40.8182H12.6668C13.7042 40.8182 14.5974 41.022 15.3465 41.4297C16.0989 41.834 16.6789 42.4174 17.0866 43.1797C17.4942 43.9387 17.6981 44.8468 17.6981 45.9041C17.6981 46.9647 17.4942 47.8762 17.0866 48.6385C16.6822 49.4008 16.1038 49.9858 15.3515 50.3935C14.5991 50.7978 13.7059 51 12.6718 51ZM11.3692 48.902H12.5773C13.1474 48.902 13.6296 48.8059 14.0241 48.6136C14.4218 48.4181 14.7217 48.1016 14.9239 47.6641C15.1294 47.2232 15.2322 46.6366 15.2322 45.9041C15.2322 45.1716 15.1294 44.5883 14.9239 44.1541C14.7184 43.7166 14.4152 43.4018 14.0141 43.2095C13.6164 43.014 13.1259 42.9162 12.5425 42.9162H11.3692V48.902ZM21.5958 40.8182V51H19.1349V40.8182H21.5958ZM23.1407 51V40.8182H27.3467C28.109 40.8182 28.7669 40.9557 29.3204 41.2308C29.8772 41.5026 30.3064 41.8937 30.608 42.4041C30.9097 42.9112 31.0605 43.5128 31.0605 44.2088C31.0605 44.9148 30.9063 45.5147 30.5981 46.0085C30.2899 46.4991 29.8524 46.8736 29.2856 47.1321C28.7188 47.3873 28.0477 47.5149 27.2721 47.5149H24.6123V45.576H26.8147C27.1859 45.576 27.4958 45.5279 27.7444 45.4318C27.9963 45.3324 28.1869 45.1832 28.3161 44.9844C28.4454 44.7822 28.51 44.5237 28.51 44.2088C28.51 43.8939 28.4454 43.6338 28.3161 43.4283C28.1869 43.2195 27.9963 43.0637 27.7444 42.9609C27.4925 42.8549 27.1826 42.8018 26.8147 42.8018H25.6017V51H23.1407ZM28.873 46.3466L31.4085 51H28.7238L26.238 46.3466H28.873ZM32.4102 51V40.8182H39.5097V42.8168H34.8712V44.9048H39.1468V46.9084H34.8712V49.0014H39.5097V51H32.4102ZM50.2931 44.5071H47.8073C47.7741 44.2519 47.7062 44.0215 47.6034 43.8161C47.5007 43.6106 47.3648 43.4349 47.1958 43.2891C47.0267 43.1432 46.8262 43.0322 46.5942 42.956C46.3655 42.8764 46.1119 42.8366 45.8335 42.8366C45.3397 42.8366 44.9138 42.9576 44.5558 43.1996C44.2012 43.4415 43.9278 43.7912 43.7355 44.2486C43.5466 44.706 43.4521 45.2595 43.4521 45.9091C43.4521 46.5852 43.5483 47.152 43.7405 47.6094C43.9361 48.0634 44.2095 48.4065 44.5608 48.6385C44.9155 48.8672 45.3347 48.9815 45.8186 48.9815C46.0904 48.9815 46.3373 48.9467 46.5594 48.8771C46.7848 48.8075 46.982 48.7064 47.151 48.5739C47.3234 48.438 47.4642 48.2739 47.5736 48.0817C47.6863 47.8861 47.7642 47.6657 47.8073 47.4205L50.2931 47.4354C50.25 47.8861 50.1191 48.3303 49.9003 48.7678C49.6849 49.2053 49.3882 49.6046 49.0104 49.9659C48.6325 50.3239 48.1718 50.6089 47.6283 50.821C47.088 51.0331 46.4682 51.1392 45.7689 51.1392C44.8475 51.1392 44.0222 50.937 43.2931 50.5327C42.5672 50.125 41.9938 49.5317 41.5729 48.7528C41.152 47.974 40.9415 47.026 40.9415 45.9091C40.9415 44.7888 41.1553 43.8393 41.5828 43.0604C42.0104 42.2815 42.5887 41.6899 43.3179 41.2855C44.0471 40.8812 44.8641 40.679 45.7689 40.679C46.3854 40.679 46.9555 40.7652 47.4791 40.9375C48.0028 41.1065 48.4635 41.3551 48.8612 41.6832C49.259 42.008 49.5821 42.4074 49.8307 42.8814C50.0793 43.3554 50.2334 43.8973 50.2931 44.5071ZM60.9434 44.5071H58.4577C58.4245 44.2519 58.3566 44.0215 58.2538 43.8161C58.1511 43.6106 58.0152 43.4349 57.8461 43.2891C57.6771 43.1432 57.4766 43.0322 57.2446 42.956C57.0159 42.8764 56.7623 42.8366 56.4839 42.8366C55.9901 42.8366 55.5642 42.9576 55.2062 43.1996C54.8516 43.4415 54.5782 43.7912 54.3859 44.2486C54.197 44.706 54.1025 45.2595 54.1025 45.9091C54.1025 46.5852 54.1987 47.152 54.3909 47.6094C54.5864 48.0634 54.8599 48.4065 55.2112 48.6385C55.5658 48.8672 55.9851 48.9815 56.469 48.9815C56.7408 48.9815 56.9877 48.9467 57.2098 48.8771C57.4352 48.8075 57.6324 48.7064 57.8014 48.5739C57.9738 48.438 58.1146 48.2739 58.224 48.0817C58.3367 47.8861 58.4146 47.6657 58.4577 47.4205L60.9434 47.4354C60.9004 47.8861 60.7694 48.3303 60.5507 48.7678C60.3353 49.2053 60.0386 49.6046 59.6608 49.9659C59.2829 50.3239 58.8222 50.6089 58.2787 50.821C57.7384 51.0331 57.1186 51.1392 56.4193 51.1392C55.4979 51.1392 54.6726 50.937 53.9434 50.5327C53.2176 50.125 52.6442 49.5317 52.2233 48.7528C51.8023 47.974 51.5919 47.026 51.5919 45.9091C51.5919 44.7888 51.8057 43.8393 52.2332 43.0604C52.6608 42.2815 53.2391 41.6899 53.9683 41.2855C54.6975 40.8812 55.5145 40.679 56.4193 40.679C57.0358 40.679 57.6059 40.7652 58.1295 40.9375C58.6532 41.1065 59.1139 41.3551 59.5116 41.6832C59.9094 42.008 60.2325 42.4074 60.4811 42.8814C60.7297 43.3554 60.8838 43.8973 60.9434 44.5071ZM64.8126 40.8182V51H62.3517V40.8182H64.8126ZM75.9676 45.9091C75.9676 47.0294 75.7522 47.9789 75.3213 48.7578C74.8904 49.5367 74.3071 50.1283 73.5713 50.5327C72.8388 50.937 72.0168 51.1392 71.1054 51.1392C70.1906 51.1392 69.367 50.9354 68.6345 50.5277C67.902 50.12 67.3203 49.5284 66.8895 48.7528C66.4619 47.974 66.2481 47.026 66.2481 45.9091C66.2481 44.7888 66.4619 43.8393 66.8895 43.0604C67.3203 42.2815 67.902 41.6899 68.6345 41.2855C69.367 40.8812 70.1906 40.679 71.1054 40.679C72.0168 40.679 72.8388 40.8812 73.5713 41.2855C74.3071 41.6899 74.8904 42.2815 75.3213 43.0604C75.7522 43.8393 75.9676 44.7888 75.9676 45.9091ZM73.452 45.9091C73.452 45.2462 73.3575 44.6861 73.1686 44.2287C72.983 43.7713 72.7145 43.425 72.3632 43.1896C72.0152 42.9543 71.5959 42.8366 71.1054 42.8366C70.6182 42.8366 70.1989 42.9543 69.8476 43.1896C69.4962 43.425 69.2261 43.7713 69.0372 44.2287C68.8516 44.6861 68.7588 45.2462 68.7588 45.9091C68.7588 46.572 68.8516 47.1321 69.0372 47.5895C69.2261 48.0469 69.4962 48.3932 69.8476 48.6286C70.1989 48.8639 70.6182 48.9815 71.1054 48.9815C71.5959 48.9815 72.0152 48.8639 72.3632 48.6286C72.7145 48.3932 72.983 48.0469 73.1686 47.5895C73.3575 47.1321 73.452 46.572 73.452 45.9091ZM70.2702 39.8487L71.2744 37.6065H73.4271L71.9257 39.8487H70.2702ZM86.0699 40.8182V51H83.9818L79.93 45.1236H79.8653V51H77.4044V40.8182H79.5223L83.5294 46.6847H83.6139V40.8182H86.0699ZM18.1505 68V57.8182H25.2499V59.8168H20.6114V61.9048H24.887V63.9084H20.6114V66.0014H25.2499V68H18.1505ZM32.2947 60.8707C32.2615 60.5062 32.114 60.2228 31.8522 60.0206C31.5937 59.8151 31.2241 59.7124 30.7435 59.7124C30.4253 59.7124 30.1602 59.7538 29.9481 59.8366C29.7359 59.9195 29.5769 60.0339 29.4708 60.1797C29.3647 60.3222 29.31 60.4863 29.3067 60.6719C29.3001 60.8243 29.3299 60.9586 29.3962 61.0746C29.4658 61.1906 29.5653 61.2933 29.6945 61.3828C29.8271 61.469 29.9862 61.5452 30.1718 61.6115C30.3574 61.6778 30.5662 61.7358 30.7982 61.7855L31.6732 61.9844C32.177 62.0938 32.6211 62.2396 33.0056 62.4219C33.3934 62.6042 33.7182 62.8213 33.98 63.0732C34.2452 63.325 34.4457 63.6151 34.5816 63.9432C34.7175 64.2713 34.7871 64.6392 34.7904 65.0469C34.7871 65.6899 34.6247 66.2417 34.3032 66.7024C33.9817 67.1631 33.5193 67.5161 32.9161 67.7614C32.3162 68.0066 31.592 68.1293 30.7435 68.1293C29.8917 68.1293 29.1493 68.0017 28.5162 67.7464C27.8832 67.4912 27.391 67.1035 27.0397 66.5831C26.6884 66.0627 26.5077 65.4048 26.4978 64.6094H28.8543C28.8742 64.9375 28.962 65.2109 29.1178 65.4297C29.2736 65.6484 29.4874 65.8142 29.7591 65.9268C30.0342 66.0395 30.3524 66.0959 30.7137 66.0959C31.0451 66.0959 31.3269 66.0511 31.5589 65.9616C31.7942 65.8722 31.9748 65.7479 32.1008 65.5888C32.2267 65.4297 32.2913 65.2474 32.2947 65.0419C32.2913 64.8497 32.2317 64.6856 32.1157 64.5497C31.9997 64.4105 31.8207 64.2912 31.5787 64.1918C31.3401 64.089 31.0352 63.9946 30.664 63.9084L29.6001 63.6598C28.7184 63.4576 28.0241 63.1312 27.517 62.6804C27.0099 62.2263 26.758 61.6132 26.7613 60.8409C26.758 60.2112 26.927 59.6593 27.2684 59.1854C27.6098 58.7114 28.0821 58.3419 28.6853 58.0767C29.2885 57.8116 29.9762 57.679 30.7485 57.679C31.5373 57.679 32.2217 57.8132 32.8018 58.0817C33.3851 58.3468 33.8375 58.7197 34.159 59.2003C34.4805 59.6809 34.6446 60.2377 34.6512 60.8707H32.2947ZM45.2755 61.5071H42.7897C42.7565 61.2519 42.6886 61.0215 42.5858 60.8161C42.4831 60.6106 42.3472 60.4349 42.1782 60.2891C42.0091 60.1432 41.8086 60.0322 41.5766 59.956C41.3479 59.8764 41.0944 59.8366 40.816 59.8366C40.3221 59.8366 39.8962 59.9576 39.5383 60.1996C39.1836 60.4415 38.9102 60.7912 38.718 61.2486C38.529 61.706 38.4346 62.2595 38.4346 62.9091C38.4346 63.5852 38.5307 64.152 38.7229 64.6094C38.9185 65.0634 39.1919 65.4065 39.5432 65.6385C39.8979 65.8672 40.3171 65.9815 40.801 65.9815C41.0728 65.9815 41.3198 65.9467 41.5418 65.8771C41.7672 65.8075 41.9644 65.7064 42.1334 65.5739C42.3058 65.438 42.4466 65.2739 42.556 65.0817C42.6687 64.8861 42.7466 64.6657 42.7897 64.4205L45.2755 64.4354C45.2324 64.8861 45.1015 65.3303 44.8827 65.7678C44.6673 66.2053 44.3706 66.6046 43.9928 66.9659C43.615 67.3239 43.1543 67.6089 42.6107 67.821C42.0705 68.0331 41.4507 68.1392 40.7513 68.1392C39.8299 68.1392 39.0046 67.937 38.2755 67.5327C37.5496 67.125 36.9762 66.5317 36.5553 65.7528C36.1344 64.974 35.9239 64.026 35.9239 62.9091C35.9239 61.7888 36.1377 60.8393 36.5653 60.0604C36.9928 59.2815 37.5712 58.6899 38.3003 58.2855C39.0295 57.8812 39.8465 57.679 40.7513 57.679C41.3678 57.679 41.9379 57.7652 42.4616 57.9375C42.9852 58.1065 43.4459 58.3551 43.8437 58.6832C44.2414 59.008 44.5645 59.4074 44.8131 59.8814C45.0617 60.3554 45.2158 60.8973 45.2755 61.5071ZM52.8435 57.8182H55.2994V64.3857C55.2994 65.1446 55.1188 65.8059 54.7575 66.3693C54.3963 66.9295 53.8925 67.3636 53.2462 67.6719C52.5999 67.9768 51.8492 68.1293 50.9941 68.1293C50.129 68.1293 49.3733 67.9768 48.727 67.6719C48.0807 67.3636 47.5786 66.9295 47.2206 66.3693C46.8627 65.8059 46.6837 65.1446 46.6837 64.3857V57.8182H49.1446V64.1719C49.1446 64.5232 49.2209 64.8364 49.3733 65.1115C49.5291 65.3866 49.7462 65.602 50.0246 65.7578C50.303 65.9136 50.6262 65.9915 50.9941 65.9915C51.3619 65.9915 51.6834 65.9136 51.9585 65.7578C52.2369 65.602 52.454 65.3866 52.6098 65.1115C52.7656 64.8364 52.8435 64.5232 52.8435 64.1719V57.8182ZM56.8419 68V57.8182H63.9413V59.8168H59.3028V61.9048H63.5784V63.9084H59.3028V66.0014H63.9413V68H56.8419ZM65.4825 68V57.8182H67.9434V66.0014H72.1792V68H65.4825ZM75.7923 68H73.1475L76.5828 57.8182H79.8591L83.2945 68H80.6496L78.2583 60.3835H78.1787L75.7923 68ZM75.4394 63.9929H80.9678V65.8622H75.4394V63.9929Z" fill="white"/>
</svg>
