<svg width="96" height="96" viewBox="0 0 96 96" fill="none" xmlns="http://www.w3.org/2000/svg">
<rect width="96" height="96" rx="15" fill="#131C73"/>
<path d="M73.875 31.375H54.4125C53.7376 31.375 53.2875 31.875 53.2875 32.625V46.5C53.2875 47.25 53.7376 47.75 54.4125 47.75H73.875C74.55 47.75 75 47.25 75 46.5V32.625C75 32.0001 74.4376 31.375 73.875 31.375Z" fill="#4CDBC4"/>
<path d="M54.5251 43.625V35.625C55.7626 35.625 56.7751 34.5 56.7751 33.125H71.4001C71.4001 34.5 72.4126 35.625 73.6501 35.625V43.625C72.4126 43.625 71.4001 44.75 71.4001 46.125H56.7751C56.7751 44.75 55.7625 43.625 54.5251 43.625Z" fill="#F2F2F2"/>
<path d="M63.6375 43.875C65.75 43.875 67.4625 41.9722 67.4625 39.625C67.4625 37.2777 65.75 35.3749 63.6375 35.3749C61.525 35.3749 59.8124 37.2777 59.8124 39.625C59.8124 41.9722 61.525 43.875 63.6375 43.875Z" fill="#4CDBC4"/>
<path d="M63.975 38.875C63.3 38.625 63.3 38.5 63.3 38.2499C63.3 37.9999 63.5251 37.8749 63.7501 37.8749C64.0876 37.8749 64.425 37.9999 64.5376 38.1249L64.8751 38.3749L65.2126 37.25L64.9876 37.1249C64.7626 36.9999 64.5376 36.8749 64.2001 36.8749V36.125H63.1876V36.9999C62.5127 37.25 62.0626 37.7499 62.0626 38.5C62.0626 39.4999 62.7376 39.875 63.4127 40.125C63.9751 40.375 63.9751 40.6251 63.9751 40.7499C63.9751 41 63.7501 41.25 63.4127 41.25C63.0751 41.25 62.8501 41.125 62.5127 41L62.1751 40.7499L61.8376 41.8749L62.0626 41.9999C62.2877 42.25 62.6251 42.375 63.0751 42.375V43.2499H64.0876V42.375C64.7626 42.125 65.2126 41.5 65.2126 40.7499C65.325 39.625 64.5376 39.125 63.975 38.875Z" fill="#F2F2F2"/>
<path d="M56.55 40.4999C56.9849 40.4999 57.3375 40.1082 57.3375 39.625C57.3375 39.1417 56.9849 38.75 56.55 38.75C56.1151 38.75 55.7626 39.1417 55.7626 39.625C55.7626 40.1082 56.1151 40.4999 56.55 40.4999Z" fill="#4CDBC4"/>
<path d="M70.6125 40.4999C71.0474 40.4999 71.4 40.1082 71.4 39.625C71.4 39.1417 71.0474 38.75 70.6125 38.75C70.1776 38.75 69.825 39.1417 69.825 39.625C69.825 40.1082 70.1776 40.4999 70.6125 40.4999Z" fill="#4CDBC4"/>
<path d="M70.8375 27.5H51.3749C50.7 27.5 50.2499 28 50.2499 28.75V42.625C50.2499 43.375 50.7 43.875 51.3749 43.875H70.8375C71.5125 43.875 71.9625 43.375 71.9625 42.625V28.75C71.9625 28.125 71.4 27.5 70.8375 27.5Z" fill="#4CDBC4"/>
<path d="M51.4875 39.75V31.75C52.725 31.75 53.7375 30.625 53.7375 29.25H68.3625C68.3625 30.625 69.375 31.75 70.6125 31.75V39.75C69.375 39.75 68.3625 40.875 68.3625 42.25H53.7375C53.7375 40.875 52.725 39.75 51.4875 39.75Z" fill="#F2F2F2"/>
<path d="M60.6 40.0001C62.7125 40.0001 64.425 38.0973 64.425 35.7501C64.425 33.4028 62.7125 31.5 60.6 31.5C58.4875 31.5 56.7749 33.4028 56.7749 35.7501C56.7749 38.0973 58.4875 40.0001 60.6 40.0001Z" fill="#4CDBC4"/>
<path d="M60.9375 35C60.2626 34.75 60.2626 34.625 60.2626 34.3751C60.2626 34.125 60.4876 34 60.7126 34C61.0501 34 61.3876 34.125 61.5001 34.25L61.8376 34.5001L62.1751 33.3751L61.9501 33.2501C61.7251 33.1251 61.5001 33 61.1627 33V32.2501H60.1502V33.1251C59.4752 33.3751 59.0252 33.875 59.0252 34.6251C59.0252 35.6251 59.7001 36.0001 60.3752 36.2501C60.9377 36.5001 60.9377 36.7502 60.9377 36.8751C60.9377 37.1251 60.7127 37.3751 60.3752 37.3751C60.0377 37.3751 59.8127 37.2501 59.4752 37.1251L59.1377 36.8751L58.8001 38.0001L59.0252 38.1251C59.2502 38.3751 59.5876 38.5001 60.0377 38.5001V39.3751H61.0501V38.5001C61.7251 38.2501 62.1751 37.6251 62.1751 36.8751C62.2875 35.7501 61.5 35.375 60.9375 35Z" fill="#F2F2F2"/>
<path d="M53.5124 36.625C53.9474 36.625 54.2999 36.2333 54.2999 35.7501C54.2999 35.2668 53.9474 34.8751 53.5124 34.8751C53.0775 34.8751 52.725 35.2668 52.725 35.7501C52.725 36.2333 53.0775 36.625 53.5124 36.625Z" fill="#4CDBC4"/>
<path d="M67.575 36.625C68.0099 36.625 68.3625 36.2333 68.3625 35.7501C68.3625 35.2668 68.0099 34.8751 67.575 34.8751C67.1401 34.8751 66.7876 35.2668 66.7876 35.7501C66.7876 36.2333 67.1401 36.625 67.575 36.625Z" fill="#4CDBC4"/>
<path d="M55.5375 20.375H23.25C22.0125 20.375 21 21.5 21 22.875V71.375C21 72.75 22.0125 73.875 23.25 73.875H55.5375C56.7751 73.875 57.7875 72.75 57.7875 71.375V22.875C57.7875 21.5 56.7751 20.375 55.5375 20.375Z" fill="#40596B"/>
<path d="M23.8013 23.4049H54.9638V70.6549H23.8013V23.4049Z" fill="#F2F2F2"/>
<path d="M46.425 18H32.3625C31.125 18 30.1125 19.125 30.1125 20.5V25.125H48.675V20.5C48.675 19.125 47.6625 18 46.425 18Z" fill="#FF7058"/>
<path d="M26.0625 27.5H38.4375V41.6249H26.0625V27.5Z" fill="#84DBFF"/>
<path d="M41.025 38.75H52.725V41.625H41.025V38.75Z" fill="#CDD6E0"/>
<path d="M26.0625 45.375H52.725V48.2501H26.0625V45.375Z" fill="#CDD6E0"/>
<path d="M26.0625 51.875H52.725V54.75H26.0625V51.875Z" fill="#CDD6E0"/>
<path d="M26.0625 58.5H52.725V61.375H26.0625V58.5Z" fill="#CDD6E0"/>
<path d="M26.0625 65.1251H40.0124V68.0001H26.0625V65.1251Z" fill="#CDD6E0"/>
<path d="M38.4375 41.375V41.7501H26.0625V41.375C26.2875 41.25 26.5125 41.125 26.7374 41C27.8624 40.4999 29.325 39.75 29.9999 39.2499C30.1124 39.2499 30.1124 39.1249 30.2249 39.1249C30.2249 39.1249 30.3374 37.7499 30.3374 37.6249C30.3374 37.6249 29.6625 36.4999 29.3249 35.4999C29.0999 35.4999 28.8749 35.1249 28.7625 34.5C28.65 33.875 28.7625 33.375 28.9875 33.375C28.875 32.125 28.875 28.625 32.3625 28.625C35.85 28.5 35.85 32.125 35.7375 33.375C35.9626 33.375 36.0751 33.9999 35.9626 34.5C35.85 35.125 35.625 35.4999 35.4001 35.4999C35.0626 36.4999 34.3876 37.6249 34.3876 37.6249C34.3876 37.7499 34.5001 39.1249 34.5001 39.1249C34.6126 39.1249 34.6126 39.2499 34.7252 39.2499C35.4001 39.75 36.8626 40.4999 37.9877 41C37.9875 41.125 38.2125 41.25 38.4375 41.375Z" fill="#40596B"/>
<path d="M72.75 49.3749H53.7375C52.4999 49.3749 51.4875 50.4999 51.4875 51.8749V75.5C51.4875 76.875 52.4999 78 53.7375 78H72.75C73.9875 78 75 76.875 75 75.5V51.8749C75 50.4999 73.9875 49.3749 72.75 49.3749Z" fill="#334A5E"/>
<path d="M52.9961 50.985H73.471V58.4851H52.9961V50.985Z" fill="#ACB3BA"/>
<path d="M53.175 60.875H58.4625V64.875H53.175V60.875Z" fill="#CDD6E0"/>
<path d="M60.6 60.875H65.8875V64.8751H60.6V60.875Z" fill="#CDD6E0"/>
<path d="M68.25 60.875H73.5375V64.8751H68.25V60.875Z" fill="#CDD6E0"/>
<path d="M53.175 66.4999H58.4625V70.5H53.175V66.4999Z" fill="#CDD6E0"/>
<path d="M60.6 66.4999H65.8875V70.5H60.6V66.4999Z" fill="#CDD6E0"/>
<path d="M68.25 66.4999H73.5375V70.5H68.25V66.4999Z" fill="#CDD6E0"/>
<path d="M53.175 72.125H58.4625V76.1251H53.175V72.125Z" fill="#CDD6E0"/>
<path d="M60.6 72.125H65.8875V76.1251H60.6V72.125Z" fill="#CDD6E0"/>
<path d="M68.25 72.125H73.5375V76.1251H68.25V72.125Z" fill="#CDD6E0"/>
</svg>
