<svg width="96" height="96" viewBox="0 0 96 96" fill="none" xmlns="http://www.w3.org/2000/svg">
<rect y="9.15527e-05" width="96" height="96" rx="15" fill="#131C73"/>
<path fill-rule="evenodd" clip-rule="evenodd" d="M24 23.0001H31.8537V72.584H24V23.0001Z" fill="#0A3586"/>
<path fill-rule="evenodd" clip-rule="evenodd" d="M31.8537 23.0001H67.7562C68.9954 23.0001 70 23.8623 70 24.9276V73.9113C70 74.9758 68.9993 75.8388 67.7562 75.8388H31.8537V23.0001Z" fill="#C7857A"/>
<path d="M36.3415 44.1999C38.2004 44.1999 39.7074 42.9056 39.7074 41.309C39.7074 39.7124 38.2004 38.4181 36.3415 38.4181C34.4826 38.4181 32.9757 39.7124 32.9757 41.309C32.9757 42.9056 34.4826 44.1999 36.3415 44.1999Z" fill="white"/>
<path d="M65.5122 61.5454C67.3711 61.5454 68.8781 60.2511 68.8781 58.6545C68.8781 57.0579 67.3711 55.7636 65.5122 55.7636C63.6533 55.7636 62.1464 57.0579 62.1464 58.6545C62.1464 60.2511 63.6533 61.5454 65.5122 61.5454Z" fill="white"/>
<path d="M58.7805 39.3817C60.6394 39.3817 62.1464 38.0874 62.1464 36.4908C62.1464 34.8942 60.6394 33.5999 58.7805 33.5999C56.9216 33.5999 55.4147 34.8942 55.4147 36.4908C55.4147 38.0874 56.9216 39.3817 58.7805 39.3817Z" fill="white"/>
<path fill-rule="evenodd" clip-rule="evenodd" d="M24 72.6274C24 70.7647 25.7471 69.2547 27.9219 69.2547H70V76.0001H27.9219C25.7559 76.0001 24 74.4863 24 72.6274Z" fill="#ECECEC"/>
<path d="M50.781 49.523L58.6492 38.712L64.121 59.5815L66.3099 59.1584L59.6388 33.7146L50.6564 46.0597L45.9532 40.4109H36.1956V42.3382H44.7999L50.781 49.523Z" fill="white"/>
</svg>
