<svg width="96" height="96" viewBox="0 0 96 96" fill="none" xmlns="http://www.w3.org/2000/svg">
<rect width="96" height="96" rx="15" fill="#131C73"/>
<path fill-rule="evenodd" clip-rule="evenodd" d="M24 23H31.8537V72.5839H24V23Z" fill="#0A3586"/>
<path fill-rule="evenodd" clip-rule="evenodd" d="M31.8537 23H67.7562C68.9954 23 70 23.8622 70 24.9275V73.9112C70 74.9757 68.9993 75.8387 67.7562 75.8387H31.8537V23Z" fill="#C7857A"/>
<path d="M36.3415 44.2C38.2004 44.2 39.7073 42.9057 39.7073 41.3091C39.7073 39.7125 38.2004 38.4182 36.3415 38.4182C34.4826 38.4182 32.9756 39.7125 32.9756 41.3091C32.9756 42.9057 34.4826 44.2 36.3415 44.2Z" fill="white"/>
<path d="M65.5122 61.5454C67.3711 61.5454 68.8781 60.2511 68.8781 58.6545C68.8781 57.0579 67.3711 55.7636 65.5122 55.7636C63.6533 55.7636 62.1463 57.0579 62.1463 58.6545C62.1463 60.2511 63.6533 61.5454 65.5122 61.5454Z" fill="white"/>
<path d="M58.7805 39.3818C60.6394 39.3818 62.1463 38.0875 62.1463 36.4909C62.1463 34.8943 60.6394 33.6 58.7805 33.6C56.9216 33.6 55.4146 34.8943 55.4146 36.4909C55.4146 38.0875 56.9216 39.3818 58.7805 39.3818Z" fill="white"/>
<path fill-rule="evenodd" clip-rule="evenodd" d="M24 72.6273C24 70.7646 25.7471 69.2545 27.9219 69.2545H70V76H27.9219C25.7559 76 24 74.4862 24 72.6273Z" fill="#ECECEC"/>
<path d="M50.781 49.5231L58.6492 38.7121L64.121 59.5816L66.3099 59.1585L59.6388 33.7147L50.6564 46.0598L45.9532 40.411H36.1956V42.3382H44.7998L50.781 49.5231Z" fill="white"/>
</svg>
