<svg width="96" height="96" viewBox="0 0 96 96" fill="none" xmlns="http://www.w3.org/2000/svg">
<rect x="-1.52588e-05" y="9.15527e-05" width="96" height="96" rx="15" fill="#131C73"/>
<path d="M53.5301 66.5324C55.5055 66.5324 57.3152 66.8029 58.6441 67.2402C60.3314 67.7953 61.375 68.722 61.375 69.8883C61.375 71.0546 60.3314 71.9813 58.6441 72.5364C57.3152 72.9737 55.5055 73.2442 53.5301 73.2442C51.5547 73.2442 49.7449 72.9737 48.416 72.5364C46.7288 71.9813 45.6851 71.0546 45.6851 69.8883C45.6851 68.722 46.7287 67.7953 48.416 67.2402C49.7449 66.8029 51.5547 66.5324 53.5301 66.5324ZM58.0312 69.3725C56.8994 69.0001 55.3095 68.7697 53.5301 68.7697C51.7506 68.7697 50.1608 69.0001 49.029 69.3725C48.2556 69.627 47.7772 69.819 47.7772 69.8883C47.7772 69.9575 48.2556 70.1496 49.029 70.4041C50.1608 70.7765 51.7506 71.0069 53.5301 71.0069C55.3095 71.0069 56.8994 70.7765 58.0312 70.4041C58.8046 70.1496 59.283 69.9575 59.283 69.8883C59.283 69.819 58.8046 69.627 58.0312 69.3725Z" fill="white"/>
<path fill-rule="evenodd" clip-rule="evenodd" d="M47.7772 69.8883C47.7772 69.9575 48.2556 70.1496 49.029 70.4041C50.1608 70.7765 51.7507 71.0069 53.5301 71.0069C55.3095 71.0069 56.8994 70.7765 58.0312 70.4041C58.8046 70.1496 59.283 69.9575 59.283 69.8883C59.283 69.819 58.8046 69.627 58.0312 69.3725C56.8994 69.0001 55.3095 68.7697 53.5301 68.7697C51.7507 68.7697 50.1608 69.0001 49.029 69.3725C48.2556 69.627 47.7772 69.819 47.7772 69.8883Z" fill="white"/>
<path d="M53.5301 63.1765C55.5055 63.1765 57.3152 63.447 58.6441 63.8842C60.3314 64.4394 61.375 65.3661 61.375 66.5324C61.375 67.6987 60.3314 68.6254 58.6441 69.1805C57.3152 69.6178 55.5055 69.8883 53.5301 69.8883C51.5547 69.8883 49.7449 69.6178 48.416 69.1805C46.7288 68.6254 45.6851 67.6987 45.6851 66.5324C45.6851 65.3661 46.7287 64.4394 48.416 63.8842C49.7449 63.447 51.5547 63.1765 53.5301 63.1765ZM58.0312 66.0166C56.8994 65.6442 55.3095 65.4138 53.5301 65.4138C51.7506 65.4138 50.1608 65.6442 49.029 66.0166C48.2556 66.271 47.7772 66.4631 47.7772 66.5324C47.7772 66.6016 48.2556 66.7937 49.029 67.0481C50.1608 67.4206 51.7506 67.6509 53.5301 67.6509C55.3095 67.6509 56.8994 67.4206 58.0312 67.0481C58.8046 66.7937 59.283 66.6016 59.283 66.5324C59.283 66.4631 58.8046 66.271 58.0312 66.0166Z" fill="white"/>
<path fill-rule="evenodd" clip-rule="evenodd" d="M47.7772 66.5325C47.7772 66.6018 48.2556 66.7938 49.029 67.0483C50.1608 67.4207 51.7507 67.6511 53.5301 67.6511C55.3095 67.6511 56.8994 67.4207 58.0312 67.0483C58.8046 66.7938 59.283 66.6018 59.283 66.5325C59.283 66.4633 58.8046 66.2712 58.0312 66.0168C56.8994 65.6443 55.3095 65.4139 53.5301 65.4139C51.7507 65.4139 50.1608 65.6443 49.029 66.0168C48.2556 66.2712 47.7772 66.4633 47.7772 66.5325Z" fill="white"/>
<path d="M53.5301 59.8208C55.5055 59.8208 57.3152 60.0913 58.6441 60.5286C60.3314 61.0838 61.375 62.0104 61.375 63.1767C61.375 64.343 60.3314 65.2697 58.6441 65.8248C57.3152 66.2621 55.5055 66.5326 53.5301 66.5326C51.5547 66.5326 49.7449 66.2621 48.416 65.8248C46.7288 65.2697 45.6851 64.343 45.6851 63.1767C45.6851 62.0104 46.7287 61.0838 48.416 60.5286C49.7449 60.0913 51.5547 59.8208 53.5301 59.8208ZM58.0312 62.661C56.8994 62.2885 55.3095 62.0581 53.5301 62.0581C51.7506 62.0581 50.1608 62.2885 49.029 62.661C48.2556 62.9154 47.7772 63.1075 47.7772 63.1767C47.7772 63.246 48.2556 63.438 49.029 63.6925C50.1608 64.0649 51.7506 64.2953 53.5301 64.2953C55.3095 64.2953 56.8994 64.0649 58.0312 63.6925C58.8046 63.438 59.283 63.246 59.283 63.1767C59.283 63.1075 58.8046 62.9154 58.0312 62.661Z" fill="white"/>
<path fill-rule="evenodd" clip-rule="evenodd" d="M47.7772 63.1764C47.7772 63.2457 48.2556 63.4377 49.029 63.6922C50.1608 64.0646 51.7507 64.295 53.5301 64.295C55.3095 64.295 56.8994 64.0646 58.0312 63.6922C58.8046 63.4377 59.283 63.2457 59.283 63.1764C59.283 63.1072 58.8046 62.9151 58.0312 62.6607C56.8994 62.2882 55.3095 62.0578 53.5301 62.0578C51.7507 62.0578 50.1608 62.2882 49.029 62.6607C48.2556 62.9151 47.7772 63.1072 47.7772 63.1764Z" fill="white"/>
<path d="M53.5301 56.4647C55.5055 56.4647 57.3152 56.7352 58.6441 57.1724C60.3314 57.7276 61.375 58.6543 61.375 59.8206C61.375 60.9869 60.3314 61.9136 58.6441 62.4687C57.3152 62.906 55.5055 63.1765 53.5301 63.1765C51.5547 63.1765 49.7449 62.906 48.416 62.4687C46.7288 61.9136 45.6851 60.9869 45.6851 59.8206C45.6851 58.6543 46.7287 57.7276 48.416 57.1724C49.7449 56.7352 51.5547 56.4647 53.5301 56.4647ZM58.0312 59.3048C56.8994 58.9324 55.3095 58.702 53.5301 58.702C51.7506 58.702 50.1608 58.9324 49.029 59.3048C48.2556 59.5593 47.7772 59.7513 47.7772 59.8206C47.7772 59.8898 48.2556 60.0819 49.029 60.3363C50.1608 60.7088 51.7506 60.9392 53.5301 60.9392C55.3095 60.9392 56.8994 60.7088 58.0312 60.3363C58.8046 60.0819 59.283 59.8898 59.283 59.8206C59.283 59.7513 58.8046 59.5593 58.0312 59.3048Z" fill="white"/>
<path fill-rule="evenodd" clip-rule="evenodd" d="M47.7772 59.8206C47.7772 59.8899 48.2556 60.0819 49.029 60.3364C50.1608 60.7088 51.7507 60.9392 53.5301 60.9392C55.3095 60.9392 56.8994 60.7088 58.0312 60.3364C58.8046 60.0819 59.283 59.8899 59.283 59.8206C59.283 59.7514 58.8046 59.5593 58.0312 59.3048C56.8994 58.9324 55.3095 58.702 53.5301 58.702C51.7507 58.702 50.1608 58.9324 49.029 59.3048C48.2556 59.5593 47.7772 59.7514 47.7772 59.8206Z" fill="white"/>
<path d="M25.68 59.5714L40.0794 40.6564L40.7448 39.7823L41.5999 40.4355L50.8426 47.4953L68.467 22.6821L70.2512 24.1297L51.9674 49.8712L51.3081 50.7995L50.425 50.125L41.1542 43.0437L27.4202 61.0847L25.68 59.5714Z" fill="white"/>
<path d="M62.3655 22.5342L69.8032 21.2082L70.9106 21.0108L71.0952 22.1952L72.32 30.0524L70.1052 30.4472L69.065 23.7744L62.7347 24.9029L62.3655 22.5342Z" fill="white"/>
<path d="M53.5301 53.1092C55.5055 53.1092 57.3152 53.3797 58.6441 53.817C60.3314 54.3721 61.375 55.2988 61.375 56.4651C61.375 57.6314 60.3314 58.5581 58.6441 59.1132C57.3152 59.5505 55.5055 59.821 53.5301 59.821C51.5547 59.821 49.7449 59.5505 48.416 59.1132C46.7288 58.5581 45.6851 57.6314 45.6851 56.4651C45.6851 55.2988 46.7287 54.3722 48.416 53.817C49.7449 53.3797 51.5547 53.1092 53.5301 53.1092ZM58.0312 55.9493C56.8994 55.5769 55.3095 55.3465 53.5301 55.3465C51.7506 55.3465 50.1608 55.5769 49.029 55.9493C48.2556 56.2038 47.7772 56.3958 47.7772 56.4651C47.7772 56.5344 48.2556 56.7264 49.029 56.9809C50.1608 57.3533 51.7506 57.5837 53.5301 57.5837C55.3095 57.5837 56.8994 57.3533 58.0312 56.9809C58.8046 56.7264 59.283 56.5344 59.283 56.4651C59.283 56.3958 58.8046 56.2038 58.0312 55.9493Z" fill="white"/>
<path fill-rule="evenodd" clip-rule="evenodd" d="M47.7772 56.4652C47.7772 56.5344 48.2556 56.7265 49.029 56.9809C50.1608 57.3533 51.7507 57.5837 53.5301 57.5837C55.3095 57.5837 56.8994 57.3533 58.0312 56.9809C58.8046 56.7264 59.283 56.5344 59.283 56.4652C59.283 56.3959 58.8046 56.2038 58.0312 55.9494C56.8994 55.5769 55.3095 55.3466 53.5301 55.3466C51.7507 55.3466 50.1608 55.5769 49.029 55.9494C48.2556 56.2038 47.7772 56.3959 47.7772 56.4652Z" fill="white"/>
<path d="M34.375 66.5324C36.3504 66.5324 38.1602 66.8029 39.4891 67.2402C41.1763 67.7953 42.22 68.722 42.22 69.8883C42.22 71.0546 41.1763 71.9813 39.4891 72.5364C38.1602 72.9737 36.3504 73.2442 34.375 73.2442C32.3996 73.2442 30.5899 72.9737 29.261 72.5364C27.5737 71.9813 26.5301 71.0546 26.5301 69.8883C26.5301 68.722 27.5737 67.7953 29.261 67.2402C30.5899 66.8029 32.3996 66.5324 34.375 66.5324ZM38.8762 69.3725C37.7444 69.0001 36.1545 68.7697 34.375 68.7697C32.5956 68.7697 31.0057 69.0001 29.8739 69.3725C29.1006 69.627 28.6221 69.819 28.6221 69.8883C28.6221 69.9575 29.1005 70.1496 29.8739 70.4041C31.0057 70.7765 32.5956 71.0069 34.375 71.0069C36.1545 71.0069 37.7444 70.7765 38.8762 70.4041C39.6496 70.1496 40.128 69.9575 40.128 69.8883C40.128 69.819 39.6495 69.627 38.8762 69.3725Z" fill="white"/>
<path fill-rule="evenodd" clip-rule="evenodd" d="M28.6222 69.8883C28.6222 69.9575 29.1005 70.1496 29.874 70.4041C31.0058 70.7765 32.5956 71.0069 34.3751 71.0069C36.1545 71.0069 37.7444 70.7765 38.8762 70.4041C39.6496 70.1496 40.128 69.9575 40.128 69.8883C40.128 69.819 39.6496 69.627 38.8762 69.3725C37.7444 69.0001 36.1545 68.7697 34.3751 68.7697C32.5956 68.7697 31.0058 69.0001 29.874 69.3725C29.1006 69.627 28.6222 69.819 28.6222 69.8883Z" fill="white"/>
<path d="M34.375 63.0723C36.3504 63.0723 38.1602 63.3427 39.4891 63.78C41.1763 64.3352 42.22 65.2619 42.22 66.4282C42.22 67.5945 41.1763 68.5212 39.4891 69.0763C38.1602 69.5136 36.3504 69.784 34.375 69.784C32.3996 69.784 30.5899 69.5136 29.261 69.0763C27.5737 68.5212 26.5301 67.5945 26.5301 66.4282C26.5301 65.2619 27.5737 64.3352 29.261 63.78C30.5899 63.3427 32.3996 63.0723 34.375 63.0723ZM38.8762 65.9124C37.7444 65.5399 36.1545 65.3096 34.375 65.3096C32.5956 65.3096 31.0057 65.5399 29.8739 65.9124C29.1006 66.1668 28.6221 66.3589 28.6221 66.4282C28.6221 66.4974 29.1005 66.6895 29.8739 66.9439C31.0057 67.3163 32.5956 67.5467 34.375 67.5467C36.1545 67.5467 37.7444 67.3163 38.8762 66.9439C39.6496 66.6895 40.128 66.4974 40.128 66.4282C40.128 66.3589 39.6495 66.1668 38.8762 65.9124Z" fill="white"/>
<path fill-rule="evenodd" clip-rule="evenodd" d="M28.622 66.4282C28.622 66.4974 29.1004 66.6895 29.8738 66.9439C31.0056 67.3164 32.5955 67.5468 34.3749 67.5468C36.1543 67.5468 37.7442 67.3164 38.876 66.9439C39.6494 66.6895 40.1278 66.4974 40.1278 66.4282C40.1278 66.3589 39.6494 66.1669 38.876 65.9124C37.7442 65.54 36.1543 65.3096 34.3749 65.3096C32.5955 65.3096 31.0056 65.54 29.8738 65.9124C29.1004 66.1669 28.622 66.3589 28.622 66.4282Z" fill="white"/>
</svg>
