<svg width="96" height="96" viewBox="0 0 96 96" fill="none" xmlns="http://www.w3.org/2000/svg">
<rect y="0.00012207" width="96" height="96" rx="15" fill="#131C73"/>
<path d="M73.875 31.3751H54.4125C53.7376 31.3751 53.2875 31.8751 53.2875 32.6251V46.5001C53.2875 47.2501 53.7376 47.7501 54.4125 47.7501H73.875C74.55 47.7501 75 47.2501 75 46.5001V32.6251C75 32.0001 74.4376 31.3751 73.875 31.3751Z" fill="#4CDBC4"/>
<path d="M54.5251 43.6249V35.625C55.7626 35.625 56.7751 34.5 56.7751 33.125H71.4001C71.4001 34.5 72.4126 35.625 73.6501 35.625V43.6249C72.4126 43.6249 71.4001 44.7499 71.4001 46.125H56.7751C56.7751 44.7499 55.7625 43.6249 54.5251 43.6249Z" fill="#F2F2F2"/>
<path d="M63.6375 43.875C65.75 43.875 67.4626 41.9722 67.4626 39.625C67.4626 37.2777 65.75 35.3749 63.6375 35.3749C61.525 35.3749 59.8125 37.2777 59.8125 39.625C59.8125 41.9722 61.525 43.875 63.6375 43.875Z" fill="#4CDBC4"/>
<path d="M63.975 38.875C63.3001 38.6249 63.3001 38.4999 63.3001 38.2499C63.3001 37.9999 63.5251 37.8749 63.7501 37.8749C64.0877 37.8749 64.4251 37.9999 64.5376 38.1249L64.8751 38.3749L65.2127 37.2499L64.9876 37.1249C64.7626 36.9999 64.5376 36.8749 64.2002 36.8749V36.1249H63.1877V36.9999C62.5127 37.2499 62.0627 37.7499 62.0627 38.4999C62.0627 39.4999 62.7376 39.8749 63.4127 40.125C63.9752 40.375 63.9752 40.625 63.9752 40.7499C63.9752 40.9999 63.7501 41.25 63.4127 41.25C63.0752 41.25 62.8502 41.1249 62.5127 40.9999L62.1752 40.7499L61.8377 41.8749L62.0627 41.9999C62.2877 42.2499 62.6251 42.375 63.0752 42.375V43.2499H64.0877V42.375C64.7626 42.1249 65.2127 41.5 65.2127 40.7499C65.3251 39.6249 64.5376 39.125 63.975 38.875Z" fill="#F2F2F2"/>
<path d="M56.5501 40.5007C56.985 40.5007 57.3376 40.1088 57.3376 39.6254C57.3376 39.1419 56.985 38.75 56.5501 38.75C56.1152 38.75 55.7626 39.1419 55.7626 39.6254C55.7626 40.1088 56.1152 40.5007 56.5501 40.5007Z" fill="#4CDBC4"/>
<path d="M70.6125 40.5007C71.0474 40.5007 71.4 40.1088 71.4 39.6254C71.4 39.1419 71.0474 38.75 70.6125 38.75C70.1776 38.75 69.8251 39.1419 69.8251 39.6254C69.8251 40.1088 70.1776 40.5007 70.6125 40.5007Z" fill="#4CDBC4"/>
<path d="M70.8376 27.4999H51.375C50.7 27.4999 50.25 28 50.25 28.7499V42.6249C50.25 43.3749 50.7 43.875 51.375 43.875H70.8376C71.5125 43.875 71.9626 43.3749 71.9626 42.6249V28.7499C71.9626 28.125 71.4 27.4999 70.8376 27.4999Z" fill="#4CDBC4"/>
<path d="M51.4875 39.7499V31.75C52.725 31.75 53.7375 30.625 53.7375 29.25H68.3625C68.3625 30.625 69.375 31.75 70.6125 31.75V39.7499C69.375 39.7499 68.3625 40.8749 68.3625 42.2499H53.7375C53.7375 40.8749 52.725 39.7499 51.4875 39.7499Z" fill="#F2F2F2"/>
<path d="M60.6 40C62.7125 40 64.425 38.0972 64.425 35.75C64.425 33.4027 62.7125 31.4999 60.6 31.4999C58.4875 31.4999 56.7749 33.4027 56.7749 35.75C56.7749 38.0972 58.4875 40 60.6 40Z" fill="#4CDBC4"/>
<path d="M60.9375 34.9999C60.2626 34.7499 60.2626 34.6249 60.2626 34.375C60.2626 34.1249 60.4876 33.9999 60.7126 33.9999C61.0501 33.9999 61.3876 34.1249 61.5001 34.25L61.8376 34.5L62.1751 33.375L61.9501 33.25C61.7251 33.125 61.5001 33 61.1627 33V32.25H60.1502V33.125C59.4752 33.375 59.0252 33.8749 59.0252 34.625C59.0252 35.625 59.7001 36 60.3752 36.25C60.9377 36.5001 60.9377 36.7501 60.9377 36.875C60.9377 37.125 60.7127 37.375 60.3752 37.375C60.0377 37.375 59.8127 37.25 59.4752 37.125L59.1377 36.875L58.8001 38L59.0252 38.125C59.2502 38.375 59.5876 38.5 60.0377 38.5V39.375H61.0501V38.5C61.7251 38.25 62.1751 37.625 62.1751 36.875C62.2875 35.75 61.5 35.3749 60.9375 34.9999Z" fill="#F2F2F2"/>
<path d="M53.5124 36.6258C53.9474 36.6258 54.2999 36.2339 54.2999 35.7504C54.2999 35.267 53.9474 34.8751 53.5124 34.8751C53.0775 34.8751 52.725 35.267 52.725 35.7504C52.725 36.2339 53.0775 36.6258 53.5124 36.6258Z" fill="#4CDBC4"/>
<path d="M67.5751 36.6258C68.01 36.6258 68.3625 36.2339 68.3625 35.7504C68.3625 35.267 68.01 34.8751 67.5751 34.8751C67.1402 34.8751 66.7876 35.267 66.7876 35.7504C66.7876 36.2339 67.1402 36.6258 67.5751 36.6258Z" fill="#4CDBC4"/>
<path d="M55.5375 20.3751H23.25C22.0125 20.3751 21 21.5001 21 22.8751V71.375C21 72.75 22.0125 73.875 23.25 73.875H55.5375C56.7751 73.875 57.7875 72.75 57.7875 71.375V22.8751C57.7875 21.5001 56.7751 20.3751 55.5375 20.3751Z" fill="#40596B"/>
<path d="M23.8013 23.4049H54.9638V70.6549H23.8013V23.4049Z" fill="#F2F2F2"/>
<path d="M46.425 18.0001H32.3626C31.125 18.0001 30.1125 19.1251 30.1125 20.5001V25.1251H48.675V20.5001C48.675 19.1251 47.6625 18.0001 46.425 18.0001Z" fill="#FF7058"/>
<path d="M26.0625 27.4999H38.4375V41.6249H26.0625V27.4999Z" fill="#84DBFF"/>
<path d="M41.025 38.75H52.725V41.625H41.025V38.75Z" fill="#CDD6E0"/>
<path d="M26.0625 45.375H52.725V48.2501H26.0625V45.375Z" fill="#CDD6E0"/>
<path d="M26.0625 51.8749H52.725V54.75H26.0625V51.8749Z" fill="#CDD6E0"/>
<path d="M26.0625 58.5H52.725V61.3751H26.0625V58.5Z" fill="#CDD6E0"/>
<path d="M26.0625 65.125H40.0124V68.0001H26.0625V65.125Z" fill="#CDD6E0"/>
<path d="M38.4375 41.375V41.75H26.0625V41.375C26.2875 41.25 26.5125 41.125 26.7374 41C27.8624 40.4999 29.325 39.75 29.9999 39.2499C30.1124 39.2499 30.1124 39.1249 30.2249 39.1249C30.2249 39.1249 30.3374 37.7499 30.3374 37.6249C30.3374 37.6249 29.6625 36.4999 29.3249 35.4999C29.0999 35.4999 28.8749 35.1249 28.7625 34.4999C28.65 33.875 28.7625 33.3749 28.9875 33.3749C28.875 32.1249 28.875 28.625 32.3625 28.625C35.85 28.4999 35.85 32.1249 35.7375 33.3749C35.9626 33.3749 36.0751 33.9999 35.9626 34.4999C35.85 35.125 35.625 35.4999 35.4001 35.4999C35.0626 36.4999 34.3876 37.6249 34.3876 37.6249C34.3876 37.7499 34.5001 39.1249 34.5001 39.1249C34.6126 39.1249 34.6126 39.2499 34.7252 39.2499C35.4001 39.75 36.8626 40.4999 37.9877 41C37.9875 41.125 38.2125 41.25 38.4375 41.375Z" fill="#40596B"/>
<path d="M72.75 49.3749H53.7375C52.5 49.3749 51.4875 50.4999 51.4875 51.8749V75.4999C51.4875 76.8749 52.5 77.9999 53.7375 77.9999H72.75C73.9875 77.9999 75 76.8749 75 75.4999V51.8749C75 50.4999 73.9875 49.3749 72.75 49.3749Z" fill="#334A5E"/>
<path d="M52.9961 50.9849H73.471V58.4849H52.9961V50.9849Z" fill="#ACB3BA"/>
<path d="M53.175 60.875H58.4625V64.8751H53.175V60.875Z" fill="#CDD6E0"/>
<path d="M60.6 60.875H65.8875V64.8751H60.6V60.875Z" fill="#CDD6E0"/>
<path d="M68.25 60.875H73.5375V64.8751H68.25V60.875Z" fill="#CDD6E0"/>
<path d="M53.1751 66.4998H58.4625V70.4999H53.1751V66.4998Z" fill="#CDD6E0"/>
<path d="M60.6 66.4998H65.8875V70.4999H60.6V66.4998Z" fill="#CDD6E0"/>
<path d="M68.25 66.4998H73.5375V70.4999H68.25V66.4998Z" fill="#CDD6E0"/>
<path d="M53.1751 72.125H58.4625V76.125H53.1751V72.125Z" fill="#CDD6E0"/>
<path d="M60.6 72.125H65.8875V76.125H60.6V72.125Z" fill="#CDD6E0"/>
<path d="M68.25 72.125H73.5375V76.125H68.25V72.125Z" fill="#CDD6E0"/>
</svg>
