<svg width="96" height="96" viewBox="0 0 96 96" fill="none" xmlns="http://www.w3.org/2000/svg">
<rect x="-3.05176e-05" y="9.15527e-05" width="96" height="96" rx="15" fill="#131C73"/>
<path fill-rule="evenodd" clip-rule="evenodd" d="M18.9999 61.0001H77V65.0001H18.9999V61.0001Z" fill="#BD7575"/>
<path d="M35.1979 44.9084L33.6663 45.4128L34.0674 43.9755L35.1979 44.9084ZM23.2988 51.3417L21.5696 50.4472L27.3692 38.448L34.0674 43.9755L38.1322 29.4087L46.696 53.6404L59.4531 30.2828L74.942 42.4262L73.7743 44.0202L60.0483 33.2589L46.3186 58.3971L38.3484 35.8451L35.1228 47.4048L28.0305 41.5521L23.2988 51.3417Z" fill="white"/>
<path fill-rule="evenodd" clip-rule="evenodd" d="M44.1333 65.0025C44.1333 62.7921 45.8609 60.7944 47.9655 60.5437L60.5666 59.0427L73.1678 60.5437C75.2843 60.7958 77 62.792 77 65.0025V72.0001H44.1333V65.0025Z" fill="#FF78C7"/>
<path fill-rule="evenodd" clip-rule="evenodd" d="M49.9333 39.0002H71.2V54.0076C71.2 55.6604 69.9016 57.0002 68.2986 57.0002H52.8346C51.2323 57.0002 49.9333 55.6473 49.9333 54.0076V39.0002Z" fill="#ED9111"/>
<path fill-rule="evenodd" clip-rule="evenodd" d="M54.7666 55.2212C51.8568 53.2585 49.9333 49.8617 49.9333 46.0002C49.9333 39.925 54.694 35.0002 60.5666 35.0002C66.4392 35.0002 71.2 39.925 71.2 46.0002C71.2 49.8617 69.2765 53.2585 66.3666 55.2212V61.0001C66.3666 61.0001 62.4348 62.4488 60.5666 62.4488C58.6985 62.4488 54.7666 61.0001 54.7666 61.0001V55.2212Z" fill="#FFDD95"/>
<path fill-rule="evenodd" clip-rule="evenodd" d="M49.9333 35.0001C49.9333 32.2386 52.0951 30.0001 54.7685 30.0001H73.1333V35.0001C73.1333 37.7615 70.9715 40.0001 68.298 40.0001H49.9333V35.0001Z" fill="#ED9111"/>
</svg>
