<svg width="96" height="96" viewBox="0 0 96 96" fill="none" xmlns="http://www.w3.org/2000/svg">
<rect width="96" height="96" rx="15" fill="#131C73"/>
<path fill-rule="evenodd" clip-rule="evenodd" d="M19 61H77V65H19V61Z" fill="#BD7575"/>
<path d="M35.1981 44.9084L33.6665 45.4128L34.0676 43.9755L35.1981 44.9084ZM23.299 51.3416L21.5698 50.4472L27.3694 38.448L34.0676 43.9755L38.1324 29.4087L46.6962 53.6403L59.4533 30.2828L74.9422 42.4262L73.7744 44.0201L60.0485 33.2589L46.3188 58.3971L38.3486 35.8451L35.1229 47.4048L28.0306 41.552L23.299 51.3416Z" fill="white"/>
<path fill-rule="evenodd" clip-rule="evenodd" d="M44.1333 65.0024C44.1333 62.7919 45.8609 60.7942 47.9655 60.5436L60.5667 59.0426L73.1679 60.5436C75.2843 60.7956 77 62.7918 77 65.0024V72H44.1333V65.0024Z" fill="#FF78C7"/>
<path fill-rule="evenodd" clip-rule="evenodd" d="M49.9333 39H71.2V54.0075C71.2 55.6602 69.9017 57 68.2986 57H52.8347C51.2323 57 49.9333 55.6471 49.9333 54.0075V39Z" fill="#ED9111"/>
<path fill-rule="evenodd" clip-rule="evenodd" d="M54.7667 55.2211C51.8568 53.2584 49.9333 49.8616 49.9333 46C49.9333 39.9249 54.694 35 60.5667 35C66.4393 35 71.2 39.9249 71.2 46C71.2 49.8616 69.2765 53.2584 66.3667 55.2211V61C66.3667 61 62.4348 62.4487 60.5667 62.4487C58.6985 62.4487 54.7667 61 54.7667 61V55.2211Z" fill="#FFDD95"/>
<path fill-rule="evenodd" clip-rule="evenodd" d="M49.9333 35C49.9333 32.2386 52.0951 30 54.7686 30H73.1333V35C73.1333 37.7614 70.9716 40 68.2981 40H49.9333V35Z" fill="#ED9111"/>
</svg>
