<svg width="96" height="96" viewBox="0 0 96 96" fill="none" xmlns="http://www.w3.org/2000/svg">
<rect width="96" height="96" rx="15" fill="#131C73"/>
<path d="M53.5301 66.5325C55.5055 66.5325 57.3153 66.803 58.6441 67.2403C60.3314 67.7955 61.375 68.7221 61.375 69.8884C61.375 71.0547 60.3314 71.9814 58.6441 72.5366C57.3153 72.9738 55.5055 73.2443 53.5301 73.2443C51.5547 73.2443 49.7449 72.9738 48.4161 72.5366C46.7288 71.9814 45.6851 71.0547 45.6851 69.8884C45.6851 68.7221 46.7288 67.7955 48.4161 67.2403C49.7449 66.803 51.5547 66.5325 53.5301 66.5325ZM58.0312 69.3727C56.8994 69.0002 55.3095 68.7698 53.5301 68.7698C51.7507 68.7698 50.1608 69.0002 49.029 69.3727C48.2556 69.6271 47.7772 69.8192 47.7772 69.8884C47.7772 69.9577 48.2556 70.1497 49.029 70.4042C50.1608 70.7766 51.7507 71.007 53.5301 71.007C55.3095 71.007 56.8994 70.7766 58.0312 70.4042C58.8046 70.1497 59.283 69.9577 59.283 69.8884C59.283 69.8192 58.8046 69.6271 58.0312 69.3727Z" fill="white"/>
<path fill-rule="evenodd" clip-rule="evenodd" d="M47.7772 69.8885C47.7772 69.9577 48.2556 70.1498 49.029 70.4042C50.1608 70.7766 51.7507 71.007 53.5301 71.007C55.3095 71.007 56.8994 70.7766 58.0312 70.4042C58.8046 70.1498 59.283 69.9577 59.283 69.8885C59.283 69.8192 58.8046 69.6271 58.0312 69.3727C56.8994 69.0002 55.3095 68.7699 53.5301 68.7699C51.7507 68.7699 50.1608 69.0002 49.029 69.3727C48.2556 69.6271 47.7772 69.8192 47.7772 69.8885Z" fill="white"/>
<path d="M53.5301 63.1766C55.5055 63.1766 57.3153 63.4471 58.6441 63.8844C60.3314 64.4396 61.375 65.3662 61.375 66.5325C61.375 67.6988 60.3314 68.6255 58.6441 69.1807C57.3153 69.6179 55.5055 69.8884 53.5301 69.8884C51.5547 69.8884 49.7449 69.6179 48.4161 69.1807C46.7288 68.6255 45.6851 67.6988 45.6851 66.5325C45.6851 65.3662 46.7288 64.4396 48.4161 63.8844C49.7449 63.4471 51.5547 63.1766 53.5301 63.1766ZM58.0312 66.0167C56.8994 65.6443 55.3095 65.4139 53.5301 65.4139C51.7507 65.4139 50.1608 65.6443 49.029 66.0167C48.2556 66.2712 47.7772 66.4633 47.7772 66.5325C47.7772 66.6018 48.2556 66.7938 49.029 67.0483C50.1608 67.4207 51.7507 67.6511 53.5301 67.6511C55.3095 67.6511 56.8994 67.4207 58.0312 67.0483C58.8046 66.7938 59.283 66.6018 59.283 66.5325C59.283 66.4633 58.8046 66.2712 58.0312 66.0167Z" fill="white"/>
<path fill-rule="evenodd" clip-rule="evenodd" d="M47.7772 66.5325C47.7772 66.6018 48.2556 66.7938 49.029 67.0483C50.1608 67.4207 51.7507 67.6511 53.5301 67.6511C55.3095 67.6511 56.8994 67.4207 58.0312 67.0483C58.8046 66.7938 59.283 66.6018 59.283 66.5325C59.283 66.4633 58.8046 66.2712 58.0312 66.0168C56.8994 65.6443 55.3095 65.4139 53.5301 65.4139C51.7507 65.4139 50.1608 65.6443 49.029 66.0168C48.2556 66.2712 47.7772 66.4633 47.7772 66.5325Z" fill="white"/>
<path d="M53.5301 59.8208C55.5055 59.8208 57.3153 60.0913 58.6441 60.5286C60.3314 61.0837 61.375 62.0104 61.375 63.1767C61.375 64.343 60.3314 65.2697 58.6441 65.8248C57.3153 66.2621 55.5055 66.5326 53.5301 66.5326C51.5547 66.5326 49.7449 66.2621 48.4161 65.8248C46.7288 65.2697 45.6851 64.343 45.6851 63.1767C45.6851 62.0104 46.7288 61.0837 48.4161 60.5286C49.7449 60.0913 51.5547 59.8208 53.5301 59.8208ZM58.0312 62.6609C56.8994 62.2885 55.3095 62.0581 53.5301 62.0581C51.7507 62.0581 50.1608 62.2885 49.029 62.6609C48.2556 62.9154 47.7772 63.1074 47.7772 63.1767C47.7772 63.2459 48.2556 63.438 49.029 63.6924C50.1608 64.0649 51.7507 64.2953 53.5301 64.2953C55.3095 64.2953 56.8994 64.0649 58.0312 63.6924C58.8046 63.438 59.283 63.2459 59.283 63.1767C59.283 63.1074 58.8046 62.9154 58.0312 62.6609Z" fill="white"/>
<path fill-rule="evenodd" clip-rule="evenodd" d="M47.7772 63.1766C47.7772 63.2458 48.2556 63.4379 49.029 63.6923C50.1608 64.0648 51.7507 64.2952 53.5301 64.2952C55.3095 64.2952 56.8994 64.0648 58.0312 63.6923C58.8046 63.4379 59.283 63.2458 59.283 63.1766C59.283 63.1073 58.8046 62.9153 58.0312 62.6608C56.8994 62.2884 55.3095 62.058 53.5301 62.058C51.7507 62.058 50.1608 62.2884 49.029 62.6608C48.2556 62.9153 47.7772 63.1073 47.7772 63.1766Z" fill="white"/>
<path d="M53.5301 56.4648C55.5055 56.4648 57.3153 56.7353 58.6441 57.1726C60.3314 57.7278 61.375 58.6545 61.375 59.8208C61.375 60.9871 60.3314 61.9137 58.6441 62.4689C57.3153 62.9061 55.5055 63.1766 53.5301 63.1766C51.5547 63.1766 49.7449 62.9061 48.4161 62.4689C46.7288 61.9137 45.6851 60.9871 45.6851 59.8208C45.6851 58.6545 46.7288 57.7278 48.4161 57.1726C49.7449 56.7353 51.5547 56.4648 53.5301 56.4648ZM58.0312 59.305C56.8994 58.9325 55.3095 58.7021 53.5301 58.7021C51.7507 58.7021 50.1608 58.9325 49.029 59.305C48.2556 59.5594 47.7772 59.7515 47.7772 59.8207C47.7772 59.89 48.2556 60.082 49.029 60.3365C50.1608 60.7089 51.7507 60.9393 53.5301 60.9393C55.3095 60.9393 56.8994 60.7089 58.0312 60.3365C58.8046 60.082 59.283 59.89 59.283 59.8207C59.283 59.7515 58.8046 59.5594 58.0312 59.305Z" fill="white"/>
<path fill-rule="evenodd" clip-rule="evenodd" d="M47.7772 59.8208C47.7772 59.89 48.2556 60.0821 49.029 60.3365C50.1608 60.709 51.7507 60.9393 53.5301 60.9393C55.3095 60.9393 56.8994 60.709 58.0312 60.3365C58.8046 60.0821 59.283 59.89 59.283 59.8208C59.283 59.7515 58.8046 59.5594 58.0312 59.305C56.8994 58.9326 55.3095 58.7022 53.5301 58.7022C51.7507 58.7022 50.1608 58.9326 49.029 59.305C48.2556 59.5595 47.7772 59.7515 47.7772 59.8208Z" fill="white"/>
<path d="M25.68 59.5715L40.0794 40.6564L40.7448 39.7824L41.5999 40.4356L50.8426 47.4954L68.467 22.6822L70.2512 24.1298L51.9675 49.8713L51.3081 50.7996L50.425 50.1251L41.1543 43.0438L27.4202 61.0847L25.68 59.5715Z" fill="white"/>
<path d="M62.3655 22.5344L69.8032 21.2084L70.9106 21.011L71.0952 22.1953L72.32 30.0526L70.1052 30.4474L69.065 23.7745L62.7347 24.903L62.3655 22.5344Z" fill="white"/>
<path d="M53.5301 53.1094C55.5055 53.1094 57.3153 53.3799 58.6441 53.8171C60.3314 54.3723 61.375 55.299 61.375 56.4653C61.375 57.6316 60.3314 58.5583 58.6441 59.1134C57.3153 59.5507 55.5055 59.8212 53.5301 59.8212C51.5547 59.8212 49.7449 59.5507 48.4161 59.1134C46.7288 58.5583 45.6851 57.6316 45.6851 56.4653C45.6851 55.299 46.7288 54.3723 48.4161 53.8171C49.7449 53.3799 51.5547 53.1094 53.5301 53.1094ZM58.0312 55.9495C56.8994 55.5771 55.3095 55.3467 53.5301 55.3467C51.7507 55.3467 50.1608 55.5771 49.029 55.9495C48.2556 56.2039 47.7772 56.396 47.7772 56.4653C47.7772 56.5345 48.2556 56.7266 49.029 56.981C50.1608 57.3535 51.7507 57.5838 53.5301 57.5838C55.3095 57.5838 56.8994 57.3535 58.0312 56.981C58.8046 56.7266 59.283 56.5345 59.283 56.4653C59.283 56.396 58.8046 56.2039 58.0312 55.9495Z" fill="white"/>
<path fill-rule="evenodd" clip-rule="evenodd" d="M47.7772 56.4652C47.7772 56.5345 48.2556 56.7265 49.029 56.981C50.1608 57.3534 51.7507 57.5838 53.5301 57.5838C55.3095 57.5838 56.8994 57.3534 58.0312 56.981C58.8046 56.7265 59.283 56.5345 59.283 56.4652C59.283 56.3959 58.8046 56.2039 58.0312 55.9494C56.8994 55.577 55.3095 55.3466 53.5301 55.3466C51.7507 55.3466 50.1608 55.577 49.029 55.9494C48.2556 56.2039 47.7772 56.3959 47.7772 56.4652Z" fill="white"/>
<path d="M34.375 66.5325C36.3504 66.5325 38.1602 66.803 39.4891 67.2403C41.1763 67.7955 42.22 68.7221 42.22 69.8884C42.22 71.0547 41.1763 71.9814 39.4891 72.5366C38.1602 72.9738 36.3504 73.2443 34.375 73.2443C32.3996 73.2443 30.5899 72.9738 29.261 72.5366C27.5737 71.9814 26.5301 71.0547 26.5301 69.8884C26.5301 68.7221 27.5737 67.7955 29.261 67.2403C30.5899 66.803 32.3996 66.5325 34.375 66.5325ZM38.8762 69.3727C37.7444 69.0002 36.1545 68.7698 34.375 68.7698C32.5956 68.7698 31.0057 69.0002 29.8739 69.3727C29.1006 69.6271 28.6221 69.8192 28.6221 69.8884C28.6221 69.9577 29.1005 70.1497 29.8739 70.4042C31.0057 70.7766 32.5956 71.007 34.375 71.007C36.1545 71.007 37.7444 70.7766 38.8762 70.4042C39.6496 70.1497 40.128 69.9577 40.128 69.8884C40.128 69.8192 39.6495 69.6271 38.8762 69.3727Z" fill="white"/>
<path fill-rule="evenodd" clip-rule="evenodd" d="M28.6221 69.8885C28.6221 69.9577 29.1005 70.1498 29.8739 70.4042C31.0057 70.7766 32.5956 71.007 34.3751 71.007C36.1545 71.007 37.7444 70.7766 38.8762 70.4042C39.6496 70.1498 40.128 69.9577 40.128 69.8885C40.128 69.8192 39.6495 69.6271 38.8762 69.3727C37.7444 69.0002 36.1545 68.7699 34.3751 68.7699C32.5956 68.7699 31.0057 69.0002 29.8739 69.3727C29.1006 69.6271 28.6221 69.8192 28.6221 69.8885Z" fill="white"/>
<path d="M34.375 63.0724C36.3504 63.0724 38.1602 63.3429 39.4891 63.7801C41.1763 64.3353 42.22 65.262 42.22 66.4283C42.22 67.5946 41.1763 68.5213 39.4891 69.0764C38.1602 69.5137 36.3504 69.7842 34.375 69.7842C32.3996 69.7842 30.5899 69.5137 29.261 69.0764C27.5737 68.5213 26.5301 67.5946 26.5301 66.4283C26.5301 65.262 27.5737 64.3353 29.261 63.7801C30.5899 63.3429 32.3996 63.0724 34.375 63.0724ZM38.8762 65.9125C37.7444 65.5401 36.1545 65.3097 34.375 65.3097C32.5956 65.3097 31.0057 65.5401 29.8739 65.9125C29.1006 66.167 28.6221 66.359 28.6221 66.4283C28.6221 66.4975 29.1005 66.6896 29.8739 66.944C31.0057 67.3165 32.5956 67.5469 34.375 67.5469C36.1545 67.5469 37.7444 67.3165 38.8762 66.944C39.6496 66.6896 40.128 66.4975 40.128 66.4283C40.128 66.359 39.6495 66.167 38.8762 65.9125Z" fill="white"/>
<path fill-rule="evenodd" clip-rule="evenodd" d="M28.622 66.4283C28.622 66.4975 29.1004 66.6896 29.8738 66.944C31.0056 67.3165 32.5955 67.5469 34.375 67.5469C36.1544 67.5469 37.7443 67.3165 38.8761 66.944C39.6495 66.6896 40.1279 66.4975 40.1279 66.4283C40.1279 66.359 39.6494 66.167 38.8761 65.9125C37.7443 65.5401 36.1544 65.3097 34.375 65.3097C32.5955 65.3097 31.0056 65.5401 29.8738 65.9125C29.1005 66.167 28.622 66.359 28.622 66.4283Z" fill="white"/>
</svg>
