<svg width="96" height="96" viewBox="0 0 96 96" fill="none" xmlns="http://www.w3.org/2000/svg">
<rect x="-7.62939e-06" y="9.15527e-05" width="96" height="96" rx="15" fill="#131C73"/>
<path fill-rule="evenodd" clip-rule="evenodd" d="M23 63.0002H81V67.0002H23V63.0002Z" fill="#BD7575"/>
<path fill-rule="evenodd" clip-rule="evenodd" d="M23 24.0001H81V63.0001H23V24.0001Z" fill="#6B6B6B"/>
<path d="M39.1981 46.9085L37.6665 47.4129L38.0676 45.9756L39.1981 46.9085ZM27.299 53.3417L25.5698 52.4473L31.3694 40.4481L38.0676 45.9756L42.1324 31.4088L50.6962 55.6404L63.4533 32.2829L78.9422 44.4263L77.7745 46.0202L64.0485 35.259L50.3188 60.3972L42.3486 37.8452L39.123 49.4049L32.0306 43.5521L27.299 53.3417Z" fill="white"/>
<path fill-rule="evenodd" clip-rule="evenodd" d="M48.1334 67.0026C48.1334 64.7921 49.861 62.7944 51.9655 62.5438L64.5667 61.0428L77.1679 62.5438C79.2843 62.7959 81 64.792 81 67.0026V74.0002H48.1334V67.0026Z" fill="#FF78C7"/>
<path fill-rule="evenodd" clip-rule="evenodd" d="M53.9333 41.0002H75.2V56.0076C75.2 57.6603 73.9017 59.0001 72.2987 59.0001H56.8347C55.2323 59.0001 53.9333 57.6472 53.9333 56.0076V41.0002Z" fill="#ED9111"/>
<path fill-rule="evenodd" clip-rule="evenodd" d="M58.7667 57.2213C55.8568 55.2586 53.9333 51.8618 53.9333 48.0002C53.9333 41.9251 58.694 37.0002 64.5667 37.0002C70.4393 37.0002 75.2 41.9251 75.2 48.0002C75.2 51.8618 73.2765 55.2586 70.3667 57.2213V63.0002C70.3667 63.0002 66.4348 64.4489 64.5667 64.4489C62.6985 64.4489 58.7667 63.0002 58.7667 63.0002V57.2213Z" fill="#FFDD95"/>
<path fill-rule="evenodd" clip-rule="evenodd" d="M53.9333 37.0002C53.9333 34.2388 56.0951 32.0002 58.7686 32.0002H77.1333V37.0002C77.1333 39.7616 74.9716 42.0002 72.2981 42.0002H53.9333V37.0002Z" fill="#ED9111"/>
</svg>
