<svg width="96" height="96" viewBox="0 0 96 96" fill="none" xmlns="http://www.w3.org/2000/svg">
<rect width="96" height="96" rx="15" fill="#131C73"/>
<path fill-rule="evenodd" clip-rule="evenodd" d="M23 63H81V67H23V63Z" fill="#BD7575"/>
<path fill-rule="evenodd" clip-rule="evenodd" d="M23 24H81V63H23V24Z" fill="#6B6B6B"/>
<path d="M39.1981 46.9084L37.6665 47.4128L38.0676 45.9755L39.1981 46.9084ZM27.299 53.3416L25.5698 52.4472L31.3694 40.448L38.0676 45.9755L42.1324 31.4087L50.6962 55.6403L63.4533 32.2828L78.9422 44.4262L77.7744 46.0201L64.0485 35.2589L50.3188 60.3971L42.3486 37.8451L39.123 49.4048L32.0306 43.552L27.299 53.3416Z" fill="white"/>
<path fill-rule="evenodd" clip-rule="evenodd" d="M48.1333 67.0024C48.1333 64.7919 49.8609 62.7942 51.9655 62.5436L64.5667 61.0426L77.1679 62.5436C79.2843 62.7956 81 64.7918 81 67.0024V74H48.1333V67.0024Z" fill="#FF78C7"/>
<path fill-rule="evenodd" clip-rule="evenodd" d="M53.9333 41H75.2V56.0075C75.2 57.6602 73.9017 59 72.2987 59H56.8347C55.2323 59 53.9333 57.6471 53.9333 56.0075V41Z" fill="#ED9111"/>
<path fill-rule="evenodd" clip-rule="evenodd" d="M58.7667 57.2211C55.8568 55.2584 53.9333 51.8616 53.9333 48C53.9333 41.9249 58.694 37 64.5667 37C70.4393 37 75.2 41.9249 75.2 48C75.2 51.8616 73.2765 55.2584 70.3667 57.2211V63C70.3667 63 66.4348 64.4487 64.5667 64.4487C62.6985 64.4487 58.7667 63 58.7667 63V57.2211Z" fill="#FFDD95"/>
<path fill-rule="evenodd" clip-rule="evenodd" d="M53.9333 37C53.9333 34.2386 56.0951 32 58.7686 32H77.1333V37C77.1333 39.7614 74.9716 42 72.2981 42H53.9333V37Z" fill="#ED9111"/>
</svg>
