<svg width="96" height="96" viewBox="0 0 96 96" fill="none" xmlns="http://www.w3.org/2000/svg">
<rect width="96" height="96" rx="15" fill="#131C73"/>
<path d="M48 43.3333H52V37.5833H58V33.75H52V28H48V33.75H42V37.5833H48V43.3333ZM40 60.5833C37.8 60.5833 36.02 62.3083 36.02 64.4166C36.02 66.525 37.8 68.25 40 68.25C42.2 68.25 44 66.525 44 64.4166C44 62.3083 42.2 60.5833 40 60.5833ZM60 60.5833C57.8 60.5833 56.02 62.3083 56.02 64.4166C56.02 66.525 57.8 68.25 60 68.25C62.2 68.25 64 66.525 64 64.4166C64 62.3083 62.2 60.5833 60 60.5833ZM40.34 54.3541L40.4 54.1241L42.2 51H57.1C58.6 51 59.92 50.2141 60.6 49.0258L68.32 35.59L64.84 33.75H64.82L62.62 37.5833L57.1 47.1666H43.06L42.8 46.6491L38.32 37.5833L36.42 33.75L34.54 29.9166H28V33.75H32L39.2 48.2975L36.5 52.9933C36.18 53.53 36 54.1625 36 54.8333C36 56.9416 37.8 58.6666 40 58.6666H64V54.8333H40.84C40.58 54.8333 40.34 54.6225 40.34 54.3541Z" fill="white"/>
</svg>
