<svg width="96" height="96" viewBox="0 0 96 96" fill="none" xmlns="http://www.w3.org/2000/svg">
<rect y="9.15527e-05" width="96" height="96" rx="15" fill="#131C73"/>
<path d="M48 55.3751C53.2467 55.3751 57.5 51.8494 57.5 47.5001C57.5 43.1509 53.2467 39.6251 48 39.6251C42.7533 39.6251 38.5 43.1509 38.5 47.5001C38.5 51.8494 42.7533 55.3751 48 55.3751Z" stroke="white" stroke-width="3.93738" stroke-linecap="round" stroke-linejoin="round"/>
<path d="M19.5 39.6251H29V55.3751H19.5V39.6251Z" stroke="white" stroke-width="3.93738" stroke-linecap="round" stroke-linejoin="round"/>
<path d="M67 39.6251H76.5V55.3751H67V39.6251Z" stroke="white" stroke-width="3.93738" stroke-linecap="round" stroke-linejoin="round"/>
<path d="M70.1666 29.1251H25.8333C22.3355 29.1251 19.5 31.4756 19.5 34.3751V60.6251C19.5 63.5246 22.3355 65.8751 25.8333 65.8751H70.1666C73.6644 65.8751 76.5 63.5246 76.5 60.6251V34.3751C76.5 31.4756 73.6644 29.1251 70.1666 29.1251Z" stroke="white" stroke-width="3.93738" stroke-linecap="round" stroke-linejoin="round"/>
<path d="M48 29.1251V65.8751" stroke="white" stroke-width="3.93738" stroke-linecap="round" stroke-linejoin="round"/>
</svg>
