<svg width="96" height="96" viewBox="0 0 96 96" fill="none" xmlns="http://www.w3.org/2000/svg">
<rect x="-7.62939e-06" y="6.10352e-05" width="96" height="96" rx="15" fill="#131C73"/>
<path d="M26.1477 67.658H69.1009C69.6705 67.658 70.2168 67.4318 70.6196 67.029C71.0223 66.6262 71.2486 66.08 71.2486 65.5104V31.1478C71.2486 30.5782 71.0223 30.0319 70.6196 29.6291C70.2168 29.2264 69.6705 29.0001 69.1009 29.0001H26.1477C25.5781 29.0001 25.0318 29.2264 24.6291 29.6291C24.2263 30.0319 24 30.5782 24 31.1478V65.5104C24 66.08 24.2263 66.6262 24.6291 67.029C25.0318 67.4318 25.5781 67.658 26.1477 67.658ZM66.9533 52.6244H62.658V44.0337H66.9533V52.6244ZM49.772 33.2954H66.9533V39.7384H60.5103C59.9407 39.7384 59.3944 39.9647 58.9917 40.3674C58.5889 40.7702 58.3626 41.3165 58.3626 41.8861V54.772C58.3626 55.3416 58.5889 55.8879 58.9917 56.2907C59.3944 56.6934 59.9407 56.9197 60.5103 56.9197H66.9533V63.3627H49.772V56.6147C51.6138 56.146 53.2469 55.0769 54.4133 53.5764C55.5797 52.0759 56.213 50.2296 56.213 48.3291C56.213 46.4285 55.5797 44.5822 54.4133 43.0817C53.2469 41.5812 51.6138 40.5121 49.772 40.0434V33.2954ZM51.9196 48.3291C51.9196 49.1786 51.6677 50.009 51.1957 50.7154C50.7238 51.4218 50.0529 51.9723 49.2681 52.2974C48.4832 52.6225 47.6195 52.7076 46.7863 52.5419C45.9531 52.3761 45.1878 51.967 44.5871 51.3663C43.9863 50.7656 43.5773 50.0002 43.4115 49.167C43.2458 48.3338 43.3308 47.4702 43.6559 46.6853C43.981 45.9004 44.5316 45.2296 45.238 44.7576C45.9443 44.2856 46.7748 44.0337 47.6243 44.0337C48.7635 44.0337 49.856 44.4863 50.6616 45.2918C51.4671 46.0973 51.9196 47.1899 51.9196 48.3291ZM28.2953 44.0337H32.5907V52.6244H28.2953V44.0337ZM28.2953 56.9197H34.7383C35.3079 56.9197 35.8542 56.6934 36.257 56.2907C36.6597 55.8879 36.886 55.3416 36.886 54.772V41.8861C36.886 41.3165 36.6597 40.7702 36.257 40.3674C35.8542 39.9647 35.3079 39.7384 34.7383 39.7384H28.2953V33.2954H45.4766V40.0434C43.6348 40.5121 42.0017 41.5812 40.8353 43.0817C39.6689 44.5822 39.0357 46.4285 39.0357 48.3291C39.0357 50.2296 39.6689 52.0759 40.8353 53.5764C42.0017 55.0769 43.6348 56.146 45.4766 56.6147V63.3627H28.2953V56.9197Z" fill="white"/>
</svg>
