<svg width="96" height="96" viewBox="0 0 96 96" fill="none" xmlns="http://www.w3.org/2000/svg">
<rect width="96" height="96" rx="15" fill="#131C73"/>
<path d="M26.1477 67.6579H69.1009C69.6705 67.6579 70.2168 67.4317 70.6196 67.0289C71.0223 66.6261 71.2486 66.0799 71.2486 65.5103V31.1477C71.2486 30.5781 71.0223 30.0318 70.6196 29.629C70.2168 29.2263 69.6705 29 69.1009 29H26.1477C25.5781 29 25.0318 29.2263 24.629 29.629C24.2263 30.0318 24 30.5781 24 31.1477V65.5103C24 66.0799 24.2263 66.6261 24.629 67.0289C25.0318 67.4317 25.5781 67.6579 26.1477 67.6579ZM66.9533 52.6243H62.6579V44.0336H66.9533V52.6243ZM49.772 33.2953H66.9533V39.7383H60.5103C59.9407 39.7383 59.3944 39.9646 58.9916 40.3674C58.5889 40.7701 58.3626 41.3164 58.3626 41.886V54.772C58.3626 55.3416 58.5889 55.8878 58.9916 56.2906C59.3944 56.6933 59.9407 56.9196 60.5103 56.9196H66.9533V63.3626H49.772V56.6147C51.6138 56.1459 53.2469 55.0768 54.4133 53.5763C55.5797 52.0758 56.2129 50.2295 56.2129 48.329C56.2129 46.4284 55.5797 44.5821 54.4133 43.0816C53.2469 41.5811 51.6138 40.5121 49.772 40.0433V33.2953ZM51.9196 48.329C51.9196 49.1785 51.6677 50.009 51.1957 50.7153C50.7238 51.4217 50.0529 51.9722 49.268 52.2973C48.4832 52.6224 47.6195 52.7075 46.7863 52.5418C45.9531 52.376 45.1878 51.9669 44.587 51.3662C43.9863 50.7655 43.5772 50.0002 43.4115 49.1669C43.2458 48.3337 43.3308 47.4701 43.6559 46.6852C43.981 45.9004 44.5316 45.2295 45.2379 44.7575C45.9443 44.2856 46.7748 44.0336 47.6243 44.0336C48.7635 44.0336 49.856 44.4862 50.6615 45.2917C51.4671 46.0972 51.9196 47.1898 51.9196 48.329ZM28.2953 44.0336H32.5907V52.6243H28.2953V44.0336ZM28.2953 56.9196H34.7383C35.3079 56.9196 35.8542 56.6933 36.2569 56.2906C36.6597 55.8878 36.886 55.3416 36.886 54.772V41.886C36.886 41.3164 36.6597 40.7701 36.2569 40.3674C35.8542 39.9646 35.3079 39.7383 34.7383 39.7383H28.2953V33.2953H45.4766V40.0433C43.6348 40.5121 42.0017 41.5811 40.8353 43.0816C39.6689 44.5821 39.0357 46.4284 39.0357 48.329C39.0357 50.2295 39.6689 52.0758 40.8353 53.5763C42.0017 55.0768 43.6348 56.1459 45.4766 56.6147V63.3626H28.2953V56.9196Z" fill="white"/>
</svg>
