<svg width="96" height="96" viewBox="0 0 96 96" fill="none" xmlns="http://www.w3.org/2000/svg">
<rect width="96" height="96" rx="15" fill="#131C73"/>
<path d="M68.5455 31C65.3955 31 62.8182 33.7 62.8182 37V43C62.8182 46.3 65.3955 49 68.5455 49H74.2727V55H62.8182V61H74.2727C77.4227 61 80 58.3 80 55V49C80 45.7 77.4227 43 74.2727 43H68.5455V37H80V31H68.5455ZM39.9091 31V61H51.3636C54.5136 61 57.0909 58.3 57.0909 55V37C57.0909 33.7 54.5136 31 51.3636 31H39.9091ZM45.6364 37H51.3636V55H45.6364V37ZM22.7273 31C19.5773 31 17 33.7 17 37V61H22.7273V49H28.4545V61H34.1818V37C34.1818 33.7 31.6045 31 28.4545 31H22.7273ZM22.7273 37H28.4545V43H22.7273V37Z" fill="white"/>
</svg>
