<svg width="97" height="96" viewBox="0 0 97 96" fill="none" xmlns="http://www.w3.org/2000/svg">
<rect x="0.892151" y="0.000488281" width="96" height="96" rx="15" fill="#131C73"/>
<path d="M69.4376 31.0005C66.2876 31.0005 63.7103 33.7005 63.7103 37.0005V43.0005C63.7103 46.3005 66.2876 49.0005 69.4376 49.0005H75.1649V55.0005H63.7103V61.0005H75.1649C78.3149 61.0005 80.8921 58.3005 80.8921 55.0005V49.0005C80.8921 45.7005 78.3149 43.0005 75.1649 43.0005H69.4376V37.0005H80.8921V31.0005H69.4376ZM40.8012 31.0005V61.0005H52.2558C55.4058 61.0005 57.9831 58.3005 57.9831 55.0005V37.0005C57.9831 33.7005 55.4058 31.0005 52.2558 31.0005H40.8012ZM46.5285 37.0005H52.2558V55.0005H46.5285V37.0005ZM23.6194 31.0005C20.4694 31.0005 17.8922 33.7005 17.8922 37.0005V61.0005H23.6194V49.0005H29.3467V61.0005H35.074V37.0005C35.074 33.7005 32.4967 31.0005 29.3467 31.0005H23.6194ZM23.6194 37.0005H29.3467V43.0005H23.6194V37.0005Z" fill="white"/>
</svg>
