<svg width="96" height="96" viewBox="0 0 96 96" fill="none" xmlns="http://www.w3.org/2000/svg">
<rect y="0.000488281" width="96" height="96" rx="15" fill="#131C73"/>
<path d="M3.82564 59V48.0909H8.33203C9.14879 48.0909 9.85369 48.2507 10.4467 48.5703C11.0433 48.8864 11.5032 49.3285 11.8263 49.8967C12.1495 50.4613 12.3111 51.1183 12.3111 51.8675C12.3111 52.6204 12.146 53.2791 11.8157 53.8438C11.489 54.4048 11.022 54.8398 10.4148 55.1488C9.80753 55.4577 9.08665 55.6122 8.25213 55.6122H5.47159V53.5348H7.76207C8.1598 53.5348 8.49183 53.4656 8.75817 53.3271C9.02805 53.1886 9.23224 52.995 9.37074 52.7464C9.50923 52.4943 9.57848 52.2013 9.57848 51.8675C9.57848 51.5302 9.50923 51.239 9.37074 50.994C9.23224 50.7454 9.02805 50.5536 8.75817 50.4187C8.48828 50.2837 8.15625 50.2163 7.76207 50.2163H6.46236V59H3.82564ZM20.2106 48.0909H22.842V55.1275C22.842 55.9407 22.6484 56.6491 22.2614 57.2528C21.8743 57.853 21.3345 58.3182 20.642 58.6484C19.9496 58.9751 19.1452 59.1385 18.229 59.1385C17.3022 59.1385 16.4925 58.9751 15.8001 58.6484C15.1076 58.3182 14.5696 57.853 14.1861 57.2528C13.8026 56.6491 13.6108 55.9407 13.6108 55.1275V48.0909H16.2475V54.8984C16.2475 55.2749 16.3292 55.6104 16.4925 55.9052C16.6594 56.1999 16.892 56.4308 17.1903 56.5977C17.4886 56.7646 17.8349 56.848 18.229 56.848C18.6232 56.848 18.9677 56.7646 19.2624 56.5977C19.5607 56.4308 19.7933 56.1999 19.9602 55.9052C20.1271 55.6104 20.2106 55.2749 20.2106 54.8984V48.0909ZM24.4946 59V48.0909H29.0436C29.8604 48.0909 30.5439 48.2063 31.0944 48.4371C31.6483 48.668 32.0638 48.9911 32.3408 49.4066C32.6214 49.8221 32.7616 50.3033 32.7616 50.8501C32.7616 51.2656 32.6746 51.6367 32.5006 51.9634C32.3266 52.2866 32.0869 52.5547 31.7815 52.7678C31.4761 52.9808 31.1228 53.13 30.7215 53.2152V53.3217C31.1618 53.343 31.5684 53.462 31.9413 53.6786C32.3177 53.8952 32.6196 54.1971 32.8469 54.5842C33.0741 54.9677 33.1878 55.4222 33.1878 55.9478C33.1878 56.5337 33.0386 57.0575 32.7403 57.5192C32.442 57.9773 32.0106 58.3395 31.4459 58.6058C30.8813 58.8686 30.1959 59 29.3898 59H24.4946ZM27.1313 56.8746H28.7613C29.333 56.8746 29.7538 56.7663 30.0237 56.5497C30.2971 56.3331 30.4339 56.0312 30.4339 55.6442C30.4339 55.3636 30.3682 55.1222 30.2368 54.9197C30.1054 54.7138 29.9189 54.5558 29.6775 54.4457C29.436 54.332 29.1466 54.2752 28.8092 54.2752H27.1313V56.8746ZM27.1313 52.576H28.5908C28.8785 52.576 29.1341 52.5281 29.3579 52.4322C29.5816 52.3363 29.7556 52.1978 29.8799 52.0167C30.0077 51.8356 30.0716 51.6172 30.0716 51.3615C30.0716 50.9957 29.942 50.7081 29.6828 50.4986C29.4236 50.2891 29.0738 50.1843 28.6334 50.1843H27.1313V52.576ZM34.4555 59V48.0909H37.0922V56.8587H41.6306V59H34.4555ZM45.6323 48.0909V59H42.9956V48.0909H45.6323ZM57.1899 52.0433H54.5265C54.491 51.7699 54.4182 51.5231 54.3081 51.3029C54.1981 51.0827 54.0525 50.8945 53.8714 50.7383C53.6903 50.582 53.4754 50.4631 53.2268 50.3814C52.9818 50.2962 52.7101 50.2536 52.4118 50.2536C51.8827 50.2536 51.4264 50.3832 51.0429 50.6424C50.6629 50.9016 50.3699 51.2763 50.164 51.7663C49.9616 52.2564 49.8604 52.8494 49.8604 53.5455C49.8604 54.2699 49.9633 54.8771 50.1693 55.3672C50.3788 55.8537 50.6718 56.2212 51.0482 56.4698C51.4282 56.7148 51.8774 56.8374 52.3959 56.8374C52.6871 56.8374 52.9516 56.8001 53.1895 56.7255C53.431 56.6509 53.6423 56.5426 53.8234 56.4006C54.0081 56.255 54.159 56.0792 54.2762 55.8732C54.3969 55.6637 54.4804 55.4276 54.5265 55.1648L57.1899 55.1808C57.1437 55.6637 57.0035 56.1396 56.7691 56.6083C56.5383 57.0771 56.2204 57.505 55.8156 57.892C55.4108 58.2756 54.9172 58.581 54.3348 58.8082C53.7559 59.0355 53.0919 59.1491 52.3426 59.1491C51.3554 59.1491 50.4711 58.9325 49.6899 58.4993C48.9122 58.0625 48.2979 57.4268 47.8469 56.5923C47.3959 55.7578 47.1704 54.7422 47.1704 53.5455C47.1704 52.3452 47.3994 51.3278 47.8575 50.4933C48.3156 49.6587 48.9353 49.0249 49.7165 48.5916C50.4978 48.1584 51.3731 47.9418 52.3426 47.9418C53.0031 47.9418 53.6139 48.0341 54.175 48.2188C54.7361 48.3999 55.2297 48.6662 55.6558 49.0178C56.0819 49.3658 56.4282 49.7937 56.6945 50.3015C56.9608 50.8093 57.126 51.3899 57.1899 52.0433ZM61.3354 48.0909V59H58.6987V48.0909H61.3354ZM67.023 59H62.9907V48.0909H67.0177C68.1292 48.0909 69.0862 48.3093 69.8888 48.7461C70.6949 49.1793 71.3163 49.8043 71.7531 50.6211C72.1899 51.4343 72.4083 52.4073 72.4083 53.5401C72.4083 54.6765 72.1899 55.6531 71.7531 56.4698C71.3199 57.2866 70.7002 57.9134 69.8941 58.3501C69.088 58.7834 68.1309 59 67.023 59ZM65.6274 56.7521H66.9218C67.5326 56.7521 68.0493 56.6491 68.4719 56.4432C68.898 56.2337 69.2194 55.8945 69.436 55.4258C69.6562 54.9535 69.7662 54.3249 69.7662 53.5401C69.7662 52.7553 69.6562 52.1303 69.436 51.6651C69.2158 51.1964 68.8909 50.859 68.4612 50.6531C68.0351 50.4435 67.5095 50.3388 66.8845 50.3388H65.6274V56.7521ZM75.6629 59H72.8291L76.5099 48.0909H80.0202L83.7009 59H80.8671L78.305 50.8395H78.2197L75.6629 59ZM75.2847 54.7067H81.208V56.7095H75.2847V54.7067ZM88.9078 59H84.8754V48.0909H88.9024C90.0139 48.0909 90.971 48.3093 91.7735 48.7461C92.5796 49.1793 93.2011 49.8043 93.6379 50.6211C94.0747 51.4343 94.2931 52.4073 94.2931 53.5401C94.2931 54.6765 94.0747 55.6531 93.6379 56.4698C93.2046 57.2866 92.585 57.9134 91.7789 58.3501C90.9727 58.7834 90.0157 59 88.9078 59ZM87.5122 56.7521H88.8066C89.4173 56.7521 89.934 56.6491 90.3566 56.4432C90.7828 56.2337 91.1041 55.8945 91.3208 55.4258C91.5409 54.9535 91.651 54.3249 91.651 53.5401C91.651 52.7553 91.5409 52.1303 91.3208 51.6651C91.1006 51.1964 90.7757 50.859 90.346 50.6531C89.9198 50.4435 89.3943 50.3388 88.7693 50.3388H87.5122V56.7521Z" fill="white"/>
</svg>
