<svg width="96" height="96" viewBox="0 0 96 96" fill="none" xmlns="http://www.w3.org/2000/svg">
<rect width="96" height="96" rx="15" fill="#131C73"/>
<path d="M2.82564 55V44.0909H7.33203C8.14879 44.0909 8.85369 44.2507 9.44673 44.5703C10.0433 44.8864 10.5032 45.3285 10.8263 45.8967C11.1495 46.4613 11.3111 47.1183 11.3111 47.8675C11.3111 48.6204 11.146 49.2791 10.8157 49.8438C10.489 50.4048 10.022 50.8398 9.41477 51.1488C8.80753 51.4577 8.08665 51.6122 7.25213 51.6122H4.47159V49.5348H6.76207C7.1598 49.5348 7.49183 49.4656 7.75817 49.3271C8.02805 49.1886 8.23224 48.995 8.37074 48.7464C8.50923 48.4943 8.57848 48.2013 8.57848 47.8675C8.57848 47.5302 8.50923 47.239 8.37074 46.994C8.23224 46.7454 8.02805 46.5536 7.75817 46.4187C7.48828 46.2837 7.15625 46.2163 6.76207 46.2163H5.46236V55H2.82564ZM19.2106 44.0909H21.842V51.1275C21.842 51.9407 21.6484 52.6491 21.2614 53.2528C20.8743 53.853 20.3345 54.3182 19.642 54.6484C18.9496 54.9751 18.1452 55.1385 17.229 55.1385C16.3022 55.1385 15.4925 54.9751 14.8001 54.6484C14.1076 54.3182 13.5696 53.853 13.1861 53.2528C12.8026 52.6491 12.6108 51.9407 12.6108 51.1275V44.0909H15.2475V50.8984C15.2475 51.2749 15.3292 51.6104 15.4925 51.9052C15.6594 52.1999 15.892 52.4308 16.1903 52.5977C16.4886 52.7646 16.8349 52.848 17.229 52.848C17.6232 52.848 17.9677 52.7646 18.2624 52.5977C18.5607 52.4308 18.7933 52.1999 18.9602 51.9052C19.1271 51.6104 19.2106 51.2749 19.2106 50.8984V44.0909ZM23.4946 55V44.0909H28.0436C28.8604 44.0909 29.5439 44.2063 30.0944 44.4371C30.6483 44.668 31.0638 44.9911 31.3408 45.4066C31.6214 45.8221 31.7616 46.3033 31.7616 46.8501C31.7616 47.2656 31.6746 47.6367 31.5006 47.9634C31.3266 48.2866 31.0869 48.5547 30.7815 48.7678C30.4761 48.9808 30.1228 49.13 29.7215 49.2152V49.3217C30.1618 49.343 30.5684 49.462 30.9413 49.6786C31.3177 49.8952 31.6196 50.1971 31.8469 50.5842C32.0741 50.9677 32.1878 51.4222 32.1878 51.9478C32.1878 52.5337 32.0386 53.0575 31.7403 53.5192C31.442 53.9773 31.0106 54.3395 30.4459 54.6058C29.8813 54.8686 29.1959 55 28.3898 55H23.4946ZM26.1313 52.8746H27.7613C28.333 52.8746 28.7538 52.7663 29.0237 52.5497C29.2971 52.3331 29.4339 52.0312 29.4339 51.6442C29.4339 51.3636 29.3682 51.1222 29.2368 50.9197C29.1054 50.7138 28.9189 50.5558 28.6775 50.4457C28.436 50.332 28.1466 50.2752 27.8092 50.2752H26.1313V52.8746ZM26.1313 48.576H27.5908C27.8785 48.576 28.1341 48.5281 28.3579 48.4322C28.5816 48.3363 28.7556 48.1978 28.8799 48.0167C29.0077 47.8356 29.0716 47.6172 29.0716 47.3615C29.0716 46.9957 28.942 46.7081 28.6828 46.4986C28.4236 46.2891 28.0738 46.1843 27.6334 46.1843H26.1313V48.576ZM33.4555 55V44.0909H36.0922V52.8587H40.6306V55H33.4555ZM44.6323 44.0909V55H41.9956V44.0909H44.6323ZM56.1899 48.0433H53.5265C53.491 47.7699 53.4182 47.5231 53.3081 47.3029C53.1981 47.0827 53.0525 46.8945 52.8714 46.7383C52.6903 46.582 52.4754 46.4631 52.2268 46.3814C51.9818 46.2962 51.7101 46.2536 51.4118 46.2536C50.8827 46.2536 50.4264 46.3832 50.0429 46.6424C49.6629 46.9016 49.3699 47.2763 49.164 47.7663C48.9616 48.2564 48.8604 48.8494 48.8604 49.5455C48.8604 50.2699 48.9633 50.8771 49.1693 51.3672C49.3788 51.8537 49.6718 52.2212 50.0482 52.4698C50.4282 52.7148 50.8774 52.8374 51.3959 52.8374C51.6871 52.8374 51.9516 52.8001 52.1895 52.7255C52.431 52.6509 52.6423 52.5426 52.8234 52.4006C53.0081 52.255 53.159 52.0792 53.2762 51.8732C53.3969 51.6637 53.4804 51.4276 53.5265 51.1648L56.1899 51.1808C56.1437 51.6637 56.0035 52.1396 55.7691 52.6083C55.5383 53.0771 55.2204 53.505 54.8156 53.892C54.4108 54.2756 53.9172 54.581 53.3348 54.8082C52.7559 55.0355 52.0919 55.1491 51.3426 55.1491C50.3554 55.1491 49.4711 54.9325 48.6899 54.4993C47.9122 54.0625 47.2979 53.4268 46.8469 52.5923C46.3959 51.7578 46.1704 50.7422 46.1704 49.5455C46.1704 48.3452 46.3994 47.3278 46.8575 46.4933C47.3156 45.6587 47.9353 45.0249 48.7165 44.5916C49.4978 44.1584 50.3731 43.9418 51.3426 43.9418C52.0031 43.9418 52.6139 44.0341 53.175 44.2188C53.7361 44.3999 54.2297 44.6662 54.6558 45.0178C55.0819 45.3658 55.4282 45.7937 55.6945 46.3015C55.9608 46.8093 56.126 47.3899 56.1899 48.0433ZM60.3354 44.0909V55H57.6987V44.0909H60.3354ZM66.023 55H61.9907V44.0909H66.0177C67.1292 44.0909 68.0862 44.3093 68.8888 44.7461C69.6949 45.1793 70.3163 45.8043 70.7531 46.6211C71.1899 47.4343 71.4083 48.4073 71.4083 49.5401C71.4083 50.6765 71.1899 51.6531 70.7531 52.4698C70.3199 53.2866 69.7002 53.9134 68.8941 54.3501C68.088 54.7834 67.1309 55 66.023 55ZM64.6274 52.7521H65.9218C66.5326 52.7521 67.0493 52.6491 67.4719 52.4432C67.898 52.2337 68.2194 51.8945 68.436 51.4258C68.6562 50.9535 68.7662 50.3249 68.7662 49.5401C68.7662 48.7553 68.6562 48.1303 68.436 47.6651C68.2158 47.1964 67.8909 46.859 67.4612 46.6531C67.0351 46.4435 66.5095 46.3388 65.8845 46.3388H64.6274V52.7521ZM74.6629 55H71.8291L75.5099 44.0909H79.0202L82.7009 55H79.8671L77.305 46.8395H77.2197L74.6629 55ZM74.2847 50.7067H80.208V52.7095H74.2847V50.7067ZM87.9078 55H83.8754V44.0909H87.9024C89.0139 44.0909 89.971 44.3093 90.7735 44.7461C91.5796 45.1793 92.2011 45.8043 92.6379 46.6211C93.0747 47.4343 93.2931 48.4073 93.2931 49.5401C93.2931 50.6765 93.0747 51.6531 92.6379 52.4698C92.2046 53.2866 91.585 53.9134 90.7789 54.3501C89.9727 54.7834 89.0157 55 87.9078 55ZM86.5122 52.7521H87.8066C88.4173 52.7521 88.934 52.6491 89.3566 52.4432C89.7828 52.2337 90.1041 51.8945 90.3208 51.4258C90.5409 50.9535 90.651 50.3249 90.651 49.5401C90.651 48.7553 90.5409 48.1303 90.3208 47.6651C90.1006 47.1964 89.7757 46.859 89.346 46.6531C88.9198 46.4435 88.3943 46.3388 87.7693 46.3388H86.5122V52.7521Z" fill="white"/>
</svg>
