<svg width="96" height="96" viewBox="0 0 96 96" fill="none" xmlns="http://www.w3.org/2000/svg">
<rect width="96" height="96" rx="15" fill="#131C73"/>
<path fill-rule="evenodd" clip-rule="evenodd" d="M49.6042 32.3955V35.4532C51.372 35.6385 52.9919 36.2635 54.3275 37.2041L56.6981 35.0569L58.2595 36.4711L55.9025 38.6058C56.9749 39.8112 57.6957 41.2839 57.924 42.8961H61.198V44.8963H57.9508C57.7634 46.5383 57.0662 48.0434 56.005 49.2794L58.2595 51.3213L56.6981 52.7354L54.4573 50.7059C53.0975 51.6983 51.4297 52.3583 49.6042 52.5496V55.3968H47.3958V52.5496C45.5704 52.3583 43.9025 51.6983 42.5428 50.7059L40.3019 52.7354L38.7406 51.3213L40.995 49.2794C39.9339 48.0434 39.2366 46.5383 39.0492 44.8963H35.8021V42.8961H39.0761C39.3044 41.2839 40.0252 39.8112 41.0976 38.6058L38.7406 36.4711L40.302 35.0569L42.6726 37.204C44.0081 36.2634 45.628 35.6385 47.3958 35.4532V32.3955H49.6042ZM48.5 40.5012C49.567 40.5012 50.5332 40.893 51.2326 41.5265C51.932 42.16 52.3646 43.035 52.3646 44.0014C52.3646 44.9679 51.932 45.8429 51.2326 46.4764C50.5332 47.1098 49.567 47.5016 48.5 47.5016C47.4329 47.5016 46.4668 47.1098 45.7674 46.4764C45.068 45.843 44.6354 44.9679 44.6354 44.0014C44.6354 43.035 45.068 42.16 45.7674 41.5265C46.4668 40.893 47.433 40.5012 48.5 40.5012Z" fill="#FFFFFE"/>
<path d="M63.889 51.5415C63.889 51.6674 63.9035 51.7994 63.934 51.9303C64.0196 52.2971 64.221 52.6884 64.5699 52.9834C64.9139 53.2742 65.4246 53.477 66.1475 53.477C66.4191 53.477 66.7118 53.4511 67.0261 53.3945C67.4555 53.2518 67.8244 52.9996 68.0866 52.6766C68.3457 52.3576 68.4984 51.9662 68.4984 51.5415V44.0862C68.4984 43.6367 68.3252 43.2234 68.0356 42.8954C67.731 42.5502 67.2968 42.2933 66.7963 42.1788L65.9993 41.9966L65.9639 41.253C65.7468 36.7023 63.708 32.6207 60.5405 29.6832C57.4112 26.7812 53.1738 25.0002 48.5062 25.0002C43.835 25.0002 39.5994 26.7791 36.4708 29.677C33.3 32.6139 31.259 36.6949 31.0367 41.2428L31.0007 41.9797L30.2086 42.1648C29.7066 42.2821 29.2716 42.5411 28.9643 42.8904C28.6739 43.2205 28.5015 43.6345 28.5015 44.0862V51.5415C28.5015 52.0915 28.7538 52.5884 29.1622 52.9476C29.5781 53.3133 30.1588 53.5392 30.8063 53.5392C32.084 53.5392 33.1119 52.6467 33.1119 51.5415H35.3203C35.3203 53.7532 33.3078 55.5394 30.8063 55.5394C29.5675 55.5394 28.4436 55.0957 27.6268 54.3774C26.8023 53.6523 26.2932 52.6501 26.2932 51.5415V44.0862C26.2932 43.1669 26.6455 42.3227 27.239 41.6482C27.6711 41.1571 28.2335 40.7576 28.8819 40.4872C29.2886 35.7008 31.5151 31.4142 34.8922 28.2863C38.4285 25.0108 43.2194 23 48.5062 23C53.7896 23 58.5826 25.0128 62.1192 28.2925C65.4927 31.4211 67.7172 35.7069 68.1192 40.4941C68.7591 40.7624 69.3188 41.162 69.7523 41.653C70.3496 42.3297 70.7068 43.1746 70.7068 44.0861V51.5415C70.7068 52.4048 70.394 53.2031 69.8637 53.8564C69.4697 54.3418 68.9543 54.7454 68.3575 55.0337C68.1657 56.6458 67.4404 60.3584 64.7823 63.8559C63.1246 66.0372 60.7233 68.1362 57.2469 69.5995C57.1403 69.9434 56.9629 70.2675 56.7236 70.5537C56.352 70.9983 55.8311 71.3548 55.1951 71.555L55.1947 71.554L51.3061 72.8172L51.3066 72.8185C50.4624 73.0961 49.5717 73.0443 48.8119 72.7378C48.0455 72.4285 47.4113 71.8587 47.0894 71.1044L47.0807 71.0888L47.0751 71.0749V71.071C46.7726 70.317 46.8363 69.5242 47.1886 68.8483C47.5375 68.1788 48.1707 67.6253 49.0109 67.3422L49.0153 67.3383L49.0316 67.3328H49.0402L52.9416 66.0654L53.6835 67.9405L49.7897 69.2054L49.7907 69.2079L49.7743 69.2134L49.7735 69.2112C49.4993 69.305 49.2937 69.4843 49.1813 69.6999C49.0721 69.9095 49.0517 70.1548 49.144 70.3878L49.1454 70.3873L49.1511 70.4013L49.1495 70.4018C49.2557 70.6374 49.4608 70.8172 49.7091 70.9174C49.9659 71.0209 50.2682 71.0381 50.5561 70.9434H50.5604L54.4619 69.676L54.4705 69.6721C54.677 69.607 54.8451 69.4926 54.9639 69.3505C55.0844 69.2063 55.1544 69.0366 55.1618 68.865L55.1893 68.2337L55.8261 67.986C59.1695 66.6856 61.4356 64.7431 62.9708 62.723C65.0493 59.9881 65.8047 57.1136 66.0754 55.4766C64.7608 55.4618 63.7758 55.0419 63.0689 54.4444C62.354 53.8399 61.9462 53.0594 61.7775 52.3365C61.7118 52.0547 61.6807 51.7856 61.6807 51.5415H63.889L63.889 51.5415Z" fill="#FFFFFE"/>
</svg>
