<svg width="96" height="96" viewBox="0 0 96 96" fill="none" xmlns="http://www.w3.org/2000/svg">
<rect y="0.000305176" width="96" height="96" rx="15" fill="#131C73"/>
<path fill-rule="evenodd" clip-rule="evenodd" d="M47.5446 56.5146C44.3775 56.5146 41.1598 54.6345 39.2819 52.146C30.2724 52.146 30 65.0168 30 65.0168H65.087C65.087 65.0168 65.7943 52.0889 55.6624 52.0889C53.7867 54.6082 50.7118 56.5146 47.5446 56.5146Z" fill="white"/>
<path fill-rule="evenodd" clip-rule="evenodd" d="M55.0913 41.0851C55.0913 44.7882 51.7111 51.8693 47.538 51.8693C43.3715 51.8693 39.9891 44.786 39.9891 41.0851C39.9891 37.3842 43.3693 34.3796 47.538 34.3796C51.7111 34.3818 55.0913 37.3864 55.0913 41.0851Z" fill="white"/>
<path fill-rule="evenodd" clip-rule="evenodd" d="M58.4606 37.8893C58.4606 37.1952 57.4942 36.6352 56.2949 36.6308V35.2009C56.2949 34.9879 56.3762 29.9999 47.5644 29.9999C38.7569 29.9999 38.8382 34.9879 38.8382 35.2009V36.6813C38.8162 36.6813 38.7987 36.6747 38.7789 36.6747C37.5863 36.6747 36.6264 37.226 36.6264 37.9091V43.9579C36.6264 44.6366 37.5885 45.19 38.7789 45.19C39.9693 45.19 40.9357 44.6366 40.9357 43.9579V37.9091C40.9357 37.8146 40.8764 37.729 40.8413 37.6411V35.9916C40.8413 35.8401 40.2087 32.0755 47.5644 32.0755C54.9222 32.0755 54.1579 35.8401 54.1579 35.9916V37.729C54.1447 37.7839 54.103 37.8322 54.103 37.8893V44.0765C54.103 44.7727 55.076 45.3372 56.2818 45.3372C56.3081 45.3372 56.3279 45.3284 56.3543 45.3284V47.5885H54.193V49.719H58.4825L58.4606 37.8893Z" fill="white"/>
</svg>
