<svg width="96" height="96" viewBox="0 0 96 96" fill="none" xmlns="http://www.w3.org/2000/svg">
<rect y="0.000244141" width="96" height="96" rx="15" fill="#131C73"/>
<path fill-rule="evenodd" clip-rule="evenodd" d="M49.6042 32.396V35.4537C51.372 35.639 52.992 36.264 54.3275 37.2045L56.6981 35.0574L58.2595 36.4715L55.9025 38.6063C56.9749 39.8117 57.6957 41.2844 57.924 42.8966H61.198V44.8968H57.9508C57.7635 46.5388 57.0662 48.0439 56.005 49.2799L58.2595 51.3218L56.6981 52.7359L54.4573 50.7064C53.0975 51.6988 51.4297 52.3588 49.6042 52.5501V55.3973H47.3958V52.5501C45.5704 52.3588 43.9026 51.6988 42.5428 50.7064L40.3019 52.7359L38.7406 51.3218L40.9951 49.2799C39.9339 48.0438 39.2366 46.5388 39.0492 44.8968H35.8022V42.8966H39.0761C39.3044 41.2844 40.0252 39.8117 41.0976 38.6063L38.7406 36.4716L40.302 35.0574L42.6726 37.2045C44.0081 36.2639 45.628 35.639 47.3958 35.4537V32.396H49.6042ZM48.5 40.5017C49.5671 40.5017 50.5332 40.8935 51.2326 41.527C51.932 42.1604 52.3646 43.0355 52.3646 44.0019C52.3646 44.9683 51.932 45.8434 51.2326 46.4768C50.5332 47.1103 49.5671 47.5021 48.5 47.5021C47.433 47.5021 46.4668 47.1103 45.7675 46.4768C45.068 45.8434 44.6354 44.9684 44.6354 44.0019C44.6354 43.0355 45.068 42.1604 45.7675 41.527C46.4668 40.8935 47.433 40.5017 48.5 40.5017Z" fill="#FFFFFE"/>
<path d="M63.889 51.5423C63.889 51.6682 63.9035 51.8002 63.934 51.9311C64.0196 52.2979 64.221 52.6892 64.5699 52.9842C64.9139 53.275 65.4246 53.4777 66.1475 53.4777C66.4191 53.4777 66.7118 53.4519 67.0261 53.3953C67.4555 53.2526 67.8244 53.0004 68.0866 52.6774C68.3457 52.3584 68.4984 51.967 68.4984 51.5423V44.087C68.4984 43.6375 68.3252 43.2242 68.0356 42.8962C67.731 42.551 67.2968 42.2941 66.7963 42.1796L65.9993 41.9974L65.9639 41.2538C65.7468 36.703 63.708 32.6215 60.5405 29.684C57.4112 26.782 53.1738 25.001 48.5062 25.001C43.835 25.001 39.5994 26.7799 36.4708 29.6777C33.3 32.6147 31.259 36.6957 31.0367 41.2436L31.0007 41.9804L30.2086 42.1656C29.7066 42.2829 29.2716 42.5419 28.9643 42.8912C28.6739 43.2213 28.5015 43.6353 28.5015 44.087V51.5423C28.5015 52.0923 28.7538 52.5892 29.1622 52.9484C29.5781 53.3141 30.1588 53.54 30.8063 53.54C32.084 53.54 33.1119 52.6474 33.1119 51.5423H35.3203C35.3203 53.754 33.3078 55.5402 30.8063 55.5402C29.5675 55.5402 28.4436 55.0965 27.6268 54.3782C26.8023 53.6531 26.2932 52.6509 26.2932 51.5423V44.087C26.2932 43.1677 26.6455 42.3235 27.239 41.6489C27.6711 41.1579 28.2335 40.7584 28.8819 40.488C29.2886 35.7016 31.5151 31.415 34.8922 28.2871C38.4285 25.0116 43.2194 23.0008 48.5062 23.0008C53.7896 23.0008 58.5826 25.0136 62.1192 28.2933C65.4927 31.4219 67.7172 35.7077 68.1192 40.4949C68.7591 40.7632 69.3188 41.1628 69.7523 41.6538C70.3496 42.3305 70.7068 43.1754 70.7068 44.0869V51.5423C70.7068 52.4056 70.394 53.2039 69.8637 53.8572C69.4697 54.3425 68.9543 54.7462 68.3575 55.0345C68.1657 56.6466 67.4404 60.3592 64.7823 63.8567C63.1246 66.038 60.7233 68.137 57.2469 69.6003C57.1403 69.9442 56.9629 70.2682 56.7236 70.5545C56.352 70.9991 55.8311 71.3556 55.1951 71.5558L55.1947 71.5548L51.3061 72.818L51.3066 72.8193C50.4624 73.0969 49.5717 73.0451 48.8119 72.7386C48.0455 72.4293 47.4113 71.8595 47.0894 71.1052L47.0807 71.0896L47.0751 71.0757V71.0718C46.7726 70.3178 46.8363 69.525 47.1886 68.8491C47.5375 68.1796 48.1707 67.6261 49.0109 67.343L49.0153 67.3391L49.0316 67.3336H49.0402L52.9416 66.0662L53.6835 67.9413L49.7897 69.2062L49.7907 69.2087L49.7743 69.2142L49.7735 69.212C49.4993 69.3058 49.2937 69.4851 49.1813 69.7007C49.0721 69.9103 49.0517 70.1555 49.144 70.3886L49.1454 70.3881L49.1511 70.402L49.1495 70.4026C49.2557 70.6382 49.4608 70.818 49.7091 70.9181C49.9659 71.0217 50.2682 71.0388 50.5561 70.9442H50.5604L54.4619 69.6768L54.4705 69.6729C54.677 69.6078 54.8451 69.4934 54.9639 69.3513C55.0844 69.2071 55.1544 69.0374 55.1618 68.8658L55.1893 68.2345L55.8261 67.9868C59.1695 66.6863 61.4356 64.7438 62.9708 62.7238C65.0493 59.9889 65.8047 57.1144 66.0754 55.4774C64.7608 55.4626 63.7758 55.0427 63.0689 54.4451C62.354 53.8407 61.9462 53.0602 61.7775 52.3373C61.7118 52.0555 61.6807 51.7864 61.6807 51.5423H63.889L63.889 51.5423Z" fill="#FFFFFE"/>
</svg>
