<svg width="96" height="96" viewBox="0 0 96 96" fill="none" xmlns="http://www.w3.org/2000/svg">
<rect width="96" height="96" rx="15" fill="#131C73"/>
<path fill-rule="evenodd" clip-rule="evenodd" d="M47.5446 56.5146C44.3774 56.5146 41.1598 54.6345 39.2819 52.146C30.2723 52.146 30 65.0167 30 65.0167H65.087C65.087 65.0167 65.7942 52.0889 55.6624 52.0889C53.7867 54.6081 50.7118 56.5146 47.5446 56.5146Z" fill="white"/>
<path fill-rule="evenodd" clip-rule="evenodd" d="M55.0913 41.0852C55.0913 44.7882 51.7111 51.8693 47.538 51.8693C43.3715 51.8693 39.9891 44.786 39.9891 41.0852C39.9891 37.3843 43.3693 34.3796 47.538 34.3796C51.7111 34.3818 55.0913 37.3865 55.0913 41.0852Z" fill="white"/>
<path fill-rule="evenodd" clip-rule="evenodd" d="M58.4606 37.8894C58.4606 37.1953 57.4942 36.6352 56.2949 36.6308V35.201C56.2949 34.988 56.3762 30 47.5644 30C38.7569 30 38.8382 34.988 38.8382 35.201V36.6814C38.8162 36.6814 38.7987 36.6748 38.7789 36.6748C37.5863 36.6748 36.6264 37.2261 36.6264 37.9091V43.9579C36.6264 44.6366 37.5885 45.1901 38.7789 45.1901C39.9693 45.1901 40.9357 44.6366 40.9357 43.9579V37.9091C40.9357 37.8147 40.8764 37.729 40.8413 37.6412V35.9917C40.8413 35.8401 40.2087 32.0756 47.5644 32.0756C54.9222 32.0756 54.1579 35.8401 54.1579 35.9917V37.729C54.1447 37.7839 54.103 37.8323 54.103 37.8894V44.0765C54.103 44.7728 55.076 45.3373 56.2818 45.3373C56.3081 45.3373 56.3279 45.3285 56.3542 45.3285V47.5885H54.193V49.719H58.4825L58.4606 37.8894Z" fill="white"/>
</svg>
