<svg width="96" height="96" viewBox="0 0 96 96" fill="none" xmlns="http://www.w3.org/2000/svg">
<rect y="3.43323e-05" width="95.9445" height="96" rx="15" fill="#131C73"/>
<path d="M34.2962 37.75C36.6173 37.75 38.5045 35.5639 38.5045 32.875C38.5045 30.1861 36.6173 28 34.2962 28C31.9751 28 30.0879 30.1861 30.0879 32.875C30.0879 35.5639 31.9751 37.75 34.2962 37.75ZM59.5458 37.75C61.867 37.75 63.7541 35.5639 63.7541 32.875C63.7541 30.1861 61.867 28 59.5458 28C57.2247 28 55.3376 30.1861 55.3376 32.875C55.3376 35.5639 57.2247 37.75 59.5458 37.75ZM67.9163 55.0029L64.918 40.8502C64.701 39.8219 63.8988 39.0982 62.9585 39.0068C61.9722 39.7457 60.8017 40.1875 59.5393 40.1875C58.2768 40.1875 57.1064 39.7457 56.12 39.0068C55.1798 39.0982 54.3776 39.8219 54.1606 40.8502L51.1622 55.0029C50.932 56.1531 51.7211 57.25 52.7863 57.25H56.3896V65.1719C56.3896 66.185 57.0932 67 57.9677 67H61.1239C61.9985 67 62.702 66.185 62.702 65.1719V57.25H66.3054C67.3706 57.25 68.1596 56.1531 67.9163 55.0029ZM47.9731 28H45.869C45.2903 28 44.8169 28.5484 44.8169 29.2188V65.7813C44.8169 66.4516 45.2903 67 45.869 67H47.9731C48.5517 67 49.0252 66.4516 49.0252 65.7813V29.2188C49.0252 28.5484 48.5517 28 47.9731 28ZM37.722 38.9992C36.7357 39.7457 35.5587 40.1875 34.2962 40.1875C33.0337 40.1875 31.8567 39.7457 30.8704 38.9992C29.2529 39.1592 27.9838 40.7131 27.9838 42.625V52.9844C27.9838 53.9975 28.6874 54.8125 29.5619 54.8125H30.0879V65.1719C30.0879 66.185 30.7915 67 31.666 67H36.9264C37.8009 67 38.5045 66.185 38.5045 65.1719V54.8125H39.0305C39.905 54.8125 40.6086 53.9975 40.6086 52.9844V42.625C40.6086 40.7131 39.3396 39.1592 37.722 38.9992Z" fill="white"/>
</svg>
