<svg width="96" height="96" viewBox="0 0 96 96" fill="none" xmlns="http://www.w3.org/2000/svg">
<rect width="96" height="96" rx="15" fill="#131C73"/>
<path d="M34.3161 37.75C36.6385 37.75 38.5268 35.5639 38.5268 32.875C38.5268 30.1861 36.6385 28 34.3161 28C31.9936 28 30.1054 30.1861 30.1054 32.875C30.1054 35.5639 31.9936 37.75 34.3161 37.75ZM59.5803 37.75C61.9028 37.75 63.791 35.5639 63.791 32.875C63.791 30.1861 61.9028 28 59.5803 28C57.2578 28 55.3696 30.1861 55.3696 32.875C55.3696 35.5639 57.2578 37.75 59.5803 37.75ZM67.9556 55.0029L64.9555 40.8502C64.7384 39.8219 63.9357 39.0982 62.9949 39.0068C62.008 39.7457 60.8369 40.1875 59.5737 40.1875C58.3105 40.1875 57.1394 39.7457 56.1525 39.0068C55.2117 39.0982 54.409 39.8219 54.1919 40.8502L51.1918 55.0029C50.9615 56.1531 51.751 57.25 52.8168 57.25H56.4223V65.1719C56.4223 66.185 57.1262 67 58.0013 67H61.1593C62.0343 67 62.7383 66.185 62.7383 65.1719V57.25H66.3437C67.4096 57.25 68.1991 56.1531 67.9556 55.0029ZM48.0009 28H45.8955C45.3165 28 44.8428 28.5484 44.8428 29.2188V65.7812C44.8428 66.4516 45.3165 67 45.8955 67H48.0009C48.5798 67 49.0535 66.4516 49.0535 65.7812V29.2188C49.0535 28.5484 48.5798 28 48.0009 28ZM37.7438 38.9992C36.757 39.7457 35.5793 40.1875 34.3161 40.1875C33.0528 40.1875 31.8752 39.7457 30.8883 38.9992C29.2698 39.1592 28 40.7131 28 42.625V52.9844C28 53.9975 28.704 54.8125 29.579 54.8125H30.1054V65.1719C30.1054 66.185 30.8093 67 31.6844 67H36.9477C37.8228 67 38.5268 66.185 38.5268 65.1719V54.8125H39.0531C39.9281 54.8125 40.6321 53.9975 40.6321 52.9844V42.625C40.6321 40.7131 39.3623 39.1592 37.7438 38.9992Z" fill="white"/>
</svg>
