<svg width="96" height="96" viewBox="0 0 96 96" fill="none" xmlns="http://www.w3.org/2000/svg">
<rect width="96" height="96" rx="15" fill="#131C73"/>
<path d="M37.2179 45.1746C37.4932 45.5059 37.7889 45.8144 38.0847 46.1114C40.8037 48.8539 44.3328 50.3715 47.9914 50.3715C51.65 50.3715 55.179 48.8539 57.8981 46.1114C58.2051 45.8169 58.4979 45.5042 58.7751 45.1746C59.0504 44.8433 59.3257 44.512 59.5807 44.1578C61.3458 41.7082 62.4562 38.7489 62.7834 35.6221C63.1105 32.4952 62.6412 29.3285 61.4295 26.4879C60.2179 23.6473 58.3134 21.2489 55.9363 19.57C53.5592 17.891 50.8065 17 47.9965 17C45.1864 17 42.4337 17.891 40.0566 19.57C37.6795 21.2489 35.7751 23.6473 34.5634 26.4879C33.3518 29.3285 32.8824 32.4952 33.2096 35.6221C33.5368 38.7489 34.6471 41.7082 36.4123 44.1578C36.6672 44.4891 36.9426 44.8433 37.2179 45.1746Z" fill="white"/>
<path d="M49.5465 54.2915C49.5478 54.3509 49.5385 54.4101 49.5192 54.4655C49.4998 54.5209 49.4707 54.5713 49.4337 54.6139C49.3966 54.6565 49.3523 54.6904 49.3034 54.7135C49.2544 54.7366 49.2019 54.7485 49.1488 54.7484H46.8442C46.736 54.7484 46.6322 54.7003 46.5557 54.6146C46.4793 54.5289 46.4363 54.4127 46.4363 54.2915V51.7209C46.4363 51.5997 46.4793 51.4835 46.5557 51.3978C46.6322 51.3121 46.736 51.2639 46.8442 51.2639H49.1488C49.2019 51.2639 49.2544 51.2758 49.3034 51.2989C49.3523 51.322 49.3966 51.3558 49.4337 51.3984C49.4707 51.441 49.4998 51.4915 49.5192 51.5469C49.5385 51.6023 49.5478 51.6614 49.5465 51.7209V54.2915Z" fill="white"/>
<path d="M46.3037 55.7996H49.5975L51.1475 64.9964H44.7333" fill="white"/>
<path d="M33.4856 48.8762L32.5373 49.6188L45.957 71.9655H47.3846L33.4856 48.8762Z" fill="white"/>
<path d="M40.2873 71.9655H42.0412L30.0186 51.9837C29.6617 52.3607 29.3149 52.7606 28.9988 53.1262L40.2873 71.9655Z" fill="white"/>
<path d="M28.6215 53.6288C25.0056 58.074 22.6985 63.6583 22.0136 69.6234C21.9823 69.906 22.0052 70.1929 22.0808 70.4648C22.1564 70.7367 22.283 70.9874 22.4521 71.2C22.6574 71.4561 22.9092 71.6599 23.1906 71.7979C23.472 71.9358 23.7765 72.0046 24.0837 71.9997H39.655L28.6215 53.6288Z" fill="white"/>
<path d="M73.9895 69.6234C73.4506 64.9272 71.9099 60.4455 69.4976 56.5577C67.0854 52.6698 63.8726 49.4903 60.1313 47.2881C57.0721 50.7727 52.728 60.7693 47.9965 60.7693C43.2649 60.7693 38.9718 50.7727 35.8616 47.2881C35.1988 47.6766 34.5564 48.1107 33.9241 48.5563L47.9965 71.9655H71.9195C72.2266 71.9704 72.5311 71.9015 72.8126 71.7636C73.094 71.6256 73.3458 71.4218 73.551 71.1657C73.7161 70.9571 73.8403 70.7121 73.9158 70.4465C73.9913 70.1809 74.0164 69.9005 73.9895 69.6234Z" fill="white"/>
</svg>
