<svg width="96" height="96" viewBox="0 0 96 96" fill="none" xmlns="http://www.w3.org/2000/svg">
<rect width="96" height="96" rx="15" fill="#131C73"/>
<path d="M29.6134 49.962H30.3787V43.5878C30.3787 43.3247 30.4864 43.0736 30.6658 42.8822L31.8975 41.6505C32.7108 41.8179 33.7034 41.5189 34.5285 40.8133C34.6123 40.7416 34.684 40.6698 34.7558 40.5981C34.8275 40.5263 34.8873 40.4546 34.9471 40.3948C34.971 40.3708 34.983 40.3469 35.0069 40.335C35.0547 40.2871 35.0906 40.2273 35.1265 40.1795C35.1385 40.1556 35.1624 40.1317 35.1743 40.1077C35.2222 40.0479 35.27 39.9762 35.3059 39.9164C35.3178 39.9044 35.3178 39.8925 35.3298 39.8925C35.3776 39.8207 35.4135 39.749 35.4614 39.6653C35.4733 39.6413 35.4853 39.6174 35.4972 39.5815C35.5211 39.5337 35.5451 39.4739 35.569 39.4261C35.5809 39.4022 35.5929 39.3663 35.6049 39.3424C35.6288 39.2826 35.6527 39.2347 35.6647 39.1749C35.6766 39.151 35.6886 39.1271 35.6886 39.1032C35.7125 39.0314 35.7364 38.9597 35.7484 38.8879C35.7603 38.852 35.7603 38.8162 35.7723 38.7803C35.7842 38.7324 35.7842 38.6966 35.7962 38.6487C35.8082 38.6129 35.8082 38.577 35.8082 38.5411C35.8082 38.5052 35.8201 38.4574 35.8201 38.4215C35.8201 38.3737 35.8321 38.3258 35.8321 38.278C35.8321 38.2302 35.8321 38.1704 35.8321 38.1225C35.8321 38.0867 35.8321 38.0508 35.8201 38.0029V37.991C35.8201 37.9551 35.8201 37.9312 35.8082 37.8953C35.8082 37.8594 35.7962 37.8236 35.7962 37.7757C35.7962 37.7398 35.7842 37.7159 35.7723 37.68C35.7603 37.6442 35.7603 37.6083 35.7484 37.5724C35.7364 37.5365 35.7484 37.5605 35.7364 37.5605C35.7364 37.5365 35.7245 37.5246 35.7125 37.5126C35.7005 37.4648 35.6766 37.405 35.6527 37.3572C35.6407 37.3332 35.6288 37.3093 35.6168 37.2854C35.5929 37.2495 35.5809 37.2017 35.557 37.1658C35.5331 37.1299 35.5092 37.0941 35.4853 37.0582C35.4614 37.0343 35.4494 36.9984 35.4255 36.9745C35.3776 36.9147 35.3298 36.8549 35.282 36.807C35.2222 36.7472 35.1624 36.6994 35.1026 36.6516C34.983 36.5559 34.8395 36.4841 34.696 36.4243C34.4807 36.3406 34.2415 36.2808 34.0023 36.2689C33.4642 36.245 32.8662 36.4004 32.3042 36.7233C32.0171 36.8907 31.7301 37.106 31.479 37.3572C31.4072 37.4289 31.3474 37.4887 31.2876 37.5605C31.2757 37.5724 31.2518 37.5963 31.2398 37.6083C31.18 37.68 31.1202 37.7518 31.0724 37.8236C31.0604 37.8355 31.0604 37.8355 31.0604 37.8475C31.0126 37.9073 30.9767 37.979 30.9289 38.0388C30.9169 38.0627 30.893 38.0867 30.881 38.1106C30.8451 38.1704 30.8093 38.2421 30.7734 38.3019C30.7614 38.3378 30.7375 38.3617 30.7256 38.3976C30.7016 38.4454 30.6777 38.4933 30.6538 38.5411C30.6418 38.577 30.6179 38.6129 30.606 38.6487C30.594 38.6846 30.5821 38.7205 30.5581 38.7683C30.5342 38.8401 30.5103 38.8999 30.4864 38.9716C30.4744 38.9955 30.4744 39.0195 30.4625 39.0434C30.4505 39.0912 30.4385 39.1391 30.4266 39.1869C30.4146 39.2347 30.4027 39.2826 30.4027 39.3304C30.4027 39.3663 30.3907 39.4022 30.3907 39.438C30.3787 39.4859 30.3787 39.5457 30.3787 39.5935V39.6772V39.8566V39.9284C30.3787 39.9881 30.3907 40.0599 30.4027 40.1197C30.4027 40.1436 30.4146 40.1556 30.4146 40.1795C30.4266 40.2273 30.4385 40.2871 30.4505 40.335L29.2546 41.5309C28.7045 42.081 28.3935 42.8224 28.3935 43.5998V49.974H28.7164H29.6134V49.962Z" fill="black"/>
<path d="M60.994 38.278C60.994 38.3258 60.994 38.3737 61.0059 38.4215C61.0059 38.4574 61.0179 38.5052 61.0179 38.5411C61.0179 38.577 61.0299 38.6128 61.0299 38.6487C61.0418 38.6966 61.0418 38.7324 61.0538 38.7803C61.0657 38.8162 61.0657 38.852 61.0777 38.8879C61.0896 38.9597 61.1136 39.0314 61.1375 39.1032C61.1494 39.1271 61.1494 39.151 61.1614 39.1749C61.1853 39.2347 61.1973 39.2826 61.2212 39.3424C61.2332 39.3663 61.2451 39.4021 61.2571 39.4261C61.281 39.4739 61.3049 39.5337 61.3288 39.5815C61.3408 39.6055 61.3527 39.6294 61.3647 39.6652C61.4006 39.737 61.4484 39.8207 61.4963 39.8925C61.5082 39.9044 61.5082 39.9164 61.5202 39.9164C61.568 39.9881 61.6039 40.0479 61.6517 40.1077C61.6637 40.1316 61.6876 40.1556 61.6996 40.1795C61.7354 40.2273 61.7833 40.2871 61.8191 40.335C61.8431 40.3589 61.855 40.3828 61.8789 40.3947C61.9387 40.4665 61.9985 40.5383 62.0703 40.5981C62.142 40.6698 62.2258 40.7416 62.2975 40.8133C63.1227 41.5189 64.1153 41.8059 64.9285 41.6505L66.1603 42.8822C66.3516 43.0736 66.4473 43.3128 66.4473 43.5878V49.962H67.2127H68.0618H68.3847V43.5878C68.3847 42.7985 68.0737 42.069 67.5236 41.5189L66.3277 40.323C66.3397 40.2752 66.3516 40.2154 66.3636 40.1675C66.3636 40.1436 66.3756 40.1316 66.3756 40.1077C66.3875 40.0479 66.3875 39.9881 66.3995 39.9164C66.3995 39.8925 66.3995 39.8686 66.3995 39.8446C66.3995 39.7848 66.3995 39.725 66.3995 39.6652C66.3995 39.6413 66.3995 39.6174 66.3995 39.5815C66.3995 39.5337 66.3875 39.4739 66.3875 39.4261C66.3875 39.3902 66.3756 39.3543 66.3756 39.3184C66.3636 39.2706 66.3636 39.2228 66.3516 39.1749C66.3397 39.1271 66.3277 39.0793 66.3158 39.0314C66.3038 39.0075 66.3038 38.9836 66.2918 38.9597C66.2679 38.8879 66.244 38.8281 66.2201 38.7564C66.2081 38.7205 66.1962 38.6846 66.1723 38.6368C66.1603 38.6009 66.1364 38.565 66.1244 38.5291C66.1005 38.4813 66.0766 38.4335 66.0527 38.3856C66.0407 38.3497 66.0287 38.3258 66.0048 38.29C65.9689 38.2302 65.9331 38.1584 65.8972 38.0986C65.8852 38.0747 65.8613 38.0508 65.8494 38.0269C65.8135 37.9671 65.7656 37.8953 65.7178 37.8355C65.7178 37.8235 65.7058 37.8236 65.7058 37.8116C65.658 37.7398 65.5982 37.6681 65.5384 37.5963C65.5265 37.5844 65.5025 37.5604 65.4906 37.5485C65.4308 37.4767 65.371 37.405 65.2992 37.3452C65.0361 37.0821 64.7611 36.8788 64.4741 36.7114C63.912 36.3885 63.326 36.233 62.7759 36.2569C62.5247 36.2689 62.2975 36.3167 62.0822 36.4124C61.9387 36.4722 61.8072 36.5439 61.6756 36.6396C61.6158 36.6874 61.556 36.7353 61.4963 36.7951C61.4484 36.8549 61.3886 36.9027 61.3527 36.9625C61.3288 36.9864 61.3169 37.0223 61.2929 37.0462C61.269 37.0821 61.2451 37.118 61.2212 37.1538C61.1973 37.1897 61.1734 37.2376 61.1614 37.2734C61.1494 37.2974 61.1375 37.3213 61.1255 37.3452C61.1016 37.393 61.0896 37.4409 61.0657 37.5007C61.0657 37.5126 61.0538 37.5365 61.0418 37.5485C61.0418 37.5485 61.0418 37.5605 61.0299 37.5605C61.0179 37.5963 61.0059 37.6322 61.0059 37.6681C60.994 37.704 60.994 37.7279 60.982 37.7638C60.9701 37.7996 60.9701 37.8355 60.9581 37.8833C60.9581 37.9073 60.9461 37.9431 60.9461 37.979V37.991C60.9461 38.0269 60.9342 38.0627 60.9342 38.1106C60.994 38.1704 60.994 38.2302 60.994 38.278Z" fill="black"/>
<path d="M73.7663 52.1266C73.7663 52.1147 73.7663 52.1147 73.7663 52.1266C73.7663 52.1027 73.7663 52.0907 73.7663 52.0788C73.7663 52.0549 73.7663 52.0309 73.7663 52.019C73.7663 52.007 73.7663 51.9831 73.7663 51.9711C73.7663 51.9592 73.7663 51.9592 73.7663 51.9472C73.7543 51.7678 73.7065 51.5885 73.6467 51.421C73.6347 51.3852 73.6228 51.3612 73.6108 51.3254C73.6108 51.3134 73.5988 51.3134 73.5988 51.3014C73.5869 51.2775 73.5749 51.2416 73.563 51.2177C73.563 51.2058 73.551 51.1938 73.551 51.1818C73.539 51.1579 73.5271 51.134 73.5151 51.1101C73.5032 51.0981 73.5032 51.0862 73.4912 51.0742C73.4792 51.0503 73.4673 51.0264 73.4434 51.0025C73.4314 50.9905 73.4314 50.9785 73.4195 50.9666C73.4075 50.9427 73.3955 50.9188 73.3716 50.9068C73.3597 50.8948 73.3477 50.8829 73.3477 50.8709C73.3357 50.847 73.3118 50.835 73.2999 50.8111C73.2879 50.7992 73.2759 50.7872 73.264 50.7752C73.252 50.7513 73.2281 50.7394 73.2161 50.7154C73.2042 50.7035 73.1922 50.6915 73.1803 50.6796C73.1683 50.6676 73.1444 50.6437 73.1324 50.6317C73.1205 50.6198 73.1085 50.6078 73.0846 50.5959C73.0726 50.5839 73.0487 50.56 73.0368 50.548C73.0009 50.5241 72.977 50.4882 72.9411 50.4643C72.9291 50.4523 72.9172 50.4404 72.8933 50.4284C72.8693 50.4165 72.8574 50.3925 72.8335 50.3806C72.8215 50.3686 72.7976 50.3567 72.7856 50.3447C72.7617 50.3328 72.7497 50.3208 72.7258 50.3088C72.7139 50.2969 72.6899 50.2849 72.678 50.2849C72.6541 50.273 72.6302 50.261 72.6182 50.249C72.6062 50.2371 72.5823 50.2371 72.5704 50.2251C72.5464 50.2132 72.5225 50.2012 72.4986 50.1892C72.4747 50.1773 72.4627 50.1773 72.4388 50.1653C72.4149 50.1534 72.391 50.1414 72.3671 50.1414C72.3431 50.1294 72.3312 50.1295 72.3073 50.1175C72.2833 50.1055 72.2594 50.1055 72.2355 50.0936C72.2116 50.0936 72.1996 50.0816 72.1757 50.0816C72.1518 50.0697 72.1279 50.0697 72.092 50.0577C72.0681 50.0577 72.0561 50.0457 72.0322 50.0457C72.0083 50.0457 71.9724 50.0338 71.9485 50.0338C71.9246 50.0338 71.9126 50.0218 71.8887 50.0218C71.8528 50.0218 71.8289 50.0099 71.793 50.0099C71.7811 50.0099 71.7571 50.0099 71.7452 50.0099C71.6973 50.0099 71.6495 50.0099 71.6017 50.0099H61.7235V48.228C61.7235 44.9033 60.5037 41.8657 58.4945 39.5337C58.2793 39.2826 58.052 39.0434 57.8248 38.8162C57.191 38.1823 56.4974 37.6203 55.7559 37.118C55.72 37.0941 55.6842 37.0701 55.6483 37.0462C55.5646 36.9984 55.4808 36.9386 55.3971 36.8908C55.3493 36.8549 55.2895 36.831 55.2417 36.7951C55.1699 36.7472 55.0981 36.7114 55.0144 36.6635C54.9546 36.6277 54.9068 36.6037 54.847 36.5679C54.7753 36.532 54.6915 36.4841 54.6198 36.4483C54.56 36.4244 54.5122 36.3885 54.4524 36.3646C54.3806 36.3287 54.2969 36.2928 54.2132 36.245C54.1534 36.221 54.1055 36.1971 54.0458 36.1613C53.9381 36.1134 53.8425 36.0656 53.7348 36.0177C53.6391 35.9819 53.5435 35.934 53.4478 35.8982C53.388 35.8742 53.3282 35.8503 53.2684 35.8264C53.1847 35.7905 53.101 35.7666 53.0173 35.7307C52.9934 35.7188 52.9575 35.7068 52.9336 35.6948L52.7303 35.1328C53.8424 34.1282 54.6676 32.7529 55.0503 31.1743C55.134 31.1982 55.2058 31.2102 55.2895 31.2102C56.019 31.2102 56.605 30.3491 56.605 29.2967C56.605 28.2443 56.019 27.3833 55.2895 27.3833C55.2297 27.3833 55.1699 27.3953 55.1101 27.4072C55.0862 27.3115 55.0623 27.2039 55.0384 27.1082C55.0384 27.0963 55.0384 27.0843 55.0264 27.0724C54.9786 26.881 54.9188 26.6897 54.859 26.4983C54.859 26.4864 54.859 26.4864 54.847 26.4744C54.847 26.4624 54.835 26.4505 54.835 26.4385C54.8111 26.3548 54.7753 26.2711 54.7513 26.1874C54.7394 26.1635 54.7394 26.1515 54.7274 26.1276C54.7035 26.0558 54.6796 25.996 54.6437 25.9243C54.6317 25.9004 54.6198 25.8645 54.6078 25.8406C54.5959 25.8047 54.5839 25.7808 54.572 25.7569C54.5002 25.5894 54.4284 25.434 54.3447 25.2785L54.3328 25.2665C54.273 25.1589 54.2251 25.0632 54.1653 24.9676C54.1534 24.9556 54.1534 24.9436 54.1534 24.9317C54.1414 24.9078 54.1295 24.8838 54.1175 24.8719C54.0936 24.8241 54.0577 24.7762 54.0338 24.7284C54.0218 24.7045 53.9979 24.6805 53.986 24.6566C53.6152 24.0826 53.1727 23.5683 52.6824 23.1259C52.6705 23.1139 52.6465 23.1019 52.6346 23.09C52.5748 23.0302 52.515 22.9824 52.4432 22.9345C52.4193 22.9106 52.3954 22.8986 52.3715 22.8747C52.3117 22.8269 52.2519 22.7791 52.2041 22.7432C52.1801 22.7193 52.1443 22.7073 52.1203 22.6834C52.0606 22.6475 52.0127 22.5997 51.9529 22.5638C51.929 22.5399 51.8931 22.5279 51.8692 22.504C51.8094 22.4681 51.7496 22.4322 51.6898 22.3964C51.6659 22.3724 51.63 22.3605 51.6061 22.3485C51.5463 22.3126 51.4865 22.2768 51.4267 22.2409C51.4028 22.2289 51.3669 22.205 51.343 22.1931C51.2832 22.1572 51.2115 22.1213 51.1517 22.0974C51.1277 22.0854 51.0919 22.0735 51.0679 22.0615C50.9962 22.0256 50.9244 22.0017 50.8527 21.9658C50.8288 21.9539 50.8048 21.9419 50.7809 21.93C50.6972 21.8941 50.6255 21.8702 50.5417 21.8343C50.5298 21.8223 50.5059 21.8223 50.4939 21.8104C50.3982 21.7745 50.3026 21.7506 50.2069 21.7147C50.2069 21.7147 50.2069 21.7147 50.1949 21.7147C49.884 21.619 49.5611 21.5473 49.2262 21.4994C49.1545 21.4875 49.0827 21.4755 49.0229 21.4755C48.999 21.4755 48.9631 21.4755 48.9392 21.4636C48.8794 21.4636 48.8077 21.4516 48.7359 21.4516C48.712 21.4516 48.6881 21.4516 48.6522 21.4516C48.5565 21.4516 48.4728 21.4396 48.3772 21.4396C48.3174 21.4396 48.2576 21.4396 48.1978 21.4396C48.1739 21.4396 48.1619 21.4396 48.138 21.4396C48.126 21.4396 48.1141 21.4396 48.0901 21.4396C48.0184 21.4396 47.9347 21.4516 47.8629 21.4516C47.6596 21.4636 47.4683 21.4994 47.265 21.5353C47.1812 21.5473 47.0975 21.5712 47.0019 21.5831C46.966 21.5951 46.9421 21.5951 46.9062 21.6071C46.8583 21.619 46.7986 21.631 46.7507 21.6429C46.7148 21.6549 46.667 21.6669 46.6311 21.6788C46.5833 21.6908 46.5235 21.7147 46.4757 21.7267C46.4517 21.7386 46.4159 21.7506 46.3919 21.7506C46.38 21.7506 46.38 21.7506 46.368 21.7625C46.2963 21.7864 46.2126 21.8104 46.1408 21.8462C46.1288 21.8462 46.1169 21.8582 46.1169 21.8582C46.0451 21.8821 45.9614 21.918 45.8897 21.9539C45.8777 21.9539 45.8657 21.9658 45.8538 21.9658C45.7701 22.0017 45.6864 22.0376 45.6026 22.0854C45.5309 22.1213 45.4591 22.1572 45.3874 22.1931C45.3754 22.1931 45.3635 22.205 45.3515 22.205C44.8133 22.504 44.3111 22.8747 43.8566 23.3053C43.8447 23.3172 43.8447 23.3172 43.8327 23.3292C43.737 23.4129 43.6533 23.5086 43.5696 23.6042C43.5576 23.6162 43.5457 23.6281 43.5457 23.6401C43.462 23.7358 43.3783 23.8315 43.2945 23.9271C43.2826 23.9391 43.2706 23.951 43.2587 23.963C43.1869 24.0587 43.1032 24.1543 43.0314 24.25C43.0195 24.262 43.0075 24.2859 42.9956 24.2979C42.9358 24.3816 42.876 24.4772 42.8162 24.561C42.8042 24.5729 42.7923 24.5968 42.7803 24.6088C42.7683 24.6327 42.7564 24.6447 42.7444 24.6686C42.6966 24.7403 42.6488 24.8121 42.6129 24.8838C42.6009 24.9078 42.589 24.9197 42.577 24.9436C42.3139 25.3981 42.0986 25.8765 41.9193 26.3907C41.9073 26.4146 41.9073 26.4266 41.8953 26.4505C41.8714 26.5103 41.8595 26.5581 41.8355 26.6179C41.8236 26.6538 41.8116 26.6897 41.7997 26.7136C41.7877 26.7495 41.7757 26.7973 41.7638 26.8332C41.7518 26.8691 41.7399 26.893 41.7399 26.9289C41.7399 26.9408 41.7279 26.9647 41.7279 26.9767C41.7159 27.0126 41.704 27.0604 41.692 27.0963C41.6801 27.1322 41.6801 27.168 41.6681 27.2039C41.6562 27.2637 41.6442 27.3355 41.6322 27.3953C41.5724 27.3833 41.5126 27.3713 41.4529 27.3713C40.7233 27.3713 40.1374 28.2324 40.1374 29.2848C40.1374 30.3372 40.7233 31.1982 41.4529 31.1982C41.5366 31.1982 41.6203 31.1863 41.692 31.1624C42.0747 32.741 42.8999 34.1282 44.0121 35.1208L43.8088 35.6829C43.7849 35.6948 43.749 35.7068 43.7251 35.7188C43.6414 35.7546 43.5576 35.7786 43.4739 35.8144C43.4141 35.8384 43.3543 35.8623 43.3065 35.8862C43.2108 35.9221 43.1032 35.9699 43.0075 36.0177C42.9119 36.0656 42.8042 36.1015 42.7086 36.1493C42.6488 36.1732 42.6009 36.2091 42.5411 36.233C42.4694 36.2689 42.3857 36.3048 42.3139 36.3526C42.2541 36.3765 42.2063 36.4124 42.1465 36.4363C42.0747 36.4722 42.003 36.52 41.9193 36.5559C41.8595 36.5918 41.8116 36.6157 41.7518 36.6516C41.6801 36.6994 41.6083 36.7353 41.5246 36.7831C41.4768 36.819 41.417 36.8429 41.3691 36.8788C41.2854 36.9266 41.2137 36.9745 41.13 37.0343C41.0941 37.0582 41.0462 37.0821 41.0104 37.106C40.9864 37.118 40.9625 37.1419 40.9266 37.1539C40.9147 37.1539 40.9147 37.1658 40.9027 37.1658C40.9027 37.1658 40.8908 37.1658 40.8908 37.1778C40.7831 37.2495 40.6875 37.3213 40.5798 37.393C40.5679 37.405 40.5679 37.405 40.5559 37.417C40.4602 37.4887 40.3646 37.5605 40.2689 37.6322C40.2569 37.6442 40.245 37.6561 40.233 37.6561C40.1374 37.7279 40.0417 37.7996 39.958 37.8714C39.946 37.8834 39.934 37.8953 39.9101 37.9073C39.8264 37.979 39.7307 38.0508 39.647 38.1225C39.6351 38.1345 39.6112 38.1465 39.5992 38.1704C39.5155 38.2421 39.4318 38.3139 39.3481 38.3856C39.3241 38.3976 39.3122 38.4215 39.2883 38.4335C39.2045 38.5052 39.1328 38.577 39.061 38.6487C39.0371 38.6727 39.0132 38.6966 39.0012 38.7085C38.9295 38.7803 38.8577 38.852 38.786 38.9238C38.7621 38.9477 38.7381 38.9716 38.7142 38.9956C38.6425 39.0673 38.5827 39.1391 38.5109 39.2108C38.487 39.2347 38.4631 39.2706 38.4392 39.2945C38.3794 39.3663 38.3196 39.438 38.2478 39.5098C38.2239 39.5457 38.188 39.5815 38.1641 39.6055C38.1043 39.6772 38.0445 39.737 37.9967 39.8088C37.9608 39.8446 37.9369 39.8805 37.913 39.9164C37.8651 39.9882 37.8053 40.048 37.7575 40.1197C37.7216 40.1675 37.6977 40.2034 37.6618 40.2513C37.614 40.3111 37.5662 40.3828 37.5183 40.4426C37.4824 40.4904 37.4466 40.5383 37.4226 40.5861C37.3748 40.6459 37.3389 40.7057 37.2911 40.7655C37.2552 40.8133 37.2193 40.8731 37.1835 40.921C37.1476 40.9808 37.1117 41.0406 37.0758 41.1004C37.04 41.1601 37.0041 41.2199 36.9682 41.2797C36.9323 41.3395 36.8964 41.3874 36.8725 41.4472C36.8366 41.507 36.8008 41.5787 36.7649 41.6505C36.741 41.6983 36.7051 41.7461 36.6812 41.8059C36.6453 41.8777 36.5975 41.9494 36.5616 42.0212C36.5377 42.069 36.5138 42.1049 36.4898 42.1527C36.454 42.2365 36.4061 42.3202 36.3702 42.3919C36.3463 42.4278 36.3344 42.4756 36.3105 42.5115C36.2626 42.5952 36.2267 42.6909 36.1909 42.7866C36.1789 42.8225 36.1669 42.8464 36.143 42.8823C36.0952 42.9779 36.0593 43.0856 36.0234 43.1812C36.0115 43.2051 35.9995 43.2291 35.9876 43.253C35.9397 43.3606 35.9038 43.4682 35.868 43.5878C35.856 43.5998 35.856 43.6237 35.844 43.6357C35.7962 43.7553 35.7603 43.8749 35.7125 44.0064C35.7125 44.0184 35.7125 44.0184 35.7005 44.0303C35.27 45.3339 35.0428 46.7331 35.0428 48.1801V49.962H25.1646C25.1168 49.962 25.0689 49.962 25.0211 49.962C25.0091 49.962 24.9852 49.962 24.9732 49.962C24.9374 49.962 24.9135 49.962 24.8776 49.974C24.8537 49.974 24.8417 49.974 24.8178 49.9859C24.7939 49.9859 24.758 49.9979 24.7341 49.9979C24.7101 49.9979 24.6982 50.0099 24.6743 50.0099C24.6504 50.0099 24.6264 50.0218 24.5906 50.0338C24.5666 50.0338 24.5547 50.0457 24.5308 50.0457C24.5068 50.0577 24.4829 50.0577 24.459 50.0697C24.4351 50.0816 24.4231 50.0816 24.3992 50.0936C24.3753 50.1055 24.3514 50.1055 24.3275 50.1175C24.3035 50.1295 24.2916 50.1294 24.2677 50.1414C24.2437 50.1534 24.2198 50.1653 24.1959 50.1773C24.1839 50.1892 24.16 50.1892 24.1481 50.2012C24.1242 50.2132 24.1002 50.2251 24.0883 50.2371C24.0763 50.249 24.0524 50.261 24.0404 50.261C24.0165 50.273 24.0046 50.2849 23.9806 50.2969C23.9687 50.3088 23.9448 50.3208 23.9328 50.3328C23.9089 50.3447 23.8969 50.3686 23.873 50.3806C23.8611 50.3925 23.8491 50.4045 23.8252 50.4165C23.7893 50.4404 23.7654 50.4643 23.7295 50.5002C23.7175 50.5121 23.6936 50.5361 23.6817 50.548C23.6697 50.56 23.6578 50.5719 23.6338 50.5839C23.6219 50.5959 23.598 50.6198 23.586 50.6317C23.574 50.6437 23.5621 50.6557 23.5501 50.6676C23.5382 50.6915 23.5142 50.7035 23.5023 50.7274C23.4903 50.7394 23.4784 50.7513 23.4664 50.7633C23.4544 50.7872 23.4305 50.7992 23.4186 50.8231C23.4066 50.835 23.3947 50.847 23.3947 50.859C23.3827 50.8829 23.3588 50.9068 23.3468 50.9307C23.3349 50.9427 23.3349 50.9546 23.3229 50.9666C23.3109 50.9905 23.299 51.0144 23.2751 51.0383C23.2631 51.0503 23.2631 51.0623 23.2511 51.0742C23.2392 51.0981 23.2272 51.1221 23.2153 51.146C23.2153 51.1579 23.2033 51.1699 23.2033 51.1818C23.1913 51.2058 23.1794 51.2416 23.1674 51.2656C23.1674 51.2775 23.1555 51.2775 23.1555 51.2895C23.1435 51.3254 23.1315 51.3493 23.1196 51.3852C23.0598 51.5526 23.0239 51.732 23 51.9114V51.9353V51.9831V52.0429V52.0788V52.0907V52.1027V52.1864V52.2223V52.2342C23 52.2701 23 52.294 23.012 52.3299C23.012 52.3538 23.012 52.3658 23.0239 52.3897C23.0239 52.4136 23.0359 52.4495 23.0359 52.4734V52.4854C23.0359 52.4973 23.0478 52.5213 23.0478 52.5332C23.0478 52.5571 23.0598 52.5811 23.0598 52.605V52.6169V52.6289C23.0598 52.6528 23.0718 52.6648 23.0718 52.6887C23.0837 52.7246 23.0957 52.7485 23.0957 52.7844C23.1076 52.8083 23.1076 52.8202 23.1196 52.8442C23.1315 52.88 23.1435 52.904 23.1555 52.9398C23.1674 52.9518 23.1674 52.9757 23.1794 52.9877C23.2033 53.0355 23.2272 53.0833 23.2511 53.1312L24.2677 55.0088L25.2842 56.8863C25.3559 57.0179 25.4397 57.1375 25.5353 57.2451C25.5712 57.281 25.5951 57.3169 25.631 57.3527C25.7028 57.4245 25.7745 57.4843 25.8463 57.5441C25.8821 57.568 25.918 57.6039 25.9659 57.6278C26.0496 57.6876 26.1213 57.7354 26.217 57.7713C26.2648 57.7952 26.3007 57.8072 26.3485 57.8311C26.516 57.9028 26.6954 57.9507 26.8867 57.9866H26.9226C27.0183 57.9985 27.102 58.0105 27.1976 58.0105H29.6492V60.7491V77.1809V79.776C29.6492 80.7208 30.0559 81.5818 30.7136 82.1678C30.7495 82.2037 30.7854 82.2396 30.8332 82.2754C31.3953 82.7418 32.1128 83.0169 32.8902 83.0169H63.9598C65.7537 83.0169 67.2007 81.5698 67.2007 79.776V60.7491V58.0224H69.5686C69.6523 58.0224 69.748 58.0105 69.8317 58.0105C69.8556 58.0105 69.8796 57.9985 69.9035 57.9985C70.035 57.9746 70.1546 57.9507 70.2742 57.9029C70.7645 57.7235 71.1951 57.3766 71.4582 56.8983L72.4747 55.0207L73.4912 53.1431C73.5151 53.0953 73.539 53.0475 73.563 52.9996C73.5749 52.9877 73.5749 52.9638 73.5869 52.9518C73.5988 52.9159 73.6108 52.892 73.6228 52.8561C73.6347 52.8322 73.6347 52.8202 73.6467 52.7963C73.6586 52.7604 73.6706 52.7365 73.6706 52.7007C73.6706 52.6767 73.6826 52.6648 73.6826 52.6409C73.6826 52.6409 73.6826 52.6409 73.6826 52.6289V52.6169C73.6826 52.593 73.6945 52.5691 73.6945 52.5452C73.6945 52.5332 73.7065 52.5093 73.7065 52.4973V52.4854C73.7065 52.4615 73.7184 52.4256 73.7184 52.4017C73.7184 52.3778 73.7184 52.3658 73.7304 52.3419C73.7304 52.306 73.7423 52.2821 73.7423 52.2462V52.2342C73.7423 52.2223 73.7423 52.2103 73.7423 52.1984C73.7423 52.1745 73.7423 52.1505 73.7423 52.1147C73.7782 52.1266 73.7663 52.1266 73.7663 52.1266Z" fill="black"/>
<path d="M61.7354 45.7883V49.8664C61.7354 51.7559 60.1927 53.2986 58.3032 53.2986H38.5468C36.6573 53.2986 35.1145 51.7559 35.1145 49.8664V45.7883C35.1145 41.1961 37.4466 37.1419 40.9864 34.7501C41.0223 34.7262 41.0582 34.7023 41.0821 34.6784C41.9432 34.1043 42.8879 33.626 43.8805 33.2672C45.3037 32.753 46.8225 32.4659 48.425 32.4659C50.0156 32.4659 51.5463 32.741 52.9694 33.2672C53.962 33.626 54.8949 34.1043 55.7679 34.6784C56.5213 35.1687 57.203 35.7427 57.8368 36.3646C60.2406 38.7803 61.7354 42.105 61.7354 45.7883Z" fill="black"/>
<path d="M35.1145 46.3145H61.7354V47.5702H35.1145V46.3145Z" fill="black"/>
<path d="M57.8368 36.3765C57.203 35.7427 56.5093 35.1806 55.7679 34.6783C53.6631 33.2911 51.1397 32.4778 48.425 32.4778C45.7103 32.4778 43.1869 33.2911 41.0821 34.6783C37.4824 37.0582 35.1145 41.1482 35.1145 45.7883V47.7376C35.1145 43.0975 37.4824 39.0195 41.0821 36.6276C43.1869 35.2404 45.7103 34.4272 48.425 34.4272C51.1397 34.4272 53.6631 35.2404 55.7679 36.6276C56.5213 37.118 57.203 37.692 57.8368 38.3258C60.2406 40.7296 61.7354 44.0662 61.7354 47.7376V45.7883C61.7354 42.1049 60.2406 38.7803 57.8368 36.3765Z" fill="black"/>
<path d="M48.425 32.4778V45.7046L46.9301 41.6146L43.8805 33.2671C45.3037 32.7529 46.8344 32.4778 48.425 32.4778Z" fill="#E6E7E8"/>
<path d="M52.9694 33.2671L49.9199 41.6146L48.425 45.7046V32.4778C50.0155 32.4778 51.5463 32.7529 52.9694 33.2671Z" fill="#E6E7E8"/>
<path d="M48.1499 34.4153L45.3395 37.2735L43.8805 33.2672L44.4067 31.856H48.425V34.4272L48.1499 34.4153Z" fill="white"/>
<path d="M48.7 34.4153L51.5104 37.2735L52.9694 33.2672L52.4432 31.856H48.425V34.4272L48.7 34.4153Z" fill="white"/>
<path d="M49.9199 41.6146L48.425 45.7046L46.9301 41.6146L47.7314 35.9102H49.1186L49.9199 41.6146Z" fill="white"/>
<path d="M47.9586 35.9102H47.7314L46.9301 41.6146L48.425 45.7046L47.4204 41.6146L47.9586 35.9102Z" fill="white"/>
<path d="M49.1186 35.9102H48.8914L49.4295 41.6146L48.425 45.7046L49.9199 41.6146L49.1186 35.9102Z" fill="white"/>
<path d="M49.9438 36.1493L48.6642 37.417C48.5326 37.5485 48.3174 37.5485 48.1738 37.417L46.8942 36.1373C46.7627 36.0058 46.7627 35.7905 46.8942 35.647L48.1738 34.3674C48.3054 34.2359 48.5207 34.2359 48.6642 34.3674L49.9438 35.647C50.0753 35.7905 50.0753 36.0178 49.9438 36.1493Z" fill="white"/>
<path d="M46.9062 35.9221L48.1858 34.6425C48.3174 34.5109 48.5326 34.5109 48.6761 34.6425L49.9558 35.9221C49.9916 35.958 50.0156 35.9938 50.0275 36.0297C50.0753 35.9101 50.0514 35.7547 49.9558 35.659L48.6642 34.3913C48.5326 34.2598 48.3174 34.2598 48.1739 34.3913L46.8942 35.6709C46.7986 35.7666 46.7627 35.9221 46.8225 36.0417C46.8464 35.9938 46.8703 35.958 46.9062 35.9221Z" fill="white"/>
<path d="M49.8601 35.5753L48.6642 36.7712C48.5326 36.9027 48.3174 36.9027 48.1738 36.7712L46.9779 35.5753L46.8942 35.659C46.7627 35.7905 46.7627 36.0058 46.8942 36.1493L48.1738 37.4289C48.3054 37.5605 48.5207 37.5605 48.6642 37.4289L49.9438 36.1493C50.0753 36.0177 50.0753 35.8025 49.9438 35.659L49.8601 35.5753Z" fill="white"/>
<path d="M41.5246 28.7825C42.2511 28.7825 42.8401 27.9258 42.8401 26.8691C42.8401 25.8123 42.2511 24.9556 41.5246 24.9556C40.7981 24.9556 40.2091 25.8123 40.2091 26.8691C40.2091 27.9258 40.7981 28.7825 41.5246 28.7825Z" fill="#E6E7E8"/>
<path d="M55.3254 28.7825C56.0519 28.7825 56.6409 27.9258 56.6409 26.8691C56.6409 25.8123 56.0519 24.9556 55.3254 24.9556C54.5989 24.9556 54.0099 25.8123 54.0099 26.8691C54.0099 27.9258 54.5989 28.7825 55.3254 28.7825Z" fill="#E6E7E8"/>
<path d="M55.3254 26.7136C55.3254 30.971 52.228 34.4152 48.425 34.4152C44.6101 34.4152 41.5246 30.971 41.5246 26.7136C41.5246 26.319 41.5485 25.9243 41.6083 25.5416C41.9671 22.8987 43.5337 20.6862 45.6625 19.6458C46.3561 19.299 47.1215 19.0837 47.9108 19.0239C48.0782 19.012 48.2456 19 48.425 19C51.7018 19 54.4404 21.5473 55.146 24.9676C55.2656 25.5297 55.3254 26.1156 55.3254 26.7136Z" fill="white"/>
<path d="M48.425 33.3031C44.7775 33.3031 41.7997 30.1459 41.5366 26.1516C41.5246 26.3429 41.5126 26.5342 41.5126 26.7256C41.5126 30.983 44.61 34.4272 48.413 34.4272C52.228 34.4272 55.3134 30.983 55.3134 26.7256C55.3134 26.5342 55.3015 26.3549 55.2895 26.1635C55.0503 30.1459 52.0725 33.3031 48.425 33.3031Z" fill="#D1D3D4"/>
<path d="M41.1539 42.8823C40.7234 42.8823 40.3765 43.2291 40.3765 43.6596V50.4882H41.9312V43.6596C41.9312 43.2291 41.5844 42.8823 41.1539 42.8823Z" fill="black"/>
<path d="M55.6961 42.8823C55.2656 42.8823 54.9188 43.2291 54.9188 43.6596V50.4882H56.4734V43.6596C56.4734 43.2291 56.1266 42.8823 55.6961 42.8823Z" fill="black"/>
<path d="M55.146 24.9795C54.2849 25.3742 53.3402 25.6014 52.3356 25.6014C50.0036 25.6014 47.9586 24.4175 46.7507 22.6236C46.1647 21.7625 45.782 20.746 45.6624 19.6577C45.9136 19.5382 46.1647 19.4305 46.4278 19.3349C46.7148 19.2392 47.0138 19.1555 47.3128 19.1076C47.5041 19.0718 47.7074 19.0478 47.9108 19.0239C48.0184 19.012 48.126 19.012 48.2456 19H48.425C48.724 19 49.011 19.0239 49.298 19.0598C51.0081 19.299 52.527 20.2318 53.6033 21.6071C53.8185 21.8821 54.0218 22.1692 54.2012 22.4801C54.3328 22.7073 54.4643 22.9465 54.572 23.1857C54.7035 23.4607 54.8111 23.7478 54.9068 24.0467C55.0025 24.3577 55.0862 24.6686 55.146 24.9795Z" fill="white"/>
<path d="M47.9108 19.0359C47.8749 20.3633 47.4563 21.5951 46.7507 22.6236C45.6146 24.2979 43.749 25.422 41.5964 25.5536C41.6442 25.1948 41.716 24.848 41.7997 24.5131C41.8953 24.1663 42.003 23.8315 42.1465 23.4966C42.3378 23.0422 42.565 22.5997 42.8281 22.1931C43.45 21.2483 44.2632 20.459 45.196 19.9089C45.3395 19.8252 45.495 19.7415 45.6505 19.6578C45.8897 19.5382 46.1528 19.4305 46.4039 19.3468C46.7148 19.2392 47.0377 19.1555 47.3606 19.1076C47.552 19.0718 47.7314 19.0478 47.9108 19.0359Z" fill="white"/>
<path d="M54.9068 24.0706C54.3687 24.2022 53.8185 24.262 53.2445 24.262C50.8527 24.262 48.6163 23.078 47.2769 21.0809C46.9181 20.5427 46.6311 19.9567 46.4278 19.3348C46.7148 19.2392 47.0138 19.1554 47.3128 19.1076C47.4922 19.6218 47.7314 20.1122 48.0423 20.5666C49.2143 22.3007 51.1636 23.3411 53.2445 23.3411C53.6989 23.3411 54.1414 23.2933 54.572 23.1976C54.7035 23.4846 54.8111 23.7716 54.9068 24.0706Z" fill="white"/>
<path d="M54.2012 22.4921C54.0816 22.504 53.9621 22.504 53.8425 22.504C51.654 22.504 49.609 21.2961 48.3891 19.287C48.3413 19.2033 48.2815 19.1076 48.2337 19.012H48.413C48.712 19.012 48.999 19.0359 49.2861 19.0718C50.3026 20.6025 51.8812 21.5353 53.5913 21.619C53.8185 21.8941 54.0218 22.1931 54.2012 22.4921Z" fill="white"/>
<path d="M47.3726 19.1076C47.2171 20.0882 46.7986 21.045 46.1528 21.8701C45.1123 23.1976 43.5577 24.1185 41.8116 24.5131C41.9073 24.1663 42.0149 23.8314 42.1584 23.4966C43.4859 23.1019 44.6459 22.3366 45.4472 21.32C45.9136 20.7221 46.2484 20.0524 46.4159 19.3468C46.7268 19.2392 47.0377 19.1554 47.3726 19.1076Z" fill="white"/>
<path d="M45.208 19.9089C45.1362 20.0285 45.0645 20.1361 44.9808 20.2437C44.4067 21.045 43.6772 21.7147 42.8401 22.1931C43.45 21.2483 44.2632 20.459 45.208 19.9089Z" fill="white"/>
<path d="M30.3907 47.5702H28.4533V41.196C28.4533 40.4067 28.7643 39.6772 29.3144 39.1271L31.9095 36.532L33.2848 37.9073L30.6897 40.5024C30.4983 40.6937 30.4027 40.9329 30.4027 41.208V47.5702H30.3907Z" fill="white"/>
<path d="M28.7643 41.4591C28.7643 40.6698 29.0752 39.9403 29.6253 39.3902L32.1846 36.831L31.8975 36.5439L29.3024 39.1391C28.7523 39.6892 28.4414 40.4306 28.4414 41.208V47.5822H28.7643V41.4591Z" fill="white"/>
<path d="M31.8975 36.52L31.7301 36.6874L32.6031 37.5605L29.9243 40.2393C29.733 40.4306 29.6253 40.6937 29.6253 40.9688V47.5582H30.3907V41.1841C30.3907 40.921 30.4983 40.6698 30.6777 40.4785L33.2728 37.8834L31.8975 36.52Z" fill="white"/>
<path d="M34.7618 38.217C35.9668 37.0121 36.2166 35.3084 35.3199 34.4117C34.4233 33.515 32.7196 33.7649 31.5146 34.9698C30.3097 36.1748 30.0598 37.8785 30.9565 38.7752C31.8532 39.6718 33.5569 39.422 34.7618 38.217Z" fill="white"/>
<path d="M31.5149 35.4916C32.7227 34.2837 34.4209 34.0445 35.3178 34.9414C35.6288 35.2524 35.7962 35.647 35.844 36.0895C35.9038 35.4437 35.7484 34.8458 35.3178 34.4272C34.4209 33.5303 32.7227 33.7814 31.5149 34.9773C30.7256 35.7666 30.3429 36.7831 30.4385 37.6322C30.5103 36.9027 30.881 36.1254 31.5149 35.4916Z" fill="white"/>
<path d="M34.7677 36.9266C33.5599 38.1345 31.8617 38.3737 30.9647 37.4767C30.7495 37.2615 30.594 36.9984 30.5103 36.6994C30.319 37.4887 30.4505 38.2661 30.9647 38.7683C31.8617 39.6653 33.5599 39.4141 34.7677 38.2182C35.6766 37.3093 36.0354 36.1134 35.7723 35.1926C35.6288 35.7905 35.282 36.4004 34.7677 36.9266Z" fill="white"/>
<path d="M38.6664 51.9353H36.729V45.5611C36.729 44.7718 37.04 44.0423 37.5901 43.4922L40.1852 40.897L41.5605 42.2723L38.9654 44.8674C38.774 45.0588 38.6783 45.298 38.6783 45.573V51.9353H38.6664Z" fill="white"/>
<path d="M37.0519 45.8122C37.0519 45.0229 37.3628 44.2934 37.913 43.7433L40.4722 41.1841L40.1852 40.897L37.5901 43.4922C37.04 44.0423 36.729 44.7837 36.729 45.5611V51.9353H37.0519V45.8122Z" fill="white"/>
<path d="M40.1852 40.8851L40.0178 41.0526L40.8908 41.9256L38.2119 44.6044C38.0206 44.7957 37.913 45.0588 37.913 45.3339V51.9234H38.6783V45.5492C38.6783 45.2861 38.786 45.0349 38.9654 44.8436L41.5605 42.2485L40.1852 40.8851Z" fill="white"/>
<path d="M43.0514 42.5777C44.2563 41.3728 44.5062 39.6691 43.6095 38.7724C42.7128 37.8757 41.0091 38.1256 39.8042 39.3305C38.5992 40.5354 38.3494 42.2391 39.2461 43.1358C40.1427 44.0325 41.8464 43.7826 43.0514 42.5777Z" fill="white"/>
<path d="M39.8025 39.8446C41.0104 38.6368 42.7086 38.3976 43.6055 39.2945C43.9164 39.6055 44.0839 40.0001 44.1317 40.4426C44.1915 39.7968 44.036 39.1988 43.6055 38.7803C42.7086 37.8834 41.0104 38.1345 39.8025 39.3304C39.0132 40.1197 38.6305 41.1362 38.7262 41.9853C38.7979 41.2678 39.1687 40.4904 39.8025 39.8446Z" fill="white"/>
<path d="M43.0434 41.2797C41.8355 42.4876 40.1373 42.7268 39.2404 41.8298C39.0252 41.6146 38.8697 41.3515 38.786 41.0525C38.5946 41.8418 38.7262 42.6191 39.2404 43.1214C40.1373 44.0183 41.8355 43.7672 43.0434 42.5713C43.9523 41.6624 44.3111 40.4665 44.048 39.5457C43.9045 40.1556 43.5696 40.7655 43.0434 41.2797Z" fill="white"/>
<path d="M66.4593 47.5702H68.3966V41.196C68.3966 40.4067 68.0857 39.6772 67.5356 39.1271L64.9405 36.532L63.5652 37.9073L66.1603 40.5024C66.3516 40.6937 66.4473 40.9329 66.4473 41.208V47.5702H66.4593Z" fill="white"/>
<path d="M68.0857 41.4591C68.0857 40.6698 67.7748 39.9403 67.2246 39.3902L64.6654 36.831L64.9524 36.5439L67.5475 39.1391C68.0977 39.6892 68.4086 40.4306 68.4086 41.208V47.5822H68.0857V41.4591Z" fill="white"/>
<path d="M64.9524 36.52L65.1198 36.6874L64.2468 37.5605L66.9257 40.2393C67.117 40.4306 67.2247 40.6937 67.2247 40.9688V47.5582H66.4593V41.1841C66.4593 40.921 66.3516 40.6698 66.1723 40.4785L63.5771 37.8834L64.9524 36.52Z" fill="white"/>
<path d="M65.8867 38.7743C66.7834 37.8776 66.5335 36.1739 65.3286 34.969C64.1236 33.7641 62.4199 33.5142 61.5232 34.4109C60.6266 35.3076 60.8764 37.0113 62.0814 38.2162C63.2863 39.4211 64.99 39.671 65.8867 38.7743Z" fill="white"/>
<path d="M65.3351 35.4916C64.1273 34.2837 62.4291 34.0445 61.5321 34.9414C61.2212 35.2524 61.0538 35.647 61.0059 36.0895C60.9461 35.4437 61.1016 34.8458 61.5321 34.4272C62.4291 33.5303 64.1273 33.7814 65.3351 34.9773C66.1244 35.7666 66.5071 36.7831 66.4114 37.6322C66.3397 36.9027 65.969 36.1254 65.3351 35.4916Z" fill="white"/>
<path d="M62.0822 36.9266C63.2901 38.1345 64.9883 38.3737 65.8852 37.4767C66.1005 37.2615 66.256 36.9984 66.3397 36.6994C66.531 37.4887 66.3995 38.2661 65.8852 38.7683C64.9883 39.6653 63.2901 39.4141 62.0822 38.2182C61.1734 37.3093 60.8146 36.1134 61.0777 35.1926C61.2212 35.7905 61.568 36.4004 62.0822 36.9266Z" fill="white"/>
<path d="M58.1836 51.9353H60.121V45.5611C60.121 44.7718 59.81 44.0423 59.2599 43.4922L56.6648 40.897L55.2895 42.2723L57.8846 44.8674C58.0759 45.0588 58.1716 45.298 58.1716 45.573V51.9353H58.1836Z" fill="white"/>
<path d="M59.7981 45.8122C59.7981 45.0229 59.4871 44.2934 58.937 43.7433L56.3778 41.1841L56.6648 40.897L59.2599 43.4922C59.81 44.0423 60.121 44.7837 60.121 45.5611V51.9353H59.7981V45.8122Z" fill="white"/>
<path d="M56.6648 40.8851L56.8322 41.0526L55.9592 41.9256L58.638 44.6044C58.8294 44.7957 58.937 45.0588 58.937 45.3339V51.9234H58.1716V45.5492C58.1716 45.2861 58.064 45.0349 57.8846 44.8436L55.2895 42.2485L56.6648 40.8851Z" fill="white"/>
<path d="M57.6036 43.141C58.5003 42.2443 58.2504 40.5406 57.0455 39.3357C55.8406 38.1308 54.1369 37.8809 53.2402 38.7776C52.3435 39.6743 52.5934 41.378 53.7983 42.5829C55.0032 43.7878 56.7069 44.0377 57.6036 43.141Z" fill="white"/>
<path d="M57.0475 39.8446C55.8396 38.6368 54.1414 38.3976 53.2445 39.2945C52.9336 39.6055 52.7661 40.0001 52.7183 40.4426C52.6585 39.7968 52.814 39.1988 53.2445 38.7803C54.1414 37.8834 55.8396 38.1345 57.0475 39.3304C57.8368 40.1197 58.2195 41.1362 58.1238 41.9853C58.0521 41.2678 57.6813 40.4904 57.0475 39.8446Z" fill="white"/>
<path d="M53.8066 41.2797C55.0144 42.4876 56.7126 42.7268 57.6096 41.8298C57.8248 41.6146 57.9803 41.3515 58.064 41.0525C58.2553 41.8418 58.1238 42.6191 57.6096 43.1214C56.7126 44.0183 55.0144 43.7672 53.8066 42.5713C52.8977 41.6624 52.5389 40.4665 52.802 39.5457C52.9455 40.1556 53.2804 40.7655 53.8066 41.2797Z" fill="white"/>
<path d="M69.5686 55.6426H27.2814C26.4921 55.6426 25.7625 55.212 25.3918 54.5184L23.3468 50.7633C22.5695 49.3282 23.6099 47.5822 25.2363 47.5822H71.6256C73.264 47.5822 74.2925 49.3282 73.5151 50.7633L71.4701 54.5184C71.0874 55.2001 70.3579 55.6426 69.5686 55.6426Z" fill="white"/>
<path d="M25.2364 48.8618H71.6256C72.6302 48.8618 73.4075 49.5196 73.6826 50.3687C74.1131 49.0293 73.1205 47.5703 71.6256 47.5703H25.2364C23.7415 47.5703 22.7489 49.0293 23.1794 50.3687C23.4425 49.5315 24.2318 48.8618 25.2364 48.8618Z" fill="white"/>
<path d="M71.4701 51.9233C71.0874 52.617 70.3699 53.0475 69.5806 53.0475H27.2814C26.4921 53.0475 25.7625 52.617 25.3918 51.9233L23.5023 48.4552C23.0359 49.089 22.9163 49.974 23.3468 50.7633L25.3918 54.5185C25.7745 55.2121 26.4921 55.6426 27.2814 55.6426H69.5806C70.3699 55.6426 71.0994 55.2121 71.4701 54.5185L73.5151 50.7633C73.9457 49.974 73.8261 49.101 73.3597 48.4552L71.4701 51.9233Z" fill="white"/>
<path d="M63.9598 80.6251H32.8902C31.0963 80.6251 29.6492 79.178 29.6492 77.3842V55.6426H67.2007V77.3961C67.2007 79.178 65.7537 80.6251 63.9598 80.6251Z" fill="white"/>
<path d="M63.9598 78.03H32.8902C31.0963 78.03 29.6492 76.5829 29.6492 74.7891V77.3842C29.6492 79.178 31.0963 80.6251 32.8902 80.6251H63.9598C65.7537 80.6251 67.2007 79.178 67.2007 77.3842V74.7891C67.2007 76.5829 65.7537 78.03 63.9598 78.03Z" fill="#136DA0"/>
<path d="M29.6492 55.6426H67.2007V58.3692H29.6492V55.6426Z" fill="#136DA0"/>
</svg>
