<svg width="96" height="96" viewBox="0 0 96 96" fill="none" xmlns="http://www.w3.org/2000/svg">
<rect y="0.000244141" width="96" height="96" rx="15" fill="#131C73"/>
<path d="M29.6134 49.9624H30.3788V43.5882C30.3788 43.3251 30.4864 43.074 30.6658 42.8826L31.8976 41.6508C32.7108 41.8183 33.7034 41.5193 34.5286 40.8137C34.6123 40.7419 34.684 40.6702 34.7558 40.5984C34.8276 40.5267 34.8873 40.4549 34.9471 40.3951C34.9711 40.3712 34.983 40.3473 35.0069 40.3353C35.0548 40.2875 35.0906 40.2277 35.1265 40.1799C35.1385 40.1559 35.1624 40.132 35.1744 40.1081C35.2222 40.0483 35.27 39.9766 35.3059 39.9168C35.3179 39.9048 35.3179 39.8928 35.3298 39.8928C35.3777 39.8211 35.4135 39.7493 35.4614 39.6656C35.4733 39.6417 35.4853 39.6178 35.4973 39.5819C35.5212 39.5341 35.5451 39.4743 35.569 39.4264C35.581 39.4025 35.5929 39.3666 35.6049 39.3427C35.6288 39.2829 35.6527 39.2351 35.6647 39.1753C35.6766 39.1514 35.6886 39.1275 35.6886 39.1035C35.7125 39.0318 35.7364 38.96 35.7484 38.8883C35.7604 38.8524 35.7604 38.8165 35.7723 38.7806C35.7843 38.7328 35.7843 38.6969 35.7962 38.6491C35.8082 38.6132 35.8082 38.5773 35.8082 38.5415C35.8082 38.5056 35.8202 38.4578 35.8202 38.4219C35.8202 38.374 35.8321 38.3262 35.8321 38.2784C35.8321 38.2305 35.8321 38.1707 35.8321 38.1229C35.8321 38.087 35.8321 38.0511 35.8202 38.0033V37.9914C35.8202 37.9555 35.8202 37.9316 35.8082 37.8957C35.8082 37.8598 35.7962 37.8239 35.7962 37.7761C35.7962 37.7402 35.7843 37.7163 35.7723 37.6804C35.7604 37.6445 35.7604 37.6087 35.7484 37.5728C35.7364 37.5369 35.7484 37.5608 35.7364 37.5608C35.7364 37.5369 35.7245 37.5249 35.7125 37.513C35.7006 37.4652 35.6766 37.4054 35.6527 37.3575C35.6408 37.3336 35.6288 37.3097 35.6168 37.2858C35.5929 37.2499 35.581 37.202 35.5571 37.1662C35.5331 37.1303 35.5092 37.0944 35.4853 37.0585C35.4614 37.0346 35.4494 36.9987 35.4255 36.9748C35.3777 36.915 35.3298 36.8552 35.282 36.8074C35.2222 36.7476 35.1624 36.6998 35.1026 36.6519C34.983 36.5563 34.8395 36.4845 34.696 36.4247C34.4807 36.341 34.2416 36.2812 34.0024 36.2692C33.4642 36.2453 32.8663 36.4008 32.3042 36.7237C32.0172 36.8911 31.7301 37.1064 31.479 37.3575C31.4073 37.4293 31.3475 37.4891 31.2877 37.5608C31.2757 37.5728 31.2518 37.5967 31.2398 37.6087C31.18 37.6804 31.1202 37.7522 31.0724 37.8239C31.0604 37.8359 31.0604 37.8359 31.0604 37.8478C31.0126 37.9076 30.9767 37.9794 30.9289 38.0392C30.9169 38.0631 30.893 38.087 30.8811 38.1109C30.8452 38.1707 30.8093 38.2425 30.7734 38.3023C30.7615 38.3382 30.7375 38.3621 30.7256 38.398C30.7017 38.4458 30.6778 38.4936 30.6538 38.5415C30.6419 38.5773 30.618 38.6132 30.606 38.6491C30.594 38.685 30.5821 38.7209 30.5582 38.7687C30.5342 38.8404 30.5103 38.9002 30.4864 38.972C30.4744 38.9959 30.4744 39.0198 30.4625 39.0437C30.4505 39.0916 30.4386 39.1394 30.4266 39.1873C30.4147 39.2351 30.4027 39.2829 30.4027 39.3308C30.4027 39.3666 30.3907 39.4025 30.3907 39.4384C30.3788 39.4862 30.3788 39.546 30.3788 39.5939V39.6776V39.857V39.9287C30.3788 39.9885 30.3907 40.0603 30.4027 40.1201C30.4027 40.144 30.4147 40.1559 30.4147 40.1799C30.4266 40.2277 30.4386 40.2875 30.4505 40.3353L29.2546 41.5312C28.7045 42.0813 28.3936 42.8228 28.3936 43.6002V49.9743H28.7165H29.6134V49.9624Z" fill="black"/>
<path d="M60.9939 38.2784C60.9939 38.3263 60.9939 38.3741 61.0059 38.4219C61.0059 38.4578 61.0179 38.5056 61.0179 38.5415C61.0179 38.5774 61.0298 38.6133 61.0298 38.6492C61.0418 38.697 61.0418 38.7329 61.0537 38.7807C61.0657 38.8166 61.0657 38.8525 61.0777 38.8883C61.0896 38.9601 61.1135 39.0318 61.1374 39.1036C61.1494 39.1275 61.1494 39.1514 61.1614 39.1754C61.1853 39.2351 61.1972 39.283 61.2212 39.3428C61.2331 39.3667 61.2451 39.4026 61.257 39.4265C61.281 39.4743 61.3049 39.5341 61.3288 39.582C61.3408 39.6059 61.3527 39.6298 61.3647 39.6657C61.4006 39.7374 61.4484 39.8211 61.4962 39.8929C61.5082 39.9049 61.5082 39.9168 61.5201 39.9168C61.568 39.9886 61.6039 40.0484 61.6517 40.1082C61.6636 40.1321 61.6876 40.156 61.6995 40.1799C61.7354 40.2277 61.7832 40.2875 61.8191 40.3354C61.843 40.3593 61.855 40.3832 61.8789 40.3952C61.9387 40.4669 61.9985 40.5387 62.0703 40.5985C62.142 40.6702 62.2257 40.742 62.2975 40.8137C63.1227 41.5193 64.1153 41.8063 64.9285 41.6509L66.1603 42.8827C66.3516 43.074 66.4473 43.3132 66.4473 43.5882V49.9624H67.2127H68.0618H68.3847V43.5882C68.3847 42.7989 68.0737 42.0694 67.5236 41.5193L66.3277 40.3234C66.3396 40.2756 66.3516 40.2158 66.3636 40.168C66.3636 40.144 66.3755 40.1321 66.3755 40.1082C66.3875 40.0484 66.3875 39.9886 66.3994 39.9168C66.3994 39.8929 66.3994 39.869 66.3994 39.8451C66.3994 39.7853 66.3994 39.7255 66.3994 39.6657C66.3994 39.6418 66.3994 39.6178 66.3994 39.582C66.3994 39.5341 66.3875 39.4743 66.3875 39.4265C66.3875 39.3906 66.3755 39.3547 66.3755 39.3189C66.3636 39.271 66.3636 39.2232 66.3516 39.1754C66.3397 39.1275 66.3277 39.0797 66.3157 39.0318C66.3038 39.0079 66.3038 38.984 66.2918 38.9601C66.2679 38.8883 66.244 38.8285 66.2201 38.7568C66.2081 38.7209 66.1961 38.685 66.1722 38.6372C66.1603 38.6013 66.1363 38.5654 66.1244 38.5296C66.1005 38.4817 66.0766 38.4339 66.0526 38.3861C66.0407 38.3502 66.0287 38.3263 66.0048 38.2904C65.9689 38.2306 65.933 38.1588 65.8972 38.099C65.8852 38.0751 65.8613 38.0512 65.8493 38.0273C65.8134 37.9675 65.7656 37.8957 65.7178 37.8359C65.7178 37.824 65.7058 37.824 65.7058 37.812C65.658 37.7403 65.5982 37.6685 65.5384 37.5968C65.5264 37.5848 65.5025 37.5609 65.4906 37.5489C65.4308 37.4772 65.371 37.4054 65.2992 37.3456C65.0361 37.0825 64.7611 36.8792 64.474 36.7118C63.912 36.3889 63.326 36.2334 62.7758 36.2573C62.5247 36.2693 62.2975 36.3171 62.0822 36.4128C61.9387 36.4726 61.8072 36.5444 61.6756 36.64C61.6158 36.6879 61.556 36.7357 61.4962 36.7955C61.4484 36.8553 61.3886 36.9031 61.3527 36.9629C61.3288 36.9868 61.3168 37.0227 61.2929 37.0466C61.269 37.0825 61.2451 37.1184 61.2212 37.1543C61.1972 37.1901 61.1733 37.238 61.1614 37.2739C61.1494 37.2978 61.1375 37.3217 61.1255 37.3456C61.1016 37.3934 61.0896 37.4413 61.0657 37.5011C61.0657 37.513 61.0537 37.537 61.0418 37.5489C61.0418 37.5489 61.0418 37.5609 61.0298 37.5609C61.0179 37.5968 61.0059 37.6326 61.0059 37.6685C60.9939 37.7044 60.9939 37.7283 60.982 37.7642C60.97 37.8001 60.97 37.8359 60.9581 37.8838C60.9581 37.9077 60.9461 37.9436 60.9461 37.9794V37.9914C60.9461 38.0273 60.9341 38.0632 60.9341 38.111C60.9939 38.1708 60.9939 38.2306 60.9939 38.2784Z" fill="black"/>
<path d="M73.7663 52.127C73.7663 52.1151 73.7663 52.1151 73.7663 52.127C73.7663 52.1031 73.7663 52.0912 73.7663 52.0792C73.7663 52.0553 73.7663 52.0314 73.7663 52.0194C73.7663 52.0074 73.7663 51.9835 73.7663 51.9716C73.7663 51.9596 73.7663 51.9596 73.7663 51.9477C73.7543 51.7683 73.7065 51.5889 73.6467 51.4215C73.6347 51.3856 73.6228 51.3617 73.6108 51.3258C73.6108 51.3138 73.5989 51.3138 73.5989 51.3019C73.5869 51.2779 73.5749 51.2421 73.563 51.2181C73.563 51.2062 73.551 51.1942 73.551 51.1823C73.5391 51.1584 73.5271 51.1344 73.5152 51.1105C73.5032 51.0986 73.5032 51.0866 73.4912 51.0746C73.4793 51.0507 73.4673 51.0268 73.4434 51.0029C73.4314 50.9909 73.4314 50.979 73.4195 50.967C73.4075 50.9431 73.3956 50.9192 73.3716 50.9072C73.3597 50.8953 73.3477 50.8833 73.3477 50.8713C73.3358 50.8474 73.3118 50.8355 73.2999 50.8115C73.2879 50.7996 73.276 50.7876 73.264 50.7757C73.2521 50.7517 73.2281 50.7398 73.2162 50.7159C73.2042 50.7039 73.1923 50.6919 73.1803 50.68C73.1683 50.668 73.1444 50.6441 73.1325 50.6322C73.1205 50.6202 73.1085 50.6082 73.0846 50.5963C73.0727 50.5843 73.0487 50.5604 73.0368 50.5484C73.0009 50.5245 72.977 50.4886 72.9411 50.4647C72.9292 50.4528 72.9172 50.4408 72.8933 50.4289C72.8694 50.4169 72.8574 50.393 72.8335 50.381C72.8215 50.3691 72.7976 50.3571 72.7857 50.3451C72.7617 50.3332 72.7498 50.3212 72.7259 50.3093C72.7139 50.2973 72.69 50.2853 72.678 50.2853C72.6541 50.2734 72.6302 50.2614 72.6182 50.2495C72.6063 50.2375 72.5823 50.2375 72.5704 50.2255C72.5465 50.2136 72.5225 50.2016 72.4986 50.1897C72.4747 50.1777 72.4628 50.1777 72.4388 50.1658C72.4149 50.1538 72.391 50.1418 72.3671 50.1418C72.3432 50.1299 72.3312 50.1299 72.3073 50.1179C72.2834 50.106 72.2594 50.106 72.2355 50.094C72.2116 50.094 72.1997 50.082 72.1757 50.082C72.1518 50.0701 72.1279 50.0701 72.092 50.0581C72.0681 50.0581 72.0561 50.0462 72.0322 50.0462C72.0083 50.0462 71.9724 50.0342 71.9485 50.0342C71.9246 50.0342 71.9126 50.0222 71.8887 50.0222C71.8528 50.0222 71.8289 50.0103 71.793 50.0103C71.7811 50.0103 71.7572 50.0103 71.7452 50.0103C71.6974 50.0103 71.6495 50.0103 71.6017 50.0103H61.7235V48.2284C61.7235 44.9038 60.5037 41.8662 58.4946 39.5341C58.2793 39.283 58.0521 39.0438 57.8248 38.8166C57.191 38.1828 56.4974 37.6207 55.7559 37.1184C55.7201 37.0945 55.6842 37.0706 55.6483 37.0466C55.5646 36.9988 55.4809 36.939 55.3972 36.8912C55.3493 36.8553 55.2895 36.8314 55.2417 36.7955C55.1699 36.7477 55.0982 36.7118 55.0145 36.664C54.9547 36.6281 54.9068 36.6042 54.847 36.5683C54.7753 36.5324 54.6916 36.4846 54.6198 36.4487C54.56 36.4248 54.5122 36.3889 54.4524 36.365C54.3806 36.3291 54.2969 36.2932 54.2132 36.2454C54.1534 36.2215 54.1056 36.1976 54.0458 36.1617C53.9382 36.1138 53.8425 36.066 53.7348 36.0182C53.6392 35.9823 53.5435 35.9345 53.4478 35.8986C53.388 35.8747 53.3282 35.8507 53.2684 35.8268C53.1847 35.7909 53.101 35.767 53.0173 35.7312C52.9934 35.7192 52.9575 35.7072 52.9336 35.6953L52.7303 35.1332C53.8425 34.1286 54.6677 32.7533 55.0503 31.1747C55.1341 31.1987 55.2058 31.2106 55.2895 31.2106C56.019 31.2106 56.605 30.3496 56.605 29.2972C56.605 28.2448 56.019 27.3837 55.2895 27.3837C55.2297 27.3837 55.1699 27.3957 55.1101 27.4076C55.0862 27.312 55.0623 27.2043 55.0384 27.1087C55.0384 27.0967 55.0384 27.0847 55.0264 27.0728C54.9786 26.8814 54.9188 26.6901 54.859 26.4988C54.859 26.4868 54.859 26.4868 54.847 26.4748C54.847 26.4629 54.8351 26.4509 54.8351 26.439C54.8112 26.3552 54.7753 26.2715 54.7514 26.1878C54.7394 26.1639 54.7394 26.1519 54.7275 26.128C54.7035 26.0563 54.6796 25.9965 54.6437 25.9247C54.6318 25.9008 54.6198 25.8649 54.6079 25.841C54.5959 25.8051 54.5839 25.7812 54.572 25.7573C54.5002 25.5899 54.4285 25.4344 54.3448 25.2789L54.3328 25.267C54.273 25.1593 54.2252 25.0637 54.1654 24.968C54.1534 24.956 54.1534 24.9441 54.1534 24.9321C54.1415 24.9082 54.1295 24.8843 54.1175 24.8723C54.0936 24.8245 54.0577 24.7766 54.0338 24.7288C54.0219 24.7049 53.9979 24.681 53.986 24.6571C53.6153 24.083 53.1728 23.5688 52.6824 23.1263C52.6705 23.1143 52.6466 23.1024 52.6346 23.0904C52.5748 23.0306 52.515 22.9828 52.4433 22.9349C52.4193 22.911 52.3954 22.8991 52.3715 22.8752C52.3117 22.8273 52.2519 22.7795 52.2041 22.7436C52.1802 22.7197 52.1443 22.7077 52.1204 22.6838C52.0606 22.6479 52.0127 22.6001 51.9529 22.5642C51.929 22.5403 51.8931 22.5283 51.8692 22.5044C51.8094 22.4685 51.7496 22.4327 51.6898 22.3968C51.6659 22.3729 51.63 22.3609 51.6061 22.349C51.5463 22.3131 51.4865 22.2772 51.4267 22.2413C51.4028 22.2294 51.367 22.2054 51.343 22.1935C51.2832 22.1576 51.2115 22.1217 51.1517 22.0978C51.1278 22.0859 51.0919 22.0739 51.068 22.0619C50.9962 22.0261 50.9245 22.0021 50.8527 21.9663C50.8288 21.9543 50.8049 21.9423 50.781 21.9304C50.6972 21.8945 50.6255 21.8706 50.5418 21.8347C50.5298 21.8228 50.5059 21.8228 50.4939 21.8108C50.3983 21.7749 50.3026 21.751 50.2069 21.7151C50.2069 21.7151 50.2069 21.7151 50.195 21.7151C49.884 21.6194 49.5611 21.5477 49.2263 21.4999C49.1545 21.4879 49.0828 21.4759 49.023 21.4759C48.9991 21.4759 48.9632 21.4759 48.9393 21.464C48.8795 21.464 48.8077 21.452 48.736 21.452C48.712 21.452 48.6881 21.452 48.6522 21.452C48.5566 21.452 48.4729 21.4401 48.3772 21.4401C48.3174 21.4401 48.2576 21.4401 48.1978 21.4401C48.1739 21.4401 48.1619 21.4401 48.138 21.4401C48.126 21.4401 48.1141 21.4401 48.0902 21.4401C48.0184 21.4401 47.9347 21.452 47.8629 21.452C47.6596 21.464 47.4683 21.4999 47.265 21.5357C47.1813 21.5477 47.0976 21.5716 47.0019 21.5836C46.966 21.5955 46.9421 21.5955 46.9062 21.6075C46.8584 21.6194 46.7986 21.6314 46.7507 21.6434C46.7149 21.6553 46.667 21.6673 46.6312 21.6792C46.5833 21.6912 46.5235 21.7151 46.4757 21.7271C46.4518 21.739 46.4159 21.751 46.392 21.751C46.38 21.751 46.38 21.751 46.3681 21.763C46.2963 21.7869 46.2126 21.8108 46.1408 21.8467C46.1289 21.8467 46.1169 21.8586 46.1169 21.8586C46.0452 21.8825 45.9614 21.9184 45.8897 21.9543C45.8777 21.9543 45.8658 21.9663 45.8538 21.9663C45.7701 22.0021 45.6864 22.038 45.6027 22.0859C45.5309 22.1217 45.4592 22.1576 45.3874 22.1935C45.3755 22.1935 45.3635 22.2054 45.3515 22.2054C44.8134 22.5044 44.3111 22.8752 43.8567 23.3057C43.8447 23.3176 43.8447 23.3176 43.8327 23.3296C43.7371 23.4133 43.6533 23.509 43.5696 23.6047C43.5577 23.6166 43.5457 23.6286 43.5457 23.6405C43.462 23.7362 43.3783 23.8319 43.2946 23.9276C43.2826 23.9395 43.2707 23.9515 43.2587 23.9634C43.1869 24.0591 43.1032 24.1548 43.0315 24.2504C43.0195 24.2624 43.0076 24.2863 42.9956 24.2983C42.9358 24.382 42.876 24.4777 42.8162 24.5614C42.8043 24.5733 42.7923 24.5973 42.7803 24.6092C42.7684 24.6331 42.7564 24.6451 42.7445 24.669C42.6966 24.7408 42.6488 24.8125 42.6129 24.8843C42.6009 24.9082 42.589 24.9202 42.577 24.9441C42.3139 25.3985 42.0987 25.8769 41.9193 26.3911C41.9073 26.415 41.9073 26.427 41.8954 26.4509C41.8714 26.5107 41.8595 26.5585 41.8356 26.6183C41.8236 26.6542 41.8117 26.6901 41.7997 26.714C41.7877 26.7499 41.7758 26.7977 41.7638 26.8336C41.7519 26.8695 41.7399 26.8934 41.7399 26.9293C41.7399 26.9412 41.7279 26.9652 41.7279 26.9771C41.716 27.013 41.704 27.0608 41.6921 27.0967C41.6801 27.1326 41.6801 27.1685 41.6681 27.2043C41.6562 27.2641 41.6442 27.3359 41.6323 27.3957C41.5725 27.3837 41.5127 27.3718 41.4529 27.3718C40.7234 27.3718 40.1374 28.2328 40.1374 29.2852C40.1374 30.3376 40.7234 31.1987 41.4529 31.1987C41.5366 31.1987 41.6203 31.1867 41.6921 31.1628C42.0748 32.7414 42.8999 34.1286 44.0121 35.1212L43.8088 35.6833C43.7849 35.6953 43.749 35.7072 43.7251 35.7192C43.6414 35.7551 43.5577 35.779 43.474 35.8149C43.4142 35.8388 43.3544 35.8627 43.3065 35.8866C43.2109 35.9225 43.1032 35.9703 43.0076 36.0182C42.9119 36.066 42.8043 36.1019 42.7086 36.1497C42.6488 36.1736 42.6009 36.2095 42.5412 36.2334C42.4694 36.2693 42.3857 36.3052 42.3139 36.353C42.2541 36.3769 42.2063 36.4128 42.1465 36.4367C42.0748 36.4726 42.003 36.5205 41.9193 36.5563C41.8595 36.5922 41.8117 36.6161 41.7519 36.652C41.6801 36.6998 41.6083 36.7357 41.5246 36.7836C41.4768 36.8194 41.417 36.8433 41.3692 36.8792C41.2855 36.9271 41.2137 36.9749 41.13 37.0347C41.0941 37.0586 41.0463 37.0825 41.0104 37.1064C40.9865 37.1184 40.9626 37.1423 40.9267 37.1543C40.9147 37.1543 40.9147 37.1662 40.9028 37.1662C40.9028 37.1662 40.8908 37.1662 40.8908 37.1782C40.7832 37.25 40.6875 37.3217 40.5799 37.3935C40.5679 37.4054 40.5679 37.4054 40.556 37.4174C40.4603 37.4891 40.3646 37.5609 40.2689 37.6326C40.257 37.6446 40.245 37.6566 40.2331 37.6566C40.1374 37.7283 40.0417 37.8001 39.958 37.8718C39.946 37.8838 39.9341 37.8957 39.9102 37.9077C39.8264 37.9795 39.7308 38.0512 39.6471 38.123C39.6351 38.1349 39.6112 38.1469 39.5992 38.1708C39.5155 38.2426 39.4318 38.3143 39.3481 38.3861C39.3242 38.398 39.3122 38.4219 39.2883 38.4339C39.2046 38.5057 39.1328 38.5774 39.0611 38.6492C39.0371 38.6731 39.0132 38.697 39.0013 38.709C38.9295 38.7807 38.8578 38.8525 38.786 38.9242C38.7621 38.9481 38.7382 38.9721 38.7143 38.996C38.6425 39.0677 38.5827 39.1395 38.5109 39.2112C38.487 39.2352 38.4631 39.271 38.4392 39.295C38.3794 39.3667 38.3196 39.4385 38.2478 39.5102C38.2239 39.5461 38.1881 39.582 38.1641 39.6059C38.1043 39.6776 38.0445 39.7374 37.9967 39.8092C37.9608 39.8451 37.9369 39.8809 37.913 39.9168C37.8652 39.9886 37.8054 40.0484 37.7575 40.1201C37.7216 40.168 37.6977 40.2038 37.6619 40.2517C37.614 40.3115 37.5662 40.3832 37.5183 40.443C37.4825 40.4909 37.4466 40.5387 37.4227 40.5865C37.3748 40.6463 37.339 40.7061 37.2911 40.7659C37.2552 40.8138 37.2194 40.8736 37.1835 40.9214C37.1476 40.9812 37.1117 41.041 37.0759 41.1008C37.04 41.1606 37.0041 41.2204 36.9682 41.2802C36.9324 41.34 36.8965 41.3878 36.8726 41.4476C36.8367 41.5074 36.8008 41.5791 36.7649 41.6509C36.741 41.6987 36.7051 41.7466 36.6812 41.8064C36.6453 41.8781 36.5975 41.9499 36.5616 42.0216C36.5377 42.0695 36.5138 42.1053 36.4899 42.1532C36.454 42.2369 36.4062 42.3206 36.3703 42.3924C36.3464 42.4282 36.3344 42.4761 36.3105 42.5119C36.2626 42.5957 36.2268 42.6913 36.1909 42.787C36.1789 42.8229 36.167 42.8468 36.1431 42.8827C36.0952 42.9784 36.0593 43.086 36.0235 43.1817C36.0115 43.2056 35.9995 43.2295 35.9876 43.2534C35.9397 43.361 35.9039 43.4687 35.868 43.5883C35.856 43.6002 35.856 43.6241 35.8441 43.6361C35.7962 43.7557 35.7604 43.8753 35.7125 44.0068C35.7125 44.0188 35.7125 44.0188 35.7006 44.0307C35.27 45.3343 35.0428 46.7335 35.0428 48.1805V49.9624H25.1646C25.1168 49.9624 25.0689 49.9624 25.0211 49.9624C25.0092 49.9624 24.9852 49.9624 24.9733 49.9624C24.9374 49.9624 24.9135 49.9624 24.8776 49.9744C24.8537 49.9744 24.8417 49.9744 24.8178 49.9864C24.7939 49.9864 24.758 49.9983 24.7341 49.9983C24.7102 49.9983 24.6982 50.0103 24.6743 50.0103C24.6504 50.0103 24.6265 50.0222 24.5906 50.0342C24.5667 50.0342 24.5547 50.0462 24.5308 50.0462C24.5069 50.0581 24.483 50.0581 24.459 50.0701C24.4351 50.082 24.4232 50.082 24.3992 50.094C24.3753 50.106 24.3514 50.106 24.3275 50.1179C24.3036 50.1299 24.2916 50.1299 24.2677 50.1418C24.2438 50.1538 24.2199 50.1658 24.1959 50.1777C24.184 50.1897 24.1601 50.1897 24.1481 50.2016C24.1242 50.2136 24.1003 50.2255 24.0883 50.2375C24.0763 50.2495 24.0524 50.2614 24.0405 50.2614C24.0166 50.2734 24.0046 50.2853 23.9807 50.2973C23.9687 50.3093 23.9448 50.3212 23.9328 50.3332C23.9089 50.3451 23.897 50.3691 23.873 50.381C23.8611 50.393 23.8491 50.4049 23.8252 50.4169C23.7893 50.4408 23.7654 50.4647 23.7295 50.5006C23.7176 50.5126 23.6937 50.5365 23.6817 50.5484C23.6697 50.5604 23.6578 50.5724 23.6339 50.5843C23.6219 50.5963 23.598 50.6202 23.586 50.6322C23.5741 50.6441 23.5621 50.6561 23.5501 50.668C23.5382 50.692 23.5143 50.7039 23.5023 50.7278C23.4904 50.7398 23.4784 50.7517 23.4664 50.7637C23.4545 50.7876 23.4306 50.7996 23.4186 50.8235C23.4066 50.8355 23.3947 50.8474 23.3947 50.8594C23.3827 50.8833 23.3588 50.9072 23.3468 50.9311C23.3349 50.9431 23.3349 50.9551 23.3229 50.967C23.311 50.9909 23.299 51.0148 23.2751 51.0388C23.2631 51.0507 23.2631 51.0627 23.2512 51.0746C23.2392 51.0986 23.2273 51.1225 23.2153 51.1464C23.2153 51.1584 23.2033 51.1703 23.2033 51.1823C23.1914 51.2062 23.1794 51.2421 23.1675 51.266C23.1675 51.2779 23.1555 51.2779 23.1555 51.2899C23.1435 51.3258 23.1316 51.3497 23.1196 51.3856C23.0598 51.553 23.0239 51.7324 23 51.9118V51.9357V51.9835V52.0433V52.0792V52.0912V52.1031V52.1868V52.2227V52.2347C23 52.2705 23 52.2945 23.012 52.3303C23.012 52.3543 23.012 52.3662 23.024 52.3901C23.024 52.4141 23.0359 52.4499 23.0359 52.4739V52.4858C23.0359 52.4978 23.0479 52.5217 23.0479 52.5336C23.0479 52.5576 23.0598 52.5815 23.0598 52.6054V52.6174V52.6293C23.0598 52.6532 23.0718 52.6652 23.0718 52.6891C23.0837 52.725 23.0957 52.7489 23.0957 52.7848C23.1077 52.8087 23.1077 52.8207 23.1196 52.8446C23.1316 52.8805 23.1435 52.9044 23.1555 52.9403C23.1675 52.9522 23.1675 52.9761 23.1794 52.9881C23.2033 53.0359 23.2273 53.0838 23.2512 53.1316L24.2677 55.0092L25.2842 56.8868C25.356 57.0183 25.4397 57.1379 25.5354 57.2455C25.5712 57.2814 25.5951 57.3173 25.631 57.3532C25.7028 57.4249 25.7745 57.4847 25.8463 57.5445C25.8822 57.5684 25.918 57.6043 25.9659 57.6282C26.0496 57.688 26.1213 57.7358 26.217 57.7717C26.2649 57.7956 26.3007 57.8076 26.3486 57.8315C26.516 57.9033 26.6954 57.9511 26.8867 57.987H26.9226C27.0183 57.9989 27.102 58.0109 27.1977 58.0109H29.6493V60.7495V77.1813V79.7764C29.6493 80.7212 30.0559 81.5822 30.7136 82.1682C30.7495 82.2041 30.7854 82.24 30.8332 82.2759C31.3953 82.7423 32.1128 83.0173 32.8902 83.0173H63.9599C65.7537 83.0173 67.2008 81.5703 67.2008 79.7764V60.7495V58.0229H69.5687C69.6524 58.0229 69.748 58.0109 69.8318 58.0109C69.8557 58.0109 69.8796 57.9989 69.9035 57.9989C70.0351 57.975 70.1547 57.9511 70.2742 57.9033C70.7646 57.7239 71.1951 57.3771 71.4582 56.8987L72.4747 55.0211L73.4912 53.1436C73.5151 53.0957 73.5391 53.0479 73.563 53.0001C73.5749 52.9881 73.575 52.9642 73.5869 52.9522C73.5989 52.9163 73.6108 52.8924 73.6228 52.8565C73.6347 52.8326 73.6347 52.8207 73.6467 52.7967C73.6587 52.7609 73.6706 52.737 73.6706 52.7011C73.6706 52.6772 73.6826 52.6652 73.6826 52.6413C73.6826 52.6413 73.6826 52.6413 73.6826 52.6293V52.6174C73.6826 52.5934 73.6945 52.5695 73.6945 52.5456C73.6945 52.5336 73.7065 52.5097 73.7065 52.4978V52.4858C73.7065 52.4619 73.7185 52.426 73.7185 52.4021C73.7185 52.3782 73.7185 52.3662 73.7304 52.3423C73.7304 52.3064 73.7424 52.2825 73.7424 52.2466V52.2347C73.7424 52.2227 73.7424 52.2108 73.7424 52.1988C73.7424 52.1749 73.7424 52.151 73.7424 52.1151C73.7783 52.127 73.7663 52.127 73.7663 52.127Z" fill="black"/>
<path d="M61.7354 45.7888V49.8669C61.7354 51.7564 60.1927 53.2991 58.3032 53.2991H38.5468C36.6573 53.2991 35.1145 51.7564 35.1145 49.8669V45.7888C35.1145 41.1965 37.4466 37.1424 40.9864 34.7506C41.0223 34.7267 41.0582 34.7028 41.0821 34.6789C41.9432 34.1048 42.8879 33.6265 43.8805 33.2677C45.3037 32.7534 46.8225 32.4664 48.425 32.4664C50.0156 32.4664 51.5463 32.7415 52.9694 33.2677C53.962 33.6265 54.8949 34.1048 55.7679 34.6789C56.5213 35.1692 57.203 35.7432 57.8368 36.3651C60.2406 38.7808 61.7354 42.1054 61.7354 45.7888Z" fill="black"/>
<path d="M35.1145 46.3146H61.7354V47.5716H35.1145V46.3146Z" fill="black"/>
<path d="M57.8368 36.3769C57.203 35.743 56.5093 35.181 55.7679 34.6787C53.6631 33.2914 51.1397 32.4782 48.425 32.4782C45.7103 32.4782 43.1869 33.2914 41.0821 34.6787C37.4824 37.0585 35.1145 41.1485 35.1145 45.7887V47.738C35.1145 43.0979 37.4824 39.0198 41.0821 36.628C43.1869 35.2408 45.7103 34.4275 48.425 34.4275C51.1397 34.4275 53.6631 35.2408 55.7679 36.628C56.5213 37.1183 57.203 37.6924 57.8368 38.3262C60.2406 40.73 61.7354 44.0665 61.7354 47.738V45.7887C61.7354 42.1053 60.2406 38.7806 57.8368 36.3769Z" fill="black"/>
<path d="M48.425 32.4782V45.7049L46.9301 41.6149L43.8805 33.2675C45.3036 32.7533 46.8344 32.4782 48.425 32.4782Z" fill="#E6E7E8"/>
<path d="M52.9694 33.2675L49.9199 41.6149L48.425 45.7049V32.4782C50.0155 32.4782 51.5463 32.7533 52.9694 33.2675Z" fill="#E6E7E8"/>
<path d="M48.1499 34.4156L45.3395 37.2738L43.8805 33.2675L44.4067 31.8563H48.425V34.4275L48.1499 34.4156Z" fill="white"/>
<path d="M48.7 34.4156L51.5104 37.2738L52.9694 33.2675L52.4432 31.8563H48.425V34.4275L48.7 34.4156Z" fill="white"/>
<path d="M49.9199 41.6149L48.425 45.7049L46.9301 41.6149L47.7313 35.9104H49.1186L49.9199 41.6149Z" fill="white"/>
<path d="M47.9586 35.9104H47.7313L46.9301 41.6149L48.425 45.7049L47.4204 41.6149L47.9586 35.9104Z" fill="white"/>
<path d="M49.1186 35.9104H48.8914L49.4295 41.6149L48.425 45.7049L49.9199 41.6149L49.1186 35.9104Z" fill="white"/>
<path d="M49.9438 36.1496L48.6642 37.4173C48.5326 37.5488 48.3174 37.5488 48.1739 37.4173L46.8942 36.1376C46.7627 36.0061 46.7627 35.7908 46.8942 35.6473L48.1739 34.3677C48.3054 34.2362 48.5207 34.2362 48.6642 34.3677L49.9438 35.6473C50.0754 35.7908 50.0754 36.0181 49.9438 36.1496Z" fill="white"/>
<path d="M46.9062 35.9231L48.1858 34.6429C48.3174 34.5113 48.5326 34.5113 48.6761 34.6429L49.9558 35.9231C49.9916 35.959 50.0156 35.9949 50.0275 36.0308C50.0754 35.9112 50.0514 35.7556 49.9558 35.6599L48.6642 34.3917C48.5326 34.2601 48.3174 34.2601 48.1739 34.3917L46.8942 35.6719C46.7986 35.7676 46.7627 35.9231 46.8225 36.0428C46.8464 35.9949 46.8703 35.959 46.9062 35.9231Z" fill="white"/>
<path d="M49.8601 35.5757L48.6642 36.7721C48.5326 36.9038 48.3174 36.9038 48.1739 36.7721L46.978 35.5757L46.8942 35.6594C46.7627 35.791 46.7627 36.0064 46.8942 36.15L48.1739 37.4302C48.3054 37.5618 48.5207 37.5618 48.6642 37.4302L49.9438 36.15C50.0754 36.0184 50.0754 35.803 49.9438 35.6594L49.8601 35.5757Z" fill="white"/>
<path d="M41.5246 28.7826C42.2511 28.7826 42.8401 27.9259 42.8401 26.8691C42.8401 25.8124 42.2511 24.9557 41.5246 24.9557C40.7981 24.9557 40.2091 25.8124 40.2091 26.8691C40.2091 27.9259 40.7981 28.7826 41.5246 28.7826Z" fill="#E6E7E8"/>
<path d="M55.3254 28.7826C56.0519 28.7826 56.6409 27.9259 56.6409 26.8691C56.6409 25.8124 56.0519 24.9557 55.3254 24.9557C54.5989 24.9557 54.0099 25.8124 54.0099 26.8691C54.0099 27.9259 54.5989 28.7826 55.3254 28.7826Z" fill="#E6E7E8"/>
<path d="M55.3254 26.7138C55.3254 30.9712 52.228 34.4154 48.425 34.4154C44.6101 34.4154 41.5246 30.9712 41.5246 26.7138C41.5246 26.3191 41.5485 25.9245 41.6083 25.5418C41.9671 22.8988 43.5338 20.6864 45.6625 19.646C46.3561 19.2992 47.1215 19.0839 47.9108 19.0241C48.0782 19.0121 48.2456 19.0002 48.425 19.0002C51.7018 19.0002 54.4404 21.5475 55.146 24.9678C55.2656 25.5298 55.3254 26.1158 55.3254 26.7138Z" fill="white"/>
<path d="M48.425 33.3035C44.7775 33.3035 41.7997 30.1463 41.5366 26.152C41.5246 26.3433 41.5126 26.5347 41.5126 26.726C41.5126 30.9834 44.61 34.4277 48.413 34.4277C52.228 34.4277 55.3134 30.9834 55.3134 26.726C55.3134 26.5347 55.3015 26.3553 55.2895 26.1639C55.0503 30.1463 52.0725 33.3035 48.425 33.3035Z" fill="#D1D3D4"/>
<path d="M41.1539 42.8826C40.7234 42.8826 40.3765 43.2294 40.3765 43.6599V50.4885H41.9312V43.6599C41.9312 43.2294 41.5844 42.8826 41.1539 42.8826Z" fill="black"/>
<path d="M55.6961 42.8826C55.2656 42.8826 54.9187 43.2294 54.9187 43.6599V50.4885H56.4734V43.6599C56.4734 43.2294 56.1266 42.8826 55.6961 42.8826Z" fill="black"/>
<path d="M55.146 24.9797C54.285 25.3744 53.3402 25.6016 52.3356 25.6016C50.0036 25.6016 47.9586 24.4176 46.7508 22.6238C46.1648 21.7627 45.7821 20.7462 45.6625 19.6579C45.9136 19.5383 46.1648 19.4307 46.4279 19.335C46.7149 19.2394 47.0139 19.1557 47.3128 19.1078C47.5042 19.0719 47.7075 19.048 47.9108 19.0241C48.0184 19.0121 48.126 19.0121 48.2456 19.0002H48.425C48.724 19.0002 49.011 19.0241 49.298 19.06C51.0082 19.2992 52.527 20.232 53.6033 21.6073C53.8186 21.8823 54.0219 22.1693 54.2013 22.4803C54.3328 22.7075 54.4644 22.9467 54.572 23.1859C54.7035 23.4609 54.8112 23.7479 54.9068 24.0469C55.0025 24.3578 55.0862 24.6688 55.146 24.9797Z" fill="white"/>
<path d="M47.9108 19.037C47.8749 20.3645 47.4563 21.5963 46.7507 22.6248C45.6146 24.299 43.749 25.4232 41.5964 25.5547C41.6442 25.196 41.716 24.8492 41.7997 24.5143C41.8954 24.1675 42.003 23.8326 42.1465 23.4978C42.3378 23.0433 42.5651 22.6009 42.8282 22.1942C43.45 21.2495 44.2632 20.4602 45.1961 19.9101C45.3396 19.8263 45.495 19.7426 45.6505 19.6589C45.8897 19.5393 46.1528 19.4317 46.4039 19.348C46.7149 19.2404 47.0378 19.1566 47.3606 19.1088C47.552 19.0729 47.7314 19.049 47.9108 19.037Z" fill="white"/>
<path d="M54.9068 24.0717C54.3687 24.2032 53.8186 24.263 53.2445 24.263C50.8527 24.263 48.6164 23.0791 47.277 21.0819C46.9182 20.5437 46.6312 19.9577 46.4279 19.3359C46.7149 19.2402 47.0139 19.1565 47.3128 19.1086C47.4922 19.6229 47.7314 20.1132 48.0423 20.5676C49.2143 22.3017 51.1636 23.3422 53.2445 23.3422C53.699 23.3422 54.1415 23.2943 54.572 23.1986C54.7035 23.4857 54.8112 23.7727 54.9068 24.0717Z" fill="white"/>
<path d="M54.2012 22.4929C54.0816 22.5049 53.962 22.5049 53.8424 22.5049C51.6539 22.5049 49.6089 21.297 48.3891 19.2879C48.3413 19.2042 48.2815 19.1085 48.2336 19.0128H48.413C48.712 19.0128 48.999 19.0367 49.286 19.0726C50.3026 20.6034 51.8812 21.5362 53.5913 21.6199C53.8185 21.895 54.0218 22.1939 54.2012 22.4929Z" fill="white"/>
<path d="M47.3726 19.1086C47.2172 20.0892 46.7986 21.0459 46.1528 21.8711C45.1124 23.1986 43.5577 24.1194 41.8117 24.5141C41.9073 24.1673 42.015 23.8324 42.1585 23.4976C43.4859 23.1029 44.646 22.3375 45.4472 21.321C45.9136 20.7231 46.2485 20.0533 46.4159 19.3478C46.7268 19.2401 47.0378 19.1564 47.3726 19.1086Z" fill="white"/>
<path d="M45.208 19.9095C45.1362 20.0291 45.0645 20.1367 44.9808 20.2443C44.4067 21.0456 43.6772 21.7153 42.8401 22.1937C43.45 21.2489 44.2632 20.4596 45.208 19.9095Z" fill="white"/>
<path d="M30.3907 47.5704H28.4534V41.1962C28.4534 40.4069 28.7643 39.6774 29.3144 39.1273L31.9095 36.5322L33.2848 37.9075L30.6897 40.5026C30.4984 40.6939 30.4027 40.9331 30.4027 41.2082V47.5704H30.3907Z" fill="white"/>
<path d="M28.7643 41.4593C28.7643 40.67 29.0752 39.9405 29.6253 39.3904L32.1846 36.8311L31.8975 36.5441L29.3024 39.1392C28.7523 39.6894 28.4414 40.4308 28.4414 41.2082V47.5824H28.7643V41.4593Z" fill="white"/>
<path d="M31.8975 36.5204L31.7301 36.6879L32.6031 37.5609L29.9243 40.2397C29.733 40.4311 29.6253 40.6942 29.6253 40.9692V47.5587H30.3907V41.1845C30.3907 40.9214 30.4983 40.6702 30.6777 40.4789L33.2728 37.8838L31.8975 36.5204Z" fill="white"/>
<path d="M34.7618 38.2175C35.9667 37.0125 36.2166 35.3088 35.3199 34.4122C34.4232 33.5155 32.7195 33.7653 31.5146 34.9703C30.3097 36.1752 30.0598 37.8789 30.9565 38.7756C31.8532 39.6723 33.5569 39.4224 34.7618 38.2175Z" fill="white"/>
<path d="M31.5148 35.4919C32.7227 34.284 34.4209 34.0448 35.3178 34.9417C35.6288 35.2527 35.7962 35.6473 35.844 36.0898C35.9038 35.444 35.7484 34.8461 35.3178 34.4275C34.4209 33.5306 32.7227 33.7817 31.5148 34.9776C30.7255 35.7669 30.3429 36.7834 30.4385 37.6325C30.5103 36.903 30.881 36.1257 31.5148 35.4919Z" fill="white"/>
<path d="M34.7678 36.9269C33.5599 38.1348 31.8617 38.374 30.9648 37.4771C30.7495 37.2618 30.594 36.9987 30.5103 36.6997C30.319 37.489 30.4505 38.2664 30.9648 38.7686C31.8617 39.6656 33.5599 39.4144 34.7678 38.2185C35.6767 37.3096 36.0354 36.1137 35.7723 35.1929C35.6288 35.7908 35.282 36.4007 34.7678 36.9269Z" fill="white"/>
<path d="M38.6664 51.9355H36.729V45.5613C36.729 44.772 37.0399 44.0425 37.5901 43.4924L40.1852 40.8973L41.5605 42.2726L38.9653 44.8677C38.774 45.059 38.6783 45.2982 38.6783 45.5733V51.9355H38.6664Z" fill="white"/>
<path d="M37.0519 45.8125C37.0519 45.0232 37.3628 44.2937 37.913 43.7435L40.4722 41.1843L40.1852 40.8973L37.5901 43.4924C37.0399 44.0425 36.729 44.784 36.729 45.5613V51.9355H37.0519V45.8125Z" fill="white"/>
<path d="M40.1852 40.8851L40.0178 41.0526L40.8908 41.9256L38.212 44.6044C38.0206 44.7957 37.913 45.0588 37.913 45.3339V51.9234H38.6784V45.5492C38.6784 45.2861 38.786 45.0349 38.9654 44.8436L41.5605 42.2485L40.1852 40.8851Z" fill="white"/>
<path d="M43.0514 42.5782C44.2563 41.3733 44.5062 39.6696 43.6095 38.7729C42.7128 37.8762 41.0091 38.1261 39.8042 39.331C38.5993 40.5359 38.3494 42.2396 39.2461 43.1363C40.1428 44.033 41.8465 43.7831 43.0514 42.5782Z" fill="white"/>
<path d="M39.8025 39.8449C41.0104 38.6371 42.7085 38.3979 43.6055 39.2948C43.9164 39.6058 44.0838 40.0004 44.1317 40.4429C44.1915 39.7971 44.036 39.1992 43.6055 38.7806C42.7085 37.8837 41.0104 38.1348 39.8025 39.3307C39.0132 40.12 38.6305 41.1365 38.7262 41.9856C38.7979 41.2681 39.1687 40.4907 39.8025 39.8449Z" fill="white"/>
<path d="M43.0434 41.2801C41.8355 42.488 40.1373 42.7272 39.2404 41.8303C39.0252 41.615 38.8697 41.3519 38.786 41.0529C38.5946 41.8422 38.7262 42.6196 39.2404 43.1218C40.1373 44.0188 41.8355 43.7676 43.0434 42.5717C43.9523 41.6628 44.3111 40.4669 44.048 39.5461C43.9045 40.156 43.5696 40.7659 43.0434 41.2801Z" fill="white"/>
<path d="M66.4593 47.5704H68.3967V41.1962C68.3967 40.4069 68.0857 39.6774 67.5356 39.1273L64.9405 36.5322L63.5652 37.9075L66.1603 40.5026C66.3517 40.6939 66.4474 40.9331 66.4474 41.2082V47.5704H66.4593Z" fill="white"/>
<path d="M68.0857 41.4593C68.0857 40.67 67.7748 39.9405 67.2246 39.3904L64.6654 36.8311L64.9524 36.5441L67.5475 39.1392C68.0977 39.6894 68.4086 40.4308 68.4086 41.2082V47.5824H68.0857V41.4593Z" fill="white"/>
<path d="M64.9525 36.5204L65.1199 36.6879L64.2469 37.5609L66.9257 40.2397C67.1171 40.4311 67.2247 40.6942 67.2247 40.9692V47.5587H66.4593V41.1845C66.4593 40.9214 66.3517 40.6702 66.1723 40.4789L63.5772 37.8838L64.9525 36.5204Z" fill="white"/>
<path d="M65.8867 38.7746C66.7834 37.8779 66.5335 36.1742 65.3286 34.9692C64.1236 33.7643 62.4199 33.5144 61.5232 34.4111C60.6266 35.3078 60.8764 37.0115 62.0814 38.2164C63.2863 39.4214 64.99 39.6712 65.8867 38.7746Z" fill="white"/>
<path d="M65.3351 35.4919C64.1273 34.284 62.4291 34.0448 61.5321 34.9417C61.2212 35.2527 61.0538 35.6473 61.006 36.0898C60.9462 35.444 61.1016 34.8461 61.5321 34.4275C62.4291 33.5306 64.1273 33.7817 65.3351 34.9776C66.1244 35.7669 66.5071 36.7834 66.4115 37.6325C66.3397 36.903 65.969 36.1257 65.3351 35.4919Z" fill="white"/>
<path d="M62.0823 36.9269C63.2901 38.1348 64.9883 38.374 65.8852 37.4771C66.1005 37.2618 66.256 36.9987 66.3397 36.6997C66.531 37.489 66.3995 38.2664 65.8852 38.7686C64.9883 39.6656 63.2901 39.4144 62.0823 38.2185C61.1734 37.3096 60.8146 36.1137 61.0777 35.1929C61.2212 35.7908 61.568 36.4007 62.0823 36.9269Z" fill="white"/>
<path d="M58.1836 51.9355H60.121V45.5613C60.121 44.772 59.81 44.0425 59.2599 43.4924L56.6648 40.8973L55.2895 42.2726L57.8846 44.8677C58.076 45.059 58.1716 45.2982 58.1716 45.5733V51.9355H58.1836Z" fill="white"/>
<path d="M59.7981 45.8125C59.7981 45.0232 59.4872 44.2937 58.9371 43.7435L56.3778 41.1843L56.6648 40.8973L59.2599 43.4924C59.8101 44.0425 60.121 44.784 60.121 45.5613V51.9355H59.7981V45.8125Z" fill="white"/>
<path d="M56.6648 40.8851L56.8322 41.0526L55.9592 41.9256L58.638 44.6044C58.8294 44.7957 58.937 45.0588 58.937 45.3339V51.9234H58.1716V45.5492C58.1716 45.2861 58.064 45.0349 57.8846 44.8436L55.2895 42.2485L56.6648 40.8851Z" fill="white"/>
<path d="M57.6036 43.1413C58.5003 42.2446 58.2504 40.5409 57.0455 39.3359C55.8406 38.131 54.1369 37.8811 53.2402 38.7778C52.3435 39.6745 52.5933 41.3782 53.7983 42.5831C55.0032 43.7881 56.7069 44.0379 57.6036 43.1413Z" fill="white"/>
<path d="M57.0475 39.8449C55.8396 38.6371 54.1414 38.3979 53.2445 39.2948C52.9336 39.6058 52.7661 40.0004 52.7183 40.4429C52.6585 39.7971 52.814 39.1992 53.2445 38.7806C54.1414 37.8837 55.8396 38.1348 57.0475 39.3307C57.8368 40.12 58.2195 41.1365 58.1238 41.9856C58.052 41.2681 57.6813 40.4907 57.0475 39.8449Z" fill="white"/>
<path d="M53.8066 41.2801C55.0145 42.488 56.7127 42.7272 57.6096 41.8303C57.8249 41.615 57.9803 41.3519 58.064 41.0529C58.2554 41.8422 58.1238 42.6196 57.6096 43.1218C56.7127 44.0188 55.0145 43.7676 53.8066 42.5717C52.8977 41.6628 52.539 40.4669 52.8021 39.5461C52.9456 40.156 53.2804 40.7659 53.8066 41.2801Z" fill="white"/>
<path d="M69.569 55.6428H27.2817C26.4924 55.6428 25.7629 55.2122 25.3922 54.5186L23.3472 50.7635C22.5698 49.3284 23.6103 47.5823 25.2367 47.5823H71.6259C73.2643 47.5823 74.2928 49.3284 73.5155 50.7635L71.4705 54.5186C71.0878 55.2003 70.3583 55.6428 69.569 55.6428Z" fill="white"/>
<path d="M25.2367 48.8623H71.6259C72.6305 48.8623 73.4078 49.52 73.6829 50.3691C74.1134 49.0297 73.1208 47.5707 71.6259 47.5707H25.2367C23.7418 47.5707 22.7492 49.0297 23.1797 50.3691C23.4428 49.532 24.2321 48.8623 25.2367 48.8623Z" fill="white"/>
<path d="M71.4704 51.9237C71.0877 52.6173 70.3702 53.0478 69.5809 53.0478H27.2817C26.4924 53.0478 25.7629 52.6173 25.3921 51.9237L23.5026 48.4556C23.0362 49.0894 22.9166 49.9744 23.3471 50.7637L25.3921 54.5188C25.7748 55.2124 26.4924 55.643 27.2817 55.643H69.5809C70.3702 55.643 71.0997 55.2124 71.4704 54.5188L73.5154 50.7637C73.946 49.9744 73.8264 49.1014 73.36 48.4556L71.4704 51.9237Z" fill="white"/>
<path d="M63.9598 80.6256H32.8902C31.0963 80.6256 29.6492 79.1785 29.6492 77.3847V55.6431H67.2007V77.3966C67.2007 79.1785 65.7537 80.6256 63.9598 80.6256Z" fill="white"/>
<path d="M63.9598 78.0303H32.8902C31.0963 78.0303 29.6492 76.5833 29.6492 74.7894V77.3845C29.6492 79.1784 31.0963 80.6255 32.8902 80.6255H63.9598C65.7537 80.6255 67.2007 79.1784 67.2007 77.3845V74.7894C67.2007 76.5833 65.7537 78.0303 63.9598 78.0303Z" fill="#136DA0"/>
<path d="M29.6492 55.6431H67.2007V58.3697H29.6492V55.6431Z" fill="#136DA0"/>
</svg>
