<svg width="96" height="96" viewBox="0 0 96 96" fill="none" xmlns="http://www.w3.org/2000/svg">
<rect y="0.000183105" width="96" height="96" rx="15" fill="#131C73"/>
<path d="M68.36 48.8709H65.4268V43.0442C65.4268 42.3283 65.1479 41.6548 64.6418 41.1487L63.5542 40.0611C63.7645 39.2313 63.4285 38.1699 62.6158 37.3576C61.5159 36.2577 59.9603 36.0308 59.1404 36.8503C58.3209 37.6697 58.5478 39.2258 59.6477 40.3256C60.4323 41.1102 61.4493 41.4505 62.2647 41.2835L63.3857 42.4045C63.5566 42.5754 63.651 42.8027 63.651 43.0442V48.8709H58.5728V46.2717C58.5728 42.1843 55.3453 38.8509 51.2996 38.6808L51.3023 38.6736L49.0042 37.6832V35.8686C50.5991 35.3351 51.885 34.1269 52.5232 32.5828C52.6208 32.4872 52.7156 32.3888 52.8076 32.2881C52.858 32.2921 52.9083 32.2944 52.9599 32.2944C53.9908 32.2944 54.8265 31.4587 54.8265 30.4278C54.8265 30.0264 54.6996 29.6548 54.4842 29.3502C54.6976 28.6465 54.8126 27.9 54.8126 27.1266C54.8126 22.9035 51.3892 19.4801 47.1662 19.4801C42.9431 19.4801 39.5193 22.9035 39.5193 27.1266C39.5193 27.9 39.6343 28.6465 39.8477 29.3498C39.6319 29.654 39.5054 30.026 39.5054 30.4274C39.5054 31.4583 40.3411 32.294 41.372 32.294C41.4232 32.294 41.4739 32.2921 41.5243 32.2877C41.6167 32.3884 41.7115 32.4868 41.8087 32.5824C42.4465 34.1265 43.7324 35.3347 45.3277 35.8682V37.6828L43.0296 38.6732L43.0319 38.6804C38.9866 38.8505 35.7587 42.1839 35.7587 46.2713V48.8705H30.6797V43.0438C30.6797 42.8019 30.7737 42.575 30.9447 42.4041L32.0656 41.2831C32.8815 41.4501 33.8981 41.1098 34.6826 40.3253C35.7825 39.2254 36.0094 37.6697 35.1899 36.8499C34.3705 36.03 32.8144 36.2573 31.7145 37.3572C30.9022 38.1699 30.5659 39.2309 30.7761 40.0607L29.6885 41.1483C29.1824 41.6548 28.9035 42.3279 28.9035 43.0438V48.8705H25.9708C24.4786 48.8705 23.5294 50.4666 24.2422 51.7779L26.1096 55.214C26.4539 55.8475 27.1175 56.2421 27.8386 56.2421H30.0062V76.1163C30.0062 77.7508 31.3314 79.076 32.9659 79.076H61.3644C62.9989 79.076 64.3241 77.7508 64.3241 76.1163V56.2425H66.4918C67.2129 56.2425 67.8761 55.8482 68.2207 55.2144L70.0881 51.7783C70.8009 50.467 69.8521 48.8709 68.36 48.8709Z" fill="#382B73"/>
<path d="M57.8349 48.6481H36.4956C36.0882 48.6481 35.7578 48.3177 35.7578 47.9103V43.4953C35.7578 39.2992 39.1594 35.8972 43.3559 35.8972H50.975C55.1711 35.8972 58.5731 39.2988 58.5731 43.4953V47.9103C58.5727 48.3177 58.2423 48.6481 57.8349 48.6481Z" fill="white"/>
<path d="M55.2298 37.1999V48.6478H57.8349C58.2423 48.6478 58.5727 48.3174 58.5727 47.91V43.495C58.5727 40.876 57.2467 38.5659 55.2298 37.1999Z" fill="white"/>
<path d="M51.3023 35.8973L49.0037 34.9069L49.0041 35.8973L47.1653 38.7626L45.3268 35.8973V34.9069L43.0283 35.8973L47.1653 47.1223L51.3023 35.8973Z" fill="#D1D3D4"/>
<path d="M43.0283 35.8973L44.7656 40.6058C44.8358 40.7958 45.0789 40.849 45.2221 40.7062L47.1653 38.7626L45.3268 35.8973V34.9069L43.0283 35.8973Z" fill="white"/>
<path d="M51.3022 35.8973L49.565 40.6058C49.4948 40.7958 49.2516 40.849 49.1084 40.7062L47.1649 38.7626L49.0033 35.8973V34.9069L51.3022 35.8973Z" fill="white"/>
<path d="M47.1653 33.3902C46.5227 33.3902 45.9043 33.2855 45.3268 33.0923V35.1089V35.8974L47.1653 38.7627L49.0037 35.8974V35.5932V33.0923C48.4262 33.2855 47.8078 33.3902 47.1653 33.3902Z" fill="#E6E7E8"/>
<path d="M48.7042 40.3017L47.5575 41.4484C47.341 41.6649 46.9895 41.6649 46.773 41.4484L45.6263 40.3017L47.1652 38.7627L48.7042 40.3017Z" fill="white"/>
<path d="M47.5576 41.4487C47.341 41.6652 46.9896 41.6652 46.773 41.4487L46.3799 41.0556L46.0392 44.0669L47.1653 47.1234L48.2914 44.0669L47.9506 41.0556L47.5576 41.4487Z" fill="white"/>
<path d="M41.7392 40.828L42.7177 39.9653C42.8986 39.8059 42.8038 39.5072 42.5638 39.4814L41.4152 39.3584C41.2363 39.3394 41.1224 39.1573 41.1839 38.988L42.2755 35.9755C42.525 35.9394 42.7776 35.9144 43.0327 35.9061L47.1657 47.1231L41.7194 41.2239C41.6135 41.11 41.6226 40.9311 41.7392 40.828Z" fill="white"/>
<path d="M52.5913 40.828L51.6128 39.9653C51.4319 39.8059 51.5267 39.5072 51.7667 39.4814L52.9154 39.3584C53.0943 39.3394 53.2081 39.1573 53.1466 38.988L52.0551 35.9755C51.8052 35.9394 51.5529 35.9144 51.2979 35.9061L47.1653 47.1235L52.6116 41.2242C52.7175 41.11 52.7083 40.9311 52.5913 40.828Z" fill="white"/>
<path d="M53.9177 46.3425H50.173C49.9576 46.3425 49.7831 46.5169 49.7831 46.7322C49.7831 46.9475 49.9576 47.1219 50.173 47.1219H53.9177C54.1331 47.1219 54.3076 46.9475 54.3076 46.7322C54.3076 46.5169 54.1331 46.3425 53.9177 46.3425Z" fill="white"/>
<path d="M39.1007 48.6478V37.1999C37.0834 38.5659 35.7578 40.8756 35.7578 43.4954V47.9104C35.7578 48.3178 36.0882 48.6482 36.4956 48.6482H39.1007V48.6478Z" fill="white"/>
<path d="M49.123 31.7414C53.2051 30.6594 55.6373 26.4732 54.5554 22.3912C53.4735 18.3092 49.2871 15.8773 45.2049 16.9593C41.1227 18.0413 38.6905 22.2275 39.7725 26.3095C40.8544 30.3915 45.0408 32.8234 49.123 31.7414Z" fill="white"/>
<path d="M47.1653 33.3902C43.9652 33.3902 41.3711 30.7961 41.3711 27.596V24.5875C41.3711 21.3874 43.9652 18.7933 47.1653 18.7933C50.3654 18.7933 52.9594 21.3874 52.9594 24.5875V27.596C52.9594 30.7961 50.3654 33.3902 47.1653 33.3902Z" fill="white"/>
<path d="M47.1653 33.3905C46.5227 33.3905 45.9043 33.2857 45.3268 33.0923V34.1981C45.9051 34.3919 46.5219 34.5011 47.1653 34.5011C47.8086 34.5011 48.4258 34.3919 49.0037 34.1981V33.0923C48.4262 33.2857 47.8078 33.3905 47.1653 33.3905Z" fill="#D1D3D4"/>
<path d="M41.3711 27.5958V25.7852C40.3402 25.7852 39.5045 26.6209 39.5045 27.6514C39.5045 28.6822 40.3402 29.518 41.3711 29.518C41.479 29.518 41.5849 29.5088 41.6884 29.491C41.4826 28.8972 41.3711 28.2594 41.3711 27.5958Z" fill="white"/>
<path d="M52.9594 25.7852V27.5958C52.9594 28.2594 52.8475 28.8972 52.6421 29.491C52.7452 29.5084 52.8511 29.518 52.9594 29.518C53.9903 29.518 54.826 28.6822 54.826 27.6514C54.826 26.6209 53.9903 25.7852 52.9594 25.7852Z" fill="white"/>
<path d="M47.1653 32.5581C43.9652 32.5581 41.3711 29.964 41.3711 26.7639V27.5961C41.3711 30.7962 43.9652 33.3902 47.1653 33.3902C50.3654 33.3902 52.9594 30.7962 52.9594 27.5961V26.7639C52.9594 29.964 50.3654 32.5581 47.1653 32.5581Z" fill="#E6E7E8"/>
<path d="M41.3711 24.5879V25.729C43.6359 24.409 45.1614 21.9609 45.1725 19.1531C42.9557 19.9666 41.3711 22.0894 41.3711 24.5879Z" fill="#E6E7E8"/>
<path d="M50.2016 25.9349C51.1749 25.9349 52.1031 25.7477 52.9594 25.4161V24.5875C52.9594 21.3874 50.3654 18.7933 47.1653 18.7933C45.4903 18.7933 43.9854 19.5085 42.9276 20.6449C43.9215 23.7145 46.8012 25.9349 50.2016 25.9349Z" fill="#E6E7E8"/>
<path d="M42.5931 18.2208C42.9767 22.0849 46.2367 25.1025 50.2015 25.1025C51.9158 25.1025 53.4984 24.5381 54.7736 23.5854C54.3897 19.7213 51.1301 16.7036 47.1652 16.7036C45.451 16.704 43.8684 17.268 42.5931 18.2208Z" fill="white"/>
<path d="M39.5188 24.3505C39.5188 24.6984 39.5442 25.0403 39.5894 25.3763C42.8105 24.4759 45.1737 21.5217 45.1737 18.0134C45.1737 17.6655 45.1483 17.3236 45.1031 16.9877C41.882 17.888 39.5188 20.8422 39.5188 24.3505Z" fill="white"/>
<path d="M44.7001 27.5403C45.0879 27.5403 45.4022 27.2257 45.4022 26.8376C45.4022 26.4494 45.0879 26.1348 44.7001 26.1348C44.3124 26.1348 43.9981 26.4494 43.9981 26.8376C43.9981 27.2257 44.3124 27.5403 44.7001 27.5403Z" fill="white"/>
<path d="M50.146 27.5403C50.5338 27.5403 50.8481 27.2257 50.8481 26.8376C50.8481 26.4494 50.5338 26.1348 50.146 26.1348C49.7583 26.1348 49.444 26.4494 49.444 26.8376C49.444 27.2257 49.7583 27.5403 50.146 27.5403Z" fill="white"/>
<path d="M41.3711 27.5967V26.5792C40.7789 26.5792 40.2986 27.0598 40.2986 27.6522C40.2986 28.2447 40.7789 28.7253 41.3711 28.7253C41.4088 28.7253 41.4445 28.7181 41.481 28.7141C41.4104 28.3526 41.3711 27.9792 41.3711 27.5967Z" fill="#E6E7E8"/>
<path d="M52.965 27.5967V26.5792C53.5572 26.5792 54.0375 27.0598 54.0375 27.6522C54.0375 28.2447 53.5572 28.7253 52.965 28.7253C52.9273 28.7253 52.8916 28.7181 52.8551 28.7141C52.9257 28.3526 52.965 27.9792 52.965 27.5967Z" fill="#E6E7E8"/>
<path d="M30.6796 46.0946H28.9038V40.2679C28.9038 39.552 29.1827 38.8785 29.6888 38.3724L32.0603 36.0009L33.3161 37.2566L30.9446 39.6281C30.7736 39.7991 30.6796 40.0264 30.6796 40.2679V46.0946Z" fill="#FEDE3A"/>
<path d="M32.0607 36.0009L31.9048 36.1567L32.7049 36.9568L30.2528 39.4088C30.0759 39.5857 29.9787 39.8205 29.9787 40.0704V46.0946H30.68V40.2679C30.68 40.026 30.774 39.7991 30.945 39.6281L33.3165 37.2566L32.0607 36.0009Z" fill="#E7AD27"/>
<path d="M35.1902 34.0742C36.0097 34.8937 35.7828 36.4497 34.6829 37.5496C33.583 38.6495 32.0274 38.8763 31.2075 38.0569C30.3881 37.2374 30.6149 35.6814 31.7148 34.5815C32.8147 33.4816 34.3704 33.2547 35.1902 34.0742Z" fill="#FEDE3A"/>
<path d="M34.6829 36.3654C33.583 37.4653 32.0274 37.6921 31.2075 36.8727C31.0084 36.6736 30.8724 36.4304 30.7942 36.1615C30.6146 36.885 30.7411 37.5902 31.2075 38.0567C32.027 38.8761 33.583 38.6492 34.6829 37.5494C35.5155 36.7168 35.8467 35.6233 35.6035 34.7852C35.4675 35.3329 35.1565 35.8914 34.6829 36.3654Z" fill="#E7AD27"/>
<path d="M38.2495 50.0794H36.4738V44.2527C36.4738 43.5367 36.7526 42.8632 37.2587 42.3571L39.6303 39.9856L40.886 41.2414L38.5145 43.6129C38.3435 43.7838 38.2495 44.0111 38.2495 44.2527V50.0794Z" fill="#FEDE3A"/>
<path d="M39.6303 39.9856L39.4744 40.1415L40.2744 40.9415L37.8224 43.3935C37.6455 43.5705 37.5483 43.8053 37.5483 44.0551V50.0794H38.2496V44.2527C38.2496 44.0111 38.3436 43.7838 38.5145 43.6129L40.886 41.2414L39.6303 39.9856Z" fill="#E7AD27"/>
<path d="M42.7598 38.0586C43.5792 38.8781 43.3523 40.4341 42.2525 41.534C41.1526 42.6339 39.5965 42.8608 38.7771 42.0413C37.9576 41.2219 38.1845 39.6658 39.2844 38.5659C40.3843 37.4664 41.9403 37.2392 42.7598 38.0586Z" fill="#FEDE3A"/>
<path d="M42.2525 40.35C41.1526 41.4499 39.597 41.6768 38.7771 40.8573C38.578 40.6582 38.4419 40.415 38.3638 40.1461C38.1841 40.8696 38.3106 41.5748 38.7771 42.0413C39.5966 42.8607 41.1526 42.6339 42.2525 41.534C43.085 40.7014 43.4162 39.6079 43.1731 38.7698C43.037 39.3175 42.7265 39.876 42.2525 40.35Z" fill="#E7AD27"/>
<path d="M63.6509 46.0946H65.4267V40.2679C65.4267 39.552 65.1479 38.8785 64.6413 38.3724L62.2698 36.0009L61.014 37.2566L63.386 39.6281C63.5569 39.7991 63.6509 40.0264 63.6509 40.2679V46.0946Z" fill="#FEDE3A"/>
<path d="M62.2698 36.0009L62.4257 36.1567L61.6256 36.9568L64.0777 39.4088C64.2546 39.5857 64.3518 39.8205 64.3518 40.0704V46.0946H63.6505V40.2679C63.6505 40.026 63.5565 39.7991 63.3855 39.6281L61.0136 37.2566L62.2698 36.0009Z" fill="#E7AD27"/>
<path d="M59.1403 34.0742C58.3208 34.8937 58.5477 36.4497 59.6476 37.5496C60.7475 38.6495 62.3031 38.8763 63.123 38.0569C63.9428 37.2374 63.7156 35.6814 62.6157 34.5815C61.5158 33.4816 59.9602 33.2547 59.1403 34.0742Z" fill="#FEDE3A"/>
<path d="M59.6476 36.3654C60.7475 37.4653 62.3031 37.6921 63.123 36.8727C63.3221 36.6736 63.4581 36.4304 63.5363 36.1615C63.716 36.885 63.5894 37.5902 63.123 38.0567C62.3035 38.8761 60.7475 38.6492 59.6476 37.5494C58.815 36.7168 58.4838 35.6233 58.727 34.7852C58.863 35.3329 59.174 35.8914 59.6476 36.3654Z" fill="#E7AD27"/>
<path d="M56.081 50.0794H57.8568V44.2527C57.8568 43.5367 57.5779 42.8632 57.0718 42.3571L54.7003 39.9856L53.4445 41.2414L55.8164 43.6129C55.9874 43.7838 56.0814 44.0111 56.0814 44.2527V50.0794H56.081Z" fill="#FEDE3A"/>
<path d="M54.7003 39.9856L54.8562 40.1415L54.0562 40.9415L56.5082 43.3935C56.6851 43.5705 56.7823 43.8053 56.7823 44.0551V50.0794H56.081V44.2527C56.081 44.0111 55.987 43.7838 55.8161 43.6129L53.4441 41.2414L54.7003 39.9856Z" fill="#E7AD27"/>
<path d="M51.5708 38.0586C50.7513 38.8781 50.9782 40.4341 52.0781 41.534C53.178 42.6339 54.7336 42.8608 55.5534 42.0413C56.3729 41.2219 56.146 39.6658 55.0461 38.5659C53.9463 37.4664 52.3902 37.2392 51.5708 38.0586Z" fill="#FEDE3A"/>
<path d="M52.0781 40.35C53.178 41.4499 54.7336 41.6768 55.5535 40.8573C55.7526 40.6582 55.8886 40.415 55.9668 40.1461C56.1464 40.8696 56.0199 41.5748 55.5535 42.0413C54.734 42.8607 53.178 42.6339 52.0781 41.534C51.2455 40.7014 50.9143 39.6079 51.1575 38.7698C51.2935 39.3175 51.6041 39.876 52.0781 40.35Z" fill="#E7AD27"/>
<path d="M66.4921 53.4662H27.8385C27.1174 53.4662 26.4542 53.0719 26.1095 52.4381L24.2417 49.0016C23.5289 47.6903 24.4781 46.0942 25.9703 46.0942H68.3591C69.8512 46.0942 70.8004 47.6903 70.088 49.0016L68.2202 52.4381C67.8764 53.0715 67.2132 53.4662 66.4921 53.4662Z" fill="#382B73"/>
<path d="M68.2208 50.0701C67.8765 50.7035 67.2133 51.0982 66.4922 51.0982H27.8386C27.1175 51.0982 26.4543 50.7035 26.1096 50.0701L24.3854 46.8977C23.961 47.478 23.8511 48.2824 24.2418 49.0015L26.1096 52.438C26.4539 53.0714 27.1175 53.4661 27.8386 53.4661H66.4922C67.2133 53.4661 67.8765 53.0718 68.2208 52.438L70.0885 49.0015C70.4796 48.2824 70.3694 47.478 69.945 46.8977L68.2208 50.0701Z" fill="#382B73"/>
<path d="M61.3643 76.3002H32.9662C31.3317 76.3002 30.0065 74.975 30.0065 73.3405V53.4663H64.3244V73.3405C64.324 74.975 62.9992 76.3002 61.3643 76.3002Z" fill="#382B73"/>
</svg>
