<svg width="96" height="96" viewBox="0 0 96 96" fill="none" xmlns="http://www.w3.org/2000/svg">
<rect x="-7.62939e-06" y="0.000183105" width="96" height="96" rx="15" fill="#131C73"/>
<path d="M30.3168 57.3116L35.8506 53.5197C35.8506 53.5197 39.8258 55.4474 39.8258 60.8817C39.8258 66.3159 34.3291 66.3159 34.3291 66.3159C32.5982 64.1587 31.0796 61.8393 29.7946 59.3901C29.6136 59.0395 29.5668 58.6349 29.6629 58.2522C29.7591 57.8695 29.9916 57.535 30.3168 57.3116Z" fill="#FCACD8"/>
<path d="M35.8506 53.5198C35.694 55.5404 36.2777 57.5491 37.4927 59.1712C37.8104 59.6089 38.0016 60.1255 38.0452 60.6646C38.1745 62.2441 37.9202 65.2821 34.3302 66.3157C35.7583 68.1337 37.317 69.8453 38.9938 71.4368L43.2482 67.8521L39.5936 50.9547L35.8506 53.5198Z" fill="#EA7DAA"/>
<path d="M59.1214 49.6404C59.1214 49.6404 62.7317 51.818 63.9152 58.6956C64.1328 59.9799 64.6752 61.1871 65.491 62.2026C66.2342 63.1313 66.8049 64.1858 67.1761 65.3159C65.8124 68.3628 60.3259 68.0518 54.4765 67.4442L59.1214 49.6404Z" fill="#81A2EA"/>
<path d="M67.7577 68.42C67.7018 67.3643 67.5055 66.3208 67.1739 65.317C61.3191 66.7945 57.7636 63.9857 55.9588 61.761L54.476 67.4452L55.8988 73.6027H62.8081C63.4787 73.6054 64.1429 73.4714 64.76 73.2088C65.3771 72.9463 65.9343 72.5608 66.3975 72.0758C66.8607 71.5908 67.2202 71.0165 67.454 70.3879C67.6879 69.7594 67.7912 69.0898 67.7577 68.42Z" fill="#81A2EA"/>
<path d="M35.1706 67.9094L36.3966 67.035C36.8465 66.714 37.3977 66.5673 37.9477 66.6221C38.4977 66.6769 39.0091 66.9296 39.3868 67.3332L41.1953 69.2646C41.411 69.4938 41.5768 69.7653 41.6823 70.0618C41.7878 70.3583 41.8306 70.6735 41.8081 70.9874C41.7856 71.3014 41.6983 71.6072 41.5516 71.8857C41.4049 72.1641 41.2021 72.4091 40.9559 72.6052C40.7473 72.77 40.5305 72.9241 40.3062 73.0668C40.0053 73.255 39.6576 73.355 39.3027 73.3552C38.9479 73.3553 38.6001 73.2558 38.299 73.0678C36.9901 72.2526 35.8328 71.2161 34.879 70.0045C34.756 69.8496 34.6657 69.6713 34.6137 69.4805C34.5616 69.2897 34.5488 69.0904 34.5761 68.8945C34.6034 68.6986 34.6701 68.5103 34.7723 68.3409C34.8745 68.1716 35.01 68.0248 35.1706 67.9094Z" fill="#FFD1C0"/>
<path d="M41.6223 70.8221V73.6028H55.8988L55.8518 70.8221C51.1166 70.435 46.3576 70.435 41.6223 70.8221Z" fill="#464659"/>
<path d="M41.8716 34.5988C41.8716 34.5988 43.1363 36.556 39.9064 39.2183C39.9064 39.2183 36.6106 41.812 36.6106 45.6771C36.6106 49.9973 41.4623 50.1682 41.4623 50.1682L45.6785 42.3835V36.3954L41.8716 34.5988Z" fill="#595975"/>
<path d="M40.939 31.8425C40.939 31.8425 37.803 31.6038 37.5473 27.8474C37.5473 27.8474 36.8178 21.2829 42.5075 20.9181C42.5075 20.9181 43.7109 18.6206 47.2851 18.6206C47.2851 18.6206 55.0167 18.1298 56.3296 25.2315C56.6803 27.0937 56.8453 28.9861 56.8221 30.8809C56.8007 32.5259 57.2979 34.1359 58.2431 35.4825C60.4031 38.5799 63.3792 44.5663 57.7525 48.5259H48.4864L47.7586 36.9649L40.939 31.8425Z" fill="#595975"/>
<path d="M42.2519 45.2087C42.2519 45.2087 36.3857 51.4863 39.8824 57.7717C40.5602 58.9625 40.9647 60.2891 41.0667 61.6554C41.2034 63.7064 41.198 65.7644 41.0507 67.8147C41.0283 68.1269 40.9226 68.4274 40.7448 68.685C40.5625 68.9202 40.4604 69.2076 40.4537 69.5051C40.4469 69.8026 40.5359 70.0944 40.7074 70.3376C40.8083 70.4872 40.9446 70.6096 41.1041 70.6941C41.2637 70.7785 41.4415 70.8224 41.622 70.8218H54.4318L58.9551 65.876C58.9551 65.876 62.4436 65.1876 61.6518 60.1929C61.6518 60.1929 61.8225 50.2373 56.8965 45.2078L52.7805 42.7418L42.2519 45.2087Z" fill="#797996"/>
<path d="M57.5951 64.9985L43.2501 59.4982L43.1094 60.9857C43.0635 61.4669 43.1229 61.9523 43.2834 62.4083C43.4439 62.8642 43.7016 63.2798 44.0388 63.6262C47.0295 66.6456 50.5534 69.0853 54.4322 70.822H55.8518C56.055 70.8255 56.2568 70.788 56.4452 70.7117C56.6335 70.6355 56.8046 70.5221 56.9482 70.3783C57.3135 69.9974 57.5837 69.3361 57.0227 68.2638L57.8553 67.2354L57.5951 64.9985Z" fill="#595975"/>
<path d="M54.9579 43.6757L47.5287 56.9352L56.2396 59.1453C56.3143 59.1641 56.3931 59.1569 56.4631 59.1248C56.5331 59.0927 56.59 59.0377 56.6245 58.9688C56.659 58.9 56.669 58.8215 56.6528 58.7462C56.6366 58.6709 56.5952 58.6034 56.5355 58.5549C55.0942 57.4026 53.5488 56.3868 51.9193 55.5207C53.333 51.3726 56.2565 46.2704 56.8956 45.2089C56.3189 44.616 55.6675 44.1006 54.9579 43.6757Z" fill="#595975"/>
<path d="M49.8929 41.1776L51.9194 44.5741L47.0615 55.6469H45.5752C44.4493 53.2213 43.5432 50.6996 42.8677 48.1122L44.4303 41.9816L49.8929 41.1776Z" fill="#CBD5EA"/>
<path d="M45.085 47.2768C44.9659 48.8521 44.8254 50.9452 44.6825 53.5914C45.0757 54.5685 45.3893 55.2532 45.5149 55.5206L47.2085 55.3114L48.2111 52.7772L47.9207 48.2804C47.217 47.1447 46.23 46.9481 45.085 47.2768Z" fill="#FF6D8D"/>
<path d="M45.085 47.2766C45.7082 47.2651 46.938 47.3751 47.9213 48.2802L47.6138 43.5193L45.4134 43.5425C45.4134 43.5425 45.2772 44.7388 45.085 47.2766Z" fill="#E5486E"/>
<path d="M50.2747 48.3225L52.7802 42.6118L49.8929 41.1776L46.4167 44.3463L50.2747 48.3225Z" fill="white"/>
<path d="M42.2519 45.2088C42.4134 46.2 42.6271 47.1767 42.8675 48.1123L46.4162 44.3466L45.5696 41.8137L44.4298 41.9815L42.2519 45.2088Z" fill="white"/>
<path d="M46.5435 52.6132C48.2187 49.1237 50.1786 45.7782 52.4032 42.6106C52.5736 42.3682 52.8225 42.1922 53.1078 42.1124C53.3931 42.0325 53.6973 42.0538 53.9687 42.1726C54.3891 42.3618 54.7801 42.6106 55.1296 42.9114C55.3628 43.1129 55.516 43.3914 55.5612 43.6963C55.6064 44.0012 55.5406 44.3122 55.3758 44.5727C54.49 45.9764 52.6169 48.9993 50.8378 52.219C50.8385 52.2183 48.1244 54.398 46.5435 52.6132Z" fill="#A1D3FF"/>
<path d="M44.4303 39.711V41.9816C44.4303 41.9816 44.9978 43.0694 46.4167 44.3463C46.4167 44.3463 48.0485 43.5186 49.8929 41.1776V38.6486L44.4303 39.711Z" fill="#FFD1C0"/>
<path d="M51.1431 29.7791H52.0076C52.4662 29.7792 52.9059 29.9613 53.2301 30.2855C53.5543 30.6097 53.7365 31.0495 53.7365 31.508V32.1764C53.7365 32.6349 53.5543 33.0746 53.2301 33.3987C52.9059 33.7229 52.4661 33.9051 52.0076 33.9051H50.6246L51.1431 29.7791Z" fill="#F99C9C"/>
<path d="M44.4303 39.7112C44.9182 39.8141 45.4154 39.8661 45.914 39.8663C47.333 39.873 48.7206 39.4484 49.8929 38.6488V35.8097L44.4303 37.4886V39.7112Z" fill="#F99C9C"/>
<path d="M41.4616 29.7791H40.0785C39.62 29.7792 39.1803 29.9613 38.8561 30.2855C38.5319 30.6097 38.3497 31.0495 38.3497 31.508V32.1764C38.3497 32.6349 38.5319 33.0746 38.8561 33.3987C39.1803 33.7229 39.62 33.9051 40.0785 33.9051H41.4616V29.7791Z" fill="#F99C9C"/>
<path d="M43.1767 23.6249C43.1767 23.6249 42.9732 29.6395 51.1431 30.1203V33.3093C51.1431 34.6962 50.5922 36.0262 49.6116 37.0069C48.6309 37.9876 47.3009 38.5386 45.914 38.5386C44.5271 38.5386 43.197 37.9876 42.2164 37.0069C41.2357 36.0263 40.6847 34.6962 40.6847 33.3093V30.3842C40.6847 30.3842 40.9867 25.9657 43.1767 23.6249Z" fill="#FFD1C0"/>
<path d="M44.0395 61.0575C44.0395 61.0575 51.1604 67.2489 58.7949 70.5135C59.2191 70.7006 59.6961 70.7304 60.1403 70.5976C60.5845 70.4648 60.9668 70.1781 61.2187 69.7888C61.2284 69.7736 61.2379 69.7581 61.2472 69.7424C61.3846 69.5079 61.4717 69.2473 61.503 68.9773C61.5342 68.7073 61.509 68.4337 61.4288 68.174C61.3486 67.9142 61.2153 67.674 61.0372 67.4686C60.8592 67.2632 60.6403 67.0971 60.3946 66.9809C59.9625 66.774 59.5447 66.1612 58.9555 65.8752C55.9691 64.426 51.1154 62.4256 47.1616 60.1991L44.0395 61.0575Z" fill="#81A2EA"/>
<path d="M50.3509 56.9352L59.8552 60.2843L58.9555 65.8761L47.8469 62.2427L50.3509 56.9352Z" fill="#797996"/>
<path d="M44.4898 32.9296C44.225 32.7998 43.9355 32.7284 43.6408 32.72C43.4782 32.7356 43.3161 32.6859 43.1902 32.5818C43.0642 32.4778 42.9847 32.3279 42.9692 32.1652C42.9536 32.0025 43.0033 31.8402 43.1072 31.7142C43.2112 31.5881 43.3609 31.5085 43.5234 31.4929C44.076 31.4577 44.6266 31.5863 45.1065 31.8627C45.1765 31.9032 45.2378 31.9571 45.287 32.0213C45.3362 32.0856 45.3723 32.1589 45.3932 32.2371C45.4141 32.3153 45.4194 32.3968 45.4088 32.477C45.3982 32.5573 45.3719 32.6346 45.3314 32.7047C45.2442 32.8402 45.1096 32.9383 44.954 32.9799C44.7984 33.0215 44.6329 33.0035 44.4898 32.9296Z" fill="#F99C9C"/>
<path d="M46.756 32.7045C46.7134 32.635 46.6853 32.5575 46.6735 32.4768C46.6618 32.396 46.6666 32.3137 46.6876 32.2349C46.7086 32.1561 46.7455 32.0824 46.7959 32.0183C46.8463 31.9542 46.9092 31.901 46.9808 31.862C47.4606 31.5855 48.0113 31.4569 48.5638 31.4922C48.7264 31.5079 48.876 31.5875 48.9799 31.7136C49.0838 31.8397 49.1333 32.002 49.1177 32.1647C49.1021 32.3274 49.0225 32.4772 48.8966 32.5812C48.7706 32.6852 48.6085 32.7348 48.446 32.7191C48.1493 32.7104 47.8558 32.7829 47.5973 32.9288C47.4518 32.9881 47.2909 32.9982 47.1391 32.9577C46.9873 32.9172 46.8528 32.8284 46.756 32.7045Z" fill="#F99C9C"/>
<path d="M46.1363 36.5487C45.6844 36.5571 45.2356 36.4719 44.8182 36.2983C44.6699 36.2319 44.5539 36.1094 44.4954 35.9577C44.4369 35.806 44.4407 35.6373 44.5059 35.4884C44.5711 35.3395 44.6924 35.2224 44.8435 35.1626C44.9946 35.1029 45.1632 35.1053 45.3124 35.1695C45.5741 35.2746 45.8545 35.3245 46.1363 35.3161C46.4492 35.3222 46.7601 35.2659 47.051 35.1504C47.2015 35.0871 47.371 35.0863 47.5222 35.1481C47.6733 35.2099 47.7938 35.3293 47.857 35.48C47.9202 35.6307 47.9211 35.8003 47.8594 35.9517C47.7976 36.103 47.6784 36.2235 47.5278 36.2868C47.0859 36.4656 46.6129 36.5546 46.1363 36.5487Z" fill="#F99C9C"/>
<path d="M51.1432 31.3113V29.7791C43.4401 29.2711 43.1766 23.6249 43.1766 23.6249C43.1766 23.6249 42.1794 31.2475 51.1432 31.3113Z" fill="#F99C9C"/>
<path d="M48.4864 56.7818C49.1724 55.3176 49.9947 53.746 50.8386 52.2186C50.19 52.5807 49.4727 52.803 48.733 52.871C47.9932 52.939 47.2474 52.8513 46.5437 52.6135C45.5678 54.6362 45.0554 55.9378 45.0554 55.9378L48.4864 56.7818Z" fill="#81A2EA"/>
<path d="M46.3708 55.3016L50.351 56.9351C50.351 56.9351 50.5972 60.5888 47.8469 62.2425L44.5196 61.2788C44.1379 61.1691 43.8047 60.9333 43.5742 60.61C43.3437 60.2867 43.2295 59.8948 43.2501 59.4982C43.3073 58.3189 43.6113 57.1646 44.1426 56.1102C44.3459 55.7214 44.6873 55.4228 45.0997 55.2732C45.5121 55.1235 45.9655 55.1337 46.3708 55.3016Z" fill="#FFD1C0"/>
<path d="M34.5817 67.6032C34.2486 67.9204 34.0323 68.3408 33.9678 68.7962C33.9284 69.0761 33.9458 69.361 34.019 69.634C34.0923 69.907 34.2198 70.1624 34.394 70.3849C35.3923 71.6536 36.6039 72.7386 37.9745 73.5915C38.3748 73.8384 38.8359 73.9691 39.3062 73.9688C39.7765 73.97 40.2374 73.8375 40.6352 73.5867C40.7596 73.5079 40.8836 73.4237 41.0067 73.3359V73.6025C41.0067 73.7658 41.0716 73.9224 41.187 74.0379C41.3025 74.1533 41.4591 74.2182 41.6224 74.2182H62.8081C63.5703 74.2168 64.3243 74.0605 65.0242 73.7587C65.7241 73.4568 66.3553 73.0158 66.8795 72.4624C67.3955 71.9219 67.7945 71.2808 68.0514 70.5791C68.3084 69.8774 68.4178 69.1302 68.3728 68.3843C68.1876 65.183 66.9637 63.0452 65.9697 61.8159C65.2201 60.8819 64.7215 59.772 64.5213 58.5912C63.6967 53.7983 61.6894 51.1861 60.5668 50.0555C60.5549 50.0435 60.541 50.0347 60.5283 50.0238C60.2446 49.267 59.9116 48.5296 59.5313 47.8163C63.5959 43.598 60.7978 38.0704 58.7467 35.1302C57.8731 33.8907 57.4143 32.4065 57.4363 30.8902C57.4596 28.9548 57.2913 27.0218 56.9339 25.1195C55.5771 17.7754 47.7739 17.9835 47.2707 18.0048C44.1408 18.0097 42.6473 19.6378 42.1536 20.3301C40.5911 20.494 39.3445 21.1199 38.4443 22.1928C36.6134 24.375 36.9052 27.6255 36.9337 27.9011C36.9755 28.9066 37.3037 29.8791 37.8797 30.7043C37.7843 30.9615 37.7353 31.2335 37.7348 31.5078V32.1762C37.7355 32.7978 37.9827 33.3936 38.4223 33.8331C38.8618 34.2726 39.4577 34.5198 40.0792 34.5205H40.1964C40.3687 35.3323 40.7126 36.0978 41.2051 36.7656C40.8868 37.4143 40.3216 38.0773 39.5257 38.7337C39.3813 38.8472 35.995 41.5596 35.995 45.6762C35.995 48.1725 37.4269 49.4414 38.7345 50.0796C38.636 50.3782 38.5504 50.6755 38.4777 50.9713L29.9689 56.8033C29.5207 57.1121 29.2003 57.5736 29.0676 58.1014C28.9349 58.6292 28.9989 59.1873 29.2477 59.6714C30.7336 62.5005 32.522 65.1599 34.5817 67.6032ZM41.0067 71.6021C40.9006 71.804 40.7531 71.9812 40.5739 72.1222C40.3818 72.2738 40.1822 72.4156 39.9758 72.547C39.7723 72.673 39.5376 72.7395 39.2982 72.7391C39.0589 72.7386 38.8244 72.6712 38.6214 72.5444C37.3735 71.7678 36.2705 70.7797 35.3618 69.6245C35.2894 69.5334 35.2364 69.4285 35.2062 69.3162C35.1759 69.2039 35.169 69.0865 35.1859 68.9714C35.2015 68.8596 35.2399 68.7521 35.2986 68.6557C35.3573 68.5592 35.4351 68.4758 35.5273 68.4105L36.7533 67.5363C37.0821 67.3032 37.4842 67.1969 37.8853 67.2368C38.2864 67.2768 38.6595 67.4605 38.9359 67.7539L39.9635 68.8511C39.8476 69.1511 39.8081 69.4752 39.8483 69.7943C39.8886 70.1133 40.0075 70.4174 40.1943 70.6792C40.391 70.9736 40.6748 71.1993 41.006 71.3245L41.0067 71.6021ZM42.238 72.9869V71.4376H55.2464L55.2728 72.9871L42.238 72.9869ZM55.8611 70.2055H41.6137C41.5359 70.2052 41.4593 70.186 41.3905 70.1496C41.3218 70.1131 41.2629 70.0605 41.219 69.9962C40.8424 69.4317 41.2718 68.9734 41.4067 68.8502C41.5266 68.7461 41.6016 68.5996 41.616 68.4415C41.8883 65.326 41.8282 62.1905 41.4368 59.0878C41.4212 58.9799 41.3771 58.8781 41.3091 58.793C39.2436 56.1996 38.8348 53.2171 40.0942 49.9293C40.5522 48.7621 41.1571 47.6579 41.8943 46.6436C42.0045 47.1731 42.13 47.7125 42.2709 48.2619V48.2657C42.8624 50.517 43.6219 52.7207 44.5432 54.8582C44.1379 55.0803 43.8077 55.4179 43.5948 55.8281C43.0254 56.9604 42.6984 58.199 42.6346 59.4647C42.6117 59.8718 42.6947 60.2778 42.8756 60.6431C43.0564 61.0085 43.329 61.3207 43.6666 61.5492C44.1376 61.9538 49.8463 66.7977 56.3661 70.0625C56.2144 70.1563 56.0395 70.2058 55.8611 70.2053V70.2055ZM47.7487 61.5733L44.6906 60.6875C44.442 60.6175 44.2246 60.4648 44.0743 60.2547C43.924 60.0446 43.8498 59.7895 43.8639 59.5316C43.9178 58.4391 44.1988 57.3698 44.6891 56.392C44.823 56.1415 45.0451 55.9495 45.3124 55.8532C45.5797 55.757 45.8732 55.7633 46.1361 55.871L49.736 57.3485C49.7071 58.2169 49.4556 60.3876 47.7487 61.5732V61.5733ZM56.307 65.6576L56.9897 65.9955C58.2072 66.5984 59.3572 67.1678 60.1285 67.5368C60.2993 67.6189 60.4513 67.7355 60.5746 67.8794C60.6979 68.0233 60.79 68.1913 60.8449 68.3727C60.8991 68.5471 60.9158 68.731 60.8941 68.9123C60.8724 69.0936 60.8127 69.2684 60.719 69.4251L60.6963 69.4625C60.5216 69.7265 60.259 69.9201 59.9551 70.0089C59.6512 70.0976 59.3257 70.0759 59.0364 69.9475C54.2994 67.9215 49.7186 64.7178 46.9899 62.6354L47.6647 62.8308L56.307 65.6576ZM44.3586 50.9446C44.0805 50.126 43.8026 49.2291 43.5503 48.2851L44.9541 46.7953C44.7665 47.9169 44.5608 49.2995 44.3591 50.9446H44.3586ZM46.4772 45.2933L47.1565 45.9934L47.3892 49.5916C46.5333 51.1938 45.8566 52.5994 45.3735 53.6548C45.3735 51.1437 46.1544 46.9451 46.4777 45.2933H46.4772ZM46.4244 43.5059C45.9003 42.9989 45.4375 42.4322 45.0456 41.8173V39.0909C46.5328 39.3148 48.0489 38.955 49.2769 38.0868V40.9074L46.4244 43.5059ZM46.6042 54.7319C46.5001 54.6901 46.3931 54.6558 46.2841 54.6292C48.1168 50.5412 50.3336 46.6364 52.9045 42.9675C52.992 42.8409 53.1206 42.7485 53.2685 42.706C53.4164 42.6635 53.5744 42.6734 53.7158 42.7341C54.0822 42.8987 54.423 43.1153 54.7275 43.3773C54.8483 43.4829 54.9276 43.6281 54.951 43.7868C54.9743 43.9456 54.9403 44.1075 54.855 44.2434C53.6185 46.203 50.572 51.1358 48.4289 55.4809L46.6042 54.7319ZM49.2238 46.3552L47.3873 44.4626C48.3839 43.7442 49.2823 42.8986 50.0596 41.9473L51.5841 42.7047C50.7243 43.9389 49.9367 45.1697 49.2238 46.3552ZM45.914 37.9228C44.6908 37.9214 43.5181 37.4349 42.6532 36.57C41.7883 35.705 41.3018 34.5323 41.3005 33.3091V30.4069C41.3218 30.1431 41.5865 27.2033 42.8737 25.0578C43.4863 26.8563 45.2857 29.8069 50.5277 30.3452V33.3091C50.5263 34.5323 50.0398 35.705 49.1748 36.57C48.3099 37.4349 47.1372 37.9214 45.914 37.9228ZM45.5474 44.3709L43.1999 46.8621C43.0844 46.3459 42.9841 45.8403 42.8995 45.3494L44.4254 43.0892C44.7674 43.5434 45.1425 43.9718 45.5474 44.3709ZM63.3085 58.8C63.5443 60.1878 64.1307 61.4923 65.0122 62.5898C65.8927 63.6788 66.9773 65.58 67.1435 68.4552C67.1781 69.0336 67.093 69.613 66.8935 70.157C66.694 70.701 66.3845 71.1981 65.9842 71.617C65.5753 72.0488 65.0829 72.3929 64.5369 72.6284C63.9909 72.8638 63.4027 72.9858 62.8081 72.9867H56.504L56.4762 71.3485C56.824 71.2507 57.1399 71.063 57.3921 70.8042C57.4452 70.7484 57.4951 70.6897 57.5418 70.6283C57.8776 70.7838 58.2147 70.9341 58.5528 71.079C58.8763 71.2174 59.2245 71.2887 59.5764 71.2885C60.0075 71.2915 60.4323 71.1852 60.8111 70.9795C61.1899 70.7737 61.5104 70.4752 61.7425 70.1119L61.7757 70.0574C61.9564 69.7531 62.0718 69.4146 62.1146 69.0633C62.1573 68.7121 62.1265 68.3558 62.0241 68.017C61.9196 67.6718 61.7444 67.352 61.5097 67.0781C61.2749 66.8042 60.9857 66.5822 60.6604 66.4262C60.465 66.3327 60.2439 66.2256 60.0036 66.1084C61.1402 65.4863 62.8464 63.9087 62.2684 60.1489C62.2583 57.9005 62.0125 55.6594 61.5351 53.4622C62.4141 55.1325 63.0131 56.9358 63.3085 58.8ZM56.51 58.8155C56.1276 55.68 55.6706 54.0664 55.6513 53.9993C55.6048 53.8442 55.499 53.7136 55.3569 53.6359C55.2148 53.5582 55.0478 53.5396 54.8921 53.5842C54.7364 53.6288 54.6045 53.7329 54.525 53.8741C54.4456 54.0153 54.425 54.182 54.4677 54.3383C54.7708 55.5358 55.0012 56.7506 55.1576 57.976L49.5703 55.9495C51.6376 51.7722 54.5416 47.0521 55.8098 45.0374C61.1462 49.5579 61.0375 60.0733 61.0358 60.1818C61.0352 60.2176 61.0377 60.2533 61.0433 60.2886C61.6486 64.1069 59.5424 65.0501 58.9718 65.2333L49.1376 62.0166C50.4992 60.6828 50.8591 58.8721 50.9463 57.7972L55.6937 59.4702C55.7923 59.4997 55.8966 59.5049 55.9977 59.4852C56.0987 59.4655 56.1935 59.4216 56.2738 59.3572C56.3541 59.2928 56.4175 59.2098 56.4587 59.1155C56.4998 59.0211 56.5174 58.9182 56.51 58.8155ZM40.0692 33.2896C39.7759 33.2867 39.4956 33.1683 39.289 32.96C39.0825 32.7517 38.9664 32.4704 38.966 32.1771V31.5087C38.9664 31.2153 39.0825 30.934 39.289 30.7257C39.4955 30.5174 39.7759 30.3989 40.0692 30.396V33.2896ZM40.2164 29.1635C40.2164 29.1635 39.2524 29.1473 38.6605 29.6458C38.3608 29.0766 38.1904 28.4482 38.1615 27.8056C38.1615 27.7968 38.1601 27.788 38.159 27.7792C38.1558 27.7498 37.85 24.8168 39.3876 22.9842C40.1225 22.108 41.1853 21.6196 42.5465 21.5323C42.6509 21.5248 42.7518 21.4912 42.8399 21.4345C42.9279 21.3778 43.0003 21.2998 43.0503 21.2078C43.0941 21.1274 44.1593 19.2361 47.2847 19.2361C47.297 19.2361 47.3106 19.2361 47.3229 19.2348C47.6159 19.2172 54.5277 18.8739 55.7239 25.3433C56.0663 27.1655 56.2277 29.0172 56.2055 30.8713C56.1793 32.6459 56.7155 34.3832 57.7372 35.8344C59.5257 38.3993 61.9763 43.1427 58.8763 46.7082C58.1552 45.5773 57.244 44.5797 56.1828 43.7593C56.1669 43.5078 56.101 43.262 55.9891 43.0362C55.8772 42.8103 55.7215 42.609 55.531 42.444C55.1368 42.1047 54.6956 41.8242 54.2211 41.6111C53.9346 41.4842 53.621 41.4306 53.3085 41.4551C52.9961 41.4797 52.6947 41.5817 52.4316 41.7519L50.5085 40.7966L50.4684 36.9674C51.0428 36.2551 51.4413 35.4175 51.6316 34.5225H52.0077C52.6292 34.5218 53.2251 34.2745 53.6646 33.8351C54.1041 33.3956 54.3514 32.7997 54.3521 32.1781V31.5097C54.3521 29.0448 51.1685 29.1654 51.1685 29.1654C44.1565 28.6935 43.8031 23.8033 43.7915 23.5945C43.7853 23.4738 43.7438 23.3576 43.6721 23.2604C43.6004 23.1631 43.5017 23.0891 43.3882 23.0476C43.2747 23.0061 43.1515 22.9989 43.034 23.0269C42.9164 23.0549 42.8097 23.1169 42.7271 23.2051C41.1144 24.928 40.466 27.6239 40.2164 29.1635ZM51.7589 33.2901V30.3948C51.7589 30.3948 53.1209 30.3948 53.1209 31.5078V32.1762C53.1205 32.4713 53.0031 32.7542 52.7944 32.9629C52.5857 33.1716 52.3028 33.2889 52.0077 33.2893L51.7589 33.2901ZM37.2262 45.6771C37.2262 42.168 40.2572 39.7257 40.2979 39.6934C40.9985 39.1386 41.6023 38.4713 42.0844 37.7188C42.5963 38.1643 43.1818 38.5173 43.8147 38.7622V41.9473C43.8147 41.9473 40.4215 45.8407 39.1758 48.9232C37.8825 48.2548 37.2262 47.1652 37.2262 45.6771ZM30.6654 57.8192L38.1959 52.6583C37.9868 55.0982 38.6731 57.3946 40.2405 59.4241C40.5613 62.127 40.6319 64.8537 40.4516 67.5696L39.836 66.9124C39.3554 66.4019 38.7064 66.0824 38.0086 66.0128C37.3109 65.9432 36.6116 66.1283 36.0397 66.5339L35.572 66.8681C33.5519 64.4796 31.7984 61.8778 30.3426 59.1091C30.2303 58.8916 30.2011 58.6408 30.2604 58.4034C30.3197 58.1659 30.4635 57.9583 30.6649 57.8192H30.6654Z" fill="#3C3C4F"/>
</svg>
