<svg width="96" height="96" viewBox="0 0 96 96" fill="none" xmlns="http://www.w3.org/2000/svg">
<rect x="-1.52588e-05" y="0.000183105" width="96" height="96" rx="15" fill="#131C73"/>
<path d="M37.2179 45.1748C37.4932 45.5061 37.7889 45.8146 38.0847 46.1116C40.8037 48.8541 44.3328 50.3717 47.9914 50.3717C51.65 50.3717 55.179 48.8541 57.8981 46.1116C58.2051 45.8171 58.4979 45.5044 58.7751 45.1748C59.0504 44.8435 59.3257 44.5121 59.5807 44.158C61.3458 41.7084 62.4562 38.7491 62.7834 35.6222C63.1105 32.4954 62.6412 29.3286 61.4295 26.4881C60.2179 23.6475 58.3134 21.2491 55.9363 19.5701C53.5592 17.8912 50.8065 17.0002 47.9965 17.0002C45.1864 17.0002 42.4337 17.8912 40.0566 19.5701C37.6795 21.2491 35.7751 23.6475 34.5634 26.4881C33.3518 29.3286 32.8824 32.4954 33.2096 35.6222C33.5368 38.7491 34.6471 41.7084 36.4123 44.158C36.6672 44.4893 36.9426 44.8435 37.2179 45.1748Z" fill="white"/>
<path d="M49.5465 54.2916C49.5479 54.351 49.5386 54.4102 49.5192 54.4656C49.4998 54.521 49.4707 54.5715 49.4337 54.614C49.3966 54.6566 49.3523 54.6905 49.3034 54.7136C49.2545 54.7367 49.2019 54.7486 49.1488 54.7486H46.8442C46.736 54.7486 46.6323 54.7004 46.5558 54.6147C46.4793 54.529 46.4363 54.4128 46.4363 54.2916V51.721C46.4363 51.5998 46.4793 51.4836 46.5558 51.3979C46.6323 51.3122 46.736 51.264 46.8442 51.264H49.1488C49.2019 51.264 49.2545 51.2759 49.3034 51.299C49.3523 51.3221 49.3966 51.356 49.4337 51.3986C49.4707 51.4411 49.4998 51.4916 49.5192 51.547C49.5386 51.6024 49.5479 51.6616 49.5465 51.721V54.2916Z" fill="white"/>
<path d="M46.3037 55.7997H49.5974L51.1474 64.9966H44.7333" fill="white"/>
<path d="M33.4856 48.8764L32.5372 49.619L45.9569 71.9657H47.3846L33.4856 48.8764Z" fill="white"/>
<path d="M40.2873 71.9657H42.0412L30.0186 51.9839C29.6617 52.361 29.3149 52.7608 28.9988 53.1264L40.2873 71.9657Z" fill="white"/>
<path d="M28.6215 53.6289C25.0055 58.074 22.6984 63.6584 22.0136 69.6235C21.9822 69.9061 22.0051 70.1929 22.0807 70.4649C22.1564 70.7368 22.283 70.9874 22.4521 71.2001C22.6573 71.4561 22.9091 71.66 23.1905 71.7979C23.472 71.9359 23.7765 72.0047 24.0836 71.9998H39.655L28.6215 53.6289Z" fill="white"/>
<path d="M73.9895 69.6236C73.4506 64.9274 71.9099 60.4457 69.4976 56.5579C67.0854 52.6701 63.8726 49.4906 60.1313 47.2884C57.0721 50.7729 52.728 60.7695 47.9965 60.7695C43.2649 60.7695 38.9718 50.7729 35.8616 47.2884C35.1988 47.6768 34.5564 48.111 33.9241 48.5565L47.9965 71.9657H71.9194C72.2266 71.9706 72.5311 71.9018 72.8126 71.7638C73.094 71.6259 73.3458 71.422 73.551 71.166C73.716 70.9573 73.8403 70.7124 73.9158 70.4467C73.9913 70.1811 74.0164 69.9008 73.9895 69.6236Z" fill="white"/>
</svg>
