<svg width="96" height="96" viewBox="0 0 96 96" fill="none" xmlns="http://www.w3.org/2000/svg">
<rect width="96" height="96" rx="15" fill="#131C73"/>
<path d="M68.3599 48.8708H65.4267V43.0441C65.4267 42.3282 65.1479 41.6547 64.6417 41.1486L63.5541 40.061C63.7644 39.2312 63.4284 38.1698 62.6157 37.3575C61.5158 36.2576 59.9602 36.0307 59.1403 36.8501C58.3208 37.6696 58.5477 39.2256 59.6476 40.3255C60.4322 41.1101 61.4492 41.4504 62.2647 41.2834L63.3856 42.4043C63.5565 42.5753 63.6509 42.8026 63.6509 43.0441V48.8708H58.5727V46.2716C58.5727 42.1842 55.3452 38.8508 51.2995 38.6807L51.3022 38.6735L49.0041 37.6831V35.8685C50.599 35.335 51.8849 34.1268 52.5231 32.5827C52.6207 32.4871 52.7155 32.3887 52.8075 32.288C52.8579 32.2919 52.9083 32.2943 52.9598 32.2943C53.9907 32.2943 54.8264 31.4586 54.8264 30.4277C54.8264 30.0263 54.6995 29.6547 54.4841 29.35C54.6975 28.6464 54.8125 27.8999 54.8125 27.1265C54.8125 22.9034 51.3891 19.48 47.1661 19.48C42.943 19.48 39.5192 22.9034 39.5192 27.1265C39.5192 27.8999 39.6342 28.6464 39.8476 29.3496C39.6318 29.6539 39.5053 30.0259 39.5053 30.4273C39.5053 31.4582 40.341 32.2939 41.3719 32.2939C41.4231 32.2939 41.4738 32.2919 41.5242 32.2876C41.6166 32.3883 41.7114 32.4867 41.8086 32.5823C42.4464 34.1264 43.7323 35.3346 45.3276 35.8681V37.6827L43.0295 38.6731L43.0319 38.6803C38.9865 38.8504 35.7586 42.1838 35.7586 46.2712V48.8704H30.6796V43.0437C30.6796 42.8018 30.7736 42.5749 30.9446 42.4039L32.0655 41.283C32.8814 41.45 33.898 41.1097 34.6825 40.3251C35.7824 39.2252 36.0093 37.6696 35.1898 36.8498C34.3704 36.0299 32.8143 36.2572 31.7144 37.3571C30.9021 38.1698 30.5658 39.2308 30.776 40.0606L29.6884 41.1482C29.1823 41.6547 28.9034 42.3278 28.9034 43.0437V48.8704H25.9707C24.4785 48.8704 23.5293 50.4665 24.2421 51.7778L26.1095 55.2139C26.4538 55.8473 27.1174 56.242 27.8385 56.242H30.0061V76.1162C30.0061 77.7507 31.3313 79.0759 32.9659 79.0759H61.3643C62.9988 79.0759 64.324 77.7507 64.324 76.1162V56.2424H66.4917C67.2128 56.2424 67.876 55.8481 68.2206 55.2143L70.088 51.7782C70.8008 50.4669 69.852 48.8708 68.3599 48.8708Z" fill="#382B73"/>
<path d="M57.8349 48.6478H36.4956C36.0882 48.6478 35.7578 48.3174 35.7578 47.9101V43.4951C35.7578 39.299 39.1594 35.897 43.3559 35.897H50.975C55.1711 35.897 58.5731 39.2986 58.5731 43.4951V47.9101C58.5727 48.3174 58.2423 48.6478 57.8349 48.6478Z" fill="white"/>
<path d="M55.2298 37.1995V48.6474H57.835C58.2423 48.6474 58.5727 48.317 58.5727 47.9097V43.4946C58.5727 40.8756 57.2467 38.5656 55.2298 37.1995Z" fill="white"/>
<path d="M51.3023 35.897L49.0037 34.9066L49.0041 35.897L47.1653 38.7623L45.3268 35.897V34.9066L43.0283 35.897L47.1653 47.122L51.3023 35.897Z" fill="#D1D3D4"/>
<path d="M43.0283 35.897L44.7656 40.6055C44.8358 40.7955 45.0789 40.8487 45.2221 40.7059L47.1653 38.7623L45.3268 35.897V34.9066L43.0283 35.897Z" fill="white"/>
<path d="M51.3022 35.897L49.565 40.6055C49.4948 40.7955 49.2516 40.8487 49.1084 40.7059L47.1649 38.7623L49.0033 35.897V34.9066L51.3022 35.897Z" fill="white"/>
<path d="M47.1653 33.3898C46.5227 33.3898 45.9043 33.2851 45.3268 33.0919V35.1084V35.897L47.1653 38.7623L49.0037 35.897V35.5928V33.0919C48.4262 33.2851 47.8078 33.3898 47.1653 33.3898Z" fill="#E6E7E8"/>
<path d="M48.7042 40.3013L47.5575 41.448C47.341 41.6646 46.9895 41.6646 46.773 41.448L45.6263 40.3013L47.1653 38.7623L48.7042 40.3013Z" fill="white"/>
<path d="M47.5575 41.4484C47.341 41.6649 46.9896 41.6649 46.773 41.4484L46.3799 41.0553L46.0392 44.0666L47.1653 47.1231L48.2913 44.0666L47.9506 41.0553L47.5575 41.4484Z" fill="white"/>
<path d="M41.7392 40.8276L42.7177 39.9649C42.8986 39.8055 42.8038 39.5068 42.5638 39.481L41.4151 39.3581C41.2363 39.339 41.1224 39.157 41.1839 38.9876L42.2755 35.9751C42.5249 35.939 42.7776 35.914 43.0326 35.9057L47.1657 47.1228L41.7194 41.2235C41.6135 41.1097 41.6226 40.9308 41.7392 40.8276Z" fill="white"/>
<path d="M52.5913 40.8276L51.6128 39.9649C51.432 39.8055 51.5267 39.5068 51.7667 39.481L52.9154 39.3581C53.0943 39.339 53.2081 39.157 53.1466 38.9876L52.0551 35.9751C51.8052 35.939 51.5529 35.914 51.2979 35.9057L47.1653 47.1231L52.6116 41.2239C52.7175 41.1097 52.7083 40.9308 52.5913 40.8276Z" fill="white"/>
<path d="M53.9177 46.3422H50.173C49.9576 46.3422 49.7831 46.5167 49.7831 46.7321C49.7831 46.9474 49.9576 47.122 50.173 47.122H53.9177C54.1331 47.122 54.3076 46.9474 54.3076 46.7321C54.3076 46.5167 54.1331 46.3422 53.9177 46.3422Z" fill="white"/>
<path d="M39.1007 48.6474V37.1995C37.0834 38.5656 35.7578 40.8752 35.7578 43.495V47.9101C35.7578 48.3174 36.0882 48.6478 36.4956 48.6478H39.1007V48.6474Z" fill="white"/>
<path d="M49.123 31.7413C53.2051 30.6593 55.6373 26.4731 54.5554 22.3911C53.4735 18.3091 49.2871 15.8771 45.2049 16.9591C41.1227 18.0411 38.6905 22.2274 39.7725 26.3094C40.8544 30.3913 45.0408 32.8233 49.123 31.7413Z" fill="white"/>
<path d="M47.1653 33.3898C43.9652 33.3898 41.3711 30.7958 41.3711 27.5957V24.5871C41.3711 21.387 43.9652 18.793 47.1653 18.793C50.3654 18.793 52.9594 21.387 52.9594 24.5871V27.5957C52.9594 30.7958 50.3654 33.3898 47.1653 33.3898Z" fill="white"/>
<path d="M47.1653 33.3898C46.5227 33.3898 45.9043 33.2851 45.3268 33.0919V34.1966C45.9051 34.3901 46.5219 34.4992 47.1653 34.4992C47.8086 34.4992 48.4258 34.3901 49.0037 34.1966V33.0919C48.4262 33.2851 47.8078 33.3898 47.1653 33.3898Z" fill="#D1D3D4"/>
<path d="M41.3711 27.5956V25.785C40.3402 25.785 39.5045 26.6207 39.5045 27.6512C39.5045 28.6821 40.3402 29.5178 41.3711 29.5178C41.479 29.5178 41.5849 29.5087 41.6884 29.4908C41.4826 28.897 41.3711 28.2592 41.3711 27.5956Z" fill="white"/>
<path d="M52.9594 25.785V27.5956C52.9594 28.2592 52.8476 28.897 52.6421 29.4908C52.7452 29.5083 52.8511 29.5178 52.9594 29.5178C53.9903 29.5178 54.826 28.6821 54.826 27.6512C54.826 26.6207 53.9903 25.785 52.9594 25.785Z" fill="white"/>
<path d="M47.1653 32.5577C43.9652 32.5577 41.3711 29.9637 41.3711 26.7635V27.5957C41.3711 30.7958 43.9652 33.3899 47.1653 33.3899C50.3654 33.3899 52.9594 30.7958 52.9594 27.5957V26.7635C52.9594 29.9637 50.3654 32.5577 47.1653 32.5577Z" fill="#E6E7E8"/>
<path d="M41.3711 24.5871V25.7283C43.6359 24.4083 45.1614 21.9602 45.1725 19.1523C42.9557 19.9659 41.3711 22.0887 41.3711 24.5871Z" fill="#E6E7E8"/>
<path d="M50.2016 25.9345C51.1749 25.9345 52.1031 25.7473 52.9594 25.4157V24.5871C52.9594 21.387 50.3654 18.793 47.1653 18.793C45.4903 18.793 43.9854 19.5081 42.9275 20.6445C43.9215 23.7141 46.8012 25.9345 50.2016 25.9345Z" fill="#E6E7E8"/>
<path d="M42.5932 18.2206C42.9767 22.0847 46.2367 25.1023 50.2016 25.1023C51.9158 25.1023 53.4985 24.5379 54.7737 23.5852C54.3897 19.7211 51.1301 16.7034 47.1653 16.7034C45.451 16.7038 43.8684 17.2679 42.5932 18.2206Z" fill="white"/>
<path d="M39.5188 24.3503C39.5188 24.6982 39.5442 25.0401 39.5894 25.376C42.8105 24.4756 45.1737 21.5214 45.1737 18.0131C45.1737 17.6653 45.1483 17.3234 45.1031 16.9874C41.882 17.8878 39.5188 20.842 39.5188 24.3503Z" fill="white"/>
<path d="M44.7001 27.5385C45.0879 27.5385 45.4022 27.2242 45.4022 26.8365C45.4022 26.4487 45.0879 26.1344 44.7001 26.1344C44.3124 26.1344 43.9981 26.4487 43.9981 26.8365C43.9981 27.2242 44.3124 27.5385 44.7001 27.5385Z" fill="white"/>
<path d="M50.146 27.5385C50.5338 27.5385 50.8481 27.2242 50.8481 26.8365C50.8481 26.4487 50.5338 26.1344 50.146 26.1344C49.7583 26.1344 49.444 26.4487 49.444 26.8365C49.444 27.2242 49.7583 27.5385 50.146 27.5385Z" fill="white"/>
<path d="M41.3711 27.5957V26.5787C40.7789 26.5787 40.2986 27.059 40.2986 27.6512C40.2986 28.2434 40.7789 28.7237 41.3711 28.7237C41.4088 28.7237 41.4445 28.7166 41.481 28.7126C41.4104 28.3513 41.3711 27.978 41.3711 27.5957Z" fill="#E6E7E8"/>
<path d="M52.965 27.5957V26.5787C53.5572 26.5787 54.0375 27.059 54.0375 27.6512C54.0375 28.2434 53.5572 28.7237 52.965 28.7237C52.9273 28.7237 52.8916 28.7166 52.8551 28.7126C52.9257 28.3513 52.965 27.978 52.965 27.5957Z" fill="#E6E7E8"/>
<path d="M30.6796 46.0942H28.9038V40.2676C28.9038 39.5516 29.1827 38.8781 29.6888 38.372L32.0603 36.0005L33.3161 37.2563L30.9446 39.6278C30.7736 39.7987 30.6796 40.026 30.6796 40.2676V46.0942Z" fill="#FEDE3A"/>
<path d="M32.0607 36.0005L31.9048 36.1564L32.7049 36.9564L30.2528 39.4084C30.0759 39.5853 29.9787 39.8202 29.9787 40.07V46.0942H30.68V40.2676C30.68 40.0256 30.774 39.7987 30.945 39.6278L33.3165 37.2563L32.0607 36.0005Z" fill="#E7AD27"/>
<path d="M35.1902 34.0736C36.0097 34.8931 35.7828 36.4491 34.6829 37.549C33.583 38.6489 32.0274 38.8758 31.2075 38.0563C30.3881 37.2369 30.615 35.6808 31.7148 34.5809C32.8147 33.4811 34.3704 33.2542 35.1902 34.0736Z" fill="#FEDE3A"/>
<path d="M34.6829 36.365C33.583 37.4649 32.0274 37.6918 31.2075 36.8723C31.0084 36.6732 30.8724 36.4301 30.7942 36.1611C30.6146 36.8846 30.7411 37.5898 31.2075 38.0563C32.027 38.8758 33.583 38.6489 34.6829 37.549C35.5155 36.7164 35.8467 35.6229 35.6035 34.7848C35.4675 35.3326 35.1565 35.891 34.6829 36.365Z" fill="#E7AD27"/>
<path d="M38.2495 50.0789H36.4738V44.2523C36.4738 43.5363 36.7526 42.8628 37.2587 42.3567L39.6303 39.9852L40.886 41.2409L38.5145 43.6125C38.3435 43.7834 38.2495 44.0107 38.2495 44.2523V50.0789Z" fill="#FEDE3A"/>
<path d="M39.6302 39.9852L39.4744 40.141L40.2744 40.9411L37.8224 43.3931C37.6454 43.57 37.5483 43.8048 37.5483 44.0547V50.0789H38.2495V44.2523C38.2495 44.0107 38.3435 43.7834 38.5145 43.6125L40.886 41.2409L39.6302 39.9852Z" fill="#E7AD27"/>
<path d="M42.7598 38.0583C43.5792 38.8777 43.3523 40.4338 42.2524 41.5337C41.1526 42.6335 39.5965 42.8604 38.7771 42.041C37.9576 41.2215 38.1845 39.6655 39.2844 38.5656C40.3843 37.4661 41.9403 37.2388 42.7598 38.0583Z" fill="#FEDE3A"/>
<path d="M42.2525 40.3497C41.1526 41.4496 39.5969 41.6765 38.7771 40.857C38.578 40.6579 38.4419 40.4147 38.3638 40.1458C38.1841 40.8693 38.3106 41.5745 38.7771 42.041C39.5965 42.8604 41.1526 42.6336 42.2525 41.5337C43.085 40.7011 43.4162 39.6076 43.1731 38.7695C43.037 39.3172 42.7264 39.8757 42.2525 40.3497Z" fill="#E7AD27"/>
<path d="M63.6509 46.0942H65.4267V40.2676C65.4267 39.5516 65.1478 38.8781 64.6413 38.372L62.2698 36.0005L61.014 37.2563L63.386 39.6278C63.5569 39.7987 63.6509 40.026 63.6509 40.2676V46.0942Z" fill="#FEDE3A"/>
<path d="M62.2698 36.0005L62.4257 36.1564L61.6257 36.9564L64.0777 39.4084C64.2546 39.5853 64.3518 39.8202 64.3518 40.07V46.0942H63.6505V40.2676C63.6505 40.0256 63.5565 39.7987 63.3856 39.6278L61.0136 37.2563L62.2698 36.0005Z" fill="#E7AD27"/>
<path d="M59.1403 34.0736C58.3208 34.8931 58.5477 36.4491 59.6476 37.549C60.7475 38.6489 62.3031 38.8758 63.123 38.0563C63.9428 37.2369 63.7156 35.6808 62.6157 34.5809C61.5158 33.4811 59.9602 33.2542 59.1403 34.0736Z" fill="#FEDE3A"/>
<path d="M59.6476 36.365C60.7475 37.4649 62.3031 37.6918 63.123 36.8723C63.3221 36.6732 63.4582 36.4301 63.5363 36.1611C63.716 36.8846 63.5894 37.5898 63.123 38.0563C62.3035 38.8758 60.7475 38.6489 59.6476 37.549C58.8151 36.7164 58.4839 35.6229 58.727 34.7848C58.863 35.3326 59.174 35.891 59.6476 36.365Z" fill="#E7AD27"/>
<path d="M56.081 50.0789H57.8568V44.2523C57.8568 43.5363 57.5779 42.8628 57.0718 42.3567L54.7003 39.9852L53.4445 41.2409L55.8164 43.6125C55.9874 43.7834 56.0814 44.0107 56.0814 44.2523V50.0789H56.081Z" fill="#FEDE3A"/>
<path d="M54.7003 39.9852L54.8562 40.141L54.0561 40.9411L56.5082 43.3931C56.6851 43.57 56.7823 43.8048 56.7823 44.0547V50.0789H56.081V44.2523C56.081 44.0107 55.987 43.7834 55.816 43.6125L53.4441 41.2409L54.7003 39.9852Z" fill="#E7AD27"/>
<path d="M51.5708 38.0583C50.7513 38.8777 50.9782 40.4338 52.0781 41.5337C53.178 42.6335 54.7336 42.8604 55.5535 42.041C56.3729 41.2215 56.146 39.6655 55.0462 38.5656C53.9463 37.4661 52.3902 37.2388 51.5708 38.0583Z" fill="#FEDE3A"/>
<path d="M52.0781 40.3497C53.178 41.4496 54.7336 41.6765 55.5535 40.857C55.7526 40.6579 55.8886 40.4147 55.9668 40.1458C56.1465 40.8693 56.0199 41.5745 55.5535 42.041C54.734 42.8604 53.178 42.6336 52.0781 41.5337C51.2455 40.7011 50.9143 39.6076 51.1575 38.7695C51.2935 39.3172 51.6041 39.8757 52.0781 40.3497Z" fill="#E7AD27"/>
<path d="M66.4921 53.4659H27.8385C27.1174 53.4659 26.4542 53.0716 26.1095 52.4378L24.2417 49.0013C23.5289 47.69 24.4781 46.0939 25.9703 46.0939H68.3591C69.8512 46.0939 70.8004 47.69 70.088 49.0013L68.2202 52.4378C67.8763 53.0712 67.2132 53.4659 66.4921 53.4659Z" fill="#382B73"/>
<path d="M68.2206 50.0698C67.8764 50.7032 67.2132 51.0979 66.4921 51.0979H27.8385C27.1174 51.0979 26.4542 50.7032 26.1095 50.0698L24.3853 46.8975C23.9609 47.4777 23.851 48.2821 24.2417 49.0013L26.1095 52.4378C26.4538 53.0712 27.1174 53.4659 27.8385 53.4659H66.4921C67.2132 53.4659 67.8764 53.0716 68.2206 52.4378L70.0884 49.0013C70.4795 48.2821 70.3693 47.4777 69.9448 46.8975L68.2206 50.0698Z" fill="#382B73"/>
<path d="M61.3643 76.2998H32.9662C31.3317 76.2998 30.0065 74.9746 30.0065 73.3401V53.4659H64.3244V73.3401C64.324 74.9746 62.9992 76.2998 61.3643 76.2998Z" fill="#382B73"/>
</svg>
