<svg width="96" height="96" viewBox="0 0 96 96" fill="none" xmlns="http://www.w3.org/2000/svg">
<rect width="96" height="96" rx="15" fill="#131C73"/>
<path d="M30.3168 57.3114L35.8506 53.5195C35.8506 53.5195 39.8258 55.4473 39.8258 60.8815C39.8258 66.3157 34.3291 66.3157 34.3291 66.3157C32.5981 64.1585 31.0796 61.8391 29.7945 59.3899C29.6135 59.0393 29.5667 58.6347 29.6629 58.252C29.759 57.8693 29.9915 57.5348 30.3168 57.3114Z" fill="#FCACD8"/>
<path d="M35.8506 53.5195C35.694 55.5401 36.2777 57.5488 37.4927 59.1709C37.8104 59.6086 38.0015 60.1252 38.0452 60.6643C38.1745 62.2438 37.9201 65.2818 34.3301 66.3154C35.7583 68.1334 37.317 69.845 38.9938 71.4365L43.2481 67.8518L39.5936 50.9544L35.8506 53.5195Z" fill="#EA7DAA"/>
<path d="M59.1213 49.6404C59.1213 49.6404 62.7317 51.818 63.9151 58.6956C64.1327 59.9799 64.6752 61.1871 65.491 62.2026C66.2342 63.1313 66.8049 64.1858 67.176 65.3159C65.8123 68.3628 60.3258 68.0518 54.4765 67.4442L59.1213 49.6404Z" fill="#81A2EA"/>
<path d="M67.7577 68.4196C67.7018 67.364 67.5055 66.3204 67.1739 65.3167C61.3191 66.7942 57.7636 63.9853 55.9588 61.7606L54.476 67.4448L55.8988 73.6023H62.8081C63.4787 73.605 64.1429 73.471 64.76 73.2085C65.3771 72.9459 65.9343 72.5604 66.3975 72.0754C66.8607 71.5904 67.2201 71.0161 67.454 70.3876C67.6879 69.759 67.7912 69.0894 67.7577 68.4196Z" fill="#81A2EA"/>
<path d="M35.1706 67.9093L36.3965 67.035C36.8465 66.7139 37.3977 66.5672 37.9477 66.622C38.4977 66.6769 39.009 66.9296 39.3867 67.3331L41.1953 69.2646C41.411 69.4938 41.5768 69.7652 41.6823 70.0617C41.7877 70.3583 41.8306 70.6734 41.8081 70.9874C41.7856 71.3013 41.6982 71.6071 41.5516 71.8856C41.4049 72.164 41.2021 72.4091 40.9559 72.6052C40.7473 72.77 40.5304 72.924 40.3061 73.0667C40.0053 73.255 39.6576 73.3549 39.3027 73.3551C38.9478 73.3553 38.6 73.2557 38.299 73.0678C36.9901 72.2526 35.8328 71.216 34.8789 70.0044C34.756 69.8495 34.6657 69.6713 34.6136 69.4805C34.5616 69.2897 34.5488 69.0903 34.5761 68.8944C34.6033 68.6985 34.6701 68.5102 34.7723 68.3409C34.8745 68.1716 35.01 68.0247 35.1706 67.9093Z" fill="#FFD1C0"/>
<path d="M41.6223 70.822V73.6027H55.8988L55.8518 70.822C51.1166 70.4349 46.3576 70.4349 41.6223 70.822Z" fill="#464659"/>
<path d="M41.8716 34.5988C41.8716 34.5988 43.1363 36.5559 39.9063 39.2183C39.9063 39.2183 36.6106 41.812 36.6106 45.6771C36.6106 49.9972 41.4623 50.1682 41.4623 50.1682L45.6785 42.3835V36.3953L41.8716 34.5988Z" fill="#595975"/>
<path d="M40.939 31.8423C40.939 31.8423 37.803 31.6036 37.5472 27.8472C37.5472 27.8472 36.8178 21.2827 42.5074 20.9179C42.5074 20.9179 43.7109 18.6203 47.2851 18.6203C47.2851 18.6203 55.0167 18.1296 56.3295 25.2313C56.6803 27.0935 56.8452 28.9859 56.822 30.8807C56.8007 32.5257 57.2979 34.1357 58.2431 35.4822C60.4031 38.5797 63.3792 44.5661 57.7525 48.5256H48.4864L47.7586 36.9647L40.939 31.8423Z" fill="#595975"/>
<path d="M42.2519 45.2085C42.2519 45.2085 36.3856 51.4861 39.8824 57.7715C40.5601 58.9623 40.9647 60.2889 41.0667 61.6553C41.2034 63.7063 41.198 65.7643 41.0507 67.8145C41.0282 68.1267 40.9226 68.4273 40.7448 68.6849C40.5625 68.92 40.4604 69.2075 40.4536 69.5049C40.4469 69.8024 40.5358 70.0942 40.7073 70.3374C40.8083 70.487 40.9446 70.6094 41.1041 70.6939C41.2636 70.7783 41.4415 70.8222 41.622 70.8216H54.4318L58.9551 65.8758C58.9551 65.8758 62.4436 65.1874 61.6517 60.1927C61.6517 60.1927 61.8225 50.2371 56.8964 45.2076L52.7805 42.7416L42.2519 45.2085Z" fill="#797996"/>
<path d="M57.5951 64.9985L43.2501 59.4981L43.1094 60.9856C43.0635 61.4668 43.1229 61.9523 43.2834 62.4082C43.4439 62.8642 43.7016 63.2798 44.0388 63.6262C47.0295 66.6456 50.5534 69.0853 54.4322 70.822H55.8518C56.055 70.8254 56.2568 70.7879 56.4452 70.7117C56.6335 70.6354 56.8046 70.522 56.9482 70.3782C57.3135 69.9974 57.5837 69.336 57.0227 68.2638L57.8552 67.2353L57.5951 64.9985Z" fill="#595975"/>
<path d="M54.9579 43.6754L47.5287 56.935L56.2397 59.1451C56.3143 59.1639 56.3932 59.1566 56.4631 59.1245C56.5331 59.0924 56.59 59.0374 56.6245 58.9686C56.659 58.8998 56.669 58.8212 56.6528 58.746C56.6366 58.6707 56.5952 58.6032 56.5355 58.5546C55.0942 57.4023 53.5488 56.3866 51.9194 55.5205C53.333 51.3724 56.2565 46.2702 56.8956 45.2087C56.3189 44.6158 55.6675 44.1004 54.9579 43.6754Z" fill="#595975"/>
<path d="M49.8929 41.1775L51.9193 44.574L47.0615 55.6469H45.5752C44.4493 53.2213 43.5432 50.6996 42.8677 48.1121L44.4303 41.9815L49.8929 41.1775Z" fill="#CBD5EA"/>
<path d="M45.085 47.2766C44.9659 48.8519 44.8254 50.9451 44.6826 53.5912C45.0757 54.5683 45.3893 55.253 45.5149 55.5204L47.2086 55.3113L48.2112 52.777L47.9208 48.2803C47.217 47.1445 46.2301 46.9479 45.085 47.2766Z" fill="#FF6D8D"/>
<path d="M45.085 47.2766C45.7082 47.2652 46.938 47.3751 47.9213 48.2803L47.6138 43.5193L45.4134 43.5426C45.4134 43.5426 45.2772 44.7388 45.085 47.2766Z" fill="#E5486E"/>
<path d="M50.2747 48.3225L52.7802 42.6117L49.8929 41.1775L46.4167 44.3462L50.2747 48.3225Z" fill="white"/>
<path d="M42.2519 45.2085C42.4133 46.1996 42.6271 47.1764 42.8675 48.1119L46.4162 44.3462L45.5696 41.8134L44.4298 41.9812L42.2519 45.2085Z" fill="white"/>
<path d="M46.5435 52.6131C48.2187 49.1236 50.1786 45.7781 52.4032 42.6105C52.5736 42.3681 52.8225 42.1921 53.1078 42.1122C53.3931 42.0324 53.6973 42.0537 53.9687 42.1725C54.3892 42.3617 54.7801 42.6105 55.1296 42.9113C55.3628 43.1128 55.516 43.3913 55.5612 43.6962C55.6064 44.0011 55.5406 44.3121 55.3758 44.5726C54.49 45.9762 52.6169 48.9991 50.8378 52.2189C50.8385 52.2182 48.1244 54.3978 46.5435 52.6131Z" fill="#A1D3FF"/>
<path d="M44.4303 39.7109V41.9815C44.4303 41.9815 44.9978 43.0692 46.4167 44.3462C46.4167 44.3462 48.0485 43.5185 49.8929 41.1775V38.6485L44.4303 39.7109Z" fill="#FFD1C0"/>
<path d="M51.1431 29.7789H52.0076C52.4662 29.7789 52.9059 29.9611 53.2301 30.2853C53.5543 30.6095 53.7365 31.0492 53.7365 31.5077V32.1761C53.7365 32.6346 53.5543 33.0743 53.2301 33.3985C52.9059 33.7227 52.4661 33.9048 52.0076 33.9048H50.6246L51.1431 29.7789Z" fill="#F99C9C"/>
<path d="M44.4303 39.711C44.9182 39.8138 45.4154 39.8658 45.914 39.8661C47.333 39.8727 48.7206 39.4481 49.8929 38.6486V35.8094L44.4303 37.4884V39.711Z" fill="#F99C9C"/>
<path d="M41.4616 29.7789H40.0785C39.62 29.7789 39.1803 29.9611 38.8561 30.2853C38.5319 30.6095 38.3497 31.0492 38.3497 31.5077V32.1761C38.3497 32.6346 38.5319 33.0743 38.8561 33.3985C39.1803 33.7227 39.62 33.9048 40.0785 33.9048H41.4616V29.7789Z" fill="#F99C9C"/>
<path d="M43.1767 23.6247C43.1767 23.6247 42.9732 29.6392 51.1431 30.1201V33.3091C51.1431 34.6959 50.5922 36.026 49.6116 37.0067C48.6309 37.9874 47.3009 38.5383 45.914 38.5384C44.5271 38.5383 43.197 37.9874 42.2163 37.0067C41.2357 36.026 40.6847 34.6959 40.6847 33.3091V30.3839C40.6847 30.3839 40.9867 25.9655 43.1767 23.6247Z" fill="#FFD1C0"/>
<path d="M44.0395 61.0574C44.0395 61.0574 51.1604 67.2489 58.7949 70.5134C59.2191 70.7006 59.6961 70.7304 60.1403 70.5976C60.5845 70.4648 60.9668 70.178 61.2187 69.7888C61.2284 69.7735 61.2379 69.758 61.2472 69.7423C61.3846 69.5078 61.4717 69.2472 61.503 68.9772C61.5342 68.7072 61.509 68.4336 61.4288 68.1739C61.3486 67.9142 61.2152 67.674 61.0372 67.4686C60.8592 67.2632 60.6403 67.097 60.3946 66.9808C59.9624 66.7739 59.5447 66.1611 58.9555 65.8751C55.9691 64.4259 51.1153 62.4255 47.1616 60.199L44.0395 61.0574Z" fill="#81A2EA"/>
<path d="M50.3509 56.935L59.8552 60.284L58.9555 65.8759L47.8469 62.2424L50.3509 56.935Z" fill="#797996"/>
<path d="M44.4898 32.9279C44.2249 32.7983 43.9354 32.727 43.6407 32.7186C43.4782 32.7342 43.3161 32.6845 43.1902 32.5806C43.0642 32.4766 42.9847 32.3269 42.9692 32.1644C42.9536 32.0018 43.0033 31.8398 43.1072 31.7138C43.2111 31.5879 43.3609 31.5084 43.5234 31.4928C44.0759 31.4576 44.6266 31.5861 45.1065 31.8622C45.1765 31.9027 45.2378 31.9565 45.287 32.0207C45.3362 32.0848 45.3723 32.1581 45.3932 32.2362C45.414 32.3143 45.4193 32.3957 45.4088 32.4759C45.3982 32.556 45.3719 32.6333 45.3314 32.7033C45.2442 32.8387 45.1096 32.9367 44.954 32.9782C44.7984 33.0197 44.6329 33.0018 44.4898 32.9279Z" fill="#F99C9C"/>
<path d="M46.756 32.7031C46.7133 32.6337 46.6853 32.5563 46.6735 32.4756C46.6618 32.395 46.6666 32.3128 46.6876 32.234C46.7086 32.1553 46.7455 32.0816 46.7959 32.0176C46.8463 31.9535 46.9092 31.9004 46.9808 31.8615C47.4606 31.5853 48.0113 31.4568 48.5638 31.4921C48.7263 31.5077 48.876 31.5873 48.9799 31.7133C49.0838 31.8392 49.1333 32.0013 49.1177 32.1638C49.1021 32.3264 49.0225 32.476 48.8966 32.5799C48.7706 32.6838 48.6085 32.7334 48.446 32.7177C48.1493 32.709 47.8558 32.7814 47.5973 32.9272C47.4518 32.9864 47.2909 32.9965 47.1391 32.9561C46.9873 32.9156 46.8528 32.8268 46.756 32.7031Z" fill="#F99C9C"/>
<path d="M46.1363 36.5469C45.6844 36.5554 45.2356 36.4702 44.8182 36.2968C44.6699 36.2304 44.5539 36.1082 44.4954 35.9566C44.4369 35.8051 44.4406 35.6365 44.5058 35.4878C44.5711 35.339 44.6924 35.222 44.8435 35.1623C44.9946 35.1026 45.1631 35.1051 45.3124 35.1692C45.574 35.2742 45.8545 35.324 46.1363 35.3157C46.4492 35.3217 46.7601 35.2655 47.051 35.1502C47.2015 35.0869 47.371 35.0861 47.5222 35.1478C47.6733 35.2095 47.7938 35.3288 47.857 35.4793C47.9202 35.6299 47.9211 35.7994 47.8593 35.9505C47.7976 36.1017 47.6783 36.2221 47.5278 36.2854C47.0859 36.4639 46.6129 36.5528 46.1363 36.5469Z" fill="#F99C9C"/>
<path d="M51.1431 31.3111V29.7789C43.44 29.2709 43.1765 23.6247 43.1765 23.6247C43.1765 23.6247 42.1794 31.2472 51.1431 31.3111Z" fill="#F99C9C"/>
<path d="M48.4864 56.7816C49.1724 55.3175 49.9947 53.7458 50.8387 52.2184C50.19 52.5805 49.4728 52.8028 48.733 52.8708C47.9932 52.9388 47.2475 52.8511 46.5437 52.6133C45.5678 54.636 45.0554 55.9377 45.0554 55.9377L48.4864 56.7816Z" fill="#81A2EA"/>
<path d="M46.3708 55.3015L50.3509 56.935C50.3509 56.935 50.5972 60.5887 47.8469 62.2424L44.5195 61.2787C44.1379 61.1689 43.8047 60.9332 43.5741 60.6099C43.3436 60.2865 43.2294 59.8947 43.2501 59.4981C43.3072 58.3187 43.6113 57.1645 44.1426 56.11C44.3458 55.7213 44.6873 55.4227 45.0996 55.273C45.512 55.1234 45.9655 55.1335 46.3708 55.3015Z" fill="#FFD1C0"/>
<path d="M34.5817 67.6031C34.2486 67.9204 34.0323 68.3407 33.9678 68.7962C33.9284 69.076 33.9458 69.361 34.019 69.634C34.0922 69.9069 34.2198 70.1623 34.394 70.3849C35.3923 71.6535 36.6039 72.7386 37.9745 73.5914C38.3747 73.8384 38.8359 73.969 39.3062 73.9687C39.7765 73.9699 40.2374 73.8374 40.6352 73.5867C40.7596 73.5079 40.8836 73.4236 41.0067 73.3358V73.6025C41.0067 73.7658 41.0716 73.9224 41.187 74.0378C41.3025 74.1533 41.4591 74.2181 41.6223 74.2181H62.8081C63.5703 74.2168 64.3243 74.0605 65.0242 73.7586C65.7241 73.4568 66.3553 73.0158 66.8795 72.4623C67.3955 71.9219 67.7945 71.2807 68.0514 70.579C68.3084 69.8773 68.4178 69.1302 68.3728 68.3842C68.1876 65.183 66.9637 63.0452 65.9697 61.8158C65.2201 60.8819 64.7215 59.7719 64.5213 58.5912C63.6967 53.7982 61.6894 51.1861 60.5668 50.0554C60.5549 50.0434 60.541 50.0347 60.5283 50.0237C60.2446 49.2669 59.9116 48.5295 59.5313 47.8163C63.5959 43.598 60.7978 38.0704 58.7467 35.1301C57.8731 33.8907 57.4143 32.4064 57.4363 30.8902C57.4596 28.9548 57.2913 27.0218 56.9339 25.1195C55.5771 17.7754 47.7739 17.9835 47.2707 18.0047C44.1408 18.0097 42.6473 19.6377 42.1535 20.3301C40.5911 20.494 39.3445 21.1198 38.4443 22.1928C36.6134 24.3749 36.9052 27.6254 36.9337 27.9011C36.9755 28.9065 37.3037 29.8791 37.8797 30.7043C37.7843 30.9614 37.7353 31.2335 37.7347 31.5078V32.1762C37.7355 32.7977 37.9827 33.3936 38.4223 33.8331C38.8618 34.2726 39.4577 34.5198 40.0792 34.5205H40.1964C40.3687 35.3322 40.7126 36.0977 41.2051 36.7656C40.8868 37.4143 40.3216 38.0772 39.5257 38.7337C39.3813 38.8471 35.995 41.5596 35.995 45.6762C35.995 48.1725 37.4269 49.4414 38.7345 50.0795C38.636 50.3782 38.5504 50.6754 38.4777 50.9713L29.9689 56.8032C29.5207 57.1121 29.2003 57.5735 29.0676 58.1013C28.9349 58.6292 28.9989 59.1873 29.2477 59.6713C30.7336 62.5004 32.522 65.1599 34.5817 67.6031ZM41.0067 71.602C40.9006 71.8039 40.7531 71.9811 40.5738 72.1222C40.3818 72.2738 40.1822 72.4155 39.9758 72.547C39.7723 72.673 39.5376 72.7395 39.2982 72.739C39.0589 72.7386 38.8244 72.6711 38.6214 72.5443C37.3735 71.7677 36.2705 70.7797 35.3618 69.6245C35.2894 69.5334 35.2364 69.4285 35.2062 69.3161C35.1759 69.2038 35.169 69.0865 35.1859 68.9714C35.2015 68.8595 35.2399 68.7521 35.2986 68.6556C35.3573 68.5592 35.4351 68.4757 35.5273 68.4105L36.7533 67.5363C37.0821 67.3032 37.4842 67.1968 37.8853 67.2368C38.2864 67.2768 38.6595 67.4604 38.9359 67.7538L39.9635 68.8511C39.8476 69.1511 39.808 69.4751 39.8483 69.7942C39.8886 70.1133 40.0075 70.4173 40.1943 70.6791C40.391 70.9736 40.6748 71.1992 41.006 71.3245L41.0067 71.602ZM42.238 72.9869V71.4376H55.2464L55.2728 72.987L42.238 72.9869ZM55.8611 70.2055H41.6137C41.5359 70.2052 41.4593 70.186 41.3905 70.1495C41.3218 70.113 41.2629 70.0604 41.219 69.9961C40.8424 69.4317 41.2718 68.9733 41.4067 68.8502C41.5266 68.746 41.6016 68.5996 41.616 68.4414C41.8883 65.326 41.8282 62.1904 41.4368 59.0877C41.4212 58.9799 41.3771 58.8781 41.3091 58.7929C39.2436 56.1996 38.8348 53.2171 40.0942 49.9293C40.5521 48.762 41.1571 47.6579 41.8943 46.6436C42.0045 47.173 42.13 47.7124 42.2709 48.2618V48.2657C42.8623 50.5169 43.6219 52.7206 44.5432 54.8582C44.1379 55.0802 43.8077 55.4178 43.5948 55.8281C43.0254 56.9603 42.6984 58.1989 42.6346 59.4647C42.6117 59.8717 42.6947 60.2777 42.8756 60.6431C43.0564 61.0085 43.329 61.3207 43.6666 61.5492C44.1376 61.9537 49.8463 66.7977 56.3661 70.0625C56.2144 70.1563 56.0395 70.2057 55.8611 70.2053V70.2055ZM47.7487 61.5733L44.6906 60.6875C44.442 60.6175 44.2246 60.4648 44.0743 60.2547C43.924 60.0445 43.8498 59.7895 43.8639 59.5315C43.9178 58.439 44.1988 57.3698 44.6891 56.392C44.823 56.1414 45.0451 55.9494 45.3124 55.8532C45.5797 55.7569 45.8732 55.7633 46.1361 55.871L49.736 57.3485C49.7071 58.2169 49.4556 60.3876 47.7487 61.5731V61.5733ZM56.307 65.6575L56.9897 65.9954C58.2072 66.5984 59.3572 67.1678 60.1285 67.5368C60.2993 67.6188 60.4513 67.7355 60.5746 67.8794C60.6979 68.0233 60.79 68.1913 60.8449 68.3726C60.8991 68.5471 60.9158 68.7309 60.8941 68.9123C60.8724 69.0936 60.8127 69.2683 60.719 69.425L60.6963 69.4625C60.5216 69.7265 60.259 69.92 59.9551 70.0088C59.6512 70.0976 59.3257 70.0758 59.0364 69.9474C54.2994 67.9215 49.7186 64.7177 46.9899 62.6353L47.6647 62.8307L56.307 65.6575ZM44.3586 50.9445C44.0805 50.1259 43.8026 49.2291 43.5503 48.285L44.9541 46.7952C44.7665 47.9169 44.5608 49.2994 44.3591 50.9445H44.3586ZM46.4772 45.2933L47.1565 45.9933L47.3892 49.5916C46.5333 51.1938 45.8566 52.5994 45.3735 53.6547C45.3735 51.1437 46.1544 46.9451 46.4777 45.2933H46.4772ZM46.4244 43.5058C45.9003 42.9989 45.4375 42.4321 45.0456 41.8172V39.0909C46.5328 39.3147 48.0489 38.9549 49.2769 38.0867V40.9073L46.4244 43.5058ZM46.6042 54.7319C46.5001 54.6901 46.3931 54.6557 46.2841 54.6292C48.1168 50.5412 50.3336 46.6364 52.9045 42.9674C52.992 42.8409 53.1206 42.7485 53.2685 42.706C53.4164 42.6634 53.5744 42.6733 53.7158 42.734C54.0822 42.8986 54.423 43.1153 54.7275 43.3772C54.8483 43.4828 54.9276 43.628 54.951 43.7868C54.9743 43.9455 54.9403 44.1074 54.855 44.2433C53.6185 46.203 50.572 51.1357 48.4289 55.4809L46.6042 54.7319ZM49.2238 46.3551L47.3873 44.4625C48.3839 43.7441 49.2823 42.8985 50.0596 41.9472L51.5841 42.7046C50.7243 43.9389 49.9367 45.1696 49.2238 46.3551ZM45.914 37.9228C44.6908 37.9214 43.5181 37.4348 42.6532 36.5699C41.7883 35.705 41.3018 34.5323 41.3005 33.3091V30.4068C41.3217 30.143 41.5865 27.2033 42.8737 25.0577C43.4863 26.8562 45.2857 29.8069 50.5277 30.3451V33.3091C50.5263 34.5323 50.0398 35.705 49.1748 36.5699C48.3099 37.4348 47.1372 37.9214 45.914 37.9228ZM45.5474 44.3709L43.1999 46.8621C43.0844 46.3458 42.9841 45.8403 42.8995 45.3494L44.4254 43.0891C44.7674 43.5433 45.1425 43.9717 45.5474 44.3709ZM63.3085 58.8C63.5443 60.1877 64.1307 61.4923 65.0122 62.5898C65.8927 63.6787 66.9773 65.58 67.1435 68.4551C67.1781 69.0336 67.093 69.6129 66.8935 70.1569C66.694 70.701 66.3845 71.198 65.9842 71.617C65.5753 72.0488 65.0829 72.3928 64.5369 72.6283C63.9909 72.8638 63.4027 72.9857 62.8081 72.9867H56.504L56.4762 71.3484C56.824 71.2506 57.1399 71.0629 57.3921 70.8042C57.4452 70.7483 57.4951 70.6896 57.5418 70.6283C57.8776 70.7838 58.2146 70.934 58.5528 71.0789C58.8763 71.2173 59.2245 71.2886 59.5764 71.2884C60.0075 71.2915 60.4323 71.1852 60.8111 70.9794C61.1899 70.7736 61.5104 70.4752 61.7425 70.1119L61.7757 70.0574C61.9564 69.7531 62.0718 69.4146 62.1146 69.0633C62.1573 68.712 62.1265 68.3557 62.0241 68.017C61.9196 67.6717 61.7444 67.352 61.5097 67.0781C61.2749 66.8042 60.9857 66.5822 60.6604 66.4262C60.465 66.3326 60.2439 66.2255 60.0036 66.1084C61.1402 65.4862 62.8464 63.9086 62.2684 60.1489C62.2583 57.9005 62.0125 55.6593 61.5351 53.4621C62.4141 55.1325 63.0131 56.9357 63.3085 58.8ZM56.51 58.8154C56.1276 55.68 55.6706 54.0663 55.6513 53.9993C55.6048 53.8441 55.499 53.7135 55.3569 53.6358C55.2148 53.5581 55.0478 53.5395 54.8921 53.5841C54.7363 53.6287 54.6045 53.7329 54.525 53.874C54.4456 54.0152 54.425 54.182 54.4677 54.3382C54.7708 55.5358 55.0012 56.7505 55.1576 57.9759L49.5703 55.9494C51.6376 51.7721 54.5416 47.052 55.8098 45.0373C61.1462 49.5578 61.0375 60.0733 61.0358 60.1818C61.0352 60.2175 61.0377 60.2533 61.0433 60.2886C61.6486 64.1069 59.5424 65.05 58.9718 65.2333L49.1376 62.0165C50.4992 60.6827 50.8591 58.8721 50.9463 57.7972L55.6937 59.4701C55.7923 59.4997 55.8966 59.5048 55.9976 59.4852C56.0987 59.4655 56.1934 59.4216 56.2738 59.3571C56.3541 59.2927 56.4175 59.2098 56.4587 59.1154C56.4998 59.0211 56.5174 58.9181 56.51 58.8154ZM40.0692 33.2896C39.7759 33.2867 39.4955 33.1683 39.289 32.96C39.0825 32.7517 38.9664 32.4704 38.966 32.177V31.5086C38.9664 31.2153 39.0825 30.9339 39.289 30.7256C39.4955 30.5173 39.7759 30.3988 40.0692 30.3959V33.2896ZM40.2164 29.1634C40.2164 29.1634 39.2524 29.1473 38.6605 29.6457C38.3608 29.0765 38.1904 28.4482 38.1615 27.8055C38.1615 27.7967 38.1601 27.788 38.159 27.7792C38.1558 27.7498 37.85 24.8168 39.3876 22.9841C40.1225 22.108 41.1853 21.6195 42.5465 21.5323C42.6509 21.5248 42.7518 21.4911 42.8399 21.4344C42.9279 21.3777 43.0002 21.2998 43.0503 21.2078C43.0941 21.1274 44.1593 19.236 47.2847 19.236C47.297 19.236 47.3106 19.236 47.3229 19.2348C47.6159 19.2172 54.5277 18.8738 55.7239 25.3432C56.0663 27.1655 56.2277 29.0172 56.2055 30.8712C56.1793 32.6458 56.7155 34.3832 57.7372 35.8344C59.5257 38.3993 61.9763 43.1426 58.8763 46.7081C58.1552 45.5773 57.244 44.5796 56.1828 43.7593C56.1669 43.5078 56.101 43.2619 55.9891 43.0361C55.8772 42.8103 55.7215 42.609 55.531 42.444C55.1368 42.1047 54.6956 41.8241 54.2211 41.6111C53.9346 41.4841 53.621 41.4305 53.3085 41.4551C52.9961 41.4796 52.6947 41.5816 52.4316 41.7518L50.5085 40.7965L50.4684 36.9673C51.0428 36.255 51.4413 35.4174 51.6316 34.5224H52.0076C52.6292 34.5217 53.2251 34.2745 53.6646 33.835C54.1041 33.3955 54.3514 32.7996 54.3521 32.1781V31.5097C54.3521 29.0447 51.1685 29.1654 51.1685 29.1654C44.1565 28.6935 43.8031 23.8033 43.7915 23.5945C43.7853 23.4738 43.7438 23.3576 43.6721 23.2603C43.6004 23.1631 43.5017 23.0891 43.3882 23.0475C43.2747 23.006 43.1515 22.9988 43.034 23.0268C42.9164 23.0548 42.8097 23.1168 42.7271 23.205C41.1144 24.9279 40.466 27.6238 40.2164 29.1634ZM51.7589 33.2901V30.3947C51.7589 30.3947 53.1209 30.3947 53.1209 31.5078V32.1762C53.1205 32.4713 53.0031 32.7542 52.7944 32.9629C52.5857 33.1715 52.3028 33.2889 52.0076 33.2892L51.7589 33.2901ZM37.2262 45.6771C37.2262 42.168 40.2572 39.7257 40.2979 39.6933C40.9985 39.1385 41.6023 38.4713 42.0844 37.7187C42.5963 38.1642 43.1818 38.5173 43.8147 38.7621V41.9472C43.8147 41.9472 40.4215 45.8406 39.1758 48.9232C37.8825 48.2548 37.2262 47.1651 37.2262 45.6771ZM30.6654 57.8192L38.1959 52.6583C37.9868 55.0981 38.6731 57.3946 40.2405 59.424C40.5613 62.1269 40.6319 64.8536 40.4516 67.5695L39.836 66.9124C39.3554 66.4018 38.7063 66.0823 38.0086 66.0128C37.3109 65.9432 36.6116 66.1283 36.0397 66.5338L35.572 66.868C33.5519 64.4795 31.7984 61.8778 30.3426 59.109C30.2303 58.8916 30.2011 58.6407 30.2604 58.4033C30.3197 58.1659 30.4635 57.9582 30.6649 57.8192H30.6654Z" fill="#3C3C4F"/>
</svg>
