<svg width="96" height="96" viewBox="0 0 96 96" fill="none" xmlns="http://www.w3.org/2000/svg">
<rect y="0.000244141" width="96" height="96" rx="15" fill="#131C73"/>
<path d="M29.8012 21.0009C29.6209 20.9964 29.4407 21.0165 29.2659 21.0608C26.8998 21.6657 25.4365 23.4324 25.0955 25.5039C24.7546 27.5754 25.3458 29.9123 26.5592 32.194C28.9489 36.6874 33.8643 41.0553 40.1679 42.0635C39.5201 41.2909 38.8919 40.4257 38.2887 39.4912C33.7843 38.0461 30.2032 34.6232 28.3961 31.2255C27.3331 29.2267 26.9128 27.2603 27.1467 25.8387C27.3808 24.4171 28.0788 23.5006 29.7827 23.0649C29.7903 23.0629 29.7906 23.061 29.7934 23.0588C29.8055 23.0496 29.7859 23.0424 29.7934 23.0588C29.7959 23.0644 29.8004 23.0714 29.8137 23.0837C29.8745 23.1404 30.0087 23.3413 30.0685 23.6747C30.1882 24.3419 30.0209 25.4673 29.1292 26.6269L30.7796 27.8848C31.9826 26.3202 32.3558 24.656 32.1145 23.311C31.9939 22.6385 31.7223 22.0275 31.2337 21.5723C30.8672 21.231 30.3391 21.0128 29.8012 21.0009ZM66.1987 21.0009C65.6609 21.0128 65.1329 21.2311 64.7663 21.5725C64.2776 22.0277 64.006 22.6386 63.8854 23.3111C63.6441 24.6561 64.0174 26.3202 65.2202 27.8849L66.8708 26.627C65.9791 25.4674 65.8118 24.342 65.9314 23.6748C65.9912 23.3414 66.1254 23.1405 66.1863 23.0839C66.1947 23.077 66.2016 23.0685 66.2066 23.0589C66.2141 23.0425 66.1945 23.0497 66.2066 23.0589C66.2094 23.0611 66.2097 23.0631 66.2172 23.065C67.9211 23.5007 68.6192 24.417 68.8532 25.8387C69.0872 27.2603 68.6669 29.2267 67.6038 31.2255C65.7968 34.6232 62.2156 38.0462 57.7113 39.4912C57.1081 40.4257 56.4797 41.2909 55.8321 42.0635C62.1357 41.0553 67.0511 36.6874 69.4408 32.194C70.6542 29.9123 71.2454 27.5754 70.9045 25.5039C70.5635 23.4323 69.1001 21.6657 66.7341 21.0608C66.5592 21.0165 66.3791 20.9964 66.1987 21.0009ZM34.3091 21.8876C34.5569 26.0875 36.2444 31.4375 38.5281 35.7778C39.7645 38.1279 41.1696 40.1848 42.542 41.6047C43.9146 43.0247 45.2286 43.7303 46.1524 43.7303H49.8476C50.7713 43.7303 52.0854 43.0247 53.4579 41.6047C54.8303 40.1848 56.2355 38.1279 57.4719 35.7778C59.7556 31.4374 61.443 26.0876 61.6909 21.8876H34.3091ZM45.3441 45.7998V47.6392H50.6559V45.7998H45.3441ZM46.0883 49.7085C45.8045 52.6937 44.6107 56.3617 43.2665 58.4456H52.7335C51.3893 56.3617 50.1955 52.6937 49.9116 49.7085H46.0883ZM41.649 60.515V62.1244H54.351V60.515H41.649ZM37.9538 64.1938V75.0002H58.0461V64.1938H37.9538ZM40.6097 66.8379H55.3903V72.3561H40.6097V66.8379Z" fill="white"/>
</svg>
