<svg width="96" height="96" viewBox="0 0 96 96" fill="none" xmlns="http://www.w3.org/2000/svg">
<rect y="0.000244141" width="96" height="96" rx="15" fill="#131C73"/>
<path d="M48.8422 24.013C44.5975 24.013 40.7561 24.2784 37.9318 24.7169C36.5198 24.9361 35.3671 25.1925 34.4996 25.5109C34.0659 25.67 33.7022 25.838 33.3857 26.0781C33.0843 26.3068 32.7667 26.67 32.7369 27.1717H32.6671C32.6671 28.1099 32.7008 29.0353 32.7662 29.9466H30.3547C30.3436 29.2065 30.355 28.4647 30.3897 27.7244L27.8942 27.1399C27.0989 37.0686 30.9663 46.7322 38.0833 53.6142L39.5404 50.8597C39.1497 50.5361 38.7725 50.2023 38.4089 49.8591C38.953 49.2902 39.5531 48.7645 40.2034 48.2914C41.4569 49.5174 42.8265 50.4848 44.2814 51.1447C46.3397 52.7962 45.0309 53.8782 42.0941 54.5187C47.5728 55.5053 45.7192 60.3143 40.7793 63.1109C40.5802 63.1361 40.3832 63.1596 40.1948 63.1865C39.0735 63.3464 38.1587 63.5318 37.4578 63.7682C37.1074 63.8865 36.8102 64.0102 36.5358 64.2016C36.2612 64.3929 35.9191 64.7326 35.9191 65.2632C35.9191 65.794 36.2613 66.1307 36.5358 66.322C36.8102 66.5133 37.1073 66.6372 37.4578 66.7555C38.1587 66.9919 39.0736 67.1773 40.1948 67.3372C42.4374 67.657 45.4801 67.8519 48.8422 67.8519C52.2044 67.8519 55.247 67.657 57.4896 67.3372C58.611 67.1773 59.5259 66.9919 60.2267 66.7555C60.5771 66.6372 60.8743 66.5133 61.1487 66.3221C61.4231 66.1308 61.7653 65.794 61.7653 65.2633C61.7653 64.7326 61.4231 64.3929 61.1487 64.2016C60.8743 64.0103 60.5772 63.8864 60.2266 63.7682C59.5258 63.5318 58.6108 63.3464 57.4894 63.1865C57.3021 63.1598 57.106 63.1359 56.9077 63.1108C51.9676 60.3143 50.114 55.5055 55.593 54.5187C52.6548 53.8778 51.3459 52.7948 53.4087 51.1419C54.8737 50.4764 56.2519 49.4986 57.5126 48.2593C58.1314 48.7036 58.7077 49.1936 59.2318 49.7225C58.8497 50.1108 58.4557 50.491 58.0478 50.8596L59.5545 53.6141C66.9186 46.9168 70.3696 36.904 69.7958 27.0872L67.2509 27.829C67.2928 28.5373 67.3105 29.2429 67.3032 29.9465H64.921C64.9863 29.0351 65.0199 28.1097 65.0199 27.1715H64.9501C64.9201 26.6699 64.5999 26.3066 64.2986 26.0779C63.9819 25.8377 63.6182 25.6699 63.1844 25.5108C62.317 25.1923 61.1643 24.9358 59.7522 24.7166C56.9281 24.2782 53.0867 24.0127 48.8418 24.0127L48.8422 24.013ZM48.8422 25.7524C53.0141 25.7524 56.7934 26.018 59.485 26.4359C60.8309 26.6448 61.9106 26.8949 62.5857 27.1427C62.6825 27.1782 62.7509 27.2125 62.83 27.2474C62.7509 27.2823 62.6829 27.3165 62.5857 27.3521C61.9107 27.5999 60.8308 27.8529 59.485 28.0618C56.7934 28.4797 53.0141 28.7454 48.8422 28.7454C44.6705 28.7454 40.8911 28.4796 38.1994 28.0617C36.8536 27.8528 35.7739 27.5998 35.0989 27.352C35.0011 27.3161 34.9341 27.2824 34.8545 27.2473C34.9339 27.2123 35.0013 27.1784 35.0989 27.1426C35.7739 26.8948 36.8536 26.6446 38.1995 26.4358C40.8911 26.0179 44.6704 25.7524 48.8422 25.7524ZM30.4828 32.4422H33.0279C33.7778 37.8293 35.6555 42.5718 38.2577 46.0547C37.6086 46.589 37.0098 47.1686 36.4718 47.7941C32.8745 43.4701 30.9763 38.0539 30.4828 32.4422ZM64.6595 32.4422H67.1726C66.6529 37.9927 64.589 43.2534 61.1167 47.5963C60.6103 47.0327 60.055 46.5045 59.456 46.0168C62.0444 42.5376 63.9118 37.8098 64.6595 32.4423V32.4422Z" fill="white"/>
</svg>
