<svg width="96" height="96" viewBox="0 0 96 96" fill="none" xmlns="http://www.w3.org/2000/svg">
<rect width="96" height="96" rx="15" fill="#131C73"/>
<path d="M48.8422 24.0128C44.5974 24.0128 40.7561 24.2782 37.9317 24.7167C36.5198 24.9359 35.3671 25.1924 34.4996 25.5107C34.0659 25.6698 33.7021 25.8378 33.3857 26.0779C33.0843 26.3066 32.7667 26.6699 32.7369 27.1715H32.6671C32.6671 28.1098 32.7008 29.0351 32.7661 29.9464H30.3547C30.3435 29.2063 30.355 28.4645 30.3897 27.7242L27.8941 27.1397C27.0989 37.0684 30.9662 46.732 38.0833 53.614L39.5404 50.8595C39.1496 50.5359 38.7725 50.2021 38.4088 49.8589C38.953 49.2901 39.553 48.7644 40.2034 48.2912C41.4569 49.5173 42.8265 50.4846 44.2813 51.1445C46.3396 52.7961 45.0309 53.878 42.094 54.5186C47.5728 55.5052 45.7192 60.3142 40.7793 63.1108C40.5801 63.1359 40.3832 63.1594 40.1948 63.1863C39.0735 63.3462 38.1587 63.5317 37.4578 63.7681C37.1073 63.8863 36.8102 64.0101 36.5358 64.2014C36.2612 64.3927 35.919 64.7324 35.919 65.2631C35.919 65.7938 36.2613 66.1305 36.5358 66.3218C36.8102 66.5131 37.1073 66.6371 37.4578 66.7553C38.1587 66.9917 39.0736 67.1771 40.1948 67.337C42.4374 67.6568 45.4801 67.8517 48.8422 67.8517C52.2044 67.8517 55.247 67.6568 57.4896 67.337C58.611 67.1771 59.5258 66.9917 60.2267 66.7553C60.5771 66.6371 60.8743 66.5131 61.1486 66.3219C61.423 66.1306 61.7653 65.7938 61.7653 65.2632C61.7653 64.7324 61.423 64.3927 61.1486 64.2014C60.8743 64.0102 60.5771 63.8862 60.2266 63.7681C59.5258 63.5317 58.6108 63.3462 57.4894 63.1863C57.3021 63.1596 57.1059 63.1357 56.9077 63.1107C51.9675 60.3142 50.114 55.5054 55.593 54.5186C52.6547 53.8776 51.3459 52.7946 53.4086 51.1417C54.8737 50.4762 56.2519 49.4985 57.5126 48.2591C58.1314 48.7034 58.7077 49.1934 59.2317 49.7223C58.8496 50.1106 58.4556 50.4908 58.0478 50.8594L59.5545 53.6139C66.9186 46.9166 70.3696 36.9038 69.7958 27.087L67.2509 27.8289C67.2927 28.5372 67.3104 29.2427 67.3032 29.9463H64.921C64.9863 29.0349 65.0199 28.1095 65.0199 27.1714H64.9501C64.92 26.6697 64.5998 26.3064 64.2986 26.0777C63.9819 25.8376 63.6182 25.6697 63.1844 25.5106C62.3169 25.1921 61.1643 24.9356 59.7522 24.7165C56.9281 24.2781 53.0867 24.0125 48.8417 24.0125L48.8422 24.0128ZM48.8422 25.7522C53.0141 25.7522 56.7934 26.0179 59.485 26.4357C60.8309 26.6446 61.9106 26.8947 62.5857 27.1425C62.6825 27.1781 62.7509 27.2123 62.83 27.2472C62.7509 27.2821 62.6829 27.3163 62.5857 27.3519C61.9107 27.5997 60.8308 27.8527 59.485 28.0616C56.7934 28.4796 53.0141 28.7452 48.8422 28.7452C44.6705 28.7452 40.8911 28.4795 38.1994 28.0615C36.8535 27.8526 35.7738 27.5996 35.0988 27.3518C35.0011 27.3159 34.9341 27.2822 34.8545 27.2471C34.9339 27.2121 35.0013 27.1782 35.0988 27.1424C35.7738 26.8946 36.8536 26.6444 38.1995 26.4356C40.8911 26.0177 44.6704 25.7522 48.8422 25.7522ZM30.4828 32.442H33.0279C33.7778 37.8291 35.6554 42.5716 38.2577 46.0545C37.6086 46.5888 37.0098 47.1685 36.4717 47.7939C32.8745 43.47 30.9763 38.0537 30.4828 32.442ZM64.6595 32.442H67.1726C66.6528 37.9925 64.589 43.2532 61.1166 47.5961C60.6103 47.0326 60.055 46.5044 59.4559 46.0166C62.0444 42.5374 63.9118 37.8096 64.6595 32.4421V32.442Z" fill="white"/>
</svg>
