<svg width="96" height="96" viewBox="0 0 96 96" fill="none" xmlns="http://www.w3.org/2000/svg">
<rect width="96" height="96" rx="15" fill="#131C73"/>
<path d="M29.8012 21.0006C29.6209 20.9961 29.4408 21.0163 29.2659 21.0605C26.8999 21.6654 25.4365 23.4322 25.0955 25.5037C24.7546 27.5752 25.3458 29.912 26.5592 32.1937C28.9489 36.6871 33.8643 41.055 40.1679 42.0632C39.5201 41.2907 38.892 40.4255 38.2887 39.491C33.7844 38.0459 30.2032 34.623 28.3962 31.2253C27.3331 29.2264 26.9128 27.2601 27.1467 25.8385C27.3808 24.4168 28.0788 23.5004 29.7828 23.0647C29.7903 23.0627 29.7906 23.0607 29.7934 23.0586C29.8055 23.0494 29.7859 23.0421 29.7934 23.0586C29.7959 23.0642 29.8004 23.0712 29.8137 23.0835C29.8746 23.1402 30.0087 23.341 30.0686 23.6744C30.1882 24.3417 30.0209 25.467 29.1292 26.6266L30.7796 27.8846C31.9826 26.3199 32.3558 24.6557 32.1145 23.3108C31.994 22.6383 31.7224 22.0272 31.2337 21.5721C30.8672 21.2308 30.3391 21.0126 29.8012 21.0006ZM66.1988 21.0006C65.6609 21.0126 65.1329 21.2309 64.7663 21.5722C64.2776 22.0275 64.006 22.6384 63.8854 23.3109C63.6442 24.6558 64.0174 26.3199 65.2202 27.8847L66.8708 26.6268C65.9791 25.4671 65.8118 24.3418 65.9314 23.6745C65.9913 23.3411 66.1254 23.1403 66.1863 23.0836C66.1947 23.0768 66.2016 23.0683 66.2066 23.0587C66.2141 23.0422 66.1945 23.0495 66.2066 23.0587C66.2094 23.0609 66.2097 23.0628 66.2172 23.0648C67.9212 23.5005 68.6192 24.4167 68.8533 25.8385C69.0872 27.2601 68.6669 29.2264 67.6038 31.2253C65.7968 34.623 62.2156 38.046 57.7113 39.491C57.1082 40.4255 56.4798 41.2907 55.8321 42.0632C62.1357 41.055 67.0511 36.6871 69.4408 32.1937C70.6542 29.912 71.2454 27.5752 70.9045 25.5037C70.5635 23.4321 69.1001 21.6654 66.7341 21.0605C66.5592 21.0163 66.3791 20.9961 66.1988 21.0006ZM34.3091 21.8873C34.5569 26.0872 36.2444 31.4373 38.5281 35.7775C39.7645 38.1276 41.1697 40.1845 42.5421 41.6044C43.9146 43.0244 45.2286 43.7301 46.1524 43.7301H49.8476C50.7713 43.7301 52.0854 43.0244 53.4579 41.6044C54.8303 40.1845 56.2355 38.1276 57.4719 35.7775C59.7556 31.4371 61.443 26.0874 61.6909 21.8873H34.3091ZM45.3441 45.7995V47.6389H50.6559V45.7995H45.3441ZM46.0883 49.7082C45.8045 52.6935 44.6108 56.3615 43.2665 58.4454H52.7335C51.3894 56.3615 50.1955 52.6935 49.9117 49.7082H46.0883ZM41.649 60.5147V62.1242H54.351V60.5147H41.649ZM37.9539 64.1935V75H58.0461V64.1935H37.9539ZM40.6097 66.8377H55.3903V72.3559H40.6097V66.8377Z" fill="white"/>
</svg>
