<svg width="97" height="96" viewBox="0 0 97 96" fill="none" xmlns="http://www.w3.org/2000/svg">
<rect x="0.220581" y="0.000488281" width="96" height="96" rx="15" fill="#131C73"/>
<path d="M13.9006 44.4545H17.4091V53.8366C17.4091 54.9209 17.151 55.8655 16.6349 56.6705C16.1188 57.4706 15.3991 58.0909 14.4759 58.5312C13.5526 58.9669 12.4801 59.1847 11.2585 59.1847C10.0227 59.1847 8.94318 58.9669 8.01989 58.5312C7.09659 58.0909 6.37926 57.4706 5.8679 56.6705C5.35653 55.8655 5.10085 54.9209 5.10085 53.8366V44.4545H8.61648V53.5312C8.61648 54.0331 8.72538 54.4806 8.94318 54.8736C9.16572 55.2666 9.47585 55.5743 9.87358 55.7969C10.2713 56.0194 10.733 56.1307 11.2585 56.1307C11.7841 56.1307 12.2434 56.0194 12.6364 55.7969C13.0341 55.5743 13.3442 55.2666 13.5668 54.8736C13.7893 54.4806 13.9006 54.0331 13.9006 53.5312V44.4545ZM31.9918 44.4545V59H29.0089L23.2205 50.6051H23.1282V59H19.6126V44.4545H22.6381L28.3626 52.8352H28.4833V44.4545H31.9918ZM37.3487 59H33.5703L38.478 44.4545H43.1584L48.0661 59H44.2876L40.8714 48.1193H40.7578L37.3487 59ZM36.8445 53.2756H44.7422V55.946H36.8445V53.2756ZM47.4233 44.4545H51.3509L54.4261 50.5412H54.554L57.6293 44.4545H61.5568L56.2372 54.142V59H52.7429V54.142L47.4233 44.4545ZM75.8022 51.7273C75.8022 53.3277 75.4944 54.6842 74.8789 55.7969C74.2634 56.9096 73.43 57.7547 72.3789 58.3324C71.3325 58.91 70.1583 59.1989 68.8562 59.1989C67.5494 59.1989 66.3728 58.9077 65.3263 58.3253C64.2799 57.7429 63.449 56.8977 62.8335 55.7898C62.2227 54.6771 61.9173 53.3229 61.9173 51.7273C61.9173 50.1269 62.2227 48.7704 62.8335 47.6577C63.449 46.545 64.2799 45.6998 65.3263 45.1222C66.3728 44.5445 67.5494 44.2557 68.8562 44.2557C70.1583 44.2557 71.3325 44.5445 72.3789 45.1222C73.43 45.6998 74.2634 46.545 74.8789 47.6577C75.4944 48.7704 75.8022 50.1269 75.8022 51.7273ZM72.2085 51.7273C72.2085 50.7803 72.0735 49.9801 71.8036 49.3267C71.5385 48.6733 71.1549 48.1785 70.6531 47.8423C70.1559 47.5062 69.5569 47.3381 68.8562 47.3381C68.1602 47.3381 67.5612 47.5062 67.0593 47.8423C66.5574 48.1785 66.1715 48.6733 65.9016 49.3267C65.6365 49.9801 65.5039 50.7803 65.5039 51.7273C65.5039 52.6742 65.6365 53.4744 65.9016 54.1278C66.1715 54.7812 66.5574 55.276 67.0593 55.6122C67.5612 55.9484 68.1602 56.1165 68.8562 56.1165C69.5569 56.1165 70.1559 55.9484 70.6531 55.6122C71.1549 55.276 71.5385 54.7812 71.8036 54.1278C72.0735 53.4744 72.2085 52.6742 72.2085 51.7273ZM77.8548 59V44.4545H87.9968V47.3097H81.3704V50.2926H87.4783V53.1548H81.3704V56.1449H87.9968V59H77.8548Z" fill="white"/>
</svg>
