<svg width="96" height="96" viewBox="0 0 96 96" fill="none" xmlns="http://www.w3.org/2000/svg">
<rect width="96" height="96" rx="15" fill="#131C73"/>
<path d="M25.4254 43.0909H28.0568V50.1275C28.0568 50.9407 27.8633 51.6491 27.4762 52.2528C27.0891 52.853 26.5494 53.3182 25.8569 53.6484C25.1644 53.9751 24.3601 54.1385 23.4439 54.1385C22.517 54.1385 21.7074 53.9751 21.0149 53.6484C20.3224 53.3182 19.7844 52.853 19.4009 52.2528C19.0174 51.6491 18.8256 50.9407 18.8256 50.1275V43.0909H21.4624V49.8984C21.4624 50.2749 21.544 50.6104 21.7074 50.9052C21.8743 51.1999 22.1069 51.4308 22.4052 51.5977C22.7035 51.7646 23.0497 51.848 23.4439 51.848C23.8381 51.848 24.1825 51.7646 24.4773 51.5977C24.7756 51.4308 25.0082 51.1999 25.1751 50.9052C25.342 50.6104 25.4254 50.2749 25.4254 49.8984V43.0909ZM38.9939 43.0909V54H36.7567L32.4154 47.7038H32.3461V54H29.7094V43.0909H31.9786L36.2719 49.3764H36.3625V43.0909H38.9939ZM43.0115 54H40.1777L43.8585 43.0909H47.3688L51.0495 54H48.2157L45.6536 45.8395H45.5684L43.0115 54ZM42.6333 49.7067H48.5566V51.7095H42.6333V49.7067ZM50.5675 43.0909H53.5131L55.8196 47.6559H55.9155L58.2219 43.0909H61.1676L57.1779 50.3565V54H54.5572V50.3565L50.5675 43.0909ZM71.8517 48.5455C71.8517 49.7457 71.6208 50.7631 71.1592 51.5977C70.6975 52.4322 70.0725 53.0661 69.2842 53.4993C68.4994 53.9325 67.6187 54.1491 66.6421 54.1491C65.662 54.1491 64.7796 53.9308 63.9948 53.494C63.21 53.0572 62.5867 52.4233 62.1251 51.5923C61.667 50.7578 61.4379 49.7422 61.4379 48.5455C61.4379 47.3452 61.667 46.3278 62.1251 45.4933C62.5867 44.6587 63.21 44.0249 63.9948 43.5916C64.7796 43.1584 65.662 42.9418 66.6421 42.9418C67.6187 42.9418 68.4994 43.1584 69.2842 43.5916C70.0725 44.0249 70.6975 44.6587 71.1592 45.4933C71.6208 46.3278 71.8517 47.3452 71.8517 48.5455ZM69.1563 48.5455C69.1563 47.8352 69.0551 47.2351 68.8527 46.745C68.6539 46.255 68.3662 45.8839 67.9898 45.6317C67.6169 45.3796 67.1677 45.2536 66.6421 45.2536C66.1201 45.2536 65.6709 45.3796 65.2945 45.6317C64.9181 45.8839 64.6286 46.255 64.4262 46.745C64.2274 47.2351 64.1279 47.8352 64.1279 48.5455C64.1279 49.2557 64.2274 49.8558 64.4262 50.3459C64.6286 50.8359 64.9181 51.207 65.2945 51.4592C65.6709 51.7113 66.1201 51.8374 66.6421 51.8374C67.1677 51.8374 67.6169 51.7113 67.9898 51.4592C68.3662 51.207 68.6539 50.8359 68.8527 50.3459C69.0551 49.8558 69.1563 49.2557 69.1563 48.5455ZM73.3911 54V43.0909H80.9976V45.2322H76.0278V47.4695H80.6088V49.6161H76.0278V51.8587H80.9976V54H73.3911Z" fill="white"/>
</svg>
