<svg width="96" height="96" viewBox="0 0 96 96" fill="none" xmlns="http://www.w3.org/2000/svg">
<rect y="0.000488281" width="96" height="96" rx="15" fill="#131C73"/>
<path d="M18.9006 42.4545H22.4091V51.8366C22.4091 52.9209 22.151 53.8655 21.6349 54.6705C21.1188 55.4706 20.3991 56.0909 19.4759 56.5312C18.5526 56.9669 17.4801 57.1847 16.2585 57.1847C15.0227 57.1847 13.9432 56.9669 13.0199 56.5312C12.0966 56.0909 11.3793 55.4706 10.8679 54.6705C10.3565 53.8655 10.1009 52.9209 10.1009 51.8366V42.4545H13.6165V51.5312C13.6165 52.0331 13.7254 52.4806 13.9432 52.8736C14.1657 53.2666 14.4759 53.5743 14.8736 53.7969C15.2713 54.0194 15.733 54.1307 16.2585 54.1307C16.7841 54.1307 17.2434 54.0194 17.6364 53.7969C18.0341 53.5743 18.3442 53.2666 18.5668 52.8736C18.7893 52.4806 18.9006 52.0331 18.9006 51.5312V42.4545ZM32.4748 46.8153C32.4274 46.2945 32.2167 45.8897 31.8427 45.6009C31.4734 45.3073 30.9454 45.1605 30.2589 45.1605C29.8043 45.1605 29.4255 45.2197 29.1225 45.3381C28.8195 45.4564 28.5922 45.6198 28.4407 45.8281C28.2892 46.0317 28.2111 46.2661 28.2063 46.5312C28.1969 46.7491 28.2395 46.9408 28.3342 47.1065C28.4336 47.2723 28.5756 47.419 28.7603 47.5469C28.9497 47.67 29.177 47.7789 29.4421 47.8736C29.7073 47.9683 30.0056 48.0511 30.337 48.1222L31.587 48.4062C32.3067 48.5625 32.9412 48.7708 33.4904 49.0312C34.0444 49.2917 34.5084 49.6018 34.8825 49.9616C35.2612 50.3215 35.5477 50.7358 35.7418 51.2045C35.936 51.6733 36.0354 52.1989 36.0401 52.7812C36.0354 53.6998 35.8034 54.4882 35.3441 55.1463C34.8848 55.8045 34.2243 56.3087 33.3626 56.6591C32.5056 57.0095 31.471 57.1847 30.2589 57.1847C29.042 57.1847 27.9814 57.0024 27.0771 56.6378C26.1727 56.2732 25.4696 55.7192 24.9677 54.9759C24.4658 54.2325 24.2077 53.2926 24.1935 52.1562H27.56C27.5884 52.625 27.7139 53.0156 27.9364 53.3281C28.159 53.6406 28.4644 53.8774 28.8526 54.0384C29.2456 54.1993 29.7002 54.2798 30.2163 54.2798C30.6897 54.2798 31.0922 54.2159 31.4237 54.0881C31.7598 53.9602 32.0179 53.7827 32.1978 53.5554C32.3777 53.3281 32.4701 53.0677 32.4748 52.7741C32.4701 52.4995 32.3848 52.2652 32.2191 52.071C32.0534 51.8722 31.7977 51.7017 31.4521 51.5597C31.1112 51.4129 30.6755 51.2779 30.1452 51.1548L28.6254 50.7997C27.3659 50.5109 26.3739 50.0445 25.6495 49.4006C24.9251 48.7519 24.5652 47.8759 24.57 46.7727C24.5652 45.8731 24.8067 45.0848 25.2944 44.4077C25.7821 43.7306 26.4568 43.2027 27.3185 42.8239C28.1803 42.4451 29.1628 42.2557 30.266 42.2557C31.3929 42.2557 32.3706 42.4474 33.1992 42.831C34.0326 43.2098 34.6789 43.7424 35.1381 44.429C35.5974 45.1155 35.8318 45.911 35.8413 46.8153H32.4748ZM47.3612 47.206C47.2807 46.9077 47.1623 46.6449 47.006 46.4176C46.8498 46.1856 46.658 45.9891 46.4308 45.8281C46.2035 45.6671 45.9431 45.5464 45.6495 45.4659C45.3559 45.3807 45.034 45.3381 44.6836 45.3381C43.9781 45.3381 43.3673 45.5085 42.8512 45.8494C42.3398 46.1903 41.9445 46.6875 41.6651 47.3409C41.3858 47.9896 41.2461 48.7779 41.2461 49.706C41.2461 50.6387 41.381 51.4342 41.6509 52.0923C41.9208 52.7505 42.3114 53.2524 42.8228 53.598C43.3342 53.9437 43.9544 54.1165 44.6836 54.1165C45.3275 54.1165 45.872 54.0123 46.3171 53.804C46.7669 53.5909 47.1078 53.2902 47.3398 52.902C47.5719 52.5137 47.6879 52.0568 47.6879 51.5312L48.3413 51.6094H44.8043V49.0455H51.0756V50.9702C51.0756 52.2723 50.7987 53.3873 50.2447 54.3153C49.6954 55.2434 48.9379 55.956 47.9719 56.4531C47.0108 56.9503 45.9052 57.1989 44.6552 57.1989C43.2679 57.1989 42.0487 56.8982 40.9975 56.2969C39.9464 55.6955 39.1272 54.8385 38.5401 53.7259C37.953 52.6084 37.6594 51.2827 37.6594 49.7486C37.6594 48.5554 37.837 47.4972 38.1921 46.5739C38.5472 45.6458 39.042 44.8598 39.6765 44.2159C40.3157 43.572 41.0543 43.0843 41.8924 42.7528C42.7352 42.4214 43.6419 42.2557 44.6126 42.2557C45.4554 42.2557 46.239 42.3764 46.9634 42.6179C47.6926 42.8594 48.3365 43.2003 48.8952 43.6406C49.4587 44.081 49.9156 44.6042 50.266 45.2102C50.6164 45.8163 50.8342 46.4815 50.9194 47.206H47.3612ZM66.8764 49.7273C66.8764 51.3277 66.5687 52.6842 65.9531 53.7969C65.3376 54.9096 64.5043 55.7547 63.4531 56.3324C62.4067 56.91 61.2325 57.1989 59.9304 57.1989C58.6236 57.1989 57.447 56.9077 56.4006 56.3253C55.3542 55.7429 54.5232 54.8977 53.9077 53.7898C53.2969 52.6771 52.9915 51.3229 52.9915 49.7273C52.9915 48.1269 53.2969 46.7704 53.9077 45.6577C54.5232 44.545 55.3542 43.6998 56.4006 43.1222C57.447 42.5445 58.6236 42.2557 59.9304 42.2557C61.2325 42.2557 62.4067 42.5445 63.4531 43.1222C64.5043 43.6998 65.3376 44.545 65.9531 45.6577C66.5687 46.7704 66.8764 48.1269 66.8764 49.7273ZM63.2827 49.7273C63.2827 48.7803 63.1477 47.9801 62.8778 47.3267C62.6127 46.6733 62.2292 46.1785 61.7273 45.8423C61.2301 45.5062 60.6312 45.3381 59.9304 45.3381C59.2344 45.3381 58.6354 45.5062 58.1335 45.8423C57.6316 46.1785 57.2457 46.6733 56.9759 47.3267C56.7107 47.9801 56.5781 48.7803 56.5781 49.7273C56.5781 50.6742 56.7107 51.4744 56.9759 52.1278C57.2457 52.7812 57.6316 53.276 58.1335 53.6122C58.6354 53.9484 59.2344 54.1165 59.9304 54.1165C60.6312 54.1165 61.2301 53.9484 61.7273 53.6122C62.2292 53.276 62.6127 52.7812 62.8778 52.1278C63.1477 51.4744 63.2827 50.6742 63.2827 49.7273ZM68.929 42.4545H73.2827L76.9759 51.4602H77.1463L80.8395 42.4545H85.1932V57H81.7699V48.0653H81.6491L78.1548 56.9077H75.9673L72.473 48.0156H72.3523V57H68.929V42.4545Z" fill="white"/>
</svg>
