<svg width="96" height="96" viewBox="0 0 96 96" fill="none" xmlns="http://www.w3.org/2000/svg">
<rect width="96" height="96" rx="15" fill="#131C73"/>
<path d="M25.4254 43.0909H28.0568V50.1275C28.0568 50.9407 27.8633 51.6491 27.4762 52.2528C27.0891 52.853 26.5494 53.3182 25.8569 53.6484C25.1644 53.9751 24.3601 54.1385 23.4439 54.1385C22.517 54.1385 21.7074 53.9751 21.0149 53.6484C20.3224 53.3182 19.7844 52.853 19.4009 52.2528C19.0174 51.6491 18.8256 50.9407 18.8256 50.1275V43.0909H21.4624V49.8984C21.4624 50.2749 21.544 50.6104 21.7074 50.9052C21.8743 51.1999 22.1069 51.4308 22.4052 51.5977C22.7035 51.7646 23.0497 51.848 23.4439 51.848C23.8381 51.848 24.1825 51.7646 24.4773 51.5977C24.7756 51.4308 25.0082 51.1999 25.1751 50.9052C25.342 50.6104 25.4254 50.2749 25.4254 49.8984V43.0909ZM35.6061 46.3615C35.5706 45.9709 35.4126 45.6673 35.132 45.4506C34.855 45.2305 34.4591 45.1204 33.9442 45.1204C33.6032 45.1204 33.3192 45.1648 33.0919 45.2536C32.8646 45.3423 32.6942 45.4648 32.5805 45.6211C32.4669 45.7738 32.4083 45.9496 32.4047 46.1484C32.3976 46.3118 32.4296 46.4556 32.5006 46.5799C32.5752 46.7042 32.6817 46.8143 32.8202 46.9102C32.9623 47.0025 33.1327 47.0842 33.3316 47.1552C33.5305 47.2262 33.7542 47.2884 34.0028 47.3416L34.9403 47.5547C35.48 47.6719 35.9559 47.8281 36.3678 48.0234C36.7833 48.2188 37.1313 48.4513 37.4118 48.7212C37.6959 48.9911 37.9108 49.3018 38.0564 49.6534C38.202 50.005 38.2765 50.3991 38.2801 50.8359C38.2765 51.5249 38.1025 52.1161 37.7581 52.6097C37.4136 53.1033 36.9182 53.4815 36.2719 53.7443C35.6292 54.0071 34.8532 54.1385 33.9442 54.1385C33.0315 54.1385 32.2361 54.0018 31.5578 53.7283C30.8795 53.4549 30.3522 53.0394 29.9758 52.4819C29.5993 51.9244 29.4058 51.2195 29.3952 50.3672H31.92C31.9413 50.7188 32.0354 51.0117 32.2023 51.2461C32.3692 51.4805 32.5983 51.658 32.8895 51.7788C33.1842 51.8995 33.5251 51.9599 33.9122 51.9599C34.2673 51.9599 34.5692 51.9119 34.8177 51.8161C35.0699 51.7202 35.2634 51.587 35.3983 51.4165C35.5333 51.2461 35.6025 51.0508 35.6061 50.8306C35.6025 50.6246 35.5386 50.4489 35.4143 50.3033C35.29 50.1541 35.0983 50.0263 34.839 49.9197C34.5834 49.8097 34.2567 49.7085 33.8589 49.6161L32.719 49.3498C31.7744 49.1332 31.0305 48.7834 30.4871 48.3004C29.9438 47.8139 29.6739 47.157 29.6775 46.3295C29.6739 45.6548 29.855 45.0636 30.2208 44.5558C30.5866 44.0479 31.0926 43.652 31.7389 43.3679C32.3852 43.0838 33.1221 42.9418 33.9495 42.9418C34.7947 42.9418 35.528 43.0856 36.1494 43.3732C36.7744 43.6573 37.2591 44.0568 37.6036 44.5717C37.9481 45.0866 38.1238 45.6832 38.1309 46.3615H35.6061ZM46.7709 46.6545C46.7105 46.4308 46.6217 46.2337 46.5045 46.0632C46.3873 45.8892 46.2435 45.7418 46.0731 45.6211C45.9026 45.5004 45.7073 45.4098 45.4871 45.3494C45.267 45.2855 45.0255 45.2536 44.7627 45.2536C44.2336 45.2536 43.7755 45.3814 43.3884 45.6371C43.0049 45.8928 42.7084 46.2656 42.4988 46.7557C42.2893 47.2422 42.1846 47.8335 42.1846 48.5295C42.1846 49.229 42.2858 49.8256 42.4882 50.3192C42.6906 50.8129 42.9836 51.1893 43.3671 51.4485C43.7506 51.7077 44.2158 51.8374 44.7627 51.8374C45.2456 51.8374 45.654 51.7592 45.9878 51.603C46.3252 51.4432 46.5809 51.2177 46.7549 50.9265C46.9289 50.6353 47.0159 50.2926 47.0159 49.8984L47.5059 49.957H44.8532V48.0341H49.5567V49.4776C49.5567 50.4542 49.349 51.2905 48.9335 51.9865C48.5216 52.6825 47.9534 53.217 47.229 53.5898C46.5081 53.9627 45.6789 54.1491 44.7414 54.1491C43.7009 54.1491 42.7865 53.9237 41.9981 53.4727C41.2098 53.0217 40.5954 52.3789 40.1551 51.5444C39.7148 50.7063 39.4946 49.712 39.4946 48.5614C39.4946 47.6665 39.6278 46.8729 39.8941 46.1804C40.1604 45.4844 40.5315 44.8949 41.0074 44.4119C41.4868 43.929 42.0407 43.5632 42.6693 43.3146C43.3014 43.0661 43.9814 42.9418 44.7094 42.9418C45.3415 42.9418 45.9292 43.0323 46.4726 43.2134C47.0194 43.3945 47.5024 43.6502 47.9214 43.9805C48.344 44.3107 48.6867 44.7031 48.9495 45.1577C49.2123 45.6122 49.3756 46.1112 49.4395 46.6545H46.7709ZM61.4073 48.5455C61.4073 49.7457 61.1765 50.7631 60.7148 51.5977C60.2532 52.4322 59.6282 53.0661 58.8398 53.4993C58.055 53.9325 57.1744 54.1491 56.1978 54.1491C55.2177 54.1491 54.3352 53.9308 53.5504 53.494C52.7656 53.0572 52.1424 52.4233 51.6808 51.5923C51.2227 50.7578 50.9936 49.7422 50.9936 48.5455C50.9936 47.3452 51.2227 46.3278 51.6808 45.4933C52.1424 44.6587 52.7656 44.0249 53.5504 43.5916C54.3352 43.1584 55.2177 42.9418 56.1978 42.9418C57.1744 42.9418 58.055 43.1584 58.8398 43.5916C59.6282 44.0249 60.2532 44.6587 60.7148 45.4933C61.1765 46.3278 61.4073 47.3452 61.4073 48.5455ZM58.712 48.5455C58.712 47.8352 58.6108 47.2351 58.4084 46.745C58.2095 46.255 57.9219 45.8839 57.5455 45.6317C57.1726 45.3796 56.7234 45.2536 56.1978 45.2536C55.6758 45.2536 55.2266 45.3796 54.8501 45.6317C54.4737 45.8839 54.1843 46.255 53.9819 46.745C53.783 47.2351 53.6836 47.8352 53.6836 48.5455C53.6836 49.2557 53.783 49.8558 53.9819 50.3459C54.1843 50.8359 54.4737 51.207 54.8501 51.4592C55.2266 51.7113 55.6758 51.8374 56.1978 51.8374C56.7234 51.8374 57.1726 51.7113 57.5455 51.4592C57.9219 51.207 58.2095 50.8359 58.4084 50.3459C58.6108 49.8558 58.712 49.2557 58.712 48.5455ZM62.9467 43.0909H66.212L68.9819 49.8452H69.1097L71.8796 43.0909H75.1449V54H72.5774V47.299H72.4869L69.8661 53.9308H68.2255L65.6048 47.2617H65.5142V54H62.9467V43.0909Z" fill="white"/>
</svg>
